<?xml version="1.0" encoding="UTF-8"?>
<!DOCTYPE svg PUBLIC "-//W3C//DTD SVG 1.1//EN" "http://www.w3.org/Graphics/SVG/1.1/DTD/svg11.dtd">
<svg xml:space="preserve" viewBox="0 0 1130 576" width="1130px" height="576px" version="1.1" style="shape-rendering:geometricPrecision; fill-rule:evenodd; clip-rule:evenodd" xmlns="http://www.w3.org/2000/svg" xmlns:xlink="http://www.w3.org/1999/xlink">
 <defs>
  <style type="text/css">
    .fil2 {fill:black;fill-opacity:0.5}
    .fil1 {fill:url(#id0)}
    .fil0 {fill:url(#id1);fill-opacity:0.7}
  </style>
  <linearGradient id="id0" gradientUnits="userSpaceOnUse" x1="918.767" y1="191.754" x2="918.767" y2="128.036">
   <stop offset="0" style="stop-opacity:1; stop-color:#4D4D4D"/>
   <stop offset="0.6" style="stop-opacity:1; stop-color:gray"/>
   <stop offset="1" style="stop-opacity:1; stop-color:gray"/>
  </linearGradient>
  <linearGradient id="id1" gradientUnits="userSpaceOnUse" xlink:href="#id0" x1="918.767" y1="195.17" x2="918.767" y2="124.62">
  </linearGradient>
 </defs>
 <g>
  <path class="fil0" d="M918.767 124.62c19.481,0 35.275,15.793 35.275,35.275 0,19.481 -15.794,35.275 -35.275,35.275 -19.482,0 -35.275,-15.794 -35.275,-35.275 0,-19.482 15.793,-35.275 35.275,-35.275z"/>
  <path class="fil1" d="M918.767 128.036c17.594,0 31.858,14.264 31.858,31.859 0,17.595 -14.264,31.859 -31.858,31.859 -17.595,0 -31.859,-14.264 -31.859,-31.859 0,-17.595 14.264,-31.859 31.859,-31.859z"/>
  <path class="fil2" d="M929.354 170.645c1.282,-0.406 1.957,-1.709 1.574,-2.918 -0.407,-1.281 -1.698,-1.92 -2.98,-1.513l-9.193 2.916 5.501 -21.416c0.232,-0.92 0.025,-1.701 -0.598,-2.269 -0.636,-0.605 -1.448,-0.75 -2.437,-0.437l-13.074 4.148c-1.282,0.406 -1.921,1.698 -1.538,2.906 0.407,1.282 1.661,1.932 2.944,1.526l9.192 -2.916 -5.488 21.331c-0.257,0.968 -0.049,1.749 0.586,2.354 0.635,0.604 1.483,0.738 2.509,0.413l13.002 -4.125z"/>
 </g>
</svg>
