<?xml version="1.0" encoding="UTF-8"?>
<!DOCTYPE svg PUBLIC "-//W3C//DTD SVG 1.1//EN" "http://www.w3.org/Graphics/SVG/1.1/DTD/svg11.dtd">
<svg xml:space="preserve" viewBox="0 0 1130 576" width="1130px" height="576px" version="1.1" style="shape-rendering:geometricPrecision; fill-rule:evenodd; clip-rule:evenodd" xmlns="http://www.w3.org/2000/svg">
 <defs>
  <style type="text/css">
    .fil0 {fill:#686868;fill-opacity:0.6}
    .fil1 {fill:#686868}
    .fil2 {fill:black;fill-opacity:0.2}
    .fil3 {fill:black;fill-opacity:0.5}
  </style>
 </defs>
 <g>
  <path class="fil0" d="M918.752 124.624c19.482,0 35.275,15.794 35.275,35.275 0,19.482 -15.793,35.276 -35.275,35.276 -19.481,0 -35.275,-15.794 -35.275,-35.276 0,-19.481 15.794,-35.275 35.275,-35.275z"/>
  <ellipse class="fil1" cx="918.752" cy="159.899" rx="31.859" ry="31.858"/>
  <path class="fil2" d="M943.973 168.281c-2.64,11.49 -12.93,20.061 -25.221,20.061 -12.291,0 -22.58,-8.571 -25.22,-20.061 -0.165,-0.72 0.129,-1.434 0.755,-1.828 0.625,-0.394 1.395,-0.351 1.973,0.11 6.171,4.917 13.988,7.857 22.492,7.857 8.505,0 16.321,-2.94 22.493,-7.857 0.578,-0.461 1.349,-0.504 1.974,-0.11 0.626,0.395 0.92,1.108 0.754,1.828z"/>
  <path class="fil3" d="M929.354 170.645c1.282,-0.406 1.957,-1.709 1.574,-2.918 -0.407,-1.281 -1.698,-1.92 -2.98,-1.513l-9.193 2.916 5.501 -21.416c0.232,-0.92 0.025,-1.701 -0.598,-2.269 -0.636,-0.605 -1.448,-0.75 -2.437,-0.437l-13.074 4.148c-1.282,0.406 -1.921,1.698 -1.538,2.906 0.407,1.282 1.661,1.932 2.944,1.526l9.192 -2.916 -5.488 21.331c-0.257,0.968 -0.049,1.749 0.586,2.354 0.635,0.604 1.483,0.738 2.509,0.413l13.002 -4.125z"/>
 </g>
</svg>
