<?xml version="1.0" encoding="UTF-8"?>
<!DOCTYPE svg PUBLIC "-//W3C//DTD SVG 1.1//EN" "http://www.w3.org/Graphics/SVG/1.1/DTD/svg11.dtd">
<svg xml:space="preserve" viewBox="0 0 1130 576" width="1130px" height="576px" version="1.1" style="shape-rendering:geometricPrecision; fill-rule:evenodd; clip-rule:evenodd" xmlns="http://www.w3.org/2000/svg">
 <defs>
  <style type="text/css">
    .str0 {stroke:#1A1A1A;stroke-width:4}
    .str1 {stroke:#4D4D4D;stroke-width:5}
    .str3 {stroke:black;stroke-width:2.5}
    .str2 {stroke:#E6E6E6;stroke-width:1.5;stroke-linecap:round}
    .fil1 {fill:none}
    .fil5 {fill:black}
    .fil6 {fill:black}
    .fil7 {fill:#1A1A1A}
    .fil9 {fill:#2A2A2A}
    .fil10 {fill:#333333}
    .fil8 {fill:#414141}
    .fil12 {fill:#4B4B4B}
    .fil11 {fill:#515151}
    .fil3 {fill:#E6E6E6}
    .fil4 {fill:black;fill-opacity:0.3}
    .fil0 {fill:url(#id0)}
    .fil2 {fill:url(#id1)}
  </style>
  <linearGradient id="id0" gradientUnits="userSpaceOnUse" x1="143.535" y1="571.091" x2="143.535" y2="20.442">
   <stop offset="0" style="stop-opacity:1; stop-color:#1A1A1A"/>
   <stop offset="1" style="stop-opacity:1; stop-color:#4D4D4D"/>
  </linearGradient>
  <linearGradient id="id1" gradientUnits="userSpaceOnUse" x1="854.023" y1="442.453" x2="854.023" y2="77.737">
   <stop offset="0" style="stop-opacity:1; stop-color:#4D4D4D"/>
   <stop offset="1" style="stop-opacity:1; stop-color:#333333"/>
  </linearGradient>
 </defs>
 <g>
  <g id="shell">
   <path id="path1" class="fil0" d="M981.583 51.234l0.917 2.28c4.044,1.178 4.555,0.593 6.581,-0.113 3.629,-1.265 3.954,-1.124 13.419,5.858 36.951,27.255 65.782,66.418 86.438,117.41 8.087,19.963 16.157,45.279 22.331,69.044 7.105,27.35 12.077,55.579 13.397,83.863 0.82,17.591 0.981,41.386 0.097,50.204 -3.036,30.259 -8.46,71.387 -20.494,98.499 -12.707,28.629 -28.569,48.092 -51.778,63.535 -25.31,16.841 -50.707,24.837 -91.492,28.805 -7.797,0.759 -24.187,0.581 -35.5,-0.384 -42.216,-3.602 -83.844,-15.332 -126.12,-35.532 -92.306,-44.108 -130.433,-56.032 -193.553,-60.528 -8.983,-0.64 -24.467,-0.747 -40.826,-0.747 -16.359,0 -31.843,0.107 -40.826,0.747 -63.12,4.496 -101.247,16.42 -193.553,60.528 -42.276,20.2 -83.904,31.93 -126.12,35.532 -11.313,0.965 -27.703,1.143 -35.5,0.384 -40.785,-3.968 -66.182,-11.964 -91.492,-28.805 -23.209,-15.443 -39.071,-34.906 -51.778,-63.535 -12.034,-27.112 -17.458,-68.24 -20.494,-98.499 -0.884,-8.818 -0.723,-32.613 0.097,-50.204 1.32,-28.284 6.292,-56.513 13.397,-83.863 6.174,-23.765 14.244,-49.081 22.331,-69.044 20.656,-50.992 49.487,-90.155 86.438,-117.41 9.465,-6.982 9.79,-7.123 13.419,-5.858 2.026,0.706 2.537,1.291 6.581,0.113l0.917 -2.28c5.271,-1.656 15.717,-5.812 39.083,-14.986 25.297,-9.932 43.433,-14.272 71.241,-17.044 14.888,-1.485 49.193,-0.712 67.384,1.517 12.623,1.548 18.46,2.496 56.875,9.234 7.586,1.331 15.512,2.552 23.637,3.658l0.863 2.119c31.103,4.223 65.041,6.96 94,8.992 20.511,1.438 42.751,1.356 63.5,1.356 20.749,0 42.989,0.082 63.5,-1.356 28.958,-2.032 62.897,-4.769 94,-8.992l0.863 -2.119c8.125,-1.106 16.051,-2.327 23.637,-3.658 38.415,-6.738 44.252,-7.686 56.875,-9.234 18.191,-2.229 52.496,-3.002 67.384,-1.517 27.808,2.772 45.944,7.112 71.241,17.044 23.366,9.174 33.812,13.33 39.083,14.986z"/>
   <path class="fil1 str0" d="M854.023 48.838c116.674,0 211.257,94.583 211.257,211.257 0,116.675 -94.583,211.257 -211.257,211.257 -116.675,0 -211.258,-94.582 -211.258,-211.257 0,-116.674 94.583,-211.257 211.258,-211.257zm-578.046 15.257c108.248,0 196,87.752 196,196 0,108.248 -87.752,196 -196,196 -108.248,0 -196,-87.752 -196,-196 0,-108.248 87.752,-196 196,-196z"/>
   <path class="fil2 str1" d="M854.023 77.737c100.713,0 182.358,81.644 182.358,182.358 0,100.714 -81.645,182.358 -182.358,182.358 -100.714,0 -182.359,-81.644 -182.359,-182.358 0,-100.714 81.645,-182.358 182.359,-182.358zm-578.046 13.723c93.135,0 168.636,75.5 168.636,168.635 0,93.135 -75.501,168.635 -168.636,168.635 -93.134,0 -168.635,-75.5 -168.635,-168.635 0,-93.135 75.501,-168.635 168.635,-168.635z"/>
  </g>
  <g id="print">
   <g>
    <path class="fil3" d="M495.681 136.027c0,2.779 -2.125,5.164 -6.818,5.164 -3.567,0 -5.961,-1.856 -5.961,-4.664 0,-1.933 1.192,-3.509 3.779,-4.067 0.153,-0.048 0.192,-0.222 0.077,-0.317l-0.453 -0.395c-1.461,-1.279 -2.913,-2.741 -2.913,-5.048 0,-2.875 2,-4.683 6.115,-4.683 3.568,0 5.914,1.654 5.914,4.202 0,1.76 -1.317,3.01 -3.625,3.462 -0.154,0.048 -0.183,0.202 -0.077,0.308l0.952 0.845c1.807,1.625 3.009,2.933 3.009,5.193l0.001 0zm-4.433 2.077c0,-1.125 -0.413,-2.413 -1.836,-3.654l-1.76 -1.538c-0.078,-0.086 -0.222,-0.067 -0.27,0.077 -0.259,0.932 -0.336,2.068 -0.336,3.567 0,2.433 0.702,3.914 2.01,3.914 1.269,0 2.182,-0.952 2.182,-2.356l0.01 -0.01zm-3.519 -13.222c0,1.221 0.528,2.049 2.077,3.414l1.076 0.952c0.106,0.105 0.202,0.048 0.26,-0.077 0.221,-0.837 0.269,-1.702 0.269,-2.914 0,-2.202 -0.625,-3.462 -1.999,-3.462 -1.029,0 -1.683,0.76 -1.683,2.087l0 0zm22.567 11.001c0,3.26 -2.183,4.913 -6.538,4.913l-7.683 0c-0.221,0 -0.394,-0.115 -0.394,-0.24 0,-0.125 0.077,-0.259 0.221,-0.336 0.625,-0.317 1.231,-0.692 1.231,-2.395l-0.001 -12.433c0,-1.702 -0.605,-2.067 -1.23,-2.385 -0.132,-0.045 -0.221,-0.168 -0.222,-0.308 0,-0.144 0.183,-0.269 0.395,-0.269l8 0.001c3.644,0 5.51,1.451 5.51,4.278 0,2.722 -1.607,4.145 -4.587,4.424 -0.116,0 -0.164,0.087 -0.164,0.163 0,0.077 0.048,0.155 0.164,0.155 3.164,0.028 5.298,1.528 5.298,4.432l0 0zm-7.971 -12.232l0 6.963c0,0.231 0.106,0.355 0.375,0.355 1.154,0 1.682,-1.356 1.682,-3.913 0,-2.231 -0.499,-3.809 -1.605,-3.809 -0.298,0 -0.453,0.164 -0.453,0.395l0.001 0.009zm2.461 12.251c0,-2.778 -0.779,-4.154 -2.125,-4.154 -0.23,0 -0.336,0.116 -0.336,0.347l0 7.452c0,0.24 0.125,0.423 0.452,0.423 1.385,0 2.009,-1.808 2.009,-4.068l0 0zm13.01 4.51c0,0.202 -0.183,0.375 -0.384,0.375l-6.722 0c-0.202,0 -0.394,-0.144 -0.394,-0.298l0 -0.048c0,-0.125 0.077,-0.259 0.202,-0.317 0.74,-0.356 1.125,-1.068 1.125,-2.414l0 -5.663c0,-1.126 -0.337,-1.731 -0.932,-1.962 -0.154,-0.067 -0.269,-0.192 -0.269,-0.347l0 -0.048c0,-0.192 0.163,-0.317 0.394,-0.317 1.606,-0.028 3.538,-0.259 5.221,-0.731 0.317,-0.105 0.577,0.106 0.577,0.424l0 8.654c0,1.452 0.423,2.077 1,2.385 0.106,0.086 0.183,0.192 0.183,0.317l-0.001 -0.01zm-6.798 -15.107c0,-1.624 1.259,-2.932 2.913,-2.932 1.654,0 2.923,1.308 2.923,2.932 0,1.607 -1.269,2.885 -2.923,2.885 -1.653,0 -2.913,-1.278 -2.913,-2.885l0 0zm14.721 12.068c-0.125,2.346 -1.587,3.808 -3.798,3.808 -2.5,0 -3.606,-1.606 -3.606,-3.769l0 -8.395 -0.5 0c-0.202,0 -0.385,-0.192 -0.385,-0.375l0 -0.105c0,-0.126 0.078,-0.27 0.231,-0.318 2.049,-0.856 4.068,-2.461 4.837,-4.24 0.048,-0.164 0.183,-0.24 0.308,-0.24l0.125 -0.001c0.221,0 0.375,0.193 0.375,0.395l0 3.855 1.654 0c0.221,0 0.394,0.183 0.394,0.394l0 0.385c0,0.221 -0.183,0.395 -0.394,0.395l-1.654 0 0 7.798c0,0.808 0.317,1.336 0.875,1.336 0.499,0 0.759,-0.336 0.855,-0.961 0.029,-0.221 0.193,-0.375 0.375,-0.375 0.184,0 0.347,0.183 0.308,0.413l0 0zm15.307 -5.846c0,6.24 -3.778,9.269 -7.586,9.269l-7.374 0c-0.203,0 -0.395,-0.144 -0.395,-0.269l0 -0.028c0,-0.125 0.087,-0.231 0.192,-0.309 0.702,-0.451 1.154,-1.577 1.154,-2.894l0 -11.76c0,-1.644 -0.452,-2.163 -1.154,-2.538 -0.105,-0.077 -0.192,-0.183 -0.192,-0.308 0,-0.144 0.192,-0.269 0.395,-0.269l7.297 0c4.692,0 7.663,3.567 7.663,9.106l0 0zm-8.346 -8.298c-0.24,0 -0.422,0.163 -0.422,0.394l0 15.952c0,0.24 0.077,0.452 0.394,0.452 2.154,0 2.778,-1.779 2.778,-8 0,-6.24 -0.701,-8.798 -2.759,-8.798l0.009 0zm8.99 11.048c0,-4.087 2.539,-6.875 5.876,-6.875 3.336,0 5.884,2.778 5.884,6.875 0,4.087 -2.548,6.895 -5.884,6.895 -3.337,0 -5.876,-2.808 -5.876,-6.895l0 0zm6.876 0c0,-4.356 -0.346,-5.846 -1,-5.846 -0.654,0 -1.001,1.49 -1.001,5.846 0,4.356 0.347,5.846 1.001,5.846 0.654,0 1,-1.49 1,-5.846l0 0zm3.423 -11.914c0.808,0 1.461,0.654 1.461,1.452 0,0.808 -0.653,1.462 -1.461,1.462 -0.804,-0.001 -1.457,-0.653 -1.457,-1.457 0,-0.805 0.653,-1.457 1.457,-1.457l0 0zm-1.221 1.452c0,0.683 0.547,1.241 1.221,1.241 0.663,0 1.221,-0.568 1.221,-1.241 0,-0.664 -0.548,-1.231 -1.221,-1.231 -0.664,0 -1.221,0.567 -1.221,1.231l0 0zm1.538 0.241c0,0.009 0.009,0.028 0.029,0.067l0.259 0.452c0.029,0.048 0,0.106 -0.067,0.106l-0.086 0c-0.039,0 -0.067,-0.01 -0.087,-0.077l-0.279 -0.491c-0.009,-0.028 -0.038,-0.038 -0.066,-0.038l-0.27 0c-0.01,0 -0.039,0.009 -0.039,0.038l0 0.491c0,0.038 -0.029,0.077 -0.067,0.077l-0.087 0c-0.038,0 -0.067,-0.039 -0.067,-0.077l0 -1.568c0,-0.038 0.029,-0.067 0.067,-0.067l0.549 0c0.307,0 0.547,0.24 0.547,0.548 0,0.192 -0.105,0.356 -0.269,0.461 -0.038,0.039 -0.067,0.049 -0.067,0.078l0 0zm0.115 -0.539c0,-0.192 -0.144,-0.317 -0.336,-0.317l-0.356 0c-0.009,0 -0.038,0.009 -0.038,0.029l0 0.586c0,0.01 0.028,0.028 0.038,0.028l0.356 0.001c0.192,0 0.336,-0.125 0.336,-0.318l0 -0.009zm0 0l0 0 0 0z"/>
   </g>
   <path class="fil3" d="M584.917 140.89l2.843 0 0 -9.05c0,-1.363 -0.067,-3.842 -0.112,-5.873 0.596,2.311 1.247,4.703 1.629,5.873l3.023 9.05 2.462 0 2.982 -9.05c0.382,-1.207 1.063,-3.673 1.618,-5.972 -0.034,2.13 -0.1,4.634 -0.1,5.968l0 9.054 2.887 0 0 -17.928 -4.371 0 -3.035 9.247c-0.314,1.072 -0.814,3.288 -1.195,5.057 -0.367,-1.794 -0.877,-3.998 -1.203,-5.057l-3.068 -9.247 -4.36 0 0 17.928zm25.929 0.247c3.445,0 5.943,-2.18 5.943,-5.201 0,-2.245 -1.243,-3.87 -3.493,-4.219l0 -0.144c1.743,-0.435 2.916,-1.871 2.916,-3.903 0,-2.729 -2.091,-4.954 -5.31,-4.954 -3.135,0 -5.563,2.069 -5.619,5.065l2.787 0c0.044,-1.523 1.31,-2.454 2.809,-2.454 1.517,0 2.513,1.013 2.513,2.536 0,1.589 -1.158,2.639 -2.838,2.639l-1.433 0 0 2.479 1.433 0c2.046,0 3.26,1.145 3.26,2.783 0,1.605 -1.236,2.688 -2.968,2.688 -1.639,0 -2.909,-0.939 -2.983,-2.409l-2.916 0c0.074,3.021 2.505,5.094 5.899,5.094zm14.378 0c3.934,0 6.203,-3.358 6.203,-9.194 0,-5.808 -2.291,-9.227 -6.203,-9.227 -3.919,0 -6.21,3.407 -6.21,9.227 0,5.836 2.279,9.194 6.21,9.194zm0 -2.685c-2.128,0 -3.301,-2.36 -3.301,-6.509 0,-4.146 1.184,-6.543 3.301,-6.543 2.11,0 3.294,2.385 3.294,6.543 0,4.149 -1.184,6.509 -3.294,6.509z"/>
   <line class="fil1 str2" x1="483.816" y1="159.498" x2="630.317" y2= "159.498" />
   <path class="fil3" d="M534.164 305.823l1.945 0 0 -3.48 3.425 0 0 -1.854 -3.425 0 0 -3.474 -1.945 0 0 3.474 -3.435 0 0 1.854 3.435 0 0 3.48zm15.481 0.876c2.297,0 3.942,-1.14 3.942,-2.949 0,-1.365 -0.853,-2.175 -2.691,-2.562l-1.675 -0.345c-0.776,-0.165 -1.233,-0.51 -1.233,-1.065 0,-0.633 0.598,-1.125 1.578,-1.125 1.014,0 1.692,0.606 1.711,1.434l2.081 0c-0.054,-1.908 -1.59,-3.09 -3.846,-3.09 -2.27,0 -3.738,1.146 -3.738,2.853 0,1.407 0.93,2.316 2.706,2.685l1.587 0.327c0.786,0.165 1.269,0.492 1.269,1.056 0,0.66 -0.651,1.125 -1.728,1.125 -1.109,0 -1.761,-0.519 -1.857,-1.425l-2.186 0c0.141,1.995 1.817,3.081 4.08,3.081zm10.52 -9.504l-1.89 0 0 -2.529 -2.226 0 0 2.529 -1.617 0 0 1.782 1.617 0 0 5.169c0,1.59 0.889,2.337 2.781,2.337l1.335 0 0 -1.782 -0.948 0c-0.723,0 -0.942,-0.219 -0.942,-0.879l0 -4.845 1.89 0 0 -1.782zm4.429 9.432c1.515,0 2.298,-0.63 2.738,-1.452l0.034 0 0 1.308 2.174 0 0 -6.327c0,-1.935 -1.434,-3.138 -3.848,-3.138 -2.425,0 -3.933,1.221 -4.038,3.066l2.132 0c0.06,-0.78 0.78,-1.344 1.861,-1.344 1.067,0 1.7,0.564 1.7,1.353l0 0.072c0,0.633 -0.588,0.66 -2.313,0.852 -1.917,0.201 -3.645,0.72 -3.645,2.829 0,1.854 1.363,2.781 3.205,2.781zm0.542 -1.638c-0.966,0 -1.587,-0.429 -1.587,-1.158 0,-0.846 0.807,-1.188 1.756,-1.329 0.912,-0.141 1.773,-0.282 2.045,-0.456l0 1.002c0,1.08 -0.764,1.941 -2.214,1.941zm6.369 1.494l2.214 0 0 -5.268c0,-1.455 0.816,-2.184 1.872,-2.184 0.438,0 0.879,0.042 1.045,0.069l0 -1.959c-0.172,-0.018 -0.418,-0.036 -0.715,-0.036 -1.197,0 -1.908,0.561 -2.25,1.62l-0.026 0 0 -1.53 -2.14 0 0 9.288zm11.634 -9.288l-1.889 0 0 -2.529 -2.226 0 0 2.529 -1.617 0 0 1.782 1.617 0 0 5.169c0,1.59 0.888,2.337 2.781,2.337l1.334 0 0 -1.782 -0.947 0c-0.723,0 -0.942,-0.219 -0.942,-0.879l0 -4.845 1.889 0 0 -1.782z"/>
  </g>
  <g id="button-star">
   <circle class="fil1 str3" cx="483.696" cy="373.946" r="24.887"/>
   <path class="fil4" d="M484.596 358.298l3.944 8.176c0.15,0.311 0.423,0.51 0.765,0.557l8.995 1.223c0.39,0.053 0.695,0.308 0.816,0.682 0.122,0.374 0.025,0.759 -0.259,1.031l-6.557 6.277c-0.25,0.239 -0.355,0.56 -0.293,0.901l1.615 8.932c0.07,0.387 -0.078,0.756 -0.396,0.987 -0.318,0.231 -0.714,0.258 -1.061,0.072l-7.996 -4.297c-0.305,-0.164 -0.642,-0.164 -0.946,0l-7.997 4.297c-0.346,0.186 -0.743,0.159 -1.061,-0.072 -0.318,-0.231 -0.466,-0.6 -0.396,-0.987l1.615 -8.933c0.062,-0.34 -0.042,-0.661 -0.292,-0.9l-6.557 -6.277c-0.284,-0.272 -0.381,-0.657 -0.26,-1.031 0.122,-0.374 0.427,-0.629 0.816,-0.682l8.995 -1.223c0.343,-0.047 0.616,-0.245 0.766,-0.557l3.944 -8.176c0.17,-0.354 0.507,-0.566 0.9,-0.566 0.393,0 0.729,0.211 0.9,0.566z"/>
  </g>
  <g id="button-back">
   <circle class="fil1 str3" cx="557.376" cy="373.946" r="24.887"/>
   <polygon class="fil4" points="572.876,377.447 541.876,377.447 541.876,370.446 572.876,370.446 "/>
  </g>
  <g id="button-home">
   <circle class="fil1 str3" cx="631.057" cy="373.946" r="24.887"/>
   <path class="fil4" d="M627.826 368.807l6.462 0 0 -6.756 7.049 0 0 6.756 6.462 0 0 7.342 -6.462 0 0 6.462 -6.755 0 0 6.755 -7.05 0 0 -6.755 -6.755 0 0 -6.462 -6.462 0 0 -7.342 6.462 0 0 -6.756 7.049 0 0 6.756zm6.756 0.293l0 6.462 6.461 0 0 -6.462 -6.461 0zm-13.512 0l0 6.462 6.462 0 0 -6.462 -6.462 0zm13.218 7.049l-6.462 0 0 6.169 6.462 0 0 -6.169z"/>
  </g>
  <g id="holes">
   <path class="fil5" d="M526.394 276.222c-8.896,0 -16.11,-7.213 -16.11,-16.11 0,-8.897 7.213,-16.11 16.11,-16.11l61.345 0c8.897,0 16.11,7.213 16.11,16.11 0,8.897 -7.213,16.11 -16.11,16.11l-61.345 0z"/>
   <circle class="fil6" cx="720.397" cy="236.681" r="39.275"/>
   <circle class="fil6" cx="817.854" cy="188.766" r="39.275"/>
   <circle class="fil6" cx="918.752" cy="159.899" r="39.275"/>
   <circle class="fil6" cx="758.289" cy="358.541" r="53.15"/>
   <circle class="fil6" cx="863.536" cy="299.904" r="53.15"/>
   <circle class="fil6" cx="979.272" cy="266.576" r="53.15"/>
   <circle class="fil7" cx="275.977" cy="260.095" r="119.836"/>
  </g>
  <g id="dpad">
   <circle class="fil8" cx="275.977" cy="260.095" r="106.246"/>
   <path class="fil9" d="M275.977 153.849c11.718,0 22.991,1.902 33.532,5.405l0 61.311c0,3.304 2.695,6 5.999,6l61.311 0c3.503,10.54 5.405,21.813 5.405,33.53 0,11.718 -1.902,22.991 -5.406,33.532l-61.31 0c-3.304,0 -5.999,2.695 -5.999,5.999l0 61.31c-10.541,3.503 -21.814,5.405 -33.532,5.405 -11.717,0 -22.989,-1.901 -33.53,-5.405l0 -61.31c0,-3.304 -2.696,-5.999 -6,-5.999l-61.31 0c-3.504,-10.541 -5.406,-21.814 -5.406,-33.532 0,-11.717 1.902,-22.99 5.405,-33.53l61.311 0c3.304,0 6,-2.696 6,-6l0 -61.311c10.541,-3.503 21.813,-5.405 33.53,-5.405z"/>
   <path class="fil10" d="M209.118 323.69l6.466 -13.186c0.356,-0.727 0.994,-1.201 1.792,-1.334 0.794,-0.131 1.556,0.113 2.125,0.682l6.719 6.719c0.57,0.569 0.813,1.331 0.682,2.125 -0.132,0.798 -0.607,1.436 -1.334,1.792l-13.186 6.467c-0.949,0.466 -2.052,0.284 -2.801,-0.464 -0.747,-0.748 -0.929,-1.852 -0.463,-2.801zm127.253 -13.186l6.466 13.186c0.466,0.949 0.284,2.053 -0.463,2.801 -0.749,0.748 -1.852,0.93 -2.801,0.464l-13.186 -6.467c-0.727,-0.356 -1.202,-0.994 -1.334,-1.792 -0.131,-0.794 0.112,-1.556 0.682,-2.125l6.719 -6.719c0.569,-0.569 1.331,-0.813 2.125,-0.682 0.798,0.133 1.435,0.607 1.792,1.334zm-9.984 -110.802l13.186 -6.467c0.949,-0.466 2.053,-0.284 2.801,0.464 0.748,0.748 0.93,1.851 0.463,2.8l-6.466 13.187c-0.357,0.726 -0.994,1.201 -1.792,1.333 -0.794,0.131 -1.556,-0.112 -2.125,-0.681l-6.719 -6.72c-0.57,-0.569 -0.813,-1.331 -0.682,-2.124 0.132,-0.799 0.607,-1.436 1.334,-1.792zm-114.005 -6.467l13.186 6.467c0.727,0.356 1.202,0.993 1.334,1.792 0.131,0.794 -0.112,1.555 -0.682,2.124l-6.719 6.72c-0.569,0.569 -1.331,0.812 -2.125,0.681 -0.798,-0.132 -1.436,-0.607 -1.792,-1.333l-6.466 -13.187c-0.467,-0.949 -0.285,-2.052 0.463,-2.8 0.748,-0.748 1.852,-0.93 2.801,-0.464z"/>
   <path class="fil11" d="M341.943 324.128l-6.467 -13.186c-0.213,-0.434 -0.581,-0.709 -1.058,-0.787 -0.482,-0.08 -0.912,0.058 -1.257,0.404l-6.72 6.719c-0.346,0.346 -0.483,0.774 -0.404,1.258 0.079,0.477 0.354,0.844 0.787,1.058l13.187 6.466c0.567,0.279 1.209,0.171 1.656,-0.276 0.446,-0.446 0.554,-1.09 0.276,-1.656zm-1.932 -129.999l-13.187 6.467c-0.433,0.213 -0.708,0.581 -0.787,1.058 -0.079,0.482 0.059,0.912 0.404,1.258l6.72 6.719c0.346,0.346 0.774,0.484 1.257,0.404 0.477,-0.079 0.845,-0.353 1.058,-0.787l6.467 -13.186c0.279,-0.568 0.171,-1.21 -0.276,-1.657 -0.446,-0.446 -1.09,-0.554 -1.656,-0.276zm-114.88 6.467l-13.187 -6.467c-0.567,-0.278 -1.21,-0.17 -1.656,0.276 -0.446,0.447 -0.555,1.09 -0.276,1.657l6.467 13.186c0.213,0.434 0.581,0.708 1.057,0.787 0.483,0.079 0.912,-0.058 1.258,-0.404l6.72 -6.719c0.346,-0.347 0.483,-0.775 0.404,-1.258 -0.079,-0.477 -0.354,-0.845 -0.787,-1.058zm-8.652 110.346l-6.467 13.186c-0.278,0.567 -0.17,1.21 0.276,1.656 0.446,0.446 1.089,0.555 1.656,0.276l13.187 -6.466c0.433,-0.214 0.708,-0.581 0.787,-1.058 0.079,-0.483 -0.059,-0.912 -0.404,-1.258l-6.72 -6.719c-0.346,-0.347 -0.774,-0.484 -1.258,-0.404 -0.476,0.078 -0.844,0.353 -1.057,0.787z"/>
   <path class="fil8" d="M275.977 159.902c7.389,0 14.589,0.802 21.521,2.32 3.714,0.814 6.288,4.013 6.288,7.815l0 50.25c0,6.61 5.39,12 12,12l50.25 0c3.801,0 7.001,2.575 7.815,6.288 1.518,6.932 2.32,14.132 2.32,21.52 0,7.389 -0.802,14.589 -2.321,21.522 -0.813,3.713 -4.013,6.288 -7.814,6.288l-50.25 0c-6.61,0 -12,5.39 -12,11.999l0 50.249c0,3.801 -2.574,7.002 -6.288,7.815 -6.932,1.519 -14.132,2.32 -21.521,2.32 -7.388,0 -14.589,-0.802 -21.521,-2.32 -3.713,-0.813 -6.288,-4.013 -6.288,-7.815l0 -50.249c0,-6.609 -5.39,-11.999 -11.999,-11.999l-50.25 0c-3.801,0 -7.001,-2.575 -7.814,-6.288 -1.519,-6.933 -2.321,-14.134 -2.321,-21.522 0,-7.388 0.802,-14.588 2.32,-21.52 0.814,-3.714 4.013,-6.288 7.815,-6.288l50.25 0c6.609,0 11.999,-5.39 11.999,-12l0 -50.25c0,-3.802 2.575,-7.001 6.288,-7.815 6.932,-1.518 14.133,-2.32 21.521,-2.32zm0 81.044c10.576,0 19.149,8.574 19.149,19.149 0,10.576 -8.573,19.149 -19.149,19.149 -10.575,0 -19.149,-8.573 -19.149,-19.149 0,-10.575 8.574,-19.149 19.149,-19.149z"/>
   <path class="fil12" d="M275.977 171.06c5.9,0 11.664,0.575 17.243,1.67 2.843,0.558 4.844,2.991 4.844,5.888l0 41.391c0,9.914 8.086,18 18,18l41.392 0c2.896,0 5.329,2.002 5.887,4.844 1.095,5.578 1.67,11.343 1.67,17.242 0,5.9 -0.576,11.665 -1.671,17.243 -0.557,2.843 -2.99,4.844 -5.887,4.844l-41.391 0c-9.914,0 -18,8.086 -18,18l0 41.391c0,2.896 -2.001,5.329 -4.844,5.887 -5.578,1.095 -11.343,1.67 -17.243,1.67 -5.899,0 -11.664,-0.575 -17.242,-1.67 -2.843,-0.558 -4.844,-2.991 -4.844,-5.887l0 -41.391c0,-9.914 -8.086,-18 -18,-18l-41.391 0c-2.897,0 -5.33,-2.001 -5.887,-4.844 -1.095,-5.578 -1.671,-11.343 -1.671,-17.243 0,-5.899 0.575,-11.664 1.67,-17.242 0.558,-2.842 2.991,-4.844 5.887,-4.844l41.392 0c9.914,0 18,-8.086 18,-18l0 -41.392c0,-2.896 2.001,-5.329 4.844,-5.887 5.578,-1.095 11.343,-1.67 17.242,-1.67zm0 -11.158c7.389,0 14.589,0.802 21.521,2.32 3.714,0.814 6.288,4.013 6.288,7.815l0 50.25c0,6.61 5.39,12 12,12l50.25 0c3.801,0 7.001,2.575 7.815,6.288 1.518,6.932 2.32,14.132 2.32,21.52 0,7.389 -0.802,14.589 -2.321,21.522 -0.813,3.713 -4.013,6.288 -7.814,6.288l-50.25 0c-6.61,0 -12,5.39 -12,11.999l0 50.249c0,3.801 -2.574,7.002 -6.288,7.815 -6.932,1.519 -14.132,2.32 -21.521,2.32 -7.388,0 -14.589,-0.802 -21.521,-2.32 -3.713,-0.813 -6.288,-4.013 -6.288,-7.815l0 -50.249c0,-6.609 -5.39,-11.999 -11.999,-11.999l-50.25 0c-3.801,0 -7.001,-2.575 -7.814,-6.288 -1.519,-6.933 -2.321,-14.134 -2.321,-21.522 0,-7.388 0.802,-14.588 2.32,-21.52 0.814,-3.714 4.013,-6.288 7.815,-6.288l50.25 0c6.609,0 11.999,-5.39 11.999,-12l0 -50.25c0,-3.802 2.575,-7.001 6.288,-7.815 6.932,-1.518 14.133,-2.32 21.521,-2.32z"/>
  </g>
 </g>
</svg>
