<?xml version="1.0" encoding="UTF-8"?>
<!DOCTYPE svg PUBLIC "-//W3C//DTD SVG 1.1//EN" "http://www.w3.org/Graphics/SVG/1.1/DTD/svg11.dtd">
<svg xml:space="preserve" viewBox="0 0 1130 576" width="1130px" height="576px" version="1.1" style="shape-rendering:geometricPrecision; fill-rule:evenodd; clip-rule:evenodd" xmlns="http://www.w3.org/2000/svg">
 <defs>
  <style type="text/css">
    .fil0 {fill:#5454CC}
    .fil1 {fill:white;fill-opacity:0.7}
  </style>
 </defs>
 <g>
  <path class="fil0" d="M587.739 247.002c7.241,0 13.11,5.87 13.11,13.11 0,7.241 -5.87,13.11 -13.11,13.11l-61.345 0c-7.24,0 -13.11,-5.869 -13.11,-13.11 0,-7.24 5.87,-13.11 13.11,-13.11l61.345 0z"/>
  <path class="fil1" d="M526.394 258.036c-1.708,0 -3.094,-1.386 -3.094,-3.094 0,-1.708 1.386,-3.093 3.094,-3.093l61.345 0c1.709,0 3.094,1.385 3.094,3.093 0,1.708 -1.386,3.094 -3.094,3.094l-61.345 0z"/>
 </g>
</svg>
