<?xml version="1.0" encoding="UTF-8"?>
<!DOCTYPE svg PUBLIC "-//W3C//DTD SVG 1.1//EN" "http://www.w3.org/Graphics/SVG/1.1/DTD/svg11.dtd">
<svg xml:space="preserve" viewBox="0 0 562 286" width="562px" height="286px" version="1.1" style="shape-rendering:geometricPrecision; fill-rule:evenodd; clip-rule:evenodd" xmlns="http://www.w3.org/2000/svg">
 <defs>
  <style type="text/css">
    .fil1 {fill:#3D3D3D}
    .fil3 {fill:black;fill-opacity:0.4}
    .fil0 {fill:#3D3D3D;fill-opacity:0.7}
    .fil2 {fill:url(#id0)}
  </style>
  <linearGradient id="id0" gradientUnits="userSpaceOnUse" x1="486.933" y1="152.759" x2="486.933" y2="111.941">
   <stop offset="0" style="stop-opacity:1; stop-color:#464646"/>
   <stop offset="0.4" style="stop-opacity:1; stop-color:#3D3D3D"/>
   <stop offset="1" style="stop-opacity:1; stop-color:#2B2B2B"/>
  </linearGradient>
 </defs>
 <g>
  <path class="fil0" d="M486.934 107.972c13.463,0 24.378,10.915 24.378,24.378 0,13.463 -10.915,24.378 -24.378,24.378 -13.464,0 -24.378,-10.915 -24.378,-24.378 0,-13.463 10.914,-24.378 24.378,-24.378z"/>
  <circle class="fil1" cx="486.933" cy="132.35" r="22.677"/>
  <circle class="fil2" cx="486.933" cy="132.35" r="20.409"/>
  <path class="fil3" d="M490.079 141.153c2.367,-0.486 4.258,-1.635 5.645,-3.442 0.23,-0.284 0.319,-0.617 0.247,-0.97 -0.124,-0.604 -0.731,-1.004 -1.335,-0.88 -0.277,0.057 -0.483,0.204 -0.674,0.427 -1.057,1.371 -2.505,2.246 -4.293,2.613 -1.989,0.409 -3.781,0.12 -5.329,-0.901 -1.548,-1.02 -2.513,-2.528 -2.922,-4.518 -0.408,-1.989 -0.109,-3.73 0.911,-5.278 1.021,-1.548 2.549,-2.544 4.563,-2.958 1.789,-0.367 3.439,-0.128 4.951,0.716 0.262,0.13 0.51,0.184 0.787,0.128 0.604,-0.125 1.004,-0.732 0.875,-1.361 -0.067,-0.328 -0.28,-0.599 -0.609,-0.794 -1.982,-1.089 -4.146,-1.406 -6.489,-0.925 -2.594,0.532 -4.609,1.838 -5.99,3.933 -1.381,2.094 -1.823,4.416 -1.29,7.01 0.532,2.594 1.828,4.559 3.922,5.94 2.095,1.381 4.436,1.792 7.03,1.26z"/>
 </g>
</svg>
