<?xml version="1.0" encoding="UTF-8"?>
<!DOCTYPE svg PUBLIC "-//W3C//DTD SVG 1.1//EN" "http://www.w3.org/Graphics/SVG/1.1/DTD/svg11.dtd">
<svg xml:space="preserve" viewBox="0 0 1130 576" width="1130px" height="576px" version="1.1" style="shape-rendering:geometricPrecision; fill-rule:evenodd; clip-rule:evenodd" xmlns="http://www.w3.org/2000/svg">
 <defs>
  <style type="text/css">
    .fil1 {fill:white}
    .fil0 {fill:red}
  </style>
 </defs>
 <g>
  <path id="path1" class="fil0" d="M982.5 53.514c4.044,1.178 4.555,0.593 6.581,-0.113 3.629,-1.265 3.954,-1.124 13.419,5.858 36.951,27.255 65.782,66.418 86.438,117.41 8.087,19.963 16.157,45.279 22.331,69.044 7.105,27.35 12.077,55.579 13.397,83.863 0.82,17.591 0.981,41.386 0.097,50.204 -3.036,30.259 -8.46,71.387 -20.494,98.499 -12.707,28.629 -28.569,48.092 -51.778,63.535 -25.31,16.841 -50.707,24.837 -91.492,28.805 -7.797,0.759 -24.187,0.581 -35.5,-0.384 -42.216,-3.602 -83.844,-15.332 -126.12,-35.532 -92.306,-44.108 -130.433,-56.032 -193.553,-60.528 -8.983,-0.64 -24.467,-0.747 -40.826,-0.747 -16.359,0 -31.843,0.107 -40.826,0.747 -63.12,4.496 -101.247,16.42 -193.553,60.528 -42.276,20.2 -83.904,31.93 -126.12,35.532 -11.313,0.965 -27.703,1.143 -35.5,0.384 -40.785,-3.968 -66.182,-11.964 -91.492,-28.805 -23.209,-15.443 -39.071,-34.906 -51.778,-63.535 -12.034,-27.112 -17.458,-68.24 -20.494,-98.499 -0.884,-8.818 -0.723,-32.613 0.097,-50.204 1.32,-28.284 6.292,-56.513 13.397,-83.863 6.174,-23.765 14.244,-49.081 22.331,-69.044 20.656,-50.992 49.487,-90.155 86.438,-117.41 9.465,-6.982 9.79,-7.123 13.419,-5.858 2.026,0.706 2.537,1.291 6.581,0.113l0 -10.587c0,-1.935 1.021,-3.594 2.748,-4.467l9.336 -4.714c26.174,-13.219 52.201,-21.733 83.679,-26.204 31.521,-4.477 69.745,-2.409 87.737,0.064 26.821,3.688 58.973,10.026 72.384,12.441 2.404,0.434 4.116,2.482 4.116,4.925l0 10.76c31.103,4.223 65.041,6.96 94,8.992 20.511,1.438 42.751,1.356 63.5,1.356 20.749,0 42.989,0.082 63.5,-1.356 28.958,-2.032 62.897,-4.769 94,-8.992l0 -10.76c0,-2.443 1.712,-4.491 4.116,-4.925 13.411,-2.415 45.563,-8.753 72.384,-12.441 17.992,-2.473 56.216,-4.541 87.737,-0.064 31.478,4.471 57.505,12.985 83.679,26.204l9.336 4.714c1.727,0.873 2.748,2.532 2.748,4.467l0 10.587z"/>
  <path class="fil1" d="M565 129.997c70.695,0 128.002,57.307 128.002,128.002 0,70.695 -57.307,128.002 -128.002,128.002 -70.695,0 -128.002,-57.307 -128.002,-128.002 0,-70.695 57.307,-128.002 128.002,-128.002zm15.968 134.442c2.334,2.338 2.334,6.15 0,8.485l-11.953 11.952 5.044 5.04c1.781,1.787 1.781,4.681 0,6.468l-11.853 11.846c-10.462,10.462 -26.112,12.564 -38.663,6.311l-26.045 26.048c18.386,15.049 41.886,24.08 67.502,24.08 58.912,0 106.67,-47.758 106.67,-106.67 0,-25.616 -9.031,-49.116 -24.08,-67.502l-26.027 26.027c6.256,12.545 4.154,28.204 -6.307,38.666l-11.853 11.853c-1.781,1.784 -4.674,1.784 -6.461,0l-40.943 -40.949c-1.79,-1.781 -1.79,-4.678 0,-6.462l11.846 -11.852c10.45,-10.447 26.076,-12.56 38.615,-6.332l26.042 -26.042c-18.386,-15.049 -41.889,-24.077 -67.502,-24.077 -58.912,0 -106.67,47.758 -106.67,106.67 0,25.613 9.028,49.116 24.077,67.502l26.06 -26.057c-6.228,-12.542 -4.118,-28.174 6.329,-38.618l11.852 -11.853c1.787,-1.786 4.681,-1.786 6.462,0l5.016 5.014 11.952 -11.953c2.335,-2.334 6.153,-2.334 8.488,0 2.334,2.338 2.334,6.15 0,8.485l-11.953 11.952 13.915 13.921 11.952 -11.953c2.335,-2.334 6.154,-2.334 8.488,0z"/>
 </g>
</svg>
