<?xml version="1.0" encoding="UTF-8"?>
<!DOCTYPE svg PUBLIC "-//W3C//DTD SVG 1.1//EN" "http://www.w3.org/Graphics/SVG/1.1/DTD/svg11.dtd">
<svg xml:space="preserve" viewBox="0 0 562 286" width="562px" height="286px" version="1.1" style="shape-rendering:geometricPrecision; fill-rule:evenodd; clip-rule:evenodd" xmlns="http://www.w3.org/2000/svg">
 <defs>
  <style type="text/css">
    .fil0 {fill:red}
    .fil1 {fill:white}
  </style>
 </defs>
 <g>
  <path class="fil0" d="M488.537 26.438c2.011,0.586 2.265,0.295 3.272,-0.056 1.804,-0.629 1.965,-0.559 6.67,2.912 18.369,13.548 32.7,33.016 42.969,58.364 4.019,9.923 8.031,22.508 11.1,34.321 3.532,13.596 6.004,27.628 6.659,41.689 0.408,8.744 0.488,20.572 0.049,24.955 -1.509,15.042 -4.205,35.486 -10.188,48.964 -6.316,14.232 -14.201,23.906 -25.739,31.583 -12.581,8.372 -25.206,12.346 -45.479,14.319 -3.877,0.377 -12.024,0.289 -17.647,-0.191 -20.986,-1.79 -41.679,-7.621 -62.694,-17.663 -45.885,-21.926 -64.838,-27.853 -96.214,-30.088 -4.466,-0.318 -12.163,-0.372 -20.295,-0.372 -8.132,0 -15.829,0.054 -20.295,0.372 -31.376,2.235 -50.329,8.162 -96.214,30.088 -21.015,10.042 -41.708,15.873 -62.694,17.663 -5.623,0.48 -13.77,0.568 -17.647,0.191 -20.273,-1.973 -32.898,-5.947 -45.479,-14.319 -11.538,-7.677 -19.423,-17.351 -25.739,-31.583 -5.983,-13.478 -8.679,-33.922 -10.188,-48.964 -0.439,-4.383 -0.359,-16.211 0.049,-24.955 0.655,-14.061 3.127,-28.093 6.659,-41.689 3.069,-11.813 7.081,-24.398 11.1,-34.321 10.269,-25.348 24.6,-44.816 42.969,-58.364 4.705,-3.471 4.866,-3.541 6.67,-2.912 1.007,0.351 1.261,0.642 3.272,0.056l0 -5.263c0,-0.962 0.507,-1.786 1.366,-2.22l4.64 -2.344c13.012,-6.571 25.949,-10.803 41.597,-13.025 15.669,-2.226 34.67,-1.198 43.614,0.031 13.332,1.833 29.315,4.984 35.982,6.185 1.195,0.215 2.045,1.233 2.045,2.448l0 5.349c15.461,2.099 32.332,3.459 46.728,4.469 10.195,0.716 21.251,0.675 31.565,0.675 10.314,0 21.37,0.04 31.565,-0.675 14.396,-1.01 31.267,-2.37 46.728,-4.469l0 -5.349c0,-1.215 0.85,-2.233 2.045,-2.448 6.667,-1.201 22.65,-4.352 35.982,-6.185 8.944,-1.229 27.945,-2.257 43.614,-0.031 15.648,2.222 28.585,6.454 41.597,13.025l4.64 2.344c0.859,0.434 1.366,1.258 1.366,2.22l0 5.263z"/>
  <path class="fil1" d="M281 64.457c35.142,0 63.629,28.487 63.629,63.63 0,35.142 -28.487,63.629 -63.629,63.629 -35.142,0 -63.629,-28.487 -63.629,-63.629 0,-35.143 28.487,-63.63 63.629,-63.63zm7.937 66.831c1.161,1.162 1.161,3.057 0,4.218l-5.941 5.941 2.507 2.506c0.885,0.888 0.885,2.326 0,3.215l-5.892 5.889c-5.2,5.2 -12.98,6.245 -19.219,3.137l-12.947 12.948c9.14,7.481 20.821,11.97 33.555,11.97 29.285,0 53.025,-23.74 53.025,-53.025 0,-12.734 -4.489,-24.416 -11.97,-33.555l-12.938 12.938c3.11,6.236 2.065,14.02 -3.135,19.221l-5.892 5.891c-0.885,0.887 -2.324,0.887 -3.212,0l-20.353 -20.355c-0.889,-0.885 -0.889,-2.325 0,-3.212l5.889 -5.892c5.195,-5.193 12.963,-6.244 19.195,-3.148l12.946 -12.945c-9.14,-7.481 -20.823,-11.969 -33.555,-11.969 -29.285,0 -53.025,23.741 -53.025,53.026 0,12.732 4.488,24.415 11.968,33.555l12.955 -12.953c-3.096,-6.235 -2.047,-14.006 3.146,-19.197l5.892 -5.892c0.888,-0.888 2.326,-0.888 3.212,0l2.493 2.492 5.942 -5.941c1.16,-1.16 3.058,-1.16 4.218,0 1.161,1.162 1.161,3.057 0,4.217l-5.941 5.942 6.917 6.92 5.942 -5.942c1.16,-1.16 3.058,-1.16 4.218,0z"/>
 </g>
</svg>
