<?xml version="1.0" encoding="UTF-8"?>
<!DOCTYPE svg PUBLIC "-//W3C//DTD SVG 1.1//EN" "http://www.w3.org/Graphics/SVG/1.1/DTD/svg11.dtd">
<svg xml:space="preserve" viewBox="0 0 562 286" width="562px" height="286px" version="1.1" style="shape-rendering:geometricPrecision; fill-rule:evenodd; clip-rule:evenodd" xmlns="http://www.w3.org/2000/svg">
 <defs>
  <style type="text/css">
    .fil1 {fill:red}
    .fil2 {fill:#FF3030}
  </style>
 </defs>
 <g>
  <path class="fil1" d="M151.353 147.379c-0.131,0.491 -0.202,1.007 -0.202,1.539l0 24.978c0,1.889 -1.279,3.48 -3.125,3.885 -3.446,0.755 -7.026,1.153 -10.698,1.153 -3.673,0 -7.253,-0.399 -10.698,-1.153 -1.846,-0.405 -3.126,-1.995 -3.126,-3.885l0 -24.978c0,-0.532 -0.07,-1.048 -0.202,-1.539 4.399,-2.103 9.116,-3.245 14.026,-3.245 4.909,0 9.626,1.142 14.025,3.245z"/>
  <path class="fil2" d="M148.754 146.264c-0.29,0.879 -0.447,1.817 -0.447,2.792l0 20.575c0,1.44 -0.995,2.649 -2.408,2.926 -2.773,0.545 -5.639,0.831 -8.571,0.831 -2.933,0 -5.799,-0.286 -8.572,-0.831 -1.413,-0.277 -2.407,-1.486 -2.407,-2.926l0 -20.575c0,-0.975 -0.158,-1.913 -0.448,-2.792 -0.878,0.334 -1.744,0.707 -2.599,1.115 0.132,0.491 0.202,1.007 0.202,1.539l0 24.978c0,1.89 1.28,3.48 3.126,3.885 3.445,0.754 7.025,1.153 10.698,1.153 3.672,0 7.252,-0.398 10.698,-1.153 1.846,-0.405 3.125,-1.996 3.125,-3.885l0 -24.978c0,-0.532 0.071,-1.048 0.202,-1.539 -0.855,-0.409 -1.721,-0.781 -2.599,-1.115z"/>
 </g>
</svg>

