<?xml version="1.0" encoding="UTF-8"?>
<!DOCTYPE svg PUBLIC "-//W3C//DTD SVG 1.1//EN" "http://www.w3.org/Graphics/SVG/1.1/DTD/svg11.dtd">
<svg xml:space="preserve" viewBox="0 0 562 286" width="562px" height="286px" version="1.1" style="shape-rendering:geometricPrecision; fill-rule:evenodd; clip-rule:evenodd" xmlns="http://www.w3.org/2000/svg">
 <defs>
  <style type="text/css">
    .fil0 {fill:red; fill-opacity:0.5}
    .fil1 {fill:red}
    .fil2 {fill:#FF3030}
  </style>
 </defs>
 <g>
  <path class="fil0" d="M137.328 76.314c4.241,0 8.366,0.501 12.317,1.446 2.583,0.618 4.351,2.858 4.351,5.514l0 23.953c0,1.468 -0.778,2.726 -2.091,3.382 -4.555,2.274 -9.463,3.515 -14.577,3.515 -5.115,0 -10.023,-1.241 -14.577,-3.515 -1.314,-0.656 -2.091,-1.914 -2.091,-3.382l0 -23.953c0,-2.656 1.767,-4.896 4.351,-5.514 3.951,-0.944 8.075,-1.446 12.317,-1.446z"/>
  <path class="fil1" d="M137.328 79.323c3.672,0 7.252,0.398 10.698,1.153 1.846,0.404 3.125,1.995 3.125,3.885l0 24.979c0,0.532 0.071,1.047 0.202,1.539 -4.399,2.102 -9.116,3.245 -14.025,3.245 -4.91,0 -9.627,-1.143 -14.026,-3.246 0.132,-0.491 0.202,-1.006 0.202,-1.538l0 -24.979c0,-1.89 1.28,-3.481 3.126,-3.885 3.445,-0.755 7.025,-1.153 10.698,-1.153z"/>
  <path class="fil2" d="M137.328 84.869c2.932,0 5.798,0.286 8.571,0.831 1.413,0.277 2.408,1.486 2.408,2.926l0 20.576c0,0.974 0.157,1.913 0.447,2.792 0.878,-0.335 1.744,-0.707 2.599,-1.115 -0.131,-0.492 -0.202,-1.007 -0.202,-1.539l0 -24.979c0,-1.89 -1.279,-3.481 -3.125,-3.885 -3.446,-0.755 -7.026,-1.153 -10.698,-1.153 -3.673,0 -7.253,0.398 -10.698,1.153 -1.846,0.404 -3.126,1.995 -3.126,3.885l0 24.979c0,0.532 -0.07,1.047 -0.202,1.538 0.855,0.409 1.721,0.781 2.599,1.116 0.29,-0.879 0.448,-1.818 0.448,-2.792l0 -20.576c0,-1.44 0.994,-2.649 2.407,-2.926 2.773,-0.545 5.639,-0.831 8.572,-0.831z"/>
 </g>
</svg>
