<?xml version="1.0" encoding="UTF-8"?>
<!DOCTYPE svg PUBLIC "-//W3C//DTD SVG 1.1//EN" "http://www.w3.org/Graphics/SVG/1.1/DTD/svg11.dtd">
<svg xml:space="preserve" viewBox="0 0 1130 576" width="1130px" height="576px" version="1.1" style="shape-rendering:geometricPrecision; fill-rule:evenodd; clip-rule:evenodd" xmlns="http://www.w3.org/2000/svg">
 <defs>
  <style type="text/css">
    .fil0 {fill:red;fill-opacity:0.5}
    .fil1 {fill:red}
    .fil2 {fill:black;fill-opacity:0.2}
    .fil3 {fill:black;fill-opacity:0.5}
  </style>
 </defs>
 <g>
  <path class="fil0" d="M720.397 201.406c19.481,0 35.275,15.793 35.275,35.275 0,19.482 -15.794,35.275 -35.275,35.275 -19.482,0 -35.275,-15.793 -35.275,-35.275 0,-19.482 15.793,-35.275 35.275,-35.275z"/>
  <circle class="fil1" cx="720.397" cy="236.681" r="31.859"/>
  <path class="fil2" d="M745.618 245.062c-2.64,11.49 -12.93,20.061 -25.221,20.061 -12.291,0 -22.581,-8.571 -25.221,-20.061 -0.165,-0.72 0.13,-1.434 0.755,-1.827 0.626,-0.394 1.396,-0.351 1.974,0.11 6.171,4.916 13.988,7.856 22.492,7.856 8.504,0 16.321,-2.94 22.493,-7.856 0.578,-0.461 1.348,-0.504 1.974,-0.11 0.626,0.394 0.92,1.107 0.754,1.827z"/>
  <path class="fil3" d="M722.095 240.049l9.969 4.638c2.25,0.738 3.812,-0.339 3.706,-2.198 -0.051,-0.928 -0.56,-1.571 -1.513,-1.984l-11.613 -5.129 2.352 -12.17c0.187,-2.049 -1.216,-3.404 -3.009,-2.77 -0.888,0.291 -1.425,1.005 -1.642,2.167l-1.834 10.591 -9.709 -4.557c-2.25,-0.739 -3.812,0.338 -3.707,2.198 0.085,0.909 0.595,1.554 1.548,1.966l11.336 5.014 -2.45 12.481c-0.152,2.031 1.284,3.368 3.043,2.752 0.922,-0.309 1.459,-1.023 1.676,-2.184l1.847 -10.815z"/>
 </g>
</svg>
