<?xml version="1.0" encoding="UTF-8"?>
<!DOCTYPE svg PUBLIC "-//W3C//DTD SVG 1.1//EN" "http://www.w3.org/Graphics/SVG/1.1/DTD/svg11.dtd">
<svg xml:space="preserve" viewBox="0 0 1130 576" width="1130px" height="576px" version="1.1" style="shape-rendering:geometricPrecision; fill-rule:evenodd; clip-rule:evenodd" xmlns="http://www.w3.org/2000/svg">
 <defs>
  <style type="text/css">
    .fil0 {fill:#CC0000}
    .fil1 {fill:red}
    .fil2 {fill:#FF3030}
  </style>
 </defs>
 <g>
  <path class="fil0" d="M275.977 153.849c11.718,0 22.991,1.902 33.532,5.405l0 61.311c-10.321,6.017 -21.648,9.345 -33.532,9.345 -11.883,0 -23.209,-3.328 -33.53,-9.345l0 -61.311c10.541,-3.503 21.813,-5.405 33.53,-5.405zm35.194 70.855l0.098 0.1 -0.041 0.041 -0.057 -0.141zm-70.293 0.292l-0.192 -0.192c0.151,-0.151 0.294,-0.31 0.428,-0.476l-0.236 0.668z"/>
  <path class="fil1" d="M275.977 159.902c7.389,0 14.589,0.802 21.521,2.32 3.714,0.814 6.288,4.013 6.288,7.815l0 50.25c0,1.07 0.141,2.107 0.406,3.095 -8.849,4.23 -18.339,6.528 -28.215,6.528 -9.875,0 -19.365,-2.298 -28.214,-6.528 0.264,-0.988 0.405,-2.026 0.405,-3.095l0 -50.25c0,-3.802 2.575,-7.001 6.288,-7.815 6.932,-1.518 14.133,-2.32 21.521,-2.32z"/>
  <path class="fil2" d="M275.977 171.06c5.9,0 11.664,0.575 17.243,1.67 2.843,0.558 4.844,2.991 4.844,5.888l0 41.391c0,1.96 0.316,3.848 0.9,5.617 1.766,-0.674 3.509,-1.422 5.228,-2.244 -0.265,-0.988 -0.406,-2.025 -0.406,-3.095l0 -50.25c0,-3.802 -2.574,-7.001 -6.288,-7.815 -6.932,-1.518 -14.132,-2.32 -21.521,-2.32 -7.388,0 -14.589,0.802 -21.521,2.32 -3.713,0.814 -6.288,4.013 -6.288,7.815l0 50.25c0,1.069 -0.141,2.107 -0.405,3.095 1.719,0.821 3.462,1.571 5.228,2.244 0.583,-1.769 0.9,-3.657 0.9,-5.617l0 -41.392c0,-2.896 2.001,-5.329 4.844,-5.887 5.578,-1.095 11.343,-1.67 17.242,-1.67z"/>
 </g>
</svg>
