<?xml version="1.0" encoding="UTF-8"?>
<!DOCTYPE svg PUBLIC "-//W3C//DTD SVG 1.1//EN" "http://www.w3.org/Graphics/SVG/1.1/DTD/svg11.dtd">
<svg xml:space="preserve" viewBox="0 0 1130 576" width="1130px" height="576px" version="1.1" style="shape-rendering:geometricPrecision; fill-rule:evenodd; clip-rule:evenodd" xmlns="http://www.w3.org/2000/svg">
 <defs>
  <style type="text/css">
    .fil0 {fill:url(#id0)}
    .fil1 {fill:white;fill-opacity:0.5}
    .fil2 {fill:white;fill-opacity:0.7}
  </style>
  <linearGradient id="id0" gradientUnits="userSpaceOnUse" x1="557.469" y1="254.868" x2="557.469" y2="267.978">
   <stop offset="0" style="stop-opacity:1; stop-color:red"/>
   <stop offset="1" style="stop-opacity:1; stop-color:#C00000"/>
  </linearGradient>
 </defs>
 <g>
  <path class="fil0" d="M526.394 273.222c-7.24,0 -13.11,-5.869 -13.11,-13.11 0,-7.24 5.87,-13.11 13.11,-13.11 20.448,0 40.897,0 61.345,0 7.241,0 13.11,5.87 13.11,13.11 0,7.241 -5.869,13.11 -13.11,13.11 -20.448,0 -40.897,0 -61.345,0z"/>
  <path class="fil1" d="M526.516 258.017c-1.723,0 -3.121,-1.399 -3.121,-3.122 0,-1.724 1.397,-3.122 3.121,-3.122 20.367,0 40.734,0 61.101,0 1.724,0 3.122,1.398 3.122,3.122 0,1.723 -1.399,3.122 -3.122,3.122 -20.367,0 -40.734,0 -61.101,0z"/>
  <path class="fil2" d="M526.515 256.501c-0.885,0 -1.606,-0.719 -1.606,-1.606 0,-0.887 0.719,-1.606 1.606,-1.606 20.368,0 40.735,0 61.103,0 0.887,0 1.606,0.719 1.606,1.606 0,0.887 -0.721,1.606 -1.606,1.606 -20.368,0 -40.735,0 -61.103,0z"/>
 </g>
</svg>
