<?xml version="1.0" encoding="UTF-8"?>
<!DOCTYPE svg PUBLIC "-//W3C//DTD SVG 1.1//EN" "http://www.w3.org/Graphics/SVG/1.1/DTD/svg11.dtd">
<svg xml:space="preserve" viewBox="0 0 1130 576" width="1130px" height="576px" version="1.1" style="shape-rendering:geometricPrecision; fill-rule:evenodd; clip-rule:evenodd" xmlns="http://www.w3.org/2000/svg">
 <defs>
  <style type="text/css">
    .fil0 {fill:#CC0000}
    .fil1 {fill:red}
    .fil2 {fill:#FF3030}
  </style>
 </defs>
 <g>
  <path class="fil0" d="M311.268 224.803l0.102 0.099 -0.143 -0.057 0.041 -0.042zm4.24 1.762l61.311 0c3.503,10.54 5.405,21.813 5.405,33.53 0,11.718 -1.902,22.991 -5.406,33.532l-61.31 0c-6.017,-10.321 -9.345,-21.648 -9.345,-33.531 0,-11.884 3.328,-23.21 9.345,-33.531zm-3.763 68.394c-0.166,0.134 -0.325,0.278 -0.476,0.429l-0.192 -0.192 0.668 -0.237z"/>
  <path class="fil1" d="M312.691 231.881c0.988,0.265 2.026,0.406 3.095,0.406l50.25 0c3.801,0 7.001,2.575 7.815,6.288 1.518,6.932 2.32,14.132 2.32,21.52 0,7.389 -0.802,14.589 -2.321,21.522 -0.813,3.713 -4.013,6.288 -7.814,6.288l-50.25 0c-1.069,0 -2.107,0.141 -3.095,0.405 -4.23,-8.848 -6.528,-18.339 -6.528,-28.214 0,-9.876 2.298,-19.366 6.528,-28.215z"/>
  <path class="fil2" d="M310.448 237.11c1.768,0.583 3.656,0.899 5.616,0.899l41.392 0c2.896,0 5.329,2.002 5.887,4.844 1.095,5.578 1.67,11.343 1.67,17.242 0,5.9 -0.576,11.665 -1.671,17.243 -0.557,2.843 -2.99,4.844 -5.887,4.844l-41.391 0c-1.96,0 -3.848,0.317 -5.616,0.9 0.673,1.766 1.422,3.51 2.243,5.228 0.988,-0.264 2.026,-0.405 3.095,-0.405l50.25 0c3.801,0 7.001,-2.575 7.814,-6.288 1.519,-6.933 2.321,-14.133 2.321,-21.522 0,-7.388 -0.802,-14.588 -2.32,-21.52 -0.814,-3.713 -4.014,-6.288 -7.815,-6.288l-50.25 0c-1.069,0 -2.107,-0.141 -3.095,-0.406 -0.821,1.719 -1.57,3.463 -2.243,5.229z"/>
 </g>
</svg>
