<?xml version="1.0" encoding="UTF-8"?>
<!DOCTYPE svg PUBLIC "-//W3C//DTD SVG 1.1//EN" "http://www.w3.org/Graphics/SVG/1.1/DTD/svg11.dtd">
<svg xml:space="preserve" viewBox="0 0 562 286" width="562px" height="286px" version="1.1" style="shape-rendering:geometricPrecision; fill-rule:evenodd; clip-rule:evenodd" xmlns="http://www.w3.org/2000/svg">
 <defs>
  <style type="text/css">
    .fil1 {fill:red}
    .fil3 {fill:black;fill-opacity:0.3}
    .fil0 {fill:red;fill-opacity:0.5}
    .fil2 {fill:url(#id0)}
  </style>
  <linearGradient id="id0" gradientUnits="userSpaceOnUse" x1="377.084" y1="198.664" x2="377.084" y2="157.467">
   <stop offset="0" style="stop-opacity:1; stop-color:red"/>
   <stop offset="0.301961" style="stop-opacity:1; stop-color:red"/>
   <stop offset="1" style="stop-opacity:1; stop-color:#D00000"/>
  </linearGradient>
 </defs>
 <g>
  <path class="fil0" d="M377.084 153.499c13.568,0 24.567,10.999 24.567,24.567 0,13.567 -10.999,24.567 -24.567,24.567 -13.568,0 -24.567,-11 -24.567,-24.567 0,-13.568 10.999,-24.567 24.567,-24.567z"/>
  <circle class="fil1" cx="377.084" cy="178.066" r="22.866"/>
  <circle class="fil2" cx="377.084" cy="178.066" r="20.598"/>
  <path class="fil3" d="M374.332 172.797l6.366 5.463 -5.537 2.894 -0.829 -8.357zm0.24 -2.592c-0.594,-0.472 -1.16,-0.554 -1.683,-0.28l-0.114 0.06c-0.525,0.274 -0.768,0.807 -0.697,1.553l1.571 16.934c0.093,0.676 0.583,1.059 1.156,0.991 0.655,-0.023 1.151,-0.573 1.069,-1.342l-0.463 -4.603 7.086 -3.704 3.515 3.007c0.585,0.507 1.319,0.413 1.712,-0.112 0.383,-0.432 0.383,-1.041 -0.143,-1.549l-13.009 -10.955z"/>
 </g>
</svg>
