<?xml version="1.0" encoding="UTF-8"?>
<!DOCTYPE svg PUBLIC "-//W3C//DTD SVG 1.1//EN" "http://www.w3.org/Graphics/SVG/1.1/DTD/svg11.dtd">
<svg xml:space="preserve" viewBox="0 0 1130 576" width="1130px" height="576px" version="1.1" style="shape-rendering:geometricPrecision; fill-rule:evenodd; clip-rule:evenodd" xmlns="http://www.w3.org/2000/svg" xmlns:xlink="http://www.w3.org/1999/xlink">
 <defs>
  <style type="text/css">
    .fil1 {fill:red}
    .fil3 {fill:black;fill-opacity:0.5}
    .fil0 {fill:red;fill-opacity:0.5}
    .fil2 {fill:url(#id0)}
  </style>
  <linearGradient id="id0" gradientUnits="userSpaceOnUse" x1="758.289" y1="399.056" x2="758.289" y2="318.026">
   <stop offset="0" style="stop-opacity:1; stop-color:red"/>
   <stop offset="0.3" style="stop-opacity:1; stop-color:red"/>
   <stop offset="1" style="stop-opacity:1; stop-color:#D00000"/>
  </linearGradient>
 </defs>
 <g>
  <path class="fil0" d="M758.29 309.391c27.144,0 49.149,22.005 49.149,49.15 0,27.144 -22.005,49.149 -49.149,49.149 -27.145,0 -49.15,-22.005 -49.15,-49.149 0,-27.145 22.005,-49.15 49.15,-49.15z"/>
  <circle class="fil1" cx="758.289" cy="358.54" r="45.254"/>
  <circle class="fil2" cx="758.289" cy="358.54" r="40.515"/>
  <path class="fil3" d="M752.753 347.943l12.806 10.988 -11.137 5.822 -1.669 -16.81zm0.485 -5.214c-1.197,-0.95 -2.334,-1.115 -3.388,-0.564l-0.229 0.12c-1.055,0.551 -1.544,1.624 -1.401,3.126l3.16 34.064c0.186,1.361 1.172,2.131 2.326,1.994 1.318,-0.047 2.316,-1.153 2.149,-2.699l-0.931 -9.26 14.255 -7.452 7.072 6.049c1.175,1.019 2.652,0.831 3.443,-0.224 0.771,-0.87 0.771,-2.096 -0.288,-3.118l-26.168 -22.036z"/>
 </g>
</svg>
