<?xml version="1.0" encoding="UTF-8"?>
<!DOCTYPE svg PUBLIC "-//W3C//DTD SVG 1.1//EN" "http://www.w3.org/Graphics/SVG/1.1/DTD/svg11.dtd">
<svg xml:space="preserve" viewBox="0 0 562 286" width="562px" height="286px" version="1.1" style="shape-rendering:geometricPrecision; fill-rule:evenodd; clip-rule:evenodd" xmlns="http://www.w3.org/2000/svg">
 <defs>
  <style type="text/css">
    .fil0 {fill:#CC0000}
    .fil1 {fill:red}
    .fil2 {fill:#FF3030}
  </style>
 </defs>
 <g>
  <path class="fil0" d="M154.871 111.585l0.05 0.049 -0.071 -0.029 0.021 -0.02zm2.107 0.876l30.478 0c1.741,5.239 2.686,10.843 2.686,16.667 0,5.825 -0.945,11.429 -2.686,16.669l-30.478 0c-2.991,-5.131 -4.645,-10.761 -4.645,-16.668 0,-5.907 1.654,-11.538 4.645,-16.668zm-1.871 33.998c-0.082,0.067 -0.161,0.138 -0.236,0.213l-0.096 -0.095 0.332 -0.118z"/>
  <path class="fil1" d="M155.578 115.103c0.491,0.132 1.007,0.202 1.538,0.202l24.979 0c1.89,0 3.481,1.28 3.885,3.126 0.755,3.446 1.154,7.025 1.154,10.697 0,3.673 -0.399,7.253 -1.154,10.699 -0.404,1.846 -1.995,3.125 -3.885,3.125l-24.979 0c-0.531,0 -1.047,0.071 -1.538,0.202 -2.103,-4.398 -3.245,-9.116 -3.245,-14.025 0,-4.909 1.142,-9.627 3.245,-14.026z"/>
  <path class="fil2" d="M154.463 117.702c0.879,0.29 1.817,0.448 2.791,0.448l20.576 0c1.44,0 2.649,0.995 2.927,2.408 0.544,2.772 0.83,5.638 0.83,8.57 0,2.933 -0.286,5.799 -0.83,8.572 -0.278,1.413 -1.487,2.408 -2.927,2.408l-20.576 0c-0.974,0 -1.912,0.157 -2.791,0.447 0.334,0.878 0.707,1.745 1.115,2.599 0.491,-0.131 1.007,-0.202 1.538,-0.202l24.979 0c1.89,0 3.481,-1.279 3.885,-3.125 0.755,-3.446 1.154,-7.026 1.154,-10.699 0,-3.672 -0.399,-7.251 -1.154,-10.697 -0.404,-1.846 -1.995,-3.126 -3.885,-3.126l-24.979 0c-0.531,0 -1.047,-0.07 -1.538,-0.202 -0.408,0.855 -0.781,1.722 -1.115,2.599z"/>
 </g>
</svg>
