<?xml version="1.0" encoding="UTF-8"?>
<!DOCTYPE svg PUBLIC "-//W3C//DTD SVG 1.1//EN" "http://www.w3.org/Graphics/SVG/1.1/DTD/svg11.dtd">
<svg xml:space="preserve" viewBox="0 0 1130 576" width="1130px" height="576px" version="1.1" style="shape-rendering:geometricPrecision; fill-rule:evenodd; clip-rule:evenodd" xmlns="http://www.w3.org/2000/svg">
 <defs>
  <style type="text/css">
    .fil0 {fill:#CC0000}
    .fil1 {fill:red}
    .fil2 {fill:#FF3030}
  </style>
 </defs>
 <g>
  <path class="fil0" d="M311.27 295.387l-0.099 0.1 0.057 -0.141 0.042 0.041zm-1.761 4.239l0 61.31c-10.541,3.503 -21.814,5.405 -33.532,5.405 -11.717,0 -22.989,-1.901 -33.53,-5.405l0 -61.31c10.321,-6.017 21.647,-9.345 33.53,-9.345 11.884,0 23.211,3.328 33.532,9.345zm-68.395 -3.763c-0.134,-0.167 -0.277,-0.325 -0.428,-0.476l0.192 -0.192 0.236 0.668z"/>
  <path class="fil1" d="M304.192 296.809c-0.265,0.988 -0.406,2.026 -0.406,3.095l0 50.249c0,3.801 -2.574,7.002 -6.288,7.815 -6.932,1.519 -14.132,2.32 -21.521,2.32 -7.388,0 -14.589,-0.802 -21.521,-2.32 -3.713,-0.813 -6.288,-4.013 -6.288,-7.815l0 -50.249c0,-1.069 -0.141,-2.106 -0.405,-3.094 8.848,-4.23 18.339,-6.529 28.214,-6.529 9.876,0 19.366,2.299 28.215,6.528z"/>
  <path class="fil2" d="M298.964 294.566c-0.584,1.768 -0.9,3.656 -0.9,5.616l0 41.391c0,2.896 -2.001,5.329 -4.844,5.887 -5.578,1.095 -11.343,1.67 -17.243,1.67 -5.899,0 -11.664,-0.575 -17.242,-1.67 -2.843,-0.558 -4.844,-2.991 -4.844,-5.887l0 -41.391c0,-1.96 -0.317,-3.848 -0.9,-5.616 -1.766,0.673 -3.509,1.422 -5.228,2.244 0.264,0.988 0.405,2.025 0.405,3.094l0 50.249c0,3.802 2.575,7.002 6.288,7.815 6.932,1.518 14.133,2.32 21.521,2.32 7.389,0 14.589,-0.801 21.521,-2.32 3.714,-0.813 6.288,-4.014 6.288,-7.815l0 -50.249c0,-1.069 0.141,-2.107 0.406,-3.095 -1.719,-0.822 -3.462,-1.57 -5.228,-2.243z"/>
 </g>
</svg>
