<?xml version="1.0" encoding="UTF-8"?>
<!DOCTYPE svg PUBLIC "-//W3C//DTD SVG 1.1//EN" "http://www.w3.org/Graphics/SVG/1.1/DTD/svg11.dtd">
<svg xml:space="preserve" viewBox="0 0 1130 576" width="1130px" height="576px" version="1.1" style="shape-rendering:geometricPrecision; fill-rule:evenodd; clip-rule:evenodd" xmlns="http://www.w3.org/2000/svg">
 <defs>
  <style type="text/css">
    .fil0 {fill:red;fill-opacity:0.5}
    .fil1 {fill:red}
    .fil2 {fill:black;fill-opacity:0.2}
    .fil3 {fill:black;fill-opacity:0.5}
  </style>
 </defs>
 <g>
  <path class="fil0" d="M863.536 250.754c27.144,0 49.149,22.006 49.149,49.15 0,27.144 -22.005,49.15 -49.149,49.15 -27.145,0 -49.151,-22.006 -49.151,-49.15 0,-27.144 22.006,-49.15 49.151,-49.15z"/>
  <circle class="fil1" cx="863.536" cy="299.904" r="45.254"/>
  <path class="fil2" d="M863.536 259.389c20.426,0 37.322,15.116 40.111,34.772 0.119,0.841 -0.305,1.629 -1.073,1.992 -0.768,0.364 -1.648,0.192 -2.222,-0.435 -7.662,-8.361 -21.286,-13.924 -36.816,-13.924 -15.532,0 -29.156,5.564 -36.818,13.926 -0.574,0.626 -1.453,0.799 -2.222,0.436 -0.768,-0.363 -1.192,-1.152 -1.073,-1.993 2.788,-19.656 19.685,-34.774 40.113,-34.774z"/>
  <path class="fil3" d="M861.239 315.649l-4.81 -11.554 8.595 -3.578c4.058,-1.689 7.387,-0.554 8.85,3.094 1.558,3.61 0.018,6.772 -4.041,8.461l-8.594 3.577zm-3.093 -28.291c3.437,-1.431 6.198,-0.451 7.45,2.557 1.252,3.008 0.002,5.657 -3.436,7.088l-7.4 3.081 -4.015 -9.645 7.401 -3.081zm10.85 8.705c1.703,-2.502 1.895,-5.271 0.623,-8.327 -2.166,-5.204 -7.262,-6.949 -13.183,-4.484l-9.502 3.955c-1.193,0.497 -1.703,1.83 -1.226,2.975l5.148 12.367 6.996 16.807c0.497,1.194 1.802,1.771 2.995,1.274l10.696 -4.452c6.541,-2.723 9.185,-8.081 6.74,-13.954 -1.749,-4.201 -4.851,-6.271 -9.287,-6.161l0 0z"/>
 </g>
</svg>
