<?xml version="1.0" encoding="UTF-8"?>
<!DOCTYPE svg PUBLIC "-//W3C//DTD SVG 1.1//EN" "http://www.w3.org/Graphics/SVG/1.1/DTD/svg11.dtd">
<svg xml:space="preserve" viewBox="0 0 562 286" width="562px" height="286px" version="1.1" style="shape-rendering:geometricPrecision; fill-rule:evenodd; clip-rule:evenodd" xmlns="http://www.w3.org/2000/svg">
 <defs>
  <style type="text/css">
    .fil1 {fill:red}
    .fil2 {fill:#FF3030}
  </style>
 </defs>
 <g>
  <path class="fil1" d="M119.077 143.154c-0.491,-0.131 -1.006,-0.202 -1.538,-0.202l-24.979 0c-1.89,0 -3.48,-1.279 -3.885,-3.125 -0.754,-3.446 -1.153,-7.026 -1.153,-10.699 0,-3.672 0.399,-7.251 1.153,-10.697 0.404,-1.846 1.995,-3.126 3.885,-3.126l24.979 0c0.532,0 1.047,-0.07 1.538,-0.202 2.103,4.399 3.246,9.117 3.246,14.026 0,4.909 -1.143,9.627 -3.246,14.025z"/>
  <path class="fil2" d="M120.193 140.555c-0.879,-0.29 -1.818,-0.447 -2.792,-0.447l-20.576 0c-1.44,0 -2.649,-0.995 -2.926,-2.408 -0.545,-2.773 -0.83,-5.639 -0.83,-8.572 0,-2.932 0.285,-5.798 0.83,-8.57 0.277,-1.413 1.486,-2.408 2.926,-2.408l20.576 0c0.974,0 1.913,-0.158 2.792,-0.448 -0.335,-0.878 -0.707,-1.744 -1.116,-2.599 -0.491,0.132 -1.006,0.202 -1.538,0.202l-24.979 0c-1.89,0 -3.481,1.28 -3.885,3.126 -0.754,3.446 -1.153,7.025 -1.153,10.697 0,3.673 0.399,7.253 1.153,10.699 0.405,1.846 1.995,3.125 3.885,3.125l24.979 0c0.532,0 1.047,0.071 1.538,0.202 0.409,-0.854 0.781,-1.721 1.116,-2.599z"/>
 </g>
</svg>

