<?xml version="1.0" encoding="UTF-8"?>
<!DOCTYPE svg PUBLIC "-//W3C//DTD SVG 1.1//EN" "http://www.w3.org/Graphics/SVG/1.1/DTD/svg11.dtd">
<svg xml:space="preserve" viewBox="0 0 1130 576" width="1130px" height="576px" version="1.1" style="shape-rendering:geometricPrecision; fill-rule:evenodd; clip-rule:evenodd" xmlns="http://www.w3.org/2000/svg">
 <defs>
  <style type="text/css">
    .fil0 {fill:#CC0000}
    .fil1 {fill:red}
    .fil2 {fill:#FF3030}
  </style>
 </defs>
 <g>
  <path class="fil0" d="M240.685 295.386c-0.15,-0.15 -0.309,-0.293 -0.475,-0.427l0.667 0.236 -0.192 0.191zm-4.238 -1.759l-61.31 0c-3.504,-10.541 -5.406,-21.814 -5.406,-33.532 0,-11.717 1.902,-22.99 5.405,-33.53l61.311 0c6.017,10.321 9.345,21.647 9.345,33.531 0,11.883 -3.328,23.21 -9.345,33.531zm4.139 -68.725l0.101 -0.099 0.041 0.042 -0.142 0.057z"/>
  <path class="fil1" d="M239.264 288.31c-0.988,-0.264 -2.026,-0.405 -3.095,-0.405l-50.25 0c-3.801,0 -7.001,-2.575 -7.814,-6.288 -1.519,-6.933 -2.321,-14.134 -2.321,-21.522 0,-7.388 0.802,-14.588 2.32,-21.52 0.814,-3.714 4.013,-6.288 7.815,-6.288l50.25 0c1.069,0 2.107,-0.141 3.095,-0.406 4.23,8.849 6.528,18.339 6.528,28.215 0,9.875 -2.298,19.366 -6.528,28.214z"/>
  <path class="fil2" d="M241.508 283.082c-1.769,-0.583 -3.657,-0.9 -5.617,-0.9l-41.391 0c-2.897,0 -5.33,-2.001 -5.887,-4.844 -1.095,-5.578 -1.671,-11.343 -1.671,-17.243 0,-5.899 0.575,-11.664 1.67,-17.242 0.558,-2.842 2.991,-4.844 5.887,-4.844l41.392 0c1.96,0 3.848,-0.316 5.617,-0.9 -0.673,-1.765 -1.422,-3.509 -2.244,-5.228 -0.988,0.265 -2.026,0.406 -3.095,0.406l-50.25 0c-3.802,0 -7.001,2.574 -7.815,6.288 -1.518,6.932 -2.32,14.132 -2.32,21.52 0,7.388 0.802,14.589 2.321,21.522 0.813,3.713 4.013,6.288 7.814,6.288l50.25 0c1.069,0 2.107,0.141 3.095,0.405 0.821,-1.718 1.571,-3.462 2.244,-5.228z"/>
 </g>
</svg>
