<?xml version="1.0" encoding="UTF-8"?>
<!DOCTYPE svg PUBLIC "-//W3C//DTD SVG 1.1//EN" "http://www.w3.org/Graphics/SVG/1.1/DTD/svg11.dtd">
<svg xml:space="preserve" viewBox="0 0 1130 576" width="1130px" height="576px" version="1.1" style="shape-rendering:geometricPrecision; fill-rule:evenodd; clip-rule:evenodd" xmlns="http://www.w3.org/2000/svg">
 <defs>
  <style type="text/css">
    .fil1 {fill:black;fill-opacity:0.2}
    .fil0 {fill:url(#id0)}
  </style>
  <linearGradient id="id0" gradientUnits="userSpaceOnUse" x1="722.5" y1="29.212" x2="982.5" y2="29.212">
   <stop offset="0" style="stop-opacity:1; stop-color:#A10000"/>
   <stop offset="0.05" style="stop-opacity:1; stop-color:red"/>
   <stop offset="0.95" style="stop-opacity:1; stop-color:red"/>
   <stop offset="1" style="stop-opacity:1; stop-color:#A10000"/>
  </linearGradient>
 </defs>
 <g>
  <path id="path1" class="fil0" d="M982.5 53.514l0 -10.587c0,-1.935 -1.021,-3.594 -2.748,-4.467l-9.336 -4.714c-26.174,-13.219 -52.201,-21.733 -83.679,-26.204 -31.521,-4.477 -69.745,-2.409 -87.737,0.064 -26.821,3.688 -58.973,10.026 -72.384,12.441 -2.404,0.434 -4.116,2.482 -4.116,4.925l0 10.76c8.426,-1.144 16.646,-2.397 24.5,-3.775 38.415,-6.738 44.252,-7.687 56.875,-9.234 18.191,-2.23 52.496,-3.002 67.384,-1.518 27.808,2.773 45.944,7.113 71.241,17.045 24.806,9.739 35.05,13.822 40,15.264z"/>
  <path id="path1_0" class="fil1" d="M982.5 53.514l0 -2.002c-4.95,-1.442 -15.194,-5.525 -40,-15.264 -25.297,-9.932 -43.433,-14.272 -71.241,-17.044 -14.888,-1.485 -49.193,-0.712 -67.384,1.517 -12.623,1.548 -18.46,2.496 -56.875,9.234 -7.854,1.378 -16.074,2.631 -24.5,3.775l0 2.002c8.426,-1.144 16.646,-2.397 24.5,-3.775 38.415,-6.738 44.252,-7.687 56.875,-9.234 18.191,-2.23 52.496,-3.002 67.384,-1.518 27.808,2.773 45.944,7.113 71.241,17.045 24.806,9.739 35.05,13.822 40,15.264z"/>
 </g>
</svg>
