<?xml version="1.0" encoding="UTF-8"?>
<!DOCTYPE svg PUBLIC "-//W3C//DTD SVG 1.1//EN" "http://www.w3.org/Graphics/SVG/1.1/DTD/svg11.dtd">
<svg xml:space="preserve" viewBox="0 0 562 286" width="562px" height="286px" version="1.1" style="shape-rendering:geometricPrecision; fill-rule:evenodd; clip-rule:evenodd" xmlns="http://www.w3.org/2000/svg" xmlns:xlink="http://www.w3.org/1999/xlink">
 <defs>
  <style type="text/css">
    .str3 {stroke:#4D4D4D}
    .str0 {stroke:#B3B3B3;stroke-width:2}
    .str1 {stroke:#E8E8E8;stroke-width:2.5}
    .str2 {stroke:#585858;stroke-linecap:round}
    .fil1 {fill:none}
    .fil28 {fill:#00B870}
    .fil5 {fill:#333333}
    .fil4 {fill:#333333}
    .fil6 {fill:#585858}
    .fil9 {fill:#606060}
    .fil8 {fill:#787878}
    .fil10 {fill:#909090}
    .fil31 {fill:#FFCF0D}
    .fil34 {fill:#1990FF}
    .fil7 {fill:black;fill-opacity:0.1}
    .fil15 {fill:black;fill-opacity:0.2}
    .fil22 {fill:black;fill-opacity:0.33}
    .fil18 {fill:white;fill-opacity:0.5}
    .fil27 {fill:#00B870;fill-opacity:0.7}
    .fil19 {fill:white;fill-opacity:0.7}
    .fil30 {fill:#FFCF0D;fill-opacity:0.7}
    .fil33 {fill:#3A8BFD;fill-opacity:0.7}
    .fil3 {fill:url(#id0)}
    .fil2 {fill:url(#id1)}
    .fil14 {fill:url(#id2)}
    .fil32 {fill:url(#id3)}
    .fil16 {fill:url(#id4)}
    .fil13 {fill:url(#id5)}
    .fil35 {fill:url(#id6)}
    .fil26 {fill:url(#id7)}
    .fil24 {fill:url(#id8)}
    .fil21 {fill:url(#id9)}
    .fil29 {fill:url(#id10)}
    .fil17 {fill:url(#id11)}
    .fil11 {fill:url(#id12)}
    .fil0 {fill:url(#id13)}
    .fil12 {fill:url(#id14)}
    .fil20 {fill:url(#id15);fill-opacity:0.7}
    .fil23 {fill:url(#id16);fill-opacity:0.7}
    .fil25 {fill:url(#id17);fill-opacity:0.7}
  </style>
  <linearGradient id="id0" gradientUnits="userSpaceOnUse" x1="455.676" y1="214.312" x2="393.668" y2="43.946">
   <stop offset="0" style="stop-opacity:1; stop-color:#F8F8F8"/>
   <stop offset="1" style="stop-opacity:1; stop-color:#D4D4D4"/>
  </linearGradient>
  <linearGradient id="id1" gradientUnits="userSpaceOnUse" xlink:href="#id0" x1="108.657" y1="207.901" x2="165.999" y2="50.356">
  </linearGradient>
  <linearGradient id="id2" gradientUnits="userSpaceOnUse" x1="73.462" y1="14.357" x2="202.707" y2="14.357">
   <stop offset="0" style="stop-opacity:1; stop-color:#4D4D4D"/>
   <stop offset="0.05" style="stop-opacity:1; stop-color:gray"/>
   <stop offset="0.95" style="stop-opacity:1; stop-color:gray"/>
   <stop offset="1" style="stop-opacity:1; stop-color:#4D4D4D"/>
  </linearGradient>
  <linearGradient id="id3" gradientUnits="userSpaceOnUse" x1="429.401" y1="169.327" x2="429.401" y2="128.508">
   <stop offset="0" style="stop-opacity:1; stop-color:#FFD633"/>
   <stop offset="0.4" style="stop-opacity:1; stop-color:#FFCF0D"/>
   <stop offset="1" style="stop-opacity:1; stop-color:#D9B00B"/>
  </linearGradient>
  <linearGradient id="id4" gradientUnits="userSpaceOnUse" xlink:href="#id2" x1="359.293" y1="14.357" x2="488.538" y2="14.357">
  </linearGradient>
  <linearGradient id="id5" gradientUnits="userSpaceOnUse" x1="137.327" y1="137.633" x2="137.327" y2="122.514">
   <stop offset="0" style="stop-opacity:1; stop-color:#B3B3B3"/>
   <stop offset="0.35" style="stop-opacity:1; stop-color:gray"/>
   <stop offset="1" style="stop-opacity:1; stop-color:#4D4D4D"/>
  </linearGradient>
  <linearGradient id="id6" gradientUnits="userSpaceOnUse" x1="486.933" y1="152.759" x2="486.933" y2="111.941">
   <stop offset="0" style="stop-opacity:1; stop-color:#339CFF"/>
   <stop offset="0.4" style="stop-opacity:1; stop-color:#1990FF"/>
   <stop offset="1" style="stop-opacity:1; stop-color:#1475CF"/>
  </linearGradient>
  <linearGradient id="id7" gradientUnits="userSpaceOnUse" x1="456.857" y1="95.193" x2="456.857" y2="63.445">
   <stop offset="0" style="stop-opacity:1; stop-color:gray"/>
   <stop offset="0.6" style="stop-opacity:1; stop-color:#B3B3B3"/>
   <stop offset="1" style="stop-opacity:1; stop-color:#C8C8C8"/>
  </linearGradient>
  <linearGradient id="id8" gradientUnits="userSpaceOnUse" xlink:href="#id7" x1="406.693" y1="109.545" x2="406.693" y2="77.797">
  </linearGradient>
  <linearGradient id="id9" gradientUnits="userSpaceOnUse" xlink:href="#id7" x1="358.247" y1="133.363" x2="358.247" y2="101.615">
  </linearGradient>
  <linearGradient id="id10" gradientUnits="userSpaceOnUse" x1="377.084" y1="198.475" x2="377.084" y2="157.656">
   <stop offset="0" style="stop-opacity:1; stop-color:#00BF76"/>
   <stop offset="0.4" style="stop-opacity:1; stop-color:#00B870"/>
   <stop offset="1" style="stop-opacity:1; stop-color:#009159"/>
  </linearGradient>
  <linearGradient id="id11" gradientUnits="userSpaceOnUse" x1="277.056" y1="126.53" x2="277.056" y2="133.047">
   <stop offset="0" style="stop-opacity:1; stop-color:gray"/>
   <stop offset="1" style="stop-opacity:1; stop-color:#4D4D4D"/>
  </linearGradient>
  <linearGradient id="id12" gradientUnits="userSpaceOnUse" x1="164.543" y1="178.933" x2="164.543" y2="79.324">
   <stop offset="0" style="stop-opacity:1; stop-color:#8A8A8A"/>
   <stop offset="0.5" style="stop-opacity:1; stop-color:gray"/>
   <stop offset="1" style="stop-opacity:1; stop-color:#6C6C6C"/>
  </linearGradient>
  <linearGradient id="id13" gradientUnits="userSpaceOnUse" x1="140.535" y1="283.724" x2="140.535" y2="26.27">
   <stop offset="0" style="stop-opacity:1; stop-color:#CCCCCC"/>
   <stop offset="1" style="stop-opacity:1; stop-color:#F8F8F8"/>
  </linearGradient>
  <linearGradient id="id14" gradientUnits="userSpaceOnUse" x1="164.543" y1="178.933" x2="164.543" y2="79.324">
   <stop offset="0" style="stop-opacity:1; stop-color:#9A9A9A"/>
   <stop offset="0.5" style="stop-opacity:1; stop-color:#8A8A8A"/>
   <stop offset="1" style="stop-opacity:1; stop-color:#909090"/>
  </linearGradient>
  <linearGradient id="id15" gradientUnits="userSpaceOnUse" xlink:href="#id7" x1="358.247" y1="134.875" x2="358.247" y2="100.103">
  </linearGradient>
  <linearGradient id="id16" gradientUnits="userSpaceOnUse" xlink:href="#id7" x1="406.693" y1="111.057" x2="406.693" y2="76.285">
  </linearGradient>
  <linearGradient id="id17" gradientUnits="userSpaceOnUse" xlink:href="#id7" x1="456.857" y1="96.705" x2="456.857" y2="61.933">
  </linearGradient>
 </defs>
 <g>
  <g id="shell">
   <path class="fil0" d="M488.081 25.305l0.456 1.133c2.011,0.586 2.265,0.295 3.272,-0.056 1.804,-0.629 1.965,-0.558 6.67,2.912 18.369,13.548 32.7,33.016 42.969,58.364 4.019,9.924 8.031,22.508 11.1,34.321 3.532,13.596 6.004,27.628 6.659,41.689 0.408,8.744 0.488,20.572 0.049,24.955 -1.509,15.042 -4.205,35.487 -10.188,48.965 -6.316,14.231 -14.201,23.905 -25.739,31.582 -12.581,8.372 -25.206,12.347 -45.479,14.319 -3.877,0.377 -12.024,0.289 -17.647,-0.191 -20.986,-1.79 -41.679,-7.621 -62.694,-17.663 -45.885,-21.926 -64.838,-27.853 -96.214,-30.088 -4.466,-0.318 -12.163,-0.372 -20.295,-0.372 -8.132,0 -15.829,0.054 -20.295,0.372 -31.376,2.235 -50.329,8.162 -96.214,30.088 -21.015,10.042 -41.708,15.873 -62.694,17.663 -5.623,0.48 -13.77,0.568 -17.647,0.191 -20.273,-1.972 -32.898,-5.947 -45.479,-14.319 -11.538,-7.677 -19.423,-17.351 -25.739,-31.582 -5.983,-13.478 -8.679,-33.923 -10.188,-48.965 -0.439,-4.383 -0.359,-16.211 0.049,-24.955 0.655,-14.061 3.127,-28.093 6.659,-41.689 3.069,-11.813 7.081,-24.397 11.1,-34.321 10.269,-25.348 24.6,-44.816 42.969,-58.364 4.705,-3.47 4.866,-3.541 6.67,-2.912 1.007,0.351 1.261,0.642 3.272,0.056l0.456 -1.133c2.619,-0.823 7.812,-2.889 19.427,-7.449 12.575,-4.938 21.591,-7.095 35.414,-8.473 7.401,-0.738 24.454,-0.354 33.496,0.754 6.275,0.769 9.177,1.241 28.272,4.59 3.772,0.662 7.711,1.269 11.75,1.818l0.429 1.054c15.461,2.099 32.332,3.46 46.728,4.47 10.195,0.715 21.251,0.674 31.565,0.674 10.314,0 21.37,0.041 31.565,-0.674 14.396,-1.01 31.267,-2.371 46.728,-4.47l0.429 -1.054c4.039,-0.549 7.978,-1.156 11.75,-1.818 19.095,-3.349 21.997,-3.821 28.272,-4.59 9.042,-1.108 26.095,-1.492 33.496,-0.754 13.823,1.378 22.839,3.535 35.414,8.473 11.615,4.56 16.808,6.626 19.427,7.449z"/>
   <path class="fil1 str0" d="M424.672 24.114c57.998,0 105.015,47.016 105.015,105.015 0,57.998 -47.017,105.015 -105.015,105.015 -57.998,0 -105.015,-47.017 -105.015,-105.015 0,-57.999 47.017,-105.015 105.015,-105.015zm-287.344 7.584c53.81,0 97.431,43.621 97.431,97.431 0,53.81 -43.621,97.431 -97.431,97.431 -53.809,0 -97.431,-43.621 -97.431,-97.431 0,-53.81 43.622,-97.431 97.431,-97.431z"/>
   <path class="fil2 str1" d="M137.328 45.301c46.297,0 83.828,37.531 83.828,83.828 0,46.297 -37.531,83.828 -83.828,83.828 -46.297,0 -83.828,-37.531 -83.828,-83.828 0,-46.297 37.531,-83.828 83.828,-83.828z"/>
   <path class="fil3 str1" d="M424.672 38.479c50.064,0 90.649,40.585 90.649,90.65 0,50.064 -40.585,90.649 -90.649,90.649 -50.064,0 -90.65,-40.585 -90.65,-90.649 0,-50.065 40.586,-90.65 90.65,-90.65z"/>
  </g>
  <g id="holes">
   <circle class="fil4" cx="137.328" cy="129.129" r="59.57"/>
   <path class="fil5" d="M261.809 137.145c-4.422,0 -8.008,-3.585 -8.008,-8.008 0,-4.422 3.585,-8.008 8.008,-8.008l30.494 0c4.423,0 8.009,3.586 8.009,8.008 0,4.423 -3.586,8.008 -8.009,8.008l-30.494 0z"/>
   <circle class="fil5" cx="358.247" cy="117.49" r="19.087"/>
   <circle class="fil5" cx="406.693" cy="93.671" r="19.087"/>
   <circle class="fil5" cx="456.849" cy="79.322" r="19.087"/>
   <circle class="fil5" cx="377.083" cy="178.066" r="26.079"/>
   <circle class="fil5" cx="429.401" cy="148.918" r="26.079"/>
   <circle class="fil5" cx="486.933" cy="132.351" r="26.079"/>
  </g>
  <g id="print">
   <g>
    <path class="fil6" d="M246.542 67.455c0,1.382 -1.057,2.567 -3.389,2.567 -1.773,0 -2.964,-0.922 -2.964,-2.318 0,-0.961 0.593,-1.745 1.879,-2.022 0.076,-0.024 0.095,-0.11 0.038,-0.158l-0.225 -0.196c-0.726,-0.636 -1.448,-1.362 -1.448,-2.51 0,-1.429 0.994,-2.327 3.04,-2.327 1.773,0 2.94,0.822 2.94,2.089 0,0.874 -0.655,1.496 -1.802,1.72 -0.077,0.024 -0.091,0.101 -0.039,0.153l0.474 0.421c0.898,0.808 1.495,1.458 1.495,2.581l0.001 0zm-2.204 1.033c0,-0.56 -0.205,-1.2 -0.913,-1.817l-0.875 -0.764c-0.038,-0.043 -0.11,-0.034 -0.133,0.038 -0.129,0.464 -0.168,1.027 -0.168,1.773 0,1.21 0.349,1.946 0.999,1.946 0.631,0 1.085,-0.473 1.085,-1.171l0.005 -0.005zm-1.749 -6.573c0,0.607 0.263,1.018 1.032,1.697l0.535 0.473c0.053,0.053 0.101,0.024 0.129,-0.038 0.111,-0.416 0.134,-0.846 0.134,-1.449 0,-1.094 -0.31,-1.72 -0.994,-1.72 -0.511,0 -0.836,0.378 -0.836,1.037l0 0zm11.218 5.468c0,1.621 -1.085,2.443 -3.25,2.443l-3.819 0c-0.111,0 -0.196,-0.057 -0.196,-0.119 0,-0.062 0.038,-0.13 0.11,-0.168 0.31,-0.157 0.612,-0.344 0.612,-1.19l-0.001 -6.18c0,-0.847 -0.301,-1.028 -0.611,-1.186 -0.066,-0.022 -0.11,-0.084 -0.111,-0.153 0,-0.071 0.091,-0.134 0.196,-0.134l3.977 0.001c1.812,0 2.739,0.721 2.739,2.126 0,1.353 -0.798,2.061 -2.28,2.199 -0.057,0 -0.081,0.043 -0.081,0.082 0,0.038 0.024,0.076 0.081,0.076 1.573,0.014 2.634,0.76 2.634,2.203l0 0zm-3.962 -6.08l0 3.461c0,0.115 0.052,0.177 0.186,0.177 0.574,0 0.836,-0.674 0.836,-1.945 0,-1.11 -0.248,-1.893 -0.798,-1.893 -0.148,0 -0.225,0.081 -0.225,0.196l0.001 0.004zm1.223 6.09c0,-1.381 -0.387,-2.065 -1.056,-2.065 -0.115,0 -0.167,0.057 -0.167,0.172l0 3.705c0,0.119 0.062,0.21 0.224,0.21 0.689,0 0.999,-0.899 0.999,-2.022l0 0zm6.467 2.242c0,0.1 -0.091,0.186 -0.191,0.186l-3.341 0c-0.1,0 -0.196,-0.071 -0.196,-0.148l0 -0.023c0,-0.063 0.038,-0.13 0.1,-0.158 0.368,-0.177 0.56,-0.531 0.56,-1.2l0 -2.815c0,-0.56 -0.168,-0.861 -0.464,-0.976 -0.077,-0.033 -0.134,-0.095 -0.134,-0.172l0 -0.024c0,-0.095 0.081,-0.157 0.196,-0.157 0.798,-0.015 1.759,-0.13 2.596,-0.364 0.157,-0.052 0.286,0.053 0.286,0.211l0 4.301c0,0.722 0.211,1.033 0.497,1.186 0.053,0.043 0.092,0.095 0.092,0.158l-0.001 -0.005zm-3.379 -7.509c0,-0.808 0.626,-1.459 1.448,-1.459 0.822,0 1.453,0.651 1.453,1.459 0,0.798 -0.631,1.434 -1.453,1.434 -0.822,0 -1.448,-0.636 -1.448,-1.434l0 0zm7.317 5.998c-0.062,1.166 -0.788,1.893 -1.887,1.893 -1.243,0 -1.793,-0.798 -1.793,-1.874l0 -4.172 -0.248 0c-0.101,0 -0.192,-0.096 -0.192,-0.187l0 -0.052c0,-0.062 0.039,-0.134 0.115,-0.158 1.018,-0.426 2.022,-1.223 2.404,-2.108 0.024,-0.081 0.091,-0.119 0.154,-0.119l0.061 -0.001c0.11,0 0.187,0.096 0.187,0.196l0 1.917 0.822 0c0.11,0 0.196,0.091 0.196,0.196l0 0.191c0,0.11 -0.091,0.196 -0.196,0.196l-0.822 0 0 3.877c0,0.401 0.157,0.664 0.435,0.664 0.248,0 0.377,-0.167 0.425,-0.478 0.014,-0.11 0.096,-0.186 0.187,-0.186 0.091,0 0.172,0.091 0.153,0.205l-0.001 0zm7.61 -2.906c0,3.102 -1.878,4.608 -3.771,4.608l-3.666 0c-0.101,0 -0.196,-0.072 -0.196,-0.134l0 -0.014c0,-0.062 0.043,-0.115 0.095,-0.153 0.349,-0.225 0.574,-0.784 0.574,-1.439l0 -5.846c0,-0.817 -0.225,-1.075 -0.574,-1.261 -0.052,-0.039 -0.095,-0.092 -0.095,-0.154 0,-0.071 0.095,-0.133 0.196,-0.133l3.627 0c2.333,0 3.81,1.773 3.81,4.526l0 0zm-4.149 -4.125c-0.119,0 -0.21,0.081 -0.21,0.196l0 7.93c0,0.119 0.038,0.225 0.196,0.225 1.07,0 1.381,-0.885 1.381,-3.977 0,-3.102 -0.349,-4.374 -1.372,-4.374l0.005 0zm4.469 5.492c0,-2.031 1.262,-3.418 2.92,-3.418 1.659,0 2.926,1.382 2.926,3.418 0,2.032 -1.267,3.427 -2.926,3.427 -1.658,0 -2.92,-1.395 -2.92,-3.427l0 0zm3.418 0c0,-2.165 -0.172,-2.906 -0.498,-2.906 -0.324,0 -0.497,0.741 -0.497,2.906 0,2.165 0.173,2.906 0.497,2.906 0.326,0 0.498,-0.741 0.498,-2.906l0 0zm1.701 -5.922c0.402,0 0.727,0.325 0.727,0.721 0,0.402 -0.325,0.727 -0.727,0.727 -0.4,0 -0.724,-0.324 -0.724,-0.724 0,-0.4 0.324,-0.724 0.724,-0.724l0 0zm-0.607 0.722c0,0.339 0.272,0.616 0.607,0.616 0.33,0 0.607,-0.282 0.607,-0.616 0,-0.33 -0.272,-0.612 -0.607,-0.612 -0.33,0 -0.607,0.282 -0.607,0.612l0 0zm0.765 0.119c0,0.005 0.004,0.014 0.014,0.034l0.129 0.224c0.014,0.024 0,0.053 -0.033,0.053l-0.043 0c-0.019,0 -0.033,-0.005 -0.043,-0.038l-0.139 -0.244c-0.004,-0.014 -0.019,-0.019 -0.033,-0.019l-0.134 0c-0.005,0 -0.019,0.004 -0.019,0.019l0 0.244c0,0.019 -0.014,0.038 -0.034,0.038l-0.043 0c-0.019,0 -0.033,-0.019 -0.033,-0.038l0 -0.78c0,-0.019 0.014,-0.033 0.033,-0.033l0.273 0c0.153,0 0.272,0.119 0.272,0.272 0,0.096 -0.052,0.177 -0.133,0.23 -0.02,0.019 -0.034,0.024 -0.034,0.038l0 0zm0.057 -0.268c0,-0.095 -0.071,-0.157 -0.167,-0.157l-0.177 0c-0.005,0 -0.019,0.004 -0.019,0.014l0 0.291c0,0.005 0.014,0.015 0.019,0.015l0.177 0c0.096,0 0.167,-0.062 0.167,-0.158l0 -0.005zm0 0l0 0 0 0z"/>
   </g>
   <path class="fil6" d="M290.9 69.873l1.414 0 0 -4.499c0,-0.678 -0.034,-1.91 -0.056,-2.92 0.296,1.149 0.62,2.338 0.81,2.92l1.503 4.499 1.224 0 1.482 -4.499c0.19,-0.6 0.528,-1.826 0.804,-2.969 -0.016,1.059 -0.049,2.304 -0.049,2.967l0 4.501 1.434 0 0 -8.912 -2.172 0 -1.509 4.596c-0.156,0.533 -0.405,1.635 -0.594,2.514 -0.182,-0.892 -0.436,-1.987 -0.598,-2.514l-1.525 -4.596 -2.168 0 0 8.912zm12.89 0.122c1.713,0 2.954,-1.083 2.954,-2.585 0,-1.116 -0.618,-1.924 -1.736,-2.097l0 -0.072c0.866,-0.216 1.449,-0.93 1.449,-1.94 0,-1.357 -1.039,-2.463 -2.64,-2.463 -1.558,0 -2.765,1.028 -2.792,2.518l1.385 0c0.022,-0.757 0.651,-1.22 1.396,-1.22 0.754,0 1.25,0.504 1.25,1.261 0,0.79 -0.576,1.312 -1.412,1.312l-0.712 0 0 1.232 0.712 0c1.018,0 1.621,0.569 1.621,1.383 0,0.798 -0.614,1.336 -1.475,1.336 -0.815,0 -1.446,-0.466 -1.483,-1.197l-1.45 0c0.037,1.502 1.246,2.532 2.933,2.532zm7.147 0c1.956,0 3.084,-1.669 3.084,-4.57 0,-2.887 -1.139,-4.587 -3.084,-4.587 -1.948,0 -3.087,1.694 -3.087,4.587 0,2.901 1.133,4.57 3.087,4.57zm0 -1.335c-1.058,0 -1.641,-1.172 -1.641,-3.235 0,-2.061 0.589,-3.253 1.641,-3.253 1.049,0 1.638,1.186 1.638,3.253 0,2.063 -0.589,3.235 -1.638,3.235z"/>
   <line class="fil1 str2" x1="240.644" y1="79.123" x2="313.469" y2= "79.123" />
   <path class="fil6" d="M265.672 151.86l0.966 0 0 -1.73 1.703 0 0 -0.921 -1.703 0 0 -1.728 -0.966 0 0 1.728 -1.708 0 0 0.921 1.708 0 0 1.73zm7.695 0.435c1.142,0 1.96,-0.566 1.96,-1.466 0,-0.678 -0.424,-1.081 -1.338,-1.273l-0.833 -0.172c-0.386,-0.082 -0.612,-0.253 -0.612,-0.529 0,-0.315 0.296,-0.559 0.784,-0.559 0.504,0 0.841,0.301 0.85,0.713l1.035 0c-0.027,-0.949 -0.791,-1.536 -1.912,-1.536 -1.129,0 -1.858,0.569 -1.858,1.418 0,0.699 0.462,1.151 1.345,1.334l0.789 0.163c0.391,0.082 0.631,0.245 0.631,0.525 0,0.328 -0.324,0.559 -0.859,0.559 -0.552,0 -0.876,-0.258 -0.923,-0.708l-1.087 0c0.07,0.992 0.903,1.531 2.028,1.531zm5.23 -4.724l-0.94 0 0 -1.257 -1.106 0 0 1.257 -0.804 0 0 0.886 0.804 0 0 2.569c0,0.791 0.441,1.162 1.382,1.162l0.664 0 0 -0.886 -0.472 0c-0.359,0 -0.468,-0.109 -0.468,-0.437l0 -2.408 0.94 0 0 -0.886zm2.201 4.688c0.753,0 1.142,-0.313 1.362,-0.721l0.016 0 0 0.65 1.081 0 0 -3.145c0,-0.962 -0.713,-1.56 -1.913,-1.56 -1.205,0 -1.955,0.607 -2.007,1.524l1.06 0c0.03,-0.388 0.388,-0.668 0.925,-0.668 0.53,0 0.845,0.28 0.845,0.673l0 0.036c0,0.314 -0.292,0.327 -1.15,0.423 -0.953,0.1 -1.812,0.358 -1.812,1.406 0,0.922 0.677,1.382 1.593,1.382zm0.27 -0.814c-0.48,0 -0.789,-0.213 -0.789,-0.575 0,-0.421 0.401,-0.591 0.873,-0.661 0.453,-0.07 0.881,-0.14 1.016,-0.227l0 0.498c0,0.537 -0.38,0.965 -1.1,0.965zm3.166 0.743l1.1 0 0 -2.619c0,-0.723 0.406,-1.085 0.931,-1.085 0.218,0 0.437,0.02 0.519,0.034l0 -0.974c-0.085,-0.009 -0.207,-0.018 -0.355,-0.018 -0.595,0 -0.948,0.279 -1.118,0.806l-0.014 0 0 -0.761 -1.063 0 0 4.617zm5.783 -4.617l-0.939 0 0 -1.257 -1.107 0 0 1.257 -0.804 0 0 0.886 0.804 0 0 2.569c0,0.791 0.441,1.162 1.383,1.162l0.663 0 0 -0.886 -0.471 0c-0.36,0 -0.468,-0.109 -0.468,-0.437l0 -2.408 0.939 0 0 -0.886z"/>
  </g>
  <g id="button-star">
   <circle class="fil1 str3" cx="240.584" cy="185.724" r="12.371"/>
   <path class="fil7" d="M241.031 177.945l1.961 4.065c0.075,0.154 0.21,0.253 0.381,0.276l4.471 0.608c0.194,0.026 0.345,0.153 0.406,0.339 0.06,0.186 0.012,0.378 -0.129,0.513l-3.26 3.12c-0.124,0.119 -0.176,0.278 -0.146,0.448l0.804 4.44c0.034,0.192 -0.039,0.376 -0.197,0.491 -0.159,0.114 -0.356,0.128 -0.528,0.035l-3.975 -2.136c-0.151,-0.081 -0.319,-0.081 -0.47,0l-3.975 2.136c-0.172,0.093 -0.37,0.079 -0.528,-0.035 -0.158,-0.115 -0.231,-0.299 -0.197,-0.491l0.804 -4.441c0.03,-0.169 -0.022,-0.328 -0.146,-0.447l-3.259 -3.12c-0.142,-0.135 -0.19,-0.327 -0.129,-0.513 0.06,-0.186 0.211,-0.313 0.405,-0.339l4.471 -0.608c0.171,-0.023 0.307,-0.122 0.381,-0.276l1.96 -4.065c0.086,-0.176 0.253,-0.281 0.448,-0.281 0.195,0 0.363,0.105 0.447,0.281z"/>
  </g>
  <g id="button-back">
   <circle class="fil1 str3" cx="277.21" cy="185.724" r="12.371"/>
   <polygon class="fil7" points="284.915,187.464 269.505,187.464 269.505,183.984 284.915,183.984 "/>
  </g>
  <g id="button-home">
   <circle class="fil1 str3" cx="313.837" cy="185.724" r="12.371"/>
   <path class="fil7" d="M312.231 183.169l3.211 0 0 -3.358 3.505 0 0 3.358 3.212 0 0 3.65 -3.212 0 0 3.212 -3.358 0 0 3.358 -3.504 0 0 -3.358 -3.358 0 0 -3.212 -3.213 0 0 -3.65 3.213 0 0 -3.358 3.504 0 0 3.358zm3.358 0.146l0 3.212 3.212 0 0 -3.212 -3.212 0zm-6.716 0l0 3.212 3.212 0 0 -3.212 -3.212 0zm6.569 3.504l-3.211 0 0 3.066 3.211 0 0 -3.066z"/>
  </g>
  <g id="dpad">
   <circle class="fil6" cx="137.328" cy="129.129" r="53.291"/>
   <path class="fil8" d="M184.963 112.461l-27.985 0c-1.642,0 -2.981,-1.34 -2.981,-2.982l0 -27.985c14.455,5.059 25.908,16.51 30.966,30.967zm0 33.336c-5.059,14.456 -16.51,25.908 -30.966,30.966l0 -27.983c0,-1.643 1.339,-2.983 2.982,-2.983l27.984 0zm-64.303 30.967c-14.456,-5.059 -25.908,-16.51 -30.966,-30.967l27.984 0c1.642,0 2.982,1.34 2.982,2.983l0 27.984zm-30.967 -64.303c5.059,-14.456 16.51,-25.909 30.967,-30.967l0 27.985c0,1.642 -1.34,2.982 -2.982,2.982l-27.985 0z"/>
   <path class="fil9" d="M104.092 160.742l3.215 -6.555c0.177,-0.361 0.494,-0.597 0.891,-0.663 0.394,-0.065 0.773,0.056 1.056,0.339l3.34 3.34c0.283,0.283 0.404,0.662 0.339,1.056 -0.066,0.397 -0.302,0.714 -0.663,0.891l-6.555 3.215c-0.472,0.231 -1.02,0.141 -1.392,-0.231 -0.372,-0.371 -0.462,-0.92 -0.231,-1.392zm63.257 -6.555l3.215 6.555c0.231,0.472 0.141,1.021 -0.23,1.392 -0.373,0.372 -0.921,0.462 -1.393,0.231l-6.555 -3.215c-0.361,-0.177 -0.597,-0.494 -0.663,-0.891 -0.065,-0.395 0.056,-0.773 0.339,-1.056l3.34 -3.34c0.283,-0.283 0.662,-0.404 1.056,-0.339 0.398,0.066 0.714,0.302 0.891,0.663zm-4.963 -55.079l6.555 -3.215c0.472,-0.232 1.021,-0.141 1.393,0.231 0.371,0.372 0.462,0.92 0.23,1.392l-3.215 6.555c-0.177,0.361 -0.493,0.597 -0.891,0.662 -0.394,0.066 -0.773,-0.055 -1.056,-0.338l-3.34 -3.34c-0.283,-0.283 -0.404,-0.662 -0.339,-1.057 0.066,-0.396 0.302,-0.713 0.663,-0.89zm-56.671 -3.215l6.555 3.215c0.361,0.177 0.597,0.494 0.663,0.89 0.065,0.395 -0.056,0.774 -0.339,1.057l-3.34 3.34c-0.283,0.283 -0.662,0.404 -1.056,0.338 -0.397,-0.065 -0.714,-0.301 -0.891,-0.662l-3.215 -6.555c-0.231,-0.472 -0.141,-1.02 0.231,-1.392 0.371,-0.372 0.921,-0.463 1.392,-0.231z"/>
   <path class="fil10" d="M170.119 160.96l-3.214 -6.555c-0.106,-0.216 -0.289,-0.353 -0.526,-0.391 -0.24,-0.04 -0.454,0.028 -0.626,0.2l-3.339 3.341c-0.172,0.172 -0.241,0.384 -0.201,0.625 0.039,0.237 0.175,0.42 0.391,0.525l6.555 3.215c0.282,0.139 0.601,0.085 0.823,-0.137 0.222,-0.222 0.276,-0.542 0.137,-0.823zm-0.96 -64.622l-6.555 3.214c-0.216,0.106 -0.352,0.289 -0.391,0.526 -0.04,0.24 0.029,0.453 0.201,0.625l3.339 3.341c0.173,0.172 0.386,0.24 0.626,0.2 0.237,-0.039 0.42,-0.175 0.526,-0.391l3.214 -6.555c0.139,-0.282 0.085,-0.601 -0.137,-0.823 -0.222,-0.222 -0.542,-0.275 -0.823,-0.137zm-57.107 3.214l-6.554 -3.214c-0.282,-0.139 -0.602,-0.085 -0.824,0.137 -0.222,0.222 -0.275,0.541 -0.137,0.823l3.214 6.555c0.107,0.216 0.289,0.352 0.526,0.391 0.24,0.04 0.454,-0.029 0.626,-0.2l3.34 -3.341c0.172,-0.172 0.24,-0.384 0.201,-0.625 -0.04,-0.237 -0.176,-0.42 -0.392,-0.526zm-4.301 54.853l-3.214 6.555c-0.138,0.281 -0.085,0.601 0.137,0.823 0.222,0.222 0.542,0.276 0.824,0.137l6.554 -3.215c0.216,-0.105 0.352,-0.288 0.392,-0.525 0.039,-0.24 -0.029,-0.454 -0.201,-0.625l-3.34 -3.341c-0.172,-0.172 -0.385,-0.24 -0.626,-0.2 -0.237,0.038 -0.419,0.175 -0.526,0.391z"/>
   <path class="fil11" d="M137.328 79.324c3.673,0 7.252,0.398 10.698,1.153 1.846,0.404 3.126,1.995 3.126,3.884l0 24.98c0,3.285 2.679,5.965 5.965,5.965l24.979 0c1.89,0 3.48,1.28 3.884,3.126 0.755,3.445 1.154,7.025 1.154,10.697 0,3.673 -0.399,7.252 -1.154,10.698 -0.404,1.846 -1.995,3.126 -3.884,3.126l-24.979 0c-3.286,0 -5.965,2.679 -5.965,5.965l0 24.978c0,1.89 -1.28,3.481 -3.126,3.885 -3.446,0.755 -7.025,1.154 -10.698,1.154 -3.673,0 -7.252,-0.399 -10.698,-1.154 -1.846,-0.404 -3.126,-1.995 -3.126,-3.885l0 -24.978c0,-3.286 -2.679,-5.965 -5.964,-5.965l-24.979 0c-1.89,0 -3.481,-1.28 -3.885,-3.126 -0.755,-3.446 -1.153,-7.025 -1.153,-10.698 0,-3.672 0.398,-7.252 1.153,-10.697 0.404,-1.846 1.995,-3.126 3.884,-3.126l24.98 0c3.285,0 5.964,-2.68 5.964,-5.965l0 -24.98c0,-1.889 1.28,-3.48 3.126,-3.884 3.446,-0.755 7.025,-1.153 10.698,-1.153z"/>
   <path class="fil12" d="M137.328 84.87c2.933,0 5.798,0.286 8.571,0.83 1.413,0.277 2.408,1.487 2.408,2.927l0 20.575c0,4.928 4.02,8.948 8.948,8.948l20.576 0c1.44,0 2.649,0.995 2.926,2.408 0.544,2.773 0.83,5.639 0.83,8.571 0,2.933 -0.286,5.798 -0.83,8.571 -0.277,1.413 -1.487,2.408 -2.926,2.408l-20.576 0c-4.928,0 -8.948,4.02 -8.948,8.948l0 20.575c0,1.44 -0.995,2.649 -2.408,2.927 -2.772,0.544 -5.638,0.83 -8.571,0.83 -2.933,0 -5.798,-0.286 -8.571,-0.83 -1.413,-0.278 -2.408,-1.487 -2.408,-2.927l0 -20.575c0,-4.928 -4.02,-8.948 -8.948,-8.948l-20.575 0c-1.44,0 -2.649,-0.995 -2.927,-2.408 -0.544,-2.773 -0.83,-5.638 -0.83,-8.571 0,-2.932 0.286,-5.798 0.83,-8.571 0.277,-1.413 1.486,-2.408 2.926,-2.408l20.576 0c4.928,0 8.948,-4.02 8.948,-8.948l0 -20.575c0,-1.44 0.995,-2.65 2.408,-2.927 2.772,-0.544 5.638,-0.83 8.571,-0.83zm0 -5.547c3.673,0 7.252,0.399 10.698,1.154 1.846,0.404 3.126,1.995 3.126,3.884l0 24.98c0,3.285 2.679,5.964 5.965,5.964l24.979 0c1.89,0 3.48,1.281 3.884,3.126 0.755,3.446 1.154,7.026 1.154,10.698 0,3.673 -0.399,7.252 -1.154,10.698 -0.404,1.846 -1.995,3.126 -3.884,3.126l-24.979 0c-3.286,0 -5.965,2.679 -5.965,5.965l0 24.978c0,1.89 -1.28,3.481 -3.126,3.885 -3.446,0.755 -7.025,1.154 -10.698,1.154 -3.673,0 -7.252,-0.399 -10.698,-1.154 -1.846,-0.404 -3.126,-1.995 -3.126,-3.885l0 -24.978c0,-3.286 -2.679,-5.965 -5.964,-5.965l-24.979 0c-1.89,0 -3.481,-1.28 -3.885,-3.126 -0.755,-3.446 -1.153,-7.025 -1.153,-10.698 0,-3.672 0.398,-7.252 1.153,-10.698 0.404,-1.846 1.995,-3.126 3.884,-3.126l24.98 0c3.285,0 5.964,-2.679 5.964,-5.964l0 -24.98c0,-1.889 1.28,-3.48 3.126,-3.884 3.446,-0.755 7.025,-1.154 10.698,-1.154z"/>
   <circle class="fil13" cx="137.328" cy="129.129" r="9.449"/>
  </g>
  <path class="fil14" d="M73.462 26.437l0 -5.262c0,-0.962 0.507,-1.787 1.366,-2.221l4.641 -2.343c13.011,-6.571 25.949,-10.803 41.596,-13.026 15.669,-2.226 34.67,-1.197 43.614,0.032 13.333,1.833 29.316,4.984 35.982,6.184 1.195,0.216 2.046,1.234 2.046,2.448l0 5.349c-4.188,-0.569 -8.274,-1.191 -12.179,-1.876 -19.095,-3.35 -21.997,-3.821 -28.272,-4.591 -9.043,-1.108 -26.096,-1.492 -33.497,-0.754 -13.823,1.378 -22.838,3.536 -35.413,8.473 -12.331,4.841 -17.424,6.871 -19.884,7.587z"/>
  <path class="fil15" d="M73.462 26.437l0 -0.994c2.46,-0.717 7.553,-2.747 19.884,-7.588 12.575,-4.937 21.59,-7.095 35.413,-8.473 7.401,-0.738 24.454,-0.354 33.497,0.754 6.275,0.769 9.177,1.241 28.272,4.591 3.905,0.685 7.991,1.307 12.179,1.876l0 0.995c-4.188,-0.569 -8.274,-1.191 -12.179,-1.876 -19.095,-3.35 -21.997,-3.821 -28.272,-4.591 -9.043,-1.108 -26.096,-1.492 -33.497,-0.754 -13.823,1.378 -22.838,3.536 -35.413,8.473 -12.331,4.841 -17.424,6.871 -19.884,7.587z"/>
  <path class="fil16" d="M488.538 26.437l0 -5.262c0,-0.962 -0.507,-1.787 -1.366,-2.221l-4.641 -2.343c-13.011,-6.571 -25.949,-10.803 -41.596,-13.026 -15.669,-2.226 -34.67,-1.197 -43.614,0.032 -13.333,1.833 -29.316,4.984 -35.982,6.184 -1.195,0.216 -2.046,1.234 -2.046,2.448l0 5.349c4.188,-0.569 8.274,-1.191 12.179,-1.876 19.095,-3.35 21.997,-3.821 28.272,-4.591 9.043,-1.108 26.096,-1.492 33.497,-0.754 13.823,1.378 22.838,3.536 35.413,8.473 12.331,4.841 17.424,6.871 19.884,7.587z"/>
  <path class="fil15" d="M488.538 26.437l0 -0.994c-2.46,-0.717 -7.553,-2.747 -19.884,-7.588 -12.575,-4.937 -21.59,-7.095 -35.413,-8.473 -7.401,-0.738 -24.454,-0.354 -33.497,0.754 -6.275,0.769 -9.177,1.241 -28.272,4.591 -3.905,0.685 -7.991,1.307 -12.179,1.876l0 0.995c4.188,-0.569 8.274,-1.191 12.179,-1.876 19.095,-3.35 21.997,-3.821 28.272,-4.591 9.043,-1.108 26.096,-1.492 33.497,-0.754 13.823,1.378 22.838,3.536 35.413,8.473 12.331,4.841 17.424,6.871 19.884,7.587z"/>
  <path class="fil17" d="M292.303 122.62c3.6,0 6.517,2.918 6.517,6.517 0,3.599 -2.917,6.517 -6.517,6.517l-30.494 0c-3.599,0 -6.517,-2.918 -6.517,-6.517 0,-3.599 2.918,-6.517 6.517,-6.517l30.494 0z"/>
  <path class="fil18" d="M261.87 128.095c-0.857,0 -1.552,-0.695 -1.552,-1.552 0,-0.857 0.695,-1.552 1.552,-1.552 10.124,0 20.248,0 30.373,0 0.857,0 1.551,0.695 1.551,1.552 0,0.857 -0.695,1.552 -1.551,1.552 -10.125,0 -20.249,0 -30.373,0z"/>
  <path class="fil19" d="M261.869 127.342c-0.44,0 -0.798,-0.357 -0.798,-0.798 0,-0.442 0.357,-0.799 0.798,-0.799 10.125,0 20.25,0 30.374,0 0.441,0 0.799,0.357 0.799,0.799 0,0.441 -0.358,0.798 -0.799,0.798 -10.124,0 -20.249,0 -30.374,0z"/>
  <path class="fil20" d="M358.248 100.103c9.601,0 17.385,7.784 17.385,17.386 0,9.602 -7.784,17.386 -17.385,17.386 -9.602,0 -17.386,-7.784 -17.386,-17.386 0,-9.602 7.784,-17.386 17.386,-17.386z"/>
  <path class="fil21" d="M358.248 101.615c8.766,0 15.873,7.108 15.873,15.874 0,8.767 -7.107,15.874 -15.873,15.874 -8.767,0 -15.875,-7.107 -15.875,-15.874 0,-8.766 7.108,-15.874 15.875,-15.874z"/>
  <path class="fil22" d="M359.084 119.147l4.907 2.284c1.108,0.364 1.877,-0.167 1.825,-1.083 -0.025,-0.456 -0.276,-0.773 -0.745,-0.976l-5.718 -2.525 1.159 -5.992c0.091,-1.008 -0.599,-1.676 -1.482,-1.364 -0.437,0.144 -0.702,0.495 -0.808,1.067l-0.903 5.214 -4.78 -2.243c-1.108,-0.363 -1.877,0.167 -1.825,1.082 0.042,0.448 0.293,0.765 0.762,0.968l5.581 2.469 -1.206 6.144c-0.075,1 0.632,1.658 1.498,1.355 0.454,-0.152 0.719,-0.504 0.825,-1.075l0.91 -5.325z"/>
  <path class="fil23" d="M406.693 76.285c9.602,0 17.386,7.784 17.386,17.386 0,9.602 -7.784,17.386 -17.386,17.386 -9.601,0 -17.386,-7.784 -17.386,-17.386 0,-9.602 7.785,-17.386 17.386,-17.386z"/>
  <path class="fil24" d="M406.693 77.797c8.767,0 15.874,7.107 15.874,15.874 0,8.767 -7.107,15.874 -15.874,15.874 -8.766,0 -15.874,-7.107 -15.874,-15.874 0,-8.767 7.108,-15.874 15.874,-15.874z"/>
  <path class="fil22" d="M409.282 99.896c0.576,-0.24 0.869,-0.915 0.615,-1.527l-2.008 -4.823 1.66 -6.299c0.259,-0.979 -0.448,-1.714 -1.357,-1.487 -0.446,0.112 -0.742,0.432 -0.898,0.992l-1.354 5.116 -4.566 -2.651c-1.072,-0.459 -1.896,0.002 -1.913,0.918 -0.008,0.45 0.234,0.775 0.675,1.031l5.593 3.246 2.019 4.851c0.255,0.611 0.923,0.887 1.534,0.633z"/>
  <path class="fil25" d="M456.857 61.933c9.601,0 17.385,7.785 17.385,17.386 0,9.602 -7.784,17.386 -17.385,17.386 -9.602,0 -17.386,-7.784 -17.386,-17.386 0,-9.601 7.784,-17.386 17.386,-17.386z"/>
  <path class="fil26" d="M456.857 63.445c8.766,0 15.874,7.107 15.874,15.874 0,8.767 -7.108,15.874 -15.874,15.874 -8.767,0 -15.874,-7.107 -15.874,-15.874 0,-8.767 7.107,-15.874 15.874,-15.874z"/>
  <path class="fil22" d="M462.069 84.612c0.631,-0.2 0.963,-0.841 0.775,-1.437 -0.201,-0.631 -0.836,-0.945 -1.467,-0.745l-4.526 1.436 2.708 -10.544c0.114,-0.453 0.012,-0.837 -0.295,-1.117 -0.312,-0.298 -0.712,-0.369 -1.199,-0.215l-6.437 2.042c-0.631,0.2 -0.946,0.836 -0.757,1.431 0.2,0.631 0.818,0.951 1.449,0.751l4.526 -1.436 -2.702 10.502c-0.127,0.477 -0.024,0.861 0.288,1.159 0.313,0.298 0.731,0.364 1.236,0.203l6.401 -2.03z"/>
  <path class="fil27" d="M377.084 153.687c13.463,0 24.378,10.915 24.378,24.378 0,13.464 -10.915,24.379 -24.378,24.379 -13.464,0 -24.378,-10.915 -24.378,-24.379 0,-13.463 10.914,-24.378 24.378,-24.378z"/>
  <circle class="fil28" cx="377.084" cy="178.065" r="22.677"/>
  <circle class="fil29" cx="377.084" cy="178.065" r="20.409"/>
  <path class="fil22" d="M374.332 172.797l6.366 5.463 -5.537 2.894 -0.829 -8.357zm0.24 -2.592c-0.594,-0.472 -1.16,-0.554 -1.683,-0.28l-0.114 0.06c-0.525,0.274 -0.768,0.807 -0.697,1.553l1.571 16.934c0.093,0.676 0.583,1.059 1.156,0.991 0.655,-0.023 1.151,-0.573 1.069,-1.342l-0.463 -4.603 7.086 -3.704 3.515 3.007c0.585,0.507 1.319,0.413 1.712,-0.112 0.383,-0.432 0.383,-1.041 -0.143,-1.549l-13.009 -10.955z"/>
  <path class="fil30" d="M429.401 124.54c13.464,0 24.378,10.914 24.378,24.378 0,13.463 -10.914,24.377 -24.378,24.377 -13.463,0 -24.378,-10.914 -24.378,-24.377 0,-13.464 10.915,-24.378 24.378,-24.378z"/>
  <circle class="fil31" cx="429.401" cy="148.917" r="22.677"/>
  <circle class="fil32" cx="429.401" cy="148.917" r="20.409"/>
  <path class="fil22" d="M428.259 156.744l-2.39 -5.744 4.272 -1.778c2.017,-0.84 3.673,-0.276 4.4,1.538 0.774,1.794 0.008,3.366 -2.009,4.206l-4.273 1.778zm-1.537 -14.063c1.709,-0.712 3.081,-0.225 3.704,1.271 0.622,1.495 0.001,2.812 -1.708,3.523l-3.679 1.532 -1.996 -4.795 3.679 -1.531zm5.393 4.327c0.847,-1.244 0.943,-2.62 0.31,-4.139 -1.076,-2.587 -3.61,-3.454 -6.553,-2.229l-4.723 1.966c-0.593,0.247 -0.847,0.909 -0.61,1.479l2.559 6.147 3.478 8.355c0.247,0.594 0.895,0.88 1.489,0.633l5.317 -2.213c3.251,-1.354 4.565,-4.017 3.35,-6.936 -0.869,-2.089 -2.412,-3.118 -4.617,-3.063l0 0z"/>
  <path class="fil33" d="M486.934 107.972c13.463,0 24.378,10.915 24.378,24.378 0,13.463 -10.915,24.378 -24.378,24.378 -13.464,0 -24.378,-10.915 -24.378,-24.378 0,-13.463 10.914,-24.378 24.378,-24.378z"/>
  <circle class="fil34" cx="486.933" cy="132.35" r="22.677"/>
  <circle class="fil35" cx="486.933" cy="132.35" r="20.409"/>
  <path class="fil22" d="M490.079 141.153c2.367,-0.486 4.258,-1.635 5.645,-3.442 0.23,-0.284 0.319,-0.617 0.247,-0.97 -0.124,-0.604 -0.731,-1.004 -1.335,-0.88 -0.277,0.057 -0.483,0.204 -0.674,0.427 -1.057,1.371 -2.505,2.246 -4.293,2.613 -1.989,0.409 -3.781,0.12 -5.329,-0.901 -1.548,-1.02 -2.513,-2.528 -2.922,-4.518 -0.408,-1.989 -0.109,-3.73 0.911,-5.278 1.021,-1.548 2.549,-2.544 4.563,-2.958 1.789,-0.367 3.439,-0.128 4.951,0.716 0.262,0.13 0.51,0.184 0.787,0.128 0.604,-0.125 1.004,-0.732 0.875,-1.361 -0.067,-0.328 -0.28,-0.599 -0.609,-0.794 -1.982,-1.089 -4.146,-1.406 -6.489,-0.925 -2.594,0.532 -4.609,1.838 -5.99,3.933 -1.381,2.094 -1.823,4.416 -1.29,7.01 0.532,2.594 1.828,4.559 3.922,5.94 2.095,1.381 4.436,1.792 7.03,1.26z"/>
 </g>
</svg>
