<?xml version="1.0" encoding="UTF-8"?>
<!DOCTYPE svg PUBLIC "-//W3C//DTD SVG 1.1//EN" "http://www.w3.org/Graphics/SVG/1.1/DTD/svg11.dtd">
<svg xml:space="preserve" viewBox="0 0 562 286" width="562px" height="286px" version="1.1" style="shape-rendering:geometricPrecision; fill-rule:evenodd; clip-rule:evenodd" xmlns="http://www.w3.org/2000/svg">
 <defs>
  <style type="text/css">
    .fil1 {fill:#00B870}
    .fil3 {fill:black;fill-opacity:0.33}
    .fil0 {fill:#00B870;fill-opacity:0.7}
    .fil2 {fill:url(#id0)}
  </style>
  <linearGradient id="id0" gradientUnits="userSpaceOnUse" x1="377.084" y1="198.475" x2="377.084" y2="157.656">
   <stop offset="0" style="stop-opacity:1; stop-color:#00BF76"/>
   <stop offset="0.4" style="stop-opacity:1; stop-color:#00B870"/>
   <stop offset="1" style="stop-opacity:1; stop-color:#009159"/>
  </linearGradient>
 </defs>
 <g>
  <path class="fil0" d="M377.084 153.687c13.463,0 24.378,10.915 24.378,24.378 0,13.464 -10.915,24.379 -24.378,24.379 -13.464,0 -24.378,-10.915 -24.378,-24.379 0,-13.463 10.914,-24.378 24.378,-24.378z"/>
  <circle class="fil1" cx="377.084" cy="178.065" r="22.677"/>
  <circle class="fil2" cx="377.084" cy="178.065" r="20.409"/>
  <path class="fil3" d="M374.332 172.797l6.366 5.463 -5.537 2.894 -0.829 -8.357zm0.24 -2.592c-0.594,-0.472 -1.16,-0.554 -1.683,-0.28l-0.114 0.06c-0.525,0.274 -0.768,0.807 -0.697,1.553l1.571 16.934c0.093,0.676 0.583,1.059 1.156,0.991 0.655,-0.023 1.151,-0.573 1.069,-1.342l-0.463 -4.603 7.086 -3.704 3.515 3.007c0.585,0.507 1.319,0.413 1.712,-0.112 0.383,-0.432 0.383,-1.041 -0.143,-1.549l-13.009 -10.955z"/>
 </g>
</svg>
