<?xml version="1.0" encoding="UTF-8"?>
<!DOCTYPE svg PUBLIC "-//W3C//DTD SVG 1.1//EN" "http://www.w3.org/Graphics/SVG/1.1/DTD/svg11.dtd">
<svg xml:space="preserve" viewBox="0 0 1130 576" width="1130px" height="576px" version="1.1" style="shape-rendering:geometricPrecision; fill-rule:evenodd; clip-rule:evenodd" xmlns="http://www.w3.org/2000/svg" xmlns:xlink="http://www.w3.org/1999/xlink">
 <defs>
  <style type="text/css">
    .fil2 {fill:black;fill-opacity:0.5}
    .fil1 {fill:url(#id0)}
    .fil0 {fill:url(#id1);fill-opacity:0.7}
  </style>
  <linearGradient id="id0" gradientUnits="userSpaceOnUse" x1="720.397" y1="268.54" x2="720.397" y2="204.822">
   <stop offset="0" style="stop-opacity:1; stop-color:gray"/>
   <stop offset="0.6" style="stop-opacity:1; stop-color:#B3B3B3"/>
   <stop offset="1" style="stop-opacity:1; stop-color:#B3B3B3"/>
  </linearGradient>
  <linearGradient id="id1" gradientUnits="userSpaceOnUse" xlink:href="#id0" x1="720.397" y1="271.956" x2="720.397" y2="201.406">
  </linearGradient>
 </defs>
 <g>
  <path class="fil0" d="M720.397 201.406c19.481,0 35.275,15.793 35.275,35.275 0,19.482 -15.794,35.275 -35.275,35.275 -19.482,0 -35.275,-15.793 -35.275,-35.275 0,-19.482 15.793,-35.275 35.275,-35.275z"/>
  <path class="fil1" d="M720.397 204.822c17.595,0 31.859,14.264 31.859,31.859 0,17.595 -14.264,31.859 -31.859,31.859 -17.595,0 -31.859,-14.264 -31.859,-31.859 0,-17.595 14.264,-31.859 31.859,-31.859z"/>
  <path class="fil2" d="M722.095 240.049l9.969 4.638c2.25,0.738 3.812,-0.339 3.706,-2.198 -0.051,-0.928 -0.56,-1.571 -1.513,-1.984l-11.613 -5.129 2.352 -12.17c0.187,-2.049 -1.216,-3.404 -3.009,-2.77 -0.888,0.291 -1.425,1.005 -1.642,2.167l-1.834 10.591 -9.709 -4.557c-2.25,-0.739 -3.812,0.338 -3.707,2.198 0.085,0.909 0.595,1.554 1.548,1.966l11.336 5.014 -2.45 12.481c-0.152,2.031 1.284,3.368 3.043,2.752 0.922,-0.309 1.459,-1.023 1.676,-2.184l1.847 -10.815z"/>
 </g>
</svg>
