<?xml version="1.0" encoding="UTF-8"?>
<!DOCTYPE svg PUBLIC "-//W3C//DTD SVG 1.1//EN" "http://www.w3.org/Graphics/SVG/1.1/DTD/svg11.dtd">
<svg xml:space="preserve" viewBox="0 0 1130 576" width="1130px" height="576px" version="1.1" style="shape-rendering:geometricPrecision; fill-rule:evenodd; clip-rule:evenodd" xmlns="http://www.w3.org/2000/svg">
 <defs>
  <style type="text/css">
    .fil0 {fill:#B3B3B3;fill-opacity:0.6}
    .fil1 {fill:#B3B3B3}
    .fil2 {fill:black;fill-opacity:0.2}
    .fil3 {fill:black;fill-opacity:0.5}
  </style>
 </defs>
 <g>
  <path class="fil0" d="M817.854 153.491c19.482,0 35.275,15.793 35.275,35.275 0,19.482 -15.793,35.275 -35.275,35.275 -19.481,0 -35.275,-15.793 -35.275,-35.275 0,-19.482 15.794,-35.275 35.275,-35.275z"/>
  <circle class="fil1" cx="817.854" cy="188.766" r="31.859"/>
  <path class="fil2" d="M843.075 197.147c-2.64,11.49 -12.93,20.061 -25.221,20.061 -12.291,0 -22.58,-8.571 -25.22,-20.061 -0.165,-0.72 0.129,-1.434 0.755,-1.827 0.625,-0.394 1.395,-0.351 1.973,0.11 6.172,4.916 13.988,7.856 22.492,7.856 8.505,0 16.321,-2.94 22.493,-7.856 0.578,-0.461 1.349,-0.504 1.974,-0.11 0.626,0.394 0.92,1.107 0.754,1.827z"/>
  <path class="fil3" d="M823.112 201.409c1.171,-0.487 1.766,-1.859 1.249,-3.1l-4.078 -9.798 3.373 -12.792c0.524,-1.989 -0.911,-3.482 -2.756,-3.021 -0.907,0.226 -1.508,0.877 -1.825,2.015l-2.75 10.391 -9.275 -5.385c-2.178,-0.933 -3.85,0.004 -3.884,1.866 -0.017,0.912 0.473,1.572 1.37,2.093l11.36 6.593 4.102 9.854c0.516,1.242 1.873,1.801 3.114,1.284z"/>
 </g>
</svg>
