<?xml version="1.0" encoding="UTF-8"?>
<!DOCTYPE svg PUBLIC "-//W3C//DTD SVG 1.1//EN" "http://www.w3.org/Graphics/SVG/1.1/DTD/svg11.dtd">
<svg xml:space="preserve" viewBox="0 0 562 286" width="562px" height="286px" version="1.1" style="shape-rendering:geometricPrecision; fill-rule:evenodd; clip-rule:evenodd" xmlns="http://www.w3.org/2000/svg">
 <defs>
  <style type="text/css">
    .fil1 {fill:white;fill-opacity:0.501961}
    .fil2 {fill:white;fill-opacity:0.701961}
    .fil0 {fill:url(#id0)}
  </style>
  <linearGradient id="id0" gradientUnits="userSpaceOnUse" x1="277.056" y1="126.53" x2="277.056" y2="133.047">
   <stop offset="0" style="stop-opacity:1; stop-color:gray"/>
   <stop offset="1" style="stop-opacity:1; stop-color:#4D4D4D"/>
  </linearGradient>
 </defs>
 <g>
  <path class="fil0" d="M292.303 122.62c3.6,0 6.517,2.918 6.517,6.517 0,3.599 -2.917,6.517 -6.517,6.517l-30.494 0c-3.599,0 -6.517,-2.918 -6.517,-6.517 0,-3.599 2.918,-6.517 6.517,-6.517l30.494 0z"/>
  <path class="fil1" d="M261.87 128.095c-0.857,0 -1.552,-0.695 -1.552,-1.552 0,-0.857 0.695,-1.552 1.552,-1.552 10.124,0 20.248,0 30.373,0 0.857,0 1.551,0.695 1.551,1.552 0,0.857 -0.695,1.552 -1.551,1.552 -10.125,0 -20.249,0 -30.373,0z"/>
  <path class="fil2" d="M261.869 127.342c-0.44,0 -0.798,-0.357 -0.798,-0.798 0,-0.442 0.357,-0.799 0.798,-0.799 10.125,0 20.25,0 30.374,0 0.441,0 0.799,0.357 0.799,0.799 0,0.441 -0.358,0.798 -0.799,0.798 -10.124,0 -20.249,0 -30.374,0z"/>
 </g>
</svg>
