<?xml version="1.0" encoding="UTF-8"?>
<!DOCTYPE svg PUBLIC "-//W3C//DTD SVG 1.1//EN" "http://www.w3.org/Graphics/SVG/1.1/DTD/svg11.dtd">
<svg xml:space="preserve" viewBox="0 0 1130 576" width="1130px" height="576px" version="1.1" style="shape-rendering:geometricPrecision; fill-rule:evenodd; clip-rule:evenodd" xmlns="http://www.w3.org/2000/svg" xmlns:xlink="http://www.w3.org/1999/xlink">
 <defs>
  <style type="text/css">
    .fil2 {fill:black;fill-opacity:0.5}
    .fil1 {fill:url(#id0)}
    .fil0 {fill:url(#id1);fill-opacity:0.7}
  </style>
  <linearGradient id="id0" gradientUnits="userSpaceOnUse" x1="817.854" y1="220.625" x2="817.854" y2="156.907">
   <stop offset="0" style="stop-opacity:1; stop-color:gray"/>
   <stop offset="0.6" style="stop-opacity:1; stop-color:#B3B3B3"/>
   <stop offset="1" style="stop-opacity:1; stop-color:#B3B3B3"/>
  </linearGradient>
  <linearGradient id="id1" gradientUnits="userSpaceOnUse" xlink:href="#id0" x1="817.854" y1="224.041" x2="817.854" y2="153.491">
  </linearGradient>
 </defs>
 <g>
  <path class="fil0" d="M817.854 153.491c19.482,0 35.275,15.793 35.275,35.275 0,19.482 -15.793,35.275 -35.275,35.275 -19.481,0 -35.275,-15.793 -35.275,-35.275 0,-19.482 15.794,-35.275 35.275,-35.275z"/>
  <path class="fil1" d="M817.854 156.907c17.595,0 31.859,14.264 31.859,31.859 0,17.595 -14.264,31.859 -31.859,31.859 -17.595,0 -31.858,-14.264 -31.858,-31.859 0,-17.595 14.263,-31.859 31.858,-31.859z"/>
  <path class="fil2" d="M823.112 201.409c1.171,-0.487 1.766,-1.859 1.249,-3.1l-4.078 -9.798 3.373 -12.792c0.524,-1.989 -0.911,-3.482 -2.756,-3.021 -0.907,0.226 -1.508,0.877 -1.825,2.015l-2.75 10.391 -9.275 -5.385c-2.178,-0.933 -3.85,0.004 -3.884,1.866 -0.017,0.912 0.473,1.572 1.37,2.093l11.36 6.593 4.102 9.854c0.516,1.242 1.873,1.801 3.114,1.284z"/>
 </g>
</svg>
