<?xml version="1.0" encoding="UTF-8"?>
<!DOCTYPE svg PUBLIC "-//W3C//DTD SVG 1.1//EN" "http://www.w3.org/Graphics/SVG/1.1/DTD/svg11.dtd">
<svg xml:space="preserve" viewBox="0 0 562 286" width="562px" height="286px" version="1.1" style="shape-rendering:geometricPrecision; fill-rule:evenodd; clip-rule:evenodd" xmlns="http://www.w3.org/2000/svg">
 <defs>
  <style type="text/css">
    .fil1 {fill:black;fill-opacity:0.200000}
    .fil0 {fill:url(#id0)}
  </style>
  <linearGradient id="id0" gradientUnits="userSpaceOnUse" x1="73.462" y1="14.357" x2="202.707" y2="14.357">
   <stop offset="0" style="stop-opacity:1; stop-color:#4D4D4D"/>
   <stop offset="0.0509804" style="stop-opacity:1; stop-color:gray"/>
   <stop offset="0.94902" style="stop-opacity:1; stop-color:gray"/>
   <stop offset="1" style="stop-opacity:1; stop-color:#4D4D4D"/>
  </linearGradient>
 </defs>
 <g>
  <path class="fil0" d="M73.462 26.437l0 -5.262c0,-0.962 0.507,-1.787 1.366,-2.221l4.641 -2.343c13.011,-6.571 25.949,-10.803 41.596,-13.026 15.669,-2.226 34.67,-1.197 43.614,0.032 13.333,1.833 29.316,4.984 35.982,6.184 1.195,0.216 2.046,1.234 2.046,2.448l0 5.349c-4.188,-0.569 -8.274,-1.191 -12.179,-1.876 -19.095,-3.35 -21.997,-3.821 -28.272,-4.591 -9.043,-1.108 -26.096,-1.492 -33.497,-0.754 -13.823,1.378 -22.838,3.536 -35.413,8.473 -12.331,4.841 -17.424,6.871 -19.884,7.587z"/>
  <path class="fil1" d="M73.462 26.437l0 -0.994c2.46,-0.717 7.553,-2.747 19.884,-7.588 12.575,-4.937 21.59,-7.095 35.413,-8.473 7.401,-0.738 24.454,-0.354 33.497,0.754 6.275,0.769 9.177,1.241 28.272,4.591 3.905,0.685 7.991,1.307 12.179,1.876l0 0.995c-4.188,-0.569 -8.274,-1.191 -12.179,-1.876 -19.095,-3.35 -21.997,-3.821 -28.272,-4.591 -9.043,-1.108 -26.096,-1.492 -33.497,-0.754 -13.823,1.378 -22.838,3.536 -35.413,8.473 -12.331,4.841 -17.424,6.871 -19.884,7.587z"/>
 </g>
</svg>
