<?xml version="1.0" encoding="UTF-8"?>
<!DOCTYPE svg PUBLIC "-//W3C//DTD SVG 1.1//EN" "http://www.w3.org/Graphics/SVG/1.1/DTD/svg11.dtd">
<svg xml:space="preserve" viewBox="0 0 562 286" width="562px" height="286px" version="1.1" style="shape-rendering:geometricPrecision; fill-rule:evenodd; clip-rule:evenodd" xmlns="http://www.w3.org/2000/svg" xmlns:xlink="http://www.w3.org/1999/xlink">
 <defs>
  <style type="text/css">
    .fil2 {fill:black;fill-opacity:0.33}
    .fil1 {fill:url(#id0)}
    .fil0 {fill:url(#id1);fill-opacity:0.7}
  </style>
  <linearGradient id="id0" gradientUnits="userSpaceOnUse" x1="406.693" y1="109.545" x2="406.693" y2="77.797">
   <stop offset="0" style="stop-opacity:1; stop-color:gray"/>
   <stop offset="0.6" style="stop-opacity:1; stop-color:#B3B3B3"/>
   <stop offset="1" style="stop-opacity:1; stop-color:#C8C8C8"/>
  </linearGradient>
  <linearGradient id="id1" gradientUnits="userSpaceOnUse" xlink:href="#id0" x1="406.693" y1="111.057" x2="406.693" y2="76.285">
  </linearGradient>
 </defs>
 <g>
  <path class="fil0" d="M406.693 76.285c9.602,0 17.386,7.784 17.386,17.386 0,9.602 -7.784,17.386 -17.386,17.386 -9.601,0 -17.386,-7.784 -17.386,-17.386 0,-9.602 7.785,-17.386 17.386,-17.386z"/>
  <path class="fil1" d="M406.693 77.797c8.767,0 15.874,7.107 15.874,15.874 0,8.767 -7.107,15.874 -15.874,15.874 -8.766,0 -15.874,-7.107 -15.874,-15.874 0,-8.767 7.108,-15.874 15.874,-15.874z"/>
  <path class="fil2" d="M409.282 99.896c0.576,-0.24 0.869,-0.915 0.615,-1.527l-2.008 -4.823 1.66 -6.299c0.259,-0.979 -0.448,-1.714 -1.357,-1.487 -0.446,0.112 -0.742,0.432 -0.898,0.992l-1.354 5.116 -4.566 -2.651c-1.072,-0.459 -1.896,0.002 -1.913,0.918 -0.008,0.45 0.234,0.775 0.675,1.031l5.593 3.246 2.019 4.851c0.255,0.611 0.923,0.887 1.534,0.633z"/>
 </g>
</svg>
