<?xml version="1.0" encoding="UTF-8"?>
<!DOCTYPE svg PUBLIC "-//W3C//DTD SVG 1.1//EN" "http://www.w3.org/Graphics/SVG/1.1/DTD/svg11.dtd">
<svg xml:space="preserve" viewBox="0 0 1130 576" width="1130px" height="576px" version="1.1" style="shape-rendering:geometricPrecision; fill-rule:evenodd; clip-rule:evenodd" xmlns="http://www.w3.org/2000/svg">
 <defs>
  <style type="text/css">
    .fil0 {fill:#3A8BFD;fill-opacity:0.6}
    .fil1 {fill:#1990FF}
    .fil2 {fill:black;fill-opacity:0.2}
    .fil3 {fill:black;fill-opacity:0.5}
  </style>
 </defs>
 <g>
  <path class="fil0" d="M979.272 217.426c27.144,0 49.15,22.006 49.15,49.15 0,27.144 -22.006,49.15 -49.15,49.15 -27.144,0 -49.15,-22.006 -49.15,-49.15 0,-27.144 22.006,-49.15 49.15,-49.15z"/>
  <circle class="fil1" cx="979.272" cy="266.576" r="45.254"/>
  <path class="fil2" d="M979.272 226.061c20.426,0 37.323,15.116 40.111,34.772 0.119,0.841 -0.305,1.629 -1.073,1.992 -0.768,0.364 -1.648,0.192 -2.222,-0.435 -7.662,-8.361 -21.286,-13.924 -36.816,-13.924 -15.532,0 -29.156,5.565 -36.818,13.926 -0.574,0.627 -1.453,0.799 -2.222,0.436 -0.767,-0.363 -1.192,-1.152 -1.073,-1.992 2.789,-19.657 19.686,-34.775 40.113,-34.775z"/>
  <path class="fil3" d="M985.6 284.285c4.762,-0.978 8.564,-3.289 11.356,-6.925 0.463,-0.57 0.643,-1.24 0.497,-1.95 -0.25,-1.216 -1.471,-2.021 -2.687,-1.771 -0.557,0.114 -0.972,0.41 -1.355,0.858 -2.126,2.76 -5.039,4.52 -8.636,5.258 -4.002,0.821 -7.606,0.241 -10.72,-1.812 -3.114,-2.054 -5.057,-5.087 -5.878,-9.089 -0.822,-4.002 -0.221,-7.505 1.833,-10.619 2.053,-3.114 5.127,-5.118 9.18,-5.95 3.597,-0.738 6.916,-0.258 9.958,1.441 0.528,0.261 1.026,0.37 1.583,0.256 1.216,-0.25 2.021,-1.472 1.761,-2.738 -0.135,-0.659 -0.564,-1.204 -1.225,-1.596 -3.987,-2.191 -8.342,-2.828 -13.054,-1.861 -5.218,1.071 -9.272,3.698 -12.05,7.911 -2.778,4.214 -3.667,8.884 -2.596,14.102 1.071,5.219 3.677,9.171 7.891,11.95 4.213,2.778 8.923,3.606 14.142,2.535z"/>
 </g>
</svg>
