<?xml version="1.0" encoding="UTF-8"?>
<!DOCTYPE svg PUBLIC "-//W3C//DTD SVG 1.1//EN" "http://www.w3.org/Graphics/SVG/1.1/DTD/svg11.dtd">
<svg xml:space="preserve" viewBox="0 0 562 286" width="562px" height="286px" version="1.1" style="shape-rendering:geometricPrecision; fill-rule:evenodd; clip-rule:evenodd" xmlns="http://www.w3.org/2000/svg" xmlns:xlink="http://www.w3.org/1999/xlink">
 <defs>
  <style type="text/css">
    .fil2 {fill:black;fill-opacity:0.33}
    .fil1 {fill:url(#id0)}
    .fil0 {fill:url(#id1);fill-opacity:0.7}
  </style>
  <linearGradient id="id0" gradientUnits="userSpaceOnUse" x1="358.247" y1="133.363" x2="358.247" y2="101.615">
   <stop offset="0" style="stop-opacity:1; stop-color:gray"/>
   <stop offset="0.6" style="stop-opacity:1; stop-color:#B3B3B3"/>
   <stop offset="1" style="stop-opacity:1; stop-color:#C8C8C8"/>
  </linearGradient>
  <linearGradient id="id1" gradientUnits="userSpaceOnUse" xlink:href="#id0" x1="358.247" y1="134.875" x2="358.247" y2="100.103">
  </linearGradient>
 </defs>
 <g>
  <path class="fil0" d="M358.248 100.103c9.601,0 17.385,7.784 17.385,17.386 0,9.602 -7.784,17.386 -17.385,17.386 -9.602,0 -17.386,-7.784 -17.386,-17.386 0,-9.602 7.784,-17.386 17.386,-17.386z"/>
  <path class="fil1" d="M358.248 101.615c8.766,0 15.873,7.108 15.873,15.874 0,8.767 -7.107,15.874 -15.873,15.874 -8.767,0 -15.875,-7.107 -15.875,-15.874 0,-8.766 7.108,-15.874 15.875,-15.874z"/>
  <path class="fil2" d="M359.084 119.147l4.907 2.284c1.108,0.364 1.877,-0.167 1.825,-1.083 -0.025,-0.456 -0.276,-0.773 -0.745,-0.976l-5.718 -2.525 1.159 -5.992c0.091,-1.008 -0.599,-1.676 -1.482,-1.364 -0.437,0.144 -0.702,0.495 -0.808,1.067l-0.903 5.214 -4.78 -2.243c-1.108,-0.363 -1.877,0.167 -1.825,1.082 0.042,0.448 0.293,0.765 0.762,0.968l5.581 2.469 -1.206 6.144c-0.075,1 0.632,1.658 1.498,1.355 0.454,-0.152 0.719,-0.504 0.825,-1.075l0.91 -5.325z"/>
 </g>
</svg>
