<?xml version="1.0" encoding="UTF-8"?>
<!DOCTYPE svg PUBLIC "-//W3C//DTD SVG 1.1//EN" "http://www.w3.org/Graphics/SVG/1.1/DTD/svg11.dtd">
<svg xml:space="preserve" viewBox="0 0 908 396" width="908px" height="396px" version="1.1" style="shape-rendering:geometricPrecision; fill-rule:evenodd; clip-rule:evenodd" xmlns="http://www.w3.org/2000/svg">
 <defs>
  <style type="text/css">
    .str0 {stroke:#626266}
    .fil5 {fill:#1A1A1A}
    .fil6 {fill:#666666}
    .fil3 {fill:#7C7C80}
    .fil4 {fill:#A0A0A6}
    .fil1 {fill:#B8B8BF}
    .fil0 {fill:#D4D4D8}
    .fil7 {fill:black;fill-opacity:0.2}
    .fil2 {fill:url(#id0)}
  </style>
  <linearGradient id="id0" gradientUnits="userSpaceOnUse" x1="193.607" y1="258.168" x2="193.607" y2="148.728">
   <stop offset="0" style="stop-opacity:1; stop-color:#E6E6EB"/>
   <stop offset="0.5" style="stop-opacity:1; stop-color:#D4D4D8"/>
   <stop offset="1" style="stop-opacity:1; stop-color:#A0A0A6"/>
  </linearGradient>
 </defs>
 <g>
  <g id="shell">
   <path class="fil0" d="M606.638 13.843l-305.276 0c0,-3.304 -2.695,-5.999 -6,-5.999l-101.755 -0.001c-28.781,0 -56.141,6.071 -80.883,16.987 -2.965,1.308 -4.771,4.079 -4.771,7.32l0 2.106c-61.678,31.287 -103.951,95.301 -103.951,169.192 0,104.715 84.89,189.605 189.605,189.605 41.59,0 80.049,-13.396 111.306,-36.103 8.912,-6.474 18.372,-9.547 29.387,-9.547l239.4 0c11.015,0 20.475,3.073 29.387,9.547 31.257,22.707 69.716,36.103 111.306,36.103 104.715,0 189.605,-84.89 189.605,-189.605 0,-73.891 -42.274,-137.905 -103.952,-169.192l0 -2.106c0,-3.241 -1.805,-6.012 -4.77,-7.32 -24.742,-10.916 -52.102,-16.987 -80.883,-16.987l-101.756 0.001c-3.304,0 -5.999,2.695 -5.999,5.999z"/>
   <polygon class="fil1" points="439.804,13.843 468.196,13.843 468.196,19.322 439.804,19.322 "/>
   <path class="fil2" d="M193.607 94.008c60.443,0 109.44,48.997 109.44,109.44 0,60.443 -48.997,109.44 -109.44,109.44 -60.443,0 -109.44,-48.997 -109.44,-109.44 0,-60.443 48.997,-109.44 109.44,-109.44zm0 5c57.682,0 104.44,46.759 104.44,104.44 0,57.682 -46.758,104.44 -104.44,104.44 -57.682,0 -104.44,-46.758 -104.44,-104.44 0,-57.681 46.758,-104.44 104.44,-104.44z"/>
  </g>
  <g id="print">
   <g>
    <path class="fil3" d="M257.922 74.092l0.014 -0.287 0.043 -0.284 0.069 -0.28 0.098 -0.273 0.122 -0.272 0.15 -0.266 0.172 -0.258 0.198 -0.254 0.221 -0.247 0.244 -0.239 0.265 -0.237 0.287 -0.224 0.307 -0.221 0.328 -0.21 0.346 -0.203 0.366 -0.195 0.383 -0.184 0.4 -0.177 0.416 -0.166 0.433 -0.154 0.447 -0.144 0.462 -0.137 0.476 -0.122 0.488 -0.113 0.501 -0.1 0.512 -0.089 0.524 -0.073 0.534 -0.063 0.542 -0.048 0.553 -0.037 0.56 -0.022 0.567 -0.007c6.102,0 11.037,2.502 11.037,5.586 0,3.095 -4.937,5.586 -11.037,5.586 -6.091,0 -11.028,-2.491 -11.028,-5.586zm20.39 10.343l0.015 -0.302 0.045 -0.298 0.073 -0.294 0.102 -0.289 0.129 -0.284 0.156 -0.278 0.183 -0.273 0.208 -0.266 0.232 -0.262 0.256 -0.25 0.279 -0.247 0.301 -0.239 0.324 -0.229 0.344 -0.221 0.364 -0.214 0.383 -0.203 0.403 -0.195 0.421 -0.185 0.438 -0.172 0.454 -0.167 0.47 -0.15 0.486 -0.144 0.5 -0.129 0.513 -0.118 0.527 -0.103 0.538 -0.092 0.549 -0.081 0.563 -0.063 0.572 -0.052 0.578 -0.04 0.589 -0.022 0.598 -0.008c6.4,0 11.599,2.628 11.599,5.87 0,3.238 -5.199,5.868 -11.599,5.868 -6.404,0 -11.593,-2.629 -11.593,-5.868zm4.754 -12.863l0.521 -0.033 0.513 -0.059 0.505 -0.082 0.497 -0.107 0.488 -0.128 0.479 -0.151 0.468 -0.177 0.457 -0.196 0.446 -0.217 0.434 -0.236 0.421 -0.258 0.408 -0.272 0.395 -0.295 0.379 -0.314 0.365 -0.328 0.346 -0.342 0.336 -0.361 0.313 -0.38 0.299 -0.39 0.28 -0.405 0.261 -0.417 0.24 -0.431 0.221 -0.446 0.199 -0.453 0.18 -0.468 0.159 -0.476 0.132 -0.486 0.115 -0.497 0.088 -0.505 0.063 -0.513 0.036 -0.519 0.015 -0.523c0,-5.782 -4.694,-10.476 -10.476,-10.476 -5.743,0 -10.408,4.613 -10.476,10.347 0.135,-0.007 0.271,-0.007 0.416,-0.007 5.78,0 10.476,4.683 10.476,10.475l0 0.126 0.001 0zm0 0l0 0 0 0zm20.38 10.35l0.509 -0.033 0.498 -0.055 0.493 -0.081 0.483 -0.103 0.475 -0.129 0.464 -0.148 0.458 -0.169 0.445 -0.192 0.435 -0.21 0.42 -0.232 0.413 -0.25 0.394 -0.266 0.383 -0.287 0.369 -0.302 0.357 -0.321 0.339 -0.336 0.32 -0.353 0.31 -0.365 0.288 -0.383 0.272 -0.394 0.254 -0.406 0.233 -0.42 0.217 -0.435 0.196 -0.441 0.173 -0.454 0.151 -0.464 0.132 -0.476 0.107 -0.482 0.089 -0.49 0.059 -0.501 0.036 -0.505 0.015 -0.513c0,-5.634 -4.558,-10.203 -10.196,-10.203 -5.586,0 -10.126,4.499 -10.192,10.078 0.133,-0.007 0.269,-0.007 0.405,-0.007 5.623,0 10.196,4.569 10.196,10.203l0 0.125zm95.276 -21.917c-0.01,-1.275 0.017,-2.127 0.436,-2.854 0.514,-0.897 1.458,-1.323 2.316,-1.328l-0.003 0c0.857,0.005 1.802,0.431 2.316,1.328 0.419,0.73 0.436,1.582 0.426,2.857l-5.491 -0.003zm5.468 4.389c0,0 0.005,0.065 0.005,0.883 0,2.661 -1.751,3.253 -2.724,3.253 -0.972,0 -2.754,-0.592 -2.754,-3.253 0,-0.797 0.005,-3.005 0.005,-3.005 0,0 12.398,0.004 12.398,-0.003 0,-4.514 -4.358,-8.253 -9.712,-8.253 -5.353,0 -9.691,3.659 -9.691,8.172 0,4.514 4.338,8.171 9.691,8.171 4.442,0 8.194,-2.533 9.339,-5.97l-6.557 0.005zm20.711 -10.135c2.461,-0.071 7.453,1.541 7.418,7.303 -0.005,1.023 -0.003,7.92 -0.003,7.92l-6.538 0c0,0 0,-8.65 0,-9.559 0,-1.268 -1.213,-2.679 -3.008,-2.679 -1.792,0 -3.125,1.411 -3.125,2.679 0,0.622 0.007,9.559 0.007,9.559l-6.534 0 0.005 -14.554 6.532 -0.005c0,0 -0.008,1.17 0,1.531 1.257,-1.2 3.072,-2.133 5.246,-2.195zm-53.491 0c2.461,-0.071 7.454,1.541 7.419,7.303 -0.005,1.023 -0.003,7.92 -0.003,7.92l-6.539 0c0,0 0,-8.65 0,-9.559 0,-1.268 -1.213,-2.679 -3.007,-2.679 -1.793,0 -3.126,1.411 -3.126,2.679 0,0.622 0.007,9.559 0.007,9.559l-6.533 0 -0.003 -14.554 6.539 -0.005c0,0 -0.007,1.17 0,1.531 1.258,-1.2 3.07,-2.133 5.246,-2.195l0 0zm75.096 -6.66l6.496 0 0 21.888 -6.507 0c0,0 -0.002,-0.707 -0.002,-0.842 -2.519,1.582 -5.362,1.579 -7.575,0.547 -0.594,-0.276 -4.501,-2.151 -4.501,-7.217 0,-3.842 3.624,-8.037 8.369,-7.621 1.561,0.138 2.671,0.706 3.724,1.298 -0.004,-3.368 -0.004,-8.053 -0.004,-8.053l0 0zm0.047 14.537c0,0 0,-1.825 0,-2.601 0,-2.251 -1.554,-2.825 -2.577,-2.825 -1.047,0 -2.581,0.574 -2.581,2.825 0,0.746 0.003,2.594 0.003,2.594 0,0 -0.003,1.814 -0.003,2.588 0,2.249 1.534,2.838 2.579,2.838 1.025,0 2.581,-0.59 2.581,-2.838 0,-0.934 -0.003,-2.581 -0.003,-2.581l0.001 0zm20.855 -0.043c0,0 -0.002,2.201 -0.002,3.083 0,2.321 -1.371,3.278 -2.69,3.278 -1.32,0 -2.697,-0.957 -2.697,-3.278 0,-0.882 0.003,-3.138 0.003,-3.138 0,0 0.005,-2.153 0.005,-3.035 0,-2.31 1.378,-3.26 2.689,-3.26 1.314,0 2.69,0.95 2.69,3.26 0,0.882 -0.003,2.514 0.005,3.098l-0.003 -0.008zm-2.644 -8.155c-5.314,0 -9.619,3.659 -9.619,8.173 0,4.514 4.308,8.173 9.619,8.173 5.313,0 9.619,-3.659 9.619,-8.173 0,-4.514 -4.305,-8.173 -9.619,-8.173zm-115.36 -1.87l0 -4.474 6.597 0 0 4.474 -6.597 0zm0.015 17.419l0 -14.556 6.582 0.002 0 14.554 -6.582 0zm33.021 0l0.003 -14.527 -3.579 0 0 -2.16 3.582 -0.003 -0.006 -2.947 6.587 0 0 2.945 3.564 0 0 2.165 -3.564 0 0.005 14.527 -6.592 0zm-59.806 0l0.002 -21.888 6.82 0 9.434 15.263 -0.005 -15.263 6.767 0 0 21.888 -6.757 0 -9.484 -15.264 0 15.264 -6.777 0zm0.074 23.382l0 -3.049 9.7 0c1.083,0 1.623,-0.473 1.623,-1.416 0,-0.925 -0.54,-1.388 -1.623,-1.388l-4.853 0c-1.707,0 -3.007,-0.382 -3.908,-1.145 -0.901,-0.761 -1.349,-1.858 -1.349,-3.291 0,-1.43 0.441,-2.527 1.328,-3.291 0.887,-0.761 2.148,-1.143 3.785,-1.143l10.913 0 0 3.081 -9.662 0c-1.107,0 -1.664,0.452 -1.664,1.353 0,0.925 0.557,1.387 1.664,1.387l4.959 0c1.665,0 2.933,0.382 3.806,1.146 0.873,0.761 1.307,1.858 1.307,3.291 0,1.451 -0.434,2.559 -1.307,3.319 -0.873,0.764 -2.141,1.146 -3.806,1.146l-10.913 0zm24.784 0c-1.998,0 -3.568,-0.484 -4.703,-1.447 -1.135,-0.968 -1.703,-2.517 -1.703,-4.651l0 -8.625 4.703 0 0 8.657c0,1.026 0.263,1.762 0.788,2.214 0.529,0.453 1.216,0.68 2.064,0.68l3.964 0 0 -11.551 4.703 0 0 14.723 -9.816 0zm12.381 0l0 -14.723 9.704 0c2.198,0 3.81,0.435 4.84,1.308 1.031,0.872 1.546,2.067 1.546,3.578 0,1.493 -0.508,2.677 -1.528,3.55 -1.02,0.873 -2.639,1.307 -4.858,1.307l-5 0 0 4.98 -4.704 0zm11.141 -9.827c0,-1.23 -0.756,-1.847 -2.267,-1.847l-4.17 0 0 3.677 4.17 0c1.511,0 2.267,-0.61 2.267,-1.83zm22.37 -1.847l-6.067 0c-1.471,0 -2.533,0.225 -3.188,0.677 -0.652,0.452 -1.038,1.132 -1.154,2.032l10.409 0 0 3.021 -10.409 0c0.046,0.883 0.397,1.581 1.052,2.092 0.655,0.516 1.752,0.771 3.29,0.771l6.067 0 0 3.081 -6.662 0c-2.828,0 -4.959,-0.617 -6.393,-1.854 -1.433,-1.234 -2.148,-3.07 -2.148,-5.509 0,-2.436 0.715,-4.272 2.148,-5.506 1.434,-1.237 3.565,-1.854 6.393,-1.854l6.662 0 0 3.049zm14.323 2.023c0,-1.35 -0.757,-2.023 -2.271,-2.023l-4.784 0 0 4.087 4.784 0c1.514,0 2.271,-0.687 2.271,-2.064zm-3.512 5.081l-3.543 0 0 4.57 -4.703 0 0 -14.723 10.629 0c2.061,0 3.589,0.47 4.584,1.413 0.996,0.939 1.493,2.155 1.493,3.648 0,1.514 -0.494,2.737 -1.479,3.676 -0.497,0.48 -1.135,0.835 -1.91,1.069l3.729 4.917 -5.516 0 -3.284 -4.57zm16.132 -2.793c0,-2.436 0.714,-4.272 2.151,-5.506 1.434,-1.237 3.564,-1.854 6.389,-1.854l6.666 0 0 3.049 -6.07 0c-1.472,0 -2.534,0.225 -3.186,0.677 -0.655,0.452 -1.041,1.132 -1.156,2.032l10.412 0 0 3.021 -10.503 0 0 5.944 -4.703 0 0 -7.363zm22.947 7.363c-1.731,0 -3.067,-0.403 -4.005,-1.206 -0.936,-0.806 -1.406,-1.92 -1.406,-3.343 0,-1.416 0.47,-2.527 1.406,-3.333 0.938,-0.803 2.274,-1.205 4.005,-1.205l6.529 0 0 -0.533c0,-0.746 -0.175,-1.269 -0.529,-1.57 -0.351,-0.302 -0.96,-0.452 -1.823,-0.452l-8.47 0 0 -3.081 8.646 0c2.428,0 4.184,0.463 5.26,1.384 1.079,0.926 1.619,2.436 1.619,4.529l0 8.81 -11.232 0zm6.529 -6.066l-5.267 0c-1.265,0 -1.9,0.504 -1.9,1.517 0,1.02 0.635,1.531 1.9,1.531l5.267 0 0 -3.048zm24.742 6.066l0 -8.81c0,-0.985 -0.245,-1.69 -0.74,-2.111 -0.49,-0.42 -1.31,-0.63 -2.453,-0.63l-0.974 0 0 11.551 -4.703 0 0 -11.551 -3.964 0 0 11.551 -4.702 0 0 -14.723 15.146 0c2.478,0 4.276,0.481 5.4,1.448 1.122,0.964 1.683,2.516 1.683,4.65l0 8.625 -4.693 0zm11.891 -14.723l0 14.723 -4.703 0 0 -14.723 4.703 0zm17.589 3.109l-5.639 0c-1.71,0 -2.951,0.333 -3.715,0.999 -0.767,0.662 -1.153,1.748 -1.153,3.252 0,1.507 0.379,2.593 1.132,3.256 0.754,0.665 1.987,0.995 3.705,0.995l5.67 0 0 3.112 -6.841 0c-2.765,0 -4.846,-0.617 -6.252,-1.854 -1.401,-1.234 -2.103,-3.07 -2.103,-5.509 0,-2.429 0.702,-4.262 2.103,-5.502 1.406,-1.237 3.487,-1.858 6.252,-1.858l6.841 0 0 3.109zm20.821 4.251c0,1.276 -0.214,2.376 -0.638,3.301 -0.424,0.929 -1.034,1.693 -1.833,2.292 -0.796,0.599 -1.766,1.041 -2.905,1.332 -1.139,0.291 -2.436,0.438 -3.887,0.438 -1.451,0 -2.747,-0.147 -3.887,-0.438 -1.138,-0.291 -2.106,-0.733 -2.898,-1.332 -0.795,-0.599 -1.405,-1.363 -1.832,-2.292 -0.428,-0.925 -0.642,-2.025 -0.642,-3.301 0,-1.272 0.214,-2.373 0.642,-3.301 0.427,-0.926 1.037,-1.69 1.832,-2.289 0.792,-0.599 1.76,-1.044 2.898,-1.335 1.14,-0.291 2.436,-0.435 3.887,-0.435 1.451,0 2.748,0.144 3.887,0.435 1.139,0.291 2.109,0.736 2.905,1.335 0.799,0.599 1.409,1.363 1.833,2.289 0.424,0.928 0.638,2.029 0.638,3.301zm-9.263 4.251c3.038,0 4.56,-1.416 4.56,-4.251 0,-2.832 -1.522,-4.251 -4.56,-4.251 -3.038,0 -4.559,1.419 -4.559,4.251 0,2.835 1.521,4.251 4.559,4.251zm29.21 3.112l0 -8.81c0,-0.985 -0.245,-1.69 -0.739,-2.111 -0.491,-0.42 -1.311,-0.63 -2.454,-0.63l-0.974 0 0 11.551 -4.702 0 0 -11.551 -3.964 0 0 11.551 -4.703 0 0 -14.723 15.146 0c2.478,0 4.276,0.481 5.4,1.448 1.122,0.964 1.683,2.516 1.683,4.65l0 8.625 -4.693 0z"/>
   </g>
   <path class="fil3" d="M334.406 291.083l0 -2.127 6.766 0c0.756,0 1.132,-0.33 1.132,-0.987 0,-0.645 -0.376,-0.968 -1.132,-0.968l-3.385 0c-1.191,0 -2.098,-0.267 -2.726,-0.8 -0.628,-0.53 -0.941,-1.295 -0.941,-2.295 0,-0.997 0.308,-1.762 0.926,-2.295 0.619,-0.531 1.499,-0.797 2.64,-0.797l7.612 0 0 2.148 -6.739 0c-0.772,0 -1.161,0.316 -1.161,0.944 0,0.645 0.389,0.968 1.161,0.968l3.459 0c1.161,0 2.046,0.266 2.655,0.799 0.608,0.531 0.911,1.296 0.911,2.296 0,1.012 -0.303,1.784 -0.911,2.315 -0.609,0.533 -1.494,0.799 -2.655,0.799l-7.612 0zm23.337 -8.143l-4.231 0c-1.027,0 -1.768,0.157 -2.225,0.472 -0.455,0.316 -0.723,0.79 -0.804,1.418l7.26 0 0 2.107 -7.26 0c0.032,0.616 0.276,1.103 0.733,1.46 0.457,0.359 1.222,0.537 2.296,0.537l4.231 0 0 2.149 -4.647 0c-1.973,0 -3.459,-0.43 -4.459,-1.293 -0.999,-0.861 -1.498,-2.141 -1.498,-3.843 0,-1.699 0.499,-2.98 1.498,-3.84 1,-0.863 2.486,-1.293 4.459,-1.293l4.647 0 0 2.126zm5.028 -2.126l0 6.565c0,1.022 0.599,1.533 1.797,1.533l6.246 0 0 2.171 -7.062 0c-2.836,0 -4.254,-1.234 -4.254,-3.704l0 -6.565 3.273 0zm20.187 2.126l-4.231 0c-1.027,0 -1.768,0.157 -2.225,0.472 -0.455,0.316 -0.724,0.79 -0.804,1.418l7.26 0 0 2.107 -7.26 0c0.031,0.616 0.276,1.103 0.733,1.46 0.457,0.359 1.222,0.537 2.296,0.537l4.231 0 0 2.149 -4.647 0c-1.973,0 -3.459,-0.43 -4.459,-1.293 -1,-0.861 -1.499,-2.141 -1.499,-3.843 0,-1.699 0.499,-2.98 1.499,-3.84 1,-0.863 2.486,-1.293 4.459,-1.293l4.647 0 0 2.126zm12.268 0.042l-3.933 0c-1.192,0 -2.058,0.232 -2.591,0.697 -0.535,0.462 -0.804,1.22 -0.804,2.268 0,1.052 0.264,1.809 0.789,2.271 0.526,0.465 1.386,0.694 2.585,0.694l3.954 0 0 2.171 -4.771 0c-1.929,0 -3.381,-0.43 -4.361,-1.293 -0.978,-0.861 -1.467,-2.141 -1.467,-3.843 0,-1.694 0.489,-2.972 1.467,-3.838 0.98,-0.863 2.432,-1.295 4.361,-1.295l4.771 0 0 2.168zm5.586 -0.02l-3.989 0 0 -2.148 11.264 0 0 2.148 -3.989 0 0 8.121 -3.286 0 0 -8.121z"/>
   <path class="fil3" d="M439.506 291.083l0 -2.127 6.766 0c0.755,0 1.132,-0.33 1.132,-0.988 0,-0.645 -0.377,-0.968 -1.132,-0.968l-3.386 0c-1.19,0 -2.097,-0.266 -2.725,-0.799 -0.629,-0.53 -0.942,-1.296 -0.942,-2.295 0,-0.998 0.308,-1.763 0.927,-2.296 0.618,-0.53 1.498,-0.797 2.64,-0.797l7.612 0 0 2.149 -6.74 0c-0.772,0 -1.161,0.316 -1.161,0.944 0,0.645 0.389,0.968 1.161,0.968l3.459 0c1.162,0 2.047,0.266 2.655,0.799 0.609,0.531 0.912,1.296 0.912,2.295 0,1.012 -0.303,1.785 -0.912,2.315 -0.608,0.533 -1.493,0.8 -2.655,0.8l-7.611 0zm56.21 -8.121l-3.99 0 0 -2.149 11.265 0 0 2.149 -3.99 0 0 8.121 -3.285 0 0 -8.121zm-39.496 0l-3.989 0 0 -2.149 11.264 0 0 2.149 -3.989 0 0 8.121 -3.286 0 0 -8.121zm30.363 1.389c0,-0.942 -0.528,-1.411 -1.584,-1.411l-3.336 0 0 2.851 3.336 0c1.056,0 1.584,-0.48 1.584,-1.44zm-2.449 3.544l-2.471 0 0 3.188 -3.281 0 0 -10.27 7.414 0c1.438,0 2.504,0.328 3.198,0.986 0.694,0.655 1.041,1.503 1.041,2.544 0,1.056 -0.345,1.909 -1.032,2.564 -0.347,0.335 -0.791,0.582 -1.332,0.746l2.601 3.43 -3.847 0 -2.291 -3.188zm-16.092 -7.082l-4.891 10.27 3.431 0 0.978 -2.125 4.748 0 0.977 2.125 3.352 0 -4.892 -10.27 -3.703 0zm0.488 6.038l1.404 -3.051 1.404 3.051 -2.808 0z"/>
  </g>
  <g id="shield">
   <path class="fil4 str0" d="M714.393 37.303c-91.759,0 -166.145,74.386 -166.145,166.145 0,91.759 74.386,166.145 166.145,166.145 91.759,0 166.145,-74.386 166.145,-166.145 0,-91.759 -74.386,-166.145 -166.145,-166.145zm-27.515 62.713c19.458,-14.663 47.12,-10.776 61.783,8.683 14.664,19.459 10.776,47.122 -8.683,61.784l-88.979 67.05c-19.459,14.662 -47.121,10.776 -61.784,-8.683 -14.664,-19.459 -10.776,-47.121 8.683,-61.784l88.98 -67.05zm88.979 67.05c19.459,-14.663 47.121,-10.776 61.784,8.683 14.663,19.459 10.775,47.121 -8.683,61.784l-88.98 67.049c-19.458,14.663 -47.12,10.776 -61.784,-8.683 -14.663,-19.459 -10.775,-47.121 8.684,-61.784l88.979 -67.049z"/>
   <polygon class="fil0" points="571.681,255.49 562.907,242.837 569.623,242.837 574.756,251.13 579.938,242.837 586.423,242.837 577.645,255.49 577.645,261.508 571.681,261.508 "/>
   <polygon class="fil0" points="782.231,89.402 790.315,98.855 783.386,98.855 778.533,92.775 773.635,98.855 766.88,98.855 774.991,89.518 767.097,80.184 773.817,80.184 778.675,86.211 783.609,80.184 790.093,80.184 "/>
   <path class="fil0" d="M647.625 321.52l0 3.631 5.391 0c1.702,0 2.551,-0.605 2.551,-1.809 0,-1.218 -0.849,-1.822 -2.551,-1.822l-5.391 0zm7.28 -11.134c1.778,0 3.182,0.414 4.205,1.236 1.026,0.826 1.537,2.062 1.537,3.711 0,0.826 -0.124,1.498 -0.364,2.013 -0.245,0.516 -0.529,0.925 -0.854,1.223 -0.324,0.297 -0.653,0.515 -0.977,0.644 -0.325,0.129 -0.574,0.218 -0.747,0.262 0.338,0.049 0.724,0.16 1.164,0.329 0.441,0.174 0.854,0.44 1.249,0.805 0.396,0.364 0.729,0.826 1.005,1.391 0.271,0.564 0.409,1.266 0.409,2.111 0,1.595 -0.542,2.817 -1.627,3.671 -1.084,0.849 -2.551,1.275 -4.4,1.275l-13.845 0 0 -18.671 13.245 0zm-2.684 7.303c0.835,0 1.453,-0.134 1.857,-0.401 0.405,-0.271 0.605,-0.711 0.605,-1.315 0,-0.6 -0.2,-1.035 -0.605,-1.311 -0.404,-0.271 -1.022,-0.409 -1.857,-0.409l-4.596 0 0 3.436 4.596 0z"/>
   <path class="fil0" d="M851.223 153.832l-8.893 18.671 6.24 0 1.777 -3.861 8.633 0 1.777 3.861 6.093 0 -8.893 -18.671 -6.734 0zm0.887 10.979l2.553 -5.548 2.553 5.548 -5.106 0z"/>
  </g>
  <g id="holes">
   <path class="fil5" d="M162.813 130.604c0,-4.966 4.115,-9.081 9.08,-9.081l43.705 0c5.001,0 8.803,4.16 8.803,9.08l0 37.629c0,2.478 2.195,4.407 4.397,4.422l37.654 0c4.92,0 9.081,3.802 9.081,8.804l-0.001 43.704c0,4.965 -4.115,9.08 -9.08,9.08l-37.6 0 -0.028 0c-2.211,0 -4.423,1.935 -4.423,4.423l0 37.628c0,4.921 -3.802,9.081 -8.803,9.081l-43.705 -0.001c-4.965,0 -9.08,-4.114 -9.08,-9.08l0 -37.629c0,-2.478 -1.92,-4.407 -4.393,-4.422l-37.658 0c-4.965,0 -9.08,-4.115 -9.08,-9.08l0 -43.704c0,-5.002 4.16,-8.804 9.08,-8.804l37.658 0c2.473,-0.015 4.393,-1.944 4.393,-4.422l0 -37.628z"/>
   <path class="fil5" d="M382.995 209.354c5.881,-4.431 14.241,-3.257 18.674,2.624 4.432,5.882 3.256,14.242 -2.625,18.674l-39.842 30.021c-5.881,4.432 -14.241,3.258 -18.673,-2.624 -4.432,-5.881 -3.257,-14.242 2.625,-18.674l39.841 -30.021z"/>
   <path class="fil5" d="M482.998 209.354c5.881,-4.431 14.241,-3.257 18.673,2.624 4.432,5.882 3.257,14.242 -2.624,18.674l-39.842 30.021c-5.882,4.432 -14.241,3.258 -18.674,-2.624 -4.432,-5.881 -3.256,-14.242 2.625,-18.674l39.842 -30.021z"/>
   <circle class="fil5" cx="624.448" cy="202.299" r="36.12"/>
   <circle class="fil5" cx="713.428" cy="135.25" r="36.12"/>
   <circle class="fil5" cx="713.428" cy="269.349" r="36.12"/>
   <circle class="fil5" cx="802.408" cy="202.299" r="36.12"/>
  </g>
  <g id="dpad">
   <path class="fil6" d="M262.841 179.265l-40.628 0c-2.487,0 -4.422,-1.935 -4.422,-4.422l0 -40.629c0,-3.316 -2.764,-6.08 -5.804,-6.08l-36.483 0c-3.317,0 -6.081,2.764 -6.081,6.08l0 40.629c0,2.487 -1.934,4.422 -4.422,4.422l-40.628 0c-3.317,0 -6.081,2.764 -6.081,6.08l0 36.483c0,3.316 2.764,5.804 6.081,5.804l40.628 0c2.488,0 4.422,2.211 4.422,4.422l0 40.905c0,3.317 2.764,5.804 6.081,5.804l36.483 0c3.04,0 5.804,-2.487 5.804,-5.804l0 -40.905c0,-2.211 1.935,-4.422 4.422,-4.422l40.628 0c3.317,0 6.081,-2.488 6.081,-5.804l0 -36.483c0,-3.316 -2.764,-6.08 -6.081,-6.08z"/>
   <path class="fil7" d="M211.876 203.313c0,-10.088 -8.181,-18.269 -18.269,-18.269 -10.088,0 -18.54,8.181 -18.54,18.269 0,10.088 8.452,18.54 18.54,18.54 10.088,0 18.269,-8.452 18.269,-18.54zm-54.661 0.135l0 11.366c0,1.933 -1.567,3.5 -3.5,3.5 -0.647,0 -1.253,-0.175 -1.773,-0.482l-22.75 -11.253c-1.232,-0.608 -1.946,-1.845 -1.947,-3.131 0.001,-1.286 0.715,-2.523 1.947,-3.131l22.75 -11.253c0.52,-0.306 1.126,-0.482 1.773,-0.482 1.933,0 3.5,1.568 3.5,3.5l0 11.366zm36.392 36.392l-11.366 0c-1.933,0 -3.5,1.568 -3.5,3.5 0,0.647 0.176,1.253 0.482,1.773l11.253 22.751c0.608,1.231 1.845,1.946 3.131,1.946 1.286,0 2.523,-0.715 3.131,-1.946l11.253 -22.751c0.306,-0.52 0.482,-1.126 0.482,-1.773 0,-1.932 -1.567,-3.5 -3.5,-3.5l-11.366 0zm36.392 -36.392l0 11.366c0,1.933 1.567,3.5 3.5,3.5 0.647,0 1.253,-0.175 1.773,-0.482l22.75 -11.253c1.232,-0.608 1.946,-1.845 1.947,-3.131 -0.001,-1.286 -0.715,-2.523 -1.947,-3.131l-22.75 -11.253c-0.52,-0.306 -1.126,-0.482 -1.773,-0.482 -1.933,0 -3.5,1.568 -3.5,3.5l0 11.366zm-36.392 -36.392l-11.366 0c-1.933,0 -3.5,-1.567 -3.5,-3.5 0,-0.647 0.176,-1.252 0.482,-1.773l11.253 -22.75c0.608,-1.232 1.845,-1.946 3.131,-1.947 1.286,0.001 2.523,0.715 3.131,1.947l11.253 22.75c0.306,0.521 0.482,1.126 0.482,1.773 0,1.933 -1.567,3.5 -3.5,3.5l-11.366 0z"/>
  </g>
 </g>
</svg>
