<?xml version="1.0" encoding="UTF-8"?>
<!DOCTYPE svg PUBLIC "-//W3C//DTD SVG 1.1//EN" "http://www.w3.org/Graphics/SVG/1.1/DTD/svg11.dtd">
<svg xml:space="preserve" viewBox="0 0 908 396" width="908px" height="396px" version="1.1" style="shape-rendering:geometricPrecision; fill-rule:evenodd; clip-rule:evenodd" xmlns="http://www.w3.org/2000/svg">
 <defs>
  <style type="text/css">
    .str0 {stroke:#626266}
    .fil6 {fill:#1A1A1A}
    .fil7 {fill:#666666}
    .fil3 {fill:#7C7C80}
    .fil5 {fill:#A0A0A6}
    .fil1 {fill:#B8B8BF}
    .fil0 {fill:#D4D4D8}
    .fil8 {fill:black;fill-opacity:0.2}
    .fil2 {fill:url(#id0)}
  </style>
  <linearGradient id="id0" gradientUnits="userSpaceOnUse" x1="193.607" y1="258.168" x2="193.607" y2="148.728">
   <stop offset="0" style="stop-opacity:1; stop-color:#E6E6EB"/>
   <stop offset="0.5" style="stop-opacity:1; stop-color:#D4D4D8"/>
   <stop offset="1" style="stop-opacity:1; stop-color:#A0A0A6"/>
  </linearGradient>
 </defs>
 <g>
  <g id="shell">
   <path class="fil0" d="M606.638 13.843l-305.276 0c0,-3.304 -2.695,-5.999 -6,-5.999l-101.755 -0.001c-28.781,0 -56.141,6.071 -80.883,16.987 -2.965,1.308 -4.771,4.079 -4.771,7.32l0 2.106c-61.678,31.287 -103.951,95.301 -103.951,169.192 0,104.715 84.89,189.605 189.605,189.605 41.59,0 80.049,-13.396 111.306,-36.103 8.912,-6.474 18.372,-9.547 29.387,-9.547l239.4 0c11.015,0 20.475,3.073 29.387,9.547 31.257,22.707 69.716,36.103 111.306,36.103 104.715,0 189.605,-84.89 189.605,-189.605 0,-73.891 -42.274,-137.905 -103.952,-169.192l0 -2.106c0,-3.241 -1.805,-6.012 -4.77,-7.32 -24.742,-10.916 -52.102,-16.987 -80.883,-16.987l-101.756 0.001c-3.304,0 -5.999,2.695 -5.999,5.999z"/>
   <polygon class="fil1" points="439.804,13.843 468.196,13.843 468.196,19.322 439.804,19.322 "/>
   <path class="fil2" d="M193.607 94.008c60.443,0 109.44,48.997 109.44,109.44 0,60.443 -48.997,109.44 -109.44,109.44 -60.443,0 -109.44,-48.997 -109.44,-109.44 0,-60.443 48.997,-109.44 109.44,-109.44zm0 5c57.682,0 104.44,46.759 104.44,104.44 0,57.682 -46.758,104.44 -104.44,104.44 -57.682,0 -104.44,-46.758 -104.44,-104.44 0,-57.681 46.758,-104.44 104.44,-104.44z"/>
  </g>
  <g id="print">
   <g>
    <path class="fil3" d="M247.921 75.142l0.016 -0.317 0.047 -0.313 0.077 -0.309 0.107 -0.301 0.136 -0.301 0.164 -0.293 0.191 -0.284 0.218 -0.281 0.244 -0.272 0.269 -0.265 0.293 -0.26 0.316 -0.248 0.34 -0.244 0.361 -0.231 0.382 -0.224 0.403 -0.216 0.423 -0.203 0.441 -0.195 0.46 -0.183 0.477 -0.171 0.494 -0.158 0.51 -0.151 0.525 -0.134 0.538 -0.126 0.553 -0.11 0.566 -0.097 0.577 -0.082 0.589 -0.069 0.599 -0.053 0.61 -0.041 0.618 -0.024 0.626 -0.008c6.733,0 12.179,2.761 12.179,6.164 0,3.416 -5.448,6.164 -12.179,6.164 -6.722,0 -12.17,-2.748 -12.17,-6.164zm22.5 11.413l0.016 -0.333 0.05 -0.33 0.082 -0.323 0.112 -0.319 0.142 -0.313 0.173 -0.308 0.201 -0.301 0.229 -0.294 0.256 -0.288 0.283 -0.277 0.307 -0.272 0.333 -0.264 0.357 -0.252 0.38 -0.245 0.402 -0.235 0.423 -0.224 0.444 -0.216 0.464 -0.203 0.483 -0.191 0.502 -0.183 0.519 -0.166 0.535 -0.159 0.552 -0.142 0.566 -0.131 0.582 -0.113 0.593 -0.102 0.606 -0.09 0.622 -0.068 0.63 -0.058 0.639 -0.044 0.65 -0.025 0.659 -0.008c7.063,0 12.8,2.899 12.8,6.477 0,3.573 -5.737,6.475 -12.8,6.475 -7.066,0 -12.792,-2.9 -12.792,-6.475zm5.246 -14.194l0.574 -0.037 0.567 -0.065 0.557 -0.089 0.549 -0.118 0.537 -0.142 0.529 -0.167 0.517 -0.195 0.504 -0.216 0.492 -0.24 0.479 -0.26 0.464 -0.284 0.451 -0.301 0.435 -0.326 0.419 -0.346 0.403 -0.361 0.382 -0.378 0.37 -0.399 0.346 -0.419 0.329 -0.431 0.309 -0.447 0.288 -0.459 0.265 -0.476 0.244 -0.492 0.219 -0.5 0.2 -0.517 0.175 -0.524 0.146 -0.537 0.126 -0.549 0.098 -0.557 0.069 -0.565 0.04 -0.573 0.016 -0.578c0,-6.379 -5.179,-11.559 -11.56,-11.559 -6.337,0 -11.484,5.09 -11.559,11.417 0.149,-0.008 0.298,-0.008 0.459,-0.008 6.378,0 11.56,5.168 11.56,11.56l0 0.138 0.001 0zm0 0l0 0 0 0zm22.489 11.421l0.561 -0.036 0.549 -0.061 0.544 -0.09 0.533 -0.114 0.524 -0.142 0.513 -0.163 0.504 -0.187 0.492 -0.211 0.48 -0.232 0.463 -0.256 0.456 -0.276 0.435 -0.293 0.423 -0.317 0.406 -0.333 0.395 -0.354 0.374 -0.371 0.353 -0.39 0.342 -0.402 0.317 -0.423 0.301 -0.435 0.281 -0.448 0.256 -0.463 0.24 -0.48 0.215 -0.488 0.191 -0.5 0.167 -0.512 0.146 -0.525 0.118 -0.532 0.098 -0.541 0.065 -0.553 0.041 -0.557 0.016 -0.565c0,-6.217 -5.03,-11.259 -11.251,-11.259 -6.164,0 -11.173,4.964 -11.246,11.12 0.146,-0.008 0.296,-0.008 0.447,-0.008 6.205,0 11.251,5.042 11.251,11.259l0 0.138zm29.425 -39.082c-2.147,0 -4.234,1.764 -4.617,3.952l0 0.039 0 0.039 0 0.039 -0.039 0.039 0 0.078 0 0.04 -0.039 0.078 0 0.078 -0.039 0.078 0 0.117 -0.039 0.079 0 0.117 -0.04 0.118 -0.039 0.117 -0.039 0.235 -0.078 0.274 -0.039 0.274 -0.079 0.273 -0.039 0.314 -0.078 0.313 -0.078 0.352 -0.079 0.313 -0.117 0.665 -0.078 0.352 -0.078 0.313 -0.039 0.313 -0.079 0.313 -0.078 0.313 -0.039 0.313 -0.039 0.274 -0.079 0.235 -0.039 0.274 0 0.117 -0.039 0.078 0 0.118 0 0.078 -0.039 0.117 0 0.079 0 0.078 -0.039 0.078 0 0.039 0 0.039c-0.04,0.957 0.093,2.262 0.391,2.504 0.38,2.107 7.402,11.858 7.2,13.343 -0.19,1.489 -1.018,5.869 -1.018,5.869 -0.254,1.477 -1.262,2.661 -2.739,2.661 -1.476,0 -2.484,-1.18 -2.23,-2.661l1.33 -7.277 -5.243 0 -1.76 10.094c-0.36,2.05 1.029,3.678 3.091,3.678l7.473 0c2.07,0 4.042,-1.628 4.422,-3.678 0,0 1.925,-9.429 1.917,-10.094 -0.008,-0.671 -0.196,-0.744 -0.196,-0.744 0,-0.767 -6.249,-11.081 -6.886,-11.465 -0.275,-0.161 -0.501,-1.182 -0.509,-1.799 -0.012,-0.614 0.822,-4.735 0.822,-4.735 0.254,-1.477 1.653,-2.661 3.13,-2.661 1.477,0 2.093,1.184 1.839,2.661l-1.135 6.534 5.282 0 1.839 -9.82c0.416,-2.188 -0.983,-3.952 -3.13,-3.952l-7.747 0zm14.399 0l-6.261 36.075c-0.359,2.05 1.029,3.678 3.092,3.678l7.473 0c2.07,0 4.077,-1.628 4.46,-3.678l6.691 -36.075 -4.695 0 -6.378 35.058c-0.093,0.509 -0.587,0.939 -1.095,0.939l-3.717 0c-0.521,0 -0.868,-0.427 -0.783,-0.939l6.221 -35.058 -5.008 0zm17.999 0l-7.552 39.753 5.008 0 3.443 -17.998 6.378 0c2.074,0 4.042,-1.64 4.421,-3.679l2.739 -14.124c0.412,-2.191 -0.983,-3.952 -3.13,-3.952l-6.299 0 -5.008 0zm17.881 0l-7.826 39.753 11.269 0 0.782 -4.93 -5.556 0 2.27 -13.421 5.556 0 0.782 -4.147 -5.556 0 2.465 -12.325 5.556 0 0.783 -4.93 -10.525 0zm13.46 0l-7.513 39.753 5.008 0 3.404 -17.998 3.561 0c0.468,0.435 0.522,1.239 0.587,1.643 0.093,0.585 0.19,1.332 0.118,1.917 -0.065,0.581 -2.74,14.438 -2.74,14.438l5.009 0c0,0 2.817,-15.096 2.817,-15.338 0.008,-0.246 0.001,-1.02 -0.274,-1.447 -0.182,-0.275 -0.498,-0.905 -0.861,-1.135 -0.698,-0.448 -1.487,-0.744 -1.487,-0.744l-0.352 0c1.433,-0.565 4.135,-1.495 4.422,-3.013l2.738 -14.124c0.416,-2.191 -0.983,-3.952 -3.129,-3.952l-11.308 0zm26.802 0l-7.552 39.753 5.752 0 4.656 -23.046 1.839 23.046 5.008 0 7.552 -39.753 -5.752 0 -3.913 20.777 -2.582 -20.777 -5.008 0zm19.877 0l-7.552 39.753 5.008 0 7.552 -39.753 -5.008 0zm7.629 0l-7.551 39.753 5.79 0 4.657 -23.046 1.839 23.046 5.008 0 7.552 -39.753 -5.791 0 -3.874 20.777 -2.582 -20.777 -5.048 0zm19.407 0l-0.938 4.93 3.13 0 -6.182 34.823 5.712 0 6.3 -34.823 3.012 0 0.783 -4.93 -11.817 0zm13.773 0l-7.825 39.753 11.269 0 0.782 -4.93 -5.556 0 2.309 -13.421 5.555 0 0.783 -4.147 -5.556 0 2.426 -12.325 5.556 0 0.783 -4.93 -10.526 0zm12.717 0l-7.552 39.753 5.791 0 4.656 -23.046 1.839 23.046 5.009 0 7.551 -39.753 -5.791 0 -3.873 20.777 -2.583 -20.777 -5.047 0zm19.916 0l-7.552 39.753 11.425 0c2.074,0 4.078,-1.628 4.461,-3.678l6.065 -32.123c0.411,-2.191 -0.984,-3.952 -3.131,-3.952l-11.268 0zm21.48 0c-2.146,0 -4.194,1.764 -4.577,3.952l-5.596 32.123c-0.363,2.05 0.995,3.678 3.052,3.678l8.256 0c2.071,0 4.077,-1.628 4.461,-3.678l6.065 -32.123c0.415,-2.188 -0.988,-3.952 -3.131,-3.952l-8.53 0zm-17.215 4.577l2.308 0c1.477,0 2.485,1.184 2.23,2.661l-4.93 26.02c-0.258,1.477 -1.692,2.7 -3.169,2.7l-2.27 0 5.831 -31.381zm20.15 0l0.157 0c1.477,0 2.445,1.184 2.191,2.661l-4.696 26.02c-0.254,1.473 -1.614,2.7 -3.091,2.7 -1.477,0 -2.093,-1.223 -1.839,-2.7l4.657 -26.02 0.039 -0.117 0.039 -0.117 0.039 -0.157 0.039 -0.117 0.039 -0.157 0.04 -0.117 0.038 -0.118 0.079 -0.117 0.039 -0.117 0.078 -0.118 0.039 -0.117 0.078 -0.118 0.079 -0.077 0.078 -0.118 0.078 -0.118 0.118 -0.078 0.078 -0.078 0.078 -0.078 0.117 -0.078 0.118 -0.079 0.078 -0.078 0.118 -0.078 0.117 -0.039 0.117 -0.079 0.079 -0.039 0.156 -0.039 0.118 -0.039 0.117 0 0.117 -0.039 0.157 0 0.117 -0.04zm-171.065 0.157l2.426 0c0.533,0 1.662,1.22 1.565,1.761l-2.074 9.821c-0.096,0.508 -0.782,1.683 -1.291,1.683l-2.935 0 -0.038 0 -0.039 0 -0.04 -0.04 -0.039 0 -0.039 0 -0.039 0 -0.04 0 0 -0.039 -0.038 0 -0.039 0 -0.04 -0.039 -0.039 0 -0.039 -0.039 -0.039 -0.039 -0.039 0 0 -0.039 -0.039 -0.039 -0.039 -0.04 0 -0.039 -0.04 -0.039 -0.039 -0.039 0 -0.039 0 -0.039 -0.039 -0.039 0 -0.039 0 -0.04 -0.039 -0.039 0 -0.039c0,-0.065 -0.008,-0.162 0,-0.235l2.348 -12.012c0.214,-0.177 0.477,-0.313 0.743,-0.313zm31.185 0l0.039 0 0.039 0 0.039 0 0.039 0 2.27 0c0.532,0 1.67,1.22 1.565,1.761l-2.074 9.782c-0.093,0.512 -1.366,1.722 -1.878,1.722l-2.152 0c-0.444,0 -0.75,-0.293 -0.783,-0.705 0,-0.065 -0.008,-0.158 0,-0.235l2.309 -12.012 0.039 -0.039 0.039 -0.039 0.078 -0.039 0.039 0 0.04 -0.039 0.039 -0.039 0.039 0 0.039 -0.04 0.039 0 0.078 -0.039 0.039 0 0.04 0 0.039 0 0 -0.039zm-79.507 38.462l0 13.03 223.339 0 0 -13.03 -223.339 0zm164.179 1.37l0.038 0 0.039 0 0.04 0 0.039 0 0.039 0 1.722 0c0.464,0 0.797,0.372 0.704,0.861l-0.43 2.191 -1.057 0 0.235 -1.448c0.052,-0.328 -0.139,-0.587 -0.47,-0.587 -0.326,0 -0.648,0.258 -0.704,0.587l-0.195 1.056c-0.033,0.064 0.064,0.36 0.117,0.392 0.145,0.083 1.526,2.373 1.526,2.543 0.032,0.085 0.051,0.125 0.039,0.157 -0.04,0.287 -0.43,2.23 -0.43,2.23 -0.085,0.446 -0.519,0.822 -0.979,0.822l-1.643 0c-0.456,0 -0.75,-0.376 -0.665,-0.822l0.391 -2.23 1.135 0 -0.274 1.604c-0.053,0.327 0.139,0.626 0.469,0.626 0.315,0 0.652,-0.297 0.705,-0.626l0.234 -1.291c-0.21,-0.541 -1.593,-2.506 -1.682,-2.974 -0.061,-0.052 -0.086,-0.335 -0.078,-0.548 0.012,-0.233 0.313,-1.682 0.313,-1.682l0.039 0 0 -0.039 0 -0.04 0 -0.039 0.039 -0.078 0 -0.039 0.039 -0.039 0 -0.039 0.039 -0.04 0 -0.039 0.039 -0.039 0.039 -0.039 0 -0.039 0.04 0 0.039 -0.039 0.039 -0.039 0.039 -0.039 0 -0.04 0.039 0 0.039 -0.038 0.039 -0.04 0.04 0 0.039 -0.039 0.039 0 0.039 -0.039 0.039 0 0.078 0 0.04 -0.039zm8.999 0l1.408 0 0.196 3.326 1.799 -3.326 1.409 0 -2.895 5.087 -0.704 3.717 -1.252 0 0.626 -3.991 -0.587 -4.813zm12.794 0l0.04 0 0.038 0 0.04 0 0.039 0 0.039 0 1.722 0c0.464,0 0.789,0.372 0.704,0.861l-0.431 2.191 -1.056 0 0.235 -1.448c0.052,-0.328 -0.139,-0.587 -0.47,-0.587 -0.327,0 -0.652,0.258 -0.704,0.587l-0.196 1.056c-0.04,0.064 0.053,0.36 0.118,0.392 0.137,0.083 1.526,2.373 1.526,2.543 0.04,0.085 0.039,0.125 0.039,0.157 -0.053,0.287 -0.391,2.23 -0.391,2.23 -0.085,0.446 -0.523,0.822 -0.979,0.822l-1.682 0c-0.456,0 -0.75,-0.376 -0.665,-0.822l0.391 -2.23 1.135 0 -0.274 1.604c-0.052,0.327 0.151,0.626 0.469,0.626 0.327,0 0.64,-0.297 0.705,-0.626l0.234 -1.291c-0.213,-0.541 -1.593,-2.506 -1.682,-2.974 -0.061,-0.052 -0.086,-0.335 -0.079,-0.548 0.013,-0.233 0.314,-1.682 0.314,-1.682l0.039 -0.039 0 -0.04 0 -0.039 0.039 -0.078 0 -0.039 0.039 -0.039 0 -0.039 0.039 -0.04 0 -0.039 0.039 -0.039 0.04 -0.039 0 -0.039 0.038 0 0.04 -0.039 0.039 -0.039 0.039 -0.039 0.039 -0.04 0.039 -0.038 0.039 -0.04 0.039 0 0.04 -0.039 0.039 0 0.039 -0.039 0.039 0 0.078 0 0.039 -0.039zm9.117 0l2.622 0 -0.196 1.056 -0.665 0 -1.37 7.748 -1.291 0 1.369 -7.748 -0.665 0 0.196 -1.056zm10.251 0l2.348 0 -0.196 1.056 -1.213 0 -0.548 2.778 1.253 0 -0.196 0.9 -1.213 0 -0.508 2.974 1.212 0 -0.156 1.096 -2.504 0 1.721 -8.804zm9.665 0l1.447 0 0.236 5.087 2.229 -5.048 1.409 -0.039 -1.487 8.804 -1.095 0 0.704 -4.657 -1.956 4.657 -0.783 0 -0.235 -4.774 -0.86 4.774 -1.292 0 1.683 -8.804zm-210.154 0.313l2.309 0 -0.157 1.095 -1.252 0 -0.508 2.739 1.213 0 -0.157 0.94 -1.252 0 -0.469 2.973 1.213 0 -0.196 1.096 -2.504 0 1.76 -8.843zm10.8 0l1.095 0 0.587 4.617 0.861 -4.617 1.291 0 -1.682 8.843 -1.096 0 -0.43 -5.126 -1.018 5.126 -1.291 0 1.683 -8.843zm11.738 0l2.582 0 -0.156 1.095 -0.665 0 -1.409 7.748 -1.252 0 1.37 -7.748 -0.705 0 0.235 -1.095zm11.386 0l2.348 0 -0.196 1.095 -1.213 0 -0.548 2.739 1.213 0 -0.156 0.94 -1.213 0 -0.509 2.973 1.213 0 -0.157 1.096 -2.504 0 1.722 -8.843zm11.034 0l2.504 0c0.464,0 0.758,0.411 0.665,0.9l-0.587 3.13c-0.064,0.339 -0.659,0.615 -0.978,0.744l0.079 0 0.038 0 0.04 0 0 0.039 0.039 0 0.039 0 0.039 0 0.039 0 0.04 0.038 0.038 0 0.04 0 0.039 0 0 0.04 0.039 0 0.039 0 0 0.039 0.039 0c0.052,0.094 0.079,0.377 0.079,0.43 0,0.052 -0.627,3.483 -0.627,3.483l-1.134 0c0,0 0.605,-3.081 0.626,-3.209 0.012,-0.137 -0.015,-0.302 -0.039,-0.43 -0.008,-0.094 -0.013,-0.256 -0.118,-0.353l-0.782 0 -0.744 3.992 -1.135 0 1.683 -8.843zm11.19 0l2.622 0 -0.157 1.095 -0.665 0 -1.408 7.748 -1.252 0 1.369 -7.748 -0.704 0 0.195 -1.095zm13.03 0l1.487 0 -0.47 8.843 -1.487 0 0.196 -2.035 -0.9 0 -0.743 2.035 -1.33 0 3.247 -8.843zm10.408 0l1.135 0 -1.683 8.843 -1.095 0 1.643 -8.843zm10.095 0l1.095 0 0.587 4.617 0.861 -4.617 1.252 0 -1.643 8.843 -1.135 0 -0.391 -5.126 -1.018 5.126 -1.291 0 1.683 -8.843zm12.951 0l1.448 0 0.234 5.125 2.231 -5.086 1.408 0 -1.487 8.804 -1.095 0 0.704 -4.656 -1.957 4.656 -0.782 0 -0.235 -4.774 -0.861 4.774 -1.252 0 1.644 -8.843zm14.203 0l2.309 0 -0.157 1.095 -1.252 0 -0.509 2.739 1.213 0 -0.156 0.94 -1.252 0 -0.509 2.973 1.252 0 -0.195 1.096 -2.465 0 1.721 -8.843zm11.347 0l1.096 0 0.586 4.617 0.861 -4.617 1.252 0 -1.643 8.843 -1.096 0 -0.43 -5.126 -1.017 5.126 -1.291 0 1.682 -8.843zm11.621 0l2.621 0 -0.195 1.095 -0.666 0 -1.369 7.748 -1.252 0 1.369 -7.748 -0.704 0 0.196 -1.095zm-93.788 1.056c-0.061,0 -0.113,0.036 -0.157,0.079l-0.509 2.66c0,0.021 0,0.017 0,0.039 0,0.085 0.06,0.157 0.157,0.157l0.469 0c0.117,0 0.41,-0.236 0.431,-0.352l0.43 -2.191c0.02,-0.126 -0.196,-0.392 -0.313,-0.392l-0.508 0zm23.163 2.661l-0.822 2.23 0.626 0 0.196 -2.23z"/>
   </g>
   <path class="fil3" d="M346.004 301.351c-2.684,0 -4.027,-1.156 -4.027,-3.467 0,-0.587 0.063,-1.138 0.187,-1.654l0.134 -0.64 2.799 0 -0.213 1.147c-0.053,0.267 -0.08,0.507 -0.08,0.72 0,0.818 0.462,1.227 1.387,1.227 1.209,0 1.813,-0.872 1.813,-2.614 0,-1.12 -0.542,-2.302 -1.626,-3.546 -1.476,-1.672 -2.214,-3.342 -2.214,-5.014 0,-1.582 0.436,-2.862 1.307,-3.84 0.871,-1.013 2.062,-1.52 3.573,-1.52 2.667,0 4,1.147 4,3.44 0,0.409 -0.071,0.969 -0.213,1.68l-0.08 0.347 -2.8 0 0.16 -0.8c0.053,-0.302 0.08,-0.569 0.08,-0.8 0,-0.8 -0.444,-1.2 -1.333,-1.2 -0.569,0 -1,0.222 -1.294,0.667 -0.293,0.444 -0.44,1.031 -0.44,1.759 0,1.067 0.542,2.223 1.627,3.467 1.476,1.742 2.213,3.449 2.213,5.12 0,1.618 -0.444,2.952 -1.333,4 -0.889,1.014 -2.098,1.521 -3.627,1.521zm13.6 -0.267l-8 0 3.974 -18.667 7.999 0 -0.586 2.666 -4.987 0 -1.04 4.934 3.947 0 -0.56 2.667 -3.947 0 -1.227 5.733 4.987 0 -0.56 2.667zm9.334 0l-7.76 0 3.973 -18.667 2.987 0 -3.413 16 4.773 0 -0.56 2.667zm9.413 0l-8 0 3.974 -18.667 7.999 0 -0.586 2.666 -4.987 0 -1.04 4.934 3.947 0 -0.56 2.667 -3.947 0 -1.227 5.733 4.987 0 -0.56 2.667zm6.347 0.267c-1.369,0 -2.413,-0.312 -3.133,-0.934 -0.72,-0.622 -1.081,-1.52 -1.081,-2.693 0,-0.427 0.054,-0.889 0.161,-1.387l2.16 -10.08c0.284,-1.333 0.818,-2.351 1.6,-3.054 0.782,-0.702 1.777,-1.053 2.986,-1.053 1.351,0 2.382,0.311 3.094,0.934 0.711,0.622 1.066,1.511 1.066,2.666 0,0.462 -0.053,0.934 -0.16,1.414l-0.32 1.546 -2.826 0 0.426 -2.026c0.054,-0.214 0.08,-0.418 0.08,-0.614 0,-0.835 -0.471,-1.253 -1.413,-1.253 -0.8,0 -1.325,0.524 -1.573,1.573l-2.24 10.427c-0.054,0.213 -0.08,0.409 -0.08,0.587 0,0.853 0.471,1.28 1.413,1.28 0.889,0 1.431,-0.507 1.627,-1.52l0.586 -2.907 2.8 0 -0.613 2.987c-0.551,2.738 -2.071,4.107 -4.56,4.107zm10.667 -0.267l-2.987 0 3.387 -16.001 -3.067 0 0.587 -2.666 9.12 0 -0.587 2.666 -3.067 0 -3.386 16.001z"/>
   <path class="fil3" d="M450.206 301.35c-2.684,0 -4.027,-1.156 -4.027,-3.467 0,-0.586 0.062,-1.137 0.187,-1.653l0.133 -0.64 2.8 0 -0.213 1.146c-0.053,0.267 -0.08,0.507 -0.08,0.72 0,0.818 0.462,1.227 1.386,1.227 1.21,0 1.814,-0.871 1.814,-2.613 0,-1.12 -0.543,-2.302 -1.627,-3.547 -1.475,-1.671 -2.213,-3.342 -2.213,-5.013 0,-1.582 0.435,-2.862 1.306,-3.84 0.872,-1.013 2.063,-1.52 3.574,-1.52 2.666,0 4,1.146 4,3.44 0,0.409 -0.071,0.969 -0.213,1.68l-0.08 0.346 -2.8 0 0.16 -0.799c0.053,-0.303 0.08,-0.569 0.08,-0.8 0,-0.801 -0.445,-1.2 -1.334,-1.2 -0.569,0 -1,0.222 -1.293,0.666 -0.293,0.445 -0.44,1.031 -0.44,1.76 0,1.067 0.542,2.222 1.627,3.467 1.475,1.742 2.213,3.449 2.213,5.12 0,1.618 -0.444,2.951 -1.333,4 -0.889,1.013 -2.098,1.52 -3.627,1.52zm40.96 -0.267l-2.987 0 3.387 -16 -3.067 0 0.587 -2.666 9.12 0 -0.587 2.666 -3.067 0 -3.386 16zm-30.08 0l-2.987 0 3.387 -16 -3.067 0 0.587 -2.666 9.12 0 -0.587 2.666 -3.067 0 -3.386 16zm2.48 0l7.013 -18.666 4.053 0 -0.933 18.666 -2.987 0 0.267 -3.653 -3.307 0 -1.28 3.653 -2.826 0zm8.24 -15.28l-3.227 9.094 2.56 0 0.667 -9.094zm6.267 15.28l-2.987 0 3.973 -18.666 4.294 0c1.173,0 2.066,0.271 2.68,0.813 0.613,0.542 0.92,1.338 0.92,2.387 0,0.426 -0.054,0.906 -0.16,1.44l-0.187 0.906c-0.231,1.138 -0.564,2.005 -1,2.6 -0.435,0.596 -1.027,0.991 -1.773,1.187l0 0.027c0.906,0.302 1.359,1.075 1.359,2.319 0,0.552 -0.062,1.067 -0.186,1.547l-0.693 3.28c-0.178,0.836 -0.267,1.396 -0.267,1.68 0,0.036 0.018,0.196 0.053,0.48l-2.906 0c-0.036,-0.426 -0.054,-0.657 -0.054,-0.693 0,-0.391 0.08,-0.96 0.24,-1.707l0.72 -3.413c0.107,-0.462 0.16,-0.836 0.16,-1.12 0,-0.409 -0.102,-0.689 -0.306,-0.84 -0.205,-0.151 -0.574,-0.227 -1.107,-0.227l-1.067 0 -1.706 8zm3.413 -16l-1.147 5.334 0.88 0c1.209,0 1.974,-0.694 2.293,-2.081l0.321 -1.44c0.071,-0.266 0.106,-0.551 0.106,-0.853 0,-0.64 -0.373,-0.96 -1.12,-0.96l-1.333 0z"/>
  </g>
  <g id="shield">
   <path class="fil5 str0" d="M714.393 37.303c-91.759,0 -166.145,74.386 -166.145,166.145 0,91.759 74.386,166.145 166.145,166.145 91.759,0 166.145,-74.386 166.145,-166.145 0,-91.759 -74.386,-166.145 -166.145,-166.145zm-27.515 62.713c19.458,-14.663 47.12,-10.776 61.783,8.683 14.664,19.459 10.776,47.122 -8.683,61.784l-88.979 67.05c-19.459,14.662 -47.121,10.776 -61.784,-8.683 -14.664,-19.459 -10.776,-47.121 8.683,-61.784l88.98 -67.05zm88.979 67.05c19.459,-14.663 47.121,-10.776 61.784,8.683 14.663,19.459 10.775,47.121 -8.683,61.784l-88.98 67.049c-19.458,14.663 -47.12,10.776 -61.784,-8.683 -14.663,-19.459 -10.775,-47.121 8.684,-61.784l88.979 -67.049z"/>
   <polygon class="fil0" points="571.681,255.49 562.907,242.837 569.623,242.837 574.756,251.13 579.938,242.837 586.423,242.837 577.645,255.49 577.645,261.508 571.681,261.508 "/>
   <polygon class="fil0" points="782.231,89.402 790.315,98.855 783.386,98.855 778.533,92.775 773.635,98.855 766.88,98.855 774.991,89.518 767.097,80.184 773.817,80.184 778.675,86.211 783.609,80.184 790.093,80.184 "/>
   <path class="fil0" d="M647.625 321.52l0 3.631 5.391 0c1.702,0 2.551,-0.605 2.551,-1.809 0,-1.218 -0.849,-1.822 -2.551,-1.822l-5.391 0zm7.28 -11.134c1.778,0 3.182,0.414 4.205,1.236 1.026,0.826 1.537,2.062 1.537,3.711 0,0.826 -0.124,1.498 -0.364,2.013 -0.245,0.516 -0.529,0.925 -0.854,1.223 -0.324,0.297 -0.653,0.515 -0.977,0.644 -0.325,0.129 -0.574,0.218 -0.747,0.262 0.338,0.049 0.724,0.16 1.164,0.329 0.441,0.174 0.854,0.44 1.249,0.805 0.396,0.364 0.729,0.826 1.005,1.391 0.271,0.564 0.409,1.266 0.409,2.111 0,1.595 -0.542,2.817 -1.627,3.671 -1.084,0.849 -2.551,1.275 -4.4,1.275l-13.845 0 0 -18.671 13.245 0zm-2.684 7.303c0.835,0 1.453,-0.134 1.857,-0.401 0.405,-0.271 0.605,-0.711 0.605,-1.315 0,-0.6 -0.2,-1.035 -0.605,-1.311 -0.404,-0.271 -1.022,-0.409 -1.857,-0.409l-4.596 0 0 3.436 4.596 0z"/>
   <path class="fil0" d="M851.223 153.832l-8.893 18.671 6.24 0 1.777 -3.861 8.633 0 1.777 3.861 6.093 0 -8.893 -18.671 -6.734 0zm0.887 10.979l2.553 -5.548 2.553 5.548 -5.106 0z"/>
  </g>
  <g id="holes">
   <path class="fil6" d="M162.813 130.604c0,-4.966 4.115,-9.081 9.08,-9.081l43.705 0c5.001,0 8.803,4.16 8.803,9.08l0 37.629c0,2.478 2.195,4.407 4.397,4.422l37.654 0c4.92,0 9.081,3.802 9.081,8.804l-0.001 43.704c0,4.965 -4.115,9.08 -9.08,9.08l-37.6 0 -0.028 0c-2.211,0 -4.423,1.935 -4.423,4.423l0 37.628c0,4.921 -3.802,9.081 -8.803,9.081l-43.705 -0.001c-4.965,0 -9.08,-4.114 -9.08,-9.08l0 -37.629c0,-2.478 -1.92,-4.407 -4.393,-4.422l-37.658 0c-4.965,0 -9.08,-4.115 -9.08,-9.08l0 -43.704c0,-5.002 4.16,-8.804 9.08,-8.804l37.658 0c2.473,-0.015 4.393,-1.944 4.393,-4.422l0 -37.628z"/>
   <path class="fil6" d="M382.995 209.354c5.881,-4.431 14.241,-3.257 18.674,2.624 4.432,5.882 3.256,14.242 -2.625,18.674l-39.842 30.021c-5.881,4.432 -14.241,3.258 -18.673,-2.624 -4.432,-5.881 -3.257,-14.242 2.625,-18.674l39.841 -30.021z"/>
   <path class="fil6" d="M482.998 209.354c5.881,-4.431 14.241,-3.257 18.673,2.624 4.432,5.882 3.257,14.242 -2.624,18.674l-39.842 30.021c-5.882,4.432 -14.241,3.258 -18.674,-2.624 -4.432,-5.881 -3.256,-14.242 2.625,-18.674l39.842 -30.021z"/>
   <circle class="fil6" cx="624.448" cy="202.299" r="36.12"/>
   <circle class="fil6" cx="713.428" cy="135.25" r="36.12"/>
   <circle class="fil6" cx="713.428" cy="269.349" r="36.12"/>
   <circle class="fil6" cx="802.408" cy="202.299" r="36.12"/>
  </g>
  <g id="dpad">
   <path class="fil7" d="M262.841 179.265l-40.628 0c-2.487,0 -4.422,-1.935 -4.422,-4.422l0 -40.629c0,-3.316 -2.764,-6.08 -5.804,-6.08l-36.483 0c-3.317,0 -6.081,2.764 -6.081,6.08l0 40.629c0,2.487 -1.934,4.422 -4.422,4.422l-40.628 0c-3.317,0 -6.081,2.764 -6.081,6.08l0 36.483c0,3.316 2.764,5.804 6.081,5.804l40.628 0c2.488,0 4.422,2.211 4.422,4.422l0 40.905c0,3.317 2.764,5.804 6.081,5.804l36.483 0c3.04,0 5.804,-2.487 5.804,-5.804l0 -40.905c0,-2.211 1.935,-4.422 4.422,-4.422l40.628 0c3.317,0 6.081,-2.488 6.081,-5.804l0 -36.483c0,-3.316 -2.764,-6.08 -6.081,-6.08z"/>
   <path class="fil8" d="M211.876 203.313c0,-10.088 -8.181,-18.269 -18.269,-18.269 -10.088,0 -18.54,8.181 -18.54,18.269 0,10.088 8.452,18.54 18.54,18.54 10.088,0 18.269,-8.452 18.269,-18.54zm-54.661 0.135l0 11.366c0,1.933 -1.567,3.5 -3.5,3.5 -0.647,0 -1.253,-0.175 -1.773,-0.482l-22.75 -11.253c-1.232,-0.608 -1.946,-1.845 -1.947,-3.131 0.001,-1.286 0.715,-2.523 1.947,-3.131l22.75 -11.253c0.52,-0.306 1.126,-0.482 1.773,-0.482 1.933,0 3.5,1.568 3.5,3.5l0 11.366zm36.392 36.392l-11.366 0c-1.933,0 -3.5,1.568 -3.5,3.5 0,0.647 0.176,1.253 0.482,1.773l11.253 22.751c0.608,1.231 1.845,1.946 3.131,1.946 1.286,0 2.523,-0.715 3.131,-1.946l11.253 -22.751c0.306,-0.52 0.482,-1.126 0.482,-1.773 0,-1.932 -1.567,-3.5 -3.5,-3.5l-11.366 0zm36.392 -36.392l0 11.366c0,1.933 1.567,3.5 3.5,3.5 0.647,0 1.253,-0.175 1.773,-0.482l22.75 -11.253c1.232,-0.608 1.946,-1.845 1.947,-3.131 -0.001,-1.286 -0.715,-2.523 -1.947,-3.131l-22.75 -11.253c-0.52,-0.306 -1.126,-0.482 -1.773,-0.482 -1.933,0 -3.5,1.568 -3.5,3.5l0 11.366zm-36.392 -36.392l-11.366 0c-1.933,0 -3.5,-1.567 -3.5,-3.5 0,-0.647 0.176,-1.252 0.482,-1.773l11.253 -22.75c0.608,-1.232 1.845,-1.946 3.131,-1.947 1.286,0.001 2.523,0.715 3.131,1.947l11.253 22.75c0.306,0.521 0.482,1.126 0.482,1.773 0,1.933 -1.567,3.5 -3.5,3.5l-11.366 0z"/>
  </g>
 </g>
</svg>
