<?xml version="1.0" encoding="UTF-8"?>
<!DOCTYPE svg PUBLIC "-//W3C//DTD SVG 1.1//EN" "http://www.w3.org/Graphics/SVG/1.1/DTD/svg11.dtd">
<svg xml:space="preserve" viewBox="0 0 908 396" width="908px" height="396px" version="1.1" style="shape-rendering:geometricPrecision; fill-rule:evenodd; clip-rule:evenodd" xmlns="http://www.w3.org/2000/svg">
 <defs>
  <style type="text/css">
    .fil0 {fill:red}
    .fil1 {fill:white}
  </style>
 </defs>
 <g>
  <path class="fil0" d="M606.638 13.843l-305.276 0 0 -5c0,-3.304 -2.695,-6 -6,-6l-101.755 0c-28.781,0 -56.141,6.071 -80.883,16.987 -2.965,1.308 -4.771,4.079 -4.771,7.319l0 7.107c-61.678,31.287 -103.951,95.301 -103.951,169.192 0,104.715 84.89,189.605 189.605,189.605 41.59,0 80.049,-13.396 111.306,-36.103 8.912,-6.474 18.372,-9.547 29.387,-9.547l239.4 0c11.015,0 20.475,3.073 29.387,9.547 31.257,22.707 69.716,36.103 111.306,36.103 104.715,0 189.605,-84.89 189.605,-189.605 0,-73.891 -42.274,-137.905 -103.952,-169.192l0 -7.107c0,-3.24 -1.805,-6.011 -4.77,-7.319 -24.742,-10.916 -52.102,-16.987 -80.883,-16.987l-101.756 0c-3.304,0 -5.999,2.696 -5.999,6l0 5z"/>
  <path class="fil1" d="M454 92.999c55.23,0 100,44.771 100,100.001 0,55.23 -44.77,100 -100,100 -55.23,0 -100,-44.77 -100,-100 0,-55.23 44.77,-100.001 100,-100.001zm12.475 105.032c1.823,1.826 1.823,4.805 0,6.629l-9.338 9.337 3.94 3.938c1.391,1.396 1.391,3.656 0,5.053l-9.26 9.255c-8.173,8.173 -20.399,9.814 -30.205,4.929l-20.347 20.35c14.364,11.757 32.723,18.813 52.735,18.813 46.024,0 83.335,-37.311 83.335,-83.335 0,-20.012 -7.056,-38.371 -18.812,-52.736l-20.334 20.334c4.887,9.801 3.246,22.034 -4.927,30.207l-9.26 9.26c-1.391,1.394 -3.652,1.394 -5.048,0l-31.986 -31.991c-1.399,-1.391 -1.399,-3.654 0,-5.048l9.255 -9.26c8.164,-8.161 20.371,-9.812 30.167,-4.946l20.345 -20.345c-14.364,-11.757 -32.725,-18.81 -52.735,-18.81 -46.024,0 -83.335,37.31 -83.335,83.335 0,20.01 7.054,38.371 18.81,52.735l20.359 -20.357c-4.865,-9.798 -3.217,-22.011 4.945,-30.17l9.259 -9.259c1.396,-1.397 3.657,-1.397 5.048,0l3.919 3.916 9.338 -9.337c1.823,-1.824 4.807,-1.824 6.63,0 1.824,1.826 1.824,4.804 0,6.628l-9.337 9.338 10.87 10.875 9.338 -9.338c1.824,-1.823 4.807,-1.823 6.631,0z"/>
 </g>
</svg>
