<?xml version="1.0" encoding="UTF-8"?>
<!DOCTYPE svg PUBLIC "-//W3C//DTD SVG 1.1//EN" "http://www.w3.org/Graphics/SVG/1.1/DTD/svg11.dtd">
<svg xml:space="preserve" viewBox="0 0 908 396" width="908px" height="396px" version="1.1" style="shape-rendering:geometricPrecision; fill-rule:evenodd; clip-rule:evenodd" xmlns="http://www.w3.org/2000/svg">
 <defs>
  <style type="text/css">
    .fil1 {fill:#E00000}
    .fil0 {fill:red}
  </style>
 </defs>
 <g>
  <path class="fil0" d="M219.088 177.967c-0.796,-0.795 -1.279,-1.901 -1.279,-3.146l0 -40.658c0,-3.319 -2.767,-6.085 -5.809,-6.085l-36.509 0c-3.319,0 -6.085,2.766 -6.085,6.085l0 40.658c0,1.245 -0.484,2.351 -1.279,3.146l25.48 25.481 25.481 -25.481z"/>
  <path class="fil1" d="M206.67 190.385c-3.309,-3.309 -7.88,-5.355 -12.927,-5.355 -5.082,0 -9.749,2.075 -13.131,5.423l12.995 12.995 13.063 -13.063zm-12.927 -23.329l-11.366 0c-1.933,0 -3.5,-1.567 -3.5,-3.5 0,-0.647 0.176,-1.253 0.482,-1.773l11.253 -22.75c0.608,-1.232 1.845,-1.946 3.131,-1.947 1.286,0.001 2.523,0.715 3.131,1.947l11.253 22.75c0.306,0.52 0.482,1.126 0.482,1.773 0,1.933 -1.568,3.5 -3.5,3.5l-11.366 0z"/>
 </g>
</svg>
