<?xml version="1.0" encoding="UTF-8"?>
<!DOCTYPE svg PUBLIC "-//W3C//DTD SVG 1.1//EN" "http://www.w3.org/Graphics/SVG/1.1/DTD/svg11.dtd">
<svg xml:space="preserve" viewBox="0 0 908 396" width="908px" height="396px" version="1.1" style="shape-rendering:geometricPrecision; fill-rule:evenodd; clip-rule:evenodd" xmlns="http://www.w3.org/2000/svg">
 <defs>
  <style type="text/css">
    .fil1 {fill:#E00000}
    .fil0 {fill:red}
  </style>
 </defs>
 <g>
  <path class="fil0" d="M168.127 177.967c-0.796,0.796 -1.902,1.279 -3.147,1.279l-40.658 0c-3.319,0 -6.085,2.767 -6.085,6.085l0 36.51c0,3.319 2.766,5.808 6.085,5.808l40.658 0c1.219,0 2.304,0.53 3.095,1.331l25.532 -25.532 -25.48 -25.481z"/>
  <path class="fil1" d="M180.612 190.453c-3.337,3.304 -5.423,7.846 -5.423,12.859 0,5.048 2.115,9.686 5.491,13.063l12.927 -12.927 -12.995 -12.995zm-23.261 12.995l0 11.366c0,1.933 -1.568,3.5 -3.5,3.5 -0.647,0 -1.253,-0.176 -1.773,-0.482l-22.75 -11.253c-1.232,-0.608 -1.947,-1.845 -1.947,-3.131 0,-1.286 0.715,-2.523 1.947,-3.131l22.75 -11.253c0.52,-0.306 1.126,-0.482 1.773,-0.482 1.932,0 3.5,1.567 3.5,3.5l0 11.366z"/>
 </g>
</svg>
