<?xml version="1.0" encoding="UTF-8"?>
<!DOCTYPE svg PUBLIC "-//W3C//DTD SVG 1.1//EN" "http://www.w3.org/Graphics/SVG/1.1/DTD/svg11.dtd">
<svg xml:space="preserve" viewBox="0 0 908 396" width="908px" height="396px" version="1.1" style="shape-rendering:geometricPrecision; fill-rule:evenodd; clip-rule:evenodd" xmlns="http://www.w3.org/2000/svg">
 <defs>
  <style type="text/css">
    .fil1 {fill:#E00000}
    .fil0 {fill:red}
  </style>
 </defs>
 <g>
  <path class="fil0" d="M262.892 179.246l-40.658 0c-1.245,0 -2.351,-0.483 -3.146,-1.279l-25.481 25.481 25.532 25.532c0.791,-0.801 1.876,-1.331 3.095,-1.331l40.658 0c3.319,0 6.085,-2.489 6.085,-5.808l0 -36.51c0,-3.318 -2.766,-6.085 -6.085,-6.085z"/>
  <path class="fil1" d="M212.025 203.312c0,-5.047 -2.046,-9.618 -5.355,-12.927l-13.063 13.063 12.995 12.995c3.348,-3.382 5.423,-8.049 5.423,-13.131zm18.11 0.136l0 11.366c0,1.933 1.567,3.5 3.5,3.5 0.647,0 1.252,-0.176 1.773,-0.482l22.75 -11.253c1.232,-0.608 1.946,-1.845 1.947,-3.131 -0.001,-1.286 -0.715,-2.523 -1.947,-3.131l-22.75 -11.253c-0.521,-0.306 -1.126,-0.482 -1.773,-0.482 -1.933,0 -3.5,1.567 -3.5,3.5l0 11.366z"/>
 </g>
</svg>
