<?xml version="1.0" encoding="UTF-8"?>
<!DOCTYPE svg PUBLIC "-//W3C//DTD SVG 1.1//EN" "http://www.w3.org/Graphics/SVG/1.1/DTD/svg11.dtd">
<svg xml:space="preserve" viewBox="0 0 1060 720" width="1060px" height="720px" version="1.1" style="shape-rendering:geometricPrecision; fill-rule:evenodd; clip-rule:evenodd" xmlns="http://www.w3.org/2000/svg">
 <defs>
  <style type="text/css">
    .fil0 {fill:red}
    .fil1 {fill:white}
  </style>
 </defs>
 <g>
  <path class="fil0" d="M1047.796 0.945c6.244,0 11.338,5.093 11.338,11.338l0 695.433c0,6.245 -5.094,11.339 -11.338,11.339l-1035.592 0c-6.244,0 -11.338,-5.094 -11.338,-11.339l0 -695.433c0,-6.245 5.094,-11.338 11.338,-11.338l1035.592 0z"/>
  <path class="fil1" d="M530 240c66.276,0 120,53.724 120,120 0,66.275 -53.724,119.999 -120,119.999 -66.276,0 -120,-53.724 -120,-119.999 0,-66.276 53.724,-120 120,-120zm14.97 126.038c2.188,2.191 2.188,5.765 0,7.953l-11.206 11.205 4.729 4.726c1.669,1.675 1.669,4.388 0,6.063l-11.112 11.106c-9.808,9.808 -24.48,11.778 -36.246,5.916l-24.417 24.42c17.237,14.108 39.267,22.575 63.282,22.575 55.229,0 100.001,-44.773 100.001,-100.002 0,-24.015 -8.466,-46.045 -22.574,-63.282l-24.4 24.4c5.864,11.76 3.895,26.441 -5.913,36.249l-11.112 11.111c-1.67,1.672 -4.382,1.672 -6.057,0l-38.384 -38.389c-1.678,-1.669 -1.678,-4.385 0,-6.057l11.106 -11.112c9.797,-9.793 24.446,-11.775 36.201,-5.936l24.414 -24.414c-17.237,-14.108 -39.27,-22.572 -63.282,-22.572 -55.229,0 -100.001,44.773 -100.001,100.002 0,24.012 8.463,46.045 22.571,63.282l24.432 -24.428c-5.84,-11.758 -3.861,-26.413 5.932,-36.204l11.112 -11.111c1.675,-1.676 4.388,-1.676 6.058,0l4.702 4.699 11.205 -11.205c2.189,-2.188 5.769,-2.188 7.957,0 2.188,2.191 2.188,5.766 0,7.954l-11.205 11.205 13.045 13.051 11.205 -11.205c2.188,-2.189 5.768,-2.189 7.957,0z"/>
 </g>
</svg>
