<?xml version="1.0" encoding="UTF-8"?>
<!DOCTYPE svg PUBLIC "-//W3C//DTD SVG 1.1//EN" "http://www.w3.org/Graphics/SVG/1.1/DTD/svg11.dtd">
<svg xml:space="preserve" viewBox="0 0 1060 720" width="1060px" height="720px" version="1.1" style="shape-rendering:geometricPrecision; fill-rule:evenodd; clip-rule:evenodd" xmlns="http://www.w3.org/2000/svg">
 <defs>
  <style type="text/css">
    .fil1 {fill:#080808}
    .fil0 {fill:#1A1A1A}
    .fil5 {fill:black;fill-opacity:0.1}
    .fil4 {fill:white;fill-opacity:0.6}
    .fil3 {fill:url(#id0)}
    .fil2 {fill:url(#id1)}
  </style>
  <linearGradient id="id0" gradientUnits="userSpaceOnUse" x1="141.011" y1="356.366" x2="161.553" y2="472.868">
   <stop offset="0" style="stop-opacity:1; stop-color:#F24540"/>
   <stop offset="0.4" style="stop-opacity:1; stop-color:#CD150F"/>
   <stop offset="1" style="stop-opacity:1; stop-color:#680B08"/>
  </linearGradient>
  <linearGradient id="id1" gradientUnits="userSpaceOnUse" x1="190.431" y1="394.617" x2="190.431" y2="434.617">
   <stop offset="0" style="stop-opacity:1; stop-color:#B3B3B3"/>
   <stop offset="0.3" style="stop-opacity:1; stop-color:#676767"/>
   <stop offset="0.65" style="stop-opacity:1; stop-color:#1A1A1A"/>
   <stop offset="0.8588" style="stop-opacity:1; stop-color:#595959"/>
   <stop offset="1" style="stop-opacity:1; stop-color:#999999"/>
  </linearGradient>
 </defs>
 <g>
  <circle class="fil0" cx="210.432" cy="414.617" r="64.252"/>
  <circle class="fil1" cx="210.432" cy="414.617" r="20.787"/>
  <path class="fil2" d="M170.431 434.617c-11.044,0 -20,-8.954 -20,-20 0,-11.046 8.955,-20 20,-20l40 0c11.046,0 20,8.954 20,20 0,11.046 -8.954,20 -20,20l-40 0z"/>
  <path class="fil3" d="M151.282 355.467c32.667,0 59.15,26.483 59.15,59.15 0,32.666 -26.483,59.149 -59.15,59.149 -32.666,0 -59.149,-26.483 -59.149,-59.149 0,-32.667 26.483,-59.15 59.149,-59.15z"/>
  <path class="fil4" d="M153.46 367.023c-0.936,-3.062 -7.617,-3.737 -14.922,-1.507 -7.306,2.23 -12.47,6.519 -11.535,9.582 0.936,3.061 7.617,3.736 14.922,1.506 7.306,-2.229 12.471,-6.519 11.535,-9.581z"/>
  <path class="fil5" d="M201.143 421.64c-13.156,19.345 -35.069,30.942 -58.484,30.942 -14.237,0 -28.146,-4.298 -39.897,-12.322 -2.435,-1.688 -4.797,-3.523 -7.033,-5.46 8.455,23.421 30.7,39.031 55.615,39.031 32.645,0 59.119,-26.459 59.119,-59.086 0,-3.325 -0.289,-6.665 -0.845,-9.94 -2.073,5.947 -4.935,11.63 -8.475,16.837l0 -0.002z"/>
 </g>
</svg>
