<?xml version="1.0" encoding="UTF-8"?>
<!DOCTYPE svg PUBLIC "-//W3C//DTD SVG 1.1//EN" "http://www.w3.org/Graphics/SVG/1.1/DTD/svg11.dtd">
<svg xml:space="preserve" viewBox="0 0 1060 720" width="1060px" height="720px" version="1.1" style="shape-rendering:geometricPrecision; fill-rule:evenodd; clip-rule:evenodd" xmlns="http://www.w3.org/2000/svg">
 <defs>
  <style type="text/css">
    .fil1 {fill:#080808}
    .fil0 {fill:#1A1A1A}
    .fil5 {fill:black;fill-opacity:0.1}
    .fil4 {fill:white;fill-opacity:0.6}
    .fil3 {fill:url(#id0)}
    .fil2 {fill:url(#id1)}
  </style>
  <linearGradient id="id0" gradientUnits="userSpaceOnUse" x1="268.194" y1="303.333" x2="288.736" y2="419.835">
   <stop offset="0" style="stop-opacity:1; stop-color:#F24540"/>
   <stop offset="0.4" style="stop-opacity:1; stop-color:#CD150F"/>
   <stop offset="1" style="stop-opacity:1; stop-color:#680B08"/>
  </linearGradient>
  <linearGradient id="id1" gradientUnits="userSpaceOnUse" x1="236.038" y1="375.726" x2="264.323" y2="404.011">
   <stop offset="0" style="stop-opacity:1; stop-color:#B3B3B3"/>
   <stop offset="0.3" style="stop-opacity:1; stop-color:#676767"/>
   <stop offset="0.65" style="stop-opacity:1; stop-color:#1A1A1A"/>
   <stop offset="0.8588" style="stop-opacity:1; stop-color:#595959"/>
   <stop offset="1" style="stop-opacity:1; stop-color:#999999"/>
  </linearGradient>
 </defs>
 <g>
  <circle class="fil0" cx="236.038" cy="404.011" r="64.252"/>
  <circle class="fil1" cx="236.038" cy="404.011" r="20.787"/>
  <path class="fil2" d="M250.181 418.152c-7.81,7.81 -20.474,7.811 -28.285,0.001 -7.81,-7.811 -7.81,-20.474 0,-28.285l28.285 -28.284c7.81,-7.811 20.473,-7.81 28.284,0 7.811,7.811 7.81,20.474 0,28.284l-28.284 28.284z"/>
  <path class="fil3" d="M278.465 302.435c32.667,0 59.15,26.482 59.15,59.149 0,32.667 -26.483,59.149 -59.15,59.149 -32.666,0 -59.149,-26.482 -59.149,-59.149 0,-32.667 26.483,-59.149 59.149,-59.149z"/>
  <path class="fil4" d="M280.643 313.99c-0.936,-3.061 -7.617,-3.736 -14.922,-1.507 -7.306,2.23 -12.47,6.519 -11.535,9.582 0.936,3.061 7.617,3.736 14.923,1.507 7.305,-2.23 12.47,-6.52 11.534,-9.582z"/>
  <path class="fil5" d="M328.326 368.607c-13.156,19.345 -35.069,30.942 -58.483,30.942 -14.238,0 -28.147,-4.298 -39.898,-12.322 -2.435,-1.688 -4.797,-3.522 -7.033,-5.46 8.455,23.421 30.7,39.031 55.615,39.031 32.645,0 59.119,-26.459 59.119,-59.086 0,-3.325 -0.289,-6.665 -0.845,-9.94 -2.073,5.947 -4.935,11.631 -8.475,16.837l0 -0.002z"/>
 </g>
</svg>
