<?xml version="1.0" encoding="UTF-8"?>
<!DOCTYPE svg PUBLIC "-//W3C//DTD SVG 1.1//EN" "http://www.w3.org/Graphics/SVG/1.1/DTD/svg11.dtd">
<!-- Creator: CorelDRAW -->
<svg xmlns="http://www.w3.org/2000/svg" xml:space="preserve" width="1060px" height="720px" version="1.1" style="shape-rendering:geometricPrecision; text-rendering:geometricPrecision; image-rendering:optimizeQuality; fill-rule:evenodd; clip-rule:evenodd"
viewBox="0 0 1060 720"
 xmlns:xlink="http://www.w3.org/1999/xlink"
 xmlns:xodm="http://www.corel.com/coreldraw/odm/2003">
 <defs>
  <style type="text/css">
   <![CDATA[
    .str0 {stroke:#E6E6E6;stroke-width:4;stroke-miterlimit:22.9256}
    .fil2 {fill:none}
    .fil0 {fill:#1A1A1A}
    .fil6 {fill:#4D4D4D}
    .fil1 {fill:#B0140C}
    .fil3 {fill:#E6E6E6}
    .fil9 {fill:#6A1616}
    .fil12 {fill:#585818}
    .fil15 {fill:#103C1E}
    .fil18 {fill:#152E51}
    .fil33 {fill:black;fill-opacity:0.101961}
    .fil32 {fill:white;fill-opacity:0.600000}
    .fil31 {fill:url(#id0)}
    .fil19 {fill:url(#id1)}
    .fil4 {fill:url(#id2)}
    .fil7 {fill:url(#id3)}
    .fil10 {fill:url(#id4)}
    .fil13 {fill:url(#id5)}
    .fil16 {fill:url(#id6)}
    .fil20 {fill:url(#id7)}
    .fil24 {fill:url(#id8)}
    .fil30 {fill:url(#id9)}
    .fil21 {fill:url(#id10)}
    .fil23 {fill:url(#id11)}
    .fil25 {fill:url(#id12)}
    .fil27 {fill:url(#id13)}
    .fil29 {fill:url(#id14)}
    .fil5 {fill:url(#id15)}
    .fil8 {fill:url(#id16)}
    .fil11 {fill:url(#id17)}
    .fil14 {fill:url(#id18)}
    .fil17 {fill:url(#id19)}
    .fil22 {fill:url(#id20)}
    .fil26 {fill:url(#id21)}
    .fil28 {fill:url(#id22)}
   ]]>
  </style>
  <linearGradient id="id0" gradientUnits="userSpaceOnUse" x1="215.161" y1="356.366" x2="235.703" y2="472.868">
   <stop offset="0" style="stop-opacity:1; stop-color:#F24540"/>
   <stop offset="0.4" style="stop-opacity:1; stop-color:#CD150F"/>
   <stop offset="1" style="stop-opacity:1; stop-color:#680B08"/>
  </linearGradient>
  <linearGradient id="id1" gradientUnits="userSpaceOnUse" x1="424.091" y1="53.037" x2="435.905" y2="120.034">
   <stop offset="0" style="stop-opacity:1; stop-color:white"/>
   <stop offset="0.4" style="stop-opacity:1; stop-color:#CCCCCC"/>
   <stop offset="1" style="stop-opacity:1; stop-color:#999999"/>
  </linearGradient>
  <linearGradient id="id2" gradientUnits="objectBoundingBox" xlink:href="#id1" x1="42.1859%" y1="5.68354%" x2="57.8144%" y2="94.3165%">
  </linearGradient>
  <linearGradient id="id3" gradientUnits="userSpaceOnUse" x1="541.638" y1="367.719" x2="558.178" y2="461.515">
   <stop offset="0" style="stop-opacity:1; stop-color:#F5ADA3"/>
   <stop offset="0.4" style="stop-opacity:1; stop-color:#C92C27"/>
   <stop offset="1" style="stop-opacity:1; stop-color:#881F1C"/>
  </linearGradient>
  <linearGradient id="id4" gradientUnits="userSpaceOnUse" x1="657.499" y1="232.834" x2="674.038" y2="326.63">
   <stop offset="0" style="stop-opacity:1; stop-color:#F1F1C1"/>
   <stop offset="0.4" style="stop-opacity:1; stop-color:#CDCD33"/>
   <stop offset="1" style="stop-opacity:1; stop-color:#929226"/>
  </linearGradient>
  <linearGradient id="id5" gradientUnits="userSpaceOnUse" x1="780.886" y1="232.833" x2="797.426" y2="326.63">
   <stop offset="0" style="stop-opacity:1; stop-color:#A9EFC0"/>
   <stop offset="0.4" style="stop-opacity:1; stop-color:#2EAE58"/>
   <stop offset="1" style="stop-opacity:1; stop-color:#1E7039"/>
  </linearGradient>
  <linearGradient id="id6" gradientUnits="userSpaceOnUse" x1="904.273" y1="232.834" x2="920.812" y2="326.63">
   <stop offset="0" style="stop-opacity:1; stop-color:#C8DAF4"/>
   <stop offset="0.4" style="stop-opacity:1; stop-color:#5184CD"/>
   <stop offset="1" style="stop-opacity:1; stop-color:#24508E"/>
  </linearGradient>
  <linearGradient id="id7" gradientUnits="userSpaceOnUse" x1="424.091" y1="53.036" x2="435.904" y2="120.034">
   <stop offset="0" style="stop-opacity:1; stop-color:#E6E6E6"/>
   <stop offset="0.4" style="stop-opacity:1; stop-color:#CCCCCC"/>
   <stop offset="1" style="stop-opacity:1; stop-color:#B3B3B3"/>
  </linearGradient>
  <linearGradient id="id8" gradientUnits="userSpaceOnUse" x1="544.001" y1="381.118" x2="555.814" y2="448.116">
   <stop offset="0" style="stop-opacity:1; stop-color:#D83B36"/>
   <stop offset="0.4" style="stop-opacity:1; stop-color:#C92C27"/>
   <stop offset="1" style="stop-opacity:1; stop-color:#9B2521"/>
  </linearGradient>
  <linearGradient id="id9" gradientUnits="userSpaceOnUse" x1="906.635" y1="246.233" x2="918.449" y2="313.231">
   <stop offset="0" style="stop-opacity:1; stop-color:#7DA5DD"/>
   <stop offset="0.4" style="stop-opacity:1; stop-color:#5184CD"/>
   <stop offset="1" style="stop-opacity:1; stop-color:#3161A5"/>
  </linearGradient>
  <linearGradient id="id10" gradientUnits="userSpaceOnUse" xlink:href="#id1" x1="624.096" y1="53.037" x2="635.91" y2="120.034">
  </linearGradient>
  <linearGradient id="id11" gradientUnits="userSpaceOnUse" xlink:href="#id3" x1="544.001" y1="381.118" x2="555.815" y2="448.115">
  </linearGradient>
  <linearGradient id="id12" gradientUnits="userSpaceOnUse" xlink:href="#id4" x1="659.862" y1="246.233" x2="671.675" y2="313.23">
  </linearGradient>
  <linearGradient id="id13" gradientUnits="userSpaceOnUse" xlink:href="#id5" x1="783.249" y1="246.233" x2="795.063" y2="313.23">
  </linearGradient>
  <linearGradient id="id14" gradientUnits="userSpaceOnUse" xlink:href="#id6" x1="906.636" y1="246.233" x2="918.449" y2="313.23">
  </linearGradient>
  <linearGradient id="id15" gradientUnits="objectBoundingBox" xlink:href="#id7" x1="41.3177%" y1="0.75948%" x2="58.6826%" y2="99.2405%">
  </linearGradient>
  <linearGradient id="id16" gradientUnits="userSpaceOnUse" xlink:href="#id8" x1="541.376" y1="366.229" x2="558.439" y2="463.004">
  </linearGradient>
  <linearGradient id="id17" gradientUnits="userSpaceOnUse" x1="657.236" y1="231.344" x2="674.3" y2="328.119">
   <stop offset="0" style="stop-opacity:1; stop-color:#D8D85A"/>
   <stop offset="0.4" style="stop-opacity:1; stop-color:#CDCD33"/>
   <stop offset="1" style="stop-opacity:1; stop-color:#A8A82A"/>
  </linearGradient>
  <linearGradient id="id18" gradientUnits="userSpaceOnUse" x1="780.624" y1="231.344" x2="797.687" y2="328.119">
   <stop offset="0" style="stop-opacity:1; stop-color:#32CE66"/>
   <stop offset="0.4" style="stop-opacity:1; stop-color:#2EAE58"/>
   <stop offset="1" style="stop-opacity:1; stop-color:#218341"/>
  </linearGradient>
  <linearGradient id="id19" gradientUnits="userSpaceOnUse" xlink:href="#id9" x1="904.011" y1="231.344" x2="921.074" y2="328.119">
  </linearGradient>
  <linearGradient id="id20" gradientUnits="userSpaceOnUse" xlink:href="#id7" x1="624.096" y1="53.036" x2="635.909" y2="120.034">
  </linearGradient>
  <linearGradient id="id21" gradientUnits="userSpaceOnUse" xlink:href="#id17" x1="659.861" y1="246.233" x2="671.675" y2="313.231">
  </linearGradient>
  <linearGradient id="id22" gradientUnits="userSpaceOnUse" xlink:href="#id18" x1="783.248" y1="246.233" x2="795.062" y2="313.23">
  </linearGradient>
 </defs>
 <g id="Слой_x0020_1">
  <metadata id="CorelCorpID_0Corel-Layer"/>
  <g id="print">
   <path class="fil0" d="M12.204 0.945c345.197,0 690.395,0 1035.592,0 6.244,0 11.338,5.093 11.338,11.338l0 695.433c0,6.245 -5.094,11.339 -11.338,11.339 -345.197,0 -690.395,0 -1035.592,0 -6.244,0 -11.338,-5.094 -11.338,-11.339l0 -695.433c0,-6.245 5.094,-11.338 11.338,-11.338z"/>
   <path class="fil1" d="M1059.134 172.126l0 535.59c0,6.245 -5.094,11.339 -11.338,11.339 -345.197,0 -690.395,0 -1035.592,0 -6.244,0 -11.338,-5.094 -11.338,-11.339l0 -535.59 1058.268 0z"/>
   <path class="fil2 str0" d="M86.457 150.786l887.086 0c35.484,-0.007 64.252,-28.767 64.252,-64.251 0,-35.485 -28.768,-64.244 -64.252,-64.252l-887.086 0c-35.484,0.008 -64.252,28.767 -64.252,64.252 0,35.484 28.768,64.244 64.252,64.251z"/>
   <path class="fil3" d="M280.072 99.223c-2.288,0 -4.05,-0.589 -5.287,-1.768 -1.236,-1.179 -1.854,-2.808 -1.854,-4.888l0 -1.075 4.576 0 0 1.075c0,0.809 0.214,1.439 0.641,1.889 0.428,0.451 1.046,0.676 1.855,0.676 0.762,0 1.375,-0.225 1.837,-0.676 0.462,-0.45 0.693,-1.08 0.693,-1.889 0,-1.017 -0.254,-1.745 -0.762,-2.184 -0.509,-0.462 -1.63,-1.132 -3.363,-2.011 -2.034,-0.97 -3.443,-2.022 -4.229,-3.154 -0.763,-1.133 -1.144,-2.577 -1.144,-4.334 0,-2.034 0.63,-3.646 1.889,-4.836 1.26,-1.19 3.022,-1.785 5.287,-1.785 2.265,0 3.998,0.589 5.2,1.768 1.202,1.179 1.803,2.819 1.803,4.923l0 0.693 -4.577 0 0 -0.659c0,-1.756 -0.797,-2.634 -2.392,-2.634 -0.739,0 -1.317,0.219 -1.733,0.658 -0.416,0.439 -0.624,1.04 -0.624,1.803 0,0.901 0.266,1.583 0.797,2.045 0.532,0.462 1.665,1.11 3.398,1.942 2.057,0.97 3.455,2.033 4.194,3.189 0.74,1.156 1.11,2.646 1.11,4.472 0,2.103 -0.642,3.756 -1.924,4.957 -1.283,1.202 -3.08,1.803 -5.391,1.803zm23.539 -0.347l-13.208 0 0 -24.266 13.208 0 0 4.229 -8.355 0 0 5.616 6.656 0 0 4.229 -6.656 0 0 5.963 8.355 0 0 4.229zm15.808 0l-12.827 0 0 -24.266 4.853 0 0 20.037 7.974 0 0 4.229zm15.911 0l-13.208 0 0 -24.266 13.208 0 0 4.229 -8.354 0 0 5.616 6.656 0 0 4.229 -6.656 0 0 5.963 8.354 0 0 4.229zm2.6 -6.656l0 -10.954c0,-2.242 0.618,-3.97 1.855,-5.183 1.236,-1.213 2.999,-1.82 5.286,-1.82 2.289,0 4.045,0.601 5.27,1.803 1.225,1.202 1.837,2.935 1.837,5.2l0 1.768 -4.576 0 0 -1.942c0,-1.825 -0.809,-2.738 -2.426,-2.738 -0.763,0 -1.352,0.236 -1.768,0.71 -0.416,0.474 -0.624,1.15 -0.624,2.028l0 11.302c0,0.878 0.208,1.554 0.624,2.028 0.416,0.473 1.005,0.71 1.768,0.71 1.617,0 2.426,-0.912 2.426,-2.738l0 -2.635 4.576 0 0 2.461c0,2.265 -0.612,3.999 -1.837,5.2 -1.225,1.202 -2.981,1.803 -5.27,1.803 -2.287,0 -4.05,-0.607 -5.286,-1.82 -1.237,-1.213 -1.855,-2.941 -1.855,-5.183zm26.139 6.656l-4.853 0 0 -20.037 -5.062 0 0 -4.229 14.976 0 0 4.229 -5.061 0 0 20.037z"/>
   <path class="fil3" d="M698.323 99.223c-2.288,0 -4.05,-0.589 -5.287,-1.768 -1.236,-1.179 -1.854,-2.808 -1.854,-4.888l0 -1.075 4.576 0 0 1.075c0,0.809 0.214,1.439 0.641,1.889 0.428,0.451 1.046,0.676 1.855,0.676 0.762,0 1.375,-0.225 1.837,-0.676 0.463,-0.45 0.693,-1.08 0.693,-1.889 0,-1.017 -0.254,-1.745 -0.762,-2.184 -0.509,-0.462 -1.63,-1.132 -3.363,-2.011 -2.034,-0.97 -3.443,-2.022 -4.229,-3.154 -0.763,-1.133 -1.144,-2.577 -1.144,-4.334 0,-2.034 0.63,-3.646 1.889,-4.836 1.26,-1.19 3.022,-1.785 5.287,-1.785 2.265,0 3.998,0.589 5.2,1.768 1.202,1.179 1.803,2.819 1.803,4.923l0 0.693 -4.577 0 0 -0.659c0,-1.756 -0.797,-2.634 -2.392,-2.634 -0.739,0 -1.317,0.219 -1.733,0.658 -0.416,0.439 -0.624,1.04 -0.624,1.803 0,0.901 0.266,1.583 0.798,2.045 0.531,0.462 1.664,1.11 3.397,1.942 2.057,0.97 3.455,2.033 4.194,3.189 0.74,1.156 1.11,2.646 1.11,4.472 0,2.103 -0.642,3.756 -1.924,4.957 -1.283,1.202 -3.08,1.803 -5.391,1.803zm19.102 -0.347l-4.854 0 0 -20.037 -5.061 0 0 -4.229 14.976 0 0 4.229 -5.061 0 0 20.037zm21.077 0l-4.957 0 -0.798 -4.403 -5.442 0 -0.798 4.403 -4.61 0 5.026 -24.266 6.552 0 5.027 24.266zm-8.493 -19.413l-1.942 10.851 3.918 0 -1.976 -10.851zm15.947 19.413l-4.854 0 0 -24.266 7.176 0c2.427,0 4.229,0.502 5.408,1.508 1.179,1.005 1.768,2.559 1.768,4.662l0 0.936c0,2.543 -1.052,4.207 -3.155,4.992l0 0.104c1.11,0.301 1.919,0.919 2.427,1.855 0.509,0.936 0.763,2.271 0.763,4.004l0 2.843c0,1.479 0.185,2.6 0.554,3.362l-4.957 0c-0.277,-0.647 -0.416,-1.779 -0.416,-3.397l0 -3.155c0,-1.155 -0.225,-1.97 -0.676,-2.444 -0.451,-0.473 -1.242,-0.71 -2.375,-0.71l-1.663 0 0 9.706zm0 -20.037l0 6.101 1.768 0c0.993,0 1.721,-0.214 2.183,-0.641 0.463,-0.427 0.694,-1.115 0.694,-2.063l0 -0.936c0,-1.641 -0.786,-2.461 -2.358,-2.461l-2.287 0zm21.77 20.037l-4.853 0 0 -20.037 -5.061 0 0 -4.229 14.976 0 0 4.229 -5.062 0 0 20.037z"/>
   <path class="fil3" d="M956.756 172.126l-315.769 546.929 -5.124 0 315.769 -546.929 5.124 0zm14.092 0l-315.769 546.929 -10.249 0 315.77 -546.929 10.248 0zm8.967 0l-315.769 546.929 -5.124 0 315.769 -546.929 5.124 0zm79.319 35.691l0 8.876 -290.039 502.362 -5.124 0 295.163 -511.238zm0 15.532l0 39.938 -263.137 455.768 -23.059 0 286.196 -495.706zm0 46.594l0 8.876 -254.17 440.236 -5.124 0 259.294 -449.112zm0 159.765l0 8.876 -161.93 280.471 -5.124 0 167.054 -289.347zm0 15.532l0 48.811 -129.906 225.004 -28.181 0 158.087 -273.815zm0 55.468l0 8.875 -120.938 209.472 -5.125 0 126.063 -218.347zm0 138.008l0 8.875 -41.259 71.464 -5.124 0 46.383 -80.339zm0 15.532l0 53.468c0,6.245 -5.094,11.339 -11.338,11.339l-26.078 0 37.416 -64.807zm-634.997 64.807l-5.124 0 -315.769 -546.929 5.124 0 315.769 546.929zm-8.967 0l-10.249 0 -315.769 -546.929 10.248 0 315.77 546.929zm-14.092 0l-5.124 0 -315.769 -546.929 5.124 0 315.769 546.929zm-105.049 0l-5.124 0 -290.039 -502.362 0 -8.876 295.163 511.238zm-8.967 0l-23.059 0 -263.137 -455.768 0 -39.938 286.196 495.706zm-26.902 0l-5.124 0 -254.17 -440.236 0 -8.876 259.294 449.112zm-92.24 0l-5.124 0 -161.93 -280.471 0 -8.876 167.054 289.347zm-8.967 0l-28.181 0 -129.906 -225.004 0 -48.811 158.087 273.815zm-32.024 0l-5.125 0 -120.938 -209.472 0 -8.875 126.063 218.347zm-79.68 0l-5.124 0 -41.259 -71.464 0 -8.875 46.383 80.339zm-8.967 0l-26.078 0c-6.244,0 -11.338,-5.094 -11.338,-11.339l0 -53.468 37.416 64.807z"/>
   <path class="fil0" d="M549.907 482.648c-37.571,-0.007 -68.024,-30.459 -68.032,-68.031 -0.002,-10.961 2.635,-22.082 8.221,-32.397 40.933,-75.583 66.755,-120.859 143.275,-162.298 10.315,-5.587 21.436,-8.221 32.397,-8.221l246.774 0c37.572,0 68.031,30.458 68.031,68.031 0,14.618 0.001,28.382 0.001,43 0,37.572 -30.461,68.031 -68.033,68.031 -156.968,0 -192.21,8.927 -330.236,83.676 -10.316,5.587 -21.437,8.211 -32.398,8.209z"/>
   <path class="fil3" d="M633.601 396.492l-5.582 0 -9.394 24.717 5.547 0 2.01 -5.512 9.187 0 1.941 5.512 5.685 0 -9.394 -24.717zm0.451 15.253l-6.553 0 3.294 -9.186 3.259 9.186z"/>
   <path class="fil3" d="M688.095 348.545l0 24.683 12.341 0c2.427,0 4.426,-0.642 5.997,-1.924 1.572,-1.283 2.358,-3.091 2.358,-5.426 0,-3.166 -1.502,-5.176 -4.507,-6.032 1.04,-0.462 1.861,-1.138 2.462,-2.027 0.6,-0.89 0.901,-1.913 0.901,-3.069 0,-2.079 -0.734,-3.634 -2.202,-4.662 -1.467,-1.029 -3.357,-1.543 -5.668,-1.543l-11.682 0zm5.269 4.195l4.923 0c1.248,0 2.242,0.202 2.981,0.606 0.74,0.405 1.11,1.173 1.11,2.306 0,1.918 -1.364,2.877 -4.091,2.877l-4.923 0 0 -5.789zm0 9.464l5.165 0c1.503,0 2.687,0.225 3.554,0.676 0.866,0.45 1.3,1.346 1.3,2.686 0,1.318 -0.411,2.208 -1.231,2.67 -0.82,0.462 -1.936,0.693 -3.345,0.693l-5.443 0 0 -6.725z"/>
   <path class="fil3" d="M822.852 363.694l-5.373 0c-0.462,3.698 -2.346,5.547 -5.651,5.547 -1.987,0 -3.57,-0.757 -4.749,-2.271 -1.179,-1.513 -1.768,-3.541 -1.768,-6.084 0,-1.455 0.208,-2.796 0.624,-4.021 0.416,-1.225 1.138,-2.259 2.167,-3.103 1.028,-0.843 2.293,-1.265 3.796,-1.265 1.456,0 2.663,0.376 3.622,1.127 0.959,0.751 1.578,1.808 1.855,3.172l5.304 0c-0.208,-2.566 -1.306,-4.68 -3.293,-6.344 -1.988,-1.664 -4.449,-2.496 -7.384,-2.496 -3.675,0 -6.616,1.225 -8.823,3.674 -2.207,2.45 -3.311,5.524 -3.311,9.222 0,3.905 1.093,7.043 3.276,9.412 2.185,2.368 5.068,3.553 8.65,3.553 3.305,0 5.905,-0.913 7.8,-2.739 1.895,-1.825 2.981,-4.287 3.258,-7.384z"/>
   <path class="fil3" d="M901.663 373.228l9.984 0c3.837,0 6.789,-1.063 8.857,-3.189 2.069,-2.127 3.103,-5.178 3.103,-9.153 0,-3.974 -1.034,-7.025 -3.103,-9.152 -2.068,-2.126 -5.02,-3.189 -8.857,-3.189l-9.984 0 0 24.683zm5.373 -4.507l0 -15.669 3.953 0c2.403,0 4.2,0.676 5.39,2.028 1.191,1.352 1.785,3.287 1.785,5.806 0,5.223 -2.392,7.835 -7.175,7.835l-3.953 0z"/>
   <g>
    <path class="fil3" d="M569.735 549.826l1.267 0c1.183,0 3.209,0.243 4.042,0.732 0.835,0.486 1.384,1.03 1.649,1.632 0.267,0.604 0.401,1.932 0.401,3.985l0 8.057c0,2.432 -2.569,3.671 -3.808,3.939 -1.242,0.269 -2.45,0.403 -3.628,0.403 -3.392,0 -6.32,-0.882 -8.789,-2.648 -2.466,-1.768 -4.253,-4.53 -5.362,-8.297 -1.106,-3.762 -1.657,-8.136 -1.657,-13.131 0,-4.121 0.505,-8.14 1.517,-12.056 1.013,-3.917 2.737,-6.969 5.17,-9.159 2.434,-2.188 5.484,-3.283 9.147,-3.283 3.834,0 6.076,0.97 8.898,3.903 2.885,2.997 5.653,6.403 7.269,11.403l2.36 0 0 -18.358 -1.342 0c-0.484,1.47 -1.013,2.468 -1.591,2.996 -0.58,0.529 -1.207,0.792 -1.881,0.792 -0.434,0 -1.841,-0.478 -4.214,-1.434 -2.374,-0.956 -4.092,-1.537 -5.152,-1.742 -1.953,-0.407 -3.47,-0.613 -5.902,-0.613 -7.857,0 -14.381,2.7 -19.565,8.101 -5.183,5.405 -7.774,12.021 -7.774,19.852 0,4.377 0.842,8.332 2.53,11.864 1.326,2.738 3.165,5.2 5.514,7.391 2.351,2.188 5.065,3.956 8.136,5.301 3.074,1.341 6.938,2.013 11.59,2.013 3.641,0 7.152,-0.376 10.54,-1.128 3.389,-0.754 6.647,-1.871 9.787,-3.35l0 -10.827c0,-1.898 0.107,-3.091 0.323,-3.578 0.385,-0.924 0.932,-1.582 1.643,-1.982 0.709,-0.399 2.646,-0.659 4.451,-0.789l0 -1.773 -25.579 0 0 1.773 0.01 0.011zm58.798 14.024c-2.915,2.233 -6.794,3.348 -11.633,3.348l-2.759 0c-1.477,0 -2.545,-0.202 -3.208,-0.608 -0.661,-0.407 -1.115,-0.927 -1.356,-1.562 -0.242,-0.634 -0.364,-2.372 -0.364,-5.213l0 -14.543c2.486,0 5.397,0.323 6.703,0.974 1.304,0.647 2.451,1.912 3.435,3.793 0.989,1.882 1.635,3.959 1.942,6.908l2.098 0 0 -26.763 -2.098 0c-0.41,4.021 -1.356,6.72 -2.843,8.78 -1.485,2.061 -3.881,3.09 -7.183,3.09l-2.054 0.001 0 -17.953c-0.017,-3.12 2.764,-2.759 2.764,-2.759l3.251 0c3.93,0 6.607,0.23 8.035,0.688 2.449,0.761 4.343,1.956 5.684,3.58 1.341,1.628 2.378,4.306 3.119,8.04l1.759 0 0 -15.287 -43.729 0 0 2.094 1.379 0c1.68,0 3.006,0.355 3.971,1.065 0.689,0.482 1.161,1.17 1.414,2.057 0.128,0.531 0.192,1.967 0.192,4.302l0 32.343c0,2.588 -0.139,4.187 -0.42,4.799 -0.357,0.862 -0.867,1.472 -1.528,1.827 -0.918,0.534 -2.127,0.8 -3.628,0.8l-1.38 0 0 2.432 44.47 0 2.671 -16.445 -2.44 0c-1.274,4.577 -3.369,7.983 -6.285,10.213l0.021 -0.001zm0 0l0 0 0 0zm34.409 -46.298c-7.453,-0.308 -13.733,2.122 -18.833,7.291 -5.109,5.166 -7.657,11.625 -7.657,19.368 0,6.899 1.961,12.862 5.888,17.888 4.966,6.358 11.996,9.542 21.09,9.542 9.064,0 16.084,-3.334 21.054,-10.004 3.75,-5.022 5.627,-10.845 5.627,-17.465 0,-7.744 -2.516,-14.194 -7.543,-19.351 -5.031,-5.157 -11.568,-7.578 -19.617,-7.269l-0.009 0zm11.894 41.394c-1.215,3.601 -2.918,6.223 -5.104,7.861 -1.713,1.283 -3.851,1.923 -6.411,1.923 -3.801,0 -6.756,-1.487 -8.872,-4.46 -3.03,-4.255 -4.547,-10.827 -4.547,-19.726 0,-7.486 0.98,-13.226 2.943,-17.225 2.409,-4.869 5.924,-7.304 10.545,-7.304 2.509,0 4.726,0.706 6.651,2.116 1.925,1.409 3.508,3.826 4.751,7.247 1.242,3.424 1.864,8.58 1.864,15.479 0,5.793 -0.609,10.492 -1.827,14.094l0.007 -0.005zm0 0l0 0 0 0zm-177.01 12.395c9.063,0 16.084,-3.335 21.054,-10.005 3.75,-5.026 5.627,-10.844 5.627,-17.464 0,-7.744 -2.517,-14.194 -7.544,-19.352 -5.03,-5.156 -11.568,-7.578 -19.617,-7.268 -7.452,-0.308 -13.733,2.121 -18.833,7.29 -5.109,5.166 -7.657,11.625 -7.657,19.369 0,6.898 1.962,12.861 5.889,17.887 4.965,6.359 11.995,9.542 21.089,9.542l-0.008 0.001zm-10.663 -44.294c2.409,-4.869 5.924,-7.304 10.545,-7.304 2.509,0 4.726,0.705 6.651,2.115 1.925,1.41 3.508,3.827 4.752,7.247 1.241,3.424 1.863,8.58 1.863,15.475 0,5.792 -0.608,10.492 -1.827,14.094 -1.216,3.602 -2.918,6.224 -5.104,7.866 -1.714,1.282 -3.851,1.922 -6.412,1.922 -3.801,0 -6.755,-1.487 -8.872,-4.46 -3.029,-4.254 -4.547,-10.827 -4.547,-19.725 0,-7.487 0.981,-13.227 2.944,-17.226l0.007 -0.004zm0 0l0 0 0 0zm-15.601 26.176l-2.441 0c-1.273,4.577 -3.37,7.983 -6.286,10.213 -2.915,2.233 -6.794,3.348 -11.628,3.348l-2.759 0c-1.477,0 -2.544,-0.203 -3.208,-0.608 -0.662,-0.407 -1.115,-0.927 -1.357,-1.562 -0.241,-0.635 -0.363,-2.372 -0.363,-5.213l0 -14.543c2.484,0 5.396,0.323 6.703,0.974 1.305,0.646 2.451,1.912 3.436,3.794 0.987,1.881 1.634,3.958 1.942,6.907l2.097 0 0 -26.764 -2.097 0c-0.411,4.02 -1.359,6.721 -2.845,8.781 -1.482,2.061 -3.879,3.09 -7.182,3.09l-2.056 0 0 -17.953c-0.017,-3.12 2.767,-2.759 2.767,-2.759l3.247 0c3.932,0 6.612,0.23 8.041,0.688 2.45,0.761 4.344,1.956 5.684,3.58 1.339,1.627 2.379,4.307 3.119,8.04l1.758 0 0 -15.3 -43.729 0 0 2.108 1.378 0c1.681,0 3.005,0.355 3.973,1.064 0.687,0.482 1.158,1.169 1.412,2.057 0.128,0.532 0.193,1.966 0.193,4.302l0 32.342c0,2.588 -0.14,4.188 -0.421,4.796 -0.356,0.861 -0.867,1.472 -1.526,1.827 -0.918,0.534 -2.127,0.799 -3.631,0.799l-1.378 0 0 2.434 44.469 0 2.674 -16.446 0.014 0.004zm-83.93 13.98l-1.18 0c-1.694,0 -3.198,-0.519 -4.513,-1.559 -1.312,-1.04 -1.97,-3.043 -1.97,-6.01l0 -31.237 33.838 42.182 2.194 0.003 0 -43.023c0,-2.446 0.203,-3.156 0.607,-4.162 0.403,-1.007 0.968,-1.733 1.689,-2.179 0.721,-0.446 2.137,-0.809 4.241,-1.089l0 -2.189 -16.786 0 0 2.189c2.768,-0.051 4.743,0.662 5.915,2.14 0.858,1.096 1.286,2.181 1.286,5.292l0 22.53 -26.342 -32.151 -16.028 0 0 1.737c1.524,0.051 1.578,0.561 2.389,0.992l4.294 4.32 -0.006 34.643c0,2.739 -0.541,4.678 -1.622,5.819 -1.081,1.141 -2.998,1.724 -5.749,1.75l0 2.094 17.736 0 0 -2.094 0.007 0.002zm151.315 -22.909c0,3.437 -2.787,6.222 -6.223,6.222 -3.438,0 -6.223,-2.787 -6.223,-6.222 0,-3.438 2.787,-6.223 6.223,-6.223 3.438,0 6.223,2.787 6.223,6.223z"/>
   </g>
   <path class="fil3" d="M432.573 655.721l0 -9.587 13.325 0c0.741,0 1.39,0.279 1.944,0.838 0.556,0.56 0.833,1.238 0.833,2.038l0 6.711 -2.773 0 0 -6.951c0,-0.131 -0.045,-0.243 -0.132,-0.338 -0.088,-0.094 -0.192,-0.14 -0.313,-0.14l-2.884 0c-0.13,0 -0.237,0.046 -0.32,0.14 -0.082,0.095 -0.125,0.207 -0.125,0.338l0 6.951 -2.773 0 0 -6.951c0,-0.131 -0.045,-0.243 -0.132,-0.338 -0.088,-0.094 -0.192,-0.14 -0.313,-0.14l-3.116 0c-0.131,0 -0.237,0.046 -0.32,0.14 -0.083,0.095 -0.126,0.207 -0.126,0.338l0 6.951 -2.775 0zm28.596 -9.587l0 5.992c0,1.437 -0.36,2.396 -1.082,2.877 -0.723,0.478 -1.623,0.718 -2.702,0.718l-3.832 0c-1.072,0 -1.97,-0.24 -2.692,-0.718 -0.722,-0.481 -1.082,-1.44 -1.082,-2.877l0 -5.992 2.775 0 0 6.228c0,0.399 0.093,0.698 0.277,0.897 0.185,0.2 0.426,0.299 0.722,0.299l3.832 0c0.298,0 0.542,-0.099 0.729,-0.299 0.187,-0.199 0.279,-0.498 0.279,-0.897l0 -6.228 2.776 0zm2.763 9.587c-0.518,0 -0.942,-0.179 -1.276,-0.539 -0.334,-0.361 -0.5,-0.818 -0.5,-1.378l0 -7.67 2.785 0 0 6.946c0,0.159 0.038,0.279 0.112,0.358 0.073,0.079 0.184,0.12 0.331,0.12l5.652 0 0 2.163 -7.104 0zm12.098 0l0 -6.946c0,-0.128 -0.045,-0.241 -0.132,-0.335 -0.088,-0.095 -0.192,-0.143 -0.31,-0.143l-3.55 0 0 -2.163 10.646 0 0 2.163 -3.552 0c-0.13,0 -0.237,0.048 -0.319,0.143 -0.083,0.094 -0.126,0.207 -0.126,0.335l0 6.946 -2.657 0zm7.774 0l0 -9.587 2.771 0 0 9.587 -2.771 0zm17.767 0l-5.001 -9.587 2.998 0 3.495 7.194 3.495 -7.194 2.998 0 -4.987 9.587 -2.998 0zm9.096 0l0 -9.587 2.77 0 0 9.587 -2.77 0zm11.653 -2.163c0.442,0 0.812,-0.099 1.108,-0.299 0.296,-0.199 0.445,-0.578 0.445,-1.135l0 -2.393c0,-0.558 -0.149,-0.936 -0.445,-1.135 -0.296,-0.2 -0.666,-0.299 -1.108,-0.299l-4.552 0c-0.13,0 -0.237,0.048 -0.319,0.143 -0.083,0.094 -0.126,0.204 -0.126,0.335l0 4.305c0,0.138 0.043,0.253 0.126,0.343 0.082,0.089 0.189,0.135 0.319,0.135l4.552 0zm-7.767 2.163l0 -9.587 9.327 0c0.739,0 1.369,0.299 1.887,0.9 0.519,0.598 0.777,1.495 0.777,2.694l0 2.398c0,1.197 -0.258,2.097 -0.777,2.695 -0.518,0.601 -1.148,0.9 -1.887,0.9l-9.327 0zm15.313 0c-0.592,0 -1.108,-0.24 -1.551,-0.718 -0.442,-0.481 -0.665,-1.041 -0.665,-1.68l0 -7.189 9.541 0 0 2.163 -6.325 0c-0.131,0 -0.237,0.046 -0.32,0.14 -0.083,0.095 -0.126,0.207 -0.126,0.338l0 0.716c0,0.14 0.043,0.253 0.126,0.342 0.083,0.09 0.189,0.136 0.32,0.136l5.882 0 0 1.702 -5.882 0c-0.131,0 -0.237,0.049 -0.32,0.144 -0.083,0.094 -0.126,0.207 -0.126,0.34l0 0.69c0,0.141 0.043,0.258 0.126,0.348 0.083,0.089 0.189,0.135 0.32,0.135l6.325 0 0 2.393 -7.325 0zm17.322 -2.163c0.298,0 0.502,-0.079 0.613,-0.24 0.112,-0.159 0.166,-0.396 0.166,-0.716l0 -3.349c0,-0.32 -0.054,-0.557 -0.166,-0.716 -0.111,-0.161 -0.315,-0.24 -0.613,-0.24l-5.333 0c-0.298,0 -0.502,0.079 -0.613,0.24 -0.111,0.159 -0.166,0.396 -0.166,0.716l0 3.349c0,0.32 0.055,0.557 0.166,0.716 0.111,0.161 0.315,0.24 0.613,0.24l5.333 0zm-5.33 2.163c-1.035,0 -1.888,-0.24 -2.553,-0.718 -0.665,-0.481 -0.999,-1.279 -0.999,-2.398l0 -3.355c0,-1.119 0.334,-1.917 0.999,-2.398 0.665,-0.478 1.518,-0.718 2.553,-0.718l5.328 0c0.999,0 1.839,0.24 2.524,0.718 0.684,0.481 1.028,1.279 1.028,2.398l0 3.355c0,1.119 -0.344,1.917 -1.028,2.398 -0.685,0.478 -1.525,0.718 -2.524,0.718l-5.328 0zm19.097 0l0 -2.163 7.433 0c0.258,0 0.434,-0.058 0.526,-0.179 0.092,-0.12 0.14,-0.299 0.14,-0.536l0 -0.241c0,-0.237 -0.048,-0.417 -0.14,-0.537 -0.092,-0.12 -0.268,-0.179 -0.526,-0.179l-4.551 0c-1.11,0 -1.906,-0.26 -2.387,-0.782 -0.481,-0.522 -0.722,-1.14 -0.722,-1.859l0 -0.478c0,-0.798 0.241,-1.437 0.722,-1.915 0.481,-0.478 1.277,-0.718 2.387,-0.718l7.547 0 0 2.155 -7.431 0c-0.203,0 -0.345,0.046 -0.428,0.141 -0.083,0.094 -0.126,0.207 -0.126,0.337l0 0.478c0,0.141 0.043,0.254 0.126,0.343 0.083,0.089 0.225,0.135 0.428,0.135l4.442 0c1.109,0 1.942,0.282 2.496,0.841 0.557,0.56 0.834,1.243 0.834,2.043l0 0.361c0,0.877 -0.277,1.557 -0.834,2.035 -0.556,0.478 -1.392,0.718 -2.505,0.718l-7.431 0zm16.091 0l0 -2.636c0,-0.127 -0.038,-0.24 -0.111,-0.335 -0.074,-0.094 -0.185,-0.143 -0.335,-0.143l-1.11 0c-0.592,0 -1.184,-0.199 -1.776,-0.598 -0.592,-0.402 -0.888,-0.961 -0.888,-1.68l0 -4.195 2.771 0 0 3.114c0,0.399 0.092,0.698 0.277,0.897 0.184,0.2 0.417,0.3 0.696,0.3l3.888 0c0.277,0 0.462,-0.1 0.554,-0.3 0.093,-0.199 0.14,-0.498 0.14,-0.897l0 -3.114 2.77 0 0 4.195c0,0.719 -0.296,1.278 -0.885,1.68 -0.59,0.399 -1.18,0.598 -1.771,0.598l-1.106 0c-0.147,0 -0.258,0.049 -0.332,0.143 -0.073,0.095 -0.111,0.208 -0.111,0.335l0 2.636 -2.671 0zm8.217 0l0 -2.163 7.433 0c0.258,0 0.433,-0.058 0.525,-0.179 0.093,-0.12 0.14,-0.299 0.14,-0.536l0 -0.241c0,-0.237 -0.047,-0.417 -0.14,-0.537 -0.092,-0.12 -0.267,-0.179 -0.525,-0.179l-4.551 0c-1.111,0 -1.907,-0.26 -2.387,-0.782 -0.481,-0.522 -0.723,-1.14 -0.723,-1.859l0 -0.478c0,-0.798 0.242,-1.437 0.723,-1.915 0.48,-0.478 1.276,-0.718 2.387,-0.718l7.546 0 0 2.155 -7.43 0c-0.204,0 -0.346,0.046 -0.429,0.141 -0.083,0.094 -0.125,0.207 -0.125,0.337l0 0.478c0,0.141 0.042,0.254 0.125,0.343 0.083,0.089 0.225,0.135 0.429,0.135l4.442 0c1.108,0 1.942,0.282 2.496,0.841 0.556,0.56 0.833,1.243 0.833,2.043l0 0.361c0,0.877 -0.277,1.557 -0.833,2.035 -0.557,0.478 -1.393,0.718 -2.506,0.718l-7.43 0zm15.863 0l0 -6.946c0,-0.128 -0.045,-0.241 -0.133,-0.335 -0.088,-0.095 -0.191,-0.143 -0.31,-0.143l-3.549 0 0 -2.163 10.646 0 0 2.163 -3.552 0c-0.13,0 -0.237,0.048 -0.32,0.143 -0.083,0.094 -0.125,0.207 -0.125,0.335l0 6.946 -2.657 0zm9.99 0c-0.592,0 -1.108,-0.24 -1.551,-0.718 -0.442,-0.481 -0.665,-1.041 -0.665,-1.68l0 -7.189 9.541 0 0 2.163 -6.325 0c-0.131,0 -0.237,0.046 -0.32,0.14 -0.083,0.095 -0.126,0.207 -0.126,0.338l0 0.716c0,0.14 0.043,0.253 0.126,0.342 0.083,0.09 0.189,0.136 0.32,0.136l5.882 0 0 1.702 -5.882 0c-0.131,0 -0.237,0.049 -0.32,0.144 -0.083,0.094 -0.126,0.207 -0.126,0.34l0 0.69c0,0.141 0.043,0.258 0.126,0.348 0.083,0.089 0.189,0.135 0.32,0.135l6.325 0 0 2.393 -7.325 0zm8.435 0l0 -9.587 13.325 0c0.741,0 1.389,0.279 1.944,0.838 0.556,0.56 0.833,1.238 0.833,2.038l0 6.711 -2.773 0 0 -6.951c0,-0.131 -0.045,-0.243 -0.132,-0.338 -0.088,-0.094 -0.192,-0.14 -0.313,-0.14l-2.884 0c-0.13,0 -0.237,0.046 -0.32,0.14 -0.083,0.095 -0.125,0.207 -0.125,0.338l0 6.951 -2.773 0 0 -6.951c0,-0.131 -0.045,-0.243 -0.133,-0.338 -0.087,-0.094 -0.192,-0.14 -0.312,-0.14l-3.116 0c-0.131,0 -0.237,0.046 -0.32,0.14 -0.083,0.095 -0.126,0.207 -0.126,0.338l0 6.951 -2.775 0zm-131.851 -14.237l16.183 0 0 -53.365c0,-2.524 -2.059,-4.583 -4.583,-4.583l-10.448 0c-2.02,0 -3.754,1.001 -4.763,2.75l-14.847 25.715c-0.105,0.182 -0.312,0.268 -0.515,0.213 -0.203,-0.054 -0.34,-0.232 -0.34,-0.442l0 -23.653c0,-2.524 -2.058,-4.583 -4.583,-4.583l-10.127 0c-1.986,0 -3.692,0.966 -4.715,2.667l-33.215 55.281 18.657 0 16.949 -28.209c0.108,-0.179 0.314,-0.261 0.515,-0.205 0.202,0.055 0.336,0.232 0.336,0.441l0 22.932c0,2.776 2.265,5.041 5.042,5.041l9.413 0c2.188,0 4.066,-1.084 5.16,-2.979l15.026 -26.026c0.105,-0.182 0.313,-0.268 0.515,-0.214 0.204,0.055 0.34,0.233 0.34,0.443l0 28.776zm55.72 -2.941l20.518 -53.45c0.139,-0.364 0.095,-0.739 -0.126,-1.06 -0.22,-0.321 -0.555,-0.497 -0.944,-0.497l-14.092 0c-0.968,0 -1.793,0.567 -2.14,1.471l-11.944 31.117c-0.07,0.182 -0.237,0.296 -0.432,0.294 -0.195,-0.002 -0.36,-0.118 -0.427,-0.302l-11.309 -31.072c-0.336,-0.922 -1.172,-1.508 -2.154,-1.508l-13.98 0c-0.386,0 -0.718,0.173 -0.939,0.489 -0.221,0.316 -0.27,0.687 -0.138,1.049l19.434 53.394c0.671,1.845 2.343,3.016 4.307,3.016 3.362,0 6.725,0 10.087,0 1.935,0 3.585,-1.134 4.279,-2.941zm35.736 -13.888l-0.085 -0.191c-0.377,-0.846 -1.168,-1.36 -2.094,-1.36l-13.147 0c-0.479,0 -0.891,0.224 -1.153,0.626 -0.261,0.402 -0.298,0.87 -0.103,1.308l2.117 4.754c3.238,7.272 10.044,11.692 18.004,11.692 17.453,0 34.905,0 52.358,0 3.422,0 6.358,-1.729 8.017,-4.723 1.659,-2.992 1.57,-6.399 -0.243,-9.301l-10.133 -16.215c-2.845,-4.553 -7.457,-7.11 -12.826,-7.11 -12.88,0 -26.098,0 -38.977,0 -1.263,0 -2.292,-1.029 -2.292,-2.291l0 -2.393c0,-1.261 1.029,-2.291 2.292,-2.291l23.911 0c0.814,0 1.512,0.387 1.944,1.077l0.164 0.264c0.345,0.552 0.904,0.862 1.555,0.862l15.151 0c0.342,0 0.636,-0.173 0.802,-0.472 0.165,-0.3 0.156,-0.64 -0.025,-0.931l-5.647 -9.038c-2.155,-3.448 -5.65,-5.386 -9.717,-5.386 -11.26,0 -22.52,0 -33.78,0 -7.069,0 -12.833,5.765 -12.833,12.833l0 8.916c0,7.32 5.97,13.291 13.291,13.291 14.159,0 28.318,0 42.477,0 0.814,0 1.513,0.387 1.944,1.077l3.268 5.231c0.181,0.29 0.19,0.63 0.025,0.93 -0.166,0.299 -0.46,0.472 -0.802,0.472l-40.951 0c-1.111,0 -2.061,-0.617 -2.512,-1.631z"/>
   <path class="fil3" d="M561.802 679.977l0 -12.372 -10.072 0 0 28.154 10.072 0 0 -12.451 16.02 12.451 12.927 0 -18.241 -14.037 18.241 -14.117 -12.927 0 -16.02 12.372zm-51.311 -12.372l0 28.154 9.913 0 0 -17.685 18.875 17.685 10.31 0 0 -28.154 -9.913 0 0 17.607 -18.875 -17.607 -10.31 0zm-41.16 9.041c0,4.997 3.331,9.041 7.454,9.041l20.699 0c0.476,0 0.952,0.476 0.952,1.11 0,0.635 -0.397,1.111 -0.952,1.111l-28.232 0 0 8.01 31.563 0c4.124,0 7.455,-4.124 7.455,-9.12 0,-4.997 -3.331,-9.121 -7.455,-9.121l-20.619 0c-0.476,0 -0.952,-0.476 -0.952,-1.11 0,-0.634 0.396,-1.11 0.952,-1.11l27.994 0 0 -7.852 -31.403 0c-4.124,0 -7.455,4.045 -7.455,9.041l-0.001 0z"/>
  </g>
  <g id="button-frames">
   <circle class="fil4" cx="429.998" cy="86.535" r="52.913"/>
   <circle class="fil5" cx="429.998" cy="86.535" r="49.134"/>
   <circle class="fil6" cx="429.998" cy="86.535" r="39.307"/>
   <circle class="fil4" cx="630.003" cy="86.535" r="52.913"/>
   <circle class="fil5" cx="630.003" cy="86.535" r="49.134"/>
   <circle class="fil6" cx="630.003" cy="86.535" r="39.307"/>
   <circle class="fil7" cx="549.907" cy="414.617" r="52.913"/>
   <circle class="fil8" cx="549.907" cy="414.617" r="49.134"/>
   <circle class="fil9" cx="549.908" cy="414.617" r="39.307"/>
   <circle class="fil10" cx="665.768" cy="279.732" r="52.913"/>
   <circle class="fil11" cx="665.768" cy="279.732" r="49.134"/>
   <circle class="fil12" cx="665.768" cy="279.732" r="39.307"/>
   <circle class="fil13" cx="789.155" cy="279.731" r="52.913"/>
   <circle class="fil14" cx="789.155" cy="279.731" r="49.134"/>
   <circle class="fil15" cx="789.156" cy="279.732" r="39.307"/>
   <circle class="fil16" cx="912.542" cy="279.732" r="52.913"/>
   <circle class="fil17" cx="912.542" cy="279.732" r="49.134"/>
   <circle class="fil18" cx="912.542" cy="279.732" r="39.307"/>
  </g>
  <g id="buttons">
   <circle class="fil19" cx="429.998" cy="86.535" r="37.795"/>
   <circle class="fil20" cx="429.998" cy="86.535" r="34.016"/>
   <circle class="fil21" cx="630.003" cy="86.535" r="37.795"/>
   <circle class="fil22" cx="630.003" cy="86.535" r="34.016"/>
   <circle class="fil23" cx="549.907" cy="414.617" r="37.795"/>
   <circle class="fil24" cx="549.907" cy="414.617" r="34.016"/>
   <circle class="fil25" cx="665.768" cy="279.732" r="37.795"/>
   <circle class="fil26" cx="665.768" cy="279.732" r="34.016"/>
   <circle class="fil27" cx="789.155" cy="279.731" r="37.795"/>
   <circle class="fil28" cx="789.155" cy="279.731" r="34.016"/>
   <circle class="fil29" cx="912.542" cy="279.732" r="37.795"/>
   <circle class="fil30" cx="912.542" cy="279.732" r="34.016"/>
   <circle class="fil0" cx="225.432" cy="414.617" r="64.252"/>
   <path class="fil31" d="M225.432 355.467c32.667,0 59.15,26.483 59.15,59.15 0,32.666 -26.483,59.149 -59.15,59.149 -32.667,0 -59.149,-26.483 -59.149,-59.149 0,-32.667 26.482,-59.15 59.149,-59.15z"/>
   <path class="fil32" d="M227.61 367.023c-0.936,-3.062 -7.617,-3.737 -14.923,-1.507 -7.305,2.23 -12.469,6.519 -11.534,9.582 0.935,3.061 7.616,3.736 14.922,1.506 7.306,-2.229 12.47,-6.519 11.535,-9.581z"/>
   <path class="fil33" d="M275.293 421.64c-13.156,19.345 -35.069,30.942 -58.484,30.942 -14.237,0 -28.146,-4.298 -39.897,-12.322 -2.435,-1.688 -4.797,-3.523 -7.033,-5.46 8.455,23.421 30.699,39.031 55.615,39.031 32.644,0 59.119,-26.459 59.119,-59.086 0,-3.325 -0.289,-6.665 -0.845,-9.94 -2.074,5.947 -4.935,11.63 -8.475,16.837l0 -0.002z"/>
  </g>
 </g>
</svg>
