<?xml version="1.0" encoding="UTF-8"?>
<!DOCTYPE svg PUBLIC "-//W3C//DTD SVG 1.1//EN" "http://www.w3.org/Graphics/SVG/1.1/DTD/svg11.dtd">
<svg xml:space="preserve" viewBox="0 0 560 394" width="560px" height="394px" version="1.1" style="shape-rendering:geometricPrecision; fill-rule:evenodd; clip-rule:evenodd" xmlns="http://www.w3.org/2000/svg" xmlns:xlink="http://www.w3.org/1999/xlink">
 <defs>
  <style type="text/css">
    .fil18 {fill:#4D4D4D}
    .fil25 {fill:black;fill-opacity:0.3}
    .fil27 {fill:white;fill-opacity:0.5}
  </style>
 </defs>
 <g>
  <g id="button-start">
   <path class="fil18" d="M327.67 209.305l-22.948 -4.79c-0.706,-0.147 -1.337,0.005 -1.897,0.459 -0.558,0.454 -0.835,1.045 -0.835,1.763l0 10.952c0,0.718 0.278,1.31 0.835,1.763 0.559,0.454 1.192,0.607 1.897,0.46l22.947 -4.785c1.073,-0.223 1.804,-1.129 1.804,-2.223l0 -1.377c0,-1.095 -0.73,-1.998 -1.803,-2.222z"/>
   <path class="fil25" d="M301.99 216.933l0 0.756c0,0.718 0.278,1.31 0.835,1.763 0.559,0.454 1.192,0.607 1.897,0.46l22.947 -4.785c1.073,-0.223 1.804,-1.129 1.804,-2.223l0 -0.756c0,1.095 -0.731,2 -1.804,2.223l-22.947 4.785c-0.705,0.147 -1.338,-0.006 -1.897,-0.46 -0.557,-0.453 -0.835,-1.045 -0.835,-1.763z"/>
   <path class="fil27" d="M327.67 209.305l-22.948 -4.79c-0.706,-0.147 -1.337,0.005 -1.897,0.459 -0.558,0.454 -0.835,1.045 -0.835,1.763l0 0.756c0,-0.718 0.277,-1.309 0.835,-1.763 0.56,-0.454 1.191,-0.606 1.897,-0.459l22.948 4.79c1.073,0.224 1.803,1.127 1.803,2.222l0 -0.756c0,-1.095 -0.73,-1.998 -1.803,-2.222z"/>
  </g>
 </g>
</svg>
