<?xml version="1.0" encoding="UTF-8"?>
<!DOCTYPE svg PUBLIC "-//W3C//DTD SVG 1.1//EN" "http://www.w3.org/Graphics/SVG/1.1/DTD/svg11.dtd">
<svg xml:space="preserve" viewBox="0 0 560 394" width="560px" height="394px" version="1.1" style="shape-rendering:geometricPrecision; fill-rule:evenodd; clip-rule:evenodd" xmlns="http://www.w3.org/2000/svg" xmlns:xlink="http://www.w3.org/1999/xlink">
 <defs>
  <style type="text/css">
    .fil12 {fill:#080808}
    .fil11 {fill:#1A1A1A}
    .fil14 {fill:#484848}
    .fil18 {fill:#4D4D4D}
    .fil21 {fill:#525252}
    .fil2 {fill:#B3B3B3}
    .fil3 {fill:#CCCCCC}
    .fil9 {fill:#D8D8D8}
    .fil0 {fill:#E6E6E6}
    .fil7 {fill:black;fill-opacity:0.1}
    .fil23 {fill:black;fill-opacity:0.2}
    .fil8 {fill:white;fill-opacity:0.4}
    .fil10 {fill:black;fill-opacity:0.5}
    .fil15 {fill:#484848;fill-opacity:0.5}
    .fil19 {fill:#4D4D4D;fill-opacity:0.5}
    .fil22 {fill:#525252;fill-opacity:0.5}
    .fil4 {fill:url(#id0)}
    .fil16 {fill:url(#id1)}
    .fil20 {fill:url(#id2)}
    .fil13 {fill:url(#id3)}
    .fil1 {fill:url(#id4)}
    .fil17 {fill:url(#id5)}
    .fil5 {fill:url(#id8)}
    .fil6 {fill:url(#id9)}
    .shd0 {filter: drop-shadow(0px 1px .5px rgba(0, 0, 0, 0.2)) drop-shadow(0px 0px .5px rgba(0, 0, 0, 0.5))}
    .shd1 {filter: drop-shadow(0px 1px .5px rgba(0, 0, 0, 0.2)) drop-shadow(0px 0px .5px rgba(0, 0, 0, 0.4))}
  </style>
  <linearGradient id="id0" gradientUnits="objectBoundingBox" x1="50%" y1="100%" x2="50%" y2="0%">
   <stop offset="0" style="stop-opacity:1; stop-color:#D8D8D8"/>
   <stop offset="0.5" style="stop-opacity:1; stop-color:#D8D8D8"/>
   <stop offset="0.8" style="stop-opacity:1; stop-color:#E6E6E6"/>
   <stop offset="1" style="stop-opacity:1; stop-color:#E6E6E6"/>
  </linearGradient>
  <linearGradient id="id1" gradientUnits="objectBoundingBox" x1="50%" y1="100%" x2="50%" y2="0%">
   <stop offset="0" style="stop-opacity:1; stop-color:#1A1A1A"/>
   <stop offset="0.05" style="stop-opacity:1; stop-color:#1A1A1A"/>
   <stop offset="0.15" style="stop-opacity:1; stop-color:#666666"/>
   <stop offset="0.85" style="stop-opacity:1; stop-color:gray"/>
   <stop offset="0.95" style="stop-opacity:1; stop-color:#B3B3B3"/>
   <stop offset="1" style="stop-opacity:1; stop-color:#B3B3B3"/>
  </linearGradient>
  <linearGradient id="id2" gradientUnits="userSpaceOnUse" x1="121.033" y1="223.303" x2="121.033" y2="190.573">
   <stop offset="0" style="stop-opacity:1; stop-color:#1A1A1A"/>
   <stop offset="0.05" style="stop-opacity:1; stop-color:#1A1A1A"/>
   <stop offset="0.15" style="stop-opacity:1; stop-color:gray"/>
   <stop offset="0.55" style="stop-opacity:1; stop-color:gray"/>
   <stop offset="0.7" style="stop-opacity:1; stop-color:#999999"/>
   <stop offset="1" style="stop-opacity:1; stop-color:#999999"/>
  </linearGradient>
  <linearGradient id="id3" gradientUnits="userSpaceOnUse" x1="121.033" y1="163.571" x2="121.033" y2="130.842">
   <stop offset="0" style="stop-opacity:1; stop-color:#333333"/>
   <stop offset="0.3" style="stop-opacity:1; stop-color:#333333"/>
   <stop offset="0.45" style="stop-opacity:1; stop-color:gray"/>
   <stop offset="0.85" style="stop-opacity:1; stop-color:gray"/>
   <stop offset="0.95" style="stop-opacity:1; stop-color:#B3B3B3"/>
   <stop offset="1" style="stop-opacity:1; stop-color:#B3B3B3"/>
  </linearGradient>
  <linearGradient id="id4" gradientUnits="userSpaceOnUse" x1="279.988" y1="265.802" x2="279.989" y2="96.889">
   <stop offset="0" style="stop-opacity:1; stop-color:gray"/>
   <stop offset="0.13" style="stop-opacity:1; stop-color:#A8A8A8"/>
   <stop offset="0.16" style="stop-opacity:1; stop-color:silver"/>
   <stop offset="0.92" style="stop-opacity:1; stop-color:#D8D8D8"/>
   <stop offset="0.94" style="stop-opacity:1; stop-color:#E1E1E1"/>
   <stop offset="1" style="stop-opacity:1; stop-color:#999999"/>
  </linearGradient>
  <linearGradient id="id5" gradientUnits="objectBoundingBox" x1="50%" y1="100%" x2="50%" y2="0%">
   <stop offset="0" style="stop-opacity:1; stop-color:#1A1A1A"/>
   <stop offset="0.05" style="stop-opacity:1; stop-color:#1A1A1A"/>
   <stop offset="0.1" style="stop-opacity:1; stop-color:#333333"/>
   <stop offset="0.4" style="stop-opacity:1; stop-color:#333333"/>
   <stop offset="0.6" style="stop-opacity:1; stop-color:gray"/>
   <stop offset="0.9" style="stop-opacity:1; stop-color:gray"/>
   <stop offset="0.95" style="stop-opacity:1; stop-color:#B3B3B3"/>
   <stop offset="1" style="stop-opacity:1; stop-color:#B3B3B3"/>
  </linearGradient>
  <linearGradient id="id8" gradientUnits="userSpaceOnUse" x1="3.512" y1="246.979" x2="197.829" y2="308.179">
   <stop offset="0" style="stop-opacity:1; stop-color:#B3B3B3"/>
   <stop offset="0.4" style="stop-opacity:1; stop-color:#CCCCCC"/>
   <stop offset="0.85" style="stop-opacity:1; stop-color:#B3B3B3"/>
   <stop offset="1" style="stop-opacity:1; stop-color:#B3B3B3"/>
  </linearGradient>
  <linearGradient id="id9" gradientUnits="userSpaceOnUse" xlink:href="#id8" x1="556.464" y1="246.979" x2="362.148" y2="308.179">
  </linearGradient>
 </defs>
 <g>
  <g id="shell">
   <path class="fil0" d="M85.952 57.469l70.163 -0.002c-0.113,-1.1 0.173,-1.176 0,-2.268 -0.166,-1.066 -0.815,-3.165 -1.162,-4.187 -0.725,-2.174 -1.829,-2.99 -3.78,-3.911 -2.25,-1.037 -4.566,-1.865 -6.96,-2.504 -5.129,-1.377 -10.431,-1.959 -15.718,-2.286 -2.497,-0.124 -4.967,-0.197 -7.468,-0.197 -2.501,0 -4.971,0.073 -7.468,0.197 -5.321,0.33 -10.549,0.903 -15.71,2.29 -2.39,0.637 -4.715,1.465 -6.96,2.503 -1.977,0.937 -3.053,1.743 -3.775,3.911 -0.347,1.021 -0.995,3.121 -1.162,4.186 -0.173,1.092 0.113,1.168 0,2.268z"/>
   <path class="fil0" d="M403.861 57.467l70.164 0.002c-0.114,-1.1 0.173,-1.176 0,-2.268 -0.167,-1.065 -0.815,-3.165 -1.162,-4.186 -0.723,-2.168 -1.798,-2.974 -3.775,-3.911 -2.246,-1.038 -4.571,-1.866 -6.96,-2.503 -5.161,-1.387 -10.389,-1.96 -15.71,-2.29 -2.497,-0.124 -4.968,-0.197 -7.468,-0.197 -2.501,0 -4.972,0.073 -7.468,0.197 -5.288,0.327 -10.59,0.909 -15.719,2.286 -2.393,0.639 -4.709,1.467 -6.96,2.504 -1.951,0.921 -3.054,1.737 -3.779,3.911 -0.347,1.022 -0.996,3.121 -1.163,4.187 -0.173,1.092 0.113,1.168 0,2.268z"/>
   <path class="fil1" d="M385.887 96.889l-2.875 168.913c-2.296,-3.676 -5.355,-6.097 -9.23,-7.967 -5.719,-2.658 -11.854,-3.558 -18.101,-3.896 -1.483,-0.06 -2.944,-0.094 -4.429,-0.105l-142.527 0c-1.485,0.011 -2.946,0.045 -4.43,0.105 -6.231,0.338 -12.396,1.239 -18.099,3.896 -3.867,1.856 -6.944,4.304 -9.231,7.967l-2.875 -168.913c1.045,0.455 2.066,0.852 3.145,1.22 6.729,2.212 13.652,2.855 20.7,3.004l2.014 0.017 160.079 0 2.015 -0.017c7.044,-0.149 13.973,-0.792 20.699,-3.004 1.078,-0.368 2.1,-0.766 3.145,-1.22z"/>
   <rect class="fil2" x="270.917" y="101.13" width="18.142" height="5.669"/>
   <path class="fil3" d="M385.379 99.764l107.124 0 -3.504 -19.225c-0.625,-3.077 -1.247,-6.083 -2.018,-9.126 -0.497,-1.876 -1.036,-3.675 -1.768,-5.476 -1.017,-2.4 -2.103,-4.071 -4.026,-5.836 -2.647,-2.355 -5.626,-4.194 -8.813,-5.726 -3.189,-1.483 -6.298,-2.54 -9.701,-3.423 -4.536,-1.128 -8.945,-1.772 -13.598,-2.179 -3.416,-0.251 -6.709,-0.369 -10.134,-0.397 -3.425,0.028 -6.717,0.146 -10.133,0.397 -4.653,0.407 -9.064,1.051 -13.599,2.179 -3.399,0.883 -6.516,1.938 -9.7,3.423 -3.166,1.518 -6.19,3.381 -8.813,5.726 -1.914,1.74 -3.021,3.46 -4.028,5.836 -0.731,1.813 -1.264,3.59 -1.767,5.476 -0.769,3.045 -1.392,6.047 -2.019,9.126l-3.503 19.225z"/>
   <path class="fil3" d="M67.474 99.764l107.124 0 -3.503 -19.225c-0.627,-3.079 -1.25,-6.081 -2.019,-9.126 -0.503,-1.886 -1.036,-3.663 -1.767,-5.476 -1.007,-2.376 -2.114,-4.096 -4.028,-5.836 -2.623,-2.345 -5.647,-4.208 -8.813,-5.726 -3.184,-1.485 -6.301,-2.54 -9.7,-3.423 -4.535,-1.128 -8.946,-1.772 -13.599,-2.179 -3.416,-0.251 -6.708,-0.369 -10.133,-0.397 -3.425,0.028 -6.718,0.146 -10.134,0.397 -4.653,0.407 -9.062,1.051 -13.598,2.179 -3.403,0.883 -6.513,1.94 -9.701,3.423 -3.187,1.532 -6.166,3.371 -8.813,5.726 -1.923,1.765 -3.009,3.436 -4.026,5.836 -0.732,1.801 -1.271,3.6 -1.768,5.476 -0.771,3.043 -1.393,6.049 -2.018,9.126l-3.504 19.225z"/>
   <path class="fil4" d="M67.474 99.764l2.531 0 3.423 -18.782c0.609,-2.995 1.241,-5.999 1.988,-8.963 0.223,-0.84 0.466,-1.699 0.759,-2.62 0.575,-1.818 1.242,-3.625 2.323,-5.212 1.412,-2.075 3.782,-3.835 5.844,-5.158 2.739,-1.759 5.779,-3.163 8.851,-4.237 3.676,-1.285 7.398,-2.136 11.247,-2.739 2.098,-0.329 4.32,-0.583 6.677,-0.792 3.306,-0.243 6.604,-0.368 9.919,-0.395 1.649,0.014 3.298,0.051 4.982,0.115 3.919,0.15 7.73,0.464 11.614,1.072 3.826,0.599 7.588,1.461 11.247,2.738 3.137,1.097 6.05,2.441 8.851,4.237 2.043,1.31 4.447,3.091 5.845,5.149 1.085,1.598 1.742,3.395 2.32,5.222 0.744,2.346 1.278,4.683 1.803,7.091 0.409,1.879 0.692,3.251 0.956,4.547l3.413 18.727 2.531 0 -3.503 -19.225c-0.627,-3.079 -1.25,-6.081 -2.019,-9.126 -0.503,-1.886 -1.036,-3.663 -1.767,-5.476 -1.007,-2.376 -2.114,-4.096 -4.028,-5.836 -2.623,-2.345 -5.647,-4.208 -8.813,-5.726 -3.184,-1.485 -6.301,-2.54 -9.7,-3.423 -4.535,-1.128 -8.946,-1.772 -13.599,-2.179 -3.416,-0.251 -6.708,-0.369 -10.133,-0.397 -3.425,0.028 -6.718,0.146 -10.134,0.397 -4.653,0.407 -9.062,1.051 -13.598,2.179 -3.403,0.883 -6.513,1.94 -9.701,3.423 -3.187,1.532 -6.166,3.371 -8.813,5.726 -1.923,1.765 -3.009,3.436 -4.026,5.836 -0.732,1.801 -1.271,3.6 -1.768,5.476 -0.771,3.043 -1.393,6.049 -2.018,9.126l-3.504 19.225z"/>
   <path class="fil4" d="M492.503 99.764l-2.531 0 -3.423 -18.782c-0.609,-2.995 -1.241,-5.999 -1.988,-8.963 -0.223,-0.84 -0.466,-1.699 -0.759,-2.62 -0.575,-1.818 -1.242,-3.625 -2.323,-5.212 -1.412,-2.075 -3.782,-3.835 -5.844,-5.158 -2.74,-1.759 -5.779,-3.163 -8.851,-4.237 -3.676,-1.285 -7.398,-2.136 -11.247,-2.739 -2.098,-0.329 -4.32,-0.583 -6.677,-0.792 -3.306,-0.243 -6.604,-0.368 -9.919,-0.395 -1.649,0.014 -3.298,0.051 -4.982,0.115 -3.919,0.15 -7.73,0.464 -11.614,1.072 -3.826,0.599 -7.588,1.461 -11.247,2.738 -3.138,1.097 -6.05,2.441 -8.851,4.237 -2.043,1.31 -4.447,3.091 -5.845,5.149 -1.085,1.598 -1.742,3.395 -2.32,5.222 -0.744,2.346 -1.278,4.683 -1.803,7.091 -0.409,1.879 -0.692,3.251 -0.956,4.547l-3.413 18.727 -2.531 0 3.503 -19.225c0.627,-3.079 1.25,-6.081 2.019,-9.126 0.503,-1.886 1.036,-3.663 1.767,-5.476 1.007,-2.376 2.114,-4.096 4.028,-5.836 2.623,-2.345 5.647,-4.208 8.813,-5.726 3.184,-1.485 6.301,-2.54 9.7,-3.423 4.535,-1.128 8.946,-1.772 13.599,-2.179 3.416,-0.251 6.708,-0.369 10.133,-0.397 3.425,0.028 6.718,0.146 10.134,0.397 4.653,0.407 9.062,1.051 13.598,2.179 3.403,0.883 6.512,1.94 9.701,3.423 3.187,1.532 6.166,3.371 8.813,5.726 1.923,1.765 3.009,3.436 4.026,5.836 0.732,1.801 1.271,3.6 1.768,5.476 0.771,3.043 1.393,6.049 2.018,9.126l3.504 19.225z"/>
   <path class="fil5" d="M201.026 226.54l-83.899 136.907c-11.089,18.059 -31.015,30.106 -53.76,30.106 -34.822,0 -63.052,-28.229 -63.052,-63.051 0,-3.621 0.315,-7.168 0.9,-10.622l27.051 -158.275 172.76 64.935z"/>
   <path class="fil6" d="M358.951 226.54l83.898 136.907c11.089,18.059 31.015,30.106 53.761,30.106 34.822,0 63.051,-28.229 63.051,-63.051 0,-3.621 -0.314,-7.168 -0.9,-10.622l-27.05 -158.275 -172.76 64.935z"/>
   <path class="fil7" d="M121.038 81.133c52.986,0 95.939,42.953 95.939,95.939 0,25.222 -9.734,48.168 -25.648,65.292l-1.854 3.025c-17.452,18.118 -41.958,29.393 -69.102,29.393 -51.463,0 -93.457,-40.52 -95.829,-91.395l3.722 -21.782 147.871 55.58 -1.998 -117.421 -106.665 0 0.476 -2.61c15.203,-10.12 33.455,-16.021 53.088,-16.021z"/>
   <path class="fil7" d="M438.943 81.129c19.63,0 37.881,5.9 53.083,16.018l0.477 2.617 -106.665 0 -1.998 117.421 147.871 -55.58 3.725 21.801c-2.384,50.865 -44.373,91.372 -95.828,91.372 -27.153,0 -51.667,-11.282 -69.12,-29.411l-1.855 -3.027c-15.904,-17.122 -25.63,-40.06 -25.63,-65.271 0,-52.987 42.953,-95.94 95.94,-95.94z"/>
   <circle class="fil3" cx="121.038" cy="177.072" r="75.591"/>
   <path id="press-arrows" class="fil3 shd0" d="M121.038 101.482c41.748,0 75.59,33.843 75.59,75.59 0,41.748 -33.842,75.591 -75.59,75.591 -41.748,0 -75.591,-33.843 -75.591,-75.591 0,-41.747 33.843,-75.59 75.591,-75.59zm-6.746 129.812c-1.012,0 -1.517,1.22 -0.802,1.935l5.939 5.939c0.884,0.884 2.324,0.884 3.208,0l5.939 -5.939c0.715,-0.715 0.209,-1.935 -0.802,-1.935l-13.482 0zm60.963 -47.479c0,1.011 1.221,1.516 1.936,0.801l5.939 -5.939c0.883,-0.883 0.883,-2.324 0,-3.207l-5.939 -5.939c-0.715,-0.715 -1.936,-0.209 -1.936,0.802l0 13.482zm-108.442 -0.003l0 -13.481c0,-1.011 -1.221,-1.518 -1.936,-0.802l-5.939 5.939c-0.883,0.883 -0.883,2.324 0,3.207l5.939 5.939c0.715,0.715 1.936,0.21 1.936,-0.802zm47.481 -60.961l13.482 0c1.011,0 1.517,-1.22 0.802,-1.936l-5.939 -5.939c-0.883,-0.883 -2.324,-0.883 -3.207,0l-5.94 5.939c-0.715,0.716 -0.209,1.936 0.802,1.936z"/>
   <path id="press-cross-l" class="fil3 shd0" d="M121.038 92.033c46.966,0 85.039,38.073 85.039,85.039 0,46.967 -38.073,85.04 -85.039,85.04 -46.966,0 -85.039,-38.073 -85.039,-85.04 0,-46.966 38.073,-85.039 85.039,-85.039zm-24.619 113.784l0.001 36.733c0,2.272 1.858,4.132 4.131,4.132l40.968 0c2.273,0 4.132,-1.86 4.132,-4.132l-0.001 -36.733c0,-2.273 1.86,-4.133 4.133,-4.133l36.732 0.001c2.273,0 4.133,-1.86 4.133,-4.133l0 -40.965c0,-2.273 -1.86,-4.133 -4.133,-4.133l-36.732 -0.001c-2.273,0 -4.133,-1.859 -4.133,-4.133l0.001 -36.731c0,-2.273 -1.859,-4.132 -4.132,-4.132l-40.968 0c-2.273,0 -4.131,1.859 -4.131,4.132l-0.001 36.731c0,2.273 -1.86,4.133 -4.133,4.133l-36.731 0.001c-2.273,0 -4.133,1.86 -4.133,4.133l0 40.965c0,2.273 1.86,4.133 4.133,4.133l36.731 -0.001c2.273,0 4.133,1.86 4.133,4.133z"/>
   <path class="fil3" d="M121.038 83.023c51.943,0 94.05,42.107 94.05,94.049 0,51.943 -42.107,94.05 -94.05,94.05 -51.943,0 -94.05,-42.107 -94.05,-94.05 0,-51.942 42.107,-94.049 94.05,-94.049zm0 18.459c-41.748,0 -75.591,33.843 -75.591,75.59 0,41.748 33.843,75.591 75.591,75.591 41.748,0 75.59,-33.843 75.59,-75.591 0,-41.747 -33.842,-75.59 -75.59,-75.59z"/>
   <circle class="fil3" cx="438.939" cy="177.072" r="75.591"/>
   <path id="press-cross-r" class="fil3 shd0" d="M438.939 92.033c46.966,0 85.039,38.073 85.039,85.039 0,46.967 -38.073,85.04 -85.039,85.04 -46.966,0 -85.039,-38.073 -85.039,-85.04 0,-46.966 38.073,-85.039 85.039,-85.039zm-24.612 113.783l0 36.733c0,2.272 1.859,4.132 4.132,4.132l40.968 0c2.273,0 4.132,-1.859 4.132,-4.132l-0.001 -36.733c0,-2.273 1.86,-4.133 4.133,-4.133l36.732 0.001c2.273,0 4.133,-1.86 4.133,-4.133l0 -40.965c0,-2.272 -1.86,-4.133 -4.133,-4.133l-36.732 0c-2.273,0 -4.133,-1.86 -4.133,-4.133l0.001 -36.732c0,-2.273 -1.859,-4.132 -4.132,-4.132l-40.968 0c-2.273,0 -4.132,1.859 -4.132,4.132l0 36.732c0,2.273 -1.86,4.133 -4.133,4.133l-36.731 0c-2.273,0 -4.133,1.861 -4.133,4.133l0 40.965c0,2.273 1.86,4.133 4.133,4.133l36.731 -0.001c2.273,0 4.133,1.861 4.133,4.133z"/>
   <path class="fil3" d="M438.939 83.023c51.943,0 94.05,42.107 94.05,94.049 0,51.943 -42.107,94.05 -94.05,94.05 -51.943,0 -94.05,-42.107 -94.05,-94.05 0,-51.942 42.107,-94.049 94.05,-94.049zm0 18.459c-41.748,0 -75.591,33.843 -75.591,75.59 0,41.748 33.843,75.591 75.591,75.591 41.748,0 75.591,-33.843 75.591,-75.591 0,-41.747 -33.843,-75.59 -75.591,-75.59z"/>
   <path class="fil8" d="M121.038 83.023c51.943,0 94.05,42.107 94.05,94.049 0,0.38 -0.01,0.756 -0.015,1.134 -0.608,-51.419 -42.471,-92.916 -94.035,-92.916 -51.564,0 -93.427,41.497 -94.036,92.916 -0.004,-0.378 -0.014,-0.754 -0.014,-1.134 0,-51.942 42.107,-94.049 94.05,-94.049z"/>
   <path class="fil8" d="M438.939 83.023c51.943,0 94.05,42.107 94.05,94.049 0,0.38 -0.01,0.756 -0.015,1.134 -0.608,-51.419 -42.471,-92.916 -94.035,-92.916 -51.564,0 -93.427,41.497 -94.035,92.916 -0.005,-0.378 -0.015,-0.754 -0.015,-1.134 0,-51.942 42.107,-94.049 94.05,-94.049z"/>
   <polygon id="press-L" class="fil9 shd1" points="117.041,73.517 125.746,73.517 125.746,71.433 119.449,71.433 119.449,59.931 117.041,59.931 "/>
   <path id="press-R" class="fil9 shd1" d="M434.066 73.52l2.408 0 0 -4.946 2.735 0c0.025,0 0.044,0 0.062,0l2.554 4.946 2.633 0 -2.816 -5.382c1.602,-0.653 2.56,-2.01 2.56,-3.867 0,-2.67 -1.854,-4.34 -4.84,-4.34l-5.296 0 0 13.589zm2.408 -6.925l0 -4.63 2.754 0c1.62,0 2.622,0.887 2.622,2.306 0,1.428 -1.002,2.324 -2.607,2.324l-2.769 0z"/>
  </g>
  <g id="print">
   <path id="sony" class="fil10" d="M265.779 137.842c-3.584,0 -6.906,-1.067 -9.12,-3.058 -1.579,-1.419 -2.482,-3.443 -2.482,-5.566 0,-0.029 0.001,-0.059 0.001,-0.086 0,-0.006 0,-0.013 0,-0.018 0,-2.137 0.901,-4.177 2.481,-5.615 2.056,-1.868 5.694,-3.055 9.12,-3.055 3.79,0 6.825,0.955 9.144,3.059 1.559,1.424 2.448,3.441 2.448,5.553 0,0.025 0,0.05 0,0.075 -0.011,2.139 -0.896,4.183 -2.448,5.653 -2.161,2.003 -5.554,3.059 -9.144,3.059l0 -2.29c1.9,0 3.664,-0.656 4.895,-1.882 1.232,-1.226 1.792,-2.712 1.792,-4.547 0,-1.752 -0.615,-3.389 -1.792,-4.547 -1.215,-1.197 -3.021,-1.871 -4.895,-1.871 -1.874,0 -3.687,0.668 -4.903,1.871 -1.172,1.16 -1.779,2.803 -1.779,4.547 -0.001,0.043 -0.002,0.089 -0.002,0.133 0,1.646 0.638,3.229 1.781,4.414 1.215,1.212 3.017,1.882 4.903,1.882l0 2.289zm-26.172 -17.398c-1.916,0 -4.093,0.36 -5.932,1.187 -1.716,0.766 -3.114,1.998 -3.114,4.041 0,0.003 0,0.006 0,0.01 0,1.066 0.408,2.092 1.137,2.868 0.497,0.459 1.298,1.238 3.389,1.696 0.936,0.198 2.934,0.517 4.925,0.726 1.991,0.21 3.921,0.395 4.711,0.607 0.629,0.16 1.687,0.378 1.687,1.564 0,1.186 -1.113,1.542 -1.307,1.619 -0.194,0.077 -1.53,0.69 -3.93,0.69 -1.588,-0.042 -3.169,-0.316 -4.681,-0.804 -0.895,-0.32 -1.835,-0.741 -2.71,-1.81 -0.353,-0.505 -0.55,-1.103 -0.564,-1.718l-2.174 0.001 0 6.089 2.416 0 0 -0.825c0,0 0,-0.001 0,-0.002 0,-0.19 0.154,-0.344 0.344,-0.344 0.063,0 0.124,0.017 0.178,0.05 1.136,0.495 2.324,0.881 3.534,1.143 1.269,0.265 2.09,0.457 3.668,0.457 0.095,0 0.2,0.002 0.298,0.002 1.564,0 3.123,-0.237 4.618,-0.697 1.054,-0.288 2.048,-0.781 2.919,-1.442 0.987,-0.756 1.565,-1.929 1.565,-3.172 0,-0.011 0,-0.022 0,-0.032 0,-0.01 0,-0.021 0,-0.031 0,-1.165 -0.454,-2.284 -1.264,-3.12 -0.454,-0.441 -0.982,-0.802 -1.558,-1.066 -0.617,-0.278 -1.263,-0.505 -1.922,-0.671 -1.253,-0.306 -4.068,-0.689 -5.415,-0.824 -1.411,-0.146 -3.861,-0.35 -4.84,-0.652 -0.296,-0.093 -0.901,-0.38 -0.901,-1.082 0,-0.5 0.276,-0.923 0.822,-1.265 0.868,-0.543 2.62,-0.882 4.446,-0.882 0.049,0.001 0.106,0 0.156,0 1.715,0 3.418,0.344 4.997,1.007 0.437,0.19 0.851,0.437 1.226,0.732 0.612,0.523 1.037,1.233 1.208,2.02l1.951 0 0 -5.301 -2.175 0 0 0.615c0,0.198 -0.198,0.459 -0.593,0.243 -0.98,-0.51 -3.736,-1.613 -7.115,-1.627zm47.744 0.973l10.629 9.591 -0.109 -6.457c-0.012,-0.849 -0.166,-1.203 -1.083,-1.203l-1.997 0 0 -1.931 9.094 0 0 1.931 -1.951 0c-0.933,0 -0.989,0.301 -1.004,1.203l0.164 12.339 -3.114 0 -12.244 -10.926 0 7.752c0.01,0.845 0.049,1.242 0.917,1.242l2.175 0 0 1.932 -8.915 0 0 -1.932 2.088 0c0.779,0 0.747,-0.744 0.747,-1.285l0 -9.049c0,-0.593 -0.083,-1.273 -1.305,-1.273l-1.692 0 0 -1.934 7.6 0zm26.91 13.537c0,0 0,0 0,0 0.18,0 0.359,-0.012 0.538,-0.034 0.187,-0.056 0.34,-0.192 0.419,-0.371 0.027,-0.138 0.041,-0.278 0.041,-0.418l0 -3.054c0,-0.103 0,-0.105 -0.13,-0.267 -0.131,-0.162 -5.568,-6.327 -5.815,-6.604 -0.308,-0.336 -0.85,-0.856 -1.674,-0.856l-1.889 0.001 0 -1.934 10.657 0 0 1.929 -1.285 0c-0.297,0 -0.495,0.283 -0.241,0.593 0,0 3.586,4.291 3.62,4.336 0.033,0.046 0.063,0.056 0.109,0.014 0.045,-0.041 3.675,-4.31 3.702,-4.35 0.049,-0.064 0.076,-0.142 0.076,-0.223 0,-0.205 -0.166,-0.37 -0.37,-0.37 -0.007,0 -0.014,0 -0.022,0l-1.319 0 0 -1.929 8.737 0 0 1.934 -1.951 0c-0.708,0 -0.989,0.13 -1.529,0.731l-5.881 6.71c-0.048,0.07 -0.074,0.152 -0.074,0.237 0,0.016 0.001,0.032 0.003,0.048l0 3.052c0,0.14 0.015,0.281 0.043,0.418 0.077,0.179 0.23,0.316 0.417,0.371 0.169,0.022 0.341,0.034 0.512,0.034 0.007,0 0.015,0 0.022,0l1.995 0 0 1.933 -10.601 0 0 -1.933 1.89 0.002z"/>
   <path id="ps" class="fil10" d="M295.547 174.227c-0.619,0.781 -2.135,1.338 -2.135,1.338 0,0 -11.278,4.051 -11.278,4.051 0,0 0,-2.988 0,-2.988 0,0 8.3,-2.957 8.3,-2.957 0.942,-0.338 1.086,-0.815 0.321,-1.065 -0.765,-0.251 -2.148,-0.179 -3.091,0.16 0,0 -5.53,1.948 -5.53,1.948 0,0 0,-3.101 0,-3.101 0,0 0.318,-0.108 0.318,-0.108 0,0 1.599,-0.566 3.846,-0.814 2.247,-0.248 4.999,0.033 7.159,0.852 2.434,0.77 2.708,1.903 2.09,2.684l0 0zm-12.34 -5.087c0,0 0,-7.64 0,-7.64 0,-0.898 -0.165,-1.724 -1.007,-1.958 -0.645,-0.206 -1.045,0.393 -1.045,1.289 0,0 0,19.134 0,19.134 0,0 -5.16,-1.638 -5.16,-1.638 0,0 0,-22.814 0,-22.814 2.194,0.408 5.39,1.37 7.109,1.95 4.37,1.5 5.851,3.367 5.851,7.575 0,4.1 -2.531,5.655 -5.748,4.102l0 0zm-16.68 7.176c-2.499,-0.704 -2.915,-2.17 -1.776,-3.015 1.053,-0.78 2.843,-1.367 2.843,-1.367 0,0 7.399,-2.631 7.399,-2.631 0,0 0,2.999 0,2.999 0,0 -5.325,1.906 -5.325,1.906 -0.94,0.337 -1.085,0.815 -0.321,1.066 0.765,0.25 2.15,0.179 3.092,-0.159 0,0 2.554,-0.927 2.554,-0.927 0,0 0,2.683 0,2.683 -0.162,0.029 -0.343,0.057 -0.51,0.086 -2.555,0.417 -5.275,0.243 -7.956,-0.641l0 0z"/>
   <path id="playstation" class="fil10" d="M249.542 184.678l0 9.072 1.416 0 0 -8.203 1.311 0c0,0 0.953,0 1.279,0.426 0.277,0.362 0.328,1.018 0.328,1.461 0,0.475 -0.031,1.208 -0.19,1.476 -0.241,0.41 -0.638,0.492 -1,0.492l-0.866 0 0 0.806 1.244 0c0,0 1.123,0.047 1.606,-0.444 0.592,-0.602 0.743,-1.411 0.743,-2.494 0,-0.984 -0.357,-1.977 -1.087,-2.314 -0.604,-0.278 -1.694,-0.278 -1.694,-0.278l-3.09 0zm6.984 9.072l1.416 0 0 -9.072 -1.416 0 0 9.072zm8.95 -6.956l2.591 6.791 -1.487 3.643 1.175 0 4.284 -10.434 -1.312 0 -1.866 5.086 -1.736 -5.086 -1.649 0zm7.629 6.902l0 -0.857c0,0 1.498,0.059 1.81,0.059 0.691,0 1.036,-0.148 1.296,-0.426 0.153,-0.167 0.292,-0.908 0.292,-1.171 0,-0.263 -0.05,-0.831 -0.153,-1.064 -0.106,-0.228 -0.348,-0.441 -0.71,-0.472 -0.257,-0.022 -0.657,-0.074 -1.123,-0.096 -0.654,-0.031 -1.086,-0.372 -1.294,-0.617 -0.207,-0.246 -0.483,-0.616 -0.483,-1.747 0,-1.133 0.293,-1.768 0.586,-2.062 0.294,-0.296 0.724,-0.426 1.054,-0.484 0.38,-0.065 1.001,-0.069 1.001,-0.069l1.982 0.057 0 0.858c0,0 -1.446,-0.058 -1.757,-0.058 -0.691,0 -0.898,0.148 -1.157,0.426 -0.153,0.165 -0.272,0.623 -0.272,0.885 0,0.263 0.03,0.796 0.134,1.026 0.103,0.228 0.346,0.442 0.708,0.474 0.257,0.02 0.657,0.072 1.122,0.093 0.657,0.031 1.089,0.372 1.295,0.618 0.208,0.246 0.485,0.765 0.485,1.895 0,1.133 -0.295,1.942 -0.587,2.238 -0.295,0.294 -0.724,0.426 -1.054,0.483 -0.381,0.065 -1.001,0.07 -1.001,0.07l-2.174 -0.059zm7.728 -8.149l-1.416 0 0 6.66c0,0 0.034,0.608 0.069,0.822 0.035,0.214 0.346,0.721 1.158,0.721l1.466 -0.028 0 -0.855c0,0 -0.397,0.029 -0.637,0.029 -0.243,0 -0.537,-0.016 -0.587,-0.426 -0.053,-0.411 -0.053,-0.901 -0.053,-0.901l0 -3.922 1.599 0 0 -0.853 -1.599 0 0 -1.247m13.667 8.203l1.416 0 0 -6.956 -1.416 0 0 6.956zm0 -7.81l1.416 0 0 -1.262 -1.416 0 0 1.262zm5.89 0.794c0.963,0 1.711,0.216 2.112,0.541 0.405,0.325 0.903,1.011 0.903,2.997 0,1.987 -0.498,2.672 -0.903,2.999 -0.402,0.324 -1.149,0.541 -2.112,0.541 -0.966,0 -1.71,-0.217 -2.114,-0.541 -0.405,-0.327 -0.901,-1.012 -0.901,-2.999 0,-1.986 0.496,-2.672 0.901,-2.997 0.404,-0.325 1.148,-0.541 2.114,-0.541zm-0.971 1.334c-0.194,0.241 -0.432,0.744 -0.432,2.204 0,1.46 0.238,1.965 0.432,2.204 0.194,0.237 0.552,0.398 1.015,0.398 0.464,0 0.82,-0.161 1.017,-0.398 0.194,-0.239 0.431,-0.745 0.431,-2.204 0,-1.46 -0.237,-1.964 -0.431,-2.203 -0.197,-0.239 -0.553,-0.398 -1.017,-0.398 -0.463,0 -0.821,0.159 -1.015,0.398m6.919 -0.298l1.389 -0.059c0.363,0 0.791,0.098 0.998,0.361 0.193,0.248 0.315,0.543 0.315,1.019l0 4.65 1.418 0 0 -4.767c0,-0.902 -0.278,-1.426 -0.694,-1.755 -0.594,-0.471 -1.658,-0.426 -1.658,-0.426l-3.172 0.057 0 6.891 1.404 0 0 -5.971zm-14.658 -2.224l-1.416 0 0 6.66c0,0 0.033,0.608 0.067,0.822 0.036,0.214 0.344,0.721 1.159,0.721l1.467 -0.028 0 -0.855c0,0 -0.398,0.029 -0.639,0.029 -0.241,0 -0.536,-0.016 -0.587,-0.426 -0.051,-0.411 -0.051,-0.901 -0.051,-0.901l0 -3.922 1.595 0 0 -0.853 -1.595 0 0 -1.247zm-28.364 3.545c0,-0.476 -0.121,-0.771 -0.316,-1.019 -0.207,-0.263 -0.633,-0.361 -0.997,-0.361l-1.868 0.059 0 -0.92 2.247 -0.057c0,0 1.064,-0.046 1.659,0.426 0.415,0.329 0.69,0.853 0.69,1.755l0 4.701 -2.713 0.059c0,0 -1.229,0.004 -1.848,-0.247 -0.603,-0.245 -0.932,-0.919 -0.932,-1.854 0,-0.902 0.276,-1.427 0.69,-1.756 0.595,-0.471 1.658,-0.425 1.658,-0.425l0.867 0 0 0.801 -0.486 0c-0.364,0 -0.738,0.068 -0.947,0.33 -0.194,0.246 -0.297,0.459 -0.297,0.935 0,0.624 0.12,0.903 0.414,1.115 0.26,0.189 0.725,0.23 1.243,0.23l0.936 -0.057 0 -3.715zm23.878 0c0,-0.476 -0.118,-0.771 -0.313,-1.019 -0.21,-0.263 -0.636,-0.361 -0.997,-0.361l-1.867 0.059 0 -0.92 2.246 -0.057c0,0 1.063,-0.046 1.657,0.426 0.415,0.329 0.692,0.853 0.692,1.755l0 4.701 -2.714 0.059c0,0 -1.23,0.004 -1.848,-0.247 -0.604,-0.245 -0.934,-0.919 -0.934,-1.854 0,-0.902 0.279,-1.427 0.691,-1.756 0.594,-0.471 1.659,-0.425 1.659,-0.425l0.866 0 0 0.801 -0.487 0c-0.361,0 -0.738,0.068 -0.944,0.33 -0.195,0.246 -0.299,0.459 -0.299,0.935 0,0.624 0.122,0.903 0.415,1.115 0.258,0.189 0.726,0.23 1.244,0.23l0.934 -0.057 -0.001 -3.715z"/>
   <path class="fil10" d="M300.972 234.47c2.072,0 3.362,-1.032 3.362,-2.66 0,-1.282 -0.812,-2.036 -2.622,-2.44l-0.886 -0.204c-1.14,-0.264 -1.592,-0.592 -1.592,-1.178 0,-0.714 0.686,-1.21 1.656,-1.21 1.022,0 1.692,0.556 1.756,1.474l1.466 0c-0.052,-1.732 -1.26,-2.782 -3.216,-2.782 -1.932,0 -3.21,1.038 -3.21,2.594 0,1.224 0.8,1.99 2.546,2.388l0.94 0.212c1.168,0.268 1.626,0.626 1.626,1.24 0,0.768 -0.722,1.258 -1.814,1.258 -1.216,0 -1.944,-0.626 -1.954,-1.68l-1.514 0c0,1.868 1.292,2.988 3.456,2.988zm3.86 -7.526l2.718 0 0 7.394 1.548 0 0 -7.394 2.706 0 0 -1.34 -6.972 0 0 1.34zm6.156 7.394l1.664 0 0.714 -2.088 3.388 0 0.696 2.088 1.706 0 -3.106 -8.736 -1.944 0 -3.118 8.736zm2.812 -3.36l0.422 -1.23c0.264,-0.804 0.528,-1.642 0.856,-2.744 0.328,1.102 0.586,1.94 0.844,2.744l0.41 1.23 -2.532 0zm6.166 3.36l1.548 0 0 -3.18 1.758 0c0.016,0 0.028,0 0.04,0l1.642 3.18 1.692 0 -1.81 -3.46c1.03,-0.42 1.646,-1.292 1.646,-2.486 0,-1.716 -1.192,-2.79 -3.112,-2.79l-3.404 0 0 8.736zm1.548 -4.452l0 -2.976 1.77 0c1.042,0 1.686,0.57 1.686,1.482 0,0.918 -0.644,1.494 -1.676,1.494l-1.78 0zm5.46 -2.942l2.718 0 0 7.394 1.548 0 0 -7.394 2.706 0 0 -1.34 -6.972 0 0 1.34z"/>
   <path class="fil10" d="M226.627 234.47c2.072,0 3.362,-1.032 3.362,-2.66 0,-1.282 -0.812,-2.036 -2.622,-2.44l-0.886 -0.204c-1.14,-0.264 -1.592,-0.592 -1.592,-1.178 0,-0.714 0.686,-1.21 1.656,-1.21 1.022,0 1.692,0.556 1.756,1.474l1.466 0c-0.052,-1.732 -1.26,-2.782 -3.216,-2.782 -1.932,0 -3.21,1.038 -3.21,2.594 0,1.224 0.8,1.99 2.546,2.388l0.94 0.212c1.168,0.268 1.626,0.626 1.626,1.24 0,0.768 -0.722,1.258 -1.814,1.258 -1.216,0 -1.944,-0.626 -1.954,-1.68l-1.514 0c0,1.868 1.292,2.988 3.456,2.988zm33.722 -7.526l2.718 0 0 7.394 1.548 0 0 -7.394 2.706 0 0 -1.34 -6.972 0 0 1.34zm-29.2 7.392l6.064 0 0 -1.34 -4.516 0 0 -2.426 4.176 0 0 -1.32 -4.176 0 0 -2.306 4.516 0 0 -1.34 -6.064 0 0 8.732zm7.184 0l5.596 0 0 -1.34 -4.048 0 0 -7.394 -1.548 0 0 8.734zm6.598 0l6.064 0 0 -1.34 -4.516 0 0 -2.426 4.176 0 0 -1.32 -4.176 0 0 -2.306 4.516 0 0 -1.34 -6.064 0 0 8.732zm10.986 0.132c1.968,0 3.468,-1.218 3.762,-3.118l-1.57 0c-0.246,1.104 -1.068,1.73 -2.18,1.73 -1.606,0 -2.566,-1.234 -2.566,-3.104 0,-1.882 0.966,-3.116 2.566,-3.116 1.118,0 1.94,0.632 2.174,1.742l1.576 0c-0.294,-1.906 -1.794,-3.13 -3.762,-3.13 -2.408,0 -4.114,1.768 -4.114,4.504 0,2.718 1.706,4.492 4.114,4.492z"/>
  </g>
  <g id="holes">
   <path class="fil11" d="M236.737 203.871l17.018 0c2.742,0 4.984,2.242 4.984,4.983l0 7.062c0,2.741 -2.242,4.983 -4.984,4.983l-17.018 0c-2.741,0 -4.983,-2.242 -4.983,-4.983l0 -7.062c0,-2.741 2.242,-4.983 4.983,-4.983z"/>
   <path class="fil11" d="M327.9 208.198l-22.948 -4.791c-1.037,-0.216 -2.018,0.022 -2.84,0.691 -0.822,0.668 -1.256,1.58 -1.256,2.639l0 10.952c0,1.06 0.434,1.971 1.256,2.639 0.821,0.669 1.803,0.907 2.84,0.691l22.947 -4.785c1.594,-0.332 2.707,-1.701 2.707,-3.33l0 -1.377c0,-1.628 -1.112,-2.997 -2.706,-3.329z"/>
   <path class="fil11" d="M136.533 135.729c0,-3.312 -2.71,-6.021 -6.022,-6.021l-18.957 0c-3.312,0 -6.022,2.71 -6.022,6.021l0 14.198c0,1.815 0.69,3.38 2.03,4.604l9.396 8.584c2.318,2.117 5.841,2.117 8.159,-0.001l9.388 -8.583c1.34,-1.225 2.028,-2.787 2.028,-4.603l0 -14.199zm0 82.686c0,3.312 -2.71,6.021 -6.022,6.021l-18.957 0c-3.312,0 -6.022,-2.71 -6.022,-6.021l0 -14.198c0,-1.815 0.69,-3.38 2.03,-4.604l9.396 -8.583c2.318,-2.118 5.841,-2.118 8.159,0.001l9.388 8.582c1.34,1.225 2.028,2.788 2.028,4.603l0 14.199zm-56.843 -56.843c-3.312,0 -6.021,2.71 -6.021,6.022l0 18.957c0,3.312 2.71,6.022 6.021,6.022l14.198 0c1.815,0 3.38,-0.69 4.604,-2.03l8.584 -9.396c2.117,-2.318 2.117,-5.841 -0.002,-8.159l-8.582 -9.388c-1.225,-1.34 -2.788,-2.028 -4.603,-2.028l-14.199 0zm82.686 0c3.312,0 6.021,2.71 6.021,6.022l0 18.957c0,3.312 -2.71,6.022 -6.021,6.022l-14.198 0c-1.815,0 -3.38,-0.69 -4.604,-2.03l-8.584 -9.396c-2.117,-2.318 -2.117,-5.841 0.002,-8.159l8.582 -9.388c1.225,-1.34 2.788,-2.028 4.603,-2.028l14.199 0z"/>
   <circle class="fil12" cx="438.94" cy="221.906" r="20.409"/>
   <circle class="fil12" cx="483.776" cy="177.072" r="20.409"/>
   <circle class="fil12" cx="394.106" cy="177.072" r="20.409"/>
   <circle class="fil12" cx="438.94" cy="132.237" r="20.409"/>
  </g>
  <g id="dpad">
   <g>
    <path class="fil13" d="M135.399 135.729c0,-2.686 -2.202,-4.887 -4.888,-4.887l-18.957 0c-2.687,0 -4.888,2.2 -4.888,4.887l0 14.198c0,1.493 0.554,2.761 1.656,3.77l9.398 8.58c1.884,1.721 4.75,1.727 6.635,0.004l9.388 -8.583c1.103,-1.008 1.656,-2.276 1.656,-3.77l0 -14.199z"/>
    <path class="fil14" d="M121.039 161.689c0.733,0 1.466,-0.265 2.046,-0.796l9.388 -8.583c0.709,-0.648 1.037,-1.424 1.037,-2.382l0 -14.199c0,-1.643 -1.355,-2.998 -2.999,-2.998l-18.943 0c-1.644,0 -2.999,1.355 -2.999,2.998l0 14.199c0,0.958 0.328,1.734 1.037,2.382l9.388 8.583c0.58,0.531 1.313,0.796 2.045,0.796z"/>
    <path class="fil15" d="M121.039 160.744c0.528,0 1.021,-0.189 1.411,-0.545l9.388 -8.582c0.509,-0.466 0.727,-1.002 0.727,-1.689l0 -14.199c0,-1.124 -0.929,-2.053 -2.054,-2.053l-18.943 0c-1.123,0 -2.054,0.93 -2.054,2.053l0 14.199c0,0.687 0.217,1.222 0.727,1.689l9.388 8.582c0.39,0.356 0.883,0.545 1.41,0.545zm0 1.89c-0.991,0 -1.949,-0.378 -2.68,-1.047l-9.388 -8.583c-0.907,-0.828 -1.347,-1.85 -1.347,-3.076l0 -14.199c0,-2.16 1.782,-3.942 3.944,-3.942l18.943 0c2.164,0 3.943,1.779 3.943,3.942l0 14.199c0,1.227 -0.439,2.246 -1.346,3.076l-9.388 8.583c-0.732,0.669 -1.688,1.047 -2.681,1.047z"/>
   </g>
   <g>
    <path class="fil16" d="M79.69 162.706c-2.686,0 -4.887,2.202 -4.887,4.888l0 18.957c0,2.687 2.2,4.888 4.887,4.888l7.1 0 1.889 -14.367 -1.889 -14.366 -7.1 0z"/>
    <path class="fil17" d="M86.79 191.439l7.098 0c1.493,0 2.761,-0.554 3.77,-1.656l8.58 -9.398c1.721,-1.884 1.727,-4.75 0.004,-6.635l-8.583 -9.388c-1.008,-1.103 -2.277,-1.656 -3.77,-1.656l-7.099 0 -1.89 14.366 1.89 14.367z"/>
    <path class="fil18" d="M105.65 177.066c0,-0.732 -0.265,-1.466 -0.796,-2.046l-8.583 -9.388c-0.648,-0.709 -1.424,-1.037 -2.382,-1.037l-14.199 0c-1.643,0 -2.998,1.355 -2.998,2.999l0 18.944c0,1.643 1.355,2.998 2.998,2.998l14.199 0c0.958,0 1.734,-0.328 2.382,-1.037l8.583 -9.387c0.531,-0.581 0.796,-1.314 0.796,-2.046z"/>
    <path class="fil19" d="M104.705 177.066c0,-0.528 -0.189,-1.021 -0.545,-1.411l-8.583 -9.388c-0.466,-0.51 -1.001,-0.727 -1.688,-0.727l-14.199 0c-1.125,0 -2.053,0.929 -2.053,2.054l0 18.944c0,1.122 0.93,2.053 2.053,2.053l14.199 0c0.687,0 1.222,-0.217 1.688,-0.726l8.583 -9.388c0.356,-0.39 0.545,-0.884 0.545,-1.411zm1.889 0c0,0.992 -0.378,1.948 -1.046,2.68l-8.583 9.388c-0.83,0.907 -1.849,1.347 -3.076,1.347l-14.199 0c-2.161,0 -3.943,-1.782 -3.943,-3.943l0 -18.944c0,-2.164 1.78,-3.943 3.943,-3.943l14.199 0c1.226,0 2.248,0.44 3.076,1.346l8.583 9.388c0.668,0.731 1.046,1.689 1.046,2.681z"/>
   </g>
   <g>
    <path class="fil16" d="M162.376 162.706l-7.099 0 -1.89 14.366 1.89 14.367 7.099 0c2.69,0 4.887,-2.199 4.887,-4.888l0 -18.957c0,-2.686 -2.201,-4.888 -4.887,-4.888z"/>
    <path class="fil17" d="M155.277 162.706l-7.1 0c-1.493,0 -2.762,0.553 -3.77,1.656l-8.583 9.388c-1.723,1.885 -1.717,4.751 0.004,6.635l8.583 9.396c1.002,1.105 2.277,1.658 3.767,1.658l7.099 0 1.89 -14.367 -1.89 -14.366z"/>
    <path class="fil18" d="M136.416 177.066c0,-0.732 0.265,-1.466 0.796,-2.046l8.583 -9.388c0.648,-0.709 1.424,-1.037 2.382,-1.037l14.199 0c1.643,0 2.998,1.355 2.998,2.999l0 18.944c0,1.643 -1.355,2.998 -2.998,2.998l-14.199 0c-0.958,0 -1.734,-0.328 -2.382,-1.037l-8.583 -9.387c-0.531,-0.581 -0.796,-1.314 -0.796,-2.046z"/>
    <path class="fil19" d="M135.472 177.066c0,-0.993 0.378,-1.949 1.046,-2.681l8.583 -9.388c0.829,-0.907 1.849,-1.346 3.076,-1.346l14.199 0c2.161,0 3.943,1.781 3.943,3.943l0 18.944c0,2.163 -1.78,3.943 -3.943,3.943l-14.199 0c-1.228,0 -2.246,-0.44 -3.076,-1.347l-8.583 -9.388c-0.668,-0.732 -1.046,-1.688 -1.046,-2.68zm1.889 0c0,0.527 0.189,1.021 0.545,1.411l8.583 9.388c0.466,0.509 1.001,0.726 1.688,0.726l14.199 0c1.125,0 2.053,-0.929 2.053,-2.053l0 -18.944c0,-1.122 -0.93,-2.054 -2.053,-2.054l-14.199 0c-0.687,0 -1.222,0.217 -1.688,0.727l-8.583 9.388c-0.356,0.39 -0.545,0.883 -0.545,1.411z"/>
   </g>
   <g>
    <path class="fil20" d="M135.399 218.415l0 -14.199c0,-1.493 -0.553,-2.761 -1.656,-3.77l-9.388 -8.583c-1.885,-1.723 -4.751,-1.717 -6.635,0.004l-9.396 8.583c-1.105,1.002 -1.658,2.278 -1.658,3.767l0 14.198c0,2.69 2.199,4.888 4.888,4.888l18.957 0c2.686,0 4.888,-2.202 4.888,-4.888z"/>
    <path class="fil21" d="M121.039 192.456c0.733,0 1.466,0.264 2.046,0.795l9.388 8.583c0.709,0.648 1.037,1.425 1.037,2.382l0 14.199c0,1.643 -1.355,2.998 -2.999,2.998l-18.943 0c-1.644,0 -2.999,-1.355 -2.999,-2.998l0 -14.199c0,-0.957 0.328,-1.734 1.037,-2.382l9.388 -8.583c0.58,-0.531 1.313,-0.795 2.045,-0.795z"/>
    <path class="fil22" d="M121.039 191.511c0.993,0 1.949,0.378 2.681,1.046l9.388 8.583c0.907,0.83 1.346,1.849 1.346,3.076l0 14.199c0,2.161 -1.781,3.943 -3.943,3.943l-18.943 0c-2.164,0 -3.944,-1.78 -3.944,-3.943l0 -14.199c0,-1.226 0.44,-2.248 1.347,-3.076l9.388 -8.583c0.731,-0.668 1.689,-1.046 2.68,-1.046zm0 1.889c-0.527,0 -1.02,0.189 -1.41,0.545l-9.388 8.583c-0.51,0.466 -0.727,1.001 -0.727,1.688l0 14.199c0,1.125 0.929,2.053 2.054,2.053l18.943 0c1.122,0 2.054,-0.93 2.054,-2.053l0 -14.199c0,-0.687 -0.218,-1.222 -0.727,-1.688l-9.388 -8.583c-0.39,-0.356 -0.883,-0.545 -1.411,-0.545z"/>
   </g>
  </g>
  <path class="fil23" d="M492.503 99.764c20.696,14.366 35.349,36.826 39.372,62.801l26.886 157.315c0.586,3.454 0.9,7.001 0.9,10.622 0,34.822 -28.229,63.051 -63.051,63.051 -22.746,0 -42.672,-12.047 -53.761,-30.106l-59.869 -97.696c-2.293,-3.647 -5.341,-6.055 -9.198,-7.916 -5.719,-2.658 -11.854,-3.558 -18.101,-3.896 -1.483,-0.06 -2.944,-0.094 -4.429,-0.105l-142.527 0c-1.485,0.011 -2.946,0.045 -4.43,0.105 -6.231,0.338 -12.396,1.239 -18.099,3.896 -3.848,1.847 -6.914,4.282 -9.198,7.915l-59.871 97.697c-11.089,18.059 -31.015,30.106 -53.76,30.106 -34.822,0 -63.052,-28.229 -63.052,-63.051 0,-3.621 0.315,-7.168 0.9,-10.622l26.899 -157.389c4.039,-25.945 18.684,-48.374 39.36,-62.727l3.504 -19.225c0.625,-3.077 1.247,-6.083 2.018,-9.126 0.497,-1.876 1.036,-3.675 1.768,-5.476 1.017,-2.4 2.103,-4.071 4.026,-5.836 2.184,-1.943 4.594,-3.535 7.161,-4.893l0.001 -0.007c0.167,-1.065 0.815,-3.165 1.162,-4.186 0.722,-2.168 1.798,-2.974 3.775,-3.911 2.245,-1.038 4.57,-1.866 6.96,-2.503 5.161,-1.387 10.389,-1.96 15.71,-2.29 2.497,-0.124 4.967,-0.197 7.468,-0.197 2.501,0 4.971,0.073 7.468,0.197 5.287,0.327 10.589,0.909 15.718,2.286 2.394,0.639 4.71,1.467 6.96,2.504 1.951,0.921 3.055,1.737 3.78,3.911 0.347,1.022 0.996,3.121 1.162,4.187l0.001 0.006c2.564,1.355 5.001,2.962 7.165,4.896 1.914,1.74 3.021,3.46 4.028,5.836 0.731,1.813 1.264,3.59 1.767,5.476 0.769,3.045 1.392,6.047 2.019,9.126l2.997 16.446 -0.002 -0.096c1.045,0.455 2.066,0.852 3.145,1.22 6.729,2.212 13.652,2.855 20.7,3.004l2.014 0.017 160.079 0 2.015 -0.017c7.044,-0.149 13.973,-0.792 20.699,-3.004 1.078,-0.368 2.1,-0.766 3.145,-1.22l-0.002 0.096 2.997 -16.446c0.627,-3.079 1.25,-6.081 2.019,-9.126 0.503,-1.886 1.036,-3.663 1.767,-5.476 1.007,-2.376 2.114,-4.096 4.028,-5.836 2.164,-1.934 4.6,-3.541 7.164,-4.896l0.001 -0.006c0.167,-1.066 0.816,-3.165 1.163,-4.187 0.725,-2.174 1.828,-2.99 3.779,-3.911 2.251,-1.037 4.567,-1.865 6.96,-2.504 5.129,-1.377 10.431,-1.959 15.719,-2.286 2.496,-0.124 4.967,-0.197 7.468,-0.197 2.5,0 4.971,0.073 7.468,0.197 5.321,0.33 10.549,0.903 15.71,2.29 2.389,0.637 4.714,1.465 6.96,2.503 1.977,0.937 3.052,1.743 3.775,3.911 0.347,1.021 0.995,3.121 1.162,4.186l0.001 0.007c2.567,1.358 4.977,2.95 7.161,4.893 1.923,1.765 3.009,3.436 4.026,5.836 0.732,1.801 1.271,3.6 1.768,5.476 0.771,3.043 1.393,6.049 2.018,9.126l3.504 19.225zm-255.766 104.107c-2.741,0 -4.983,2.242 -4.983,4.983l0 7.062c0,2.741 2.242,4.983 4.983,4.983l17.018 0c2.742,0 4.984,-2.242 4.984,-4.983l0 -7.062c0,-2.741 -2.242,-4.983 -4.984,-4.983l-17.018 0zm91.163 4.327l-22.948 -4.791c-1.037,-0.216 -2.018,0.022 -2.84,0.691 -0.822,0.668 -1.256,1.58 -1.256,2.639l0 10.952c0,1.06 0.434,1.971 1.256,2.639 0.821,0.669 1.803,0.907 2.84,0.691l22.947 -4.785c1.594,-0.332 2.707,-1.701 2.707,-3.33l0 -1.377c0,-1.628 -1.112,-2.997 -2.706,-3.329zm-191.367 -72.469c0,-3.312 -2.71,-6.021 -6.022,-6.021l-18.957 0c-3.312,0 -6.022,2.71 -6.022,6.021l0 14.198c0,1.815 0.69,3.38 2.03,4.604l9.396 8.584c2.318,2.117 5.841,2.117 8.159,-0.001l9.388 -8.583c1.34,-1.225 2.028,-2.787 2.028,-4.603l0 -14.199zm0 82.686l0 -14.199c0,-1.815 -0.688,-3.378 -2.028,-4.603l-9.388 -8.582c-2.318,-2.119 -5.841,-2.119 -8.159,-0.001l-9.396 8.583c-1.34,1.224 -2.03,2.789 -2.03,4.604l0 14.198c0,3.311 2.71,6.021 6.022,6.021l18.957 0c3.312,0 6.022,-2.709 6.022,-6.021zm-56.843 -56.843c-3.312,0 -6.021,2.71 -6.021,6.022l0 18.957c0,3.312 2.71,6.022 6.021,6.022l14.198 0c1.815,0 3.38,-0.69 4.604,-2.03l8.584 -9.396c2.117,-2.318 2.117,-5.841 -0.002,-8.159l-8.582 -9.388c-1.225,-1.34 -2.788,-2.028 -4.603,-2.028l-14.199 0zm82.686 0l-14.199 0c-1.815,0 -3.378,0.688 -4.603,2.028l-8.582 9.388c-2.119,2.318 -2.119,5.841 -0.002,8.159l8.584 9.396c1.224,1.34 2.789,2.03 4.604,2.03l14.198 0c3.311,0 6.021,-2.71 6.021,-6.022l0 -18.957c0,-3.312 -2.709,-6.022 -6.021,-6.022zm276.564 39.925c-11.272,0 -20.409,9.138 -20.409,20.409 0,11.272 9.137,20.41 20.409,20.41 11.272,0 20.41,-9.138 20.41,-20.41 0,-11.271 -9.138,-20.409 -20.41,-20.409zm44.836 -44.835c-11.272,0 -20.409,9.138 -20.409,20.41 0,11.271 9.137,20.409 20.409,20.409 11.272,0 20.409,-9.138 20.409,-20.409 0,-11.272 -9.137,-20.41 -20.409,-20.41zm-89.67 0c-11.272,0 -20.41,9.138 -20.41,20.41 0,11.271 9.138,20.409 20.41,20.409 11.272,0 20.409,-9.138 20.409,-20.409 0,-11.272 -9.137,-20.41 -20.409,-20.41zm44.834 -44.834c-11.272,0 -20.409,9.137 -20.409,20.409 0,11.272 9.137,20.409 20.409,20.409 11.272,0 20.41,-9.137 20.41,-20.409 0,-11.272 -9.138,-20.409 -20.41,-20.409z"/>
 </g>
</svg>
