<?xml version="1.0" encoding="UTF-8"?>
<!DOCTYPE svg PUBLIC "-//W3C//DTD SVG 1.1//EN" "http://www.w3.org/Graphics/SVG/1.1/DTD/svg11.dtd">
<svg xml:space="preserve" viewBox="0 0 560 394" width="560px" height="394px" version="1.1" style="shape-rendering:geometricPrecision; fill-rule:evenodd; clip-rule:evenodd" xmlns="http://www.w3.org/2000/svg" xmlns:xlink="http://www.w3.org/1999/xlink">
 <defs>
  <style type="text/css">
    .fil26 {fill:red}
  </style>
 </defs>
 <g>
  <g id="button-L1">
   <path class="fil26" d="M85.952 55.201l0.012 0c0.54,-0.285 1.086,-0.56 1.639,-0.826 3.188,-1.483 6.298,-2.54 9.701,-3.423 4.536,-1.128 8.945,-1.772 13.598,-2.179 3.416,-0.251 6.709,-0.369 10.134,-0.397 3.425,0.028 6.717,0.146 10.133,0.397 4.653,0.407 9.064,1.051 13.599,2.179 3.399,0.883 6.516,1.938 9.7,3.423 0.551,0.264 1.097,0.538 1.637,0.824l0.01 0c-0.113,-1.1 -0.239,-2.182 -0.412,-3.274 -0.166,-1.065 -0.403,-2.159 -0.75,-3.181 -0.725,-2.173 -1.829,-2.99 -3.78,-3.911 -2.25,-1.037 -4.566,-1.864 -6.96,-2.503 -5.129,-1.378 -10.431,-1.96 -15.718,-2.286 -2.497,-0.124 -4.967,-0.198 -7.468,-0.198 -2.501,0 -4.971,0.074 -7.468,0.198 -5.321,0.33 -10.549,0.903 -15.71,2.289 -2.39,0.638 -4.715,1.466 -6.96,2.504 -1.977,0.937 -3.053,1.743 -3.775,3.91 -0.347,1.021 -0.584,2.115 -0.751,3.18 -0.172,1.092 -0.298,2.175 -0.411,3.274z"/>
  </g>
 </g>
</svg>
