<?xml version="1.0" encoding="UTF-8"?>
<!DOCTYPE svg PUBLIC "-//W3C//DTD SVG 1.1//EN" "http://www.w3.org/Graphics/SVG/1.1/DTD/svg11.dtd">
<svg xml:space="preserve" viewBox="0 0 594 394" width="594px" height="394px" version="1.1" style="shape-rendering:geometricPrecision; fill-rule:evenodd; clip-rule:evenodd" xmlns="http://www.w3.org/2000/svg" xmlns:xlink="http://www.w3.org/1999/xlink">
 <defs>
  <style type="text/css">
    .fil5 {fill:#4D4D4D}
    .fil3 {fill:black;fill-opacity:0.3}
    .fil6 {fill:white;fill-opacity:0.5}
  </style>
 </defs>
 <g>
  <g id="button-start">
   <path class="fil5" d="M361.69 174.164l-22.948 -4.79c-0.706,-0.147 -1.337,0.005 -1.897,0.459 -0.558,0.453 -0.835,1.045 -0.835,1.763l0 10.952c0,0.717 0.278,1.31 0.835,1.762 0.559,0.455 1.192,0.607 1.897,0.46l22.947 -4.785c1.073,-0.223 1.804,-1.128 1.804,-2.222l0 -1.377c0,-1.095 -0.73,-1.998 -1.803,-2.222z"/>
   <path class="fil3" d="M336.01 181.792l0 0.756c0,0.717 0.278,1.31 0.835,1.762 0.559,0.455 1.192,0.607 1.897,0.46l22.947 -4.785c1.073,-0.223 1.804,-1.128 1.804,-2.222l0 -0.756c0,1.094 -0.731,1.999 -1.804,2.222l-22.947 4.785c-0.705,0.147 -1.338,-0.005 -1.897,-0.46 -0.557,-0.452 -0.835,-1.045 -0.835,-1.762z"/>
   <path class="fil6" d="M361.69 174.164l-22.948 -4.79c-0.706,-0.147 -1.337,0.005 -1.897,0.459 -0.558,0.453 -0.835,1.045 -0.835,1.763l0 0.756c0,-0.718 0.277,-1.31 0.835,-1.763 0.56,-0.455 1.191,-0.607 1.897,-0.46l22.948 4.791c1.073,0.223 1.803,1.127 1.803,2.222l0 -0.756c0,-1.095 -0.73,-1.998 -1.803,-2.222z"/>
  </g>
 </g>
</svg>
