<?xml version="1.0" encoding="UTF-8"?>
<!DOCTYPE svg PUBLIC "-//W3C//DTD SVG 1.1//EN" "http://www.w3.org/Graphics/SVG/1.1/DTD/svg11.dtd">
<svg xml:space="preserve" viewBox="0 0 594 394" width="594px" height="394px" version="1.1" style="shape-rendering:geometricPrecision; fill-rule:evenodd; clip-rule:evenodd" xmlns="http://www.w3.org/2000/svg" xmlns:xlink="http://www.w3.org/1999/xlink">
 <defs>
  <style type="text/css">
    .fil0 {fill:red}
    .fil1 {fill:white}
  </style>
 </defs>
 <g>
  <path class="fil0" d="M156.096 55.205l-0.001 -0.006c-0.166,-1.066 -0.815,-3.165 -1.162,-4.187 -0.725,-2.174 -1.829,-2.99 -3.78,-3.911 -2.25,-1.037 -4.566,-1.865 -6.96,-2.504 -5.129,-1.377 -10.431,-1.959 -15.718,-2.286 -2.497,-0.124 -4.967,-0.197 -7.468,-0.197 -2.501,0 -4.971,0.073 -7.468,0.197 -5.321,0.33 -10.549,0.903 -15.71,2.29 -2.39,0.637 -4.715,1.465 -6.96,2.503 -1.977,0.937 -3.053,1.743 -3.775,3.911 -0.347,1.021 -0.995,3.121 -1.162,4.186l-0.001 0.007c-2.567,1.358 -4.977,2.95 -7.161,4.893 -1.923,1.765 -3.009,3.436 -4.026,5.836 -0.732,1.801 -1.271,3.6 -1.768,5.476 -0.771,3.043 -1.393,6.049 -2.018,9.126l-3.504 19.225c-20.677,14.352 -35.32,36.784 -39.36,62.727l-26.899 157.389c-0.585,3.454 -0.9,7.001 -0.9,10.622 0,34.822 28.229,63.051 63.052,63.051 22.745,0 42.671,-12.046 53.76,-30.105l45.029 -73.479c10.051,18.322 29.52,30.743 51.892,30.743 25.277,0 46.846,-15.857 55.315,-38.165l55.292 0c8.468,22.308 30.038,38.165 55.314,38.165 22.372,0 41.841,-12.421 51.892,-30.742l45.028 73.478c11.089,18.059 31.015,30.105 53.761,30.105 34.822,0 63.051,-28.229 63.051,-63.051 0,-3.621 -0.314,-7.168 -0.9,-10.622l-26.886 -157.315c-4.022,-25.976 -18.677,-48.435 -39.372,-62.801l-3.504 -19.225c-0.625,-3.077 -1.247,-6.083 -2.018,-9.126 -0.497,-1.876 -1.036,-3.675 -1.768,-5.476 -1.017,-2.4 -2.103,-4.071 -4.026,-5.836 -2.184,-1.943 -4.594,-3.535 -7.161,-4.893l-0.001 -0.007c-0.167,-1.065 -0.815,-3.165 -1.162,-4.186 -0.723,-2.168 -1.798,-2.974 -3.775,-3.911 -2.246,-1.038 -4.571,-1.866 -6.96,-2.503 -5.161,-1.387 -10.389,-1.96 -15.71,-2.29 -2.497,-0.124 -4.968,-0.197 -7.468,-0.197 -2.501,0 -4.972,0.073 -7.468,0.197 -5.288,0.327 -10.59,0.909 -15.719,2.286 -2.393,0.639 -4.709,1.467 -6.96,2.504 -1.951,0.921 -3.054,1.737 -3.779,3.911 -0.347,1.022 -0.996,3.121 -1.163,4.187l-0.001 0.006c-2.564,1.355 -5,2.962 -7.164,4.896 -1.914,1.74 -3.021,3.46 -4.028,5.836 -0.731,1.813 -1.264,3.59 -1.767,5.476 -0.769,3.045 -1.392,6.047 -2.019,9.126l-2.997 16.445 0.002 -0.095c-1.045,0.454 -2.067,0.852 -3.145,1.22 -6.726,2.212 -13.655,2.855 -20.699,3.004l-2.015 0.017 -194.119 0 -2.014 -0.017c-7.048,-0.149 -13.971,-0.792 -20.7,-3.004 -1.079,-0.368 -2.1,-0.765 -3.145,-1.22l0.002 0.095 -2.997 -16.445c-0.627,-3.079 -1.25,-6.081 -2.019,-9.126 -0.503,-1.886 -1.036,-3.663 -1.767,-5.476 -1.007,-2.376 -2.114,-4.096 -4.028,-5.836 -2.164,-1.934 -4.601,-3.541 -7.165,-4.896zm-61.212 -54.68l54.041 0c4.2,0 7.636,3.436 7.636,7.635l0 17.484c0,4.199 -3.436,7.635 -7.636,7.635l-54.041 0c-4.199,0 -7.635,-3.436 -7.635,-7.635l0 -17.484c0,-4.199 3.436,-7.635 7.635,-7.635zm352.323 0l54.041 0c4.2,0 7.635,3.436 7.635,7.635l0 17.484c0,4.199 -3.435,7.635 -7.635,7.635l-54.041 0c-4.2,0 -7.636,-3.436 -7.636,-7.635l0 -17.484c0,-4.199 3.436,-7.635 7.636,-7.635z"/>
  <path class="fil1" d="M296.989 129.476c34.442,0 62.362,27.92 62.362,62.362 0,34.443 -27.92,62.363 -62.362,62.363 -34.443,0 -62.363,-27.92 -62.363,-62.363 0,-34.442 27.92,-62.362 62.363,-62.362zm7.779 65.5c1.137,1.139 1.137,2.996 0,4.133l-5.823 5.824 2.457 2.455c0.868,0.871 0.868,2.281 0,3.151l-5.774 5.772c-5.097,5.097 -12.722,6.121 -18.837,3.074l-12.689 12.691c8.958,7.332 20.407,11.732 32.887,11.732 28.701,0 51.969,-23.268 51.969,-51.97 0,-12.48 -4.4,-23.929 -11.732,-32.887l-12.68 12.68c3.048,6.113 2.024,13.742 -3.073,18.839l-5.775 5.774c-0.867,0.869 -2.277,0.869 -3.148,0l-19.947 -19.95c-0.872,-0.867 -0.872,-2.279 0,-3.148l5.772 -5.774c5.091,-5.09 12.704,-6.12 18.813,-3.085l12.687 -12.688c-8.957,-7.332 -20.408,-11.73 -32.886,-11.73 -28.702,0 -51.97,23.267 -51.97,51.969 0,12.479 4.399,23.929 11.731,32.887l12.696 -12.695c-3.034,-6.11 -2.006,-13.726 3.083,-18.814l5.775 -5.775c0.871,-0.871 2.28,-0.871 3.148,0l2.444 2.443 5.823 -5.824c1.137,-1.137 2.998,-1.137 4.135,0 1.137,1.139 1.137,2.996 0,4.134l-5.823 5.823 6.779 6.782 5.823 -5.823c1.138,-1.137 2.998,-1.137 4.135,0z"/>
 </g>
</svg>
