<?xml version="1.0" encoding="UTF-8"?>
<!DOCTYPE svg PUBLIC "-//W3C//DTD SVG 1.1//EN" "http://www.w3.org/Graphics/SVG/1.1/DTD/svg11.dtd">
<svg xml:space="preserve" viewBox="0 0 594 394" width="594px" height="394px" version="1.1" style="shape-rendering:geometricPrecision; fill-rule:evenodd; clip-rule:evenodd" xmlns="http://www.w3.org/2000/svg" xmlns:xlink="http://www.w3.org/1999/xlink">
 <defs>
  <style type="text/css">
    .fil18 {fill:#1A1A1A}
    .fil22 {fill:#484848}
    .fil16 {fill:#4D4D4D}
    .fil26 {fill:#525252}
    .fil1 {fill:#8F8F8F}
    .fil4 {fill:#D8D8D8}
    .fil6 {fill:#A3A3A3}
    .fil7 {fill:#ADADAD}
    .fil19 {fill:black;fill-opacity:0.5}
    .fil14 {fill:url(#id1)}
    .fil8 {fill:url(#id4)}
    .fil5 {fill:url(#id6)}
    .fil20 {fill:url(#id7)}
    .fil23 {fill:url(#id8)}
    .fil24 {fill:url(#id9)}
    .fil11 {fill:url(#id10)}
    .fil15 {fill:url(#id11)}
    .fil17 {fill:url(#id12)}
    .fil21 {fill:url(#id13)}
    .fil3 {fill:url(#id14)}
    .fil25 {fill:url(#id15)}
    .fil13 {fill:url(#id17)}
    .fil10 {fill:url(#id18)}
    .fil2 {fill:url(#id19)}
    .fil0 {fill:url(#id20)}
    .fil30 {fill:url(#id21)}
    .fil9 {fill:url(#id24)}
    .fil12 {fill:url(#id27)}
    .shd0 {filter: drop-shadow(0px 1px .5px rgba(0, 0, 0, 0.3)) drop-shadow(0px 0px .5px rgba(0, 0, 0, 0.4))}
    .shd1 {filter: drop-shadow(0px 1px .5px rgba(0, 0, 0, 0.3)) drop-shadow(0px 0px .5px rgba(0, 0, 0, 0.4))}
    .shd2 {filter: drop-shadow(0px 2px 2px rgba(0, 0, 0, 0.7)) drop-shadow(0px 0px 2px rgba(0, 0, 0, 0.4))}
  </style>
  <linearGradient id="id1" gradientUnits="userSpaceOnUse" x1="382.21" y1="300.474" x2="382.21" y2="221.104">
   <stop offset="0" style="stop-opacity:1; stop-color:silver"/>
   <stop offset="1" style="stop-opacity:1; stop-color:#666666"/>
  </linearGradient>
  <linearGradient id="id4" gradientUnits="objectBoundingBox" x1="50%" y1="100%" x2="50%" y2="0%">
   <stop offset="0" style="stop-opacity:1; stop-color:#666666"/>
   <stop offset="1" style="stop-opacity:1; stop-color:#D9D9D9"/>
  </linearGradient>
  <linearGradient id="id6" gradientUnits="objectBoundingBox" x1="50%" y1="100%" x2="50%" y2="0%">
   <stop offset="0" style="stop-opacity:1; stop-color:#ADADAD"/>
   <stop offset="0.5" style="stop-opacity:1; stop-color:#ADADAD"/>
   <stop offset="0.8" style="stop-opacity:1; stop-color:#D9D9D9"/>
   <stop offset="1" style="stop-opacity:1; stop-color:#D9D9D9"/>
  </linearGradient>
  <linearGradient id="id7" gradientUnits="objectBoundingBox" x1="50%" y1="100%" x2="50%" y2="0%">
   <stop offset="0" style="stop-opacity:1; stop-color:#333333"/>
   <stop offset="0.05" style="stop-opacity:1; stop-color:#333333"/>
   <stop offset="0.15" style="stop-opacity:1; stop-color:#666666"/>
   <stop offset="0.85" style="stop-opacity:1; stop-color:#666666"/>
   <stop offset="0.95" style="stop-opacity:1; stop-color:#999999"/>
   <stop offset="1" style="stop-opacity:1; stop-color:#999999"/>
  </linearGradient>
  <linearGradient id="id8" gradientUnits="objectBoundingBox" x1="50%" y1="100%" x2="50%" y2="0%">
   <stop offset="0" style="stop-opacity:1; stop-color:#333333"/>
   <stop offset="0.05" style="stop-opacity:1; stop-color:#333333"/>
   <stop offset="0.15" style="stop-opacity:1; stop-color:#666666"/>
   <stop offset="0.85" style="stop-opacity:1; stop-color:gray"/>
   <stop offset="0.95" style="stop-opacity:1; stop-color:#B3B3B3"/>
   <stop offset="1" style="stop-opacity:1; stop-color:#B3B3B3"/>
  </linearGradient>
  <linearGradient id="id9" gradientUnits="objectBoundingBox" x1="50%" y1="100%" x2="50%" y2="1.88986e-14%">
   <stop offset="0" style="stop-opacity:1; stop-color:#333333"/>
   <stop offset="0.05" style="stop-opacity:1; stop-color:#333333"/>
   <stop offset="0.1" style="stop-opacity:1; stop-color:#3C3C3C"/>
   <stop offset="0.4" style="stop-opacity:1; stop-color:#3C3C3C"/>
   <stop offset="0.6" style="stop-opacity:1; stop-color:gray"/>
   <stop offset="0.9" style="stop-opacity:1; stop-color:gray"/>
   <stop offset="0.95" style="stop-opacity:1; stop-color:#B3B3B3"/>
   <stop offset="1" style="stop-opacity:1; stop-color:#B3B3B3"/>
  </linearGradient>
  <linearGradient id="id10" gradientUnits="userSpaceOnUse" xlink:href="#id1" x1="211.763" y1="300.474" x2="211.763" y2="221.104">
  </linearGradient>
  <linearGradient id="id11" gradientUnits="userSpaceOnUse" x1="276.955" y1="229.986" x2="317.018" y2="229.986">
   <stop offset="0" style="stop-opacity:1; stop-color:gray"/>
   <stop offset="0.2" style="stop-opacity:1; stop-color:#666666"/>
   <stop offset="0.8" style="stop-opacity:1; stop-color:#666666"/>
   <stop offset="1" style="stop-opacity:1; stop-color:gray"/>
  </linearGradient>
  <linearGradient id="id12" gradientUnits="userSpaceOnUse" x1="288.482" y1="251.907" x2="305.49" y2="251.907">
   <stop offset="0" style="stop-opacity:1; stop-color:#E00000"/>
   <stop offset="0.1" style="stop-opacity:1; stop-color:#FF1818"/>
   <stop offset="0.5" style="stop-opacity:1; stop-color:#FF5050"/>
   <stop offset="0.9" style="stop-opacity:1; stop-color:#FF1818"/>
   <stop offset="1" style="stop-opacity:1; stop-color:#E00000"/>
  </linearGradient>
  <linearGradient id="id13" gradientUnits="userSpaceOnUse" x1="128.043" y1="167.471" x2="128.043" y2="132.096">
   <stop offset="0" style="stop-opacity:1; stop-color:#333333"/>
   <stop offset="0.3" style="stop-opacity:1; stop-color:#333333"/>
   <stop offset="0.45" style="stop-opacity:1; stop-color:gray"/>
   <stop offset="0.85" style="stop-opacity:1; stop-color:gray"/>
   <stop offset="0.95" style="stop-opacity:1; stop-color:#B3B3B3"/>
   <stop offset="1" style="stop-opacity:1; stop-color:#B3B3B3"/>
  </linearGradient>
  <linearGradient id="id14" gradientUnits="userSpaceOnUse" x1="588.784" y1="236.523" x2="395.569" y2="313.91">
   <stop offset="0" style="stop-opacity:1; stop-color:#8F8F8F"/>
   <stop offset="0.4" style="stop-opacity:1; stop-color:#A3A3A3"/>
   <stop offset="0.85" style="stop-opacity:1; stop-color:#8F8F8F"/>
   <stop offset="1" style="stop-opacity:1; stop-color:#8F8F8F"/>
  </linearGradient>
  <linearGradient id="id15" gradientUnits="userSpaceOnUse" x1="128.043" y1="222.049" x2="128.043" y2="186.661">
   <stop offset="0" style="stop-opacity:1; stop-color:#333333"/>
   <stop offset="0.05" style="stop-opacity:1; stop-color:#333333"/>
   <stop offset="0.15" style="stop-opacity:1; stop-color:gray"/>
   <stop offset="0.55" style="stop-opacity:1; stop-color:gray"/>
   <stop offset="0.7" style="stop-opacity:1; stop-color:#999999"/>
   <stop offset="1" style="stop-opacity:1; stop-color:#999999"/>
  </linearGradient>
  <linearGradient id="id17" gradientUnits="userSpaceOnUse" x1="382.21" y1="298.584" x2="382.21" y2="222.994">
   <stop offset="0" style="stop-opacity:1; stop-color:#232323"/>
   <stop offset="1" style="stop-opacity:1; stop-color:#707070"/>
  </linearGradient>
  <linearGradient id="id18" gradientUnits="userSpaceOnUse" xlink:href="#id17" x1="211.763" y1="298.584" x2="211.763" y2="222.994">
  </linearGradient>
  <linearGradient id="id19" gradientUnits="userSpaceOnUse" xlink:href="#id14" x1="5.189" y1="236.523" x2="198.403" y2="313.91">
  </linearGradient>
  <linearGradient id="id20" gradientUnits="userSpaceOnUse" x1="296.989" y1="278.364" x2="296.989" y2="89.387">
   <stop offset="0" style="stop-opacity:1; stop-color:#666666"/>
   <stop offset="0.08" style="stop-opacity:1; stop-color:#868686"/>
   <stop offset="0.1" style="stop-opacity:1; stop-color:#9A9A9A"/>
   <stop offset="0.9" style="stop-opacity:1; stop-color:#ADADAD"/>
   <stop offset="0.92" style="stop-opacity:1; stop-color:#CCCCCC"/>
   <stop offset="1" style="stop-opacity:1; stop-color:gray"/>
  </linearGradient>
  <linearGradient id="id21" gradientUnits="userSpaceOnUse" xlink:href="#id16" x1="433.796" y1="17.739" x2="498.048" y2="17.739">
  </linearGradient>
  <linearGradient id="id24" gradientUnits="userSpaceOnUse" xlink:href="#id4" x1="224.825" y1="319.372" x2="224.825" y2="202.358">
  </linearGradient>
  <linearGradient id="id27" gradientUnits="userSpaceOnUse" xlink:href="#id4" x1="379.251" y1="319.372" x2="379.251" y2="202.358">
  </linearGradient>
 </defs>
 <g>
  <g id="shell">
   <path class="fil0" d="M128.041 89.387l150.072 0c5.733,2.682 12.128,4.184 18.876,4.184 6.747,0 13.143,-1.502 18.876,-4.184l150.066 0 0 188.977 -337.89 0 0 -188.977z"/>
   <rect class="fil1" x="289.051" y="95.46" width="15.874" height="5.669"/>
   <path class="fil2" d="M38.822 156.928l164.576 71.982 -95.661 139.051c-11.425,16.606 -29.845,25.539 -48.582,25.545 -32.563,0.01 -58.963,-26.398 -58.961,-58.961 0.001,-4.283 0.475,-8.632 1.458,-12.985l37.17 -164.632z"/>
   <path class="fil3" d="M555.15 156.928l-164.576 71.982 95.661 139.051c11.425,16.606 29.845,25.539 48.582,25.545 32.563,0.01 58.963,-26.398 58.961,-58.961 -0.001,-4.283 -0.475,-8.632 -1.458,-12.985l-37.17 -164.632z"/>
   <path class="fil4" d="M94.078 55.872l67.921 -0.002c-2.095,-2.132 -2.493,-6.696 -3.883,-8.178 -0.409,-0.437 -0.998,-0.798 -1.772,-1.201 -1.007,-0.514 -2.055,-0.984 -3.14,-1.413 -1.096,-0.433 -2.182,-0.807 -3.258,-1.124 -2.377,-0.703 -4.821,-1.208 -7.299,-1.58 -2.505,-0.376 -5.014,-0.614 -7.511,-0.784 -1.232,-0.068 -2.414,-0.121 -3.54,-0.155 -1.039,-0.031 -2.217,-0.048 -3.564,-0.048 -1.347,0 -2.524,0.017 -3.564,0.048 -1.125,0.034 -2.308,0.087 -3.54,0.154 -2.513,0.173 -5.012,0.409 -7.507,0.785 -2.468,0.371 -4.902,0.876 -7.294,1.584 -1.9,0.558 -6.838,2.31 -8.172,3.738 -1.4,1.499 -1.791,6.14 -3.877,8.176z"/>
   <path class="fil4" d="M431.976 55.872l67.915 -0.002c-2.092,-2.13 -2.49,-6.7 -3.877,-8.178 -0.41,-0.437 -0.998,-0.799 -1.772,-1.201 -1.007,-0.514 -2.055,-0.984 -3.14,-1.413 -1.096,-0.433 -2.182,-0.807 -3.258,-1.124 -2.377,-0.703 -4.822,-1.208 -7.299,-1.58 -2.505,-0.376 -5.014,-0.614 -7.511,-0.784 -1.231,-0.068 -2.414,-0.121 -3.54,-0.155 -1.039,-0.031 -2.217,-0.048 -3.564,-0.048 -1.346,0 -2.524,0.017 -3.564,0.048 -1.125,0.034 -2.308,0.087 -3.54,0.154 -2.512,0.173 -5.012,0.409 -7.507,0.785 -2.467,0.371 -4.901,0.876 -7.295,1.584 -1.899,0.558 -6.837,2.31 -8.171,3.738 -1.381,1.478 -1.767,6.056 -3.877,8.176z"/>
   <path class="fil5" d="M77.018 101.151l102.047 0 -3.338 -19.672c-0.597,-3.151 -1.19,-6.222 -1.923,-9.338 -0.479,-1.93 -0.987,-3.749 -1.683,-5.604 -0.959,-2.43 -2.014,-4.191 -3.837,-5.971 -2.499,-2.399 -5.379,-4.306 -8.395,-5.859 -3.034,-1.519 -6.002,-2.599 -9.24,-3.503 -4.321,-1.154 -8.523,-1.813 -12.955,-2.23 -3.254,-0.256 -6.39,-0.377 -9.653,-0.406 -3.262,0.029 -6.4,0.15 -9.653,0.406 -4.433,0.417 -8.633,1.076 -12.954,2.23 -3.242,0.904 -6.204,1.985 -9.242,3.503 -3.035,1.567 -5.873,3.449 -8.395,5.859 -1.832,1.806 -2.866,3.515 -3.835,5.971 -0.697,1.843 -1.211,3.684 -1.684,5.604 -0.735,3.114 -1.327,6.189 -1.923,9.338l-3.337 19.672z"/>
   <path class="fil5" d="M414.907 101.151l102.047 0 -3.337 -19.672c-0.598,-3.151 -1.191,-6.222 -1.923,-9.338 -0.48,-1.93 -0.987,-3.749 -1.684,-5.604 -0.959,-2.43 -2.014,-4.191 -3.836,-5.971 -2.5,-2.399 -5.38,-4.306 -8.396,-5.859 -3.033,-1.519 -6.002,-2.599 -9.24,-3.503 -4.32,-1.154 -8.523,-1.813 -12.955,-2.23 -3.254,-0.256 -6.39,-0.377 -9.653,-0.406 -3.262,0.029 -6.4,0.15 -9.653,0.406 -4.433,0.417 -8.633,1.076 -12.954,2.23 -3.242,0.904 -6.204,1.985 -9.241,3.503 -3.036,1.567 -5.874,3.449 -8.396,5.859 -1.831,1.806 -2.866,3.515 -3.835,5.971 -0.697,1.843 -1.21,3.684 -1.684,5.604 -0.734,3.114 -1.327,6.189 -1.923,9.338l-3.337 19.672z"/>
   <path class="fil6" d="M80.843 101.151l94.396 0 -3.236 -19.074c-0.336,-1.774 -0.653,-3.435 -0.877,-4.542 -0.486,-2.391 -1.008,-4.816 -1.699,-7.161 -0.512,-1.734 -1.118,-3.521 -2.089,-5.058 -0.447,-0.706 -0.982,-1.364 -1.666,-2.034 -1.101,-1.056 -2.289,-2.006 -3.532,-2.862 -2.546,-1.754 -5.22,-3.083 -8.109,-4.167 -3.395,-1.275 -6.86,-2.117 -10.438,-2.72 -3.693,-0.621 -7.149,-0.93 -10.87,-1.083 -1.61,-0.066 -3.159,-0.104 -4.682,-0.117 -1.523,0.013 -3.072,0.051 -4.682,0.117 -3.715,0.153 -7.19,0.465 -10.87,1.083 -3.593,0.605 -7.017,1.442 -10.424,2.721 -2.925,1.098 -5.544,2.39 -8.122,4.167 -1.878,1.294 -3.95,2.941 -5.198,4.91 -0.963,1.519 -1.585,3.323 -2.092,5.042 -0.69,2.338 -1.214,4.777 -1.697,7.162 -0.227,1.119 -0.545,2.788 -0.881,4.564l-3.232 19.052z"/>
   <path class="fil6" d="M513.129 101.151l-94.396 0 3.236 -19.074c0.336,-1.774 0.653,-3.435 0.877,-4.542 0.486,-2.391 1.008,-4.816 1.699,-7.161 0.512,-1.734 1.118,-3.521 2.089,-5.058 0.447,-0.706 0.982,-1.364 1.666,-2.034 1.101,-1.056 2.289,-2.006 3.532,-2.862 2.546,-1.754 5.22,-3.083 8.109,-4.167 3.395,-1.275 6.86,-2.117 10.438,-2.72 3.693,-0.621 7.149,-0.93 10.87,-1.083 1.61,-0.066 3.159,-0.104 4.682,-0.117 1.523,0.013 3.072,0.051 4.682,0.117 3.715,0.153 7.19,0.465 10.87,1.083 3.593,0.605 7.017,1.442 10.424,2.721 2.925,1.098 5.544,2.39 8.122,4.167 1.878,1.294 3.95,2.941 5.198,4.91 0.963,1.519 1.585,3.323 2.092,5.042 0.69,2.338 1.214,4.777 1.698,7.162 0.226,1.119 0.545,2.788 0.88,4.564l3.232 19.052z"/>
   <polygon id="press-L" class="fil7 shd0" points="124.047,75.762 132.751,75.762 132.751,73.678 126.455,73.678 126.455,62.176 124.047,62.176 "/>
   <path id="press-R" class="fil7 shd0" d="M461.356 75.766l2.26 0 0 -4.947 2.567 0c0.024,0 0.041,0 0.059,0l2.397 4.947 2.471 0 -2.643 -5.382c1.504,-0.654 2.404,-2.01 2.404,-3.867 0,-2.67 -1.741,-4.34 -4.544,-4.34l-4.971 0 0 13.589zm2.26 -6.925l0 -4.63 2.585 0c1.522,0 2.462,0.887 2.462,2.306 0,1.428 -0.94,2.324 -2.447,2.324l-2.6 0z"/>
   <circle class="fil8" cx="128.041" cy="177.072" r="91.465"/>
   <circle class="fil8" cx="465.931" cy="177.072" r="91.465"/>
   <circle class="fil6" cx="128.041" cy="177.072" r="79.37"/>
   <path id="press-arrows" class="fil6 shd1" d="M190.029 177.637l-8.004 8.004c-0.118,0.118 -0.285,0.151 -0.439,0.088 -0.153,-0.064 -0.248,-0.206 -0.248,-0.373l0 -16.577c0,-0.167 0.095,-0.309 0.248,-0.373 0.154,-0.063 0.321,-0.03 0.439,0.088l8.004 8.004c0.314,0.314 0.314,0.825 0,1.139zm-62.547 61.419l-8.005 -8.004c-0.118,-0.118 -0.151,-0.286 -0.087,-0.439 0.063,-0.154 0.206,-0.249 0.372,-0.249l16.578 0c0.166,0 0.309,0.095 0.372,0.249 0.064,0.153 0.03,0.321 -0.087,0.439l-8.005 8.004c-0.313,0.314 -0.825,0.314 -1.138,0zm-61.42 -62.548l8.005 -8.004c0.118,-0.118 0.285,-0.151 0.439,-0.088 0.153,0.064 0.248,0.206 0.248,0.373l0 16.577c0,0.167 -0.095,0.309 -0.248,0.373 -0.154,0.063 -0.321,0.03 -0.439,-0.088l-8.005 -8.004c-0.313,-0.314 -0.313,-0.825 0,-1.139zm62.548 -61.419l8.005 8.004c0.117,0.118 0.151,0.286 0.087,0.439 -0.063,0.154 -0.206,0.249 -0.372,0.249l-16.578 0c-0.166,0 -0.309,-0.095 -0.372,-0.249 -0.064,-0.153 -0.03,-0.321 0.087,-0.439l8.005 -8.004c0.313,-0.314 0.825,-0.314 1.138,0zm-0.569 -17.387c-43.835,0 -79.37,35.536 -79.37,79.37 0,43.835 35.535,79.37 79.37,79.37 43.835,0 79.37,-35.535 79.37,-79.37 0,-43.834 -35.535,-79.37 -79.37,-79.37z"/>
   <path id="press-cross-L" class="fil6 shd1" d="M106.692 110.175c-2.082,0 -3.78,1.698 -3.78,3.779l0 34.205c0,2.082 -1.698,3.78 -3.779,3.78l-34.205 0c-2.082,0 -3.78,1.697 -3.78,3.779l0 42.709c0,2.082 1.698,3.779 3.78,3.779l34.205 0c2.081,0 3.779,1.698 3.779,3.78l0 34.205c0,2.081 1.698,3.779 3.78,3.779l42.708 0c2.082,0 3.78,-1.698 3.78,-3.779l0 -34.205c0,-2.082 1.698,-3.78 3.779,-3.78l34.205 0c2.082,0 3.78,-1.697 3.78,-3.779l0 -42.709c0,-2.082 -1.698,-3.779 -3.78,-3.779l-34.205 0c-2.081,0 -3.779,-1.698 -3.779,-3.78l0 -34.205c0,-2.081 -1.698,-3.779 -3.78,-3.779l-42.708 0zm21.349 -12.473c43.835,0 79.37,35.536 79.37,79.37 0,43.835 -35.535,79.37 -79.37,79.37 -43.835,0 -79.37,-35.535 -79.37,-79.37 0,-43.834 35.535,-79.37 79.37,-79.37z"/>
   <path class="fil6" d="M128.041 89.387c48.427,0 87.685,39.258 87.685,87.685 0,48.427 -39.258,87.685 -87.685,87.685 -48.427,0 -87.685,-39.258 -87.685,-87.685 0,-48.427 39.258,-87.685 87.685,-87.685zm0 12.095c-41.747,0 -75.591,33.843 -75.591,75.59 0,41.747 33.844,75.591 75.591,75.591 41.747,0 75.591,-33.844 75.591,-75.591 0,-41.747 -33.844,-75.59 -75.591,-75.59z"/>
   <circle class="fil6" cx="465.931" cy="177.072" r="79.37"/>
   <path id="press-cross-R" class="fil6 shd1" d="M396.766 198.993c0,2.082 1.697,3.78 3.779,3.78l35.906 0c2.081,0 3.779,1.698 3.779,3.779l0 35.906c0,2.082 1.698,3.78 3.78,3.78l43.842 0c2.082,0 3.78,-1.698 3.78,-3.78l0 -35.906c0,-2.081 1.698,-3.779 3.779,-3.779l35.906 0c2.082,0 3.779,-1.698 3.779,-3.78l0 -43.842c0,-2.082 -1.697,-3.78 -3.779,-3.78l-35.906 0c-2.081,0 -3.779,-1.697 -3.779,-3.779l0 -35.906c0,-2.082 -1.698,-3.779 -3.78,-3.779l-43.842 0c-2.082,0 -3.78,1.697 -3.78,3.779l0 35.906c0,2.082 -1.698,3.779 -3.779,3.779l-35.906 0c-2.082,0 -3.779,1.698 -3.779,3.78l0 43.842zm69.165 -101.291c43.835,0 79.37,35.536 79.37,79.37 0,43.835 -35.535,79.37 -79.37,79.37 -43.835,0 -79.37,-35.535 -79.37,-79.37 0,-43.834 35.535,-79.37 79.37,-79.37z"/>
   <path class="fil6" d="M465.931 89.387c48.427,0 87.685,39.258 87.685,87.685 0,48.427 -39.258,87.685 -87.685,87.685 -48.427,0 -87.685,-39.258 -87.685,-87.685 0,-48.427 39.258,-87.685 87.685,-87.685zm0 12.095c-41.747,0 -75.591,33.843 -75.591,75.59 0,41.747 33.844,75.591 75.591,75.591 41.747,0 75.591,-33.844 75.591,-75.591 0,-41.747 -33.844,-75.59 -75.591,-75.59z"/>
   <path class="fil9" d="M215.966 202.358c30.392,2.155 54.379,27.49 54.379,58.431 0,32.355 -26.228,58.583 -58.582,58.583 -30.94,0 -56.275,-23.985 -58.431,-54.376l3.635 -5.122 53.877 -53.881 5.122 -3.635z"/>
   <circle class="fil6" cx="211.763" cy="260.789" r="47.244"/>
   <circle class="fil10" cx="211.763" cy="260.789" r="37.795"/>
   <path id="shadow-analog-R" class="fil11 shd2" d="M211.763 221.104c-21.918,0 -39.686,17.768 -39.686,39.685 0,21.918 17.768,39.685 39.686,39.685 21.917,0 39.685,-17.767 39.685,-39.685 0,-21.917 -17.768,-39.685 -39.685,-39.685zm0 3.78c19.83,0 35.905,16.075 35.905,35.905 0,19.83 -16.075,35.906 -35.905,35.906 -19.831,0 -35.906,-16.076 -35.906,-35.906 0,-19.83 16.075,-35.905 35.906,-35.905z"/>
   <path class="fil6" d="M211.763 221.104c21.917,0 39.685,17.768 39.685,39.685 0,21.918 -17.768,39.685 -39.685,39.685 -21.918,0 -39.686,-17.767 -39.686,-39.685 0,-21.917 17.768,-39.685 39.686,-39.685zm-54.805 38.781c0.008,0.294 0.001,0.598 0.001,0.904 0,30.267 24.537,54.803 54.804,54.803 30.266,0 54.803,-24.536 54.803,-54.803 0,-30.266 -24.537,-54.803 -54.803,-54.803 -0.307,0 -0.613,0.007 -0.919,0.009 -25.378,8.453 -45.446,28.521 -53.886,53.89z"/>
   <path class="fil12" d="M440.64 264.996c-2.156,30.391 -27.491,54.376 -58.43,54.376 -32.355,0 -58.583,-26.228 -58.583,-58.583 0,-30.941 23.987,-56.276 54.379,-58.431l5.122 3.635 53.877 53.881 3.635 5.122z"/>
   <circle class="fil6" cx="382.21" cy="260.789" r="47.244"/>
   <circle class="fil13" cx="382.209" cy="260.789" r="37.795"/>
   <path id="shadow-analog-R_0" class="fil14 shd2" d="M382.21 221.104c21.917,0 39.685,17.768 39.685,39.685 0,21.918 -17.768,39.685 -39.685,39.685 -21.918,0 -39.686,-17.767 -39.686,-39.685 0,-21.917 17.768,-39.685 39.686,-39.685zm0 3.78c-19.831,0 -35.906,16.075 -35.906,35.905 0,19.83 16.075,35.906 35.906,35.906 19.83,0 35.905,-16.076 35.905,-35.906 0,-19.83 -16.075,-35.905 -35.905,-35.905z"/>
   <path class="fil6" d="M382.21 221.104c-21.918,0 -39.686,17.768 -39.686,39.685 0,21.918 17.768,39.685 39.686,39.685 21.917,0 39.685,-17.767 39.685,-39.685 0,-21.917 -17.768,-39.685 -39.685,-39.685zm54.804 38.783c-0.008,0.292 -0.001,0.596 -0.001,0.902 0,30.267 -24.537,54.803 -54.803,54.803 -30.267,0 -54.804,-24.536 -54.804,-54.803 0,-30.266 24.537,-54.803 54.804,-54.803 0.306,0 0.612,0.007 0.918,0.012 25.378,8.454 45.446,28.522 53.886,53.889z"/>
   <rect class="fil15" x="276.955" y="219.592" width="40.063" height="20.787"/>
   <path class="fil16" d="M284.249 248.127l25.474 0c0.416,0 0.756,0.34 0.756,0.756l0 6.047c0,0.417 -0.34,0.756 -0.756,0.756l-25.474 0c-0.416,0 -0.756,-0.339 -0.756,-0.756l0 -6.047c0,-0.416 0.34,-0.756 0.756,-0.756z"/>
   <path class="fil17" d="M289.238 249.261l15.496 0c0.417,0 0.756,0.34 0.756,0.756l0 3.78c0,0.416 -0.339,0.755 -0.756,0.755l-15.496 0c-0.417,0 -0.756,-0.339 -0.756,-0.755l0 -3.78c0,-0.416 0.339,-0.756 0.756,-0.756z"/>
  </g>
  <g id="holes">
   <path class="fil18" d="M115.947 128.316l24.189 0c3.122,0 5.669,2.547 5.669,5.669l0 19.234c0,1.561 -0.557,2.904 -1.661,4.008l-12.094 12.094c-2.208,2.208 -5.81,2.208 -8.018,0l-12.094 -12.094c-1.104,-1.104 -1.661,-2.448 -1.661,-4.009l0 -19.233c0,-3.122 2.547,-5.669 5.67,-5.669zm35.948 30.992l19.233 0c3.122,0 5.669,2.547 5.669,5.67l0 24.189c0,3.122 -2.547,5.669 -5.669,5.669l-19.233 0c-1.561,0 -2.904,-0.556 -4.008,-1.66l-12.095 -12.095c-2.208,-2.208 -2.208,-5.81 0,-8.018l12.095 -12.094c1.104,-1.104 2.447,-1.661 4.008,-1.661zm-6.09 41.617l0 19.234c0,3.122 -2.547,5.669 -5.669,5.669l-24.189 0c-3.123,0 -5.67,-2.547 -5.67,-5.669l0 -19.233c0,-1.561 0.557,-2.904 1.661,-4.008l12.094 -12.095c2.208,-2.208 5.81,-2.208 8.018,0l12.094 12.094c1.104,1.104 1.661,2.447 1.661,4.008zm-41.617 -6.089l-19.234 0c-3.122,0 -5.669,-2.547 -5.669,-5.669l0 -24.189c0,-3.123 2.547,-5.67 5.669,-5.67l19.234 0c1.561,0 2.904,0.557 4.008,1.661l12.095 12.094c2.208,2.208 2.208,5.81 0,8.018l-12.095 12.095c-1.104,1.104 -2.447,1.66 -4.008,1.66z"/>
   <path class="fil18" d="M234.624 166.678l21.921 0c2.082,0 3.78,1.699 3.78,3.78l0 13.228c0,2.081 -1.699,3.78 -3.78,3.78l-21.921 0c-2.081,0 -3.78,-1.698 -3.78,-3.78l0 -13.228c0,-2.082 1.698,-3.78 3.78,-3.78z"/>
   <path class="fil18" d="M338.228 187.749l23.821 -6.045c2.548,-0.647 3.347,-2.003 3.347,-4.631 0,-2.628 -0.801,-3.987 -3.347,-4.633l-23.821 -6.045c-1.586,-0.403 -3.186,-0.14 -4.57,0.822 -1.384,0.962 -2.278,2.559 -2.278,4.295l0 11.12c0,1.736 0.894,3.334 2.278,4.296 1.384,0.962 2.982,1.224 4.57,0.821z"/>
   <path class="fil18" d="M286.025 219.592l21.922 0c2.081,0 3.779,1.698 3.779,3.779l0 13.229c0,2.081 -1.698,3.779 -3.779,3.779l-21.922 0c-2.081,0 -3.779,-1.698 -3.779,-3.779l0 -13.229c0,-2.081 1.698,-3.779 3.779,-3.779z"/>
   <circle class="fil18" cx="465.93" cy="132.237" r="20.409"/>
   <circle class="fil18" cx="421.096" cy="177.072" r="20.409"/>
   <circle class="fil18" cx="510.766" cy="177.072" r="20.409"/>
   <circle class="fil18" cx="465.93" cy="221.907" r="20.409"/>
  </g>
  <g id="print">
   <path id="sony" class="fil19" d="M282.32 134.344c-3.7,0 -7.129,-1.102 -9.415,-3.157 -1.63,-1.465 -2.562,-3.555 -2.562,-5.747 0,-0.029 0.001,-0.06 0.001,-0.088 0,-0.006 0,-0.013 0,-0.019 0,-2.206 0.93,-4.311 2.561,-5.796 2.123,-1.929 5.878,-3.153 9.415,-3.153 3.912,0 7.045,0.986 9.439,3.157 1.61,1.47 2.528,3.552 2.528,5.733 0,0.025 0,0.052 0,0.078 -0.012,2.207 -0.926,4.317 -2.528,5.835 -2.23,2.068 -5.733,3.158 -9.439,3.158l0 -2.364c1.961,0 3.782,-0.677 5.053,-1.943 1.272,-1.265 1.849,-2.8 1.849,-4.694 0,-1.809 -0.634,-3.498 -1.849,-4.695 -1.255,-1.234 -3.118,-1.93 -5.053,-1.93 -1.935,0 -3.806,0.69 -5.062,1.93 -1.21,1.199 -1.836,2.895 -1.836,4.695 -0.001,0.044 -0.002,0.091 -0.002,0.137 0,1.699 0.659,3.333 1.838,4.556 1.256,1.251 3.115,1.943 5.062,1.943l0 2.364zm-27.018 -17.96c-1.978,0 -4.225,0.371 -6.123,1.224 -1.771,0.792 -3.214,2.064 -3.214,4.172 0,0.003 0,0.007 0,0.01 0,1.101 0.42,2.16 1.174,2.961 0.512,0.474 1.338,1.278 3.498,1.752 0.965,0.204 3.028,0.532 5.084,0.748 2.055,0.217 4.047,0.409 4.863,0.627 0.649,0.165 1.741,0.39 1.741,1.615 0,1.224 -1.149,1.592 -1.349,1.671 -0.2,0.08 -1.58,0.712 -4.058,0.712 -1.638,-0.043 -3.27,-0.326 -4.831,-0.829 -0.925,-0.331 -1.894,-0.765 -2.798,-1.87 -0.364,-0.52 -0.567,-1.138 -0.581,-1.772l-2.245 0 0 6.286 2.494 0 0 -0.851c0,-0.001 0,-0.002 0,-0.002 0,-0.197 0.159,-0.356 0.355,-0.356 0.064,0 0.128,0.018 0.183,0.052 1.174,0.511 2.399,0.909 3.649,1.18 1.31,0.274 2.157,0.472 3.786,0.472 0.099,0 0.207,0.002 0.308,0.002 1.615,0 3.224,-0.245 4.767,-0.72 1.088,-0.298 2.114,-0.806 3.013,-1.488 1.019,-0.781 1.615,-1.992 1.615,-3.275 0,-0.011 0,-0.022 0,-0.033 0,-0.011 0,-0.022 0,-0.032 0,-1.202 -0.468,-2.358 -1.304,-3.221 -0.469,-0.455 -1.014,-0.828 -1.608,-1.1 -0.637,-0.287 -1.304,-0.522 -1.984,-0.692 -1.294,-0.317 -4.2,-0.713 -5.59,-0.851 -1.457,-0.151 -3.986,-0.362 -4.996,-0.674 -0.307,-0.096 -0.931,-0.392 -0.931,-1.116 0,-0.517 0.286,-0.953 0.849,-1.306 0.896,-0.561 2.704,-0.911 4.59,-0.911 0.05,0.001 0.109,0 0.161,0 1.77,0 3.528,0.355 5.159,1.04 0.45,0.196 0.877,0.451 1.264,0.755 0.632,0.54 1.072,1.273 1.247,2.086l2.015 0 0 -5.472 -2.245 0 0 0.634c0,0.205 -0.204,0.474 -0.613,0.251 -1.012,-0.526 -3.857,-1.665 -7.345,-1.679zm49.287 1.004l10.972 9.901 -0.112 -6.666c-0.012,-0.876 -0.172,-1.241 -1.119,-1.241l-2.061 0 0 -1.994 9.388 0 0 1.994 -2.014 0c-0.964,0 -1.021,0.31 -1.037,1.241l0.169 12.737 -3.214 0 -12.64 -11.278 0 8.003c0.011,0.871 0.051,1.281 0.947,1.281l2.245 0 0 1.994 -9.202 0 0 -1.994 2.155 0c0.804,0 0.771,-0.767 0.771,-1.326l0 -9.342c0,-0.612 -0.085,-1.314 -1.347,-1.314l-1.747 0 0 -1.996 7.846 0zm27.779 13.974c0,0 0,0 0,0 0.186,0 0.371,-0.012 0.555,-0.035 0.194,-0.058 0.352,-0.198 0.433,-0.383 0.028,-0.142 0.042,-0.286 0.043,-0.431l0 -3.153c0,-0.106 0,-0.109 -0.135,-0.276 -0.135,-0.167 -5.747,-6.531 -6.002,-6.817 -0.319,-0.347 -0.878,-0.883 -1.729,-0.883l-1.949 0 0 -1.996 11 0 0 1.992 -1.326 0c-0.306,0 -0.51,0.292 -0.249,0.612 0,0 3.702,4.429 3.737,4.476 0.035,0.047 0.065,0.057 0.112,0.014 0.047,-0.043 3.794,-4.449 3.823,-4.49 0.05,-0.066 0.078,-0.148 0.078,-0.231 0,-0.211 -0.171,-0.382 -0.382,-0.382 -0.007,0 -0.015,0 -0.023,0.001l-1.361 0 0 -1.992 9.019 0 0 1.996 -2.015 0c-0.73,0 -1.02,0.135 -1.577,0.755l-6.072 6.927c-0.049,0.072 -0.076,0.157 -0.076,0.244 0,0.017 0.001,0.033 0.003,0.05l0 3.151c0,0.144 0.016,0.289 0.044,0.431 0.08,0.185 0.238,0.326 0.431,0.383 0.174,0.023 0.352,0.035 0.529,0.035 0.007,0 0.015,0 0.022,0l2.059 0 0 1.996 -10.943 0 0 -1.996 1.951 0.002z"/>
   <path id="ps" class="fil19" d="M312.581 165.018c-0.62,0.783 -2.139,1.341 -2.139,1.341 0,0 -11.303,4.06 -11.303,4.06 0,0 0,-2.994 0,-2.994 0,0 8.318,-2.964 8.318,-2.964 0.944,-0.338 1.089,-0.816 0.321,-1.067 -0.765,-0.252 -2.152,-0.18 -3.096,0.16 0,0 -5.543,1.952 -5.543,1.952 0,0 0,-3.107 0,-3.107 0,0 0.319,-0.108 0.319,-0.108 0,0 1.602,-0.567 3.854,-0.817 2.252,-0.248 5.01,0.034 7.174,0.855 2.44,0.771 2.715,1.907 2.095,2.689l0 0zm-12.366 -5.098c0,0 0,-7.656 0,-7.656 0,-0.899 -0.166,-1.727 -1.01,-1.962 -0.646,-0.207 -1.047,0.393 -1.047,1.292 0,0 0,19.174 0,19.174 0,0 -5.171,-1.642 -5.171,-1.642 0,0 0,-22.861 0,-22.861 2.199,0.408 5.402,1.373 7.124,1.953 4.379,1.504 5.864,3.375 5.864,7.591 0,4.11 -2.537,5.668 -5.76,4.111l0 0zm-16.716 7.192c-2.505,-0.705 -2.921,-2.175 -1.78,-3.021 1.055,-0.782 2.849,-1.371 2.849,-1.371 0,0 7.415,-2.636 7.415,-2.636 0,0 0,3.006 0,3.006 0,0 -5.336,1.909 -5.336,1.909 -0.942,0.338 -1.087,0.817 -0.322,1.068 0.767,0.251 2.154,0.18 3.099,-0.159 0,0 2.559,-0.929 2.559,-0.929 0,0 0,2.689 0,2.689 -0.162,0.029 -0.344,0.058 -0.511,0.086 -2.56,0.418 -5.286,0.243 -7.973,-0.642l0 0z"/>
   <path id="playstation" class="fil19" d="M267.52 174.032l0 8.781 1.371 0 0 -7.94 1.268 0c0,0 0.922,0 1.238,0.413 0.268,0.35 0.317,0.985 0.317,1.414 0,0.459 -0.029,1.168 -0.183,1.428 -0.234,0.397 -0.618,0.477 -0.969,0.477l-0.837 0 0 0.779 1.204 0c0,0 1.087,0.045 1.554,-0.43 0.573,-0.582 0.719,-1.365 0.719,-2.413 0,-0.953 -0.346,-1.914 -1.052,-2.24 -0.585,-0.269 -1.639,-0.269 -1.639,-0.269l-2.991 0zm6.759 8.781l1.371 0 0 -8.781 -1.371 0 0 8.781zm8.663 -6.733l2.509 6.573 -1.44 3.526 1.138 0 4.146 -10.099 -1.271 0 -1.806 4.922 -1.68 -4.922 -1.596 0zm7.385 6.681l0 -0.83c0,0 1.449,0.057 1.751,0.057 0.669,0 1.003,-0.143 1.255,-0.413 0.148,-0.161 0.282,-0.878 0.282,-1.133 0,-0.254 -0.049,-0.804 -0.148,-1.03 -0.103,-0.22 -0.336,-0.426 -0.686,-0.456 -0.25,-0.022 -0.637,-0.072 -1.088,-0.093 -0.633,-0.03 -1.051,-0.36 -1.253,-0.598 -0.2,-0.237 -0.467,-0.595 -0.467,-1.69 0,-1.097 0.283,-1.711 0.568,-1.996 0.284,-0.287 0.7,-0.413 1.02,-0.469 0.367,-0.063 0.968,-0.067 0.968,-0.067l1.919 0.056 0 0.83c0,0 -1.399,-0.056 -1.7,-0.056 -0.67,0 -0.87,0.143 -1.121,0.413 -0.148,0.159 -0.263,0.602 -0.263,0.856 0,0.255 0.029,0.77 0.13,0.993 0.099,0.221 0.334,0.428 0.685,0.459 0.249,0.019 0.636,0.07 1.086,0.09 0.636,0.03 1.054,0.36 1.253,0.598 0.202,0.238 0.47,0.74 0.47,1.835 0,1.096 -0.286,1.879 -0.569,2.165 -0.285,0.285 -0.7,0.412 -1.019,0.467 -0.369,0.064 -0.97,0.069 -0.97,0.069l-2.103 -0.057zm7.479 -7.888l-1.37 0 0 6.447c0,0 0.033,0.588 0.067,0.795 0.033,0.207 0.334,0.698 1.12,0.698l1.42 -0.028 0 -0.826c0,0 -0.385,0.027 -0.617,0.027 -0.235,0 -0.52,-0.015 -0.568,-0.413 -0.052,-0.397 -0.052,-0.871 -0.052,-0.871l0 -3.796 1.548 0 0 -0.826 -1.548 0 0 -1.207m13.229 7.94l1.37 0 0 -6.733 -1.37 0 0 6.733zm0 -7.559l1.37 0 0 -1.223 -1.37 0 0 1.223zm5.701 0.769c0.932,0 1.655,0.208 2.044,0.522 0.392,0.315 0.874,0.98 0.874,2.902 0,1.922 -0.482,2.586 -0.874,2.902 -0.389,0.314 -1.112,0.524 -2.044,0.524 -0.935,0 -1.656,-0.21 -2.047,-0.524 -0.392,-0.316 -0.872,-0.98 -0.872,-2.902 0,-1.922 0.48,-2.587 0.872,-2.902 0.391,-0.314 1.112,-0.522 2.047,-0.522zm-0.94 1.29c-0.189,0.233 -0.418,0.721 -0.418,2.134 0,1.412 0.229,1.901 0.418,2.132 0.188,0.23 0.534,0.386 0.982,0.386 0.449,0 0.794,-0.156 0.984,-0.386 0.188,-0.231 0.418,-0.72 0.418,-2.132 0,-1.413 -0.23,-1.901 -0.418,-2.133 -0.19,-0.231 -0.535,-0.385 -0.984,-0.385 -0.448,0 -0.794,0.154 -0.982,0.385m6.697 -0.288l1.344 -0.057c0.351,0 0.765,0.095 0.966,0.349 0.187,0.24 0.305,0.526 0.305,0.986l0 4.501 1.372 0 0 -4.614c0,-0.873 -0.268,-1.38 -0.672,-1.699 -0.575,-0.456 -1.604,-0.412 -1.604,-0.412l-3.071 0.055 0 6.67 1.36 0 0 -5.779zm-14.188 -2.153l-1.371 0 0 6.447c0,0 0.033,0.588 0.066,0.795 0.034,0.207 0.333,0.698 1.121,0.698l1.42 -0.028 0 -0.826c0,0 -0.385,0.027 -0.618,0.027 -0.233,0 -0.519,-0.015 -0.569,-0.413 -0.049,-0.397 -0.049,-0.871 -0.049,-0.871l0 -3.796 1.544 0 0 -0.826 -1.544 0 0 -1.207zm-27.453 3.431c0,-0.46 -0.118,-0.746 -0.306,-0.986 -0.201,-0.254 -0.613,-0.349 -0.966,-0.349l-1.808 0.057 0 -0.891 2.176 -0.055c0,0 1.03,-0.044 1.605,0.412 0.402,0.319 0.668,0.826 0.668,1.699l0 4.55 -2.626 0.057c0,0 -1.189,0.004 -1.789,-0.239 -0.584,-0.237 -0.902,-0.889 -0.902,-1.794 0,-0.874 0.267,-1.381 0.669,-1.7 0.575,-0.457 1.604,-0.411 1.604,-0.411l0.839 0 0 0.775 -0.47 0c-0.353,0 -0.715,0.065 -0.917,0.32 -0.187,0.237 -0.288,0.443 -0.288,0.904 0,0.605 0.117,0.874 0.402,1.08 0.251,0.183 0.701,0.223 1.203,0.223l0.906 -0.056 0 -3.596zm23.111 0c0,-0.46 -0.114,-0.746 -0.303,-0.986 -0.203,-0.254 -0.615,-0.349 -0.965,-0.349l-1.807 0.057 0 -0.891 2.174 -0.055c0,0 1.029,-0.044 1.604,0.412 0.401,0.319 0.669,0.826 0.669,1.699l0 4.55 -2.626 0.057c0,0 -1.191,0.004 -1.789,-0.239 -0.585,-0.237 -0.904,-0.889 -0.904,-1.794 0,-0.874 0.27,-1.381 0.669,-1.7 0.575,-0.457 1.606,-0.411 1.606,-0.411l0.838 0 0 0.775 -0.471 0c-0.35,0 -0.715,0.065 -0.914,0.32 -0.189,0.237 -0.29,0.443 -0.29,0.904 0,0.605 0.118,0.874 0.402,1.08 0.25,0.183 0.703,0.223 1.204,0.223l0.904 -0.056 -0.001 -3.596z"/>
   <path class="fil19" d="M226.965 200.47c2.072,0 3.362,-1.032 3.362,-2.66 0,-1.282 -0.812,-2.036 -2.622,-2.44l-0.886 -0.204c-1.14,-0.264 -1.592,-0.592 -1.592,-1.178 0,-0.714 0.686,-1.21 1.656,-1.21 1.022,0 1.692,0.556 1.756,1.474l1.466 0c-0.052,-1.732 -1.26,-2.782 -3.216,-2.782 -1.932,0 -3.21,1.038 -3.21,2.594 0,1.224 0.8,1.99 2.546,2.388l0.94 0.212c1.168,0.268 1.626,0.626 1.626,1.24 0,0.768 -0.722,1.258 -1.814,1.258 -1.216,0 -1.944,-0.626 -1.954,-1.68l-1.514 0c0,1.868 1.292,2.988 3.456,2.988zm4.522 -0.134l6.064 0 0 -1.34 -4.516 0 0 -2.426 4.176 0 0 -1.32 -4.176 0 0 -2.306 4.516 0 0 -1.34 -6.064 0 0 8.732zm7.184 0l5.596 0 0 -1.34 -4.048 0 0 -7.394 -1.548 0 0 8.734zm6.598 0l6.064 0 0 -1.34 -4.516 0 0 -2.426 4.176 0 0 -1.32 -4.176 0 0 -2.306 4.516 0 0 -1.34 -6.064 0 0 8.732zm10.986 0.132c1.968,0 3.468,-1.218 3.762,-3.118l-1.57 0c-0.246,1.104 -1.068,1.73 -2.18,1.73 -1.606,0 -2.566,-1.234 -2.566,-3.104 0,-1.882 0.966,-3.116 2.566,-3.116 1.118,0 1.94,0.632 2.174,1.742l1.576 0c-0.294,-1.906 -1.794,-3.13 -3.762,-3.13 -2.408,0 -4.114,1.768 -4.114,4.504 0,2.718 1.706,4.492 4.114,4.492zm4.432 -7.524l2.718 0 0 7.394 1.548 0 0 -7.394 2.706 0 0 -1.34 -6.972 0 0 1.34z"/>
   <path class="fil19" d="M334.093 200.47c2.072,0 3.362,-1.032 3.362,-2.66 0,-1.282 -0.812,-2.036 -2.622,-2.44l-0.886 -0.204c-1.14,-0.264 -1.592,-0.592 -1.592,-1.178 0,-0.714 0.686,-1.21 1.656,-1.21 1.022,0 1.692,0.556 1.756,1.474l1.466 0c-0.052,-1.732 -1.26,-2.782 -3.216,-2.782 -1.932,0 -3.21,1.038 -3.21,2.594 0,1.224 0.8,1.99 2.546,2.388l0.94 0.212c1.168,0.268 1.626,0.626 1.626,1.24 0,0.768 -0.722,1.258 -1.814,1.258 -1.216,0 -1.944,-0.626 -1.954,-1.68l-1.514 0c0,1.868 1.292,2.988 3.456,2.988zm3.86 -7.526l2.718 0 0 7.394 1.548 0 0 -7.394 2.706 0 0 -1.34 -6.972 0 0 1.34zm6.156 7.394l1.664 0 0.714 -2.088 3.388 0 0.696 2.088 1.706 0 -3.106 -8.736 -1.944 0 -3.118 8.736zm2.812 -3.36l0.422 -1.23c0.264,-0.804 0.528,-1.642 0.856,-2.744 0.328,1.102 0.586,1.94 0.844,2.744l0.41 1.23 -2.532 0zm6.166 3.36l1.548 0 0 -3.18 1.758 0c0.016,0 0.028,0 0.04,0l1.642 3.18 1.692 0 -1.81 -3.46c1.03,-0.42 1.646,-1.292 1.646,-2.486 0,-1.716 -1.192,-2.79 -3.112,-2.79l-3.404 0 0 8.736zm1.548 -4.452l0 -2.976 1.77 0c1.042,0 1.686,0.57 1.686,1.482 0,0.918 -0.644,1.494 -1.676,1.494l-1.78 0zm5.459 -2.942l2.719 0 0 7.394 1.548 0 0 -7.394 2.705 0 0 -1.34 -6.972 0 0 1.34z"/>
   <path class="fil19" d="M272.601 215.456l1.664 0 0.714 -2.088 3.388 0 0.696 2.088 1.706 0 -3.106 -8.736 -1.944 0 -3.118 8.736zm2.812 -3.36l0.422 -1.23c0.264,-0.804 0.528,-1.642 0.856,-2.744 0.328,1.102 0.586,1.94 0.844,2.744l0.41 1.23 -2.532 0zm6.166 3.36l1.548 0 0 -4.392c0,-0.38 -0.006,-1.13 -0.042,-2.104 0.532,0.944 0.994,1.718 1.24,2.11l2.76 4.386 1.67 0 0 -8.736 -1.548 0 0 4.76c0,0.346 0.012,1.074 0.036,1.73 -0.346,-0.622 -0.732,-1.29 -0.936,-1.618l-3.058 -4.872 -1.67 0 0 8.736zm7.984 0l1.663 0 0.715 -2.088 3.388 0 0.696 2.088 1.706 0 -3.106 -8.736 -1.944 0 -3.118 8.736zm2.812 -3.36l0.421 -1.23c0.265,-0.804 0.528,-1.642 0.856,-2.744 0.329,1.102 0.587,1.94 0.844,2.744l0.411 1.23 -2.532 0zm6.166 3.358l5.596 0 0 -1.34 -4.048 0 0 -7.394 -1.548 0 0 8.734zm10.016 0.132c2.341,0 4.066,-1.774 4.066,-4.492 0,-2.73 -1.725,-4.504 -4.066,-4.504 -2.34,0 -4.071,1.774 -4.071,4.504 0,2.712 1.731,4.492 4.071,4.492zm0 -1.388c-1.431,0 -2.51,-1.116 -2.51,-3.104 0,-1.994 1.079,-3.116 2.51,-3.116 1.426,0 2.505,1.122 2.505,3.116 0,1.988 -1.079,3.104 -2.505,3.104zm9.004 1.388c2.203,0 3.81,-1.506 3.81,-3.624l0 -1.054 -3.552 0 0 1.224 2.028 0c-0.012,1.23 -0.96,2.066 -2.25,2.066 -1.572,0 -2.574,-1.22 -2.574,-3.102 0,-1.89 0.996,-3.118 2.561,-3.118 1.121,0 1.94,0.662 2.159,1.644l1.568 0c-0.251,-1.802 -1.816,-3.032 -3.768,-3.032 -2.345,0 -4.081,1.768 -4.081,4.506 0,2.664 1.677,4.49 4.099,4.49z"/>
  </g>
  <g id="button-analog">
   <path class="fil20" d="M287.159 222.993l19.654 0c1.041,0 1.89,0.849 1.89,1.89l0 10.205c0,1.041 -0.849,1.89 -1.89,1.89l-19.654 0c-1.041,0 -1.89,-0.849 -1.89,-1.89l0 -10.205c0,-1.041 0.849,-1.89 1.89,-1.89z"/>
   <path class="fil16" d="M287.159 223.938l19.654 0c0.52,0 0.945,0.425 0.945,0.945l0 10.205c0,0.52 -0.425,0.945 -0.945,0.945l-19.654 0c-0.52,0 -0.945,-0.425 -0.945,-0.945l0 -10.205c0,-0.52 0.425,-0.945 0.945,-0.945z"/>
  </g>
  <g id="dpad">
   <g>
    <path class="fil21" d="M113.492 152.938l0 -17.063c0,-2.082 1.698,-3.779 3.78,-3.779l21.543 0c2.082,0 3.779,1.697 3.779,3.779l0 17.063c0,1.041 -0.371,1.937 -1.107,2.672l-10.771 10.772c-1.472,1.472 -3.873,1.472 -5.345,0l-10.772 -10.772c-0.736,-0.735 -1.107,-1.631 -1.107,-2.672z"/>
    <path class="fil22" d="M129.381 165.048l10.77 -10.774c0.389,-0.388 0.554,-0.787 0.554,-1.336l0 -17.063c0,-1.038 -0.851,-1.89 -1.89,-1.89l-21.543 0c-1.047,0 -1.89,0.843 -1.89,1.89l0 17.063c0,0.549 0.165,0.948 0.553,1.336l10.772 10.772c0.366,0.367 0.851,0.55 1.336,0.55 0.489,0 0.974,-0.183 1.338,-0.548z"/>
   </g>
   <g>
    <path class="fil23" d="M162.141 162.521l7.099 0c2.082,0 3.78,1.698 3.78,3.779l0 21.544c0,2.082 -1.698,3.779 -3.78,3.779l-7.099 0 -1.89 -14.551 1.89 -14.551z"/>
    <path class="fil24" d="M152.177 162.521l9.964 0 0 29.102 -9.964 0c-1.04,0 -1.936,-0.371 -2.672,-1.107l-10.772 -10.771c-1.472,-1.473 -1.472,-3.873 0,-5.345l10.772 -10.772c0.736,-0.736 1.632,-1.107 2.672,-1.107z"/>
    <path class="fil16" d="M140.066 175.736c-0.366,0.361 -0.547,0.847 -0.547,1.336 0,0.485 0.184,0.97 0.55,1.337l10.772 10.771c0.389,0.389 0.787,0.554 1.336,0.554l17.063 0c1.048,0 1.89,-0.842 1.89,-1.89l0 -21.544c0,-1.038 -0.851,-1.889 -1.89,-1.889l-17.063 0c-0.549,0 -0.947,0.164 -1.336,0.553l-10.775 10.772z"/>
   </g>
   <g>
    <path class="fil23" d="M83.067 187.844l0 -21.544c0,-2.081 1.698,-3.779 3.779,-3.779l7.1 0 1.89 14.551 -1.89 14.551 -7.1 0c-2.081,0 -3.779,-1.697 -3.779,-3.779z"/>
    <path class="fil24" d="M93.946 162.521l9.963 0c1.041,0 1.937,0.371 2.673,1.107l10.771 10.772c1.472,1.472 1.472,3.872 0,5.345l-10.771 10.771c-0.736,0.736 -1.632,1.107 -2.673,1.107l-9.963 0 0 -29.102z"/>
    <path class="fil16" d="M116.019 178.41c0.366,-0.364 0.549,-0.85 0.549,-1.338 0,-0.485 -0.184,-0.97 -0.551,-1.336l-10.771 -10.772c-0.389,-0.389 -0.787,-0.553 -1.337,-0.553l-17.063 0c-1.047,0 -1.889,0.843 -1.889,1.889l0 21.544c0,1.038 0.851,1.89 1.889,1.89l17.063 0c0.55,0 0.948,-0.165 1.337,-0.554l10.773 -10.77z"/>
   </g>
   <g>
    <path class="fil25" d="M142.594 201.207l0 17.062c0,2.082 -1.697,3.78 -3.779,3.78l-21.543 0c-2.082,0 -3.78,-1.698 -3.78,-3.78l0 -17.062c0,-1.041 0.371,-1.937 1.107,-2.673l10.772 -10.771c1.472,-1.473 3.873,-1.473 5.345,0l10.771 10.771c0.736,0.736 1.107,1.632 1.107,2.673z"/>
    <path class="fil26" d="M126.707 189.095l-10.772 10.775c-0.388,0.389 -0.553,0.787 -0.553,1.337l0 17.062c0,1.047 0.843,1.89 1.89,1.89l21.543 0c1.039,0 1.89,-0.851 1.89,-1.89l0 -17.062c0,-0.55 -0.165,-0.948 -0.554,-1.337l-10.771 -10.771c-0.367,-0.367 -0.851,-0.551 -1.337,-0.551 -0.489,0 -0.974,0.181 -1.336,0.547z"/>
   </g>
  </g>
 </g>
</svg>
