<?xml version="1.0" encoding="UTF-8"?>
<!DOCTYPE svg PUBLIC "-//W3C//DTD SVG 1.1//EN" "http://www.w3.org/Graphics/SVG/1.1/DTD/svg11.dtd">
<svg xml:space="preserve" viewBox="0 0 594 394" width="594px" height="394px" version="1.1" style="shape-rendering:geometricPrecision; fill-rule:evenodd; clip-rule:evenodd" xmlns="http://www.w3.org/2000/svg" xmlns:xlink="http://www.w3.org/1999/xlink">
 <defs>
  <style type="text/css">
    .str0 {stroke:white;stroke-width:2;stroke-opacity:0.5}
    .fil3 {fill:none}
    .fil0 {fill:red}
    .fil2 {fill:white;fill-opacity:0.4}
  </style>
 </defs>
 <g>
  <g id="pressed-button-circle">
   <circle class="fil0" cx="510.766" cy="177.072" r="19.276"/>
   <path class="fil2" d="M510.766 159.179c8.074,0 14.899,5.348 17.125,12.694 0.043,0.141 -0.03,0.29 -0.168,0.342 -0.142,0.054 -0.301,-0.015 -0.358,-0.156 -2.65,-6.567 -9.083,-11.201 -16.599,-11.201 -7.517,0 -13.952,4.636 -16.6,11.204 -0.057,0.141 -0.216,0.211 -0.358,0.158 -0.138,-0.053 -0.212,-0.202 -0.169,-0.343 2.226,-7.348 9.052,-12.698 17.127,-12.698z"/>
   <path class="fil3 str0" d="M510.766 165.848c6.199,0 11.225,5.025 11.225,11.224 0,6.199 -5.026,11.225 -11.225,11.225 -6.199,0 -11.224,-5.026 -11.224,-11.225 0,-6.199 5.025,-11.224 11.224,-11.224z"/>
  </g>
 </g>
</svg>
