<?xml version="1.0" encoding="UTF-8"?>
<!DOCTYPE svg PUBLIC "-//W3C//DTD SVG 1.1//EN" "http://www.w3.org/Graphics/SVG/1.1/DTD/svg11.dtd">
<svg xml:space="preserve" viewBox="0 0 594 394" width="594px" height="394px" version="1.1" style="shape-rendering:geometricPrecision; fill-rule:evenodd; clip-rule:evenodd" xmlns="http://www.w3.org/2000/svg" xmlns:xlink="http://www.w3.org/1999/xlink">
 <defs>
  <style type="text/css">
    .str3 {stroke:#E55143;stroke-width:2}
    .fil11 {fill:none}
    .fil10 {fill:white;fill-opacity:0.5}
    .fil9 {fill:url(#id2)}
  </style>
  <linearGradient id="id2" gradientUnits="objectBoundingBox" x1="50%" y1="100%" x2="50%" y2="25%">
   <stop offset="0" style="stop-opacity:1; stop-color:#424157"/>
   <stop offset="1" style="stop-opacity:1; stop-color:#595775"/>
  </linearGradient>
 </defs>
 <g>
  <g id="button-circle">
   <circle class="fil9" cx="510.766" cy="177.072" r="19.276"/>
   <path class="fil10" d="M510.766 159.179c8.074,0 14.899,5.348 17.125,12.694 0.043,0.141 -0.03,0.29 -0.168,0.342 -0.142,0.054 -0.301,-0.015 -0.358,-0.156 -2.65,-6.567 -9.083,-11.201 -16.599,-11.201 -7.517,0 -13.952,4.636 -16.6,11.204 -0.057,0.141 -0.216,0.211 -0.358,0.158 -0.138,-0.053 -0.212,-0.202 -0.169,-0.343 2.226,-7.348 9.052,-12.698 17.127,-12.698z"/>
   <circle class="fil11 str3" cx="510.766" cy="177.072" r="11.224"/>
  </g>
 </g>
</svg>
