<?xml version="1.0" encoding="UTF-8"?>
<!DOCTYPE svg PUBLIC "-//W3C//DTD SVG 1.1//EN" "http://www.w3.org/Graphics/SVG/1.1/DTD/svg11.dtd">
<svg xml:space="preserve" viewBox="0 0 594 394" width="594px" height="394px" version="1.1" style="shape-rendering:geometricPrecision; fill-rule:evenodd; clip-rule:evenodd" xmlns="http://www.w3.org/2000/svg" xmlns:xlink="http://www.w3.org/1999/xlink">
 <defs>
  <style type="text/css">
    .fil4 {fill:#4D4D4D}
    .fil3 {fill:url(#id4)}
  </style>
  <linearGradient id="id4" gradientUnits="userSpaceOnUse" x1="128.038" y1="55.909" x2="128.038" y2="39.533">
   <stop offset="0" style="stop-opacity:1; stop-color:#666666"/>
   <stop offset="0.3" style="stop-opacity:1; stop-color:#666666"/>
   <stop offset="0.75" style="stop-opacity:1; stop-color:#999999"/>
   <stop offset="1" style="stop-opacity:1; stop-color:#999999"/>
  </linearGradient>
 </defs>
 <g>
  <g id="L1">
   <path class="fil3" d="M128.041 39.533c1.936,0 3.639,0.054 5.184,0.117 4.286,0.178 8.194,0.514 12.477,1.234 3.953,0.666 7.56,1.534 11.265,2.819 3.097,1.075 5.081,3.864 5.081,7.142l0 5.052c-0.709,-0.419 -1.43,-0.815 -2.159,-1.19 -3.034,-1.519 -6.002,-2.599 -9.24,-3.503 -4.321,-1.154 -8.523,-1.813 -12.955,-2.23 -3.254,-0.256 -6.39,-0.377 -9.653,-0.406 -3.262,0.029 -6.4,0.15 -9.653,0.406 -4.433,0.417 -8.633,1.076 -12.954,2.23 -3.242,0.904 -6.204,1.985 -9.242,3.503 -0.737,0.381 -1.463,0.78 -2.175,1.201l0 -5.069c0,-3.282 1.989,-6.074 5.092,-7.145 3.687,-1.273 7.373,-2.154 11.271,-2.81 4.258,-0.717 8.184,-1.056 12.476,-1.234 1.545,-0.063 3.249,-0.117 5.185,-0.117z"/>
   <path class="fil4" d="M95.906 54.856l0 -4.017c0,-1.244 0.371,-2.385 1.029,-3.309 0.662,-0.93 1.619,-1.654 2.786,-2.057 1.762,-0.608 3.554,-1.13 5.395,-1.585 1.817,-0.448 3.667,-0.823 5.574,-1.144 2.11,-0.355 4.111,-0.614 6.093,-0.804 2.011,-0.193 4.033,-0.321 6.147,-0.408 0.799,-0.032 1.614,-0.062 2.416,-0.082 0.674,-0.017 1.534,-0.027 2.695,-0.027 1.16,0 2.021,0.01 2.694,0.027 0.802,0.02 1.618,0.05 2.416,0.082 2.112,0.087 4.127,0.214 6.136,0.406 1.981,0.19 3.983,0.449 6.105,0.806 1.933,0.325 3.777,0.7 5.585,1.148 1.829,0.453 3.605,0.975 5.377,1.59 1.164,0.403 2.118,1.128 2.779,2.058 0.656,0.922 1.025,2.062 1.025,3.305l0 4.002 -0.269 -0.14c-3.034,-1.519 -6.002,-2.599 -9.24,-3.503 -4.321,-1.154 -8.523,-1.813 -12.955,-2.23 -3.254,-0.256 -6.39,-0.377 -9.653,-0.406 -3.262,0.029 -6.4,0.15 -9.653,0.406 -4.433,0.417 -8.633,1.076 -12.954,2.23 -3.242,0.904 -6.204,1.985 -9.242,3.503l-0.286 0.149z"/>
  </g>
 </g>
</svg>
