<?xml version="1.0" encoding="UTF-8"?>
<!DOCTYPE svg PUBLIC "-//W3C//DTD SVG 1.1//EN" "http://www.w3.org/Graphics/SVG/1.1/DTD/svg11.dtd">
<svg xml:space="preserve" viewBox="0 0 594 394" width="594px" height="394px" version="1.1" style="shape-rendering:geometricPrecision; fill-rule:evenodd; clip-rule:evenodd" xmlns="http://www.w3.org/2000/svg" xmlns:xlink="http://www.w3.org/1999/xlink">
 <defs>
  <style type="text/css">
    .fil16 {fill:#080808}
    .fil13 {fill:#1A1A1A}
    .fil20 {fill:#484848}
    .fil12 {fill:#4D4D4D}
    .fil26 {fill:#525252}
    .fil2 {fill:#B3B3B3}
    .fil3 {fill:#CCCCCC}
    .fil15 {fill:#D8D8D8}
    .fil0 {fill:#E6E6E6}
    .fil14 {fill:#FFE000}
    .fil7 {fill:black;fill-opacity:0.1}
    .fil28 {fill:black;fill-opacity:0.3}
    .fil18 {fill:black;fill-opacity:0.5}
    .fil17 {fill:black;fill-opacity:0.5}
    .fil21 {fill:#484848;fill-opacity:0.5}
    .fil24 {fill:#4D4D4D;fill-opacity:0.5}
    .fil27 {fill:#525252;fill-opacity:0.5}
    .fil8 {fill:white;fill-opacity:0.5}
    .fil10 {fill:url(#id1)}
    .fil4 {fill:url(#id2)}
    .fil22 {fill:url(#id3)}
    .fil25 {fill:url(#id4)}
    .fil19 {fill:url(#id5)}
    .fil23 {fill:url(#id6)}
    .fil11 {fill:url(#id7)}
    .fil5 {fill:url(#id11)}
    .fil6 {fill:url(#id12)}
    .fil9 {fill:url(#id13)}
    .fil1 {fill:url(#id14)}
    .shd0 {filter: drop-shadow(0px 1px .5px rgba(0, 0, 0, 0.2)) drop-shadow(0px 0px .5px rgba(0, 0, 0, 0.5))}
    .shd1 {filter: drop-shadow(0px 1px .5px rgba(0, 0, 0, 0.2)) drop-shadow(0px 0px .5px rgba(0, 0, 0, 0.3))}
    .shd2 {filter: drop-shadow(0px 2px 2px rgba(0, 0, 0, 0.7)) drop-shadow(0px 0px 2px rgba(0, 0, 0, 0.4))}
  </style>
  <linearGradient id="id1" gradientUnits="objectBoundingBox" x1="50%" y1="100%" x2="50%" y2="0%">
   <stop offset="0" style="stop-opacity:1; stop-color:#E6E6E6"/>
   <stop offset="1" style="stop-opacity:1; stop-color:#999999"/>
  </linearGradient>
  <linearGradient id="id2" gradientUnits="objectBoundingBox" x1="50%" y1="100%" x2="50%" y2="0%">
   <stop offset="0" style="stop-opacity:1; stop-color:#D8D8D8"/>
   <stop offset="0.5" style="stop-opacity:1; stop-color:#D8D8D8"/>
   <stop offset="0.8" style="stop-opacity:1; stop-color:#E6E6E6"/>
   <stop offset="1" style="stop-opacity:1; stop-color:#E6E6E6"/>
  </linearGradient>
  <linearGradient id="id3" gradientUnits="objectBoundingBox" x1="50%" y1="100%" x2="50%" y2="0%">
   <stop offset="0" style="stop-opacity:1; stop-color:#1A1A1A"/>
   <stop offset="0.05" style="stop-opacity:1; stop-color:#1A1A1A"/>
   <stop offset="0.15" style="stop-opacity:1; stop-color:#666666"/>
   <stop offset="0.85" style="stop-opacity:1; stop-color:gray"/>
   <stop offset="0.95" style="stop-opacity:1; stop-color:#B3B3B3"/>
   <stop offset="1" style="stop-opacity:1; stop-color:#B3B3B3"/>
  </linearGradient>
  <linearGradient id="id4" gradientUnits="userSpaceOnUse" x1="121.013" y1="223.303" x2="121.013" y2="190.573">
   <stop offset="0" style="stop-opacity:1; stop-color:#1A1A1A"/>
   <stop offset="0.05" style="stop-opacity:1; stop-color:#1A1A1A"/>
   <stop offset="0.15" style="stop-opacity:1; stop-color:gray"/>
   <stop offset="0.55" style="stop-opacity:1; stop-color:gray"/>
   <stop offset="0.7" style="stop-opacity:1; stop-color:#999999"/>
   <stop offset="1" style="stop-opacity:1; stop-color:#999999"/>
  </linearGradient>
  <linearGradient id="id5" gradientUnits="userSpaceOnUse" x1="121.013" y1="163.571" x2="121.013" y2="130.842">
   <stop offset="0" style="stop-opacity:1; stop-color:#333333"/>
   <stop offset="0.3" style="stop-opacity:1; stop-color:#333333"/>
   <stop offset="0.45" style="stop-opacity:1; stop-color:gray"/>
   <stop offset="0.85" style="stop-opacity:1; stop-color:gray"/>
   <stop offset="0.95" style="stop-opacity:1; stop-color:#B3B3B3"/>
   <stop offset="1" style="stop-opacity:1; stop-color:#B3B3B3"/>
  </linearGradient>
  <linearGradient id="id6" gradientUnits="objectBoundingBox" x1="50%" y1="100%" x2="50%" y2="0%">
   <stop offset="0" style="stop-opacity:1; stop-color:#1A1A1A"/>
   <stop offset="0.05" style="stop-opacity:1; stop-color:#1A1A1A"/>
   <stop offset="0.1" style="stop-opacity:1; stop-color:#333333"/>
   <stop offset="0.4" style="stop-opacity:1; stop-color:#333333"/>
   <stop offset="0.6" style="stop-opacity:1; stop-color:gray"/>
   <stop offset="0.9" style="stop-opacity:1; stop-color:gray"/>
   <stop offset="0.95" style="stop-opacity:1; stop-color:#B3B3B3"/>
   <stop offset="1" style="stop-opacity:1; stop-color:#B3B3B3"/>
  </linearGradient>
  <linearGradient id="id7" gradientUnits="userSpaceOnUse" x1="274.311" y1="229.434" x2="319.665" y2="229.434">
   <stop offset="0" style="stop-opacity:1; stop-color:#B3B3B3"/>
   <stop offset="0.22" style="stop-opacity:1; stop-color:gray"/>
   <stop offset="0.78" style="stop-opacity:1; stop-color:gray"/>
   <stop offset="1" style="stop-opacity:1; stop-color:#B3B3B3"/>
  </linearGradient>
  <linearGradient id="id11" gradientUnits="userSpaceOnUse" x1="3.492" y1="246.979" x2="197.809" y2="308.179">
   <stop offset="0" style="stop-opacity:1; stop-color:#B3B3B3"/>
   <stop offset="0.4" style="stop-opacity:1; stop-color:#CCCCCC"/>
   <stop offset="0.85" style="stop-opacity:1; stop-color:#B3B3B3"/>
   <stop offset="1" style="stop-opacity:1; stop-color:#B3B3B3"/>
  </linearGradient>
  <linearGradient id="id12" gradientUnits="userSpaceOnUse" xlink:href="#id11" x1="590.484" y1="246.979" x2="396.168" y2="308.179">
  </linearGradient>
  <linearGradient id="id13" gradientUnits="objectBoundingBox" x1="50%" y1="100%" x2="50%" y2="7.28244e-15%">
   <stop offset="0" style="stop-opacity:1; stop-color:#232323"/>
   <stop offset="1" style="stop-opacity:1; stop-color:#707070"/>
  </linearGradient>
  <linearGradient id="id14" gradientUnits="userSpaceOnUse" x1="279.968" y1="294.515" x2="279.968" y2="96.889">
   <stop offset="0" style="stop-opacity:1; stop-color:gray"/>
   <stop offset="0.14" style="stop-opacity:1; stop-color:#A8A8A8"/>
   <stop offset="0.16" style="stop-opacity:1; stop-color:silver"/>
   <stop offset="0.88" style="stop-opacity:1; stop-color:#D8D8D8"/>
   <stop offset="0.9" style="stop-opacity:1; stop-color:#E1E1E1"/>
   <stop offset="1" style="stop-opacity:1; stop-color:#B3B3B3"/>
  </linearGradient>
 </defs>
 <g>
  <g id="shell">
   <path class="fil0" d="M85.932 57.469l70.163 -0.002c-0.113,-1.1 0.173,-1.176 0,-2.268 -0.166,-1.066 -0.815,-3.165 -1.162,-4.187 -0.725,-2.174 -1.829,-2.99 -3.78,-3.911 -2.25,-1.037 -4.566,-1.865 -6.96,-2.504 -5.129,-1.377 -10.431,-1.959 -15.718,-2.286 -2.497,-0.124 -4.967,-0.197 -7.468,-0.197 -2.501,0 -4.971,0.073 -7.468,0.197 -5.321,0.33 -10.549,0.903 -15.71,2.29 -2.39,0.637 -4.715,1.465 -6.96,2.503 -1.977,0.937 -3.053,1.743 -3.775,3.911 -0.347,1.021 -0.995,3.121 -1.162,4.186 -0.173,1.092 0.113,1.168 0,2.268z"/>
   <path class="fil0" d="M437.881 57.467l70.164 0.002c-0.114,-1.1 0.173,-1.176 0,-2.268 -0.167,-1.065 -0.815,-3.165 -1.162,-4.186 -0.723,-2.168 -1.798,-2.974 -3.775,-3.911 -2.246,-1.038 -4.571,-1.866 -6.96,-2.503 -5.161,-1.387 -10.389,-1.96 -15.71,-2.29 -2.497,-0.124 -4.968,-0.197 -7.468,-0.197 -2.501,0 -4.972,0.073 -7.468,0.197 -5.288,0.327 -10.59,0.909 -15.719,2.286 -2.393,0.639 -4.709,1.467 -6.96,2.504 -1.951,0.921 -3.054,1.737 -3.779,3.911 -0.347,1.022 -0.996,3.121 -1.163,4.187 -0.173,1.092 0.113,1.168 0,2.268z"/>
   <path class="fil1" d="M208.705 282.547c-1.485,0.011 -2.946,0.045 -4.43,0.105 -6.231,0.338 -12.396,1.239 -18.099,3.896 -3.867,1.856 -6.944,4.305 -9.231,7.967l-2.875 -197.626c1.045,0.455 2.066,0.852 3.145,1.22 6.729,2.212 13.652,2.855 20.7,3.004l2.014 0.017 194.119 0 2.015 -0.017c7.044,-0.149 13.973,-0.792 20.699,-3.004 1.078,-0.368 2.1,-0.766 3.145,-1.22l-2.875 197.626c-2.296,-3.676 -5.355,-6.097 -9.23,-7.967 -5.719,-2.658 -11.854,-3.558 -18.101,-3.896 -1.483,-0.06 -2.944,-0.094 -4.429,-0.105l-176.567 0z"/>
   <rect class="fil2" x="287.917" y="101.13" width="18.142" height="5.669"/>
   <path class="fil3" d="M67.454 99.764l107.124 0 -3.503 -19.225c-0.627,-3.079 -1.25,-6.081 -2.019,-9.126 -0.503,-1.886 -1.036,-3.663 -1.767,-5.476 -1.007,-2.376 -2.114,-4.096 -4.028,-5.836 -2.623,-2.344 -5.647,-4.208 -8.813,-5.726 -3.184,-1.485 -6.301,-2.54 -9.7,-3.423 -4.535,-1.128 -8.946,-1.772 -13.599,-2.179 -3.416,-0.251 -6.708,-0.369 -10.133,-0.397 -3.425,0.028 -6.718,0.146 -10.134,0.397 -4.653,0.407 -9.062,1.051 -13.598,2.179 -3.403,0.883 -6.513,1.94 -9.701,3.423 -3.187,1.532 -6.166,3.371 -8.813,5.726 -1.923,1.765 -3.009,3.436 -4.026,5.836 -0.732,1.801 -1.271,3.6 -1.768,5.476 -0.771,3.043 -1.393,6.049 -2.018,9.126l-3.504 19.225z"/>
   <path class="fil3" d="M419.399 99.764l107.124 0 -3.504 -19.225c-0.625,-3.077 -1.247,-6.083 -2.018,-9.126 -0.497,-1.876 -1.036,-3.675 -1.768,-5.476 -1.017,-2.4 -2.103,-4.071 -4.026,-5.836 -2.647,-2.355 -5.626,-4.194 -8.813,-5.726 -3.189,-1.483 -6.298,-2.54 -9.701,-3.423 -4.536,-1.128 -8.945,-1.772 -13.598,-2.179 -3.416,-0.251 -6.709,-0.369 -10.134,-0.397 -3.425,0.028 -6.717,0.146 -10.133,0.397 -4.653,0.407 -9.064,1.051 -13.599,2.179 -3.399,0.883 -6.516,1.938 -9.7,3.423 -3.166,1.518 -6.19,3.382 -8.813,5.726 -1.914,1.74 -3.021,3.46 -4.028,5.836 -0.731,1.813 -1.264,3.59 -1.767,5.476 -0.769,3.045 -1.392,6.047 -2.019,9.126l-3.503 19.225z"/>
   <path class="fil4" d="M67.454 99.764l2.531 0 3.423 -18.782c0.609,-2.995 1.241,-5.999 1.988,-8.963 0.223,-0.839 0.466,-1.699 0.759,-2.62 0.575,-1.818 1.242,-3.625 2.323,-5.212 1.412,-2.075 3.782,-3.835 5.844,-5.158 2.739,-1.759 5.779,-3.163 8.851,-4.237 3.676,-1.285 7.398,-2.136 11.247,-2.739 2.098,-0.329 4.32,-0.583 6.677,-0.792 3.306,-0.243 6.604,-0.368 9.919,-0.395 1.649,0.014 3.298,0.051 4.982,0.115 3.919,0.15 7.73,0.464 11.614,1.072 3.826,0.599 7.588,1.461 11.247,2.738 3.137,1.097 6.05,2.441 8.851,4.237 2.043,1.31 4.447,3.091 5.845,5.149 1.085,1.598 1.742,3.395 2.32,5.222 0.744,2.346 1.278,4.683 1.803,7.092 0.409,1.878 0.692,3.25 0.956,4.546l3.413 18.727 2.531 0 -3.503 -19.225c-0.627,-3.079 -1.25,-6.081 -2.019,-9.126 -0.503,-1.886 -1.036,-3.663 -1.767,-5.476 -1.007,-2.376 -2.114,-4.096 -4.028,-5.836 -2.623,-2.344 -5.647,-4.208 -8.813,-5.726 -3.184,-1.485 -6.301,-2.54 -9.7,-3.423 -4.535,-1.128 -8.946,-1.772 -13.599,-2.179 -3.416,-0.251 -6.708,-0.369 -10.133,-0.397 -3.425,0.028 -6.718,0.146 -10.134,0.397 -4.653,0.407 -9.062,1.051 -13.598,2.179 -3.403,0.883 -6.513,1.94 -9.701,3.423 -3.187,1.532 -6.166,3.371 -8.813,5.726 -1.923,1.765 -3.009,3.436 -4.026,5.836 -0.732,1.801 -1.271,3.6 -1.768,5.476 -0.771,3.043 -1.393,6.049 -2.018,9.126l-3.504 19.225z"/>
   <path class="fil4" d="M526.523 99.764l-2.531 0 -3.423 -18.782c-0.609,-2.995 -1.241,-5.999 -1.988,-8.963 -0.223,-0.839 -0.466,-1.699 -0.759,-2.62 -0.575,-1.818 -1.242,-3.625 -2.323,-5.212 -1.412,-2.075 -3.782,-3.835 -5.844,-5.158 -2.74,-1.759 -5.779,-3.163 -8.851,-4.237 -3.676,-1.285 -7.398,-2.136 -11.247,-2.739 -2.098,-0.329 -4.32,-0.583 -6.677,-0.792 -3.306,-0.243 -6.604,-0.368 -9.919,-0.395 -1.649,0.014 -3.298,0.051 -4.982,0.115 -3.919,0.15 -7.73,0.464 -11.614,1.072 -3.826,0.599 -7.588,1.461 -11.247,2.738 -3.137,1.097 -6.05,2.441 -8.851,4.237 -2.043,1.31 -4.447,3.091 -5.845,5.149 -1.085,1.598 -1.742,3.395 -2.32,5.222 -0.744,2.346 -1.278,4.683 -1.803,7.092 -0.409,1.878 -0.692,3.25 -0.956,4.546l-3.413 18.727 -2.531 0 3.503 -19.225c0.627,-3.079 1.25,-6.081 2.019,-9.126 0.503,-1.886 1.036,-3.663 1.767,-5.476 1.007,-2.376 2.114,-4.096 4.028,-5.836 2.623,-2.344 5.647,-4.208 8.813,-5.726 3.184,-1.485 6.301,-2.54 9.7,-3.423 4.535,-1.128 8.946,-1.772 13.599,-2.179 3.416,-0.251 6.708,-0.369 10.133,-0.397 3.425,0.028 6.718,0.146 10.134,0.397 4.653,0.407 9.062,1.051 13.598,2.179 3.403,0.883 6.512,1.94 9.701,3.423 3.187,1.532 6.166,3.371 8.813,5.726 1.923,1.765 3.009,3.436 4.026,5.836 0.732,1.801 1.271,3.6 1.768,5.476 0.771,3.043 1.393,6.049 2.018,9.126l3.504 19.225z"/>
   <path class="fil5" d="M201.006 226.54l-83.899 136.908c-11.089,18.059 -31.015,30.105 -53.76,30.105 -34.823,0 -63.052,-28.229 -63.052,-63.051 0,-3.621 0.315,-7.168 0.9,-10.622l27.051 -158.275 172.76 64.935z"/>
   <path class="fil6" d="M392.971 226.54l83.898 136.908c11.089,18.059 31.015,30.105 53.761,30.105 34.822,0 63.051,-28.229 63.051,-63.051 0,-3.621 -0.314,-7.168 -0.9,-10.622l-27.05 -158.275 -172.76 64.935z"/>
   <circle class="fil2" cx="214.028" cy="261.563" r="59.15"/>
   <circle class="fil2" cx="379.949" cy="261.563" r="59.15"/>
   <path class="fil7" d="M121.018 81.133c52.986,0 95.939,42.953 95.939,95.939 0,8.775 -1.179,17.273 -3.385,25.347 0.152,-0.001 0.303,-0.006 0.456,-0.006 32.667,0 59.15,26.483 59.15,59.15 0,32.667 -26.483,59.149 -59.15,59.149 -30.411,0 -55.459,-22.952 -58.773,-52.478 -10.816,4.227 -22.588,6.548 -34.902,6.548 -51.463,0 -93.457,-40.52 -95.83,-91.395l3.723 -21.782 147.035 55.266c0.27,-0.235 0.545,-0.465 0.819,-0.694l-1.981 -116.413 -106.665 0 0.476 -2.61c15.203,-10.12 33.455,-16.021 53.088,-16.021z"/>
   <path class="fil7" d="M472.963 81.129c19.63,0 37.881,5.9 53.083,16.018l0.477 2.617 -106.665 0 -1.981 116.412c0.274,0.23 0.549,0.46 0.819,0.695l147.035 -55.266 3.725 21.801c-2.384,50.865 -44.373,91.372 -95.828,91.372 -12.316,0 -24.088,-2.322 -34.905,-6.549 -3.313,29.528 -28.361,52.483 -58.774,52.483 -32.667,0 -59.149,-26.482 -59.149,-59.149 0,-32.667 26.482,-59.15 59.149,-59.15 0.154,0 0.308,0.005 0.461,0.006 -2.207,-8.076 -3.387,-16.575 -3.387,-25.35 0,-52.987 42.953,-95.94 95.94,-95.94z"/>
   <circle class="fil3" cx="121.018" cy="177.072" r="75.591"/>
   <path id="press-arrows" class="fil3 shd0" d="M121.018 101.482c41.748,0 75.591,33.843 75.591,75.59 0,41.748 -33.843,75.591 -75.591,75.591 -41.748,0 -75.591,-33.843 -75.591,-75.591 0,-41.747 33.843,-75.59 75.591,-75.59zm-6.746 129.812c-1.012,0 -1.517,1.22 -0.802,1.935l5.939 5.939c0.884,0.884 2.324,0.884 3.208,0l5.939 -5.939c0.715,-0.715 0.209,-1.935 -0.802,-1.935l-13.482 0zm60.963 -47.479c0,1.011 1.221,1.517 1.936,0.801l5.939 -5.939c0.883,-0.883 0.883,-2.324 0,-3.207l-5.939 -5.939c-0.715,-0.715 -1.936,-0.209 -1.936,0.802l0 13.482zm-108.442 -0.002l0 -13.482c0,-1.011 -1.221,-1.518 -1.936,-0.802l-5.939 5.939c-0.883,0.883 -0.883,2.324 0,3.207l5.939 5.939c0.715,0.715 1.936,0.21 1.936,-0.801zm47.481 -60.962l13.482 0c1.011,0 1.517,-1.22 0.802,-1.936l-5.939 -5.939c-0.883,-0.883 -2.324,-0.883 -3.207,0l-5.94 5.939c-0.715,0.716 -0.209,1.936 0.802,1.936z"/>
   <path id="press-cross-l" class="fil3 shd0" d="M121.018 92.033c46.966,0 85.039,38.073 85.039,85.039 0,46.967 -38.073,85.04 -85.039,85.04 -46.966,0 -85.04,-38.073 -85.04,-85.04 0,-46.966 38.074,-85.039 85.04,-85.039zm-24.619 113.784l0.001 36.733c0,2.272 1.858,4.132 4.131,4.132l40.968 0c2.273,0 4.132,-1.86 4.132,-4.132l-0.001 -36.733c0,-2.273 1.86,-4.133 4.133,-4.133l36.732 0.001c2.273,0 4.133,-1.86 4.133,-4.133l0 -40.965c0,-2.273 -1.86,-4.133 -4.133,-4.133l-36.732 -0.001c-2.273,0 -4.133,-1.859 -4.133,-4.133l0.001 -36.731c0,-2.273 -1.859,-4.132 -4.132,-4.132l-40.968 0c-2.273,0 -4.131,1.859 -4.131,4.132l-0.001 36.731c0,2.273 -1.86,4.133 -4.133,4.133l-36.731 0.001c-2.273,0 -4.133,1.86 -4.133,4.133l0 40.965c0,2.273 1.86,4.133 4.133,4.133l36.731 -0.001c2.273,0 4.133,1.86 4.133,4.133z"/>
   <path class="fil3" d="M121.018 83.023c51.943,0 94.05,42.107 94.05,94.049 0,51.943 -42.107,94.05 -94.05,94.05 -51.943,0 -94.05,-42.107 -94.05,-94.05 0,-51.942 42.107,-94.049 94.05,-94.049zm0 18.459c-41.748,0 -75.591,33.843 -75.591,75.59 0,41.748 33.843,75.591 75.591,75.591 41.748,0 75.591,-33.843 75.591,-75.591 0,-41.747 -33.843,-75.59 -75.591,-75.59z"/>
   <circle class="fil3" cx="472.959" cy="177.072" r="75.591"/>
   <path id="press-cross-r" class="fil3 shd0" d="M472.959 92.033c46.966,0 85.039,38.073 85.039,85.039 0,46.967 -38.073,85.04 -85.039,85.04 -46.966,0 -85.039,-38.073 -85.039,-85.04 0,-46.966 38.073,-85.039 85.039,-85.039zm-24.612 113.783l0 36.733c0,2.272 1.859,4.132 4.132,4.132l40.968 0c2.273,0 4.132,-1.859 4.132,-4.132l-0.001 -36.733c0,-2.273 1.86,-4.133 4.133,-4.133l36.732 0.001c2.273,0 4.133,-1.86 4.133,-4.133l0 -40.965c0,-2.272 -1.86,-4.133 -4.133,-4.133l-36.732 0c-2.273,0 -4.133,-1.86 -4.133,-4.133l0.001 -36.732c0,-2.273 -1.859,-4.132 -4.132,-4.132l-40.968 0c-2.273,0 -4.132,1.859 -4.132,4.132l0 36.732c0,2.273 -1.86,4.133 -4.133,4.133l-36.731 0c-2.273,0 -4.133,1.861 -4.133,4.133l0 40.965c0,2.273 1.86,4.133 4.133,4.133l36.731 -0.001c2.273,0 4.133,1.861 4.133,4.133z"/>
   <path class="fil3" d="M472.959 83.023c51.943,0 94.05,42.107 94.05,94.049 0,51.943 -42.107,94.05 -94.05,94.05 -51.943,0 -94.05,-42.107 -94.05,-94.05 0,-51.942 42.107,-94.049 94.05,-94.049zm0 18.459c-41.748,0 -75.591,33.843 -75.591,75.59 0,41.748 33.843,75.591 75.591,75.591 41.748,0 75.591,-33.843 75.591,-75.591 0,-41.747 -33.843,-75.59 -75.591,-75.59z"/>
   <path class="fil8" d="M121.018 83.023c51.943,0 94.05,42.107 94.05,94.049 0,0.38 -0.01,0.756 -0.015,1.134 -0.608,-51.419 -42.471,-92.916 -94.035,-92.916 -51.564,0 -93.427,41.497 -94.036,92.916 -0.004,-0.378 -0.014,-0.754 -0.014,-1.134 0,-51.942 42.107,-94.049 94.05,-94.049z"/>
   <path class="fil8" d="M472.959 83.023c51.943,0 94.05,42.107 94.05,94.049 0,0.38 -0.01,0.756 -0.014,1.134 -0.609,-51.419 -42.472,-92.916 -94.036,-92.916 -51.564,0 -93.427,41.497 -94.035,92.916 -0.005,-0.378 -0.015,-0.754 -0.015,-1.134 0,-51.942 42.107,-94.049 94.05,-94.049z"/>
   <circle class="fil3" cx="214.028" cy="261.563" r="47.244"/>
   <circle class="fil9" cx="214.028" cy="261.563" r="37.795"/>
   <path id="shadow-analog-L" class="fil10 shd2" d="M214.028 221.878c21.917,0 39.685,17.767 39.685,39.685 0,21.917 -17.768,39.685 -39.685,39.685 -21.918,0 -39.685,-17.768 -39.685,-39.685 0,-21.918 17.767,-39.685 39.685,-39.685zm0 3.779c-19.83,0 -35.906,16.076 -35.906,35.906 0,19.83 16.076,35.905 35.906,35.905 19.83,0 35.906,-16.075 35.906,-35.905 0,-19.83 -16.076,-35.906 -35.906,-35.906z"/>
   <path class="fil3" d="M214.028 204.681c31.415,0 56.882,25.467 56.882,56.882 0,31.414 -25.467,56.882 -56.882,56.882 -31.415,0 -56.882,-25.468 -56.882,-56.882 0,-31.415 25.467,-56.882 56.882,-56.882zm0 17.197c-21.918,0 -39.685,17.767 -39.685,39.685 0,21.917 17.767,39.685 39.685,39.685 21.917,0 39.685,-17.768 39.685,-39.685 0,-21.918 -17.768,-39.685 -39.685,-39.685z"/>
   <path class="fil8" d="M270.91 261.563c0,-29.849 -25.467,-54.048 -56.882,-54.048 -1.361,0 -2.711,0.049 -4.048,0.138 0.328,-0.955 0.643,-1.918 0.941,-2.887 1.029,-0.055 2.065,-0.085 3.107,-0.085 31.415,0 56.882,25.467 56.882,56.882z"/>
   <circle class="fil3" cx="379.949" cy="261.563" r="47.244"/>
   <circle class="fil9" cx="379.949" cy="261.563" r="37.795"/>
   <path id="shadow-analog-R" class="fil10 shd2" d="M379.949 221.878c21.918,0 39.685,17.767 39.685,39.685 0,21.917 -17.767,39.685 -39.685,39.685 -21.917,0 -39.685,-17.768 -39.685,-39.685 0,-21.918 17.768,-39.685 39.685,-39.685zm0 3.779c-19.83,0 -35.905,16.076 -35.905,35.906 0,19.83 16.075,35.905 35.905,35.905 19.83,0 35.906,-16.075 35.906,-35.905 0,-19.83 -16.076,-35.906 -35.906,-35.906z"/>
   <path class="fil3" d="M379.949 204.681c31.415,0 56.882,25.467 56.882,56.882 0,31.414 -25.467,56.882 -56.882,56.882 -31.414,0 -56.882,-25.468 -56.882,-56.882 0,-31.415 25.468,-56.882 56.882,-56.882zm0 17.197c-21.917,0 -39.685,17.767 -39.685,39.685 0,21.917 17.768,39.685 39.685,39.685 21.918,0 39.685,-17.768 39.685,-39.685 0,-21.918 -17.767,-39.685 -39.685,-39.685z"/>
   <path class="fil8" d="M323.067 261.563c0,-29.849 25.468,-54.048 56.882,-54.048 1.362,0 2.711,0.049 4.049,0.138 -0.329,-0.955 -0.643,-1.918 -0.942,-2.887 -1.029,-0.055 -2.064,-0.085 -3.107,-0.085 -31.414,0 -56.882,25.467 -56.882,56.882z"/>
   <polygon class="fil11" points="296.988,232.458 274.311,240.216 274.311,218.653 296.988,226.411 319.665,218.653 319.665,240.216 "/>
   <polygon class="fil12" points="274.311,218.653 319.665,218.653 296.988,229.434 "/>
   <polygon class="fil0" points="296.988,229.434 319.665,240.216 274.311,240.216 "/>
   <path class="fil13" d="M285.386 256.09l23.205 0c1.041,0 1.89,-0.849 1.89,-1.889l0 -3.78c0,-1.041 -0.849,-1.89 -1.89,-1.89l-23.205 0c-1.041,0 -1.89,0.849 -1.89,1.89l0 3.78c0,1.04 0.849,1.889 1.89,1.889z"/>
   <rect class="fil14" x="288.484" y="249.665" width="17.008" height="5.291"/>
   <polygon id="press-L" class="fil15 shd1" points="117.021,73.517 125.726,73.517 125.726,71.433 119.429,71.433 119.429,59.931 117.021,59.931 "/>
   <path id="press-R" class="fil15 shd1" d="M468.086 73.52l2.408 0 0 -4.946 2.735 0c0.025,0 0.044,0 0.062,0l2.554 4.946 2.633 0 -2.816 -5.382c1.602,-0.653 2.56,-2.01 2.56,-3.867 0,-2.67 -1.854,-4.34 -4.84,-4.34l-5.296 0 0 13.589zm2.408 -6.925l0 -4.63 2.754 0c1.62,0 2.622,0.887 2.622,2.306 0,1.428 -1.002,2.324 -2.607,2.324l-2.769 0z"/>
  </g>
  <g id="holes">
   <path class="fil13" d="M136.513 135.729c0,-3.312 -2.71,-6.021 -6.022,-6.021l-18.957 0c-3.312,0 -6.022,2.71 -6.022,6.021l0 14.198c0,1.815 0.69,3.38 2.03,4.604l9.396 8.584c2.318,2.117 5.841,2.117 8.159,-0.001l9.388 -8.583c1.34,-1.225 2.028,-2.787 2.028,-4.603l0 -14.199zm0 82.686c0,3.312 -2.71,6.021 -6.022,6.021l-18.957 0c-3.312,0 -6.022,-2.709 -6.022,-6.021l0 -14.198c0,-1.815 0.69,-3.38 2.03,-4.604l9.396 -8.583c2.318,-2.118 5.841,-2.118 8.159,0.001l9.388 8.582c1.34,1.225 2.028,2.788 2.028,4.603l0 14.199zm-56.843 -56.843c-3.312,0 -6.021,2.71 -6.021,6.022l0 18.957c0,3.312 2.71,6.022 6.021,6.022l14.198 0c1.815,0 3.38,-0.69 4.604,-2.03l8.584 -9.396c2.117,-2.318 2.117,-5.841 -0.002,-8.159l-8.582 -9.388c-1.225,-1.339 -2.788,-2.028 -4.603,-2.028l-14.199 0zm82.686 0c3.312,0 6.021,2.71 6.021,6.022l0 18.957c0,3.312 -2.71,6.022 -6.021,6.022l-14.198 0c-1.815,0 -3.38,-0.69 -4.604,-2.03l-8.584 -9.396c-2.117,-2.318 -2.117,-5.841 0.002,-8.159l8.582 -9.388c1.225,-1.339 2.788,-2.028 4.603,-2.028l14.199 0z"/>
   <path class="fil13" d="M236.717 168.73l17.018 0c2.742,0 4.984,2.242 4.984,4.983l0 7.062c0,2.74 -2.242,4.983 -4.984,4.983l-17.018 0c-2.741,0 -4.983,-2.243 -4.983,-4.983l0 -7.062c0,-2.741 2.242,-4.983 4.983,-4.983z"/>
   <path class="fil13" d="M361.92 173.056l-22.948 -4.79c-1.037,-0.216 -2.018,0.022 -2.84,0.69 -0.822,0.669 -1.256,1.581 -1.256,2.64l0 10.952c0,1.059 0.434,1.971 1.256,2.639 0.821,0.668 1.803,0.907 2.84,0.691l22.947 -4.785c1.594,-0.332 2.707,-1.702 2.707,-3.33l0 -1.377c0,-1.628 -1.112,-2.997 -2.706,-3.33z"/>
   <path class="fil13" d="M288.479 220.92l17.019 0c2.741,0 4.983,2.243 4.983,4.984l0 7.061c0,2.741 -2.242,4.984 -4.983,4.984l-17.019 0c-2.741,0 -4.983,-2.243 -4.983,-4.984l0 -7.061c0,-2.741 2.242,-4.984 4.983,-4.984z"/>
   <circle class="fil16" cx="472.96" cy="221.906" r="20.409"/>
   <circle class="fil16" cx="517.796" cy="177.072" r="20.409"/>
   <circle class="fil16" cx="428.126" cy="177.072" r="20.409"/>
   <circle class="fil16" cx="472.96" cy="132.237" r="20.409"/>
  </g>
  <g id="print">
   <path class="fil17" d="M334.992 199.329c2.072,0 3.362,-1.032 3.362,-2.66 0,-1.282 -0.812,-2.036 -2.622,-2.44l-0.886 -0.204c-1.14,-0.264 -1.592,-0.592 -1.592,-1.178 0,-0.714 0.686,-1.21 1.656,-1.21 1.022,0 1.692,0.556 1.756,1.474l1.466 0c-0.052,-1.732 -1.26,-2.782 -3.216,-2.782 -1.932,0 -3.21,1.038 -3.21,2.594 0,1.224 0.8,1.99 2.546,2.388l0.94 0.212c1.168,0.268 1.626,0.626 1.626,1.24 0,0.768 -0.722,1.258 -1.814,1.258 -1.216,0 -1.944,-0.626 -1.954,-1.68l-1.514 0c0,1.868 1.292,2.988 3.456,2.988zm3.86 -7.526l2.718 0 0 7.394 1.548 0 0 -7.394 2.706 0 0 -1.34 -6.972 0 0 1.34zm6.156 7.394l1.664 0 0.714 -2.088 3.388 0 0.696 2.088 1.706 0 -3.106 -8.736 -1.944 0 -3.118 8.736zm2.812 -3.36l0.422 -1.23c0.264,-0.804 0.528,-1.642 0.856,-2.744 0.328,1.102 0.586,1.94 0.844,2.744l0.41 1.23 -2.532 0zm6.166 3.36l1.548 0 0 -3.18 1.758 0c0.016,0 0.028,0 0.04,0l1.642 3.18 1.692 0 -1.81 -3.46c1.03,-0.42 1.646,-1.292 1.646,-2.486 0,-1.716 -1.192,-2.79 -3.112,-2.79l-3.404 0 0 8.736zm1.548 -4.452l0 -2.976 1.77 0c1.042,0 1.686,0.57 1.686,1.482 0,0.918 -0.644,1.494 -1.676,1.494l-1.78 0zm5.459 -2.942l2.719 0 0 7.394 1.548 0 0 -7.394 2.706 0 0 -1.34 -6.973 0 0 1.34z"/>
   <path class="fil17" d="M226.607 199.329c2.072,0 3.362,-1.032 3.362,-2.66 0,-1.282 -0.812,-2.036 -2.622,-2.44l-0.886 -0.204c-1.14,-0.264 -1.592,-0.592 -1.592,-1.178 0,-0.714 0.686,-1.21 1.656,-1.21 1.022,0 1.692,0.556 1.756,1.474l1.466 0c-0.052,-1.732 -1.26,-2.782 -3.216,-2.782 -1.932,0 -3.21,1.038 -3.21,2.594 0,1.224 0.8,1.99 2.546,2.388l0.94 0.212c1.168,0.268 1.626,0.626 1.626,1.24 0,0.768 -0.722,1.258 -1.814,1.258 -1.216,0 -1.944,-0.626 -1.954,-1.68l-1.514 0c0,1.868 1.292,2.988 3.456,2.988zm33.722 -7.526l2.718 0 0 7.394 1.548 0 0 -7.394 2.706 0 0 -1.34 -6.972 0 0 1.34zm-29.2 7.392l6.064 0 0 -1.34 -4.516 0 0 -2.426 4.176 0 0 -1.32 -4.176 0 0 -2.306 4.516 0 0 -1.34 -6.064 0 0 8.732zm7.184 0l5.596 0 0 -1.34 -4.048 0 0 -7.394 -1.548 0 0 8.734zm6.598 0l6.064 0 0 -1.34 -4.516 0 0 -2.426 4.176 0 0 -1.32 -4.176 0 0 -2.306 4.516 0 0 -1.34 -6.064 0 0 8.732zm10.986 0.132c1.968,0 3.468,-1.218 3.762,-3.118l-1.57 0c-0.246,1.104 -1.068,1.73 -2.18,1.73 -1.606,0 -2.566,-1.234 -2.566,-3.104 0,-1.882 0.966,-3.116 2.566,-3.116 1.118,0 1.94,0.632 2.174,1.742l1.576 0c-0.294,-1.906 -1.794,-3.13 -3.762,-3.13 -2.408,0 -4.114,1.768 -4.114,4.504 0,2.718 1.706,4.492 4.114,4.492z"/>
   <path class="fil17" d="M272.339 213.463l1.664 0 0.714 -2.089 3.388 0 0.696 2.089 1.706 0 -3.106 -8.736 -1.944 0 -3.118 8.736zm2.812 -3.36l0.422 -1.23c0.264,-0.805 0.528,-1.643 0.856,-2.745 0.328,1.102 0.586,1.94 0.844,2.745l0.41 1.23 -2.532 0zm6.166 3.36l1.548 0 0 -4.393c0,-0.379 -0.006,-1.129 -0.042,-2.103 0.532,0.943 0.994,1.717 1.24,2.109l2.76 4.387 1.67 0 0 -8.736 -1.548 0 0 4.759c0,0.347 0.012,1.075 0.036,1.73 -0.346,-0.621 -0.732,-1.29 -0.936,-1.618l-3.058 -4.871 -1.67 0 0 8.736zm7.984 0l1.663 0 0.715 -2.089 3.388 0 0.696 2.089 1.706 0 -3.106 -8.736 -1.944 0 -3.118 8.736zm2.812 -3.36l0.421 -1.23c0.265,-0.805 0.528,-1.643 0.857,-2.745 0.328,1.102 0.586,1.94 0.844,2.745l0.41 1.23 -2.532 0zm6.166 3.358l5.596 0 0 -1.341 -4.048 0 0 -7.393 -1.548 0 0 8.734zm10.016 0.132c2.342,0 4.066,-1.775 4.066,-4.492 0,-2.73 -1.724,-4.504 -4.066,-4.504 -2.34,0 -4.07,1.774 -4.07,4.504 0,2.711 1.73,4.492 4.07,4.492zm0 -1.388c-1.43,0 -2.51,-1.116 -2.51,-3.104 0,-1.994 1.08,-3.117 2.51,-3.117 1.426,0 2.506,1.123 2.506,3.117 0,1.988 -1.08,3.104 -2.506,3.104zm9.004 1.388c2.204,0 3.81,-1.507 3.81,-3.625l0 -1.053 -3.552 0 0 1.223 2.028 0c-0.012,1.231 -0.96,2.067 -2.25,2.067 -1.572,0 -2.574,-1.22 -2.574,-3.103 0,-1.889 0.996,-3.118 2.562,-3.118 1.12,0 1.94,0.663 2.158,1.644l1.568 0c-0.25,-1.802 -1.816,-3.031 -3.768,-3.031 -2.344,0 -4.08,1.768 -4.08,4.505 0,2.665 1.676,4.491 4.098,4.491z"/>
   <path id="sony" class="fil17" d="M282.779 141.622c-3.584,0 -6.906,-1.068 -9.12,-3.058 -1.579,-1.419 -2.482,-3.444 -2.482,-5.567 0,-0.028 0.001,-0.058 0.001,-0.086 -0.001,-0.006 -0.001,-0.012 -0.001,-0.018 0,-2.137 0.902,-4.176 2.482,-5.614 2.056,-1.869 5.694,-3.055 9.12,-3.055 3.79,0 6.825,0.955 9.144,3.058 1.559,1.424 2.448,3.441 2.448,5.553 0,0.025 0,0.051 0,0.076 -0.011,2.139 -0.896,4.182 -2.448,5.653 -2.161,2.003 -5.554,3.058 -9.144,3.058l0 -2.289c1.9,0 3.664,-0.656 4.895,-1.882 1.232,-1.226 1.792,-2.713 1.792,-4.548 0,-1.751 -0.615,-3.388 -1.792,-4.547 -1.215,-1.196 -3.021,-1.87 -4.895,-1.87 -1.874,0 -3.687,0.668 -4.903,1.87 -1.172,1.161 -1.779,2.804 -1.779,4.547 -0.001,0.043 -0.002,0.089 -0.002,0.133 0,1.647 0.638,3.229 1.781,4.414 1.215,1.212 3.017,1.882 4.903,1.882l0 2.29zm-26.172 -17.398c-1.916,0 -4.093,0.36 -5.932,1.186 -1.716,0.767 -3.114,1.999 -3.114,4.041 0,0.003 0,0.007 0,0.01 0,1.066 0.408,2.093 1.137,2.869 0.497,0.458 1.297,1.237 3.389,1.696 0.936,0.198 2.934,0.516 4.925,0.726 1.991,0.209 3.921,0.395 4.711,0.607 0.629,0.16 1.687,0.377 1.687,1.564 0,1.186 -1.113,1.542 -1.307,1.619 -0.194,0.077 -1.53,0.69 -3.93,0.69 -1.588,-0.043 -3.169,-0.316 -4.681,-0.804 -0.895,-0.32 -1.835,-0.741 -2.71,-1.811 -0.353,-0.504 -0.55,-1.102 -0.564,-1.717l-2.174 0 0 6.089 2.416 0 0 -0.824c0,-0.001 0,-0.002 0,-0.002 0,-0.19 0.154,-0.344 0.344,-0.344 0.063,0 0.124,0.017 0.178,0.049 1.136,0.496 2.324,0.882 3.534,1.144 1.269,0.265 2.09,0.457 3.668,0.457 0.095,0 0.2,0.001 0.298,0.001 1.564,0 3.123,-0.236 4.618,-0.697 1.054,-0.288 2.048,-0.78 2.919,-1.441 0.987,-0.757 1.565,-1.929 1.565,-3.173 0,-0.01 0,-0.021 0,-0.031 0,-0.011 0,-0.021 0,-0.032 0,-1.164 -0.454,-2.284 -1.264,-3.12 -0.454,-0.44 -0.982,-0.802 -1.558,-1.065 -0.617,-0.279 -1.263,-0.505 -1.922,-0.671 -1.253,-0.306 -4.068,-0.69 -5.415,-0.824 -1.411,-0.147 -3.861,-0.35 -4.84,-0.653 -0.296,-0.093 -0.901,-0.379 -0.901,-1.081 0,-0.5 0.276,-0.923 0.822,-1.265 0.868,-0.544 2.62,-0.882 4.446,-0.882 0.049,0.001 0.106,-0.001 0.156,-0.001 1.715,0 3.418,0.345 4.997,1.008 0.437,0.19 0.851,0.437 1.226,0.731 0.612,0.523 1.037,1.233 1.208,2.021l1.951 -0.001 0 -5.3 -2.175 0 0 0.615c0,0.197 -0.198,0.458 -0.593,0.243 -0.98,-0.51 -3.736,-1.613 -7.115,-1.627zm47.744 0.973l10.629 9.59 -0.109 -6.457c-0.012,-0.848 -0.166,-1.202 -1.083,-1.202l-1.997 0 0 -1.931 9.094 0 0 1.931 -1.951 0c-0.933,0 -0.989,0.301 -1.004,1.202l0.164 12.339 -3.114 0 -12.244 -10.925 0 7.752c0.01,0.844 0.049,1.241 0.917,1.241l2.175 0 0 1.932 -8.915 0 0 -1.932 2.088 0c0.779,0 0.747,-0.743 0.747,-1.285l0 -9.049c0,-0.593 -0.083,-1.273 -1.305,-1.273l-1.692 0 0 -1.933 7.6 0zm26.91 13.536c0,0 0,0 0,0 0.18,0 0.359,-0.011 0.538,-0.033 0.187,-0.057 0.34,-0.192 0.419,-0.372 0.027,-0.137 0.041,-0.277 0.041,-0.417l0 -3.055c0,-0.103 0,-0.104 -0.13,-0.267 -0.131,-0.162 -5.568,-6.326 -5.815,-6.603 -0.308,-0.336 -0.85,-0.856 -1.674,-0.856l-1.889 0 0 -1.933 10.657 0 0 1.929 -1.285 0c-0.297,0 -0.495,0.283 -0.241,0.593 0,0 3.586,4.291 3.62,4.336 0.033,0.045 0.063,0.055 0.109,0.014 0.045,-0.042 3.675,-4.31 3.702,-4.35 0.049,-0.064 0.076,-0.143 0.076,-0.224 0,-0.204 -0.166,-0.37 -0.37,-0.37 -0.007,0 -0.014,0.001 -0.022,0.001l-1.319 0 0 -1.929 8.737 0 0 1.933 -1.951 0c-0.708,0 -0.989,0.131 -1.529,0.731l-5.881 6.711c-0.048,0.069 -0.074,0.152 -0.074,0.236 0,0.017 0.001,0.032 0.003,0.048l0 3.053c0,0.14 0.015,0.28 0.043,0.417 0.077,0.18 0.23,0.316 0.417,0.372 0.169,0.022 0.341,0.033 0.512,0.033 0.007,0 0.015,0 0.022,0l1.995 0 0 1.934 -10.601 0 0 -1.934 1.89 0.002z"/>
   <path id="ps" class="fil17" d="M311.839 165.007c-0.591,0.745 -2.038,1.277 -2.038,1.277 0,0 -10.765,3.867 -10.765,3.867 0,0 0,-2.852 0,-2.852 0,0 7.922,-2.823 7.922,-2.823 0.899,-0.322 1.037,-0.777 0.307,-1.016 -0.73,-0.239 -2.05,-0.171 -2.95,0.152 0,0 -5.279,1.86 -5.279,1.86 0,0 0,-2.96 0,-2.96 0,0 0.305,-0.103 0.305,-0.103 0,0 1.525,-0.54 3.67,-0.777 2.145,-0.236 4.771,0.032 6.833,0.814 2.323,0.734 2.584,1.816 1.995,2.561l0 0zm-11.778 -4.855c0,0 0,-7.292 0,-7.292 0,-0.856 -0.158,-1.645 -0.961,-1.868 -0.615,-0.197 -0.998,0.374 -0.998,1.23 0,0 0,18.261 0,18.261 0,0 -4.924,-1.563 -4.924,-1.563 0,0 0,-21.773 0,-21.773 2.094,0.388 5.144,1.307 6.784,1.86 4.171,1.432 5.585,3.214 5.585,7.23 0,3.913 -2.416,5.397 -5.486,3.915l0 0zm-15.92 6.849c-2.385,-0.672 -2.782,-2.071 -1.695,-2.878 1.005,-0.744 2.714,-1.304 2.714,-1.304 0,0 7.061,-2.511 7.061,-2.511 0,0 0,2.862 0,2.862 0,0 -5.081,1.819 -5.081,1.819 -0.898,0.322 -1.036,0.778 -0.307,1.017 0.73,0.239 2.052,0.171 2.951,-0.152 0,0 2.437,-0.884 2.437,-0.884 0,0 0,2.561 0,2.561 -0.154,0.027 -0.327,0.054 -0.486,0.081 -2.438,0.399 -5.035,0.232 -7.594,-0.611l0 0z"/>
   <path id="ps_x0020_one" class="fil18" d="M310.948 182.682c-0.003,-0.002 -0.003,-0.007 -0.006,-0.012m0.006 0.012l0 0 0 0zm-28.67 -1.572c-1.468,0 -2.662,-1.187 -2.662,-2.64 0,-1.459 1.194,-2.643 2.662,-2.643 1.469,0 2.661,1.184 2.661,2.643 0,1.453 -1.192,2.64 -2.661,2.64m0 -6.79c-2.297,0 -4.161,1.875 -4.176,4.152 0,0 0,5.953 0,6.237 0,0.349 0.276,0.548 0.737,0.548 0.504,0 0.779,-0.183 0.777,-0.545 0,-0.19 0,-2.769 0,-2.769l-0.034 -0.342c0.058,0.047 0.15,0.151 0.206,0.195 0.698,0.516 1.557,0.822 2.49,0.822 2.303,0 4.176,-1.857 4.176,-4.148 0.001,-2.287 -1.872,-4.15 -4.176,-4.15zm28.794 8.364l4.139 0c0.328,0.009 0.692,-0.193 0.687,-0.612 -0.042,-1.713 -1.44,-3.103 -3.17,-3.103 -1.746,0 -3.171,1.41 -3.171,3.152 0,1.728 1.425,3.133 3.171,3.139 1.616,0.008 2.326,-0.633 2.721,-1.289 0.09,-0.181 0.144,-0.487 -0.157,-0.703 -0.346,-0.244 -0.71,-0.137 -0.915,0.086 -0.455,0.491 -0.862,0.663 -1.654,0.651 -0.76,-0.007 -1.422,-0.483 -1.714,-1.137 -0.008,-0.024 -0.018,-0.049 -0.027,-0.072 -0.015,-0.036 -0.055,-0.084 -0.068,-0.121l0.158 0.009m-0.127 0.003c0,-0.003 -0.003,-0.005 -0.003,-0.012m0.148 -1.167l-0.129 0.012c0,-0.006 0.051,-0.111 0.071,-0.143 0.288,-0.656 0.847,-1.104 1.717,-1.119 0.897,-0.013 1.532,0.504 1.709,1.112 0.018,0.037 0.043,0.106 0.057,0.146l-0.12 -0.008 -3.305 0zm-18.735 -4.457c0.531,0 0.689,-0.293 0.675,-0.504 -0.089,-1.345 -1.315,-2.227 -2.971,-2.221 -0.87,0.004 -1.647,0.301 -2.188,0.841 -0.533,0.53 -0.814,1.261 -0.809,2.105 0.008,1.487 1.088,2.773 2.902,2.957 1.664,0.182 2.303,0.802 2.303,1.745 0,1.268 -0.899,1.784 -2.23,1.78 -1.236,-0.002 -2.066,-0.733 -2.115,-1.825 0,0 -0.015,-0.385 -0.457,-0.473 -0.273,-0.057 -0.509,-0.041 -0.71,0.02 -0.383,0.114 -0.371,0.476 -0.371,0.476 0.029,1.856 1.351,3.302 3.653,3.305 2.145,0.006 3.719,-1.131 3.723,-3.314 0.004,-2.128 -1.35,-2.933 -3.635,-3.237 -1.022,-0.137 -1.545,-0.682 -1.548,-1.445 -0.001,-0.436 0.122,-0.788 0.367,-1.032 0.256,-0.257 0.652,-0.392 1.115,-0.398 0.853,-0.005 1.291,0.346 1.423,0.709 0.055,0.16 0.172,0.511 0.873,0.511zm4.759 5.067c0,-1.032 0.838,-1.869 1.876,-1.869 1.037,0 1.876,0.837 1.876,1.869 0,1.021 -0.839,1.863 -1.876,1.863 -1.038,0 -1.876,-0.842 -1.876,-1.863m1.876 3.139c1.744,0 3.168,-1.408 3.168,-3.139 0,-1.739 -1.424,-3.151 -3.168,-3.151 -1.746,0 -3.167,1.412 -3.167,3.151 0,1.731 1.421,3.139 3.167,3.139zm4.361 -0.003c0.378,0 0.644,-0.18 0.644,-0.507 0,-0.208 0,-2.626 0,-2.626 0,-1.035 0.84,-1.872 1.872,-1.872 1.042,0 1.881,0.837 1.881,1.872l0 2.629c0,0.308 0.26,0.504 0.636,0.504 0.404,0 0.65,-0.188 0.65,-0.504 0,-0.052 0,-2.629 0,-2.629 0,-1.742 -1.418,-3.154 -3.167,-3.154 -1.743,0 -3.161,1.412 -3.161,3.154 0,0 0,2.436 0,2.629 0,0.32 0.236,0.504 0.645,0.504z"/>
  </g>
  <g id="dpad">
   <g>
    <path class="fil19" d="M135.379 135.729c0,-2.686 -2.202,-4.887 -4.888,-4.887l-18.957 0c-2.687,0 -4.888,2.2 -4.888,4.887l0 14.198c0,1.493 0.554,2.761 1.656,3.77l9.398 8.581c1.884,1.72 4.75,1.726 6.635,0.003l9.388 -8.583c1.103,-1.008 1.656,-2.276 1.656,-3.77l0 -14.199z"/>
    <path class="fil20" d="M121.019 161.689c0.733,0 1.466,-0.265 2.046,-0.796l9.388 -8.582c0.709,-0.649 1.037,-1.425 1.037,-2.383l0 -14.199c0,-1.643 -1.355,-2.998 -2.999,-2.998l-18.943 0c-1.644,0 -2.999,1.355 -2.999,2.998l0 14.199c0,0.958 0.328,1.734 1.037,2.383l9.388 8.582c0.58,0.531 1.313,0.796 2.045,0.796z"/>
    <path class="fil21" d="M121.019 160.744c0.528,0 1.021,-0.189 1.411,-0.545l9.388 -8.582c0.509,-0.466 0.727,-1.002 0.727,-1.689l0 -14.199c0,-1.124 -0.929,-2.053 -2.054,-2.053l-18.943 0c-1.123,0 -2.054,0.93 -2.054,2.053l0 14.199c0,0.687 0.217,1.222 0.727,1.689l9.388 8.582c0.39,0.356 0.883,0.545 1.41,0.545zm0 1.89c-0.991,0 -1.949,-0.378 -2.68,-1.047l-9.388 -8.583c-0.907,-0.828 -1.347,-1.85 -1.347,-3.076l0 -14.199c0,-2.16 1.782,-3.942 3.944,-3.942l18.943 0c2.164,0 3.943,1.779 3.943,3.942l0 14.199c0,1.227 -0.439,2.246 -1.346,3.076l-9.388 8.583c-0.732,0.669 -1.688,1.047 -2.681,1.047z"/>
   </g>
   <g>
    <path class="fil22" d="M79.67 162.706c-2.686,0 -4.887,2.202 -4.887,4.888l0 18.957c0,2.687 2.2,4.888 4.887,4.888l7.1 0 1.889 -14.367 -1.889 -14.366 -7.1 0z"/>
    <path class="fil23" d="M86.77 191.439l7.098 0c1.493,0 2.761,-0.554 3.77,-1.656l8.58 -9.398c1.721,-1.884 1.727,-4.749 0.004,-6.635l-8.583 -9.388c-1.009,-1.103 -2.277,-1.656 -3.77,-1.656l-7.099 0 -1.89 14.366 1.89 14.367z"/>
    <path class="fil12" d="M105.63 177.066c0,-0.732 -0.265,-1.466 -0.796,-2.046l-8.583 -9.388c-0.648,-0.709 -1.424,-1.036 -2.382,-1.036l-14.199 0c-1.643,0 -2.998,1.354 -2.998,2.998l0 18.944c0,1.643 1.355,2.998 2.998,2.998l14.199 0c0.958,0 1.734,-0.328 2.382,-1.036l8.583 -9.388c0.531,-0.581 0.796,-1.314 0.796,-2.046z"/>
    <path class="fil24" d="M104.685 177.066c0,-0.528 -0.189,-1.021 -0.545,-1.411l-8.583 -9.388c-0.466,-0.51 -1.001,-0.727 -1.688,-0.727l-14.199 0c-1.125,0 -2.053,0.929 -2.053,2.054l0 18.944c0,1.122 0.93,2.053 2.053,2.053l14.199 0c0.687,0 1.222,-0.217 1.688,-0.726l8.583 -9.388c0.356,-0.39 0.545,-0.884 0.545,-1.411zm1.889 0c0,0.992 -0.378,1.948 -1.046,2.681l-8.583 9.387c-0.83,0.907 -1.849,1.347 -3.076,1.347l-14.199 0c-2.161,0 -3.943,-1.782 -3.943,-3.943l0 -18.944c0,-2.164 1.78,-3.943 3.943,-3.943l14.199 0c1.226,0 2.248,0.44 3.076,1.346l8.583 9.388c0.668,0.731 1.046,1.689 1.046,2.681z"/>
   </g>
   <g>
    <path class="fil22" d="M162.356 162.706l-7.099 0 -1.89 14.366 1.89 14.367 7.099 0c2.69,0 4.887,-2.199 4.887,-4.888l0 -18.957c0,-2.686 -2.201,-4.888 -4.887,-4.888z"/>
    <path class="fil23" d="M155.257 162.706l-7.1 0c-1.493,0 -2.762,0.553 -3.77,1.656l-8.583 9.388c-1.723,1.886 -1.717,4.751 0.004,6.635l8.583 9.396c1.002,1.105 2.277,1.658 3.767,1.658l7.099 0 1.89 -14.367 -1.89 -14.366z"/>
    <path class="fil12" d="M136.396 177.066c0,-0.732 0.265,-1.466 0.796,-2.046l8.583 -9.388c0.648,-0.709 1.424,-1.036 2.382,-1.036l14.199 0c1.643,0 2.998,1.354 2.998,2.998l0 18.944c0,1.643 -1.355,2.998 -2.998,2.998l-14.199 0c-0.958,0 -1.734,-0.328 -2.382,-1.036l-8.583 -9.388c-0.531,-0.581 -0.796,-1.314 -0.796,-2.046z"/>
    <path class="fil24" d="M135.452 177.066c0,-0.993 0.378,-1.949 1.046,-2.681l8.583 -9.388c0.829,-0.907 1.849,-1.346 3.076,-1.346l14.199 0c2.161,0 3.943,1.781 3.943,3.943l0 18.944c0,2.163 -1.78,3.943 -3.943,3.943l-14.199 0c-1.228,0 -2.246,-0.44 -3.076,-1.347l-8.583 -9.387c-0.668,-0.733 -1.046,-1.689 -1.046,-2.681zm1.889 0c0,0.527 0.189,1.021 0.545,1.411l8.583 9.388c0.466,0.509 1.001,0.726 1.688,0.726l14.199 0c1.125,0 2.053,-0.929 2.053,-2.053l0 -18.944c0,-1.122 -0.93,-2.054 -2.053,-2.054l-14.199 0c-0.687,0 -1.222,0.217 -1.688,0.727l-8.583 9.388c-0.356,0.39 -0.545,0.883 -0.545,1.411z"/>
   </g>
   <g>
    <path class="fil25" d="M135.379 218.415l0 -14.199c0,-1.493 -0.553,-2.761 -1.656,-3.77l-9.388 -8.583c-1.885,-1.723 -4.751,-1.717 -6.635,0.004l-9.396 8.583c-1.105,1.002 -1.658,2.278 -1.658,3.767l0 14.198c0,2.69 2.199,4.888 4.888,4.888l18.957 0c2.686,0 4.888,-2.202 4.888,-4.888z"/>
    <path class="fil26" d="M121.019 192.456c0.733,0 1.466,0.265 2.046,0.795l9.388 8.583c0.709,0.648 1.037,1.425 1.037,2.382l0 14.199c0,1.643 -1.355,2.998 -2.999,2.998l-18.943 0c-1.644,0 -2.999,-1.355 -2.999,-2.998l0 -14.199c0,-0.957 0.328,-1.734 1.037,-2.382l9.388 -8.583c0.58,-0.53 1.313,-0.795 2.045,-0.795z"/>
    <path class="fil27" d="M121.019 191.511c0.993,0 1.949,0.378 2.681,1.046l9.388 8.583c0.907,0.83 1.346,1.849 1.346,3.076l0 14.199c0,2.161 -1.781,3.943 -3.943,3.943l-18.943 0c-2.164,0 -3.944,-1.78 -3.944,-3.943l0 -14.199c0,-1.226 0.44,-2.248 1.347,-3.076l9.388 -8.583c0.731,-0.668 1.689,-1.046 2.68,-1.046zm0 1.889c-0.527,0 -1.02,0.189 -1.41,0.545l-9.388 8.583c-0.51,0.466 -0.727,1.001 -0.727,1.688l0 14.199c0,1.125 0.929,2.053 2.054,2.053l18.943 0c1.122,0 2.054,-0.93 2.054,-2.053l0 -14.199c0,-0.687 -0.218,-1.222 -0.727,-1.688l-9.388 -8.583c-0.39,-0.356 -0.883,-0.545 -1.411,-0.545z"/>
   </g>
  </g>
  <g id="button-analog">
   <path class="fil12" d="M305.498 222.054l-17.019 0c-2.118,0 -3.849,1.731 -3.849,3.85l0 7.061c0,2.119 1.731,3.85 3.849,3.85l17.019 0c2.118,0 3.849,-1.731 3.849,-3.85l0 -7.061c0,-2.119 -1.731,-3.85 -3.849,-3.85z"/>
   <path class="fil8" d="M305.498 222.054l-17.019 0c-2.118,0 -3.849,1.731 -3.849,3.85l0 0.756c0,-2.119 1.731,-3.85 3.849,-3.85l17.019 0c2.118,0 3.849,1.731 3.849,3.85l0 -0.756c0,-2.119 -1.731,-3.85 -3.849,-3.85z"/>
   <path class="fil28" d="M284.63 232.209l0 0.756c0,2.119 1.731,3.85 3.849,3.85l17.019 0c2.118,0 3.849,-1.731 3.849,-3.85l0 -0.756c0,2.119 -1.731,3.85 -3.849,3.85l-17.019 0c-2.118,0 -3.849,-1.731 -3.849,-3.85z"/>
  </g>
 </g>
</svg>
