<?xml version="1.0" encoding="UTF-8"?>
<!DOCTYPE svg PUBLIC "-//W3C//DTD SVG 1.1//EN" "http://www.w3.org/Graphics/SVG/1.1/DTD/svg11.dtd">
<svg xml:space="preserve" viewBox="0 0 582 460" width="582px" height="460px" version="1.1" style="shape-rendering:geometricPrecision; fill-rule:evenodd; clip-rule:evenodd" xmlns="http://www.w3.org/2000/svg">
 <defs>
  <style type="text/css">
    .fil0 {fill:#682452}
    .fil1 {fill:white;fill-opacity:0.5}
    .fil2 {fill:white}
  </style>
 </defs>
 <g>
  <circle class="fil0" cx="496.139" cy="175.711" r="19.276"/>
  <path class="fil1" d="M496.139 157.818c8.073,0 14.898,5.348 17.125,12.694 0.043,0.141 -0.031,0.29 -0.169,0.342 -0.142,0.054 -0.301,-0.015 -0.358,-0.156 -2.649,-6.567 -9.082,-11.201 -16.598,-11.201 -7.518,0 -13.952,4.636 -16.601,11.204 -0.057,0.141 -0.216,0.211 -0.357,0.158 -0.138,-0.053 -0.212,-0.202 -0.169,-0.343 2.225,-7.348 9.051,-12.698 17.127,-12.698z"/>
  <path class="fil2" d="M501.776 183.347c0.053,0.191 0.085,0.342 0.088,0.462 0.004,0.116 -0.024,0.205 -0.077,0.267 -0.056,0.057 -0.147,0.097 -0.274,0.115 -0.126,0.018 -0.294,0.027 -0.509,0.027 -0.21,0 -0.382,-0.004 -0.508,-0.018 -0.126,-0.013 -0.221,-0.035 -0.288,-0.067 -0.067,-0.031 -0.112,-0.071 -0.144,-0.124 -0.031,-0.053 -0.059,-0.116 -0.087,-0.195l-1.141 -4.103 -5.529 0 -1.09 4.049c-0.022,0.08 -0.046,0.147 -0.081,0.204 -0.036,0.058 -0.084,0.103 -0.151,0.143 -0.063,0.04 -0.158,0.066 -0.277,0.084 -0.12,0.018 -0.274,0.027 -0.467,0.027 -0.2,0 -0.361,-0.009 -0.488,-0.031 -0.126,-0.022 -0.217,-0.062 -0.266,-0.125 -0.053,-0.062 -0.077,-0.151 -0.074,-0.266 0.004,-0.12 0.032,-0.271 0.088,-0.462l4.459 -15.659c0.028,-0.097 0.066,-0.177 0.109,-0.235 0.045,-0.062 0.108,-0.111 0.196,-0.142 0.084,-0.036 0.193,-0.062 0.33,-0.076 0.133,-0.013 0.302,-0.017 0.509,-0.017 0.217,0 0.399,0.004 0.543,0.017 0.144,0.014 0.26,0.04 0.348,0.076 0.091,0.031 0.158,0.084 0.207,0.147 0.049,0.066 0.087,0.146 0.112,0.24l4.462 15.662zm-5.725 -13.823l-0.011 0 -2.291 8.4 4.624 0 -2.322 -8.4z"/>
 </g>
</svg>
