<?xml version="1.0" encoding="UTF-8"?>
<!DOCTYPE svg PUBLIC "-//W3C//DTD SVG 1.1//EN" "http://www.w3.org/Graphics/SVG/1.1/DTD/svg11.dtd">
<svg xml:space="preserve" viewBox="0 0 582 460" width="582px" height="460px" version="1.1" style="shape-rendering:geometricPrecision; fill-rule:evenodd; clip-rule:evenodd" xmlns="http://www.w3.org/2000/svg">
 <defs>
  <style type="text/css">
    .fil0 {fill:red}
    .fil1 {fill:white}
  </style>
 </defs>
 <g>
  <path class="fil0" d="M257.777 292.448c-1.192,0 -2.295,1.039 -2.486,1.325 -14.581,21.21 -43.745,29.993 -67.606,20.216 -1.952,-0.843 -3.989,-1.74 -5.8,-2.651 -1.441,-0.724 -2.657,0.157 -3.811,0.829 -19.889,11.589 -36.655,28.901 -46.727,49.71 -15.276,31.551 -14.291,78.042 -51.037,93.953 -27.558,11.932 -59.531,-8.139 -70.589,-34.632 -4.853,-11.63 -8.175,-24.161 -8.616,-36.62 -2.211,-62.451 5.675,-129.438 17.067,-190.723 1.697,-9.137 3.42,-19.188 6.297,-28.003 4.908,-15.044 12.863,-29.388 23.53,-41.426 7.682,-8.671 16.827,-15.978 26.866,-21.822l0.143 -5.187c0.023,-0.845 0.497,-1.657 1.16,-2.32 14.896,-10.427 41.965,-16.073 60.149,-16.073 15.961,0 31.922,0 47.882,0 1.705,0 2.729,1.046 2.817,2.983l0.172 3.775c0.878,-0.175 1.796,-0.43 2.485,-0.627l202.654 0c0.689,0.197 1.607,0.452 2.485,0.627l0.172 -3.775c0.088,-1.937 1.112,-2.983 2.817,-2.983 15.96,0 31.921,0 47.882,0 18.184,0 45.253,5.646 60.149,16.073 0.663,0.663 1.137,1.475 1.16,2.32l0.143 5.187c10.039,5.844 19.185,13.151 26.866,21.822 10.667,12.038 18.622,26.382 23.53,41.426 2.877,8.815 4.6,18.866 6.297,28.003 11.392,61.285 19.278,128.272 17.067,190.723 -0.441,12.459 -3.763,24.99 -8.616,36.62 -11.058,26.493 -43.031,46.564 -70.589,34.632 -36.746,-15.911 -35.761,-62.402 -51.037,-93.953 -10.072,-20.809 -26.838,-38.121 -46.727,-49.71 -1.154,-0.672 -2.37,-1.553 -3.811,-0.829 -1.811,0.911 -3.848,1.808 -5.8,2.651 -23.861,9.777 -53.025,0.994 -67.606,-20.216 -0.191,-0.286 -1.293,-1.325 -2.486,-1.325l-66.446 0zm154.987 -224.362l81.704 0c4.131,0 7.213,-3.698 6.468,-7.761l-3.455 -18.822c-4.298,-23.414 -19.344,-40.859 -43.219,-40.859 -21.587,0 -35.594,8.822 -40.916,30.681l-6.969 28.63c-1.015,4.162 2.104,8.131 6.387,8.131zm-243.528 0l-81.704 0c-4.131,0 -7.213,-3.698 -6.468,-7.761l3.455 -18.822c4.298,-23.414 19.344,-40.859 43.219,-40.859 21.587,0 35.594,8.822 40.916,30.681l6.969 28.63c1.015,4.162 -2.104,8.131 -6.387,8.131z"/>
  <path class="fil1" d="M291 118.488c38.743,0 70.148,31.405 70.148,70.148 0,38.742 -31.405,70.148 -70.148,70.148 -38.743,0 -70.148,-31.406 -70.148,-70.148 0,-38.743 31.405,-70.148 70.148,-70.148zm8.751 73.677c1.279,1.281 1.279,3.37 0,4.65l-6.551 6.55 2.764 2.762c0.976,0.98 0.976,2.565 0,3.545l-6.495 6.492c-5.733,5.733 -14.31,6.885 -21.189,3.458l-14.273 14.275c10.076,8.247 22.955,13.197 36.993,13.197 32.286,0 58.458,-26.173 58.458,-58.458 0,-14.038 -4.95,-26.917 -13.197,-36.993l-14.263 14.264c3.428,6.875 2.277,15.456 -3.457,21.19l-6.495 6.495c-0.976,0.977 -2.562,0.977 -3.541,0l-22.438 -22.441c-0.981,-0.976 -0.981,-2.564 0,-3.541l6.492 -6.495c5.727,-5.726 14.29,-6.884 21.162,-3.47l14.272 -14.272c-10.076,-8.247 -22.957,-13.195 -36.993,-13.195 -32.286,0 -58.458,26.172 -58.458,58.458 0,14.036 4.948,26.916 13.195,36.993l14.282 -14.28c-3.414,-6.874 -2.257,-15.44 3.468,-21.164l6.495 -6.495c0.98,-0.98 2.566,-0.98 3.541,0l2.749 2.747 6.551 -6.55c1.279,-1.28 3.372,-1.28 4.651,0 1.279,1.281 1.279,3.37 0,4.649l-6.55 6.551 7.625 7.629 6.55 -6.551c1.28,-1.279 3.372,-1.279 4.652,0z"/>
 </g>
</svg>
