<?xml version="1.0" encoding="UTF-8"?>
<!DOCTYPE svg PUBLIC "-//W3C//DTD SVG 1.1//EN" "http://www.w3.org/Graphics/SVG/1.1/DTD/svg11.dtd">
<svg xml:space="preserve" viewBox="0 0 582 460" width="582px" height="460px" version="1.1" style="shape-rendering:geometricPrecision; fill-rule:evenodd; clip-rule:evenodd" xmlns="http://www.w3.org/2000/svg" xmlns:xlink="http://www.w3.org/1999/xlink">
 <defs>
  <style type="text/css">
    .str1 {stroke:#885422}
    .str2 {stroke:#885422;stroke-linejoin:round}
    .str3 {stroke:#885422;stroke-width:0.25;stroke-linejoin:round}
    .str4 {stroke:gray;stroke-linecap:round}
    .str0 {stroke:#885422;stroke-linecap:round;stroke-linejoin:round}
    .fil2 {fill:none}
    .fil5 {fill:#5E3818}
    .fil8 {fill:gray}
    .fil7 {fill:#885422}
    .fil12 {fill:#999999}
    .fil11 {fill:silver}
    .fil3 {fill:#E17620}
    .fil6 {fill:#E48232}
    .fil0 {fill:#FF9434}
    .fil13 {fill:black;fill-opacity:0.1}
    .fil1 {fill:#E17620;fill-opacity:0.15}
    .fil14 {fill:black;fill-opacity:0.2}
    .fil10 {fill:url(#id0)}
    .fil4 {fill:url(#id1)}
    .fil9 {fill:url(#id2)}
  </style>
  <linearGradient id="id0" gradientUnits="userSpaceOnUse" x1="373.436" y1="293.349" x2="373.436" y2="227.586">
   <stop offset="0" style="stop-opacity:1; stop-color:gray"/>
   <stop offset="1" style="stop-opacity:1; stop-color:#B3B3B3"/>
  </linearGradient>
  <linearGradient id="id1" gradientUnits="userSpaceOnUse" x1="291" y1="188.613" x2="291" y2="158.667">
   <stop offset="0" style="stop-opacity:1; stop-color:#FFC888"/>
   <stop offset="0.5" style="stop-opacity:1; stop-color:#FF9434"/>
   <stop offset="1" style="stop-opacity:1; stop-color:#E17620"/>
  </linearGradient>
  <linearGradient id="id2" gradientUnits="userSpaceOnUse" xlink:href="#id0" x1="208.564" y1="293.349" x2="208.564" y2="227.586">
  </linearGradient>
 </defs>
 <g>
  <path class="fil0" d="M507.135 102.604c10.038,5.845 19.185,13.151 26.866,21.822 10.667,12.038 18.622,26.382 23.53,41.426 2.877,8.815 4.6,18.866 6.297,28.003 11.392,61.285 19.278,128.272 17.067,190.723 -0.441,12.459 -3.763,24.99 -8.616,36.62 -11.058,26.493 -43.031,46.564 -70.589,34.632 -36.746,-15.911 -35.761,-62.402 -51.037,-93.953 -10.072,-20.809 -26.838,-38.121 -46.727,-49.71 -1.154,-0.672 -2.37,-1.553 -3.811,-0.829 -1.811,0.911 -3.848,1.808 -5.8,2.651 -23.861,9.777 -53.025,0.994 -67.606,-20.216 -0.191,-0.286 -1.293,-1.325 -2.486,-1.325l-66.446 0c-1.192,0 -2.295,1.039 -2.486,1.325 -14.581,21.21 -43.745,29.993 -67.606,20.216 -1.952,-0.843 -3.989,-1.74 -5.8,-2.651 -1.441,-0.724 -2.657,0.157 -3.811,0.829 -19.889,11.589 -36.655,28.901 -46.727,49.71 -15.276,31.551 -14.291,78.042 -51.037,93.953 -27.558,11.932 -59.531,-8.139 -70.589,-34.632 -4.853,-11.63 -8.175,-24.161 -8.616,-36.62 -2.211,-62.451 5.675,-129.438 17.067,-190.723 1.697,-9.137 3.42,-19.188 6.297,-28.003 4.908,-15.044 12.863,-29.388 23.53,-41.426 7.681,-8.671 16.828,-15.977 26.866,-21.822 0.023,-0.845 0.497,-1.657 1.16,-2.319 14.897,-10.428 41.966,-16.073 60.15,-16.073l37.486 0c1.411,0 2.35,0.65 2.757,1.772l10.446 0c0.405,-1.122 1.351,-1.772 2.761,-1.772 8.109,0 17.081,0 25.191,0 1.229,0 2.104,0.542 2.53,1.57 0.878,-0.175 1.796,-0.43 2.485,-0.627l142.338 0c0.689,0.197 1.608,0.452 2.485,0.627 0.426,-1.028 1.301,-1.571 2.53,-1.571 8.11,0 17.082,0 25.191,0 1.41,0 2.356,0.651 2.761,1.772l10.446 0c0.407,-1.121 1.346,-1.772 2.757,-1.772l37.486 0c18.184,0 45.253,5.646 60.15,16.073 0.663,0.663 1.137,1.475 1.16,2.32z"/>
  <path class="fil1" d="M178.074 312.167c-19.889,11.589 -36.655,28.901 -46.727,49.71 -15.276,31.551 -14.291,78.042 -51.037,93.953 -27.558,11.932 -59.531,-8.139 -70.589,-34.632 -4.853,-11.63 -8.175,-24.161 -8.616,-36.62 -2.211,-62.451 5.675,-129.438 17.067,-190.723l0.718 -3.884c-0.461,4.262 -0.696,8.592 -0.696,12.978 0,65.585 52.739,118.754 117.792,118.754 10.835,0 21.326,-1.482 31.291,-4.246 3.475,-2.55 7.081,-3.125 10.797,-5.29zm225.852 0c3.716,2.165 7.322,2.74 10.797,5.29 9.965,2.764 20.456,4.246 31.291,4.246 65.053,0 117.792,-53.169 117.792,-118.754 0,-4.386 -0.235,-8.716 -0.696,-12.978l0.718 3.884c11.392,61.285 19.278,128.272 17.067,190.723 -0.441,12.459 -3.763,24.99 -8.616,36.62 -11.058,26.493 -43.031,46.564 -70.589,34.632 -36.746,-15.911 -35.761,-62.402 -51.037,-93.953 -10.072,-20.809 -26.838,-38.121 -46.727,-49.71z"/>
  <path class="fil2 str0" d="M175.058 302.133c-3.893,2.159 -7.798,3.677 -11.98,4.847 -13.38,3.748 -27.672,4.431 -41.591,2.461 -40.1,-5.251 -75.063,-34.953 -87.159,-73.023 -22.535,-68.594 28.501,-140.961 101.741,-140.961l309.862 0c73.24,0 124.276,72.367 101.741,140.961 -12.096,38.07 -47.059,67.772 -87.159,73.023 -13.919,1.97 -28.211,1.287 -41.591,-2.461 -4.182,-1.17 -8.087,-2.688 -11.98,-4.847"/>
  <path class="fil3" d="M399.841 311.475l0.274 -0.137c1.441,-0.724 2.657,0.157 3.811,0.829 3.716,2.165 7.322,4.53 10.797,7.08 9.965,2.764 20.456,4.245 31.291,4.245 65.053,0 117.792,-53.169 117.792,-118.753 0,-6.618 -0.537,-13.107 -1.569,-19.431 -1.264,-6.601 -2.706,-13.327 -4.706,-19.456 -0.442,-1.354 -0.908,-2.701 -1.398,-4.043 4.437,12.477 6.853,25.922 6.853,39.942 0,65.258 -52.378,118.16 -116.972,118.16 -17.238,0 -31.704,-3.619 -45.5,-10.308 1.059,-2.096 2.933,-4.08 3.526,-4.728 0.949,-1.033 2.154,-1.988 3.148,-2.982 18.559,-16.57 21.707,-44.905 7.789,-65.452 -15.08,-22.867 -45.734,-29.495 -68.601,-14.251 -19.553,12.76 -28.004,38.277 -19.719,60.15 0.759,2.151 1.324,4.494 1.255,6.81l-0.345 -0.197c-0.954,-0.507 -2.094,-0.89 -3.344,-0.89l-66.446 0c-1.25,0 -2.39,0.383 -3.344,0.89l-0.345 0.197c-0.069,-2.316 0.496,-4.659 1.255,-6.81 8.285,-21.873 -0.166,-47.39 -19.719,-60.15 -22.867,-15.244 -53.521,-8.616 -68.601,14.251 -13.918,20.547 -10.77,48.882 7.789,65.452 0.994,0.994 2.199,1.949 3.148,2.982 0.593,0.648 2.467,2.632 3.526,4.728 -13.796,6.689 -28.262,10.308 -45.5,10.308 -64.594,0 -116.972,-52.902 -116.972,-118.16 0,-14.02 2.416,-27.465 6.853,-39.942 -0.49,1.342 -0.956,2.689 -1.398,4.043 -2,6.129 -3.442,12.855 -4.706,19.456 -1.032,6.324 -1.569,12.813 -1.569,19.431 0,65.584 52.739,118.753 117.792,118.753 10.835,0 21.326,-1.481 31.291,-4.245 3.475,-2.55 7.081,-4.915 10.797,-7.08 1.154,-0.672 2.37,-1.553 3.811,-0.829l0.274 0.137c1.74,0.865 3.673,1.714 5.526,2.514 23.8,9.752 52.872,1.037 67.492,-20.053l0.002 0 0.112 -0.163c0.191,-0.286 1.294,-1.325 2.486,-1.325l66.446 0c1.192,0 2.295,1.039 2.486,1.325l0.112 0.163 0.002 0c14.62,21.09 43.692,29.805 67.492,20.053 1.853,-0.8 3.786,-1.649 5.526,-2.514z"/>
  <circle class="fil0" cx="208.564" cy="260.467" r="47.244"/>
  <circle class="fil0" cx="373.436" cy="260.467" r="47.244"/>
  <circle class="fil2 str1" cx="208.563" cy="260.467" r="40.819"/>
  <circle class="fil2 str1" cx="373.436" cy="260.467" r="40.819"/>
  <circle class="fil3" cx="208.564" cy="260.467" r="36.66"/>
  <circle class="fil3" cx="373.436" cy="260.467" r="36.66"/>
  <path class="fil4" d="M331.68 195.03l-81.525 0c-11.5,0 -20.728,-9.441 -20.728,-20.893l0 -1.16c0,-11.489 9.239,-20.727 20.728,-20.727l81.525 0c11.535,0 20.893,9.146 20.893,20.727l0 1.16c0,11.57 -9.321,20.893 -20.893,20.893zm-81.525 -5.001l81.525 0c8.81,0 15.892,-7.082 15.892,-15.892l0 -1.16c0,-8.846 -7.095,-15.727 -15.892,-15.727l-81.525 0c-8.728,0 -15.727,6.999 -15.727,15.727l0 1.16c0,8.716 6.963,15.892 15.727,15.892z"/>
  <path class="fil5" d="M148.911 160.614l24.358 0c1.294,0 2.482,0.538 3.342,1.399 0.86,0.859 1.399,2.048 1.399,3.342l0 21.872c0,1.294 -0.537,2.436 -1.397,3.256 -0.862,0.824 -2.053,1.319 -3.344,1.319l-24.358 0c-0.414,0 -0.79,0.186 -1.069,0.464 -0.302,0.302 -0.487,0.703 -0.487,1.092l0 24.524c0,1.279 -0.524,2.406 -1.336,3.218 -0.845,0.845 -2.015,1.357 -3.239,1.357l-21.873 0c-1.291,0 -2.482,-0.495 -3.344,-1.319 -0.86,-0.82 -1.396,-1.962 -1.396,-3.256l0 -24.524c0,-0.389 -0.186,-0.79 -0.488,-1.092 -0.278,-0.278 -0.654,-0.464 -1.069,-0.464l-24.357 0c-1.292,0 -2.483,-0.495 -3.345,-1.319 -0.859,-0.82 -1.396,-1.962 -1.396,-3.256l0 -21.872c0,-1.294 0.538,-2.483 1.398,-3.342 0.86,-0.861 2.048,-1.399 3.343,-1.399l24.357 0c0.445,0 0.837,-0.169 1.111,-0.442 0.277,-0.277 0.446,-0.67 0.446,-1.114l0 -24.358c0,-1.294 0.538,-2.482 1.398,-3.342 0.86,-0.86 2.048,-1.399 3.342,-1.399l21.873 0c1.228,0 2.391,0.555 3.234,1.44 0.815,0.854 1.341,2.025 1.341,3.301l0 24.358c0,0.444 0.169,0.835 0.444,1.11 0.275,0.275 0.668,0.446 1.112,0.446z"/>
  <path class="fil5" d="M250.52 181.392c-4.073,0.004 -7.439,-3.366 -7.439,-7.438l0 -0.463c0,-4.128 3.269,-7.593 7.439,-7.593l27.676 0.003c4.155,-0.008 7.594,3.435 7.594,7.589l0 0.464c0,4.094 -3.543,7.439 -7.594,7.439l-27.676 -0.001z"/>
  <path class="fil5" d="M303.649 181.392c-4.073,0.004 -7.439,-3.366 -7.439,-7.437l0 -0.464c0,-4.128 3.269,-7.593 7.439,-7.593l27.676 0.003c4.155,-0.008 7.594,3.435 7.594,7.59l0 0.463c0,4.094 -3.544,7.439 -7.594,7.439l-27.676 -0.001z"/>
  <circle class="fil5" cx="405.251" cy="175.711" r="20.409"/>
  <circle class="fil5" cx="450.819" cy="136.108" r="20.409"/>
  <circle class="fil5" cx="450.819" cy="215.397" r="20.409"/>
  <circle class="fil5" cx="496.139" cy="175.711" r="20.409"/>
  <path class="fil2 str2" d="M143.774 271.072c0,-6.628 -5.468,-12.262 -12.096,-12.262 -6.794,0 -12.262,5.634 -12.262,12.262 0,6.629 5.468,12.096 12.262,12.096 6.628,0 12.096,-5.467 12.096,-12.096z"/>
  <path class="fil6" d="M131.935 262.293l2.254 4.539c0.114,0.23 0.317,0.377 0.571,0.414l5.013 0.741c0.146,0.021 0.26,0.118 0.306,0.258 0.046,0.141 0.01,0.286 -0.095,0.389l-3.621 3.547c-0.184,0.18 -0.261,0.417 -0.218,0.67l0.845 4.997c0.025,0.147 -0.032,0.285 -0.151,0.372 -0.12,0.087 -0.269,0.097 -0.4,0.029l-4.491 -2.348c-0.228,-0.119 -0.478,-0.119 -0.706,0l-4.491 2.348c-0.131,0.068 -0.28,0.058 -0.4,-0.029 -0.12,-0.087 -0.176,-0.225 -0.151,-0.372l0.845 -4.997c0.043,-0.253 -0.034,-0.49 -0.218,-0.67l-3.621 -3.547c-0.106,-0.103 -0.141,-0.248 -0.095,-0.389 0.045,-0.14 0.16,-0.237 0.306,-0.258l5.013 -0.741c0.254,-0.037 0.457,-0.184 0.571,-0.414l2.253 -4.539c0.066,-0.133 0.193,-0.212 0.341,-0.212 0.148,0 0.275,0.079 0.34,0.212z"/>
  <path class="fil7" d="M301.439 235.333c1.252,0 2.267,1.015 2.267,2.268 0,1.252 -1.015,2.267 -2.267,2.267 -1.253,0 -2.268,-1.015 -2.268,-2.267 0,-1.253 1.015,-2.268 2.268,-2.268zm-10.191 0c1.253,0 2.268,1.015 2.268,2.268 0,1.252 -1.015,2.267 -2.268,2.267 -1.252,0 -2.267,-1.015 -2.267,-2.267 0,-1.253 1.015,-2.268 2.267,-2.268zm-10.19 0c1.252,0 2.268,1.015 2.268,2.268 0,1.252 -1.016,2.267 -2.268,2.267 -1.253,0 -2.268,-1.015 -2.268,-2.267 0,-1.253 1.015,-2.268 2.268,-2.268z"/>
  <path class="fil2 str2" d="M285.449 253.177l11.599 0c3.811,0 6.96,3.148 6.96,7.125 0,3.811 -3.149,6.959 -6.96,6.959l-11.599 0c-3.811,0 -6.96,-3.148 -6.96,-6.959 0,-3.977 3.149,-7.125 6.96,-7.125z"/>
  <path class="fil3 str3" d="M466.082 271.094c0,-8.351 -6.681,-15.45 -15.241,-15.45 -8.351,0 -15.449,7.099 -15.449,15.45 0,8.351 7.098,15.239 15.449,15.239 8.56,0 15.241,-6.888 15.241,-15.239zm-3.167 -0.022c0,-6.628 -5.302,-12.262 -12.096,-12.262 -6.628,0 -12.262,5.634 -12.262,12.262 0,6.629 5.634,12.096 12.262,12.096 6.794,0 12.096,-5.467 12.096,-12.096z"/>
  <path class="fil6" d="M448.996 268.09l3.646 0 0 -3.811 3.977 0 0 3.811 3.645 0 0 4.142 -3.645 0 0 3.646 -3.811 0 0 3.811 -3.977 0 0 -3.811 -3.811 0 0 -3.646 -3.646 0 0 -4.142 3.646 0 0 -3.811 3.976 0 0 3.811zm3.812 0.166l0 3.645 3.645 0 0 -3.645 -3.645 0zm-7.622 0l0 3.645 3.645 0 0 -3.645 -3.645 0zm7.456 3.976l-3.646 0 0 3.48 3.646 0 0 -3.48z"/>
  <g>
   <path class="fil8" d="M249.967 128.882c0,1.517 -1.16,2.819 -3.722,2.819 -1.948,0 -3.254,-1.013 -3.254,-2.546 0,-1.055 0.65,-1.916 2.062,-2.221 0.084,-0.026 0.105,-0.121 0.043,-0.173l-0.247 -0.215c-0.798,-0.698 -1.591,-1.496 -1.591,-2.756 0,-1.57 1.092,-2.557 3.339,-2.557 1.947,0 3.228,0.903 3.228,2.294 0,0.961 -0.719,1.643 -1.979,1.89 -0.084,0.026 -0.1,0.11 -0.042,0.168l0.519 0.462c0.987,0.887 1.643,1.601 1.643,2.835l0.001 0zm-2.42 1.134c0,-0.615 -0.226,-1.318 -1.003,-1.995l-0.96 -0.84c-0.042,-0.047 -0.121,-0.036 -0.147,0.042 -0.142,0.509 -0.184,1.129 -0.184,1.948 0,1.328 0.383,2.136 1.097,2.136 0.693,0 1.191,-0.519 1.191,-1.286l0.006 -0.005zm-1.921 -7.218c0,0.666 0.288,1.118 1.133,1.863l0.588 0.52c0.058,0.058 0.111,0.026 0.142,-0.042 0.121,-0.457 0.147,-0.929 0.147,-1.591 0,-1.202 -0.341,-1.89 -1.092,-1.89 -0.562,0 -0.918,0.415 -0.918,1.139l0 0.001zm12.319 6.005c0,1.779 -1.191,2.682 -3.569,2.682l-4.194 0c-0.121,0 -0.215,-0.063 -0.215,-0.131 0,-0.068 0.042,-0.141 0.121,-0.184 0.341,-0.173 0.671,-0.377 0.671,-1.306l0 -6.788c0,-0.929 -0.33,-1.129 -0.672,-1.302 -0.072,-0.025 -0.12,-0.092 -0.121,-0.168 0,-0.079 0.1,-0.147 0.216,-0.147l4.367 0c1.99,0 3.008,0.793 3.008,2.336 0,1.486 -0.877,2.263 -2.504,2.415 -0.063,0 -0.089,0.047 -0.089,0.089 0,0.042 0.026,0.084 0.089,0.084 1.727,0.016 2.892,0.835 2.892,2.42l0 0zm-4.351 -6.677l0 3.8c0,0.126 0.058,0.195 0.205,0.195 0.63,0 0.918,-0.741 0.918,-2.137 0,-1.218 -0.273,-2.079 -0.877,-2.079 -0.162,0 -0.246,0.09 -0.246,0.215l0 0.006zm1.344 6.688c0,-1.518 -0.426,-2.268 -1.16,-2.268 -0.126,0 -0.184,0.063 -0.184,0.189l0 4.068c0,0.131 0.068,0.231 0.247,0.231 0.756,0 1.097,-0.987 1.097,-2.22l0 0zm7.102 2.462c0,0.11 -0.1,0.204 -0.21,0.204l-3.669 0c-0.111,0 -0.216,-0.079 -0.216,-0.162l0 -0.027c0,-0.068 0.043,-0.141 0.111,-0.173 0.404,-0.194 0.614,-0.582 0.614,-1.317l0 -3.092c0,-0.614 -0.184,-0.945 -0.509,-1.071 -0.084,-0.037 -0.147,-0.105 -0.147,-0.189l0 -0.026c0,-0.106 0.089,-0.174 0.215,-0.174 0.877,-0.015 1.932,-0.141 2.851,-0.399 0.173,-0.057 0.315,0.058 0.315,0.231l0 4.725c0,0.792 0.23,1.134 0.546,1.302 0.057,0.047 0.099,0.105 0.099,0.173l0 -0.005zm-3.711 -8.247c0,-0.887 0.687,-1.601 1.59,-1.601 0.903,0 1.596,0.714 1.596,1.601 0,0.876 -0.693,1.575 -1.596,1.575 -0.903,0 -1.59,-0.699 -1.59,-1.575l0 0zm8.036 6.588c-0.068,1.281 -0.866,2.078 -2.073,2.078 -1.365,0 -1.969,-0.876 -1.969,-2.057l0 -4.583 -0.273 0c-0.11,0 -0.209,-0.105 -0.209,-0.205l0 -0.057c0,-0.069 0.042,-0.148 0.125,-0.174 1.118,-0.467 2.221,-1.344 2.641,-2.315 0.026,-0.089 0.1,-0.131 0.168,-0.131l0.068 0c0.121,0 0.204,0.105 0.204,0.215l0 2.105 0.903 0c0.121,0 0.216,0.1 0.216,0.215l0 0.21c0,0.121 -0.1,0.215 -0.216,0.215l-0.903 0 0 4.258c0,0.441 0.174,0.73 0.478,0.73 0.273,0 0.415,-0.184 0.468,-0.525 0.015,-0.121 0.104,-0.205 0.204,-0.205 0.1,0 0.19,0.1 0.168,0.226l0 0zm8.357 -3.192c0,3.407 -2.063,5.06 -4.142,5.06l-4.026 0c-0.11,0 -0.215,-0.078 -0.215,-0.147l0 -0.015c0,-0.069 0.047,-0.126 0.105,-0.168 0.383,-0.247 0.63,-0.861 0.63,-1.58l0 -6.42c0,-0.898 -0.247,-1.181 -0.63,-1.386 -0.058,-0.042 -0.105,-0.1 -0.105,-0.168 0,-0.079 0.105,-0.147 0.215,-0.147l3.984 0c2.562,0 4.184,1.947 4.184,4.971l0 0zm-4.556 -4.53c-0.131,0 -0.231,0.089 -0.231,0.215l0 8.709c0,0.131 0.042,0.247 0.215,0.247 1.176,0 1.517,-0.972 1.517,-4.368 0,-3.407 -0.383,-4.803 -1.507,-4.803l0.006 0zm4.907 6.031c0,-2.231 1.386,-3.753 3.208,-3.753 1.821,0 3.212,1.517 3.212,3.753 0,2.231 -1.391,3.764 -3.212,3.764 -1.822,0 -3.208,-1.533 -3.208,-3.764l0 0zm3.754 0c0,-2.378 -0.189,-3.191 -0.546,-3.191 -0.357,0 -0.546,0.813 -0.546,3.191 0,2.378 0.189,3.192 0.546,3.192 0.357,0 0.546,-0.814 0.546,-3.192l0 0zm1.868 -6.504c0.442,0 0.798,0.357 0.798,0.793 0,0.441 -0.356,0.798 -0.798,0.798 -0.439,0 -0.795,-0.357 -0.795,-0.795 0,-0.44 0.356,-0.796 0.795,-0.796l0 0zm-0.666 0.793c0,0.373 0.299,0.677 0.666,0.677 0.363,0 0.667,-0.309 0.667,-0.677 0,-0.362 -0.299,-0.672 -0.667,-0.672 -0.362,0 -0.666,0.31 -0.666,0.672l0 0zm0.84 0.131c0,0.005 0.005,0.016 0.015,0.037l0.142 0.247c0.016,0.026 0,0.057 -0.037,0.057l-0.047 0c-0.021,0 -0.036,-0.005 -0.047,-0.042l-0.152 -0.267c-0.006,-0.016 -0.021,-0.021 -0.037,-0.021l-0.147 0c-0.005,0 -0.021,0.005 -0.021,0.021l0 0.267c0,0.022 -0.016,0.042 -0.037,0.042l-0.047 0c-0.021,0 -0.037,-0.02 -0.037,-0.042l0 -0.855c0,-0.021 0.016,-0.037 0.037,-0.037l0.299 0c0.168,0 0.299,0.131 0.299,0.299 0,0.105 -0.058,0.194 -0.147,0.252 -0.021,0.021 -0.036,0.026 -0.036,0.042l0 0zm0.063 -0.294c0,-0.105 -0.079,-0.173 -0.184,-0.173l-0.194 0c-0.006,0 -0.021,0.005 -0.021,0.016l0 0.32c0,0.005 0.015,0.015 0.021,0.015l0.194 0.001c0.105,0 0.184,-0.069 0.184,-0.173l0 -0.006zm0 0l0 0 0 0z"/>
  </g>
  <path class="fil8" d="M309.48 131.532l1.576 0 0 -3.308 1.695 0c2.037,0 3.13,-1.353 3.13,-3.24 0,-1.873 -1.075,-3.24 -3.106,-3.24l-3.295 0 0 9.788zm1.576 -4.746l0 -3.577 1.475 0c1.21,0 1.738,0.726 1.738,1.775 0,1.051 -0.528,1.802 -1.726,1.802l-1.487 0zm6.171 4.746l1.54 0 0 -4.321c0,-0.927 0.632,-1.584 1.491,-1.584 0.273,0 0.598,0.047 0.727,0.085l0 -1.575c-0.149,-0.02 -0.392,-0.038 -0.563,-0.038 -0.758,0 -1.397,0.48 -1.633,1.324l-0.071 0 0 -1.232 -1.491 0 0 7.341zm7.42 0.148c1.925,0 3.164,-1.522 3.164,-3.783 0,-2.285 -1.239,-3.8 -3.164,-3.8 -1.926,0 -3.153,1.515 -3.153,3.8 0,2.261 1.227,3.783 3.153,3.783zm0 -1.385c-1.069,0 -1.589,-1.065 -1.589,-2.404 0,-1.352 0.52,-2.409 1.589,-2.409 1.074,0 1.6,1.057 1.6,2.409 0,1.339 -0.526,2.404 -1.6,2.404zm10.61 1.371c1.881,0 3.245,-1.189 3.245,-2.839 0,-1.226 -0.679,-2.113 -1.908,-2.303l0 -0.079c0.952,-0.237 1.593,-1.022 1.593,-2.131 0,-1.49 -1.142,-2.705 -2.9,-2.705 -1.712,0 -3.037,1.13 -3.067,2.766l1.521 0c0.025,-0.832 0.715,-1.34 1.534,-1.34 0.828,0 1.372,0.553 1.372,1.384 0,0.868 -0.633,1.441 -1.55,1.441l-0.782 0 0 1.354 0.782 0c1.117,0 1.78,0.625 1.78,1.519 0,0.876 -0.675,1.468 -1.62,1.468 -0.895,0 -1.588,-0.513 -1.629,-1.316l-1.592 0c0.04,1.65 1.368,2.781 3.221,2.781z"/>
  <line class="fil2 str4" x1="243.526" y1="137.646" x2="338.474" y2= "137.646" />
  <path class="fil8" d="M250.85 208.254l-2.754 0 0 0.982 2.754 0 0 -0.982zm5.01 3.423c1.159,0 1.973,-0.666 1.973,-1.634 0,-0.717 -0.415,-1.173 -1.286,-1.379l-0.781 -0.182c-0.469,-0.114 -0.652,-0.301 -0.652,-0.599 0,-0.347 0.343,-0.594 0.795,-0.594 0.493,0 0.757,0.284 0.864,0.639l0.952 -0.209c-0.183,-0.79 -0.788,-1.315 -1.827,-1.315 -1.102,0 -1.854,0.606 -1.854,1.552 0,0.75 0.424,1.221 1.291,1.43l0.785 0.188c0.418,0.1 0.619,0.287 0.619,0.584 0,0.347 -0.333,0.612 -0.858,0.612 -0.522,0 -0.842,-0.242 -0.965,-0.749l-0.998 0.211c0.159,0.926 0.887,1.445 1.942,1.445zm4.92 -0.002c1.023,0 1.74,-0.544 1.962,-1.371l-0.984 -0.225c-0.143,0.435 -0.497,0.664 -0.966,0.664 -0.686,0 -1.15,-0.485 -1.179,-1.395l3.199 0 0 -0.372c0,-1.787 -0.979,-2.572 -2.102,-2.572 -1.314,0 -2.158,1.078 -2.158,2.643 0,1.599 0.844,2.628 2.228,2.628zm-1.167 -3.131c0.05,-0.68 0.444,-1.208 1.1,-1.208 0.638,0 0.996,0.478 1.058,1.208l-2.158 0zm5.182 -3.779l-1.069 0 0 6.809 1.069 0 0 -6.809zm3.169 6.91c1.023,0 1.74,-0.544 1.962,-1.371l-0.984 -0.225c-0.143,0.435 -0.497,0.664 -0.966,0.664 -0.686,0 -1.151,-0.485 -1.179,-1.395l3.199 0 0 -0.372c0,-1.787 -0.98,-2.572 -2.103,-2.572 -1.313,0 -2.157,1.078 -2.157,2.643 0,1.599 0.844,2.628 2.228,2.628zm-1.167 -3.131c0.05,-0.68 0.444,-1.208 1.099,-1.208 0.639,0 0.997,0.478 1.058,1.208l-2.157 0zm6.112 3.133c1.031,0 1.796,-0.62 1.994,-1.638l-0.999 -0.234c-0.111,0.553 -0.461,0.909 -0.987,0.909 -0.745,0 -1.114,-0.727 -1.114,-1.673 0,-0.954 0.369,-1.676 1.114,-1.676 0.518,0 0.859,0.342 0.974,0.873l1 -0.233c-0.199,-0.996 -0.959,-1.603 -1.982,-1.603 -1.341,0 -2.193,1.054 -2.193,2.644 0,1.572 0.852,2.631 2.193,2.631zm5.032 -5.208l-0.888 0 0 -1.214 -1.069 0 0 1.214 -0.653 0 0 0.932 0.653 0 0 2.829c0,0.904 0.489,1.408 1.368,1.408 0.228,0 0.482,-0.031 0.716,-0.109l-0.168 -0.92c-0.103,0.026 -0.292,0.059 -0.39,0.059 -0.326,0 -0.457,-0.168 -0.457,-0.537l0 -2.73 0.888 0 0 -0.932zm25.992 4.701l0.927 0 0 -1.812 1.603 0 0 -0.973 -1.603 0 0 -1.808 -0.927 0 0 1.808 -1.598 0 0 0.973 1.598 0 0 1.812zm7.727 0.507c1.16,0 1.974,-0.666 1.974,-1.634 0,-0.717 -0.416,-1.173 -1.288,-1.379l-0.78 -0.182c-0.469,-0.114 -0.652,-0.301 -0.652,-0.599 0,-0.347 0.343,-0.594 0.795,-0.594 0.493,0 0.757,0.284 0.863,0.639l0.953 -0.209c-0.183,-0.79 -0.788,-1.315 -1.827,-1.315 -1.102,0 -1.854,0.606 -1.854,1.552 0,0.75 0.424,1.221 1.291,1.43l0.785 0.188c0.418,0.1 0.619,0.287 0.619,0.584 0,0.347 -0.333,0.612 -0.858,0.612 -0.522,0 -0.842,-0.242 -0.965,-0.749l-0.999 0.211c0.161,0.926 0.887,1.445 1.943,1.445zm5.011 -5.208l-0.887 0 0 -1.214 -1.069 0 0 1.214 -0.653 0 0 0.932 0.653 0 0 2.829c0,0.904 0.489,1.408 1.368,1.408 0.227,0 0.481,-0.031 0.716,-0.109l-0.168 -0.92c-0.103,0.026 -0.293,0.059 -0.391,0.059 -0.325,0 -0.456,-0.168 -0.456,-0.537l0 -2.73 0.887 0 0 -0.932zm2.174 5.208c0.715,0 1.151,-0.37 1.353,-0.806l0.041 0 0 0.703 1.026 0 0 -3.412c0,-1.361 -1.011,-1.758 -1.877,-1.758 -0.922,0 -1.678,0.433 -1.949,1.334l0.989 0.223c0.113,-0.338 0.43,-0.644 0.965,-0.644 0.523,0 0.802,0.293 0.802,0.79l0 0.024c0,0.351 -0.336,0.365 -1.137,0.461 -0.888,0.105 -1.751,0.397 -1.751,1.548 0,1.004 0.661,1.537 1.538,1.537zm0.275 -0.879c-0.452,0 -0.777,-0.228 -0.777,-0.67 0,-0.467 0.362,-0.663 0.843,-0.736 0.277,-0.042 0.875,-0.123 1.018,-0.253l0 0.603c0,0.568 -0.424,1.056 -1.084,1.056zm3.275 0.776l1.069 0 0 -3.005c0,-0.645 0.439,-1.102 1.036,-1.102 0.19,0 0.416,0.033 0.505,0.059l0 -1.096c-0.103,-0.014 -0.272,-0.026 -0.391,-0.026 -0.526,0 -0.97,0.333 -1.134,0.921l-0.049 0 0 -0.857 -1.036 0 0 5.106zm5.62 -5.105l-0.887 0 0 -1.214 -1.07 0 0 1.214 -0.653 0 0 0.932 0.653 0 0 2.829c0,0.904 0.49,1.408 1.369,1.408 0.227,0 0.481,-0.031 0.716,-0.109l-0.169 -0.92c-0.102,0.026 -0.292,0.059 -0.39,0.059 -0.325,0 -0.456,-0.168 -0.456,-0.537l0 -2.73 0.887 0 0 -0.932z"/>
  <circle class="fil9" cx="208.564" cy="260.467" r="32.882"/>
  <circle class="fil10" cx="373.436" cy="260.467" r="32.882"/>
  <path class="fil11" d="M217.346 85.782l-0.172 -3.775c-0.088,-1.937 -1.112,-2.983 -2.817,-2.983 -8.11,0 -16.249,0 -24.358,0 -1.861,0 -2.912,1.131 -2.983,2.983l-0.152 3.977 28.825 0c0.476,0 1.056,-0.083 1.657,-0.202z"/>
  <path class="fil12" d="M186.902 84.983l28.787 0c0.451,0 1.022,-0.086 1.611,-0.209l0.046 1.008c-0.601,0.119 -1.181,0.202 -1.657,0.202l-28.825 0 0.038 -1.001z"/>
  <path class="fil11" d="M364.654 85.782l0.172 -3.775c0.088,-1.937 1.112,-2.983 2.817,-2.983 8.11,0 16.249,0 24.358,0 1.861,0 2.912,1.131 2.983,2.983l0.152 3.977 -28.825 0c-0.476,0 -1.056,-0.083 -1.657,-0.202z"/>
  <path class="fil12" d="M395.098 84.983l-28.787 0c-0.451,0 -1.022,-0.086 -1.611,-0.209l-0.046 1.008c0.601,0.119 1.181,0.202 1.657,0.202l28.825 0 -0.038 -1.001z"/>
  <path class="fil11" d="M173.269 161.709l-24.358 0c-1.492,0 -2.652,-1.159 -2.652,-2.651l0 -24.358c0,-1.989 -1.656,-3.646 -3.479,-3.646l-21.873 0c-1.988,0 -3.645,1.657 -3.645,3.646l0 24.358c0,1.492 -1.16,2.651 -2.652,2.651l-24.357 0c-1.989,0 -3.646,1.657 -3.646,3.646l0 21.872c0,1.989 1.657,3.48 3.646,3.48l24.357 0c1.492,0 2.652,1.326 2.652,2.651l0 24.524c0,1.988 1.657,3.48 3.645,3.48l21.873 0c1.823,0 3.479,-1.492 3.479,-3.48l0 -24.524c0,-1.325 1.16,-2.651 2.652,-2.651l24.358 0c1.989,0 3.646,-1.491 3.646,-3.48l0 -21.872c0,-1.989 -1.657,-3.646 -3.646,-3.646z"/>
  <path class="fil13" d="M156.861 168.27l12.935 7.466c0.081,0.046 0.151,0.114 0.2,0.2 0.149,0.26 0.06,0.595 -0.2,0.745l-12.885 7.438c-0.09,0.064 -0.202,0.104 -0.322,0.104 -0.301,0 -0.548,-0.247 -0.548,-0.548l0 -14.933c0.003,-0.093 0.026,-0.186 0.076,-0.272 0.149,-0.26 0.484,-0.35 0.744,-0.2zm-17.079 32.956l-7.466 12.935c-0.046,0.081 -0.114,0.15 -0.201,0.2 -0.26,0.149 -0.595,0.06 -0.744,-0.2l-7.438 -12.886c-0.065,-0.089 -0.104,-0.202 -0.104,-0.321 0,-0.301 0.247,-0.549 0.548,-0.549l14.933 0c0.093,0.004 0.186,0.027 0.272,0.077 0.26,0.149 0.349,0.484 0.2,0.744zm-45.891 -25.49l12.935 -7.466c0.26,-0.15 0.595,-0.06 0.744,0.2 0.049,0.086 0.073,0.179 0.073,0.272l0.003 14.933c0,0.301 -0.247,0.548 -0.548,0.548 -0.12,0 -0.232,-0.04 -0.322,-0.104l-12.885 -7.438c-0.26,-0.15 -0.35,-0.485 -0.2,-0.745 0.049,-0.086 0.119,-0.154 0.2,-0.2zm38.425 -37.48l7.466 12.935c0.149,0.26 0.06,0.595 -0.2,0.743 -0.086,0.05 -0.179,0.073 -0.272,0.073l-14.933 0.004c-0.301,0 -0.548,-0.247 -0.548,-0.549 0,-0.119 0.039,-0.232 0.104,-0.321l7.438 -12.885c0.149,-0.26 0.484,-0.35 0.744,-0.201 0.087,0.05 0.155,0.12 0.201,0.201z"/>
  <path class="fil14" d="M141.21 176.139c0,-5.18 -4.201,-9.38 -9.38,-9.38 -5.179,0 -9.518,4.2 -9.518,9.38 0,5.179 4.339,9.518 9.518,9.518 5.179,0 9.38,-4.339 9.38,-9.518z"/>
 </g>
</svg>
