<?xml version="1.0" encoding="UTF-8"?>
<!DOCTYPE svg PUBLIC "-//W3C//DTD SVG 1.1//EN" "http://www.w3.org/Graphics/SVG/1.1/DTD/svg11.dtd">
<svg xml:space="preserve" viewBox="0 0 582 460" width="582px" height="460px" version="1.1" style="shape-rendering:geometricPrecision; fill-rule:evenodd; clip-rule:evenodd" xmlns="http://www.w3.org/2000/svg">
 <defs>
  <style type="text/css">
    .fil2 {fill:#D00000}
    .fil1 {fill:#E00000}
    .fil0 {fill:red}
  </style>
 </defs>
 <g>
  <path class="fil0" d="M116.475 191.514c0.489,0.499 0.787,1.172 0.787,1.844l0 24.524c0,1.988 1.657,3.48 3.645,3.48l21.873 0c1.823,0 3.479,-1.492 3.479,-3.48l0 -24.524c0,-0.682 0.307,-1.364 0.809,-1.865l-15.307 -15.285 -15.286 15.306z"/>
  <path class="fil1" d="M139.782 201.226l-7.466 12.935c-0.046,0.081 -0.114,0.15 -0.201,0.2 -0.26,0.149 -0.595,0.06 -0.744,-0.2l-7.438 -12.886c-0.065,-0.089 -0.104,-0.202 -0.104,-0.321 0,-0.301 0.247,-0.549 0.548,-0.549l14.933 0c0.093,0.004 0.186,0.027 0.272,0.077 0.26,0.149 0.349,0.484 0.2,0.744z"/>
  <path class="fil2" d="M125.073 182.906c1.748,1.746 4.146,2.837 6.757,2.837 2.598,0 4.953,-1.082 6.663,-2.812l-6.732 -6.723 -6.688 6.698z"/>
 </g>
</svg>
