<?xml version="1.0" encoding="UTF-8"?>
<!DOCTYPE svg PUBLIC "-//W3C//DTD SVG 1.1//EN" "http://www.w3.org/Graphics/SVG/1.1/DTD/svg11.dtd">
<svg xml:space="preserve" viewBox="0 0 582 460" width="582px" height="460px" version="1.1" style="shape-rendering:geometricPrecision; fill-rule:evenodd; clip-rule:evenodd" xmlns="http://www.w3.org/2000/svg">
 <defs>
  <style type="text/css">
    .fil0 {fill:red}
    .fil1 {fill:#D00000}
    .fil2 {fill:white;fill-opacity:0.1}
  </style>
 </defs>
 <g>
  <path class="fil0" d="M116.511 160.958c0.548,-0.547 0.888,-1.303 0.888,-2.136l0 -24.567c0,-1.665 1.358,-3.023 3.023,-3.023l22.677 0c1.666,0 3.024,1.358 3.024,3.023l0 24.567c0,0.833 0.34,1.589 0.887,2.136l-15.249 15.25 -15.25 -15.25z"/>
  <path class="fil1" d="M131.761 166.759c2.609,0 4.971,1.058 6.681,2.768l-6.681 6.681 -6.681 -6.681c1.71,-1.71 4.072,-2.768 6.681,-2.768z"/>
  <path class="fil2" d="M137.655 152.162l-11.692 0c-1.601,0 -2.923,-1.322 -2.923,-2.923l0 -0.208c0,-1.671 1.322,-2.993 2.923,-2.993l11.692 0c1.6,0 2.992,1.322 2.992,2.993l0 0.208c0,1.601 -1.392,2.923 -2.992,2.923zm0 -9.304l-11.692 0c-1.601,0 -2.923,-1.322 -2.923,-2.923l0 -0.208c0,-1.671 1.322,-2.993 2.923,-2.993l11.692 0c1.6,0 2.992,1.322 2.992,2.993l0 0.208c0,1.601 -1.392,2.923 -2.992,2.923zm0 18.683l-11.692 0c-1.601,0 -2.923,-1.322 -2.923,-2.923l0 -0.208c0,-1.671 1.322,-2.993 2.923,-2.993l11.692 0c1.6,0 2.992,1.322 2.992,2.993l0 0.208c0,1.601 -1.392,2.923 -2.992,2.923z"/>
 </g>
</svg>
