<?xml version="1.0" encoding="UTF-8"?>
<!DOCTYPE svg PUBLIC "-//W3C//DTD SVG 1.1//EN" "http://www.w3.org/Graphics/SVG/1.1/DTD/svg11.dtd">
<!-- Creator: CorelDRAW -->
<svg xmlns="http://www.w3.org/2000/svg" xml:space="preserve" width="582px" height="460px" version="1.1" style="shape-rendering:geometricPrecision; text-rendering:geometricPrecision; image-rendering:optimizeQuality; fill-rule:evenodd; clip-rule:evenodd"
viewBox="0 0 582 460"
 xmlns:xlink="http://www.w3.org/1999/xlink"
 xmlns:xodm="http://www.corel.com/coreldraw/odm/2003">
 <defs>
  <style type="text/css">
   <![CDATA[
    .fil1 {fill:#D00000}
    .fil0 {fill:red}
    .fil2 {fill:#FF4040}
   ]]>
  </style>
 </defs>
 <g id="Слой_x0020_1">
  <metadata id="CorelCorpID_0Corel-Layer"/>
  <path class="fil0" d="M116.475 191.514c0.489,0.499 0.787,1.172 0.787,1.844l0 24.524c0,1.988 1.657,3.48 3.645,3.48l21.873 0c1.823,0 3.479,-1.492 3.479,-3.48l0 -24.524c0,-0.682 0.307,-1.364 0.809,-1.865l-15.307 -15.285 -15.286 15.306z"/>
  <path class="fil1" d="M125.073 182.906c1.748,1.746 4.146,2.837 6.757,2.837 2.598,0 4.953,-1.082 6.663,-2.812l-6.732 -6.723 -6.688 6.698z"/>
  <path class="fil2" d="M137.62 191.875l-11.692 0c-1.601,0 -2.923,1.322 -2.923,2.923l0 0.209c0,1.67 1.322,2.993 2.923,2.993l11.692 0c1.6,0 2.993,-1.323 2.993,-2.993l0 -0.209c0,-1.601 -1.393,-2.923 -2.993,-2.923zm0 18.683l-11.692 0c-1.601,0 -2.923,1.322 -2.923,2.923l0 0.209c0,1.67 1.322,2.992 2.923,2.992l11.692 0c1.6,0 2.993,-1.322 2.993,-2.992l0 -0.209c0,-1.601 -1.393,-2.923 -2.993,-2.923zm0 -9.304l-11.692 0c-1.601,0 -2.923,1.322 -2.923,2.923l0 0.209c0,1.67 1.322,2.992 2.923,2.992l11.692 0c1.6,0 2.993,-1.322 2.993,-2.992l0 -0.209c0,-1.601 -1.393,-2.923 -2.993,-2.923z"/>
 </g>
</svg>
