<?xml version="1.0" encoding="UTF-8"?>
<!DOCTYPE svg PUBLIC "-//W3C//DTD SVG 1.1//EN" "http://www.w3.org/Graphics/SVG/1.1/DTD/svg11.dtd">
<!-- Creator: CorelDRAW -->
<svg xmlns="http://www.w3.org/2000/svg" xml:space="preserve" width="582px" height="460px" version="1.1" style="shape-rendering:geometricPrecision; text-rendering:geometricPrecision; image-rendering:optimizeQuality; fill-rule:evenodd; clip-rule:evenodd"
viewBox="0 0 582 460"
 xmlns:xlink="http://www.w3.org/1999/xlink"
 xmlns:xodm="http://www.corel.com/coreldraw/odm/2003">
 <defs>
  <style type="text/css">
   <![CDATA[
    .fil1 {fill:#D00000}
    .fil0 {fill:red}
    .fil2 {fill:#FF4040}
   ]]>
  </style>
 </defs>
 <g id="Слой_x0020_1">
  <metadata id="CorelCorpID_0Corel-Layer"/>
  <path class="fil0" d="M147.048 160.965c-0.488,-0.477 -0.789,-1.15 -0.789,-1.907l0 -24.358c0,-1.989 -1.656,-3.646 -3.479,-3.646l-21.873 0c-1.988,0 -3.645,1.657 -3.645,3.646l0 24.358c0,0.746 -0.292,1.41 -0.769,1.886l15.268 15.264 15.287 -15.243z"/>
  <path class="fil1" d="M138.533 169.456c-1.715,-1.72 -4.083,-2.784 -6.703,-2.784 -2.631,0 -5.049,1.074 -6.799,2.809l6.73 6.727 6.772 -6.752z"/>
  <path class="fil2" d="M137.62 160.541l-11.692 0c-1.601,0 -2.923,-1.322 -2.923,-2.923l0 -0.209c0,-1.67 1.322,-2.992 2.923,-2.992l11.692 0c1.6,0 2.993,1.322 2.993,2.992l0 0.209c0,1.601 -1.393,2.923 -2.993,2.923zm0 -18.683l-11.692 0c-1.601,0 -2.923,-1.322 -2.923,-2.923l0 -0.208c0,-1.671 1.322,-2.993 2.923,-2.993l11.692 0c1.6,0 2.993,1.322 2.993,2.993l0 0.208c0,1.601 -1.393,2.923 -2.993,2.923zm0 9.304l-11.692 0c-1.601,0 -2.923,-1.322 -2.923,-2.923l0 -0.208c0,-1.671 1.322,-2.993 2.923,-2.993l11.692 0c1.6,0 2.993,1.322 2.993,2.993l0 0.208c0,1.601 -1.393,2.923 -2.993,2.923z"/>
 </g>
</svg>
