<?xml version="1.0" encoding="UTF-8"?>
<!DOCTYPE svg PUBLIC "-//W3C//DTD SVG 1.1//EN" "http://www.w3.org/Graphics/SVG/1.1/DTD/svg11.dtd">
<svg xml:space="preserve" viewBox="0 0 582 460" width="582px" height="460px" version="1.1" style="shape-rendering:geometricPrecision; fill-rule:evenodd; clip-rule:evenodd" xmlns="http://www.w3.org/2000/svg">
 <defs>
  <style type="text/css">
    .fil2 {fill:#D00000}
    .fil1 {fill:#E00000}
    .fil0 {fill:red}
  </style>
 </defs>
 <g>
  <path class="fil0" d="M147.048 160.965c-0.488,-0.477 -0.789,-1.15 -0.789,-1.907l0 -24.358c0,-1.989 -1.656,-3.646 -3.479,-3.646l-21.873 0c-1.988,0 -3.645,1.657 -3.645,3.646l0 24.358c0,0.746 -0.292,1.41 -0.769,1.886l15.268 15.264 15.287 -15.243z"/>
  <path class="fil1" d="M132.316 138.256l7.466 12.935c0.149,0.26 0.06,0.595 -0.2,0.743 -0.086,0.05 -0.179,0.073 -0.272,0.073l-14.933 0.004c-0.301,0 -0.548,-0.247 -0.548,-0.549 0,-0.119 0.039,-0.232 0.104,-0.321l7.438 -12.885c0.149,-0.26 0.484,-0.35 0.744,-0.201 0.087,0.05 0.155,0.12 0.201,0.201z"/>
  <path class="fil2" d="M138.533 169.456c-1.715,-1.72 -4.083,-2.784 -6.703,-2.784 -2.631,0 -5.049,1.074 -6.799,2.809l6.73 6.727 6.772 -6.752z"/>
 </g>
</svg>
