<?xml version="1.0" encoding="UTF-8"?>
<!DOCTYPE svg PUBLIC "-//W3C//DTD SVG 1.1//EN" "http://www.w3.org/Graphics/SVG/1.1/DTD/svg11.dtd">
<svg xml:space="preserve" viewBox="0 0 582 460" width="582px" height="460px" version="1.1" style="shape-rendering:geometricPrecision; fill-rule:evenodd; clip-rule:evenodd" xmlns="http://www.w3.org/2000/svg">
 <defs>
  <style type="text/css">
    .fil1 {fill:#D00000}
    .fil0 {fill:red}
    .fil2 {fill:white;fill-opacity:0.15}
  </style>
 </defs>
 <g>
  <path class="fil0" d="M116.493 160.944c-0.477,0.475 -1.137,0.765 -1.883,0.765l-24.357 0c-1.989,0 -3.646,1.657 -3.646,3.646l0 21.872c0,1.989 1.657,3.48 3.646,3.48l24.357 0c0.734,0 1.389,0.321 1.865,0.807l15.286 -15.306 -15.268 -15.264z"/>
  <path class="fil1" d="M125.031 169.481c-1.726,1.71 -2.806,4.063 -2.806,6.658 0,2.614 1.098,5.019 2.848,6.767l6.688 -6.698 -6.73 -6.727z"/>
  <path class="fil2" d="M117.141 170.397l0 11.692c0,1.601 -1.322,2.923 -2.922,2.923l-0.209 0c-1.671,0 -2.993,-1.322 -2.993,-2.923l0 -11.692c0,-1.601 1.322,-2.993 2.993,-2.993l0.209 0c1.6,0 2.922,1.392 2.922,2.993zm-18.682 0l0 11.692c0,1.601 -1.323,2.923 -2.923,2.923l-0.209 0c-1.671,0 -2.993,-1.322 -2.993,-2.923l0 -11.692c0,-1.601 1.322,-2.993 2.993,-2.993l0.209 0c1.6,0 2.923,1.392 2.923,2.993zm9.304 0l0 11.692c0,1.601 -1.323,2.923 -2.923,2.923l-0.209 0c-1.671,0 -2.993,-1.322 -2.993,-2.923l0 -11.692c0,-1.601 1.322,-2.993 2.993,-2.993l0.209 0c1.6,0 2.923,1.392 2.923,2.993z"/>
 </g>
</svg>
