<?xml version="1.0" encoding="UTF-8"?>
<!DOCTYPE svg PUBLIC "-//W3C//DTD SVG 1.1//EN" "http://www.w3.org/Graphics/SVG/1.1/DTD/svg11.dtd">
<svg xml:space="preserve" viewBox="0 0 582 460" width="582px" height="460px" version="1.1" style="shape-rendering:geometricPrecision; fill-rule:evenodd; clip-rule:evenodd" xmlns="http://www.w3.org/2000/svg">
 <defs>
  <style type="text/css">
    .fil0 {fill:#C0C0C0}
    .fil1 {fill:#999999}
  </style>
 </defs>
 <g>
  <path class="fil0" d="M173.262 79.024c1.861,0 2.902,1.132 2.982,2.983l0.174 3.977 -40.432 0c-2.209,0.008 -4.777,0.069 -6.628,0.165 -5.14,0.267 -10.774,0.981 -15.907,1.989 -13.483,2.647 -26.664,7.526 -38.586,14.466l0.143 -5.187c0.023,-0.845 0.497,-1.657 1.16,-2.32 14.896,-10.427 41.965,-16.073 60.149,-16.073l36.945 0z"/>
  <path class="fil1" d="M74.897 101.433c0.547,-0.315 1.097,-0.625 1.649,-0.931 11.44,-6.343 23.945,-10.838 36.713,-13.345 2.612,-0.512 5.347,-0.949 8.077,-1.29 2.678,-0.335 5.377,-0.58 7.972,-0.714 0.931,-0.048 2.078,-0.091 3.292,-0.121 1.218,-0.03 2.397,-0.049 3.386,-0.049l40.388 0 0.044 1.001 -40.432 0c-2.209,0.008 -4.777,0.069 -6.628,0.165 -5.14,0.267 -10.774,0.981 -15.907,1.989 -13.483,2.647 -26.664,7.526 -38.586,14.466l0.032 -1.171z"/>
 </g>
</svg>
