<?xml version="1.0" encoding="UTF-8"?>
<!DOCTYPE svg PUBLIC "-//W3C//DTD SVG 1.1//EN" "http://www.w3.org/Graphics/SVG/1.1/DTD/svg11.dtd">
<svg xml:space="preserve" viewBox="0 0 582 460" width="582px" height="460px" version="1.1" style="shape-rendering:geometricPrecision; fill-rule:evenodd; clip-rule:evenodd" xmlns="http://www.w3.org/2000/svg">
 <defs>
  <style type="text/css">
    .fil0 {fill:#FA5F58}
    .fil1 {fill:white;fill-opacity:0.5}
    .fil2 {fill:white}
 </style>
 </defs>
 <g>
  <circle class="fil0" cx="450.819" cy="215.397" r="19.276"/>
  <path class="fil1" d="M450.819 197.503c8.074,0 14.899,5.348 17.126,12.694 0.042,0.142 -0.031,0.291 -0.169,0.343 -0.142,0.054 -0.301,-0.016 -0.358,-0.157 -2.65,-6.567 -9.083,-11.201 -16.599,-11.201 -7.517,0 -13.951,4.636 -16.6,11.205 -0.057,0.14 -0.216,0.211 -0.358,0.157 -0.138,-0.052 -0.211,-0.201 -0.169,-0.342 2.226,-7.349 9.052,-12.699 17.127,-12.699z"/>
  <path class="fil2" d="M455.92 218.992c0,0.529 -0.056,1.017 -0.167,1.462 -0.115,0.449 -0.271,0.849 -0.475,1.209 -0.204,0.356 -0.449,0.667 -0.735,0.938 -0.286,0.267 -0.609,0.493 -0.969,0.675 -0.36,0.183 -0.747,0.32 -1.155,0.409 -0.412,0.093 -0.88,0.138 -1.411,0.138l-3.679 0c-0.167,0 -0.327,-0.067 -0.475,-0.2 -0.149,-0.138 -0.223,-0.373 -0.223,-0.711l0 -15.031c0,-0.338 0.074,-0.574 0.223,-0.711 0.148,-0.134 0.308,-0.2 0.475,-0.2l3.2 0c0.843,0 1.534,0.093 2.072,0.284 0.534,0.191 0.984,0.471 1.344,0.836 0.36,0.364 0.631,0.813 0.813,1.342 0.182,0.529 0.271,1.129 0.271,1.795 0,0.4 -0.041,0.783 -0.119,1.147 -0.081,0.364 -0.2,0.702 -0.356,1.009 -0.156,0.311 -0.349,0.587 -0.587,0.827 -0.237,0.244 -0.508,0.444 -0.813,0.6 0.386,0.088 0.746,0.244 1.08,0.475 0.331,0.231 0.624,0.525 0.877,0.88 0.249,0.356 0.445,0.774 0.59,1.249 0.145,0.48 0.219,1.005 0.219,1.578zm-2.807 -7.547c0,-0.409 -0.048,-0.778 -0.14,-1.111 -0.093,-0.329 -0.242,-0.609 -0.446,-0.84 -0.205,-0.231 -0.468,-0.404 -0.795,-0.529 -0.326,-0.12 -0.757,-0.182 -1.296,-0.182l-1.934 0 0 5.466 2.131 0c0.487,0 0.876,-0.075 1.177,-0.226 0.297,-0.156 0.542,-0.36 0.739,-0.613 0.193,-0.258 0.338,-0.56 0.427,-0.903 0.093,-0.342 0.137,-0.697 0.137,-1.062zm0.847 7.68c0,-0.502 -0.067,-0.946 -0.201,-1.329 -0.133,-0.382 -0.33,-0.702 -0.586,-0.964 -0.26,-0.262 -0.58,-0.458 -0.969,-0.596 -0.387,-0.133 -0.876,-0.2 -1.463,-0.2l-2.239 0 0 5.947 2.718 0c0.427,0 0.802,-0.062 1.121,-0.182 0.319,-0.12 0.598,-0.302 0.843,-0.542 0.241,-0.24 0.431,-0.538 0.568,-0.894 0.137,-0.356 0.208,-0.769 0.208,-1.24z"/>
 </g>
</svg>
