<?xml version="1.0" encoding="UTF-8"?>
<!DOCTYPE svg PUBLIC "-//W3C//DTD SVG 1.1//EN" "http://www.w3.org/Graphics/SVG/1.1/DTD/svg11.dtd">
<svg xml:space="preserve" viewBox="0 0 582 460" width="582px" height="460px" version="1.1" style="shape-rendering:geometricPrecision; fill-rule:evenodd; clip-rule:evenodd" xmlns="http://www.w3.org/2000/svg">
 <defs>
  <style type="text/css">
    .fil2 {fill:white}
    .fil1 {fill:white;fill-opacity:0.5}
    .fil0 {fill:url(#id0)}
  </style>
  <linearGradient id="id0" gradientUnits="userSpaceOnUse" x1="405.251" y1="194.987" x2="405.251" y2="166.073">
   <stop offset="0" style="stop-opacity:1; stop-color:#B0B0B0"/>
   <stop offset="1" style="stop-opacity:1; stop-color:#C8C8C8"/>
  </linearGradient>
 </defs>
 <g>
  <circle class="fil0" cx="405.251" cy="175.711" r="19.276"/>
  <path class="fil1" d="M405.251 157.818c8.074,0 14.899,5.348 17.126,12.694 0.043,0.141 -0.031,0.29 -0.169,0.342 -0.142,0.054 -0.301,-0.015 -0.358,-0.156 -2.649,-6.567 -9.083,-11.201 -16.599,-11.201 -7.517,0 -13.951,4.636 -16.6,11.204 -0.057,0.141 -0.216,0.211 -0.358,0.158 -0.138,-0.053 -0.211,-0.202 -0.169,-0.343 2.226,-7.348 9.052,-12.698 17.127,-12.698z"/>
  <path class="fil2" d="M406.274 177.587l0 6.213c0,0.071 -0.016,0.133 -0.049,0.182 -0.028,0.054 -0.085,0.094 -0.162,0.125 -0.081,0.031 -0.186,0.058 -0.32,0.08 -0.134,0.022 -0.296,0.031 -0.483,0.031 -0.199,0 -0.361,-0.009 -0.491,-0.031 -0.13,-0.022 -0.239,-0.049 -0.32,-0.08 -0.082,-0.031 -0.143,-0.071 -0.171,-0.125 -0.032,-0.049 -0.049,-0.111 -0.049,-0.182l0 -6.213 -4.349 -9.511c-0.09,-0.2 -0.143,-0.356 -0.163,-0.467 -0.02,-0.116 0,-0.2 0.061,-0.262 0.057,-0.058 0.167,-0.098 0.321,-0.116 0.154,-0.018 0.361,-0.026 0.625,-0.026 0.235,0 0.43,0.008 0.576,0.026 0.146,0.018 0.263,0.04 0.349,0.071 0.089,0.031 0.154,0.076 0.199,0.129 0.04,0.058 0.085,0.129 0.121,0.218l2.13 4.845c0.195,0.462 0.394,0.942 0.593,1.444 0.195,0.507 0.398,1.013 0.601,1.524l0.024 0c0.182,-0.493 0.369,-0.986 0.56,-1.475 0.194,-0.494 0.389,-0.978 0.588,-1.454l2.138 -4.871c0.025,-0.089 0.057,-0.164 0.102,-0.222 0.045,-0.062 0.105,-0.107 0.179,-0.138 0.076,-0.031 0.182,-0.053 0.316,-0.071 0.134,-0.018 0.304,-0.026 0.511,-0.026 0.284,0 0.507,0.008 0.67,0.031 0.162,0.022 0.276,0.062 0.341,0.124 0.06,0.062 0.085,0.147 0.065,0.262 -0.021,0.111 -0.074,0.262 -0.163,0.454l-4.35 9.511z"/>
 </g>
</svg>
