<?xml version="1.0" encoding="UTF-8"?>
<!DOCTYPE svg PUBLIC "-//W3C//DTD SVG 1.1//EN" "http://www.w3.org/Graphics/SVG/1.1/DTD/svg11.dtd">
<svg xml:space="preserve" viewBox="0 0 582 460" width="582px" height="460px" version="1.1" style="shape-rendering:geometricPrecision; fill-rule:evenodd; clip-rule:evenodd" xmlns="http://www.w3.org/2000/svg">
 <defs>
  <style type="text/css">
    .fil2 {fill:white}
    .fil1 {fill:white;fill-opacity:0.5}
    .fil0 {fill:url(#id0)}
  </style>
  <linearGradient id="id0" gradientUnits="userSpaceOnUse" x1="450.819" y1="155.384" x2="450.819" y2="126.471">
   <stop offset="0" style="stop-opacity:1; stop-color:#B0B0B0"/>
   <stop offset="1" style="stop-opacity:1; stop-color:#C8C8C8"/>
  </linearGradient>
 </defs>
 <g>
  <circle class="fil0" cx="450.819" cy="136.108" r="19.276"/>
  <path class="fil1" d="M450.819 118.215c8.074,0 14.899,5.348 17.126,12.694 0.042,0.142 -0.031,0.291 -0.169,0.343 -0.142,0.054 -0.301,-0.016 -0.358,-0.157 -2.65,-6.567 -9.083,-11.201 -16.599,-11.201 -7.517,0 -13.951,4.636 -16.6,11.205 -0.057,0.14 -0.216,0.211 -0.358,0.157 -0.138,-0.052 -0.211,-0.202 -0.169,-0.343 2.226,-7.348 9.052,-12.698 17.127,-12.698z"/>
  <path class="fil2" d="M456.24 143.731c0.1,0.19 0.159,0.342 0.179,0.453 0.02,0.115 -0.004,0.204 -0.076,0.267 -0.067,0.066 -0.182,0.111 -0.342,0.133 -0.159,0.022 -0.37,0.031 -0.637,0.031 -0.247,0 -0.443,-0.005 -0.582,-0.018 -0.139,-0.013 -0.251,-0.04 -0.334,-0.075 -0.08,-0.032 -0.144,-0.076 -0.188,-0.121 -0.039,-0.048 -0.08,-0.111 -0.107,-0.19l-3.362 -6.707 -3.398 6.707c-0.036,0.079 -0.08,0.142 -0.127,0.195 -0.048,0.053 -0.112,0.093 -0.191,0.124 -0.084,0.032 -0.196,0.054 -0.335,0.067 -0.14,0.013 -0.327,0.018 -0.558,0.018 -0.259,0 -0.462,-0.009 -0.609,-0.031 -0.148,-0.022 -0.251,-0.067 -0.307,-0.133 -0.06,-0.063 -0.079,-0.152 -0.06,-0.267 0.02,-0.111 0.08,-0.263 0.18,-0.453l4.122 -7.752 -3.935 -7.493c-0.092,-0.191 -0.152,-0.342 -0.18,-0.462 -0.027,-0.116 -0.011,-0.209 0.052,-0.271 0.064,-0.067 0.172,-0.107 0.327,-0.125 0.155,-0.018 0.371,-0.027 0.641,-0.027 0.235,0 0.426,0.005 0.574,0.018 0.147,0.013 0.263,0.036 0.351,0.067 0.083,0.031 0.147,0.075 0.186,0.129 0.036,0.057 0.08,0.12 0.128,0.191l3.243 6.302 3.222 -6.302c0.04,-0.071 0.076,-0.134 0.115,-0.191 0.04,-0.054 0.096,-0.098 0.172,-0.129 0.071,-0.031 0.175,-0.054 0.306,-0.067 0.132,-0.013 0.311,-0.018 0.538,-0.018 0.243,0 0.438,0.009 0.59,0.031 0.151,0.023 0.258,0.063 0.326,0.125 0.068,0.062 0.092,0.151 0.076,0.267 -0.016,0.12 -0.072,0.271 -0.163,0.462l-3.92 7.44 4.083 7.805z"/>
 </g>
</svg>
