<?xml version="1.0" encoding="UTF-8"?>
<!DOCTYPE svg PUBLIC "-//W3C//DTD SVG 1.1//EN" "http://www.w3.org/Graphics/SVG/1.1/DTD/svg11.dtd">
<svg xml:space="preserve" viewBox="0 0 582 460" width="582px" height="460px" version="1.1" style="shape-rendering:geometricPrecision; fill-rule:evenodd; clip-rule:evenodd" xmlns="http://www.w3.org/2000/svg">
 <defs>
  <style type="text/css">
    .fil0 {fill:#C0C0C0}
    .fil1 {fill:#A8A8A8}
  </style>
 </defs>
 <g>
  <path class="fil0" d="M412.764 68.086l81.704 0c4.131,0 7.213,-3.698 6.468,-7.761l-3.455 -18.822c-4.298,-23.414 -19.344,-40.859 -43.219,-40.859 -21.587,0 -35.594,8.822 -40.916,30.681l-6.969 28.63c-1.015,4.162 2.104,8.131 6.387,8.131z"/>
  <path class="fil1" d="M460.42 42.517l-3.367 2.735c-1.276,1.255 -2.028,2.948 -2.105,4.736l10.312 0 0 -2.736 -6.523 0c0.584,-0.815 1.338,-1.497 2.208,-2 1.046,-0.601 2.002,-1.347 2.842,-2.208 0.878,-0.932 1.369,-2.164 1.369,-3.444 0,-0.009 0,-0.02 0,-0.028 0.001,-0.056 0.003,-0.111 0.003,-0.167 0,-1.263 -0.538,-2.464 -1.478,-3.306 -0.971,-0.817 -2.202,-1.266 -3.473,-1.266 -0.069,0 -0.139,0 -0.209,0.003 -3.261,0 -4.944,1.788 -4.944,5.261l2.84 0c0,-1.894 0.735,-2.841 2.21,-2.841 0.066,-0.007 0.134,-0.01 0.201,-0.01 1.063,0 1.925,0.863 1.925,1.925 0,0.098 -0.008,0.197 -0.021,0.295 -0.085,1.241 -0.748,2.373 -1.79,3.051l0 0zm-18.519 1.579l3.157 0c1.579,0 2.421,0.631 2.525,1.998 0.106,1.369 0.21,2.632 0.317,3.999l3.473 0 0 -0.419c-0.527,-0.213 -0.738,-0.738 -0.738,-1.58 -0.001,-0.018 -0.001,-0.038 -0.001,-0.058 0,-0.265 0.036,-0.53 0.106,-0.784l0 -0.737c0.015,-0.136 0.023,-0.275 0.023,-0.414 0,-1.356 -0.734,-2.607 -1.917,-3.268 1.393,-0.469 2.331,-1.773 2.331,-3.242 0,-0.112 -0.007,-0.224 -0.016,-0.335 0.006,-0.088 0.009,-0.178 0.009,-0.265 0,-1.122 -0.506,-2.186 -1.378,-2.892 -0.872,-0.687 -1.954,-1.06 -3.067,-1.06 -0.1,0 -0.201,0.001 -0.299,0.008l-7.68 0 0 14.941 3.155 0 0 -5.892zm0 -6.524l3.894 0c1.473,0 2.211,0.631 2.211,2 0,1.367 -0.844,1.999 -2.421,1.999l-3.684 0 0 -3.999z"/>
 </g>
</svg>
