<?xml version="1.0" encoding="UTF-8"?>
<!DOCTYPE svg PUBLIC "-//W3C//DTD SVG 1.1//EN" "http://www.w3.org/Graphics/SVG/1.1/DTD/svg11.dtd">
<svg xml:space="preserve" viewBox="0 0 582 460" width="582px" height="460px" version="1.1" style="shape-rendering:geometricPrecision; fill-rule:evenodd; clip-rule:evenodd" xmlns="http://www.w3.org/2000/svg">
 <defs>
  <style type="text/css">
    .fil1 {fill:black;fill-opacity:0.2}
    .fil2 {fill:url(#id0)}
    .fil0 {fill:url(#id1)}
    .fil3 {fill:url(#id2)}
  </style>
  <linearGradient id="id0" gradientUnits="userSpaceOnUse" x1="37.064" y1="65.558" x2="37.064" y2="10.377">
   <stop offset="0" style="stop-opacity:1; stop-color:#CCCCCC"/>
   <stop offset="1" style="stop-opacity:1; stop-color:#999999"/>
  </linearGradient>
  <linearGradient id="id1" gradientUnits="userSpaceOnUse" x1="37.064" y1="74.629" x2="37.064" y2="1.306">
   <stop offset="0" style="stop-opacity:1; stop-color:#999999"/>
   <stop offset="0.5" style="stop-opacity:1; stop-color:#B3B3B3"/>
   <stop offset="1" style="stop-opacity:1; stop-color:#D8D8D8"/>
  </linearGradient>
  <linearGradient id="id2" gradientUnits="userSpaceOnUse" x1="37.064" y1="62.157" x2="37.064" y2="13.778">
   <stop offset="0" style="stop-opacity:1; stop-color:#A4A4A4"/>
   <stop offset="0.5" style="stop-opacity:1; stop-color:#B3B3B3"/>
   <stop offset="1" style="stop-opacity:1; stop-color:#C8C8C8"/>
  </linearGradient>
 </defs>
 <g>
  <circle class="fil0" cx="37.064" cy="37.968" r="36.662"/>
  <path class="fil1" d="M44.233 64.722c-0.249,0.445 -0.511,0.881 -0.785,1.308 0.441,0.282 0.891,0.547 1.35,0.797 0.272,-0.445 0.528,-0.9 0.769,-1.364 -0.451,-0.233 -0.896,-0.48 -1.334,-0.741zm-1.933 2.947c-0.325,0.427 -0.663,0.843 -1.015,1.248 0.451,0.3 0.913,0.584 1.385,0.852 0.352,-0.413 0.688,-0.838 1.01,-1.275 -0.469,-0.26 -0.929,-0.535 -1.38,-0.825zm-2.637 0.063c0.346,-0.392 0.679,-0.796 0.997,-1.211 -0.404,-0.308 -0.799,-0.629 -1.185,-0.963 -0.323,0.396 -0.657,0.781 -1.003,1.155 0.386,0.353 0.783,0.693 1.191,1.019zm0.239 2.654c-0.389,0.381 -0.79,0.749 -1.203,1.104 0.447,0.307 0.906,0.599 1.376,0.875 0.414,-0.353 0.815,-0.72 1.203,-1.101 -0.468,-0.278 -0.927,-0.571 -1.376,-0.878zm-2.84 2.397c-0.43,0.311 -0.87,0.609 -1.319,0.893 0.428,0.3 0.868,0.587 1.319,0.859 0.451,-0.272 0.891,-0.559 1.32,-0.859 -0.45,-0.284 -0.89,-0.582 -1.32,-0.893zm-6.351 1.194c0.492,-0.19 0.976,-0.396 1.451,-0.619 -0.393,-0.358 -0.775,-0.728 -1.145,-1.109 -0.477,0.232 -0.963,0.449 -1.456,0.651 0.37,0.371 0.753,0.73 1.15,1.077zm3.339 -1.612c0.469,-0.276 0.928,-0.568 1.375,-0.875 -0.413,-0.355 -0.814,-0.723 -1.203,-1.104 -0.448,0.307 -0.907,0.6 -1.375,0.878 0.387,0.38 0.788,0.748 1.203,1.101zm3.012 -2.111c0.418,-0.345 0.824,-0.706 1.216,-1.08 -0.416,-0.337 -0.821,-0.688 -1.216,-1.052 -0.394,0.364 -0.799,0.715 -1.215,1.052 0.392,0.374 0.797,0.735 1.215,1.08zm-35.707 -30.969c0.285,-0.449 0.582,-0.89 0.893,-1.319 -0.311,-0.43 -0.608,-0.87 -0.892,-1.32 -0.301,0.429 -0.588,0.869 -0.86,1.32 0.272,0.451 0.559,0.891 0.859,1.319zm2.186 -2.956c0.356,-0.413 0.724,-0.814 1.105,-1.203 -0.307,-0.449 -0.6,-0.908 -0.878,-1.376 -0.381,0.388 -0.748,0.789 -1.102,1.203 0.276,0.47 0.568,0.929 0.875,1.376zm2.316 0.422c-0.374,0.391 -0.734,0.797 -1.08,1.215 0.346,0.418 0.706,0.823 1.08,1.216 0.338,-0.417 0.689,-0.822 1.053,-1.216 -0.364,-0.394 -0.715,-0.799 -1.053,-1.215zm-2.316 2.852c-0.307,0.447 -0.599,0.906 -0.875,1.375 0.353,0.415 0.721,0.816 1.101,1.203 0.278,-0.468 0.571,-0.926 0.879,-1.375 -0.381,-0.389 -0.75,-0.79 -1.105,-1.203zm-1.869 3.262c-0.222,0.476 -0.428,0.96 -0.618,1.452 0.346,0.397 0.705,0.78 1.076,1.15 0.202,-0.493 0.42,-0.979 0.652,-1.457 -0.382,-0.369 -0.752,-0.751 -1.11,-1.145zm4.443 -9.122c0.405,-0.351 0.821,-0.69 1.248,-1.015 -0.29,-0.451 -0.565,-0.911 -0.825,-1.38 -0.437,0.322 -0.862,0.659 -1.275,1.01 0.268,0.472 0.552,0.934 0.852,1.385zm2.887 -2.162c0.427,-0.275 0.863,-0.536 1.308,-0.785 -0.261,-0.438 -0.508,-0.883 -0.741,-1.335 -0.464,0.241 -0.919,0.498 -1.364,0.769 0.25,0.459 0.516,0.91 0.797,1.351zm-0.491 2.787c-0.416,0.318 -0.82,0.651 -1.212,0.997 0.326,0.408 0.666,0.806 1.02,1.191 0.374,-0.345 0.759,-0.679 1.154,-1.002 -0.333,-0.386 -0.654,-0.782 -0.962,-1.186zm40.255 28.702c-0.168,0.481 -0.35,0.956 -0.546,1.425 0.483,0.2 0.973,0.384 1.468,0.551 0.19,-0.486 0.364,-0.979 0.522,-1.477 -0.486,-0.151 -0.967,-0.317 -1.444,-0.499zm-1.391 3.236c-0.246,0.476 -0.507,0.944 -0.782,1.402 0.497,0.218 1.001,0.418 1.512,0.6 0.274,-0.467 0.531,-0.943 0.772,-1.428 -0.507,-0.175 -1.007,-0.367 -1.502,-0.574zm-1.893 3.096c-0.317,0.442 -0.648,0.874 -0.993,1.295 0.495,0.226 0.998,0.434 1.509,0.624 0.346,-0.42 0.677,-0.851 0.992,-1.293 -0.509,-0.192 -1.012,-0.401 -1.508,-0.626zm-2.375 2.847c-0.37,0.382 -0.751,0.752 -1.145,1.11 0.475,0.222 0.959,0.429 1.451,0.619 0.397,-0.347 0.781,-0.706 1.151,-1.077 -0.494,-0.202 -0.979,-0.419 -1.457,-0.652zm-36.992 -30.06c-0.301,0.451 -0.585,0.913 -0.852,1.384 0.412,0.352 0.838,0.689 1.274,1.01 0.261,-0.468 0.536,-0.928 0.826,-1.379 -0.428,-0.325 -0.844,-0.664 -1.248,-1.015zm-1.781 3.203c-0.226,0.495 -0.433,0.998 -0.624,1.509 0.42,0.347 0.851,0.678 1.293,0.993 0.193,-0.51 0.401,-1.013 0.627,-1.509 -0.443,-0.316 -0.875,-0.647 -1.296,-0.993zm-1.276 3.546c-0.136,0.506 -0.255,1.018 -0.356,1.534 0.41,0.331 0.83,0.646 1.259,0.946 0.113,-0.519 0.242,-1.035 0.387,-1.545 -0.439,-0.298 -0.869,-0.609 -1.29,-0.935zm5.261 -9.562c-0.354,0.386 -0.694,0.783 -1.02,1.191 0.392,0.346 0.796,0.679 1.212,0.997 0.308,-0.404 0.629,-0.8 0.962,-1.185 -0.395,-0.323 -0.78,-0.657 -1.154,-1.003zm44.63 21.281c-0.081,0.503 -0.178,1.002 -0.289,1.497 0.51,0.113 1.023,0.209 1.54,0.287 0.102,-0.511 0.188,-1.026 0.256,-1.543 -0.504,-0.065 -1.006,-0.145 -1.507,-0.241zm-0.807 3.43c-0.159,0.511 -0.334,1.017 -0.526,1.517 0.526,0.127 1.057,0.237 1.591,0.327 0.188,-0.508 0.359,-1.022 0.511,-1.541 -0.528,-0.084 -1.054,-0.185 -1.576,-0.303zm-1.325 3.376c-0.235,0.49 -0.486,0.972 -0.752,1.446 0.525,0.136 1.055,0.253 1.59,0.352 0.269,-0.473 0.52,-0.955 0.753,-1.444 -0.534,-0.101 -1.065,-0.219 -1.591,-0.354zm-1.848 3.22c-0.297,0.439 -0.609,0.87 -0.935,1.29 0.506,0.136 1.018,0.255 1.535,0.357 0.33,-0.41 0.645,-0.83 0.945,-1.26 -0.519,-0.112 -1.035,-0.241 -1.545,-0.387zm-41.646 -23.186c-0.217,0.497 -0.417,1.001 -0.6,1.512 0.468,0.274 0.944,0.531 1.429,0.772 0.175,-0.507 0.366,-1.008 0.573,-1.502 -0.476,-0.246 -0.943,-0.507 -1.402,-0.782zm-1.2 3.471c-0.137,0.525 -0.254,1.056 -0.353,1.591 0.473,0.268 0.955,0.519 1.444,0.753 0.101,-0.535 0.219,-1.066 0.355,-1.592 -0.49,-0.235 -0.973,-0.485 -1.446,-0.752zm-0.642 3.709c-0.046,0.521 -0.075,1.045 -0.085,1.572 0.461,0.254 0.929,0.492 1.404,0.713 0.021,-0.532 0.059,-1.062 0.114,-1.589 -0.485,-0.217 -0.962,-0.449 -1.433,-0.696zm3.52 -10.326c-0.281,0.441 -0.547,0.892 -0.797,1.351 0.446,0.271 0.9,0.528 1.364,0.769 0.233,-0.452 0.48,-0.897 0.741,-1.335 -0.444,-0.248 -0.881,-0.51 -1.308,-0.785zm47.646 13.202c0.007,0.509 -0.001,1.018 -0.025,1.525 0.522,0.023 1.044,0.028 1.566,0.016 0.012,-0.522 0.007,-1.044 -0.016,-1.566 -0.507,0.024 -1.016,0.032 -1.525,0.025zm-0.199 3.519c-0.068,0.531 -0.153,1.059 -0.255,1.584 0.54,0.034 1.082,0.049 1.623,0.045 0.098,-0.531 0.177,-1.067 0.236,-1.604 -0.534,0.009 -1.07,0.001 -1.604,-0.025zm-0.72 3.555c-0.146,0.524 -0.309,1.042 -0.489,1.555 0.541,0.043 1.084,0.066 1.627,0.071 0.183,-0.513 0.346,-1.03 0.491,-1.553 -0.544,-0.006 -1.087,-0.031 -1.629,-0.073zm-1.259 3.491c-0.216,0.484 -0.449,0.962 -0.696,1.432 0.521,0.047 1.046,0.075 1.572,0.086 0.255,-0.461 0.492,-0.93 0.713,-1.405 -0.531,-0.021 -1.061,-0.059 -1.589,-0.113zm-45.041 -15.598c-0.128,0.526 -0.237,1.056 -0.328,1.59 0.508,0.189 1.022,0.36 1.541,0.512 0.084,-0.528 0.186,-1.054 0.303,-1.577 -0.511,-0.159 -1.017,-0.334 -1.516,-0.525zm-0.579 3.623c-0.043,0.541 -0.066,1.083 -0.071,1.627 0.513,0.182 1.031,0.346 1.553,0.49 0.007,-0.543 0.031,-1.086 0.073,-1.628 -0.523,-0.146 -1.042,-0.309 -1.555,-0.489zm0.013 3.765c0.045,0.521 0.108,1.042 0.189,1.561 0.498,0.17 1,0.323 1.506,0.458 -0.072,-0.526 -0.126,-1.054 -0.164,-1.583 -0.514,-0.128 -1.025,-0.274 -1.531,-0.436zm1.674 -10.784c-0.2,0.483 -0.383,0.973 -0.55,1.468 0.486,0.19 0.978,0.364 1.476,0.521 0.151,-0.485 0.318,-0.967 0.499,-1.443 -0.481,-0.168 -0.956,-0.35 -1.425,-0.546zm49.216 4.731c0.096,0.501 0.176,1.003 0.24,1.507 0.518,-0.068 1.032,-0.154 1.544,-0.256 -0.079,-0.516 -0.174,-1.03 -0.287,-1.54 -0.495,0.112 -0.994,0.208 -1.497,0.289zm0.414 3.499c0.026,0.534 0.034,1.07 0.025,1.605 0.537,-0.06 1.073,-0.139 1.604,-0.236 0.004,-0.542 -0.011,-1.083 -0.045,-1.623 -0.525,0.101 -1.053,0.186 -1.584,0.254zm-0.091 3.628c-0.053,0.54 -0.123,1.078 -0.211,1.614 0.539,-0.052 1.077,-0.123 1.613,-0.213 0.09,-0.535 0.161,-1.074 0.213,-1.613 -0.536,0.088 -1.075,0.159 -1.615,0.212zm-0.634 3.656c-0.129,0.515 -0.275,1.025 -0.437,1.532 0.521,-0.045 1.042,-0.108 1.561,-0.189 0.171,-0.498 0.323,-1.001 0.458,-1.506 -0.526,0.071 -1.054,0.126 -1.582,0.163zm-47.065 -7.541c-0.035,0.54 -0.05,1.081 -0.046,1.623 0.532,0.097 1.067,0.176 1.604,0.236 -0.009,-0.535 0,-1.07 0.025,-1.605 -0.531,-0.068 -1.059,-0.152 -1.583,-0.254zm0.059 3.671c0.052,0.539 0.123,1.076 0.213,1.612 0.536,0.09 1.074,0.161 1.613,0.214 -0.088,-0.536 -0.158,-1.075 -0.211,-1.615 -0.54,-0.053 -1.079,-0.124 -1.615,-0.211zm0.666 3.704c0.135,0.506 0.288,1.008 0.458,1.507 0.52,0.081 1.041,0.144 1.561,0.189 -0.161,-0.507 -0.307,-1.018 -0.436,-1.532 -0.528,-0.038 -1.056,-0.093 -1.583,-0.164zm-0.224 -10.909c-0.113,0.51 -0.209,1.024 -0.287,1.54 0.511,0.103 1.026,0.189 1.544,0.257 0.064,-0.504 0.144,-1.007 0.24,-1.507 -0.503,-0.081 -1.002,-0.178 -1.497,-0.29zm49.288 -3.891c0.181,0.477 0.348,0.958 0.499,1.444 0.498,-0.157 0.991,-0.331 1.477,-0.522 -0.167,-0.495 -0.35,-0.984 -0.551,-1.468 -0.468,0.197 -0.943,0.379 -1.425,0.546zm1.017 3.376c0.118,0.523 0.219,1.048 0.303,1.577 0.519,-0.153 1.033,-0.323 1.541,-0.512 -0.091,-0.534 -0.2,-1.064 -0.327,-1.59 -0.5,0.191 -1.006,0.366 -1.517,0.525zm0.54 3.586c0.041,0.542 0.066,1.086 0.072,1.629 0.523,-0.144 1.041,-0.308 1.553,-0.49 -0.004,-0.544 -0.028,-1.087 -0.07,-1.627 -0.513,0.179 -1.032,0.342 -1.555,0.488zm0.01 3.713c-0.037,0.529 -0.092,1.057 -0.164,1.583 0.506,-0.135 1.009,-0.288 1.507,-0.458 0.081,-0.519 0.144,-1.04 0.189,-1.561 -0.507,0.162 -1.017,0.308 -1.532,0.436zm-47.659 0.748c0.059,0.537 0.138,1.072 0.236,1.604 0.541,0.004 1.083,-0.011 1.623,-0.046 -0.102,-0.524 -0.186,-1.052 -0.254,-1.583 -0.535,0.025 -1.071,0.034 -1.605,0.025zm0.695 3.603c0.145,0.522 0.308,1.041 0.49,1.553 0.544,-0.004 1.087,-0.028 1.628,-0.071 -0.18,-0.512 -0.343,-1.031 -0.489,-1.555 -0.542,0.042 -1.085,0.066 -1.629,0.073zm1.299 3.531c0.22,0.475 0.458,0.944 0.712,1.405 0.527,-0.01 1.052,-0.039 1.573,-0.085 -0.247,-0.471 -0.479,-0.949 -0.696,-1.433 -0.528,0.055 -1.058,0.093 -1.589,0.113zm-2.114 -10.703c-0.023,0.522 -0.028,1.044 -0.015,1.565 0.521,0.013 1.044,0.008 1.566,-0.015 -0.024,-0.507 -0.033,-1.016 -0.025,-1.525 -0.51,0.007 -1.019,-0.002 -1.526,-0.025zm47.864 -12.387c0.262,0.438 0.509,0.883 0.742,1.335 0.464,-0.241 0.918,-0.498 1.364,-0.769 -0.25,-0.459 -0.516,-0.91 -0.797,-1.351 -0.427,0.275 -0.864,0.536 -1.309,0.785zm1.584 3.142c0.208,0.495 0.399,0.996 0.574,1.502 0.485,-0.24 0.961,-0.497 1.428,-0.771 -0.182,-0.511 -0.382,-1.015 -0.599,-1.512 -0.459,0.275 -0.926,0.536 -1.403,0.781zm1.157 3.442c0.135,0.527 0.253,1.057 0.354,1.592 0.489,-0.233 0.971,-0.484 1.444,-0.752 -0.098,-0.536 -0.216,-1.066 -0.352,-1.592 -0.474,0.267 -0.956,0.518 -1.446,0.752zm0.654 3.652c0.055,0.528 0.093,1.058 0.114,1.59 0.475,-0.221 0.943,-0.458 1.404,-0.713 -0.01,-0.526 -0.038,-1.051 -0.085,-1.573 -0.471,0.248 -0.949,0.48 -1.433,0.696zm-46.805 9.014c0.152,0.519 0.323,1.033 0.511,1.54 0.534,-0.09 1.065,-0.199 1.591,-0.326 -0.191,-0.5 -0.367,-1.006 -0.526,-1.518 -0.522,0.118 -1.048,0.22 -1.576,0.304zm1.309 3.426c0.234,0.49 0.484,0.972 0.752,1.445 0.536,-0.099 1.067,-0.216 1.592,-0.352 -0.267,-0.474 -0.517,-0.956 -0.752,-1.447 -0.526,0.136 -1.057,0.254 -1.592,0.354zm1.893 3.255c0.299,0.429 0.615,0.849 0.945,1.259 0.517,-0.102 1.03,-0.22 1.536,-0.357 -0.326,-0.42 -0.637,-0.851 -0.935,-1.291 -0.51,0.146 -1.026,0.276 -1.546,0.389zm-3.94 -10.174c0.068,0.517 0.154,1.032 0.257,1.543 0.516,-0.078 1.029,-0.173 1.54,-0.286 -0.112,-0.496 -0.209,-0.994 -0.29,-1.497 -0.5,0.095 -1.003,0.175 -1.507,0.24zm44.985 -20.515c0.334,0.386 0.654,0.782 0.962,1.186 0.416,-0.318 0.82,-0.651 1.213,-0.997 -0.327,-0.408 -0.667,-0.806 -1.02,-1.191 -0.374,0.345 -0.759,0.679 -1.155,1.002zm2.111 2.826c0.29,0.451 0.565,0.911 0.825,1.38 0.436,-0.322 0.862,-0.659 1.275,-1.01 -0.268,-0.472 -0.552,-0.934 -0.852,-1.385 -0.405,0.351 -0.821,0.69 -1.248,1.015zm1.732 3.182c0.225,0.495 0.434,0.999 0.627,1.508 0.441,-0.315 0.873,-0.646 1.293,-0.993 -0.191,-0.511 -0.398,-1.013 -0.624,-1.508 -0.421,0.345 -0.853,0.676 -1.296,0.993zm1.281 3.487c0.145,0.511 0.275,1.027 0.388,1.547 0.429,-0.3 0.849,-0.615 1.259,-0.946 -0.101,-0.517 -0.22,-1.029 -0.356,-1.536 -0.421,0.326 -0.852,0.638 -1.291,0.935zm-44.53 17.002c0.24,0.485 0.498,0.962 0.772,1.429 0.511,-0.182 1.015,-0.382 1.511,-0.599 -0.275,-0.459 -0.536,-0.927 -0.781,-1.403 -0.495,0.207 -0.996,0.399 -1.502,0.573zm1.886 3.149c0.315,0.442 0.646,0.874 0.993,1.293 0.511,-0.19 1.014,-0.398 1.508,-0.623 -0.345,-0.421 -0.676,-0.853 -0.992,-1.296 -0.496,0.225 -0.999,0.434 -1.509,0.626zm-3.218 -6.459c0.157,0.498 0.331,0.991 0.521,1.477 0.495,-0.167 0.985,-0.351 1.468,-0.551 -0.196,-0.469 -0.378,-0.944 -0.546,-1.425 -0.477,0.181 -0.958,0.347 -1.443,0.499zm40.739 -28.011c0.395,0.322 0.78,0.656 1.154,1.002 0.354,-0.386 0.693,-0.783 1.02,-1.191 -0.393,-0.346 -0.797,-0.678 -1.212,-0.997 -0.308,0.404 -0.629,0.8 -0.962,1.186zm2.563 2.412c0.364,0.394 0.715,0.799 1.053,1.216 0.373,-0.392 0.734,-0.798 1.079,-1.216 -0.345,-0.418 -0.706,-0.823 -1.079,-1.215 -0.338,0.416 -0.689,0.821 -1.053,1.215zm2.264 2.84c0.307,0.449 0.6,0.908 0.878,1.376 0.38,-0.387 0.748,-0.789 1.101,-1.203 -0.276,-0.47 -0.567,-0.929 -0.875,-1.376 -0.355,0.413 -0.723,0.814 -1.104,1.203zm1.863 3.205c0.232,0.478 0.45,0.963 0.652,1.457 0.371,-0.37 0.73,-0.754 1.076,-1.151 -0.19,-0.492 -0.396,-0.976 -0.619,-1.451 -0.357,0.394 -0.727,0.776 -1.109,1.145zm-40.9 24.479c0.321,0.437 0.658,0.862 1.01,1.275 0.471,-0.267 0.933,-0.551 1.384,-0.852 -0.351,-0.404 -0.689,-0.82 -1.014,-1.248 -0.452,0.29 -0.912,0.565 -1.38,0.825zm-1.888 -3.03c0.241,0.463 0.498,0.918 0.77,1.364 0.459,-0.25 0.909,-0.516 1.35,-0.797 -0.274,-0.427 -0.536,-0.864 -0.784,-1.309 -0.439,0.261 -0.884,0.508 -1.336,0.742zm35.261 -34.664c0.445,0.249 0.881,0.51 1.309,0.785 0.281,-0.441 0.547,-0.892 0.797,-1.351 -0.446,-0.271 -0.901,-0.528 -1.364,-0.769 -0.233,0.452 -0.481,0.897 -0.742,1.335zm2.947 1.932c0.427,0.325 0.843,0.664 1.248,1.015 0.3,-0.451 0.584,-0.913 0.852,-1.384 -0.413,-0.352 -0.838,-0.689 -1.274,-1.01 -0.261,0.468 -0.536,0.928 -0.826,1.379zm2.717 2.398c0.381,0.389 0.749,0.79 1.104,1.203 0.308,-0.447 0.6,-0.906 0.876,-1.375 -0.354,-0.415 -0.721,-0.816 -1.102,-1.203 -0.278,0.468 -0.57,0.927 -0.878,1.375zm2.397 2.84c0.311,0.43 0.609,0.87 0.893,1.32 0.301,-0.429 0.587,-0.869 0.859,-1.32 -0.272,-0.45 -0.558,-0.891 -0.859,-1.319 -0.284,0.449 -0.582,0.89 -0.893,1.319zm-38.415 28.551c0.319,0.416 0.651,0.82 0.997,1.212 0.408,-0.326 0.806,-0.666 1.192,-1.019 -0.346,-0.375 -0.68,-0.76 -1.003,-1.155 -0.386,0.333 -0.781,0.654 -1.186,0.962zm28.703 -40.255c0.481,0.168 0.956,0.35 1.424,0.546 0.201,-0.483 0.384,-0.972 0.551,-1.468 -0.486,-0.19 -0.978,-0.364 -1.477,-0.521 -0.151,0.486 -0.317,0.967 -0.498,1.443zm3.236 1.392c0.475,0.245 0.943,0.506 1.402,0.781 0.217,-0.496 0.417,-1.001 0.599,-1.512 -0.467,-0.274 -0.943,-0.531 -1.428,-0.771 -0.175,0.506 -0.366,1.007 -0.573,1.502zm3.095 1.893c0.443,0.316 0.875,0.648 1.296,0.993 0.225,-0.495 0.433,-0.998 0.624,-1.509 -0.42,-0.347 -0.851,-0.678 -1.293,-0.993 -0.193,0.51 -0.402,1.013 -0.627,1.509zm2.848 2.375c0.381,0.369 0.751,0.751 1.109,1.145 0.222,-0.475 0.429,-0.96 0.619,-1.452 -0.347,-0.397 -0.706,-0.78 -1.076,-1.15 -0.202,0.493 -0.42,0.979 -0.652,1.457zm-11.592 -9.843c0.502,0.081 1.002,0.178 1.497,0.29 0.113,-0.51 0.208,-1.024 0.287,-1.54 -0.512,-0.103 -1.027,-0.189 -1.544,-0.257 -0.065,0.504 -0.145,1.007 -0.24,1.507zm3.429 0.808c0.512,0.159 1.018,0.334 1.517,0.525 0.128,-0.526 0.237,-1.056 0.327,-1.59 -0.507,-0.189 -1.021,-0.36 -1.54,-0.512 -0.085,0.528 -0.186,1.054 -0.304,1.577zm3.376 1.325c0.49,0.235 0.972,0.486 1.446,0.752 0.136,-0.525 0.254,-1.056 0.352,-1.591 -0.473,-0.268 -0.954,-0.519 -1.444,-0.753 -0.101,0.535 -0.219,1.066 -0.354,1.592zm3.22 1.847c0.439,0.298 0.87,0.609 1.291,0.935 0.136,-0.506 0.254,-1.017 0.356,-1.534 -0.41,-0.331 -0.83,-0.646 -1.259,-0.946 -0.113,0.52 -0.242,1.035 -0.388,1.545zm-13.13 -7.678c0.51,-0.007 1.018,0.002 1.526,0.025 0.023,-0.521 0.028,-1.044 0.015,-1.565 -0.522,-0.013 -1.044,-0.008 -1.566,0.015 0.024,0.507 0.032,1.016 0.025,1.525zm3.519 0.2c0.531,0.068 1.059,0.152 1.584,0.254 0.034,-0.54 0.049,-1.081 0.046,-1.623 -0.532,-0.097 -1.067,-0.176 -1.604,-0.236 0.008,0.535 0,1.07 -0.026,1.605zm3.556 0.719c0.523,0.146 1.042,0.309 1.555,0.489 0.042,-0.54 0.066,-1.083 0.07,-1.627 -0.512,-0.182 -1.03,-0.346 -1.553,-0.49 -0.006,0.543 -0.03,1.086 -0.072,1.628zm3.49 1.259c0.484,0.217 0.962,0.449 1.433,0.696 0.046,-0.521 0.074,-1.045 0.085,-1.572 -0.461,-0.254 -0.93,-0.492 -1.404,-0.713 -0.022,0.532 -0.059,1.062 -0.114,1.589zm-14.262 -5.283c0.5,-0.095 1.003,-0.175 1.506,-0.24 -0.068,-0.517 -0.153,-1.032 -0.256,-1.543 -0.516,0.078 -1.03,0.174 -1.54,0.287 0.112,0.495 0.208,0.994 0.29,1.496zm3.498 -0.414c0.535,-0.025 1.07,-0.034 1.605,-0.025 -0.06,-0.537 -0.139,-1.072 -0.236,-1.604 -0.542,-0.004 -1.083,0.011 -1.623,0.046 0.101,0.524 0.186,1.052 0.254,1.583zm3.628 0.091c0.54,0.053 1.079,0.124 1.614,0.211 -0.052,-0.539 -0.122,-1.076 -0.213,-1.612 -0.535,-0.09 -1.073,-0.161 -1.612,-0.214 0.087,0.536 0.158,1.075 0.211,1.615zm3.657 0.635c0.514,0.129 1.025,0.274 1.531,0.436 -0.045,-0.521 -0.108,-1.041 -0.189,-1.561 -0.498,-0.17 -1,-0.323 -1.506,-0.458 0.071,0.526 0.126,1.054 0.164,1.583zm-14.966 -2.725c0.476,-0.181 0.957,-0.347 1.443,-0.499 -0.157,-0.498 -0.331,-0.991 -0.521,-1.477 -0.496,0.167 -0.985,0.351 -1.468,0.551 0.196,0.469 0.378,0.944 0.546,1.425zm3.376 -1.016c0.522,-0.118 1.048,-0.22 1.576,-0.303 -0.152,-0.52 -0.323,-1.034 -0.512,-1.541 -0.534,0.09 -1.064,0.199 -1.59,0.327 0.191,0.499 0.367,1.005 0.526,1.517zm3.586 -0.54c0.542,-0.042 1.085,-0.066 1.629,-0.073 -0.145,-0.522 -0.308,-1.041 -0.491,-1.553 -0.543,0.004 -1.087,0.028 -1.627,0.07 0.18,0.514 0.343,1.032 0.489,1.556zm3.713 -0.011c0.528,0.038 1.056,0.093 1.582,0.164 -0.135,-0.506 -0.287,-1.008 -0.458,-1.507 -0.519,-0.081 -1.04,-0.144 -1.561,-0.189 0.162,0.507 0.308,1.018 0.437,1.532zm-15.209 -0.085c0.438,-0.261 0.883,-0.508 1.335,-0.742 -0.241,-0.463 -0.498,-0.918 -0.769,-1.364 -0.459,0.251 -0.909,0.516 -1.35,0.797 0.274,0.428 0.535,0.864 0.784,1.309zm3.142 -1.584c0.495,-0.207 0.996,-0.399 1.502,-0.573 -0.24,-0.485 -0.497,-0.962 -0.771,-1.429 -0.511,0.182 -1.015,0.382 -1.512,0.599 0.275,0.459 0.536,0.927 0.781,1.403zm3.443 -1.156c0.526,-0.136 1.057,-0.253 1.591,-0.354 -0.233,-0.49 -0.484,-0.972 -0.752,-1.445 -0.535,0.099 -1.066,0.216 -1.591,0.352 0.266,0.474 0.517,0.957 0.752,1.447zm3.652 -0.655c0.527,-0.055 1.058,-0.092 1.589,-0.113 -0.22,-0.475 -0.458,-0.944 -0.712,-1.405 -0.527,0.01 -1.052,0.039 -1.573,0.085 0.247,0.471 0.479,0.949 0.696,1.433zm-14.995 2.558c0.386,-0.333 0.782,-0.654 1.186,-0.962 -0.318,-0.416 -0.651,-0.82 -0.997,-1.212 -0.408,0.326 -0.805,0.666 -1.191,1.019 0.346,0.375 0.68,0.76 1.002,1.155zm2.826 -2.11c0.451,-0.29 0.911,-0.565 1.38,-0.825 -0.322,-0.437 -0.658,-0.862 -1.01,-1.275 -0.472,0.267 -0.933,0.552 -1.385,0.852 0.351,0.404 0.69,0.821 1.015,1.248zm3.182 -1.733c0.496,-0.225 0.999,-0.434 1.508,-0.626 -0.315,-0.442 -0.646,-0.874 -0.992,-1.293 -0.511,0.19 -1.014,0.398 -1.509,0.623 0.345,0.422 0.676,0.854 0.993,1.296zm3.487 -1.28c0.511,-0.146 1.027,-0.276 1.547,-0.389 -0.3,-0.429 -0.615,-0.849 -0.945,-1.259 -0.518,0.102 -1.03,0.22 -1.537,0.357 0.326,0.421 0.638,0.851 0.935,1.291zm-14.319 5.123c0.323,-0.396 0.657,-0.781 1.002,-1.155 -0.385,-0.353 -0.783,-0.693 -1.191,-1.019 -0.346,0.392 -0.678,0.796 -0.997,1.211 0.405,0.309 0.8,0.629 1.186,0.963zm2.412 -2.564c0.395,-0.363 0.8,-0.715 1.216,-1.052 -0.392,-0.374 -0.798,-0.734 -1.216,-1.08 -0.418,0.346 -0.823,0.706 -1.215,1.08 0.416,0.337 0.821,0.689 1.215,1.052zm2.84 -2.263c0.449,-0.308 0.908,-0.601 1.376,-0.878 -0.387,-0.381 -0.788,-0.748 -1.203,-1.102 -0.47,0.276 -0.928,0.568 -1.376,0.875 0.413,0.355 0.814,0.724 1.203,1.105zm3.205 -1.864c0.478,-0.232 0.964,-0.45 1.457,-0.651 -0.37,-0.371 -0.754,-0.731 -1.15,-1.077 -0.493,0.19 -0.977,0.396 -1.452,0.619 0.394,0.358 0.776,0.728 1.145,1.109zm-13.215 7.527c0.249,-0.444 0.511,-0.881 0.785,-1.308 -0.441,-0.281 -0.891,-0.547 -1.35,-0.797 -0.272,0.445 -0.529,0.9 -0.77,1.364 0.452,0.233 0.897,0.48 1.335,0.741zm1.933 -2.947c0.325,-0.427 0.663,-0.843 1.014,-1.248 -0.45,-0.3 -0.912,-0.584 -1.384,-0.852 -0.352,0.413 -0.689,0.838 -1.01,1.275 0.468,0.26 0.928,0.535 1.38,0.825zm2.398 -2.716c0.389,-0.381 0.79,-0.75 1.203,-1.105 -0.448,-0.307 -0.907,-0.599 -1.376,-0.875 -0.415,0.353 -0.816,0.721 -1.203,1.101 0.468,0.278 0.927,0.571 1.376,0.879zm2.84 -2.398c0.429,-0.311 0.869,-0.609 1.319,-0.893 -0.428,-0.3 -0.868,-0.587 -1.319,-0.859 -0.451,0.272 -0.891,0.559 -1.32,0.859 0.45,0.284 0.89,0.582 1.32,0.893zm-11.704 9.713c0.167,-0.481 0.35,-0.956 0.546,-1.425 -0.484,-0.2 -0.973,-0.384 -1.468,-0.551 -0.19,0.486 -0.365,0.979 -0.522,1.477 0.486,0.151 0.967,0.317 1.444,0.499zm1.391 -3.236c0.246,-0.476 0.506,-0.944 0.781,-1.402 -0.496,-0.218 -1,-0.418 -1.511,-0.6 -0.274,0.467 -0.532,0.944 -0.772,1.428 0.506,0.175 1.007,0.367 1.502,0.574zm1.893 -3.096c0.317,-0.442 0.648,-0.874 0.993,-1.295 -0.495,-0.226 -0.998,-0.434 -1.509,-0.624 -0.346,0.42 -0.678,0.851 -0.993,1.293 0.51,0.192 1.013,0.401 1.509,0.626zm2.375 -2.847c0.369,-0.382 0.751,-0.752 1.145,-1.11 -0.475,-0.222 -0.959,-0.428 -1.451,-0.619 -0.397,0.347 -0.781,0.706 -1.151,1.077 0.493,0.202 0.979,0.419 1.457,0.652zm-9.843 11.592c0.082,-0.503 0.178,-1.002 0.29,-1.497 -0.51,-0.113 -1.024,-0.209 -1.54,-0.287 -0.103,0.511 -0.189,1.026 -0.257,1.543 0.504,0.065 1.007,0.145 1.507,0.241zm0.808 -3.43c0.159,-0.511 0.334,-1.017 0.526,-1.517 -0.526,-0.127 -1.057,-0.237 -1.591,-0.327 -0.189,0.508 -0.359,1.022 -0.512,1.541 0.529,0.084 1.054,0.185 1.577,0.303zm1.325 -3.376c0.235,-0.49 0.486,-0.972 0.752,-1.446 -0.525,-0.136 -1.056,-0.253 -1.591,-0.352 -0.268,0.473 -0.519,0.955 -0.752,1.444 0.534,0.101 1.065,0.219 1.591,0.354zm1.848 -3.22c0.297,-0.439 0.609,-0.87 0.934,-1.29 -0.505,-0.136 -1.017,-0.255 -1.534,-0.357 -0.331,0.41 -0.646,0.83 -0.945,1.26 0.519,0.112 1.034,0.242 1.545,0.387zm-7.679 13.13c-0.007,-0.509 0.002,-1.018 0.026,-1.525 -0.522,-0.023 -1.045,-0.028 -1.566,-0.016 -0.013,0.522 -0.008,1.044 0.015,1.566 0.508,-0.024 1.016,-0.032 1.525,-0.025zm0.2 -3.519c0.068,-0.531 0.153,-1.059 0.254,-1.584 -0.54,-0.034 -1.081,-0.049 -1.623,-0.045 -0.097,0.532 -0.176,1.067 -0.236,1.604 0.535,-0.009 1.07,-0.001 1.605,0.025zm0.72 -3.555c0.146,-0.524 0.309,-1.042 0.489,-1.555 -0.541,-0.043 -1.084,-0.067 -1.628,-0.071 -0.182,0.513 -0.345,1.03 -0.49,1.553 0.544,0.007 1.087,0.031 1.629,0.073zm1.259 -3.491c0.216,-0.484 0.448,-0.962 0.696,-1.432 -0.522,-0.047 -1.046,-0.075 -1.572,-0.086 -0.255,0.461 -0.493,0.93 -0.713,1.405 0.531,0.021 1.061,0.059 1.589,0.113zm-5.283 14.263c-0.096,-0.501 -0.176,-1.003 -0.24,-1.507 -0.518,0.068 -1.033,0.154 -1.544,0.257 0.078,0.515 0.174,1.029 0.287,1.539 0.495,-0.112 0.994,-0.208 1.497,-0.289zm-0.415 -3.499c-0.025,-0.534 -0.033,-1.07 -0.024,-1.605 -0.538,0.06 -1.073,0.139 -1.605,0.236 -0.003,0.542 0.012,1.083 0.046,1.623 0.525,-0.101 1.053,-0.186 1.583,-0.254zm0.091 -3.628c0.053,-0.54 0.124,-1.078 0.212,-1.614 -0.539,0.052 -1.077,0.123 -1.613,0.213 -0.09,0.536 -0.161,1.074 -0.213,1.613 0.536,-0.088 1.074,-0.159 1.614,-0.212zm0.635 -3.656c0.129,-0.515 0.275,-1.025 0.437,-1.532 -0.521,0.045 -1.042,0.108 -1.561,0.189 -0.171,0.498 -0.324,1.001 -0.459,1.506 0.527,-0.071 1.055,-0.125 1.583,-0.163zm-2.725 14.966c-0.181,-0.477 -0.347,-0.958 -0.498,-1.444 -0.499,0.157 -0.991,0.331 -1.477,0.522 0.167,0.495 0.35,0.984 0.55,1.468 0.469,-0.197 0.944,-0.379 1.425,-0.546zm-1.016 -3.376c-0.118,-0.523 -0.219,-1.048 -0.303,-1.577 -0.519,0.153 -1.033,0.323 -1.541,0.512 0.09,0.534 0.199,1.064 0.327,1.59 0.5,-0.191 1.006,-0.366 1.517,-0.525zm-0.54 -3.586c-0.042,-0.542 -0.066,-1.086 -0.072,-1.629 -0.523,0.144 -1.041,0.308 -1.554,0.49 0.004,0.544 0.028,1.087 0.071,1.627 0.513,-0.179 1.031,-0.342 1.555,-0.488zm-0.011 -3.713c0.038,-0.529 0.093,-1.057 0.164,-1.583 -0.505,0.135 -1.008,0.288 -1.506,0.458 -0.081,0.52 -0.145,1.04 -0.189,1.561 0.506,-0.162 1.017,-0.307 1.531,-0.436zm-1.669 12.066c-0.207,-0.495 -0.399,-0.996 -0.573,-1.502 -0.485,0.24 -0.961,0.497 -1.428,0.771 0.181,0.511 0.381,1.015 0.599,1.512 0.458,-0.275 0.926,-0.536 1.402,-0.781zm-1.156 -3.442c-0.135,-0.527 -0.253,-1.057 -0.354,-1.592 -0.49,0.233 -0.971,0.484 -1.445,0.752 0.099,0.536 0.217,1.066 0.353,1.592 0.474,-0.267 0.956,-0.517 1.446,-0.752zm-0.655 -3.652c-0.054,-0.528 -0.092,-1.058 -0.113,-1.59 -0.475,0.221 -0.943,0.458 -1.404,0.713 0.01,0.526 0.038,1.051 0.085,1.573 0.47,-0.248 0.948,-0.48 1.432,-0.696zm-1.285 8.986c-0.224,-0.495 -0.433,-0.999 -0.626,-1.508 -0.442,0.315 -0.873,0.646 -1.293,0.993 0.19,0.511 0.398,1.013 0.623,1.508 0.422,-0.345 0.854,-0.676 1.296,-0.993zm-1.28 -3.487c-0.146,-0.511 -0.275,-1.027 -0.388,-1.547 -0.43,0.3 -0.85,0.615 -1.26,0.946 0.102,0.517 0.221,1.03 0.357,1.536 0.421,-0.326 0.851,-0.638 1.291,-0.935zm-1.567 5.862c-0.233,-0.478 -0.45,-0.963 -0.652,-1.456 -0.371,0.369 -0.73,0.753 -1.077,1.15 0.19,0.492 0.397,0.976 0.619,1.451 0.358,-0.394 0.728,-0.775 1.11,-1.145z"/>
  <circle class="fil2" cx="37.064" cy="37.968" r="27.591"/>
  <circle class="fil3" cx="37.064" cy="37.968" r="24.189"/>
 </g>
</svg>
