<?xml version="1.0" encoding="UTF-8"?>
<!DOCTYPE svg PUBLIC "-//W3C//DTD SVG 1.1//EN" "http://www.w3.org/Graphics/SVG/1.1/DTD/svg11.dtd">
<svg xml:space="preserve" viewBox="0 0 582 460" width="582px" height="460px" version="1.1" style="shape-rendering:geometricPrecision; fill-rule:evenodd; clip-rule:evenodd" xmlns="http://www.w3.org/2000/svg">
 <defs>
  <style type="text/css">
    .fil0 {fill:#C0C0C0}
    .fil1 {fill:#A8A8A8}
  </style>
 </defs>
 <g>
  <path class="fil0" d="M169.236 68.086l-81.704 0c-4.131,0 -7.213,-3.698 -6.468,-7.761l3.455 -18.822c4.298,-23.414 19.344,-40.859 43.219,-40.859 21.587,0 35.594,8.822 40.916,30.681l6.969 28.63c1.015,4.162 -2.104,8.131 -6.387,8.131z"/>
  <path class="fil1" d="M138.518 42.517l-3.367 2.735c-1.274,1.255 -2.028,2.948 -2.104,4.736l10.311 0 0 -2.736 -6.522 0c0.584,-0.815 1.339,-1.497 2.209,-2 1.044,-0.601 2.002,-1.347 2.842,-2.208 0.878,-0.932 1.367,-2.164 1.367,-3.444 0,-0.009 0,-0.02 0,-0.028 0.002,-0.056 0.003,-0.111 0.003,-0.167 0,-1.263 -0.537,-2.464 -1.476,-3.306 -0.973,-0.817 -2.204,-1.266 -3.473,-1.266 -0.07,0 -0.14,0 -0.209,0.003 -3.263,0 -4.947,1.788 -4.947,5.261l2.841 0c0,-1.894 0.737,-2.841 2.209,-2.841 0.068,-0.007 0.135,-0.01 0.203,-0.01 1.062,0 1.926,0.863 1.926,1.925 0,0.098 -0.008,0.197 -0.024,0.295 -0.036,1.255 -0.712,2.406 -1.787,3.051l-0.002 0zm-8.943 4.735l-7.471 0 0 -12.311 -3.157 0 0 15.047 10.628 0 0 -2.736z"/>
 </g>
</svg>
