<?xml version="1.0" encoding="UTF-8"?>
<!DOCTYPE svg PUBLIC "-//W3C//DTD SVG 1.1//EN" "http://www.w3.org/Graphics/SVG/1.1/DTD/svg11.dtd">
<svg xml:space="preserve" viewBox="0 0 550 242" width="550px" height="242px" version="1.1" style="shape-rendering:geometricPrecision; fill-rule:evenodd; clip-rule:evenodd" xmlns="http://www.w3.org/2000/svg">
 <defs>
  <style type="text/css">
    .fil0 {fill:red}
    .fil1 {fill:white}
  </style>
 </defs>
 <g>
  <g>
   <path class="fil0" d="M1.259 137.785c3.851,57.731 50.558,103.335 107.617,103.335 18.05,0 35.061,-4.57 50.011,-12.637 36.611,-11.697 75.621,-18.026 116.113,-18.026 40.492,0 79.502,6.329 116.114,18.026 14.95,8.067 31.96,12.637 50.01,12.637 57.082,0 103.802,-45.639 107.622,-103.402 0.477,-6.812 0.318,-13.767 -0.545,-20.798 -4.955,-40.356 -31.595,-72.756 -66.81,-86.958l-0.002 -0.16 0 -0.02c-0.086,-3.922 -2.602,-7.225 -6.382,-8.346 -24.619,-7.297 -49.809,-13.263 -75.475,-17.856 -4.125,-0.739 -8.096,1.394 -9.758,5.241l-0.603 1.394 0.001 0 0 0.001c-37.147,-6.138 -75.285,-9.337 -114.172,-9.337 -38.886,0 -77.023,3.201 -114.17,9.339l-0.604 -1.397c-1.662,-3.847 -5.633,-5.98 -9.758,-5.241 -25.666,4.593 -50.856,10.559 -75.475,17.856 -3.78,1.121 -6.296,4.424 -6.382,8.346l0 0.02 -0.002 0.161c-35.215,14.201 -61.855,46.601 -66.81,86.957 -0.866,7.054 -1.023,14.031 -0.54,20.865zm159.571 -127.567l0 0 0 0z"/>
  </g>
  <path class="fil1" d="M275 51.315c30.785,0 55.739,24.955 55.739,55.74 0,30.785 -24.954,55.739 -55.739,55.739 -30.785,0 -55.739,-24.954 -55.739,-55.739 0,-30.785 24.954,-55.74 55.739,-55.74zm6.953 58.545c1.017,1.017 1.017,2.678 0,3.694l-5.205 5.205 2.197 2.195c0.775,0.778 0.775,2.038 0,2.816l-5.162 5.159c-4.555,4.555 -11.37,5.471 -16.836,2.748l-11.342 11.343c8.007,6.553 18.24,10.486 29.395,10.486 25.654,0 46.45,-20.797 46.45,-46.451 0,-11.155 -3.933,-21.388 -10.486,-29.394l-11.333 11.333c2.724,5.463 1.809,12.282 -2.747,16.838l-5.161 5.161c-0.776,0.777 -2.036,0.777 -2.814,0l-17.829 -17.831c-0.779,-0.776 -0.779,-2.037 0,-2.814l5.159 -5.161c4.55,-4.549 11.355,-5.47 16.815,-2.757l11.341 -11.341c-8.007,-6.553 -18.242,-10.484 -29.395,-10.484 -25.654,0 -46.45,20.796 -46.45,46.45 0,11.154 3.931,21.388 10.484,29.395l11.348 -11.348c-2.712,-5.461 -1.793,-12.268 2.756,-16.816l5.161 -5.161c0.779,-0.778 2.039,-0.778 2.814,0l2.184 2.183 5.205 -5.205c1.017,-1.016 2.68,-1.016 3.696,0 1.017,1.018 1.017,2.678 0,3.695l-5.205 5.204 6.06 6.062 5.205 -5.204c1.016,-1.017 2.679,-1.017 3.695,0z"/>
 </g>
</svg>
