<?xml version="1.0" encoding="UTF-8"?>
<!DOCTYPE svg PUBLIC "-//W3C//DTD SVG 1.1//EN" "http://www.w3.org/Graphics/SVG/1.1/DTD/svg11.dtd">
<svg xml:space="preserve" viewBox="0 0 550 242" width="550px" height="242px" version="1.1" style="shape-rendering:geometricPrecision; fill-rule:evenodd; clip-rule:evenodd" xmlns="http://www.w3.org/2000/svg">
 <defs>
  <style type="text/css">
    .fil0 {fill:#D00000}
    .fil1 {fill:red}
    .fil2 {fill:#F00000;fill-opacity:0.5}
  </style>
 </defs>
 <g>
  <path class="fil0" d="M83.774 105.96l20.618 0c4.56,0 8.348,3.397 8.843,7.93 0.191,1.75 0.289,3.527 0.289,5.327 0,1.8 -0.098,3.577 -0.289,5.327 -0.495,4.533 -4.283,7.93 -8.843,7.93l-20.618 0c-4.561,0 -8.349,-3.397 -8.843,-7.93 -0.191,-1.75 -0.289,-3.527 -0.289,-5.327 0,-1.8 0.098,-3.577 0.289,-5.327 0.494,-4.533 4.282,-7.93 8.843,-7.93z"/>
  <path class="fil1" d="M107.747 106.609c2.952,1.194 5.122,3.926 5.488,7.281 0.191,1.75 0.289,3.527 0.289,5.327 0,1.8 -0.098,3.577 -0.289,5.327 -0.366,3.356 -2.538,6.089 -5.492,7.283 -0.998,-0.543 -2.14,-0.853 -3.351,-0.853l-20.618 0c-3.8,0 -6.943,-2.809 -7.355,-6.589 -0.187,-1.724 -0.277,-3.434 -0.277,-5.168 0,-1.735 0.09,-3.444 0.277,-5.168 0.412,-3.779 3.555,-6.589 7.355,-6.589l20.618 0c1.213,0 2.357,-0.308 3.355,-0.851z"/>
  <path class="fil2" d="M106.718 106.264c0.65,0.175 1.271,0.42 1.854,0.729 -1.21,0.77 -2.644,1.217 -4.18,1.217l-20.618 0c-1.713,0 -3.274,0.631 -4.452,1.685 -1.176,1.055 -1.973,2.535 -2.158,4.233 -0.093,0.851 -0.162,1.697 -0.206,2.539 -0.044,0.821 -0.066,1.671 -0.066,2.55 0,0.879 0.022,1.729 0.066,2.55 0.044,0.842 0.113,1.688 0.206,2.539 0.184,1.699 0.982,3.179 2.158,4.233 1.177,1.054 2.739,1.685 4.452,1.685l20.618 0c1.533,0 2.967,0.448 4.176,1.219 -0.582,0.309 -1.204,0.554 -1.854,0.727 -0.72,-0.287 -1.503,-0.445 -2.322,-0.445l-20.618 0c-2.089,0 -4.001,-0.776 -5.448,-2.073 -1.445,-1.295 -2.424,-3.109 -2.651,-5.188 -0.095,-0.872 -0.165,-1.744 -0.212,-2.621 -0.048,-0.897 -0.071,-1.771 -0.071,-2.626 0,-0.855 0.023,-1.729 0.071,-2.626 0.047,-0.877 0.117,-1.749 0.212,-2.621 0.227,-2.079 1.206,-3.893 2.651,-5.188 1.448,-1.297 3.359,-2.072 5.448,-2.072l20.618 0c0.821,0 1.606,-0.158 2.326,-0.446z"/>
 </g>
</svg>
