<?xml version="1.0" encoding="UTF-8"?>
<!DOCTYPE svg PUBLIC "-//W3C//DTD SVG 1.1//EN" "http://www.w3.org/Graphics/SVG/1.1/DTD/svg11.dtd">
<svg xml:space="preserve" viewBox="0 0 550 242" width="550px" height="242px" version="1.1" style="shape-rendering:geometricPrecision; fill-rule:evenodd; clip-rule:evenodd" xmlns="http://www.w3.org/2000/svg">
 <defs>
  <style type="text/css">
    .fil0 {fill:#D00000}
    .fil1 {fill:red}
    .fil2 {fill:#F00000;fill-opacity:0.5}
  </style>
 </defs>
 <g>
  <path class="fil0" d="M109.952 100.4l0 -20.618c0,-4.56 3.397,-8.348 7.93,-8.843 1.75,-0.191 3.527,-0.289 5.327,-0.289 1.8,0 3.577,0.098 5.326,0.289 4.534,0.495 7.931,4.283 7.931,8.843l0 20.618c0,4.561 -3.397,8.348 -7.931,8.843 -1.749,0.191 -3.526,0.289 -5.326,0.289 -1.8,0 -3.577,-0.098 -5.327,-0.289 -4.533,-0.495 -7.93,-4.282 -7.93,-8.843z"/>
  <path class="fil1" d="M135.817 103.756c-1.194,2.951 -3.927,5.121 -7.282,5.487 -1.749,0.191 -3.526,0.289 -5.326,0.289 -1.8,0 -3.577,-0.098 -5.327,-0.289 -3.355,-0.366 -6.087,-2.536 -7.281,-5.487 0.542,-0.999 0.851,-2.142 0.851,-3.355l0 -20.619c0,-3.8 2.81,-6.942 6.589,-7.354 1.724,-0.188 3.433,-0.278 5.168,-0.278 1.734,0 3.444,0.09 5.168,0.278 3.779,0.412 6.589,3.555 6.589,7.354l0 20.619c0,1.213 0.308,2.356 0.851,3.355z"/>
  <path class="fil2" d="M136.161 102.726c-0.174,0.65 -0.42,1.271 -0.728,1.854 -0.771,-1.209 -1.217,-2.643 -1.217,-4.179l0 -20.619c0,-1.712 -0.631,-3.274 -1.686,-4.451 -1.054,-1.177 -2.534,-1.974 -4.232,-2.159 -0.851,-0.093 -1.697,-0.162 -2.539,-0.206 -0.821,-0.044 -1.671,-0.065 -2.55,-0.065 -0.88,0 -1.729,0.021 -2.55,0.065 -0.842,0.044 -1.687,0.113 -2.539,0.206 -1.698,0.185 -3.178,0.982 -4.233,2.159 -1.054,1.176 -1.685,2.739 -1.685,4.451l0 20.619c0,1.536 -0.447,2.97 -1.217,4.179 -0.309,-0.582 -0.554,-1.203 -0.729,-1.854 0.288,-0.72 0.446,-1.505 0.446,-2.325l0 -20.619c0,-2.088 0.775,-4 2.072,-5.447 1.295,-1.446 3.109,-2.425 5.188,-2.651 0.872,-0.095 1.745,-0.166 2.621,-0.213 0.897,-0.047 1.771,-0.071 2.626,-0.071 0.854,0 1.728,0.024 2.626,0.071 0.876,0.047 1.749,0.118 2.621,0.213 2.078,0.226 3.893,1.205 5.188,2.651 1.297,1.447 2.072,3.359 2.072,5.447l0 20.619c0,0.82 0.158,1.605 0.445,2.325z"/>
 </g>
</svg>
