<?xml version="1.0" encoding="UTF-8"?>
<!DOCTYPE svg PUBLIC "-//W3C//DTD SVG 1.1//EN" "http://www.w3.org/Graphics/SVG/1.1/DTD/svg11.dtd">
<svg xml:space="preserve" viewBox="0 0 550 242" width="550px" height="242px" version="1.1" style="shape-rendering:geometricPrecision; fill-rule:evenodd; clip-rule:evenodd" xmlns="http://www.w3.org/2000/svg">
 <defs>
  <style type="text/css">
    .fil0 {fill:#D00000}
    .fil1 {fill:red}
    .fil2 {fill:#F00000;fill-opacity:0.5}
  </style>
 </defs>
 <g>
  <path class="fil0" d="M142.026 105.96l20.617 0c4.561,0 8.349,3.397 8.844,7.93 0.191,1.75 0.288,3.527 0.288,5.327 0,1.8 -0.097,3.577 -0.288,5.327 -0.495,4.533 -4.283,7.93 -8.844,7.93l-20.617 0c-4.561,0 -8.349,-3.397 -8.843,-7.93 -0.191,-1.75 -0.289,-3.527 -0.289,-5.327 0,-1.8 0.098,-3.577 0.289,-5.327 0.494,-4.533 4.282,-7.93 8.843,-7.93z"/>
  <path class="fil1" d="M138.674 131.827c-2.953,-1.194 -5.125,-3.927 -5.491,-7.283 -0.191,-1.75 -0.289,-3.527 -0.289,-5.327 0,-1.8 0.098,-3.577 0.289,-5.327 0.366,-3.355 2.536,-6.087 5.488,-7.281 0.998,0.543 2.141,0.851 3.355,0.851l20.618 0c3.8,0 6.942,2.809 7.354,6.589 0.188,1.724 0.278,3.434 0.278,5.168 0,1.734 -0.09,3.444 -0.278,5.168 -0.412,3.78 -3.554,6.589 -7.354,6.589l-20.618 0c-1.211,0 -2.353,0.31 -3.352,0.853z"/>
  <path class="fil2" d="M139.703 132.17c-0.65,-0.173 -1.271,-0.418 -1.854,-0.727 1.21,-0.771 2.644,-1.219 4.177,-1.219l20.618 0c1.712,0 3.274,-0.631 4.451,-1.685 1.176,-1.054 1.974,-2.534 2.159,-4.233 0.092,-0.851 0.161,-1.697 0.206,-2.539 0.044,-0.821 0.065,-1.671 0.065,-2.55 0,-0.88 -0.021,-1.728 -0.065,-2.55 -0.045,-0.842 -0.114,-1.688 -0.206,-2.539 -0.185,-1.698 -0.983,-3.178 -2.159,-4.233 -1.177,-1.054 -2.739,-1.685 -4.451,-1.685l-20.618 0c-1.536,0 -2.971,-0.447 -4.181,-1.217 0.583,-0.309 1.205,-0.554 1.855,-0.729 0.72,0.288 1.505,0.446 2.326,0.446l20.618 0c2.088,0 4,0.775 5.447,2.072 1.445,1.295 2.425,3.109 2.651,5.188 0.095,0.871 0.166,1.744 0.212,2.621 0.048,0.897 0.072,1.771 0.072,2.626 0,0.854 -0.024,1.729 -0.072,2.626 -0.046,0.877 -0.117,1.749 -0.212,2.621 -0.226,2.079 -1.206,3.893 -2.651,5.188 -1.447,1.297 -3.359,2.073 -5.447,2.073l-20.618 0c-0.819,0 -1.603,0.158 -2.323,0.445z"/>
 </g>
</svg>
