<?xml version="1.0" encoding="UTF-8"?>
<!DOCTYPE svg PUBLIC "-//W3C//DTD SVG 1.1//EN" "http://www.w3.org/Graphics/SVG/1.1/DTD/svg11.dtd">
<svg xml:space="preserve" viewBox="0 0 550 242" width="550px" height="242px" version="1.1" style="shape-rendering:geometricPrecision; fill-rule:evenodd; clip-rule:evenodd" xmlns="http://www.w3.org/2000/svg" xmlns:xlink="http://www.w3.org/1999/xlink">
 <defs>
  <style type="text/css">
    .str1 {stroke:#878379;stroke-width:0.75;stroke-opacity:0.5}
    .str2 {stroke:#9C9990;stroke-width:1.5;stroke-opacity:0.6}
    .str3 {stroke:#9D9A91;stroke-width:2;stroke-opacity:0.7}
    .str0 {stroke:#080808}
    .fil7 {fill:none}
    .fil27 {fill:none}
    .fil33 {fill:none}
    .fil4 {fill:#080808}
    .fil0 {fill:#1A1A1A}
    .fil1 {fill:#1A1A1A}
    .fil2 {fill:#232323}
    .fil3 {fill:#333333}
    .fil5 {fill:#999999}
    .fil10 {fill:#4F4D49}
    .fil12 {fill:#8C887E}
    .fil8 {fill:#928F86}
    .fil11 {fill:#CFCDC9}
    .fil9 {fill:#4F4D49;fill-opacity:0.1}
    .fil30 {fill:white;fill-opacity:0.2}
    .fil13 {fill:url(#id0)}
    .fil21 {fill:url(#id1)}
    .fil15 {fill:url(#id2)}
    .fil16 {fill:url(#id3)}
    .fil20 {fill:url(#id4)}
    .fil23 {fill:url(#id5)}
    .fil25 {fill:url(#id6)}
    .fil22 {fill:url(#id7)}
    .fil24 {fill:url(#id8)}
    .fil19 {fill:url(#id9)}
    .fil17 {fill:url(#id10)}
    .fil14 {fill:url(#id11)}
    .fil26 {fill:url(#id12)}
    .fil18 {fill:url(#id13)}
    .fil35 {fill:url(#id14)}
    .fil37 {fill:url(#id15)}
    .fil36 {fill:url(#id16)}
    .fil6 {fill:url(#id17)}
    .fil34 {fill:url(#id18)}
    .fil31 {fill:url(#id19)}
    .fil28 {fill:url(#id20)}
    .fil32 {fill:url(#id21)}
    .fil29 {fill:url(#id22)}
  </style>
  <linearGradient id="id0" gradientUnits="userSpaceOnUse" x1="123.209" y1="160.574" x2="123.209" y2="77.861">
   <stop offset="0" style="stop-opacity:1; stop-color:#8C887E"/>
   <stop offset="1" style="stop-opacity:1; stop-color:#807D74"/>
  </linearGradient>
  <linearGradient id="id1" gradientUnits="userSpaceOnUse" x1="111.574" y1="78.184" x2="117.201" y2="72.538">
   <stop offset="0" style="stop-opacity:1; stop-color:#807D74"/>
   <stop offset="1" style="stop-opacity:1; stop-color:#CFCDC9"/>
  </linearGradient>
  <linearGradient id="id2" gradientUnits="userSpaceOnUse" x1="164.242" y1="130.852" x2="169.888" y2="125.225">
   <stop offset="0" style="stop-opacity:1; stop-color:#504E4A"/>
   <stop offset="1" style="stop-opacity:1; stop-color:#8C887E"/>
  </linearGradient>
  <linearGradient id="id3" gradientUnits="userSpaceOnUse" x1="76.53" y1="113.21" x2="82.175" y2="107.582">
   <stop offset="0" style="stop-opacity:1; stop-color:#8C887E"/>
   <stop offset="1" style="stop-opacity:1; stop-color:#CFCDC9"/>
  </linearGradient>
  <linearGradient id="id4" gradientUnits="userSpaceOnUse" xlink:href="#id1" x1="134.844" y1="78.184" x2="129.217" y2="72.538">
  </linearGradient>
  <linearGradient id="id5" gradientUnits="userSpaceOnUse" x1="132.268" y1="134.09" x2="138.081" y2="128.276">
   <stop offset="0" style="stop-opacity:1; stop-color:#89857B"/>
   <stop offset="1" style="stop-opacity:1; stop-color:#504E4A"/>
  </linearGradient>
  <linearGradient id="id6" gradientUnits="userSpaceOnUse" x1="108.337" y1="110.158" x2="114.15" y2="104.345">
   <stop offset="0" style="stop-opacity:1; stop-color:#CFCDC9"/>
   <stop offset="1" style="stop-opacity:1; stop-color:#838077"/>
  </linearGradient>
  <linearGradient id="id7" gradientUnits="userSpaceOnUse" xlink:href="#id5" x1="114.15" y1="134.09" x2="108.337" y2="128.276">
  </linearGradient>
  <linearGradient id="id8" gradientUnits="userSpaceOnUse" xlink:href="#id6" x1="138.081" y1="110.158" x2="132.268" y2="104.345">
  </linearGradient>
  <linearGradient id="id9" gradientUnits="userSpaceOnUse" x1="117.201" y1="165.896" x2="111.574" y2="160.251">
   <stop offset="0" style="stop-opacity:1; stop-color:#504E4A"/>
   <stop offset="1" style="stop-opacity:1; stop-color:#8C887E"/>
  </linearGradient>
  <linearGradient id="id10" gradientUnits="userSpaceOnUse" xlink:href="#id2" x1="82.175" y1="130.852" x2="76.53" y2="125.225">
  </linearGradient>
  <linearGradient id="id11" gradientUnits="userSpaceOnUse" xlink:href="#id3" x1="169.888" y1="113.21" x2="164.242" y2="107.582">
  </linearGradient>
  <linearGradient id="id12" gradientUnits="userSpaceOnUse" x1="123.209" y1="166.284" x2="123.209" y2="72.151">
   <stop offset="0" style="stop-opacity:1; stop-color:#B0ADA6"/>
   <stop offset="0.5" style="stop-opacity:1; stop-color:#9D9A91"/>
   <stop offset="1" style="stop-opacity:1; stop-color:#918F87"/>
  </linearGradient>
  <linearGradient id="id13" gradientUnits="userSpaceOnUse" xlink:href="#id9" x1="129.217" y1="165.896" x2="134.844" y2="160.251">
  </linearGradient>
  <linearGradient id="id14" gradientUnits="userSpaceOnUse" x1="498.695" y1="124.506" x2="498.695" y2="78.017">
   <stop offset="0" style="stop-opacity:1; stop-color:#B0ADA6"/>
   <stop offset="0.5" style="stop-opacity:1; stop-color:#9D9A91"/>
   <stop offset="1" style="stop-opacity:1; stop-color:#8F8C85"/>
  </linearGradient>
  <linearGradient id="id15" gradientUnits="userSpaceOnUse" xlink:href="#id14" x1="390.902" y1="163.298" x2="390.902" y2="116.81">
  </linearGradient>
  <linearGradient id="id16" gradientUnits="userSpaceOnUse" x1="390.902" y1="114.92" x2="390.902" y2="165.188">
   <stop offset="0" style="stop-opacity:1; stop-color:#BCBAB4"/>
   <stop offset="0.4" style="stop-opacity:1; stop-color:#9D9A91"/>
   <stop offset="1" style="stop-opacity:1; stop-color:#5D5B55"/>
  </linearGradient>
  <linearGradient id="id17" gradientUnits="userSpaceOnUse" x1="123.209" y1="80.365" x2="123.209" y2="167.782">
   <stop offset="0" style="stop-opacity:1; stop-color:#B7B5AF"/>
   <stop offset="0.4" style="stop-opacity:1; stop-color:#9D9A91"/>
   <stop offset="1" style="stop-opacity:1; stop-color:#65635D"/>
  </linearGradient>
  <linearGradient id="id18" gradientUnits="userSpaceOnUse" xlink:href="#id17" x1="441.569" y1="117.406" x2="441.569" y2="104.48">
  </linearGradient>
  <linearGradient id="id19" gradientUnits="objectBoundingBox" xlink:href="#id16" x1="50%" y1="0%" x2="50%" y2="99.9999%">
  </linearGradient>
  <linearGradient id="id20" gradientUnits="userSpaceOnUse" xlink:href="#id17" x1="123.209" y1="128.666" x2="123.209" y2="111.658">
  </linearGradient>
  <linearGradient id="id21" gradientUnits="userSpaceOnUse" xlink:href="#id14" x1="441.569" y1="133.469" x2="441.569" y2="86.981">
  </linearGradient>
  <linearGradient id="id22" gradientUnits="objectBoundingBox" x1="45.8606%" y1="29.9997%" x2="45.8606%" y2="79.9999%">
   <stop offset="0" style="stop-opacity:1; stop-color:#9D9A91"/>
   <stop offset="1" style="stop-opacity:1; stop-color:#65635D"/>
  </linearGradient>
 </defs>
 <g>
  <g id="shell">
   <path class="fil0" d="M150.468 6.367c-25.665,4.593 -50.856,10.559 -75.475,17.856 -3.846,1.14 -6.384,1.753 -6.384,5.764l0 33.453 105.744 -21.921 -14.127 -32.698c-1.661,-3.847 -5.633,-3.193 -9.758,-2.454z"/>
   <path class="fil0" d="M399.532 6.367c25.665,4.593 50.856,10.559 75.475,17.856 3.846,1.14 6.384,1.753 6.384,5.764l0 33.453 -105.744 -21.921 14.127 -32.698c1.661,-3.847 5.633,-3.193 9.758,-2.454z"/>
   <path class="fil1" d="M74.539 30.202l0 0.681c-42.746,13.905 -73.543,53.056 -73.543,99.184 0,61.333 48.3,111.053 107.88,111.053 18.05,0 35.061,-4.57 50.011,-12.637 36.611,-11.697 75.621,-18.026 116.113,-18.026 40.492,0 79.502,6.329 116.114,18.026 14.95,8.067 31.96,12.637 50.01,12.637 59.581,0 107.881,-49.72 107.881,-111.053 0,-46.128 -30.798,-85.279 -73.544,-99.185l0 -0.68c-63.484,-19.052 -130.771,-29.323 -200.461,-29.323 -69.69,0 -136.975,10.276 -200.461,29.323z"/>
   <circle class="fil2" transform="matrix(0.576669 0.070806 -0.070806 0.576669 108.876 130.067)" r="185.682"/>
   <circle class="fil2" transform="matrix(-0.576669 0.070806 0.070806 0.576669 441.124 130.067)" r="185.682"/>
   <path class="fil3" d="M164.88 222.268c27.227,-16.563 46.888,-44.967 51.073,-79.054 7.261,-59.137 -34.792,-112.963 -93.929,-120.224 -6.48,-0.795 -12.897,-0.999 -19.194,-0.653 35.064,-8.92 71.191,-15.18 108.153,-18.551 0.227,2.238 5.086,3.67 10.895,3.203 5.726,-0.461 10.247,-2.597 10.245,-4.809 14.182,-0.862 28.478,-1.301 42.877,-1.301 59.424,0 117.106,7.45 172.17,21.458 -6.297,-0.346 -12.714,-0.142 -19.194,0.653 -59.137,7.261 -101.19,61.087 -93.929,120.224 4.185,34.087 23.846,62.491 51.073,79.054 -34.896,-10.387 -71.85,-15.991 -110.12,-15.991 -38.269,0 -75.224,5.604 -110.12,15.991z"/>
   <circle class="fil3" transform="matrix(0.553239 0.0679292 -0.0679293 0.553239 104.526 129.533)" r="185.682"/>
   <circle class="fil3" transform="matrix(-0.553239 0.0679292 0.0679293 0.553239 445.474 129.533)" r="185.682"/>
   <circle class="fil1 str0" cx="123.209" cy="119.217" r="70.513"/>
   <path class="fil4" d="M133.395 176.819l-10.187 4.549 10.187 4.549 0 -9.098zm-10.187 0l-10.186 4.549 10.186 4.549 0 -9.098zm61.061 -62.151l5.705 4.549 -5.705 4.549 0 -9.098zm5.705 0l2.18 0 0 9.098 -2.18 0 0 -9.098zm-11.409 0l5.704 4.549 -5.704 4.549 0 -9.098zm-116.417 0l-5.705 4.549 5.705 4.549 0 -9.098zm-5.705 0l-2.18 0 0 9.098 2.18 0 0 -9.098zm11.409 0l-5.704 4.549 5.704 4.549 0 -9.098zm45.17 -62.15l10.186 4.549 -10.186 4.548 0 -9.097zm10.186 0l10.187 4.549 -10.187 4.548 0 -9.097z"/>
  </g>
  <g id="marks">
   <path class="fil1" d="M152.201 25.939l6.428 0 0 -1.726 -4.421 0 0 -8.013 -2.007 0 0 9.739zm237.919 0l2.007 0 0 -3.401 1.768 0c0.007,0 0.013,0 0.02,0l1.73 3.401 2.154 0 -1.951 -3.78c1.09,-0.503 1.737,-1.471 1.737,-2.762 0,-1.962 -1.372,-3.197 -3.572,-3.197l-3.893 0 0 9.739zm2.007 -5.015l0 -3.052 1.761 0c1.068,0 1.73,0.595 1.73,1.525 0,0.932 -0.663,1.527 -1.723,1.527l-1.768 0z"/>
   <path class="fil1" d="M237.965 137.904l2.268 0 1.404 -2.061c0.313,-0.457 0.613,-0.913 0.915,-1.377 0.294,0.464 0.588,0.92 0.893,1.377l1.367 2.061 2.326 0 -3.436 -5.039 3.155 -4.7 -2.227 0 -1.098 1.655c-0.333,0.503 -0.648,1.005 -0.96,1.509 -0.308,-0.504 -0.622,-1.006 -0.941,-1.509l-1.08 -1.655 -2.278 0 3.188 4.758 -3.496 4.981zm66.672 0l2.007 0 0 -3.344 1.803 0c2.19,0 3.588,-1.225 3.588,-3.198 0,-1.973 -1.372,-3.197 -3.561,-3.197l-3.837 0 0 9.739zm2.007 -5.017l0 -3.05 1.699 0c1.065,0 1.725,0.587 1.725,1.525 0,0.939 -0.66,1.525 -1.725,1.525l-1.699 0z"/>
   <path class="fil1" d="M257.189 203.949l1.338 0 0 -2.23 1.203 0c1.459,0 2.391,-0.816 2.391,-2.131 0,-1.315 -0.914,-2.131 -2.374,-2.131l-2.558 0 0 6.492zm1.338 -3.344l0 -2.034 1.133 0c0.71,0 1.15,0.391 1.15,1.017 0,0.626 -0.44,1.017 -1.15,1.017l-1.133 0zm4.293 3.344l1.338 0 0 -2.738 2.764 0 0 2.738 1.338 0 0 -6.492 -1.338 0 0 2.604 -2.764 0 0 -2.604 -1.338 0 0 6.492zm9.258 0.097c1.75,0 3.061,-1.28 3.061,-3.339 0,-2.063 -1.311,-3.347 -3.061,-3.347 -1.751,0 -3.057,1.284 -3.057,3.347 0,2.05 1.306,3.339 3.057,3.339zm0 -1.184c-1.005,0 -1.711,-0.783 -1.711,-2.155 0,-1.381 0.706,-2.164 1.711,-2.164 1.004,0 1.714,0.783 1.714,2.164 0,1.372 -0.71,2.155 -1.714,2.155zm3.814 1.087l1.338 0 0 -3.012c0,-0.277 -0.004,-0.832 -0.031,-1.511 0.367,0.658 0.698,1.22 0.886,1.516l1.895 3.007 1.415 0 0 -6.492 -1.338 0 0 3.212c0,0.273 0.005,0.81 0.022,1.311 -0.257,-0.467 -0.536,-0.959 -0.689,-1.203l-2.09 -3.32 -1.408 0 0 6.492zm6.467 0l4.652 0 0 -1.15 -3.314 0 0 -1.57 3.065 0 0 -1.115 -3.065 0 0 -1.507 3.314 0 0 -1.15 -4.652 0 0 6.492zm7.88 0.097c1.596,0 2.571,-0.772 2.571,-2.019 0,-0.972 -0.614,-1.541 -1.998,-1.833l-0.622 -0.133c-0.796,-0.174 -1.117,-0.396 -1.117,-0.796 0,-0.472 0.466,-0.802 1.126,-0.802 0.695,0 1.153,0.377 1.2,0.99l1.254 0c-0.039,-1.304 -0.966,-2.093 -2.459,-2.093 -1.473,0 -2.459,0.793 -2.459,1.971 0,0.924 0.622,1.519 1.903,1.797l0.682 0.147c0.822,0.178 1.161,0.422 1.161,0.838 0,0.504 -0.49,0.83 -1.233,0.83 -0.831,0 -1.331,-0.417 -1.348,-1.129l-1.291 0c0,1.408 0.969,2.232 2.63,2.232z"/>
   <path class="fil1" d="M313.055 203.949l1.707 0 2.229 -6.492 -1.44 0 -1.015 3.158c-0.187,0.62 -0.388,1.317 -0.614,2.114 -0.235,-0.797 -0.44,-1.494 -0.636,-2.114l-1.049 -3.158 -1.459 0 2.277 6.492zm6.916 0.097c1.75,0 3.061,-1.28 3.061,-3.339 0,-2.063 -1.311,-3.347 -3.061,-3.347 -1.751,0 -3.057,1.284 -3.057,3.347 0,2.05 1.306,3.339 3.057,3.339zm0 -1.184c-1.004,0 -1.71,-0.783 -1.71,-2.155 0,-1.381 0.706,-2.164 1.71,-2.164 1.004,0 1.714,0.783 1.714,2.164 0,1.372 -0.71,2.155 -1.714,2.155zm3.815 1.087l4.285 0 0 -1.15 -2.948 0 0 -5.342 -1.337 0 0 6.492z"/>
   <polygon class="fil1" points="344.793,203.949 329.36,203.949 344.793,197.457 "/>
   <path class="fil5" d="M309.402 90.773l3.893 0 0 9.098 -3.893 0 0 -9.098zm-5.59 0l3.892 0 0 9.098 -3.892 0 0 -9.098zm-17.93 0l10.187 4.549 -10.187 4.549 0 -9.098zm15.575 -0.191l1.521 1.146 -6.28 8.334 -1.521 -1.146 6.28 -8.334zm-64.249 0.191l9.098 0 0 9.098 -9.098 0 0 -9.098z"/>
   <path class="fil5" d="M375.513 111.547l3.181 -1.127 -0.072 -3.484 5.333 -1.889 2.101 2.766 3.266 -1.156 -10.065 -12.507 -3.793 1.343 0.049 16.054zm3.07 -7.246l-0.035 -1.647c-0.055,-1.622 -0.129,-3.233 -0.241,-5.191 1.135,1.596 2.092,2.894 3.05,4.196l0.999 1.306 -3.773 1.336zm106.019 -31.145c3.342,-1.184 5.105,-4.122 4.432,-7.456l-2.972 1.052c0.229,1.799 -0.658,3.191 -2.345,3.789 -2.433,0.861 -4.502,-0.485 -5.527,-3.378 -1.031,-2.913 -0.26,-5.265 2.162,-6.123 1.697,-0.601 3.276,-0.071 4.204,1.492l2.982 -1.056c-1.579,-3.025 -4.802,-4.209 -8.143,-3.026 -3.927,1.391 -5.777,5.214 -4.167,9.761 1.6,4.519 5.458,6.332 9.374,4.945zm-58.197 8.543l6.048 -2.142c3.247,-1.15 4.417,-3.404 3.572,-5.79 -0.72,-2.033 -2.491,-2.783 -4.287,-2.327l-0.007 -0.02c1.425,-0.946 2.018,-2.396 1.431,-4.053 -0.779,-2.201 -3.02,-3.063 -6.093,-1.974l-5.721 2.025 5.057 14.281zm2.064 -3.336l-1.348 -3.805 2.799 -0.991c1.487,-0.527 2.624,-0.091 3.045,1.099 0.422,1.19 -0.23,2.186 -1.743,2.722l-2.753 0.975zm-2.133 -6.022l-1.285 -3.629 2.619 -0.927c1.295,-0.459 2.338,-0.037 2.733,1.078 0.392,1.108 -0.153,2.092 -1.448,2.55l-2.619 0.928z"/>
   <g>
    <path class="fil5" d="M243.623 42.18c-0.114,0.599 -0.215,1.334 0.3,1.791 0.758,0.658 1.845,0.73 2.774,0.458 0.302,-0.099 0.559,-0.272 0.759,-0.514 0.186,-0.244 0.271,-0.513 0.214,-0.828 -0.071,-0.3 -0.243,-0.543 -0.501,-0.728 -0.186,-0.129 -0.386,-0.187 -0.585,-0.258 -0.901,-0.271 -1.788,-0.458 -2.704,-0.702 -0.944,-0.271 -1.801,-0.685 -2.488,-1.415 -0.243,-0.258 -0.429,-0.543 -0.571,-0.858 -0.172,-0.414 -0.272,-0.843 -0.301,-1.286 -0.043,-0.973 0.129,-1.945 0.644,-2.803 0.485,-0.801 1.101,-1.432 1.901,-1.919 1.059,-0.628 2.216,-0.901 3.404,-0.942 2.016,-0.087 4.145,0.027 5.832,1.371 0.1,0.087 0.187,0.173 0.286,0.273 0.959,0.972 1.073,2.393 0.857,3.649l-4.589 0c-0.014,-0.241 0.042,-0.479 0.014,-0.723 -0.015,-0.043 -0.015,-0.1 -0.029,-0.142 -0.129,-0.501 -0.6,-0.773 -1.058,-0.93 -0.473,-0.143 -0.944,-0.143 -1.43,-0.014 -0.215,0.042 -0.4,0.157 -0.587,0.286 -0.3,0.228 -0.514,0.585 -0.429,0.972 0.157,0.63 0.815,0.833 1.372,0.962 0.987,0.215 1.917,0.361 2.846,0.689 0.444,0.158 0.843,0.358 1.259,0.643 0.3,0.215 0.543,0.415 0.786,0.673 0.258,0.3 0.471,0.616 0.629,0.972 0.187,0.429 0.259,0.872 0.302,1.329 0.085,1.316 -0.344,2.574 -1.188,3.619 -0.314,0.371 -0.601,0.7 -0.986,0.987 -0.501,0.357 -0.971,0.615 -1.528,0.814 -0.528,0.201 -1.058,0.315 -1.617,0.372 -1.057,0.1 -2.087,0.172 -3.146,0.029 -1.071,-0.143 -2.087,-0.343 -3.045,-0.886 -0.902,-0.502 -1.567,-1.31 -1.938,-2.253 -0.316,-0.801 -0.327,-1.891 -0.068,-2.688l4.609 0 0 0zm14.86 0.093l3.184 0 -0.005 -0.029c-0.172,-1.273 -0.372,-2.518 -0.543,-3.818 -0.03,-0.244 -0.03,-0.486 -0.043,-0.73 -0.006,-0.1 0.013,-0.199 -0.014,-0.299 -0.129,0.256 -0.248,0.543 -0.391,0.8 -0.716,1.387 -1.517,2.688 -2.188,4.076l0 0zm11.632 -9.813l-4.52 19.399 -0.249 0 0.811 -4.085 -3.685 0c-0.11,-0.764 -0.228,-1.543 -0.337,-2.32l-5.4 0c-0.449,0.777 -0.899,1.535 -1.313,2.326l-4.573 0c2.96,-5.124 5.887,-10.215 8.877,-15.292 1.515,0 3.015,0 4.53,0l2.371 12.62 2.502 -12.648 0.986 0zm35.785 8.788c0.343,-0.987 0.514,-2.003 0.429,-3.046 -0.044,-0.587 -0.229,-1.13 -0.616,-1.588 -0.672,-0.758 -1.745,-0.944 -2.661,-0.586 -1.271,0.53 -2.002,1.759 -2.402,3.032 -0.328,1.044 -0.557,2.101 -0.428,3.203 0.056,0.458 0.157,0.872 0.4,1.273 0.2,0.328 0.486,0.586 0.831,0.759 0.313,0.156 0.657,0.242 0.999,0.271 0.472,0.028 0.93,-0.129 1.331,-0.358 1.13,-0.644 1.716,-1.802 2.117,-2.96l0 0zm4.389 1.675c-0.085,0.186 -0.171,0.372 -0.271,0.557 -0.172,0.372 -0.357,0.65 -0.6,1.007 -0.572,0.83 -1.202,1.43 -1.988,2.016 -0.587,0.444 -1.173,0.787 -1.845,1.031 -0.572,0.214 -1.144,0.371 -1.745,0.457 -1.029,0.157 -1.987,0.172 -3.031,-0.028 -0.759,-0.158 -1.43,-0.359 -2.102,-0.687 -0.587,-0.271 -1.116,-0.644 -1.574,-1.144 -1.072,-1.173 -1.615,-2.674 -1.658,-4.219 -0.072,-2.303 0.543,-4.453 1.931,-6.426 0.59,-0.84 1.272,-1.416 2.13,-1.974 0.572,-0.371 1.13,-0.658 1.774,-0.857 2.458,-0.744 5.119,-0.73 7.379,0.8 0.671,0.457 1.173,0.988 1.615,1.673 0.473,0.758 0.715,1.573 0.801,2.432 0.214,1.843 -0.13,3.66 -0.816,5.362zm-40.114 8.936l2.498 -10.734 2.762 6.622 5.658 0 2.578 -13.388 3.075 7.839 -1.123 5.556 4.62 0 1.101 -5.456 7.729 -9.831 -5.66 0c0,0 -3.333,4.576 -3.657,5.44l-0.027 0c-0.114,-0.962 -1.892,-5.44 -1.892,-5.44l-3.824 0 0.729 -3.998 -0.241 0 -4.216 18.592 -0.15 -0.315 3.458 -18.276 -0.271 0 -3.804 16.732 -0.138 -0.32 3.038 -16.412 -0.257 0 -3.364 14.849 -0.147 -0.338 2.629 -14.511 -0.262 0 -2.943 13.013 -0.154 -0.381 2.177 -12.627 -0.252 -0.001 -2.476 11.265 -2.641 -7.269 -0.959 0 -3.852 19.388 0.258 0.001 0 0zm-1.113 0.004l4.482 -19.402 -0.929 0 -3.792 19.402 0.239 0 0 0zm-1.143 0l4.49 -19.402 -0.952 0 -3.793 19.402 0.255 0 0 0zm-1.167 0l4.519 -19.402 -0.96 0 -3.814 19.402 0.255 0z"/>
   </g>
   <path class="fil5" d="M270.821 160.772c0,-2.249 1.818,-4.071 4.061,-4.071 2.243,0 4.061,1.822 4.061,4.071 0,2.249 -1.818,4.071 -4.061,4.071 -2.243,0 -4.061,-1.822 -4.061,-4.071zm0.279 -10.617c-0.598,0.398 -0.757,2.714 -0.757,2.714 0,0 0.159,2.315 0.757,2.714 0.597,0.399 3.782,0.639 3.782,0.639 0,0 3.185,-0.24 3.782,-0.639 0.598,-0.399 0.757,-2.714 0.757,-2.714 0,0 -0.159,-2.316 -0.757,-2.714 -0.597,-0.399 -3.782,-0.639 -3.782,-0.639 0,0 -3.185,0.24 -3.782,0.639zm3.782 -10.437l4.757 4.769 -4.757 4.768 -4.757 -4.768 4.757 -4.769zm-4.778 28.957c0,-0.463 2.139,-0.839 4.778,-0.839 2.639,0 4.777,0.376 4.777,0.839 0,0.463 -2.138,0.838 -4.777,0.838 -2.639,0 -4.778,-0.375 -4.778,-0.838zm-7.353 -33.552l0 39.75 24.498 0 0 -39.75 -24.498 0zm26.727 -2.23l0 54.576c-9.652,0 -19.304,0 -28.956,0l0 -54.576c9.652,0 19.304,0 28.956,0zm-24.395 48.174c1.602,-0.178 2.403,-0.698 2.403,-1.558 0,-0.438 -0.227,-0.795 -0.681,-1.074 -0.453,-0.279 -1.008,-0.418 -1.668,-0.418 -0.596,0 -1.084,0.123 -1.465,0.37 -0.381,0.246 -0.571,0.538 -0.571,0.876 0,0.198 0.086,0.363 0.257,0.497 0.171,0.132 0.366,0.199 0.584,0.199 0.189,0 0.359,-0.058 0.51,-0.175 0.152,-0.117 0.226,-0.273 0.226,-0.471 0,-0.2 -0.135,-0.387 -0.405,-0.559 -0.102,-0.058 -0.154,-0.115 -0.154,-0.169 0,-0.059 0.079,-0.118 0.236,-0.178 0.156,-0.06 0.324,-0.09 0.502,-0.09 0.327,0 0.558,0.104 0.693,0.313 0.135,0.207 0.202,0.534 0.202,0.976 0,0.431 -0.089,0.762 -0.267,0.994 -0.178,0.234 -0.529,0.35 -1.053,0.35l-0.514 -0.019c-0.149,0 -0.224,0.06 -0.224,0.181 0,0.105 0.072,0.157 0.214,0.157l0.705 -0.029c0.849,0 1.274,0.515 1.274,1.544 0,1.039 -0.354,1.559 -1.061,1.559 -0.216,0 -0.426,-0.031 -0.632,-0.095 -0.206,-0.064 -0.309,-0.138 -0.309,-0.222 0,-0.046 0.036,-0.087 0.109,-0.123 0.367,-0.185 0.55,-0.414 0.55,-0.688 0,-0.205 -0.078,-0.37 -0.237,-0.496 -0.157,-0.125 -0.347,-0.187 -0.568,-0.187 -0.236,0 -0.439,0.071 -0.607,0.214 -0.169,0.143 -0.254,0.332 -0.254,0.566 0,0.352 0.189,0.664 0.565,0.939 0.377,0.275 0.909,0.413 1.597,0.413 0.797,0 1.436,-0.173 1.915,-0.518 0.481,-0.345 0.721,-0.784 0.721,-1.314 0,-0.476 -0.211,-0.882 -0.633,-1.217 -0.422,-0.336 -1.076,-0.531 -1.96,-0.548zm7.988 -2.76l0.902 0c0.353,0 0.645,0.06 0.875,0.181 0.229,0.12 0.401,0.374 0.513,0.758 0.114,0.384 0.17,1.017 0.17,1.897 0,1.124 -0.091,1.919 -0.276,2.384 -0.184,0.464 -0.719,0.696 -1.605,0.696l-0.579 0 0 -5.916zm-1.79 5.916l-0.928 0 0 0.321 3.282 0c0.609,0 1.122,-0.05 1.539,-0.15 0.418,-0.099 0.825,-0.323 1.223,-0.67 0.397,-0.347 0.691,-0.732 0.883,-1.156 0.191,-0.423 0.286,-0.877 0.286,-1.358 0,-0.93 -0.313,-1.699 -0.94,-2.309 -0.627,-0.609 -1.479,-0.914 -2.554,-0.914l-3.719 0 0 0.319 0.928 0.001 0 5.916zm13.447 -2.955c0,1.023 -0.025,1.709 -0.076,2.058 -0.05,0.349 -0.177,0.6 -0.379,0.756 -0.202,0.154 -0.463,0.231 -0.783,0.231 -0.386,0 -0.669,-0.095 -0.849,-0.288 -0.18,-0.192 -0.291,-0.451 -0.333,-0.775 -0.041,-0.324 -0.062,-0.989 -0.062,-1.992 0,-1.014 0.024,-1.695 0.073,-2.044 0.049,-0.349 0.172,-0.601 0.372,-0.76 0.198,-0.157 0.464,-0.237 0.799,-0.237 0.396,0 0.681,0.098 0.854,0.293 0.173,0.196 0.28,0.453 0.322,0.773 0.041,0.319 0.062,0.981 0.062,1.985zm-4.518 -0.028c0,0.965 0.308,1.772 0.922,2.421 0.615,0.648 1.412,0.973 2.391,0.973 0.906,0 1.672,-0.305 2.3,-0.916 0.628,-0.612 0.94,-1.425 0.94,-2.439 0,-1.081 -0.331,-1.915 -0.995,-2.502 -0.663,-0.587 -1.416,-0.88 -2.257,-0.88 -0.905,0 -1.682,0.312 -2.329,0.936 -0.648,0.624 -0.972,1.427 -0.972,2.407z"/>
  </g>
  <g id="holes">
   <circle class="fil4" cx="123.209" cy="119.217" r="54.265"/>
   <circle class="fil1" cx="123.209" cy="119.217" r="51.202"/>
   <path class="fil1" d="M250.749 107.042c3.083,0 5.582,2.499 5.582,5.582 0,3.083 -2.499,5.582 -5.582,5.582l-17.136 0c-3.083,0 -5.582,-2.499 -5.582,-5.582 0,-3.083 2.499,-5.582 5.582,-5.582l17.136 0z"/>
   <path class="fil1" d="M316.388 107.042c3.083,0 5.582,2.499 5.582,5.582 0,3.083 -2.5,5.582 -5.582,5.582l-17.137 0c-3.083,0 -5.582,-2.499 -5.582,-5.582 0,-3.083 2.499,-5.582 5.582,-5.582l17.137 0z"/>
   <circle class="fil1" cx="390.902" cy="140.054" r="26.457"/>
   <circle class="fil1" cx="441.569" cy="110.225" r="26.457"/>
   <circle class="fil1" cx="498.695" cy="101.261" r="26.457"/>
  </g>
  <g id="dpad">
   <circle class="fil6" cx="123.209" cy="119.217" r="48.565"/>
   <path class="fil7 str1" d="M123.209 72.027c26.062,0 47.19,21.128 47.19,47.19 0,26.063 -21.128,47.191 -47.19,47.191 -26.063,0 -47.191,-21.128 -47.191,-47.191 0,-26.062 21.128,-47.19 47.191,-47.19z"/>
   <circle class="fil8" cx="123.209" cy="119.217" r="46.815"/>
   <path class="fil9" d="M112.376 73.665c-1.511,1.597 -2.424,3.753 -2.424,6.117l0 20.618c0,3.063 -2.498,5.56 -5.56,5.56l-20.618 0c-2.364,0 -4.52,0.913 -6.118,2.424 0.245,-1.034 0.522,-2.055 0.835,-3.061 1.568,-0.87 3.371,-1.363 5.283,-1.363l20.618 0c1.958,0 3.56,-1.602 3.56,-3.559l0 -20.619c0,-1.912 0.492,-3.714 1.363,-5.283 1.005,-0.312 2.027,-0.59 3.061,-0.834zm21.666 0c1.033,0.244 2.055,0.522 3.062,0.834 0.87,1.569 1.362,3.371 1.362,5.283l0 20.619c0,1.957 1.602,3.559 3.56,3.559l20.618 0c1.911,0 3.714,0.492 5.283,1.362 0.312,1.006 0.589,2.028 0.834,3.062 -1.598,-1.511 -3.754,-2.424 -6.117,-2.424l-20.618 0c-3.063,0 -5.56,-2.497 -5.56,-5.56l0 -20.618c0,-2.364 -0.913,-4.52 -2.424,-6.117zm34.719 56.386c-0.245,1.033 -0.522,2.054 -0.834,3.061 -1.569,0.87 -3.372,1.362 -5.283,1.362l-20.618 0c-1.969,0 -3.56,1.592 -3.56,3.56l0 20.618c0,1.912 -0.492,3.715 -1.362,5.283 -1.007,0.312 -2.029,0.59 -3.062,0.835 1.511,-1.598 2.424,-3.754 2.424,-6.118l0 -20.618c0,-3.063 2.497,-5.56 5.56,-5.56l20.618 0c2.363,0 4.519,-0.913 6.117,-2.423zm-56.385 34.719c-1.034,-0.245 -2.056,-0.523 -3.062,-0.835 -0.87,-1.568 -1.362,-3.372 -1.362,-5.283l0 -20.618c0,-1.968 -1.592,-3.56 -3.56,-3.56l-20.618 0c-1.912,0 -3.715,-0.492 -5.283,-1.362 -0.313,-1.006 -0.59,-2.027 -0.835,-3.061 1.598,1.51 3.754,2.423 6.118,2.423l20.618 0c3.062,0 5.56,2.497 5.56,5.56l0 20.618c0,2.364 0.913,4.52 2.424,6.118z"/>
   <path class="fil10" d="M134.466 158.653l-22.514 0c0,4.56 1.397,8.348 5.931,8.842 1.749,0.191 3.526,0.289 5.326,0.289 1.8,0 3.577,-0.098 5.326,-0.289 4.534,-0.494 5.931,-4.282 5.931,-8.842zm28.178 -34.32c-0.494,4.533 4.56,8.141 0,8.141l-78.87 0c-4.561,0 0.494,-3.608 0,-8.141l78.87 0z"/>
   <path class="fil11" d="M134.466 79.782l-22.514 0c0,-4.56 1.397,-8.348 5.931,-8.843 1.749,-0.191 3.526,-0.289 5.326,-0.289 1.8,0 3.577,0.099 5.326,0.289 4.534,0.495 5.931,4.283 5.931,8.843zm28.178 34.32c-0.494,-4.533 4.56,-8.142 0,-8.142l-78.87 0c-4.561,0 0.494,3.608 0,8.142l78.87 0z"/>
   <path class="fil12" d="M83.774 107.96l0 22.514c-4.561,0 -8.349,-1.397 -8.843,-5.931 -0.191,-1.748 -0.289,-3.526 -0.289,-5.326 0,-1.8 0.098,-3.577 0.289,-5.326 0.494,-4.533 4.283,-5.931 8.843,-5.931zm78.87 0l0 22.514c4.56,0 8.348,-1.397 8.843,-5.931 0.191,-1.748 0.289,-3.526 0.289,-5.326 0,-1.8 -0.098,-3.577 -0.289,-5.326 -0.495,-4.533 -4.283,-5.931 -8.843,-5.931z"/>
   <path class="fil13" d="M118.094 158.653c-4.534,-0.495 -8.142,4.559 -8.142,-0.001l0 -78.87c0,-4.56 3.608,0.494 8.142,0l0 78.871zm10.23 0c4.534,-0.495 8.142,4.559 8.142,-0.001l0 -78.87c0,-4.56 -3.608,0.494 -8.142,0l0 78.871z"/>
   <path class="fil14" d="M162.644 105.96c4.56,0 8.348,3.397 8.842,7.931l-8.841 0.941 -0.001 -8.872z"/>
   <path class="fil15" d="M162.644 132.474c4.56,0 8.348,-3.397 8.842,-7.931l-8.841 -0.94 -0.001 8.871z"/>
   <path class="fil16" d="M83.774 105.96c-4.561,0 -8.349,3.397 -8.843,7.931l8.841 0.941 0.002 -8.872z"/>
   <path class="fil17" d="M83.774 132.474c-4.561,0 -8.349,-3.397 -8.843,-7.931l8.841 -0.94 0.002 8.871z"/>
   <path class="fil18" d="M136.466 158.652c0,4.561 -3.397,8.348 -7.931,8.843l-0.94 -8.841 8.871 -0.002z"/>
   <path class="fil19" d="M109.952 158.652c0,4.561 3.397,8.348 7.931,8.843l0.94 -8.841 -8.871 -0.002z"/>
   <path class="fil20" d="M136.466 79.782c0,-4.56 -3.397,-8.348 -7.931,-8.843l-0.94 8.842 8.871 0.001z"/>
   <path class="fil21" d="M109.952 79.782c0,-4.56 3.397,-8.348 7.931,-8.843l0.94 8.842 -8.871 0.001z"/>
   <path class="fil22" d="M104.392 124.332l0 8.142c3.062,0 5.56,2.497 5.56,5.56l8.142 0c0,-7.552 -6.15,-13.702 -13.702,-13.702z"/>
   <path class="fil23" d="M142.026 124.332l0 8.142c-3.063,0 -5.56,2.497 -5.56,5.56l-8.143 0c0,-7.552 6.151,-13.702 13.703,-13.702z"/>
   <path class="fil24" d="M142.026 114.102l0 -8.142c-3.063,0 -5.56,-2.497 -5.56,-5.559l-8.143 0c0,7.551 6.151,13.701 13.703,13.701z"/>
   <path class="fil25" d="M104.392 114.102l0 -8.142c3.062,0 5.56,-2.497 5.56,-5.559l8.142 0c0,7.551 -6.15,13.701 -13.702,13.701z"/>
   <path class="fil26" d="M104.392 107.46l-20.618 0c-3.8,0 -6.943,2.81 -7.355,6.589 -0.187,1.724 -0.277,3.433 -0.277,5.168 0,1.734 0.09,3.444 0.277,5.168 0.412,3.78 3.555,6.589 7.355,6.589l20.618 0c3.882,0 7.06,3.178 7.06,7.06l0 20.618c0,3.8 2.81,6.942 6.589,7.354 1.723,0.188 3.434,0.278 5.168,0.278 1.734,0 3.445,-0.09 5.168,-0.278 3.78,-0.412 6.589,-3.554 6.589,-7.354l0 -20.618c0,-3.882 3.178,-7.06 7.06,-7.06l20.618 0c3.8,0 6.942,-2.809 7.354,-6.589 0.188,-1.724 0.278,-3.434 0.278,-5.168 0,-1.734 -0.09,-3.444 -0.278,-5.168 -0.412,-3.78 -3.554,-6.589 -7.354,-6.589l-20.618 0c-3.89,0 -7.06,-3.17 -7.06,-7.059l0 -20.619c0,-3.799 -2.81,-6.942 -6.589,-7.354 -1.724,-0.188 -3.434,-0.278 -5.168,-0.278 -1.735,0 -3.444,0.09 -5.168,0.278 -3.779,0.412 -6.589,3.554 -6.589,7.354l0 20.619c0,3.889 -3.17,7.059 -7.06,7.059z"/>
   <path class="fil27 str2" d="M104.392 107.46l-20.618 0c-3.8,0 -6.943,2.81 -7.355,6.589 -0.187,1.724 -0.277,3.433 -0.277,5.168 0,1.734 0.09,3.444 0.277,5.168 0.412,3.78 3.555,6.589 7.355,6.589l20.618 0c3.882,0 7.06,3.178 7.06,7.06l0 20.618c0,3.8 2.81,6.942 6.589,7.354 1.723,0.188 3.434,0.278 5.168,0.278 1.734,0 3.445,-0.09 5.168,-0.278 3.78,-0.412 6.589,-3.554 6.589,-7.354l0 -20.618c0,-3.882 3.178,-7.06 7.06,-7.06l20.618 0c3.8,0 6.942,-2.809 7.354,-6.589 0.188,-1.724 0.278,-3.434 0.278,-5.168 0,-1.734 -0.09,-3.444 -0.278,-5.168 -0.412,-3.78 -3.554,-6.589 -7.354,-6.589l-20.618 0c-3.89,0 -7.06,-3.17 -7.06,-7.059l0 -20.619c0,-3.799 -2.81,-6.942 -6.589,-7.354 -1.724,-0.188 -3.434,-0.278 -5.168,-0.278 -1.735,0 -3.444,0.09 -5.168,0.278 -3.779,0.412 -6.589,3.554 -6.589,7.354l0 20.619c0,3.889 -3.17,7.059 -7.06,7.059z"/>
   <circle class="fil28" cx="123.209" cy="119.217" r="9.449"/>
  </g>
  <g id="buttons">
   <path class="fil1" d="M150.468 3.58c-25.666,4.593 -50.856,10.559 -75.475,17.856 -3.84,1.139 -6.376,4.53 -6.384,8.533 10.772,-4.345 22.346,-6.99 34.347,-7.638 18.992,-4.828 38.296,-8.879 57.874,-12.113l-0.604 -1.397c-1.662,-3.847 -5.633,-5.98 -9.758,-5.241z"/>
   <path class="fil0" d="M399.532 3.58c25.666,4.593 50.856,10.559 75.475,17.856 3.84,1.139 6.376,4.53 6.384,8.533 -10.77,-4.344 -22.34,-6.989 -34.339,-7.638 -18.994,-4.83 -38.3,-8.881 -57.881,-12.116l0.603 -1.394c1.662,-3.847 5.633,-5.98 9.758,-5.241z"/>
   <path class="fil29" d="M233.612 116.901c-2.362,0 -4.277,-1.915 -4.277,-4.277 0,-2.362 1.914,-4.276 4.277,-4.276 5.712,0 11.425,0 17.137,0 2.362,0 4.277,1.914 4.277,4.276 0,2.362 -1.915,4.277 -4.277,4.277 -5.712,0 -11.425,0 -17.137,0z"/>
   <path class="fil30" d="M233.651 111.941c-0.562,0 -1.018,-0.457 -1.018,-1.019 0,-0.562 0.456,-1.018 1.018,-1.018 5.687,0 11.372,0 17.059,0 0.562,0 1.018,0.456 1.018,1.018 0,0.562 -0.456,1.019 -1.018,1.019 -5.687,0 -11.372,0 -17.059,0z"/>
   <path class="fil30" d="M233.651 111.446c-0.289,0 -0.524,-0.234 -0.524,-0.524 0,-0.289 0.234,-0.524 0.524,-0.524 5.686,0 11.373,0 17.059,0 0.289,0 0.524,0.235 0.524,0.524 0,0.29 -0.235,0.524 -0.524,0.524 -5.686,0 -11.373,0 -17.059,0z"/>
   <path class="fil29" d="M299.251 116.901c-2.362,0 -4.277,-1.915 -4.277,-4.277 0,-2.362 1.914,-4.276 4.277,-4.276 5.712,0 11.425,0 17.137,0 2.362,0 4.277,1.914 4.277,4.276 0,2.362 -1.915,4.277 -4.277,4.277 -5.712,0 -11.425,0 -17.137,0z"/>
   <path class="fil30" d="M299.29 111.941c-0.562,0 -1.018,-0.457 -1.018,-1.019 0,-0.562 0.456,-1.018 1.018,-1.018 5.687,0 11.372,0 17.059,0 0.562,0 1.018,0.456 1.018,1.018 0,0.562 -0.456,1.019 -1.018,1.019 -5.687,0 -11.372,0 -17.059,0z"/>
   <path class="fil30" d="M299.29 111.446c-0.289,0 -0.524,-0.234 -0.524,-0.524 0,-0.289 0.234,-0.524 0.524,-0.524 5.686,0 11.373,0 17.059,0 0.289,0 0.524,0.235 0.524,0.524 0,0.29 -0.235,0.524 -0.524,0.524 -5.686,0 -11.373,0 -17.059,0z"/>
   <circle class="fil31" cx="441.569" cy="110.225" r="25.134"/>
   <circle class="fil32" cx="441.569" cy="110.225" r="23.244"/>
   <path class="fil33 str3" d="M441.569 86.981c12.838,0 23.244,10.406 23.244,23.244 0,12.837 -10.406,23.244 -23.244,23.244 -12.837,0 -23.244,-10.407 -23.244,-23.244 0,-12.838 10.407,-23.244 23.244,-23.244z"/>
   <circle class="fil34" cx="441.569" cy="110.225" r="7.181"/>
   <circle class="fil31" cx="498.695" cy="101.261" r="25.134"/>
   <circle class="fil35" cx="498.695" cy="101.261" r="23.244"/>
   <path class="fil33 str3" d="M498.695 78.017c12.838,0 23.244,10.407 23.244,23.244 0,12.838 -10.406,23.245 -23.244,23.245 -12.837,0 -23.244,-10.407 -23.244,-23.245 0,-12.837 10.407,-23.244 23.244,-23.244z"/>
   <circle class="fil36" cx="390.902" cy="140.054" r="25.134"/>
   <circle class="fil37" cx="390.902" cy="140.054" r="23.244"/>
   <path class="fil33 str3" d="M390.902 116.81c12.837,0 23.244,10.407 23.244,23.244 0,12.837 -10.407,23.244 -23.244,23.244 -12.838,0 -23.245,-10.407 -23.245,-23.244 0,-12.837 10.407,-23.244 23.245,-23.244z"/>
  </g>
 </g>
</svg>
