<?xml version="1.0" encoding="UTF-8"?>
<!DOCTYPE svg PUBLIC "-//W3C//DTD SVG 1.1//EN" "http://www.w3.org/Graphics/SVG/1.1/DTD/svg11.dtd">
<svg xml:space="preserve" viewBox="0 0 980 450" width="980px" height="450px" version="1.1" style="shape-rendering:geometricPrecision; fill-rule:evenodd; clip-rule:evenodd" xmlns="http://www.w3.org/2000/svg">
 <defs>
  <style type="text/css">
    .fil0 {fill:red}
    .fil1 {fill:white}
  </style>
 </defs>
 <g>
  <path class="fil0" d="M913.607 442.74l-847.214 0c-36.023,0 -63.106,-31.935 -57.221,-67.475l44.298 -267.521c11.439,-69.084 78.134,-113.374 146.246,-97.118l188.628 45.021c3.196,0.763 6,1.093 9.286,1.093l184.74 0c3.286,0 6.09,-0.33 9.286,-1.093l188.628 -45.021c68.112,-16.256 134.807,28.034 146.246,97.118l44.298 267.521c5.885,35.54 -21.198,67.475 -57.221,67.475z"/>
  <path class="fil1" d="M490 145c55.23,0 100,44.771 100,100 0,55.23 -44.77,100.001 -100,100.001 -55.23,0 -100,-44.771 -100,-100.001 0,-55.229 44.77,-100 100,-100zm12.475 105.032c1.823,1.826 1.823,4.805 0,6.628l-9.338 9.338 3.94 3.937c1.391,1.397 1.391,3.657 0,5.053l-9.26 9.255c-8.173,8.173 -20.399,9.815 -30.205,4.93l-20.347 20.35c14.364,11.757 32.723,18.813 52.735,18.813 46.024,0 83.335,-37.311 83.335,-83.336 0,-20.012 -7.056,-38.371 -18.812,-52.735l-20.334 20.333c4.887,9.801 3.246,22.035 -4.927,30.208l-9.26 9.26c-1.391,1.393 -3.652,1.393 -5.048,0l-31.986 -31.991c-1.399,-1.391 -1.399,-3.655 0,-5.048l9.255 -9.26c8.164,-8.161 20.371,-9.812 30.167,-4.946l20.345 -20.345c-14.364,-11.757 -32.725,-18.81 -52.735,-18.81 -46.024,0 -83.335,37.31 -83.335,83.334 0,20.01 7.054,38.372 18.81,52.736l20.359 -20.357c-4.865,-9.799 -3.217,-22.011 4.945,-30.17l9.259 -9.26c1.396,-1.396 3.657,-1.396 5.048,0l3.919 3.917 9.338 -9.338c1.823,-1.823 4.807,-1.823 6.63,0 1.824,1.826 1.824,4.805 0,6.628l-9.337 9.338 10.87 10.875 9.338 -9.337c1.824,-1.824 4.807,-1.824 6.631,0z"/>
 </g>
</svg>
