<?xml version="1.0" encoding="UTF-8"?>
<!DOCTYPE svg PUBLIC "-//W3C//DTD SVG 1.1//EN" "http://www.w3.org/Graphics/SVG/1.1/DTD/svg11.dtd">
<svg xml:space="preserve" viewBox="0 0 980 450" width="980px" height="450px" version="1.1" style="shape-rendering:geometricPrecision; fill-rule:evenodd; clip-rule:evenodd" xmlns="http://www.w3.org/2000/svg">
 <defs>
  <style type="text/css">
    .fil2 {fill:#C00000}
    .fil0 {fill:#D00000}
    .fil1 {fill:red}
  </style>
 </defs>
 <g>
  <path class="fil0" d="M229.279 156.691c3.308,2.47 5.234,6.266 5.234,12.099 0,20.869 -14.246,37.868 -31.82,37.868 -17.573,0 -31.82,-16.999 -31.82,-37.868 0,-5.833 1.927,-9.629 5.235,-12.099 2.471,-0.88 4.998,-1.641 7.574,-2.276l38.022 0c2.577,0.635 5.104,1.396 7.575,2.276z"/>
  <path class="fil1" d="M202.693 152.117c6.552,0 12.915,0.8 19.005,2.298 5.034,2.16 8.16,6.332 8.16,14.375 0,20.869 -12.162,38.296 -27.165,38.296 -15.002,0 -27.165,-17.427 -27.165,-38.296 0,-8.043 3.127,-12.215 8.161,-14.375 6.089,-1.498 12.453,-2.298 19.004,-2.298z"/>
  <path class="fil2" d="M203.67 160.635l5.452 22.988c0.073,0.309 0.008,0.605 -0.189,0.854 -0.197,0.249 -0.47,0.381 -0.787,0.381l-10.905 0c-0.317,0 -0.59,-0.132 -0.787,-0.381 -0.197,-0.249 -0.262,-0.545 -0.189,-0.854l5.452 -22.988c0.109,-0.458 0.506,-0.772 0.976,-0.772 0.471,0 0.868,0.314 0.977,0.772z"/>
 </g>
</svg>
