<?xml version="1.0" encoding="UTF-8"?>
<!DOCTYPE svg PUBLIC "-//W3C//DTD SVG 1.1//EN" "http://www.w3.org/Graphics/SVG/1.1/DTD/svg11.dtd">
<svg xml:space="preserve" viewBox="0 0 980 450" width="980px" height="450px" version="1.1" style="shape-rendering:geometricPrecision; fill-rule:evenodd; clip-rule:evenodd" xmlns="http://www.w3.org/2000/svg">
 <defs>
  <style type="text/css">
    .fil2 {fill:#C00000}
    .fil0 {fill:#D00000}
    .fil1 {fill:red}
  </style>
 </defs>
 <g>
  <path class="fil0" d="M127.995 204.803c2.471,-3.307 6.267,-5.234 12.1,-5.234 20.868,0 37.868,14.246 37.868,31.82 0,17.573 -17,31.82 -37.868,31.82 -5.833,0 -9.629,-1.927 -12.1,-5.235 -0.879,-2.47 -1.64,-4.998 -2.275,-7.574l0 -38.022c0.635,-2.577 1.396,-5.104 2.275,-7.575z"/>
  <path class="fil1" d="M123.421 231.389c0,-6.552 0.801,-12.915 2.299,-19.004 2.16,-5.035 6.332,-8.161 14.375,-8.161 20.868,0 38.296,12.162 38.296,27.165 0,15.003 -17.428,27.165 -38.296,27.165 -8.043,0 -12.215,-3.126 -14.375,-8.161 -1.498,-6.089 -2.299,-12.453 -2.299,-19.004z"/>
  <path class="fil2" d="M131.94 230.413l22.988 -5.453c0.309,-0.073 0.605,-0.007 0.854,0.189 0.249,0.197 0.381,0.47 0.381,0.787l0 10.905c0,0.318 -0.132,0.59 -0.381,0.787 -0.249,0.197 -0.545,0.263 -0.854,0.189l-22.988 -5.452c-0.458,-0.108 -0.772,-0.506 -0.772,-0.976 0,-0.471 0.314,-0.868 0.772,-0.976z"/>
 </g>
</svg>
