<?xml version="1.0" encoding="UTF-8"?>
<!DOCTYPE svg PUBLIC "-//W3C//DTD SVG 1.1//EN" "http://www.w3.org/Graphics/SVG/1.1/DTD/svg11.dtd">
<svg xml:space="preserve" viewBox="0 0 498 522" width="498px" height="522px" version="1.1" style="shape-rendering:geometricPrecision; fill-rule:evenodd; clip-rule:evenodd" xmlns="http://www.w3.org/2000/svg" xmlns:xlink="http://www.w3.org/1999/xlink">
 <defs>
  <style type="text/css">
    .fil4 {fill:#101010}
    .fil20 {fill:#1F1F1F}
    .fil17 {fill:#202020}
    .fil19 {fill:#303030}
    .fil15 {fill:#383838}
    .fil21 {fill:#444444}
    .fil14 {fill:#4D4D4D}
    .fil16 {fill:#E6E6E6}
    .fil10 {fill:black;fill-opacity:0.2}
    .fil24 {fill:white;fill-opacity:0.25}
    .fil1 {fill:black;fill-opacity:0.4}
    .fil2 {fill:url(#id0)}
    .fil0 {fill:url(#id1)}
    .fil5 {fill:url(#id2)}
    .fil13 {fill:url(#id3)}
    .fil11 {fill:url(#id4)}
    .fil7 {fill:url(#id5)}
    .fil18 {fill:url(#id6)}
    .fil8 {fill:url(#id7)}
    .fil22 {fill:url(#id8)}
    .fil23 {fill:url(#id9)}
    .fil6 {fill:url(#id10)}
    .fil9 {fill:url(#id11)}
    .fil3 {fill:url(#id12)}
    .fil12 {fill:url(#id13);fill-opacity:0.15}
    .shd0 {filter: drop-shadow(0px 1px .5px rgba(0, 0, 0, 0.4)) drop-shadow(0px 0px .5px rgba(0, 0, 0, 0.4))}
  </style>
  <linearGradient id="id0" gradientUnits="userSpaceOnUse" x1="249" y1="479.082" x2="249" y2="1.631">
   <stop offset="0" style="stop-opacity:1; stop-color:#1A1A1A"/>
   <stop offset="0.45" style="stop-opacity:1; stop-color:#333333"/>
   <stop offset="1" style="stop-opacity:1; stop-color:#4D4D4D"/>
  </linearGradient>
  <linearGradient id="id1" gradientUnits="userSpaceOnUse" xlink:href="#id0" x1="249" y1="520.359" x2="249" y2="240.356">
  </linearGradient>
  <linearGradient id="id2" gradientUnits="userSpaceOnUse" x1="89.705" y1="219.227" x2="89.705" y2="105.841">
   <stop offset="0" style="stop-opacity:1; stop-color:#141414"/>
   <stop offset="1" style="stop-opacity:1; stop-color:#3D3D3D"/>
  </linearGradient>
  <linearGradient id="id3" gradientUnits="userSpaceOnUse" x1="259.102" y1="414.745" x2="259.102" y2="399.626">
   <stop offset="0" style="stop-opacity:1; stop-color:#181818"/>
   <stop offset="0.3" style="stop-opacity:1; stop-color:#333333"/>
   <stop offset="0.65" style="stop-opacity:1; stop-color:#4D4D4D"/>
   <stop offset="1" style="stop-opacity:1; stop-color:#333333"/>
  </linearGradient>
  <linearGradient id="id4" gradientUnits="userSpaceOnUse" x1="240.205" y1="407.185" x2="278" y2="407.185">
   <stop offset="0" style="stop-opacity:1; stop-color:#282828"/>
   <stop offset="0.2" style="stop-opacity:1; stop-color:#282828"/>
   <stop offset="0.4" style="stop-opacity:1; stop-color:#101010"/>
   <stop offset="0.6" style="stop-opacity:1; stop-color:#101010"/>
   <stop offset="0.8" style="stop-opacity:1; stop-color:#282828"/>
   <stop offset="1" style="stop-opacity:1; stop-color:#282828"/>
  </linearGradient>
  <linearGradient id="id5" gradientUnits="userSpaceOnUse" x1="249" y1="378.859" x2="249" y2="322.166">
   <stop offset="0" style="stop-opacity:1; stop-color:#606060"/>
   <stop offset="0.8" style="stop-opacity:1; stop-color:#101010"/>
   <stop offset="1" style="stop-opacity:1; stop-color:#101010"/>
  </linearGradient>
  <linearGradient id="id6" gradientUnits="userSpaceOnUse" x1="145.012" y1="340.689" x2="145.012" y2="253.967">
   <stop offset="0" style="stop-opacity:1; stop-color:#3D3D3D"/>
   <stop offset="0.5" style="stop-opacity:1; stop-color:#333333"/>
   <stop offset="1" style="stop-opacity:1; stop-color:#292929"/>
  </linearGradient>
  <linearGradient id="id7" gradientUnits="userSpaceOnUse" x1="249" y1="377.348" x2="249" y2="323.678">
   <stop offset="0" style="stop-opacity:1; stop-color:#404040"/>
   <stop offset="1" style="stop-opacity:1; stop-color:#181818"/>
  </linearGradient>
  <linearGradient id="id8" gradientUnits="userSpaceOnUse" x1="145.012" y1="340.689" x2="145.012" y2="253.966">
   <stop offset="0" style="stop-opacity:1; stop-color:#444444"/>
   <stop offset="0.5" style="stop-opacity:1; stop-color:#3A3A3A"/>
   <stop offset="1" style="stop-opacity:1; stop-color:#444444"/>
  </linearGradient>
  <linearGradient id="id9" gradientUnits="userSpaceOnUse" x1="145.012" y1="305.359" x2="145.012" y2="291.079">
   <stop offset="0" style="stop-opacity:1; stop-color:#666666"/>
   <stop offset="0.35" style="stop-opacity:1; stop-color:#3B3B3B"/>
   <stop offset="1" style="stop-opacity:1; stop-color:#101010"/>
  </linearGradient>
  <linearGradient id="id10" gradientUnits="userSpaceOnUse" x1="145.013" y1="361.579" x2="145.013" y2="233.076">
   <stop offset="0" style="stop-opacity:1; stop-color:#4D4D4D"/>
   <stop offset="1" style="stop-opacity:1; stop-color:#1A1A1A"/>
  </linearGradient>
  <linearGradient id="id11" gradientUnits="userSpaceOnUse" x1="238.549" y1="412.763" x2="238.549" y2="401.608">
   <stop offset="0" style="stop-opacity:1; stop-color:#4D4D4D"/>
   <stop offset="0.3" style="stop-opacity:1; stop-color:#333333"/>
   <stop offset="0.7" style="stop-opacity:1; stop-color:#101010"/>
   <stop offset="1" style="stop-opacity:1; stop-color:#101010"/>
  </linearGradient>
  <linearGradient id="id12" gradientUnits="userSpaceOnUse" x1="68.453" y1="230.629" x2="68.453" y2="90.643">
   <stop offset="0" style="stop-opacity:1; stop-color:#1A1A1A"/>
   <stop offset="1" style="stop-opacity:1; stop-color:#666666"/>
  </linearGradient>
  <linearGradient id="id13" gradientUnits="userSpaceOnUse" x1="259.102" y1="414.745" x2="259.102" y2="399.626">
   <stop offset="0" style="stop-opacity:1; stop-color:black"/>
   <stop offset="0.3" style="stop-opacity:1; stop-color:black"/>
   <stop offset="0.7" style="stop-opacity:1; stop-color:#999999"/>
   <stop offset="1" style="stop-opacity:1; stop-color:white"/>
  </linearGradient>
 </defs>
 <g>
  <g id="shell">
   <path class="fil0" d="M154.392 473.251c-3.414,10.132 -6.147,20.562 -8.147,31.239 -1.484,7.924 -8.084,13.594 -16.141,13.867l-59.027 2.002c-7.32,0.248 -13.7,-3.933 -16.393,-10.744 -33.831,-85.56 -52.029,-175.871 -52.029,-269.259l492.69 0c0,93.388 -18.198,183.699 -52.029,269.259 -2.693,6.811 -9.073,10.992 -16.393,10.744l-59.027 -2.002c-8.057,-0.273 -14.657,-5.943 -16.141,-13.867 -2,-10.677 -4.733,-21.107 -8.147,-31.239 -1.99,-5.908 -8.422,-9.11 -14.335,-7.135l-80.273 -225.76 -80.273 225.76c-5.913,-1.975 -12.345,1.227 -14.335,7.135z"/>
   <path class="fil1" d="M492.903 299.436c-11.196,43.587 -34.491,82.537 -66.234,113.299 -24.544,23.784 -54.134,42.669 -87.073,55.021 -2.873,-2.114 -6.696,-2.851 -10.323,-1.64l-1.674 -4.707c35.062,-11.685 66.468,-30.967 92.117,-55.823 43.638,-42.288 70.629,-100.706 70.629,-165.23l5 0c0,19.838 -0.825,39.536 -2.442,59.08zm-334.498 168.32c-32.94,-12.352 -62.53,-31.237 -87.074,-55.021 -31.743,-30.762 -55.038,-69.712 -66.234,-113.299 -1.617,-19.544 -2.442,-39.242 -2.442,-59.08l5 0c0,64.524 26.991,122.942 70.629,165.23 25.649,24.856 57.055,44.138 92.117,55.823l-1.674 4.707c-3.627,-1.211 -7.45,-0.474 -10.322,1.64z"/>
   <path class="fil2" d="M249 1.631c136.053,0 246.345,106.88 246.345,238.725 0,131.845 -110.292,238.726 -246.345,238.726 -136.053,0 -246.345,-106.881 -246.345,-238.726 0,-9.184 0.538,-18.247 1.581,-27.161 2.686,-22.938 3.757,-42.633 3.574,-65.728 -0.001,-0.138 -0.002,-0.277 -0.002,-0.416 0,-17.77 9.011,-33.436 22.713,-42.678 19.534,-13.175 35.471,-25.462 53.18,-41.006 43.705,-38.364 101.683,-61.736 165.299,-61.736z"/>
   <path class="fil3" d="M86.558 90.642c37.472,0 68.066,29.447 69.905,66.462 -2.764,-34.451 -31.596,-61.548 -66.758,-61.548 -36.992,0 -66.979,29.987 -66.979,66.978 0,36.991 29.987,66.979 66.979,66.979 9.305,0 18.166,-1.899 26.218,-5.328 -8.93,4.133 -18.877,6.444 -29.365,6.444 -38.656,0 -69.993,-31.337 -69.993,-69.993 0,-38.657 31.337,-69.994 69.993,-69.994z"/>
   <circle class="fil4" cx="89.705" cy="162.534" r="58.583"/>
   <circle class="fil5" cx="89.705" cy="162.534" r="56.693"/>
   <circle class="fil6" cx="145.013" cy="297.328" r="64.252"/>
   <circle class="fil7" cx="249" cy="350.513" r="28.346"/>
   <circle class="fil8" cx="249" cy="350.513" r="26.835"/>
   <path class="fil9" d="M238.898 399.626c-10.437,0 -18.898,3.385 -18.898,7.559 0,4.175 8.461,7.56 18.898,7.56l20.204 0c10.437,0 18.898,-3.385 18.898,-7.56 0,-4.174 -8.461,-7.559 -18.898,-7.559l-20.204 0zm0 -1l20.204 0c5.343,0 10.201,0.875 13.734,2.288 3.808,1.524 6.164,3.735 6.164,6.271 0,2.537 -2.356,4.748 -6.164,6.271 -3.533,1.414 -8.391,2.289 -13.734,2.289l-20.204 0c-5.343,0 -10.201,-0.875 -13.734,-2.289 -3.808,-1.523 -6.164,-3.734 -6.164,-6.271 0,-2.536 2.356,-4.747 6.164,-6.271 3.533,-1.413 8.391,-2.288 13.734,-2.288z"/>
   <path class="fil10" d="M238.898 399.626c-10.437,0 -18.898,3.385 -18.898,7.559 0,4.175 8.461,7.56 18.898,7.56l20.204 0c-10.436,0 -18.897,-3.385 -18.897,-7.56 0,-4.174 8.461,-7.559 18.897,-7.559l-20.204 0z"/>
   <g>
    <ellipse class="fil11" cx="259.102" cy="407.185" rx="18.898" ry="7.559"/>
    <path class="fil12" d="M259.102 399.626c10.437,0 18.898,3.385 18.898,7.559 0,4.175 -8.461,7.56 -18.898,7.56 -10.436,0 -18.897,-3.385 -18.897,-7.56 0,-4.174 8.461,-7.559 18.897,-7.559zm12.992 3.14c-3.305,-1.321 -7.898,-2.14 -12.992,-2.14 -5.094,0 -9.686,0.819 -12.991,2.14 -3.031,1.213 -4.906,2.782 -4.906,4.419 0,1.638 1.875,3.207 4.906,4.419 3.305,1.322 7.897,2.14 12.991,2.14 5.094,0 9.687,-0.818 12.992,-2.14 3.031,-1.212 4.906,-2.781 4.906,-4.419 0,-1.637 -1.875,-3.206 -4.906,-4.419z"/>
    <path class="fil13" d="M266.762 414.097c-0.952,0.169 -1.843,-0.054 -2.588,-0.649 -0.744,-0.594 -1.135,-1.394 -1.135,-2.324l0 -7.877c0,-0.93 0.391,-1.73 1.135,-2.324 0.745,-0.595 1.636,-0.818 2.588,-0.649 -2.342,-0.416 -4.933,-0.648 -7.66,-0.648 -2.727,0 -5.318,0.232 -7.659,0.648 0.952,-0.169 1.843,0.054 2.587,0.649 0.744,0.594 1.135,1.394 1.135,2.324l0 7.877c0,0.93 -0.391,1.73 -1.135,2.324 -0.744,0.595 -1.635,0.818 -2.587,0.649 2.341,0.416 4.932,0.648 7.659,0.648 2.727,0 5.318,-0.232 7.66,-0.648z"/>
   </g>
   <path id="press-start" class="fil14 shd0" d="M234.951 317.135c-0.362,0 -0.731,-0.03 -1.107,-0.088 -0.376,-0.059 -0.743,-0.15 -1.101,-0.272 -0.357,-0.123 -0.698,-0.277 -1.023,-0.464 -0.326,-0.187 -0.616,-0.411 -0.872,-0.672l0.968 -0.984c0.197,0.197 0.42,0.365 0.667,0.504 0.248,0.138 0.51,0.252 0.785,0.34 0.274,0.087 0.556,0.152 0.844,0.192 0.287,0.039 0.568,0.06 0.839,0.06 0.401,0 0.749,-0.015 1.045,-0.044 0.296,-0.029 0.537,-0.092 0.724,-0.188 0.229,-0.112 0.36,-0.237 0.391,-0.372 0.032,-0.136 -0.035,-0.262 -0.203,-0.376 -0.168,-0.115 -0.435,-0.211 -0.8,-0.288 -0.365,-0.077 -0.831,-0.114 -1.397,-0.108 -0.48,-0.016 -0.912,-0.074 -1.296,-0.172 -0.383,-0.099 -0.713,-0.231 -0.987,-0.396 -0.275,-0.165 -0.496,-0.355 -0.66,-0.568 -0.166,-0.213 -0.267,-0.446 -0.304,-0.696 0.01,-0.31 0.09,-0.586 0.24,-0.828 0.149,-0.243 0.358,-0.447 0.628,-0.612 0.269,-0.166 0.59,-0.291 0.964,-0.376 0.373,-0.086 0.789,-0.128 1.248,-0.128 0.304,0 0.617,0.02 0.94,0.06 0.322,0.039 0.646,0.108 0.972,0.204 0.325,0.096 0.645,0.223 0.96,0.38 0.314,0.157 0.618,0.353 0.912,0.588l-0.992 1c-0.214,-0.176 -0.437,-0.319 -0.668,-0.428 -0.232,-0.109 -0.469,-0.195 -0.709,-0.256 -0.239,-0.061 -0.478,-0.105 -0.715,-0.128 -0.237,-0.024 -0.471,-0.037 -0.7,-0.037 -0.214,0 -0.421,0.016 -0.621,0.045 -0.199,0.029 -0.377,0.069 -0.531,0.12 -0.155,0.05 -0.281,0.108 -0.376,0.171 -0.096,0.064 -0.144,0.131 -0.144,0.201 -0.006,0.122 0.157,0.225 0.488,0.308 0.33,0.082 0.8,0.137 1.407,0.164 0.641,0.026 1.186,0.084 1.637,0.172 0.45,0.088 0.817,0.215 1.1,0.38 0.282,0.164 0.488,0.372 0.615,0.62 0.128,0.247 0.192,0.54 0.192,0.876 0,0.261 -0.072,0.517 -0.215,0.768 -0.144,0.25 -0.358,0.475 -0.64,0.672 -0.283,0.197 -0.634,0.356 -1.052,0.476 -0.419,0.119 -0.903,0.18 -1.453,0.18zm10.633 -4.92l-2.984 0 0 4.696 -1.392 0 0 -4.696 -2.993 0 0 -1.385 7.369 0 0 1.385zm3.88 -1.385l3.856 6.081 -1.656 0 -0.712 -1.112 -3.84 0 -0.72 1.112 -1.656 0 3.856 -6.081 0.872 0zm-1.48 3.569l2.088 0c-0.096,-0.144 -0.181,-0.275 -0.252,-0.392 -0.072,-0.117 -0.146,-0.237 -0.22,-0.356 -0.075,-0.12 -0.157,-0.252 -0.244,-0.396 -0.088,-0.144 -0.197,-0.318 -0.324,-0.52l-1.048 1.664zm6.408 2.512l-1.408 0 0 -6.081 4.44 0c0.336,0 0.64,0.051 0.912,0.153 0.271,0.101 0.505,0.244 0.7,0.428 0.194,0.184 0.344,0.404 0.448,0.66 0.103,0.255 0.156,0.541 0.156,0.856 0,0.464 -0.103,0.861 -0.308,1.192 -0.206,0.33 -0.484,0.586 -0.836,0.768 0.08,0.16 0.168,0.337 0.264,0.532 0.095,0.194 0.192,0.386 0.288,0.576 0.096,0.189 0.185,0.365 0.268,0.528 0.082,0.162 0.148,0.292 0.196,0.388l-1.56 0 -0.976 -1.872 -2.584 0 0 1.872zm0 -3.28l3.032 0c0.25,0 0.45,-0.062 0.6,-0.185 0.149,-0.123 0.224,-0.298 0.224,-0.523 0,-0.215 -0.075,-0.387 -0.224,-0.515 -0.15,-0.129 -0.35,-0.193 -0.6,-0.193l-3.032 0 0 1.416zm12.592 -1.416l-2.984 0 0 4.696 -1.392 0 0 -4.696 -2.992 0 0 -1.385 7.368 0 0 1.385z"/>
   <path id="press-dpad-stick" class="fil15 shd0" d="M294.305 400.516c3.678,0 6.669,2.991 6.669,6.669 0,3.684 -2.986,6.67 -6.669,6.67 -3.678,0 -6.67,-2.991 -6.67,-6.67 0,-3.677 2.993,-6.669 6.67,-6.669zm0 2c-2.584,0 -4.669,2.085 -4.669,4.669 0,2.583 2.086,4.67 4.669,4.67 2.579,0 4.669,-2.09 4.669,-4.67 0,-2.582 -2.086,-4.669 -4.669,-4.669zm-91.61 -2l2 0 0 5.669 5.67 0 0 2.001 -5.67 0 0 5.669 -2 0 0 -5.669 -5.669 0 0 -2.001 5.669 0 0 -5.669z"/>
   <path class="fil16" d="M233.257 58.743c-0.025,0.368 -0.038,0.738 -0.038,1.113 0,0.414 0.015,0.825 0.046,1.231l0.746 0.757c-0.168,0.045 -0.333,0.089 -0.493,0.131l-0.183 -0.185c0.009,0.075 0.018,0.15 0.028,0.225 -2.651,0.686 -4.159,0.859 -4.978,0.784 -0.587,-0.054 -0.729,-0.6 -0.554,-0.931 0.061,-0.122 0.142,-0.25 0.236,-0.392 0.859,-1.231 2.716,-2.592 5.322,-3.96 -0.029,0.198 -0.055,0.397 -0.076,0.597l3.043 3.076c-0.184,0.054 -0.366,0.107 -0.547,0.158 -0.859,-0.875 -1.731,-1.765 -2.552,-2.604zm4.043 6.435l10.509 10.652c0.477,0.043 0.961,0.066 1.449,0.066 0.318,0 0.635,-0.011 0.949,-0.029 -3.327,-3.38 -7.785,-7.897 -8.996,-9.071 -0.425,-0.412 -1.193,-1.18 -2.143,-2.14 0.182,-0.054 0.366,-0.11 0.55,-0.167l11.206 11.331c0.679,-0.066 1.345,-0.174 1.996,-0.322 -3.4,-3.409 -8.694,-8.71 -10.022,-9.999 -0.332,-0.319 -0.866,-0.853 -1.529,-1.525 0.214,-0.068 0.43,-0.137 0.646,-0.205l11.503 11.581c0.582,-0.156 1.152,-0.343 1.707,-0.561 -3.373,-3.334 -9.329,-9.217 -10.741,-10.585 -0.226,-0.219 -0.545,-0.538 -0.934,-0.932 0.25,-0.081 0.501,-0.163 0.753,-0.246l11.486 11.528c0.507,-0.223 1.001,-0.47 1.48,-0.742 -3.324,-3.242 -9.728,-9.486 -11.192,-10.905 -0.1,-0.097 -0.219,-0.214 -0.354,-0.349 0.286,-0.095 0.573,-0.19 0.861,-0.286l11.213 11.226c0.447,-0.277 0.878,-0.575 1.293,-0.892 -3.164,-3.044 -9.34,-8.984 -11.189,-10.772l0.364 -0.121 0.584 -0.196 10.731 10.7c0.39,-0.322 0.764,-0.663 1.122,-1.021 -2.934,-2.782 -8.293,-7.866 -10.616,-10.09 0.344,-0.115 0.689,-0.229 1.033,-0.343l10.029 9.967c0.333,-0.361 0.649,-0.737 0.948,-1.127 -2.771,-2.595 -7.34,-6.877 -9.817,-9.222 0.377,-0.124 0.753,-0.247 1.129,-0.368l9.107 9.018c0.276,-0.395 0.535,-0.802 0.775,-1.221 -2.588,-2.389 -6.367,-5.884 -8.792,-8.15 0.405,-0.13 0.809,-0.258 1.209,-0.384l7.953 7.847 -0.011 0.022c3.968,-1.846 7.02,-3.857 8.804,-5.851 1.62,-1.796 2.288,-3.632 1.991,-5.448 -0.189,-1.195 -0.844,-2.16 -1.883,-2.788 -1.992,-1.204 -5.338,-1.031 -10.081,0.077 -0.971,-0.863 -1.724,-1.545 -2.105,-1.914 -0.981,-0.952 -3.491,-3.812 -5.862,-6.559 -0.68,-0.23 -1.38,-0.415 -2.098,-0.554l9.417 9.182c-0.557,0.137 -1.133,0.286 -1.728,0.445 -0.584,-0.53 -1.039,-0.949 -1.308,-1.21 -1.237,-1.201 -4.921,-5.405 -7.703,-8.616 -0.57,-0.061 -1.149,-0.093 -1.735,-0.093 -0.091,0 -0.182,0.002 -0.272,0.003l10.334 10.103c-0.526,0.146 -1.067,0.3 -1.622,0.462 -0.247,-0.23 -0.448,-0.421 -0.595,-0.563 -1.418,-1.372 -6.125,-6.721 -8.959,-9.966 -0.641,0.044 -1.271,0.126 -1.889,0.243l10.705 10.504c-0.491,0.146 -0.993,0.298 -1.505,0.456 -1.648,-1.612 -7.171,-7.846 -9.805,-10.834 -0.603,0.138 -1.194,0.312 -1.769,0.517l10.749 10.573c-0.448,0.14 -0.903,0.283 -1.367,0.431 -2.302,-2.392 -7.705,-8.439 -9.839,-10.834 -0.557,0.217 -1.099,0.466 -1.624,0.742l10.531 10.391c-0.406,0.13 -0.818,0.264 -1.235,0.4 -2.693,-2.838 -7.933,-8.643 -9.68,-10.582 -0.505,0.283 -0.993,0.593 -1.462,0.927l10.096 9.997c-0.368,0.121 -0.74,0.243 -1.116,0.368 -2.901,-3.061 -7.803,-8.435 -9.327,-10.11 -0.451,0.341 -0.884,0.705 -1.296,1.089l9.463 9.405c-0.304,0.101 -0.61,0.203 -0.919,0.306l-0.069 0.023c-2.905,-3.06 -7.261,-7.777 -8.788,-9.433 -0.397,0.392 -0.775,0.804 -1.131,1.235l8.646 8.622c-0.296,0.098 -0.59,0.195 -0.883,0.292 -2.736,-2.872 -6.421,-6.813 -8.048,-8.556 -0.342,0.441 -0.661,0.9 -0.957,1.376l7.627 7.634c-0.267,0.087 -0.533,0.173 -0.796,0.259 -2.434,-2.54 -5.411,-5.689 -7.088,-7.465 -0.073,0.126 -0.146,0.254 -0.215,0.384 -4.308,1.847 -8.481,4.215 -10.393,6.966 -1.553,2.234 -1.283,4.145 -0.777,5.353 1.269,3.072 5.603,2.525 9.688,1.593 0.245,-0.056 0.494,-0.116 0.746,-0.178 0.611,1.484 1.437,2.856 2.439,4.077 -2.499,0.226 -4.853,0.293 -6.959,0.186 -1.128,-0.061 -2.086,0.817 -2.127,1.944 -0.04,1.12 0.844,2.045 1.958,2.099 0.736,0.034 1.492,0.054 2.268,0.054 2.794,0 5.844,-0.236 9.022,-0.69 1.096,0.658 2.278,1.189 3.524,1.572 0.843,0.259 1.715,0.449 2.612,0.567 -3.041,-3.126 -6.483,-6.651 -7.529,-7.666 -0.519,-0.502 -1.546,-1.526 -2.796,-2.781 0.156,-0.044 0.313,-0.088 0.471,-0.133zm27.882 -3.389c0.024,-0.202 0.045,-0.405 0.062,-0.61 -1.334,-1.188 -2.727,-2.433 -3.988,-3.565 0.498,-0.133 0.984,-0.257 1.459,-0.373l2.582 2.523c-0.003,-0.464 -0.025,-0.923 -0.067,-1.376 -0.524,-0.463 -1.046,-0.924 -1.554,-1.374 3.6,-0.815 5.322,-0.796 6.118,-0.662 0.392,0.068 0.621,0.473 0.493,0.844 -0.189,0.547 -0.621,1.087 -0.918,1.418 -0.932,1.038 -2.361,2.113 -4.187,3.175zm-4.886 -3.913l4.774 4.684 -0.218 1.063c-1.918,-1.728 -4.115,-3.711 -5.924,-5.357 0.463,-0.135 0.919,-0.265 1.368,-0.39zm-2.365 0.685l6.53 6.423 -0.31 0.839c-2.323,-2.118 -5.31,-4.846 -7.507,-6.87 0.434,-0.134 0.862,-0.265 1.287,-0.392zm-23.347 -5.189l6.381 6.404c-0.235,0.075 -0.469,0.149 -0.701,0.223 -2.018,-2.091 -4.297,-4.473 -5.887,-6.138l0.207 -0.489zm-0.791 2.218l4.873 4.907c-0.206,0.064 -0.411,0.126 -0.615,0.188 -1.497,-1.538 -3.083,-3.177 -4.4,-4.54l0.142 -0.555zm23.442 -9.653c4.069,-0.674 7.76,-1 10.561,-0.893 1.12,0.041 1.991,0.979 1.944,2.1 -0.04,1.127 -0.979,1.998 -2.099,1.951 -1.731,-0.067 -3.846,0.049 -6.202,0.325 0.552,0.645 1.055,1.334 1.501,2.062l-5.709 -5.547 0.004 0.002zm57.071 35.284c-0.707,0 -1.278,0.571 -1.278,1.277l0 7.278 -7.314 -8.132c-0.355,-0.397 -0.913,-0.531 -1.408,-0.338 -0.495,0.189 -0.819,0.666 -0.819,1.192l0 10.618c0,0.706 0.572,1.278 1.278,1.278 0.707,0 1.278,-0.572 1.278,-1.278l0 -7.278 7.313 8.132c0.248,0.275 0.595,0.424 0.95,0.424 0.153,0 0.311,-0.027 0.459,-0.086 0.495,-0.189 0.819,-0.666 0.819,-1.192l0 -10.618c0,-0.706 -0.571,-1.277 -1.278,-1.277zm-15.437 8.127c-0.085,-0.08 -0.036,-0.229 0.086,-0.238 2.372,-0.149 3.078,-1.926 3.2,-3.438 0,-0.005 0,-0.01 0,-0.014 0.076,-1.071 -0.342,-2.209 -1.117,-3.042 -0.602,-0.648 -1.705,-1.418 -3.55,-1.418 -1.369,0 -2.908,0.023 -4.217,0.063 -2.152,0.067 -2.305,0.122 -2.507,0.198 -0.513,0.185 -0.855,0.671 -0.855,1.215l0 10.369c0,0.738 0.617,1.333 1.359,1.297 0.698,-0.032 1.237,-0.635 1.237,-1.333l0.001 -9.118c1.138,-0.045 3.024,-0.094 4.982,-0.094 0.729,0 1.282,0.198 1.647,0.589 0.369,0.397 0.441,0.864 0.427,1.085 -0.031,0.401 -0.139,1.584 -2.263,1.584l-1.112 0c-0.571,0 -1.102,0.324 -1.332,0.846 -0.243,0.554 -0.113,1.193 0.329,1.603l4.887 4.581c0.252,0.234 0.571,0.351 0.887,0.351 0.346,0 0.693,-0.14 0.949,-0.409 0.491,-0.522 0.464,-1.346 -0.058,-1.837l-2.98 -2.84zm-11.597 -8.708c-0.707,0 -1.279,0.572 -1.279,1.278l0 7.894c0,1.22 -1.737,2.291 -3.722,2.291 -1.98,0 -3.721,-1.071 -3.721,-2.291l0 -7.894c0,-0.706 -0.572,-1.278 -1.279,-1.278 -0.706,0 -1.278,0.572 -1.278,1.278l0 7.894c0,1.355 0.729,2.655 1.999,3.56 1.156,0.828 2.677,1.283 4.275,1.283 1.598,0 3.114,-0.455 4.275,-1.283 1.27,-0.905 1.999,-2.205 1.999,-3.56l0 -7.894c0.009,-0.706 -0.563,-1.278 -1.269,-1.278zm-13.448 0.558l-8.636 0c-0.716,0 -1.301,0.581 -1.301,1.3 0,0.716 0.58,1.301 1.301,1.301l3.019 0 0 9.317c0,0.715 0.581,1.3 1.301,1.3 0.72,0 1.3,-0.58 1.3,-1.3l0 -9.317 3.02 0c0.716,0 1.301,-0.58 1.301,-1.301 -0.005,-0.715 -0.585,-1.3 -1.305,-1.3zm-11.305 1.98c-0.671,-1.372 -1.976,-2.565 -3.403,-2.565 -1.426,0 -2.732,1.193 -3.402,2.565 -1.17,2.386 -2.278,5.477 -3.385,9.456 -0.193,0.702 0.217,1.427 0.914,1.62 0.117,0.032 0.239,0.05 0.356,0.05 0.576,0 1.107,-0.383 1.269,-0.963 0.243,-0.878 0.491,-1.706 0.733,-2.494l7.035 0c0.243,0.788 0.486,1.616 0.733,2.494 0.194,0.702 0.923,1.111 1.62,0.913 0.703,-0.193 1.112,-0.922 0.914,-1.62 -1.112,-3.979 -2.218,-7.07 -3.384,-9.456zm-6.058 5.073c0.535,-1.495 1.071,-2.795 1.62,-3.912 0.234,-0.477 0.612,-1.089 1.035,-1.089 0.428,0 0.806,0.612 1.04,1.089 0.549,1.121 1.084,2.417 1.62,3.912l-5.315 0 0 0zm-4.28 1.854c-0.171,-2.111 -1.877,-3.718 -3.924,-3.718 -0.045,0 -0.086,0 -0.131,0l-1.184 0c-0.009,0 -0.018,0 -0.022,0l-2.876 0 -0.054 0c-0.72,0.027 -1.328,-0.549 -1.391,-1.318 -0.04,-0.599 0.252,-1.197 0.631,-1.283l0.071 -0.018c1.693,-0.482 5.302,-0.356 6.566,0.104 0.676,0.243 1.418,-0.109 1.661,-0.784 0.243,-0.675 -0.108,-1.418 -0.783,-1.661 -1.863,-0.67 -6.021,-0.751 -8.128,-0.162 -1.624,0.388 -2.749,2.098 -2.61,3.997l0 0.014c0.171,2.11 1.877,3.717 3.925,3.717 0.045,0 0.085,0 0.13,0l1.184 0c0.009,0 0.018,0 0.022,0l2.876 0 0.054 0c0.72,-0.027 1.327,0.549 1.39,1.319 0.041,0.599 -0.251,1.197 -0.629,1.282l-0.072 0.018c-1.693,0.482 -5.302,0.356 -6.567,-0.103 -0.675,-0.243 -1.417,0.108 -1.66,0.783 -0.243,0.675 0.108,1.417 0.783,1.661 1.021,0.369 2.736,0.558 4.424,0.558 1.386,0 2.754,-0.131 3.704,-0.397 1.624,-0.386 2.749,-2.096 2.61,-3.996l0 -0.013zm-22.228 -6.927c-0.67,-1.372 -1.976,-2.565 -3.402,-2.565 -1.427,0 -2.732,1.193 -3.403,2.565 -1.17,2.386 -2.277,5.477 -3.385,9.456 -0.193,0.702 0.217,1.427 0.914,1.62 0.117,0.032 0.239,0.05 0.356,0.05 0.576,0 1.107,-0.383 1.269,-0.963 0.243,-0.878 0.491,-1.706 0.734,-2.494l7.029 0c0.243,0.788 0.486,1.616 0.734,2.494 0.193,0.702 0.922,1.111 1.621,0.913 0.701,-0.193 1.111,-0.922 0.913,-1.62 -1.107,-3.979 -2.214,-7.07 -3.38,-9.456zm-6.062 5.068c0.535,-1.494 1.071,-2.795 1.62,-3.911 0.234,-0.477 0.612,-1.089 1.035,-1.089 0.428,0 0.806,0.612 1.04,1.089 0.549,1.121 1.084,2.417 1.62,3.911l-5.315 0 0 0zm-4.469 -0.13c0,-0.036 0,-0.073 -0.005,-0.104 0,-0.009 0,-0.018 -0.004,-0.027 -0.005,-0.036 -0.009,-0.067 -0.014,-0.104 0,-0.009 -0.004,-0.018 -0.004,-0.027 -0.009,-0.031 -0.014,-0.067 -0.028,-0.099 -0.004,-0.008 -0.004,-0.018 -0.008,-0.027 -0.009,-0.031 -0.023,-0.063 -0.036,-0.094 -0.005,-0.009 -0.009,-0.018 -0.009,-0.027 -0.014,-0.032 -0.028,-0.059 -0.041,-0.09 -0.004,-0.009 -0.009,-0.018 -0.013,-0.027 -0.019,-0.027 -0.032,-0.054 -0.05,-0.082 -0.004,-0.008 -0.009,-0.017 -0.018,-0.022 -0.018,-0.027 -0.036,-0.049 -0.058,-0.076 -0.005,-0.009 -0.014,-0.014 -0.019,-0.023 -0.022,-0.022 -0.04,-0.049 -0.062,-0.072 -0.009,-0.009 -0.014,-0.013 -0.023,-0.022 -0.022,-0.023 -0.045,-0.045 -0.067,-0.063 -0.01,-0.005 -0.019,-0.014 -0.023,-0.018 -0.022,-0.018 -0.049,-0.037 -0.076,-0.054 -0.01,-0.005 -0.019,-0.014 -0.027,-0.018 -0.027,-0.018 -0.05,-0.031 -0.077,-0.05 -0.009,-0.004 -0.022,-0.009 -0.031,-0.018 -0.028,-0.013 -0.054,-0.027 -0.081,-0.04 -0.014,-0.005 -0.027,-0.009 -0.037,-0.013 -0.026,-0.01 -0.053,-0.023 -0.08,-0.028 -0.014,-0.004 -0.028,-0.009 -0.045,-0.013 -0.028,-0.009 -0.054,-0.014 -0.077,-0.018 -0.018,-0.005 -0.032,-0.005 -0.05,-0.009 -0.026,-0.005 -0.049,-0.009 -0.076,-0.014 -0.018,0 -0.036,-0.005 -0.054,-0.005 -0.018,0 -0.032,-0.004 -0.05,-0.004 -0.009,0 -0.017,0 -0.026,0 -0.005,0 -0.014,0 -0.018,0l-4.915 0c-0.716,0 -1.301,0.58 -1.301,1.301 0,0.716 0.581,1.301 1.301,1.301l3.439 0c-0.595,2.412 -2.516,2.812 -3.853,2.812 -2.651,0 -4.505,-2.006 -4.505,-4.878 0,-2.097 2.147,-4.006 4.505,-4.006 1.445,0 2.516,0.329 3.695,1.13 0.594,0.405 1.4,0.248 1.805,-0.342 0.405,-0.594 0.247,-1.4 -0.342,-1.805 -1.607,-1.094 -3.196,-1.58 -5.153,-1.58 -1.841,0 -3.601,0.694 -4.964,1.958 -1.36,1.256 -2.138,2.953 -2.138,4.645 0,2.178 0.724,4.064 2.097,5.446 1.3,1.309 3.078,2.029 5.005,2.029 1.809,0 3.397,-0.522 4.599,-1.507 0.999,-0.82 1.926,-2.377 2.025,-5.158 0,-0.013 0,-0.023 0,-0.036 0,-0.005 0,-0.009 0,-0.009 -0.013,0 -0.013,-0.005 -0.013,-0.013zm-15.005 3.699l-6.098 0 0 -2.934 4.266 0c0.716,0 1.301,-0.581 1.301,-1.301 0,-0.716 -0.581,-1.301 -1.301,-1.301l-4.266 0 0 -2.489 6.098 0c0.716,0 1.301,-0.58 1.301,-1.3 0,-0.716 -0.581,-1.301 -1.301,-1.301l-7.399 0c-0.716,0 -1.301,0.58 -1.301,1.301l0 10.616c0,0.716 0.581,1.301 1.301,1.301l7.399 0c0.716,0 1.301,-0.58 1.301,-1.301 -0.005,-0.71 -0.585,-1.291 -1.301,-1.291zm-9.816 -1.71c-0.171,-2.111 -1.876,-3.718 -3.924,-3.718 -0.045,0 -0.086,0 -0.13,0l-1.185 0c-0.008,0 -0.017,0 -0.022,0l-2.875 0 -0.055 0c-0.72,0.027 -1.327,-0.549 -1.39,-1.318 -0.041,-0.599 0.251,-1.197 0.63,-1.283l0.072 -0.018c1.692,-0.482 5.301,-0.356 6.566,0.104 0.675,0.243 1.418,-0.109 1.661,-0.784 0.243,-0.675 -0.109,-1.418 -0.784,-1.661 -1.863,-0.67 -6.021,-0.751 -8.128,-0.162 -1.624,0.388 -2.749,2.098 -2.61,3.997l0 0.014c0.172,2.11 1.877,3.717 3.925,3.717 0.045,0 0.085,0 0.13,0l1.184 0c0.009,0 0.018,0 0.022,0l2.876 0 0.055 0c0.719,-0.027 1.327,0.549 1.39,1.319 0.041,0.599 -0.252,1.197 -0.63,1.282l-0.072 0.018c-1.692,0.482 -5.302,0.356 -6.566,-0.103 -0.675,-0.243 -1.418,0.108 -1.661,0.783 -0.243,0.675 0.108,1.417 0.783,1.661 1.022,0.369 2.736,0.558 4.424,0.558 1.386,0 2.755,-0.131 3.704,-0.397 1.625,-0.386 2.75,-2.096 2.61,-3.996l0 -0.013z"/>
  </g>
  <g id="holes">
   <ellipse class="fil4" cx="145.012" cy="297.327" rx="52.115" ry="52.116"/>
   <circle class="fil4" cx="249" cy="350.513" r="23.433"/>
   <circle class="fil4" cx="301.403" cy="223.807" r="23.433"/>
   <circle class="fil4" cx="345.369" cy="191.891" r="23.433"/>
   <circle class="fil4" cx="393.569" cy="169.093" r="23.433"/>
   <circle class="fil4" cx="323.275" cy="283.059" r="23.433"/>
   <circle class="fil4" cx="373.097" cy="245.268" r="23.433"/>
   <circle class="fil4" cx="426.137" cy="217.619" r="23.433"/>
  </g>
  <g id="dpad">
   <circle class="fil17" cx="145.013" cy="297.327" r="48.546"/>
   <path class="fil18" d="M156.149 257.457l0 15.533c0,7.291 5.91,13.201 13.201,13.201l15.532 0c1.236,0 2.277,0.842 2.535,2.051 0.626,2.93 0.957,5.969 0.957,9.085 0,3.117 -0.331,6.156 -0.957,9.086 -0.258,1.209 -1.298,2.051 -2.535,2.051l-15.532 0c-7.291,0 -13.201,5.911 -13.201,13.201l0 15.533c0,1.236 -0.842,2.276 -2.051,2.535 -2.93,0.625 -5.969,0.955 -9.086,0.955 -3.116,0 -6.156,-0.33 -9.085,-0.955 -1.21,-0.259 -2.051,-1.299 -2.051,-2.535l0 -15.533c0,-7.29 -5.911,-13.201 -13.202,-13.201l-15.532 0c-1.236,0 -2.277,-0.842 -2.535,-2.051 -0.625,-2.93 -0.956,-5.969 -0.956,-9.086 0,-3.116 0.331,-6.155 0.956,-9.085 0.258,-1.209 1.299,-2.051 2.535,-2.051l15.532 0c7.291,0 13.202,-5.91 13.202,-13.201l0 -15.533c0,-1.236 0.841,-2.277 2.051,-2.535 2.929,-0.625 5.969,-0.955 9.085,-0.955 3.116,0 6.156,0.33 9.086,0.955 1.209,0.258 2.051,1.299 2.051,2.535z"/>
   <path class="fil19" d="M188.876 311.056c-4.483,14.336 -15.798,25.652 -30.135,30.135l0 -19.523c0,-5.861 4.751,-10.612 10.611,-10.612l19.524 0zm-57.592 30.135c-14.336,-4.483 -25.653,-15.798 -30.135,-30.135l19.523 0c5.861,0 10.612,4.751 10.612,10.612l0 19.523zm0 -87.727l0 19.524c0,5.86 -4.751,10.611 -10.612,10.611l-19.523 0c4.482,-14.336 15.798,-25.652 30.135,-30.135zm57.592 30.135l-19.524 0c-5.86,0 -10.611,-4.751 -10.611,-10.611l0 -19.524c14.337,4.483 25.652,15.798 30.135,30.135z"/>
   <path class="fil20" d="M113.464 327.4l2.878 -5.867c0.161,-0.328 0.449,-0.544 0.809,-0.603 0.36,-0.06 0.704,0.051 0.961,0.308l2.99 2.989c0.257,0.258 0.367,0.602 0.308,0.961 -0.06,0.361 -0.275,0.649 -0.603,0.81l-5.867 2.877c-0.429,0.211 -0.928,0.129 -1.266,-0.209 -0.338,-0.338 -0.42,-0.837 -0.21,-1.266zm60.219 -5.867l2.877 5.867c0.211,0.429 0.129,0.928 -0.209,1.266 -0.339,0.338 -0.838,0.42 -1.267,0.209l-5.866 -2.877c-0.329,-0.161 -0.544,-0.449 -0.603,-0.81 -0.06,-0.359 0.05,-0.703 0.308,-0.961l2.989 -2.989c0.257,-0.257 0.602,-0.368 0.961,-0.308 0.361,0.059 0.649,0.275 0.81,0.603zm-4.465 -52.876l5.866 -2.877c0.429,-0.211 0.929,-0.129 1.267,0.209 0.338,0.338 0.42,0.837 0.209,1.266l-2.877 5.867c-0.161,0.329 -0.449,0.543 -0.81,0.603 -0.359,0.06 -0.704,-0.051 -0.961,-0.308l-2.989 -2.989c-0.258,-0.258 -0.368,-0.602 -0.308,-0.961 0.059,-0.361 0.274,-0.649 0.603,-0.81zm-54.278 -2.877l5.867 2.877c0.328,0.161 0.543,0.449 0.603,0.81 0.059,0.359 -0.051,0.703 -0.308,0.961l-2.99 2.989c-0.257,0.257 -0.601,0.368 -0.961,0.308 -0.361,-0.06 -0.648,-0.274 -0.809,-0.603l-2.878 -5.867c-0.21,-0.428 -0.128,-0.928 0.21,-1.266 0.338,-0.338 0.837,-0.42 1.266,-0.209z"/>
   <path class="fil21" d="M116.771 321.743l-2.877 5.867c-0.121,0.245 -0.074,0.523 0.119,0.716 0.194,0.194 0.471,0.241 0.717,0.12l5.867 -2.877c0.188,-0.092 0.306,-0.251 0.34,-0.458 0.035,-0.209 -0.025,-0.395 -0.175,-0.544l-2.989 -2.99c-0.15,-0.15 -0.335,-0.209 -0.544,-0.175 -0.207,0.034 -0.366,0.153 -0.458,0.341zm59.36 5.867l-2.877 -5.867c-0.092,-0.188 -0.252,-0.307 -0.458,-0.341 -0.209,-0.034 -0.395,0.025 -0.544,0.175l-2.99 2.99c-0.15,0.15 -0.209,0.335 -0.175,0.544 0.034,0.207 0.153,0.366 0.34,0.458l5.867 2.877c0.247,0.121 0.524,0.074 0.717,-0.12 0.193,-0.193 0.241,-0.471 0.12,-0.716zm-0.837 -61.401l-5.867 2.877c-0.187,0.092 -0.306,0.251 -0.34,0.458 -0.034,0.209 0.025,0.394 0.175,0.544l2.99 2.99c0.149,0.15 0.335,0.209 0.544,0.175 0.206,-0.035 0.366,-0.153 0.458,-0.341l2.877 -5.867c0.121,-0.246 0.073,-0.523 -0.12,-0.717 -0.193,-0.193 -0.471,-0.24 -0.717,-0.119zm-54.697 2.877l-5.867 -2.877c-0.246,-0.121 -0.524,-0.074 -0.717,0.119 -0.193,0.194 -0.24,0.471 -0.119,0.717l2.877 5.867c0.092,0.188 0.251,0.306 0.458,0.341 0.209,0.034 0.394,-0.025 0.544,-0.175l2.989 -2.99c0.15,-0.149 0.21,-0.335 0.175,-0.544 -0.034,-0.207 -0.152,-0.366 -0.34,-0.458z"/>
   <path class="fil22" d="M156.149 257.457l0 15.533c0,7.291 5.91,13.201 13.201,13.201l15.532 0c1.236,0 2.277,0.842 2.535,2.051 0.626,2.93 0.956,5.969 0.956,9.085 0,3.117 -0.33,6.156 -0.956,9.086 -0.258,1.209 -1.298,2.051 -2.535,2.051l-15.532 0c-7.291,0 -13.201,5.911 -13.201,13.201l0 15.532c0,1.237 -0.842,2.278 -2.051,2.536 -2.93,0.625 -5.969,0.956 -9.086,0.956 -3.116,0 -6.156,-0.331 -9.085,-0.956 -1.21,-0.258 -2.051,-1.299 -2.051,-2.536l0 -15.532c0,-7.29 -5.911,-13.201 -13.202,-13.201l-15.532 0c-1.236,0 -2.277,-0.842 -2.535,-2.051 -0.625,-2.93 -0.956,-5.969 -0.956,-9.086 0,-3.116 0.331,-6.155 0.956,-9.085 0.258,-1.209 1.299,-2.051 2.535,-2.051l15.532 0c7.291,0 13.202,-5.91 13.202,-13.201l0 -15.533c0,-1.236 0.841,-2.277 2.051,-2.535 2.929,-0.625 5.969,-0.956 9.085,-0.956 3.116,0 6.156,0.331 9.086,0.956 1.209,0.258 2.051,1.299 2.051,2.535zm-2.592 15.533l0 -11.474c0,-0.838 -0.584,-1.543 -1.407,-1.698 -2.312,-0.438 -4.698,-0.667 -7.138,-0.667 -2.439,0 -4.826,0.229 -7.138,0.667 -0.824,0.156 -1.407,0.86 -1.407,1.698l0.001 11.474c0,4.36 -1.768,8.309 -4.626,11.167 -2.858,2.858 -6.807,4.626 -11.168,4.626l-11.474 0c-0.838,0 -1.542,0.583 -1.697,1.407 -0.438,2.312 -0.667,4.698 -0.667,7.137 0,2.44 0.229,4.826 0.667,7.139 0.156,0.824 0.859,1.406 1.697,1.406l11.474 0c4.361,0 8.31,1.768 11.168,4.626 2.858,2.858 4.626,6.806 4.626,11.167l0 11.474c0,0.838 0.583,1.542 1.407,1.698 2.312,0.438 4.698,0.667 7.137,0.667 2.44,0 4.826,-0.229 7.139,-0.667 0.823,-0.156 1.406,-0.86 1.406,-1.698l0 -11.474c0,-4.361 1.767,-8.309 4.625,-11.167 2.859,-2.858 6.807,-4.626 11.168,-4.626l11.474 0c0.838,0 1.542,-0.583 1.698,-1.407 0.437,-2.312 0.667,-4.698 0.667,-7.138 0,-2.439 -0.229,-4.826 -0.667,-7.138 -0.156,-0.824 -0.86,-1.406 -1.698,-1.406l-11.474 0c-4.361,0 -8.309,-1.768 -11.168,-4.626 -2.858,-2.858 -4.625,-6.807 -4.625,-11.167z"/>
   <circle class="fil23" cx="145.012" cy="297.327" r="8.924"/>
   <path class="fil24" d="M154.853 260.254l0 -1.901c0,-0.966 -0.672,-1.777 -1.62,-1.956 -2.663,-0.503 -5.411,-0.768 -8.221,-0.768 -2.81,0 -5.558,0.265 -8.221,0.768 -0.949,0.18 -1.621,0.991 -1.621,1.956l0.001 1.901c0,-0.965 0.671,-1.776 1.62,-1.955 2.663,-0.504 5.411,-0.768 8.221,-0.768 2.81,0 5.558,0.264 8.221,0.768 0.949,0.179 1.62,0.99 1.62,1.955zm-47.068 27.625c-1.332,0 -2.452,0.549 -2.73,1.339 0.141,-1.293 0.714,-2.193 1.393,-2.193l14.226 0c8.006,0 14.496,-6.284 14.496,-14.035 0,8.223 -6.49,14.889 -14.496,14.889l-12.889 0zm74.454 0c1.332,0 2.453,0.549 2.731,1.339 -0.142,-1.293 -0.714,-2.193 -1.394,-2.193l-14.226 0c-8.006,0 -14.496,-6.284 -14.496,-14.035 0,8.223 6.49,14.889 14.496,14.889l12.889 0z"/>
  </g>
 </g>
</svg>
