<?xml version="1.0" encoding="UTF-8"?>
<!DOCTYPE svg PUBLIC "-//W3C//DTD SVG 1.1//EN" "http://www.w3.org/Graphics/SVG/1.1/DTD/svg11.dtd">
<svg xml:space="preserve" viewBox="0 0 498 522" width="498px" height="522px" version="1.1" style="shape-rendering:geometricPrecision; fill-rule:evenodd; clip-rule:evenodd" xmlns="http://www.w3.org/2000/svg" xmlns:xlink="http://www.w3.org/1999/xlink">
 <defs>
  <style type="text/css">
    .fil36 {fill:black;fill-opacity:0.1}
    .fil37 {fill:black;fill-opacity:0.4}
    .fil35 {fill:url(#id14)}
    .fil34 {fill:url(#id15)}
    .fil33 {fill:url(#id23);fill-opacity:0.6}
  </style>
  <linearGradient id="id14" gradientUnits="objectBoundingBox" x1="50.0001%" y1="100%" x2="50.0001%" y2="0.000236779%">
   <stop offset="0" style="stop-opacity:1; stop-color:#2C2C2C"/>
   <stop offset="0.501961" style="stop-opacity:1; stop-color:#343434"/>
   <stop offset="1" style="stop-opacity:1; stop-color:#505050"/>
  </linearGradient>
  <linearGradient id="id15" gradientUnits="objectBoundingBox" x1="49.9997%" y1="99.9997%" x2="49.9997%" y2="0%">
   <stop offset="0" style="stop-opacity:1; stop-color:#2A2A2A"/>
   <stop offset="0.5" style="stop-opacity:1; stop-color:#303030"/>
   <stop offset="1" style="stop-opacity:1; stop-color:#606060"/>
  </linearGradient>
  <linearGradient id="id23" gradientUnits="objectBoundingBox" xlink:href="#id15" x1="49.9997%" y1="99.9998%" x2="49.9997%" y2="0%">
  </linearGradient>
 </defs>
 <g>
  <g id="button-z">
   <path class="fil33" d="M393.569 147.172c12.107,0 21.921,9.815 21.921,21.921 0,12.107 -9.814,21.921 -21.921,21.921 -12.107,0 -21.921,-9.814 -21.921,-21.921 0,-12.106 9.814,-21.921 21.921,-21.921z"/>
   <path class="fil34" d="M393.569 148.306c11.48,0 20.787,9.307 20.787,20.787 0,11.48 -9.307,20.788 -20.787,20.788 -11.48,0 -20.787,-9.308 -20.787,-20.788 0,-11.48 9.307,-20.787 20.787,-20.787z"/>
   <path class="fil35" d="M393.569 150.195c10.437,0 18.898,8.461 18.898,18.898 0,10.437 -8.461,18.897 -18.898,18.897 -10.437,0 -18.898,-8.46 -18.898,-18.897 0,-10.437 8.461,-18.898 18.898,-18.898z"/>
   <path class="fil36" d="M393.569 189.88c11.479,0 20.786,-9.306 20.786,-20.786l0 0c-5.109,5.702 -12.528,9.292 -20.786,9.292 -8.259,0 -15.678,-3.591 -20.786,-9.294l0 0.002c0,11.48 9.306,20.786 20.786,20.786z"/>
   <path class="fil37" d="M404.959 170.642l-1.411 -3.919c-0.908,0.327 -1.816,0.654 -2.724,0.981l0.211 0.584c0.045,0.125 0.067,0.274 0.112,0.399 0.213,1.462 -0.916,2.513 -4.112,3.664l-6.504 2.343 11.032 -12.783 -0.431 -1.195 -0.694 0.25 -17.343 6.249 1.422 3.947c0.861,-0.311 1.722,-0.621 2.584,-0.931l-0.218 -0.691c-0.522,-1.712 0.539,-2.691 4.846,-4.243l4.448 -1.603 -10.835 12.634 0.441 1.223 0.694 -0.25 18.482 -6.659z"/>
  </g>
 </g>
</svg>
