<?xml version="1.0" encoding="UTF-8"?>
<!DOCTYPE svg PUBLIC "-//W3C//DTD SVG 1.1//EN" "http://www.w3.org/Graphics/SVG/1.1/DTD/svg11.dtd">
<svg xml:space="preserve" viewBox="0 0 498 522" width="498px" height="522px" version="1.1" style="shape-rendering:geometricPrecision; fill-rule:evenodd; clip-rule:evenodd" xmlns="http://www.w3.org/2000/svg" xmlns:xlink="http://www.w3.org/1999/xlink">
 <defs>
  <style type="text/css">
    .fil36 {fill:black;fill-opacity:0.1}
    .fil37 {fill:black;fill-opacity:0.4}
    .fil35 {fill:url(#id14)}
    .fil34 {fill:url(#id15)}
    .fil33 {fill:url(#id23);fill-opacity:0.6}
  </style>
  <linearGradient id="id14" gradientUnits="objectBoundingBox" x1="50.0001%" y1="100%" x2="50.0001%" y2="0.000236779%">
   <stop offset="0" style="stop-opacity:1; stop-color:#2C2C2C"/>
   <stop offset="0.501961" style="stop-opacity:1; stop-color:#343434"/>
   <stop offset="1" style="stop-opacity:1; stop-color:#505050"/>
  </linearGradient>
  <linearGradient id="id15" gradientUnits="objectBoundingBox" x1="49.9997%" y1="99.9997%" x2="49.9997%" y2="0%">
   <stop offset="0" style="stop-opacity:1; stop-color:#2A2A2A"/>
   <stop offset="0.5" style="stop-opacity:1; stop-color:#303030"/>
   <stop offset="1" style="stop-opacity:1; stop-color:#606060"/>
  </linearGradient>
  <linearGradient id="id23" gradientUnits="objectBoundingBox" xlink:href="#id15" x1="49.9997%" y1="99.9998%" x2="49.9997%" y2="0%">
  </linearGradient>
 </defs>
 <g>
  <g id="button-c">
   <path class="fil33" d="M426.136 195.697c12.107,0 21.922,9.815 21.922,21.922 0,12.106 -9.815,21.921 -21.922,21.921 -12.106,0 -21.921,-9.815 -21.921,-21.921 0,-12.107 9.815,-21.922 21.921,-21.922z"/>
   <path class="fil34" d="M426.136 196.831c11.481,0 20.788,9.307 20.788,20.788 0,11.48 -9.307,20.787 -20.788,20.787 -11.48,0 -20.787,-9.307 -20.787,-20.787 0,-11.481 9.307,-20.788 20.787,-20.788z"/>
   <path class="fil35" d="M426.136 198.721c10.437,0 18.898,8.461 18.898,18.897 0,10.437 -8.461,18.898 -18.898,18.898 -10.436,0 -18.897,-8.461 -18.897,-18.898 0,-10.436 8.461,-18.897 18.897,-18.897z"/>
   <path class="fil36" d="M426.136 238.406c11.48,0 20.786,-9.307 20.786,-20.786l0 -0.001c-5.108,5.702 -12.527,9.292 -20.786,9.292 -8.258,0 -15.677,-3.59 -20.786,-9.293l0 0.002c0,11.479 9.307,20.786 20.786,20.786z"/>
   <path class="fil37" d="M431.949 210.425c-2.097,-0.138 -4.709,0.327 -7.304,1.313 -1.364,0.465 -2.737,1.076 -4.041,1.822 -4.069,2.341 -6.096,5.308 -5.1,7.978 0.706,1.865 2.617,2.875 5.329,3.025 1.82,0.102 3.835,-0.187 6.082,-0.862 0.76,-0.226 1.479,-0.468 2.157,-0.722 5.515,-1.906 8.516,-4.641 8.329,-7.06 0.009,-0.255 -0.048,-0.504 -0.158,-0.717 -1.002,0.361 -2.004,0.722 -3.007,1.084 0.065,0.178 0.069,0.378 0.069,0.563 -0.068,1.795 -1.999,3.634 -4.962,4.789 -0.451,0.15 -0.923,0.285 -1.412,0.401 -2.912,0.697 -5.426,0.256 -6.741,-1.524 -2.156,-2.996 0.241,-6.22 4.473,-7.875 0.295,-0.097 0.596,-0.188 0.904,-0.27 3.099,-0.831 5.459,-0.537 6.54,0.874 0.113,0.127 0.196,0.265 0.25,0.414 1.002,-0.361 2.004,-0.722 3.007,-1.083l-1.47 -4.08c-0.913,0.329 -1.826,0.658 -2.739,0.987l-0.206 0.943z"/>
  </g>
 </g>
</svg>
