<?xml version="1.0" encoding="UTF-8"?>
<!DOCTYPE svg PUBLIC "-//W3C//DTD SVG 1.1//EN" "http://www.w3.org/Graphics/SVG/1.1/DTD/svg11.dtd">
<svg xml:space="preserve" viewBox="0 0 498 522" width="498px" height="522px" version="1.1" style="shape-rendering:geometricPrecision; fill-rule:evenodd; clip-rule:evenodd" xmlns="http://www.w3.org/2000/svg">
 <defs>
  <style type="text/css">
    .fil0 {fill:red}
    .fil1 {fill:white}
  </style>
 </defs>
 <g>
  <path class="fil0" d="M154.392 473.251c-3.414,10.132 -6.147,20.562 -8.147,31.239 -1.484,7.924 -8.084,13.594 -16.141,13.867l-59.027 2.002c-7.32,0.248 -13.7,-3.933 -16.393,-10.744 -33.831,-85.56 -52.029,-175.871 -52.029,-269.259 0,-9.184 0.538,-18.247 1.581,-27.161 2.686,-22.938 3.757,-42.633 3.574,-65.728 -0.001,-0.138 -0.002,-0.277 -0.002,-0.416 0,-17.77 9.011,-33.436 22.713,-42.678 19.534,-13.175 35.471,-25.462 53.18,-41.006 43.705,-38.364 101.683,-61.736 165.299,-61.736 136.053,0 246.345,106.88 246.345,238.725 0,93.388 -18.198,183.699 -52.029,269.259 -2.693,6.811 -9.073,10.992 -16.393,10.744l-59.027 -2.002c-8.057,-0.273 -14.657,-5.943 -16.141,-13.867 -2,-10.677 -4.733,-21.107 -8.147,-31.239 -1.99,-5.908 -8.422,-9.11 -14.335,-7.135l-0.003 -0.008c-25.162,8.401 -52.164,12.974 -80.27,12.974 -28.106,0 -55.108,-4.573 -80.27,-12.974l-0.003 0.008c-5.913,-1.975 -12.345,1.227 -14.335,7.135zm-92.268 -401.695l0 -60.414c0,-5.248 -4.264,-9.511 -9.512,-9.511l-9.324 0c-5.248,0 -9.511,4.263 -9.511,9.511l0 60.414 28.347 0zm373.717 0l0 -60.414c0,-5.248 4.263,-9.511 9.511,-9.511l9.325 0c5.248,0 9.51,4.263 9.51,9.511l0 60.414 -28.346 0z"/>
  <path class="fil1" d="M249 153.865c43.706,0 79.136,35.43 79.136,79.136 0,43.707 -35.43,79.136 -79.136,79.136 -43.706,0 -79.136,-35.429 -79.136,-79.136 0,-43.706 35.43,-79.136 79.136,-79.136zm9.872 83.118c1.443,1.445 1.443,3.802 0,5.245l-7.39 7.39 3.119 3.116c1.1,1.105 1.1,2.893 0,3.998l-7.328 7.324c-6.468,6.468 -16.144,7.767 -23.903,3.901l-16.102 16.105c11.367,9.303 25.895,14.887 41.732,14.887 36.422,0 65.948,-29.526 65.948,-65.948 0,-15.837 -5.584,-30.365 -14.888,-41.732l-16.091 16.091c3.868,7.756 2.569,17.437 -3.899,23.905l-7.328 7.327c-1.101,1.103 -2.89,1.103 -3.995,0l-25.312 -25.316c-1.107,-1.101 -1.107,-2.891 0,-3.995l7.324 -7.327c6.46,-6.459 16.121,-7.766 23.873,-3.915l16.1 -16.1c-11.367,-9.304 -25.897,-14.885 -41.732,-14.885 -36.422,0 -65.948,29.525 -65.948,65.947 0,15.835 5.582,30.365 14.886,41.733l16.112 -16.11c-3.851,-7.754 -2.547,-17.418 3.912,-23.875l7.327 -7.328c1.105,-1.105 2.894,-1.105 3.995,0l3.102 3.1 7.389 -7.39c1.443,-1.443 3.804,-1.443 5.247,0 1.443,1.445 1.443,3.803 0,5.246l-7.389 7.389 8.602 8.606 7.39 -7.389c1.443,-1.443 3.804,-1.443 5.247,0z"/>
 </g>
</svg>
