<?xml version="1.0" encoding="UTF-8"?>
<!DOCTYPE svg PUBLIC "-//W3C//DTD SVG 1.1//EN" "http://www.w3.org/Graphics/SVG/1.1/DTD/svg11.dtd">
<svg xml:space="preserve" viewBox="0 0 498 522" width="498px" height="522px" version="1.1" style="shape-rendering:geometricPrecision; fill-rule:evenodd; clip-rule:evenodd" xmlns="http://www.w3.org/2000/svg">
 <defs>
  <style type="text/css">
    .fil1 {fill:red}
    .fil2 {fill:#FF2727}
    .fil0 {fill:red;fill-opacity:0.5}
  </style>
 </defs>
 <g>
  <g id="dpad-right">
   <path class="fil0" d="M169.351 283.598l16.323 0c1.975,0 3.64,1.321 4.089,3.245 0.786,3.367 1.202,6.877 1.202,10.484 0,3.608 -0.416,7.118 -1.202,10.485 -0.449,1.924 -2.114,3.244 -4.089,3.244l-16.338 0c-6.331,-1.361 -11.077,-6.989 -11.077,-13.727 0,-6.743 4.753,-12.375 11.092,-13.731z"/>
   <path class="fil1" d="M164.873 285.412c1.398,0.504 2.905,0.779 4.476,0.779l15.533 0c1.236,0 2.277,0.841 2.535,2.051 0.626,2.929 0.956,5.969 0.956,9.085 0,3.117 -0.33,6.157 -0.956,9.086 -0.258,1.21 -1.298,2.051 -2.535,2.051l-15.533 0c-1.572,0 -3.08,0.276 -4.479,0.78 -3.97,-2.48 -6.611,-6.889 -6.611,-11.915 0,-5.027 2.642,-9.437 6.614,-11.917z"/>
   <path class="fil2" d="M164.873 285.412c1.398,0.504 2.905,0.779 4.476,0.779l15.533 0c1.236,0 2.277,0.841 2.535,2.051 0.626,2.929 0.956,5.969 0.956,9.085 0,3.117 -0.33,6.157 -0.956,9.086 -0.258,1.21 -1.298,2.051 -2.535,2.051l-15.533 0c-1.572,0 -3.08,0.276 -4.479,0.78 -0.843,-0.527 -1.626,-1.141 -2.337,-1.829 2.064,-0.989 4.376,-1.543 6.816,-1.543l11.475 0c0.838,0 1.542,-0.583 1.697,-1.407 0.438,-2.312 0.668,-4.698 0.668,-7.138 0,-2.439 -0.23,-4.826 -0.668,-7.138 -0.156,-0.824 -0.859,-1.407 -1.697,-1.407l-11.475 0.001c-2.44,0 -4.751,-0.554 -6.814,-1.542 0.711,-0.689 1.494,-1.303 2.338,-1.829z"/>
  </g>
 </g>
</svg>
