<?xml version="1.0" encoding="UTF-8"?>
<!DOCTYPE svg PUBLIC "-//W3C//DTD SVG 1.1//EN" "http://www.w3.org/Graphics/SVG/1.1/DTD/svg11.dtd">
<svg xml:space="preserve" viewBox="0 0 498 522" width="498px" height="522px" version="1.1" style="shape-rendering:geometricPrecision; fill-rule:evenodd; clip-rule:evenodd" xmlns="http://www.w3.org/2000/svg">
 <defs>
  <style type="text/css">
    .fil1 {fill:red}
    .fil2 {fill:#FF2727}
    .fil0 {fill:red;fill-opacity:0.5}
  </style>
 </defs>
 <g>
  <g id="dpad-down">
   <path class="fil0" d="M158.741 321.667l0 16.322c0,1.975 -1.321,3.64 -3.244,4.089 -3.367,0.787 -6.878,1.203 -10.485,1.203 -3.607,0 -7.117,-0.416 -10.484,-1.203 -1.924,-0.449 -3.245,-2.114 -3.245,-4.089l0 -16.337c1.361,-6.331 6.99,-11.077 13.728,-11.077 6.742,0 12.375,4.753 13.73,11.092z"/>
   <path class="fil1" d="M156.928 317.189c-0.504,1.398 -0.779,2.905 -0.779,4.476l0 15.533c0,1.236 -0.842,2.277 -2.051,2.535 -2.93,0.625 -5.969,0.956 -9.086,0.956 -3.116,0 -6.156,-0.331 -9.086,-0.956 -1.209,-0.258 -2.05,-1.298 -2.05,-2.535l0 -15.533c0,-1.572 -0.276,-3.08 -0.781,-4.479 2.481,-3.97 6.89,-6.611 11.916,-6.611 5.027,0 9.436,2.643 11.917,6.614z"/>
   <path class="fil2" d="M156.928 317.189c-0.504,1.398 -0.779,2.905 -0.779,4.476l0 15.533c0,1.236 -0.842,2.277 -2.051,2.535 -2.93,0.625 -5.969,0.956 -9.086,0.956 -3.116,0 -6.156,-0.331 -9.086,-0.956 -1.209,-0.258 -2.05,-1.298 -2.05,-2.535l0 -15.533c0,-1.572 -0.276,-3.08 -0.781,-4.479 0.527,-0.843 1.141,-1.626 1.83,-2.337 0.989,2.064 1.543,4.375 1.543,6.816l0 11.474c0,0.839 0.583,1.543 1.406,1.698 2.312,0.438 4.699,0.667 7.138,0.667 2.44,0 4.826,-0.229 7.139,-0.667 0.824,-0.156 1.406,-0.859 1.406,-1.698l0 -11.474c0,-2.44 0.553,-4.751 1.542,-6.814 0.688,0.711 1.302,1.495 1.829,2.338z"/>
  </g>
 </g>
</svg>
