<?xml version="1.0" encoding="UTF-8"?>
<!DOCTYPE svg PUBLIC "-//W3C//DTD SVG 1.1//EN" "http://www.w3.org/Graphics/SVG/1.1/DTD/svg11.dtd">
<svg xml:space="preserve" viewBox="0 0 498 522" width="498px" height="522px" version="1.1" style="shape-rendering:geometricPrecision; fill-rule:evenodd; clip-rule:evenodd" xmlns="http://www.w3.org/2000/svg" xmlns:xlink="http://www.w3.org/1999/xlink">
 <defs>
  <style type="text/css">
    .fil2 {fill:black;fill-opacity:0.05}
    .fil3 {fill:black;fill-opacity:0.25}
    .fil1 {fill:url(#id0)}
    .fil0 {fill:url(#id1);fill-opacity:0.5}
  </style>
  <linearGradient id="id0" gradientUnits="objectBoundingBox" x1="50%" y1="100%" x2="50%" y2="0%">
   <stop offset="0" style="stop-opacity:1; stop-color:#C00000"/>
   <stop offset="0.6" style="stop-opacity:1; stop-color:red"/>
   <stop offset="1" style="stop-opacity:1; stop-color:red"/>
  </linearGradient>
  <linearGradient id="id1" gradientUnits="objectBoundingBox" xlink:href="#id0" x1="50%" y1="100%" x2="50%" y2="0%">
  </linearGradient>
 </defs>
 <g>
  <g id="button-x">
   <path class="fil0" d="M301.588 202.048c12.106,0 21.921,9.815 21.921,21.922 0,12.106 -9.815,21.921 -21.921,21.921 -12.107,0 -21.922,-9.815 -21.922,-21.921 0,-12.107 9.815,-21.922 21.922,-21.922z"/>
   <path class="fil1" d="M301.588 203.182c11.48,0 20.787,9.307 20.787,20.788 0,11.48 -9.307,20.787 -20.787,20.787 -11.481,0 -20.788,-9.307 -20.788,-20.787 0,-11.481 9.307,-20.788 20.788,-20.788z"/>
   <path class="fil2" d="M301.588 244.757c11.479,0 20.786,-9.306 20.786,-20.786l0 -0.001c-5.109,5.703 -12.528,9.293 -20.786,9.293 -8.259,0 -15.678,-3.591 -20.786,-9.294l0 0.002c0,11.48 9.306,20.786 20.786,20.786z"/>
   <path class="fil3" d="M293.391 235.465l8.763 -5.868 -0.6 -0.896 -1.199 0.803c-0.216,0.143 -0.465,0.293 -0.806,0.503 -0.409,0.239 -0.655,0.244 -0.68,0.047 -0.025,-0.143 0.016,-0.348 0.22,-0.733l2.383 -4.463 4.784 -0.339c0.238,-0.017 0.451,-0.017 0.672,-0.005 0.222,0.011 0.23,0.237 -0.064,0.54 -0.119,0.132 -0.337,0.313 -0.886,0.683l-1.773 1.188 0.6 0.896 10.333 -6.921 -0.6 -0.896c-0.267,0.178 -0.533,0.357 -0.8,0.535 -0.827,0.552 -1.046,0.618 -2.401,0.791 -0.13,0.016 -0.262,0.033 -0.393,0.05l-7.775 0.495 2.832 -5.327 0.457 -0.858c0.06,-0.104 0.117,-0.206 0.188,-0.303 0.327,-0.45 0.644,-0.714 1.497,-1.287l1.071 -0.718 -0.608 -0.908 -8.394 5.622 0.608 0.909 1.717 -1.151c0.08,-0.053 0.393,-0.271 0.595,-0.311 0.135,-0.028 0.188,0.024 0.152,0.15 -0.036,0.127 -0.141,0.34 -0.498,1.008l-1.869 3.505 -3.556 0.129c-0.59,0.022 -0.77,0.018 -0.885,0.006 -0.197,-0.029 -0.216,-0.162 -0.091,-0.295 0.104,-0.109 0.164,-0.18 0.581,-0.46 0.589,-0.395 1.178,-0.789 1.768,-1.183l-0.609 -0.909 -10.088 6.757 0.609 0.908 1.472 -0.986c0.505,-0.338 1.347,-0.492 1.933,-0.566 0.172,-0.008 0.336,-0.029 0.475,-0.034l6.644 -0.432 -3.517 6.481 -0.515 0.931c-0.301,0.53 -0.765,0.955 -1.266,1.293l-1.081 0.723 0.6 0.896z"/>
  </g>
 </g>
</svg>
