<?xml version="1.0" encoding="UTF-8"?>
<!DOCTYPE svg PUBLIC "-//W3C//DTD SVG 1.1//EN" "http://www.w3.org/Graphics/SVG/1.1/DTD/svg11.dtd">
<svg xml:space="preserve" viewBox="0 0 498 522" width="498px" height="522px" version="1.1" style="shape-rendering:geometricPrecision; fill-rule:evenodd; clip-rule:evenodd" xmlns="http://www.w3.org/2000/svg" xmlns:xlink="http://www.w3.org/1999/xlink">
 <defs>
  <style type="text/css">
    .fil2 {fill:black;fill-opacity:0.05}
    .fil1 {fill:url(#id0)}
    .fil0 {fill:url(#id1);fill-opacity:0.5}
  </style>
  <linearGradient id="id0" gradientUnits="userSpaceOnUse" x1="249" y1="371.3" x2="249" y2="329.725">
   <stop offset="0" style="stop-opacity:1; stop-color:#C00000"/>
   <stop offset="0.6" style="stop-opacity:1; stop-color:red"/>
   <stop offset="1" style="stop-opacity:1; stop-color:red"/>
  </linearGradient>
  <linearGradient id="id1" gradientUnits="userSpaceOnUse" xlink:href="#id0" x1="249" y1="372.434" x2="249" y2="328.592">
  </linearGradient>
 </defs>
 <g>
   <path class="fil0" d="M249 328.592c12.107,0 21.921,9.814 21.921,21.921 0,12.106 -9.814,21.921 -21.921,21.921 -12.107,0 -21.921,-9.815 -21.921,-21.921 0,-12.107 9.814,-21.921 21.921,-21.921z"/>
   <path class="fil1" d="M249 329.725c11.48,0 20.787,9.308 20.787,20.788 0,11.48 -9.307,20.787 -20.787,20.787 -11.48,0 -20.787,-9.307 -20.787,-20.787 0,-11.48 9.307,-20.788 20.787,-20.788z"/>
   <path class="fil2" d="M249 371.3c11.48,0 20.786,-9.306 20.786,-20.786l0 0c-5.109,5.702 -12.528,9.292 -20.786,9.292 -8.259,0 -15.678,-3.591 -20.786,-9.293l0 0.001c0,11.48 9.306,20.786 20.786,20.786z"/>
 </g>
</svg>
