<?xml version="1.0" encoding="UTF-8"?>
<!DOCTYPE svg PUBLIC "-//W3C//DTD SVG 1.1//EN" "http://www.w3.org/Graphics/SVG/1.1/DTD/svg11.dtd">
<svg xml:space="preserve" viewBox="0 0 498 522" width="498px" height="522px" version="1.1" style="shape-rendering:geometricPrecision; fill-rule:evenodd; clip-rule:evenodd" xmlns="http://www.w3.org/2000/svg">
 <defs>
  <style type="text/css">
    .fil1 {fill:red}
    .fil2 {fill:#FF2727}
    .fil0 {fill:red;fill-opacity:0.5}
  </style>
 </defs>
 <g>
  <g id="dpad-left">
   <path class="fil0" d="M100.261 307.812c-0.786,-3.367 -1.202,-6.877 -1.202,-10.485 0,-3.607 0.416,-7.117 1.202,-10.484 0.449,-1.924 2.115,-3.245 4.09,-3.245l16.323 0c6.339,1.356 11.092,6.988 11.092,13.731 0,6.738 -4.747,12.366 -11.078,13.727l-16.337 0c-1.975,0 -3.641,-1.32 -4.09,-3.244z"/>
   <path class="fil1" d="M125.154 309.244c-1.398,-0.504 -2.906,-0.78 -4.479,-0.78l-15.533 0c-1.236,0 -2.277,-0.841 -2.535,-2.051 -0.625,-2.929 -0.956,-5.969 -0.956,-9.086 0,-3.116 0.331,-6.156 0.956,-9.085 0.258,-1.21 1.299,-2.051 2.535,-2.051l15.533 0c1.572,0 3.079,-0.275 4.477,-0.779 3.971,2.48 6.613,6.89 6.613,11.917 0,5.026 -2.641,9.435 -6.611,11.915z"/>
   <path class="fil2" d="M125.154 309.244c-1.398,-0.504 -2.906,-0.78 -4.479,-0.78l-15.533 0c-1.236,0 -2.277,-0.841 -2.535,-2.051 -0.625,-2.929 -0.956,-5.969 -0.956,-9.086 0,-3.116 0.331,-6.156 0.956,-9.085 0.258,-1.21 1.299,-2.051 2.535,-2.051l15.533 0c1.572,0 3.079,-0.275 4.477,-0.779 0.843,0.526 1.626,1.14 2.337,1.829 -2.063,0.988 -4.374,1.542 -6.814,1.542l-11.474 0c-0.838,0 -1.542,0.583 -1.698,1.407 -0.438,2.312 -0.667,4.698 -0.667,7.137 0,2.44 0.229,4.827 0.667,7.139 0.156,0.824 0.86,1.407 1.698,1.407l11.474 -0.001c2.441,0 4.752,0.554 6.816,1.543 -0.71,0.688 -1.494,1.302 -2.337,1.829z"/>
  </g>
 </g>
</svg>
