<?xml version="1.0" encoding="UTF-8"?>
<!DOCTYPE svg PUBLIC "-//W3C//DTD SVG 1.1//EN" "http://www.w3.org/Graphics/SVG/1.1/DTD/svg11.dtd">
<svg xml:space="preserve" viewBox="0 0 498 522" width="498px" height="522px" version="1.1" style="shape-rendering:geometricPrecision; fill-rule:evenodd; clip-rule:evenodd" xmlns="http://www.w3.org/2000/svg" xmlns:xlink="http://www.w3.org/1999/xlink">
 <defs>
  <style type="text/css">
    .fil2 {fill:black;fill-opacity:0.05}
    .fil3 {fill:black;fill-opacity:0.25}
    .fil1 {fill:url(#id0)}
    .fil0 {fill:url(#id1);fill-opacity:0.5}
  </style>
  <linearGradient id="id0" gradientUnits="objectBoundingBox" x1="50%" y1="100%" x2="50%" y2="0%">
   <stop offset="0" style="stop-opacity:1; stop-color:#C00000"/>
   <stop offset="0.6" style="stop-opacity:1; stop-color:red"/>
   <stop offset="1" style="stop-opacity:1; stop-color:red"/>
  </linearGradient>
  <linearGradient id="id1" gradientUnits="objectBoundingBox" xlink:href="#id0" x1="50%" y1="100%" x2="50%" y2="0%">
  </linearGradient>
 </defs>
 <g>
  <g id="button-a">
   <path class="fil0" d="M323.275 261.138c12.106,0 21.921,9.814 21.921,21.921 0,12.106 -9.815,21.921 -21.921,21.921 -12.107,0 -21.922,-9.815 -21.922,-21.921 0,-12.107 9.815,-21.921 21.922,-21.921z"/>
   <path class="fil1" d="M323.275 262.271c11.48,0 20.787,9.308 20.787,20.788 0,11.48 -9.307,20.787 -20.787,20.787 -11.481,0 -20.788,-9.307 -20.788,-20.787 0,-11.48 9.307,-20.788 20.788,-20.788z"/>
   <path class="fil2" d="M323.275 303.846c11.479,0 20.785,-9.306 20.785,-20.786l0 0c-5.108,5.702 -12.527,9.292 -20.785,9.292 -8.259,0 -15.678,-3.591 -20.786,-9.294l0 0.002c0,11.48 9.306,20.786 20.786,20.786z"/>
   <path class="fil3" d="M320.178 286.029l0.603 -5.439 5.236 1.528 -5.839 3.911zm2.888 4.028l-0.643 -0.96 -1.999 1.338c-0.552,0.37 -0.824,0.362 -0.782,-0.086 0,-0.171 0.035,-0.347 0.061,-0.535l0.276 -2.262 7.496 -5.02 2.144 0.64 0.684 0.17c0.243,0.194 0.196,0.342 -0.307,0.682l-0.024 0.016 -1.973 1.322 0.643 0.96 8.888 -5.954 -0.643 -0.96c-0.352,0.236 -0.621,0.422 -0.999,0.612 -0.693,0.331 -1.044,0.376 -1.826,0.175l-11.789 -3.323c-1.384,0.928 -2.769,1.855 -4.154,2.783l-1.572 12.272c-0.138,0.988 -0.243,1.173 -0.891,1.683l-0.281 0.207 0 0 -0.079 0.053 -0.578 0.387 0.643 0.96 0.657 -0.44 7.048 -4.72z"/>
  </g>
 </g>
</svg>
