<?xml version="1.0" encoding="UTF-8"?>
<!DOCTYPE svg PUBLIC "-//W3C//DTD SVG 1.1//EN" "http://www.w3.org/Graphics/SVG/1.1/DTD/svg11.dtd">
<svg xml:space="preserve" viewBox="0 0 498 522" width="498px" height="522px" version="1.1" style="shape-rendering:geometricPrecision; fill-rule:evenodd; clip-rule:evenodd" xmlns="http://www.w3.org/2000/svg" xmlns:xlink="http://www.w3.org/1999/xlink">
 <defs>
  <style type="text/css">
    .fil2 {fill:black;fill-opacity:0.05}
    .fil3 {fill:black;fill-opacity:0.25}
    .fil1 {fill:url(#id0)}
    .fil0 {fill:url(#id1);fill-opacity:0.5}
  </style>
  <linearGradient id="id0" gradientUnits="objectBoundingBox" x1="50%" y1="100%" x2="50%" y2="0%">
   <stop offset="0" style="stop-opacity:1; stop-color:#C00000"/>
   <stop offset="0.6" style="stop-opacity:1; stop-color:red"/>
   <stop offset="1" style="stop-opacity:1; stop-color:red"/>
  </linearGradient>
  <linearGradient id="id1" gradientUnits="objectBoundingBox" xlink:href="#id0" x1="50%" y1="100%" x2="50%" y2="0%">
  </linearGradient>
 </defs>
 <g>
  <g id="button-z">
   <path class="fil0" d="M393.569 147.172c12.107,0 21.921,9.815 21.921,21.921 0,12.107 -9.814,21.921 -21.921,21.921 -12.107,0 -21.921,-9.814 -21.921,-21.921 0,-12.106 9.814,-21.921 21.921,-21.921z"/>
   <path class="fil1" d="M393.569 148.306c11.48,0 20.787,9.307 20.787,20.787 0,11.48 -9.307,20.788 -20.787,20.788 -11.48,0 -20.787,-9.308 -20.787,-20.788 0,-11.48 9.307,-20.787 20.787,-20.787z"/>
   <path class="fil2" d="M393.569 189.881c11.479,0 20.786,-9.307 20.786,-20.786l0 -0.001c-5.109,5.702 -12.528,9.292 -20.786,9.292 -8.259,0 -15.678,-3.59 -20.786,-9.293l0 0.002c0,11.479 9.306,20.786 20.786,20.786z"/>
   <path class="fil3" d="M404.959 170.642l-1.411 -3.919c-0.908,0.327 -1.816,0.654 -2.724,0.981l0.211 0.584c0.045,0.125 0.067,0.274 0.112,0.399 0.213,1.462 -0.916,2.513 -4.112,3.664l-6.504 2.343 11.032 -12.783 -0.431 -1.195 -0.694 0.25 -17.343 6.249 1.422 3.947c0.861,-0.311 1.722,-0.621 2.584,-0.931l-0.218 -0.691c-0.522,-1.712 0.539,-2.691 4.846,-4.243l4.448 -1.603 -10.835 12.634 0.441 1.223 0.694 -0.25 18.482 -6.659z"/>
  </g>
 </g>
</svg>
