<?xml version="1.0" encoding="UTF-8"?>
<!DOCTYPE svg PUBLIC "-//W3C//DTD SVG 1.1//EN" "http://www.w3.org/Graphics/SVG/1.1/DTD/svg11.dtd">
<svg xml:space="preserve" viewBox="0 0 498 522" width="498px" height="522px" version="1.1" style="shape-rendering:geometricPrecision; fill-rule:evenodd; clip-rule:evenodd" xmlns="http://www.w3.org/2000/svg">
 <defs>
  <style type="text/css">
    .fil1 {fill:red}
    .fil2 {fill:#FF2727}
    .fil0 {fill:red;fill-opacity:0.5}
  </style>
 </defs>
 <g>
  <g id="dpad-up">
   <path class="fil0" d="M158.741 256.666l0 16.365c-1.367,6.324 -6.992,11.063 -13.724,11.063 -6.748,0 -12.383,-4.76 -13.734,-11.105l0 -16.323c0,-1.976 1.321,-3.641 3.245,-4.09 3.367,-0.786 6.877,-1.202 10.484,-1.202 3.607,0 7.117,0.416 10.484,1.202 1.924,0.449 3.245,2.114 3.245,4.09z"/>
   <path class="fil1" d="M156.149 257.457l0 15.533c0,1.577 0.277,3.089 0.784,4.491 -2.48,3.97 -6.889,6.613 -11.916,6.613 -5.031,0 -9.443,-2.646 -11.922,-6.622 0.505,-1.399 0.781,-2.908 0.781,-4.482l0 -15.533c0,-1.236 0.841,-2.277 2.05,-2.535 2.93,-0.625 5.969,-0.956 9.086,-0.956 3.116,0 6.156,0.331 9.086,0.956 1.209,0.258 2.051,1.299 2.051,2.535z"/>
   <path class="fil2" d="M156.149 257.457l0 15.533c0,1.577 0.277,3.089 0.784,4.491 -0.527,0.843 -1.14,1.626 -1.828,2.336 -0.992,-2.066 -1.548,-4.382 -1.548,-6.827l0 -11.474c0,-0.838 -0.583,-1.542 -1.407,-1.698 -2.312,-0.438 -4.698,-0.667 -7.138,-0.667 -2.439,0 -4.826,0.229 -7.138,0.667 -0.824,0.156 -1.407,0.86 -1.407,1.698l0.001 11.474c0,2.443 -0.555,4.756 -1.546,6.821 -0.687,-0.711 -1.301,-1.495 -1.827,-2.339 0.505,-1.399 0.781,-2.908 0.781,-4.482l0 -15.533c0,-1.236 0.841,-2.277 2.05,-2.535 2.93,-0.625 5.969,-0.956 9.086,-0.956 3.116,0 6.156,0.331 9.086,0.956 1.209,0.258 2.051,1.299 2.051,2.535z"/>
  </g>
 </g>
</svg>
