<?xml version="1.0" encoding="UTF-8"?>
<!DOCTYPE svg PUBLIC "-//W3C//DTD SVG 1.1//EN" "http://www.w3.org/Graphics/SVG/1.1/DTD/svg11.dtd">
<svg xml:space="preserve" viewBox="0 0 498 522" width="498px" height="522px" version="1.1" style="shape-rendering:geometricPrecision; fill-rule:evenodd; clip-rule:evenodd" xmlns="http://www.w3.org/2000/svg" xmlns:xlink="http://www.w3.org/1999/xlink">
 <defs>
  <style type="text/css">
    .fil18 {fill:#333333}
    .fil17 {fill:#333333}
    .fil4 {fill:#4D4D4D}
    .fil19 {fill:#585858}
    .fil22 {fill:#606060}
    .fil16 {fill:#666666}
    .fil21 {fill:#787878}
    .fil23 {fill:#909090}
    .fil15 {fill:#F0F0F0}
    .fil14 {fill:#F8F8F8}
    .fil38 {fill:black;fill-opacity:0.05}
    .fil1 {fill:black;fill-opacity:0.1}
    .fil10 {fill:black;fill-opacity:0.2}
    .fil42 {fill:black;fill-opacity:0.25}
    .fil30 {fill:#A8A8A8;fill-opacity:0.5}
    .fil26 {fill:white;fill-opacity:0.5}
    .fil28 {fill:url(#id0)}
    .fil5 {fill:url(#id1)}
    .fil27 {fill:url(#id2)}
    .fil29 {fill:url(#id3)}
    .fil32 {fill:url(#id4)}
    .fil11 {fill:url(#id5)}
    .fil2 {fill:url(#id6)}
    .fil34 {fill:url(#id7)}
    .fil31 {fill:url(#id8)}
    .fil0 {fill:url(#id9)}
    .fil13 {fill:url(#id10)}
    .fil33 {fill:url(#id11)}
    .fil43 {fill:url(#id12)}
    .fil7 {fill:url(#id13)}
    .fil47 {fill:url(#id14)}
    .fil52 {fill:url(#id15)}
    .fil25 {fill:url(#id16)}
    .fil24 {fill:url(#id17)}
    .fil49 {fill:url(#id18)}
    .fil20 {fill:url(#id19)}
    .fil53 {fill:url(#id20)}
    .fil37 {fill:url(#id21)}
    .fil46 {fill:url(#id22)}
    .fil40 {fill:url(#id23)}
    .fil36 {fill:url(#id24)}
    .fil44 {fill:url(#id25)}
    .fil8 {fill:url(#id26)}
    .fil50 {fill:url(#id27)}
    .fil41 {fill:url(#id28)}
    .fil6 {fill:url(#id29)}
    .fil9 {fill:url(#id30)}
    .fil3 {fill:url(#id31)}
    .fil12 {fill:url(#id32);fill-opacity:0.15}
    .fil48 {fill:url(#id33);fill-opacity:0.6}
    .fil51 {fill:url(#id34);fill-opacity:0.6}
    .fil45 {fill:url(#id35);fill-opacity:0.6}
    .fil35 {fill:url(#id36);fill-opacity:0.6}
    .fil39 {fill:url(#id37);fill-opacity:0.6}
    .shd0 {filter: drop-shadow(0px 1px .5px rgba(0, 0, 0, 0.2)) drop-shadow(0px 0px .5px rgba(0, 0, 0, 0.2))}
    .shd1 {filter: drop-shadow(0px 3px 3px rgba(0, 0, 0, 0.3)) drop-shadow(0px 1px 1px rgba(0, 0, 0, 0.3))}
  </style>
  <linearGradient id="id0" gradientUnits="userSpaceOnUse" x1="89.705" y1="202.219" x2="89.705" y2="122.849">
   <stop offset="0" style="stop-opacity:1; stop-color:#4D4D4D"/>
   <stop offset="1" style="stop-opacity:1; stop-color:#F0F0F0"/>
  </linearGradient>
  <linearGradient id="id1" gradientUnits="userSpaceOnUse" x1="89.705" y1="219.227" x2="89.705" y2="105.841">
   <stop offset="0" style="stop-opacity:1; stop-color:#666666"/>
   <stop offset="1" style="stop-opacity:1; stop-color:#E6E6E6"/>
  </linearGradient>
  <linearGradient id="id2" gradientUnits="objectBoundingBox" x1="50%" y1="100%" x2="50%" y2="0%">
   <stop offset="0" style="stop-opacity:1; stop-color:#CCCCCC"/>
   <stop offset="1" style="stop-opacity:1; stop-color:#E6E6E6"/>
  </linearGradient>
  <linearGradient id="id3" gradientUnits="userSpaceOnUse" x1="89.705" y1="192.77" x2="89.705" y2="132.298">
   <stop offset="0" style="stop-opacity:1; stop-color:#E6E6E6"/>
   <stop offset="1" style="stop-opacity:1; stop-color:gray"/>
  </linearGradient>
  <linearGradient id="id4" gradientUnits="userSpaceOnUse" x1="89.705" y1="186.156" x2="89.705" y2="138.912">
   <stop offset="0" style="stop-opacity:1; stop-color:#E6E6E6"/>
   <stop offset="0.63" style="stop-opacity:1; stop-color:#A6A6A6"/>
   <stop offset="1" style="stop-opacity:1; stop-color:#666666"/>
  </linearGradient>
  <linearGradient id="id5" gradientUnits="userSpaceOnUse" x1="240.205" y1="407.185" x2="278" y2="407.185">
   <stop offset="0" style="stop-opacity:1; stop-color:#CCCCCC"/>
   <stop offset="0.2" style="stop-opacity:1; stop-color:#CCCCCC"/>
   <stop offset="0.4" style="stop-opacity:1; stop-color:#999999"/>
   <stop offset="0.6" style="stop-opacity:1; stop-color:#999999"/>
   <stop offset="0.8" style="stop-opacity:1; stop-color:#CCCCCC"/>
   <stop offset="1" style="stop-opacity:1; stop-color:#CCCCCC"/>
  </linearGradient>
  <linearGradient id="id6" gradientUnits="userSpaceOnUse" x1="249" y1="479.064" x2="249" y2="1.631">
   <stop offset="0" style="stop-opacity:1; stop-color:#D6D6D6"/>
   <stop offset="0.45" style="stop-opacity:1; stop-color:#E7E7E7"/>
   <stop offset="1" style="stop-opacity:1; stop-color:#F8F8F8"/>
  </linearGradient>
  <linearGradient id="id7" gradientUnits="userSpaceOnUse" xlink:href="#id4" x1="89.705" y1="172.928" x2="89.705" y2="152.14">
  </linearGradient>
  <linearGradient id="id8" gradientUnits="objectBoundingBox" x1="50%" y1="100%" x2="50%" y2="0%">
   <stop offset="0" style="stop-opacity:1; stop-color:gray"/>
   <stop offset="0.63" style="stop-opacity:1; stop-color:#B3B3B3"/>
   <stop offset="1" style="stop-opacity:1; stop-color:#E6E6E6"/>
  </linearGradient>
  <linearGradient id="id9" gradientUnits="userSpaceOnUse" xlink:href="#id6" x1="249" y1="520.37" x2="249" y2="240.356">
  </linearGradient>
  <linearGradient id="id10" gradientUnits="userSpaceOnUse" x1="259.102" y1="414.745" x2="259.102" y2="399.626">
   <stop offset="0" style="stop-opacity:1; stop-color:#999999"/>
   <stop offset="0.3" style="stop-opacity:1; stop-color:#B3B3B3"/>
   <stop offset="0.65" style="stop-opacity:1; stop-color:#E6E6E6"/>
   <stop offset="1" style="stop-opacity:1; stop-color:#CCCCCC"/>
  </linearGradient>
  <linearGradient id="id11" gradientUnits="userSpaceOnUse" xlink:href="#id4" x1="89.705" y1="179.542" x2="89.705" y2="145.526">
  </linearGradient>
  <linearGradient id="id12" gradientUnits="objectBoundingBox" x1="50%" y1="99.9997%" x2="50%" y2="0%">
   <stop offset="0" style="stop-opacity:1; stop-color:gray"/>
   <stop offset="0.6" style="stop-opacity:1; stop-color:#B3B3B3"/>
   <stop offset="1" style="stop-opacity:1; stop-color:#C8C8C8"/>
  </linearGradient>
  <linearGradient id="id13" gradientUnits="userSpaceOnUse" x1="249" y1="378.859" x2="249" y2="322.166">
   <stop offset="0" style="stop-opacity:1; stop-color:#FCFCFC"/>
   <stop offset="1" style="stop-opacity:1; stop-color:#A3A3A3"/>
  </linearGradient>
  <linearGradient id="id14" gradientUnits="userSpaceOnUse" x1="323.275" y1="264.161" x2="323.275" y2="301.957">
   <stop offset="0" style="stop-opacity:1; stop-color:#00BF76"/>
   <stop offset="0.4" style="stop-opacity:1; stop-color:#00B870"/>
   <stop offset="1" style="stop-opacity:1; stop-color:#009159"/>
  </linearGradient>
  <linearGradient id="id15" gradientUnits="userSpaceOnUse" x1="426.136" y1="196.832" x2="426.136" y2="238.406">
   <stop offset="0" style="stop-opacity:1; stop-color:#67B3FF"/>
   <stop offset="0.4" style="stop-opacity:1; stop-color:#1990FF"/>
   <stop offset="1" style="stop-opacity:1; stop-color:#146DC2"/>
  </linearGradient>
  <linearGradient id="id16" gradientUnits="userSpaceOnUse" x1="145.012" y1="305.36" x2="145.012" y2="291.079">
   <stop offset="0" style="stop-opacity:1; stop-color:silver"/>
   <stop offset="0.35" style="stop-opacity:1; stop-color:#878787"/>
   <stop offset="1" style="stop-opacity:1; stop-color:#4D4D4D"/>
  </linearGradient>
  <linearGradient id="id17" gradientUnits="userSpaceOnUse" x1="145.012" y1="340.69" x2="145.012" y2="253.966">
   <stop offset="0" style="stop-opacity:1; stop-color:#9A9A9A"/>
   <stop offset="0.5" style="stop-opacity:1; stop-color:#8A8A8A"/>
   <stop offset="1" style="stop-opacity:1; stop-color:#909090"/>
  </linearGradient>
  <linearGradient id="id18" gradientUnits="userSpaceOnUse" x1="373.097" y1="224.481" x2="373.097" y2="266.054">
   <stop offset="0" style="stop-opacity:1; stop-color:#FFDE67"/>
   <stop offset="0.4" style="stop-opacity:1; stop-color:#FFCF0D"/>
   <stop offset="1" style="stop-opacity:1; stop-color:#D1A90B"/>
  </linearGradient>
  <linearGradient id="id19" gradientUnits="userSpaceOnUse" x1="145.012" y1="340.689" x2="145.012" y2="253.967">
   <stop offset="0" style="stop-opacity:1; stop-color:#8A8A8A"/>
   <stop offset="0.5" style="stop-opacity:1; stop-color:gray"/>
   <stop offset="1" style="stop-opacity:1; stop-color:#6C6C6C"/>
  </linearGradient>
  <linearGradient id="id20" gradientUnits="userSpaceOnUse" x1="426.136" y1="198.721" x2="426.136" y2="236.516">
   <stop offset="0" style="stop-opacity:1; stop-color:#339CFF"/>
   <stop offset="0.4" style="stop-opacity:1; stop-color:#1990FF"/>
   <stop offset="1" style="stop-opacity:1; stop-color:#1475CF"/>
  </linearGradient>
  <linearGradient id="id21" gradientUnits="userSpaceOnUse" x1="249" y1="369.41" x2="249" y2="331.615">
   <stop offset="0" style="stop-opacity:1; stop-color:#6F6F6F"/>
   <stop offset="1" style="stop-opacity:1; stop-color:#878787"/>
  </linearGradient>
  <linearGradient id="id22" gradientUnits="userSpaceOnUse" x1="323.275" y1="262.272" x2="323.275" y2="303.846">
   <stop offset="0" style="stop-opacity:1; stop-color:#29CC8D"/>
   <stop offset="0.4" style="stop-opacity:1; stop-color:#00B870"/>
   <stop offset="1" style="stop-opacity:1; stop-color:#008A55"/>
  </linearGradient>
  <linearGradient id="id23" gradientUnits="objectBoundingBox" x1="50.0001%" y1="100%" x2="50.0001%" y2="0%">
   <stop offset="0" style="stop-opacity:1; stop-color:#787878"/>
   <stop offset="0.5" style="stop-opacity:1; stop-color:#ABABAB"/>
   <stop offset="1" style="stop-opacity:1; stop-color:#D8D8D8"/>
  </linearGradient>
  <linearGradient id="id24" gradientUnits="userSpaceOnUse" x1="249" y1="371.3" x2="249" y2="329.725">
   <stop offset="0" style="stop-opacity:1; stop-color:#666666"/>
   <stop offset="1" style="stop-opacity:1; stop-color:#989898"/>
  </linearGradient>
  <linearGradient id="id25" gradientUnits="userSpaceOnUse" xlink:href="#id23" x1="393.569" y1="189.881" x2="393.569" y2="148.306">
  </linearGradient>
  <linearGradient id="id26" gradientUnits="userSpaceOnUse" x1="249" y1="377.348" x2="249" y2="323.678">
   <stop offset="0" style="stop-opacity:1; stop-color:#ECECEC"/>
   <stop offset="1" style="stop-opacity:1; stop-color:#B3B3B3"/>
  </linearGradient>
  <linearGradient id="id27" gradientUnits="userSpaceOnUse" x1="373.097" y1="226.37" x2="373.097" y2="264.165">
   <stop offset="0" style="stop-opacity:1; stop-color:#FFD633"/>
   <stop offset="0.4" style="stop-opacity:1; stop-color:#FFCF0D"/>
   <stop offset="1" style="stop-opacity:1; stop-color:#D9B00B"/>
  </linearGradient>
  <linearGradient id="id28" gradientUnits="userSpaceOnUse" xlink:href="#id12" x1="301.403" y1="242.705" x2="301.403" y2="204.909">
  </linearGradient>
  <linearGradient id="id29" gradientUnits="userSpaceOnUse" x1="145.013" y1="361.579" x2="145.013" y2="233.076">
   <stop offset="0" style="stop-opacity:1; stop-color:#F4F4F4"/>
   <stop offset="1" style="stop-opacity:1; stop-color:#C3C3C3"/>
  </linearGradient>
  <linearGradient id="id30" gradientUnits="userSpaceOnUse" x1="238.549" y1="412.763" x2="238.549" y2="401.608">
   <stop offset="0" style="stop-opacity:1; stop-color:#F8F8F8"/>
   <stop offset="0.3" style="stop-opacity:1; stop-color:#CCCCCC"/>
   <stop offset="0.7" style="stop-opacity:1; stop-color:#999999"/>
   <stop offset="1" style="stop-opacity:1; stop-color:#808080"/>
  </linearGradient>
  <linearGradient id="id31" gradientUnits="userSpaceOnUse" x1="68.453" y1="230.629" x2="68.453" y2="90.643">
   <stop offset="0" style="stop-opacity:1; stop-color:#CCCCCC"/>
   <stop offset="1" style="stop-opacity:1; stop-color:#FCFCFC"/>
  </linearGradient>
  <linearGradient id="id32" gradientUnits="userSpaceOnUse" x1="259.102" y1="414.745" x2="259.102" y2="399.626">
   <stop offset="0" style="stop-opacity:1; stop-color:black"/>
   <stop offset="0.3" style="stop-opacity:1; stop-color:black"/>
   <stop offset="0.7" style="stop-opacity:1; stop-color:#999999"/>
   <stop offset="1" style="stop-opacity:1; stop-color:white"/>
  </linearGradient>
  <linearGradient id="id33" gradientUnits="userSpaceOnUse" xlink:href="#id27" x1="373.097" y1="223.346" x2="373.097" y2="267.189">
  </linearGradient>
  <linearGradient id="id34" gradientUnits="userSpaceOnUse" xlink:href="#id20" x1="426.136" y1="195.697" x2="426.136" y2="239.54">
  </linearGradient>
  <linearGradient id="id35" gradientUnits="userSpaceOnUse" xlink:href="#id14" x1="323.275" y1="261.138" x2="323.275" y2="304.98">
  </linearGradient>
  <linearGradient id="id36" gradientUnits="userSpaceOnUse" xlink:href="#id21" x1="249" y1="372.434" x2="249" y2="328.591">
  </linearGradient>
  <linearGradient id="id37" gradientUnits="objectBoundingBox" x1="50.0001%" y1="99.9998%" x2="50.0001%" y2="0%">
   <stop offset="0" style="stop-opacity:1; stop-color:#666666"/>
   <stop offset="0.5" style="stop-opacity:1; stop-color:#8C8C8C"/>
   <stop offset="1" style="stop-opacity:1; stop-color:#CCCCCC"/>
  </linearGradient>
 </defs>
 <g>
  <g id="shell">
   <path class="fil0" d="M154.392 473.251c-3.414,10.132 -6.147,20.562 -8.147,31.239 -1.484,7.924 -8.084,13.594 -16.141,13.867l-59.027 2.002c-7.32,0.248 -13.7,-3.933 -16.393,-10.744 -33.831,-85.56 -52.029,-175.871 -52.029,-269.259l492.69 0c0,93.388 -18.198,183.699 -52.029,269.259 -2.693,6.811 -9.073,10.992 -16.393,10.744l-59.027 -2.002c-8.057,-0.273 -14.657,-5.943 -16.141,-13.867 -2,-10.677 -4.733,-21.107 -8.147,-31.239 -1.99,-5.908 -8.422,-9.11 -14.335,-7.135l-80.273 -225.76 -80.273 225.76c-5.913,-1.975 -12.345,1.227 -14.335,7.135z"/>
   <path class="fil1" d="M492.903 299.436c-11.196,43.587 -34.491,82.537 -66.234,113.299 -24.544,23.784 -54.134,42.669 -87.073,55.021 -2.873,-2.114 -6.696,-2.851 -10.323,-1.64l-1.674 -4.707c35.062,-11.685 66.468,-30.967 92.117,-55.823 43.638,-42.288 70.629,-100.706 70.629,-165.23l5 0c0,19.838 -0.825,39.536 -2.442,59.08zm-334.498 168.32c-32.94,-12.352 -62.53,-31.237 -87.074,-55.021 -31.743,-30.762 -55.038,-69.712 -66.234,-113.299 -1.617,-19.544 -2.442,-39.242 -2.442,-59.08l5 0c0,64.524 26.991,122.942 70.629,165.23 25.649,24.856 57.055,44.138 92.117,55.823l-1.674 4.707c-3.627,-1.211 -7.45,-0.474 -10.322,1.64z"/>
   <path class="fil2" d="M249 1.631c136.053,0 246.345,106.88 246.345,238.725 0,131.845 -110.292,238.726 -246.345,238.726 -136.053,0 -246.345,-106.881 -246.345,-238.726 0,-9.184 0.538,-18.247 1.581,-27.161 2.686,-22.938 3.757,-42.633 3.574,-65.728 -0.001,-0.138 -0.002,-0.277 -0.002,-0.416 0,-17.77 9.011,-33.436 22.713,-42.678 19.534,-13.175 35.471,-25.462 53.18,-41.006 43.705,-38.364 101.683,-61.736 165.299,-61.736z"/>
   <path class="fil3" d="M86.558 90.642c37.472,0 68.066,29.447 69.905,66.462 -2.764,-34.451 -31.596,-61.548 -66.758,-61.548 -36.992,0 -66.979,29.987 -66.979,66.978 0,36.991 29.987,66.979 66.979,66.979 9.305,0 18.166,-1.899 26.218,-5.328 -8.93,4.133 -18.877,6.444 -29.365,6.444 -38.656,0 -69.993,-31.337 -69.993,-69.993 0,-38.657 31.337,-69.994 69.993,-69.994z"/>
   <circle class="fil4" cx="89.705" cy="162.534" r="58.583"/>
   <circle class="fil5" cx="89.705" cy="162.534" r="56.693"/>
   <circle class="fil6" cx="145.013" cy="297.328" r="64.252"/>
   <circle class="fil7" cx="249" cy="350.513" r="28.346"/>
   <circle class="fil8" cx="249" cy="350.513" r="26.835"/>
   <path class="fil9" d="M238.898 399.626c-10.437,0 -18.898,3.385 -18.898,7.559 0,4.175 8.461,7.56 18.898,7.56l20.204 0c10.437,0 18.898,-3.385 18.898,-7.56 0,-4.174 -8.461,-7.559 -18.898,-7.559l-20.204 0zm0 -1l20.204 0c5.343,0 10.201,0.875 13.734,2.288 3.808,1.524 6.164,3.735 6.164,6.271 0,2.537 -2.356,4.748 -6.164,6.271 -3.533,1.414 -8.391,2.289 -13.734,2.289l-20.204 0c-5.343,0 -10.201,-0.875 -13.734,-2.289 -3.808,-1.523 -6.164,-3.734 -6.164,-6.271 0,-2.536 2.356,-4.747 6.164,-6.271 3.533,-1.413 8.391,-2.288 13.734,-2.288z"/>
   <path class="fil10" d="M238.898 399.626c-10.437,0 -18.898,3.385 -18.898,7.559 0,4.175 8.461,7.56 18.898,7.56l20.204 0c-10.436,0 -18.897,-3.385 -18.897,-7.56 0,-4.174 8.461,-7.559 18.897,-7.559l-20.204 0z"/>
   <g>
    <ellipse class="fil11" cx="259.102" cy="407.185" rx="18.898" ry="7.559"/>
    <path class="fil12" d="M259.102 399.626c10.437,0 18.898,3.385 18.898,7.559 0,4.175 -8.461,7.56 -18.898,7.56 -10.436,0 -18.897,-3.385 -18.897,-7.56 0,-4.174 8.461,-7.559 18.897,-7.559zm12.992 3.14c-3.305,-1.321 -7.898,-2.14 -12.992,-2.14 -5.094,0 -9.686,0.819 -12.991,2.14 -3.031,1.213 -4.906,2.782 -4.906,4.419 0,1.638 1.875,3.207 4.906,4.419 3.305,1.322 7.897,2.14 12.991,2.14 5.094,0 9.687,-0.818 12.992,-2.14 3.031,-1.212 4.906,-2.781 4.906,-4.419 0,-1.637 -1.875,-3.206 -4.906,-4.419z"/>
    <path class="fil13" d="M266.762 414.097c-0.952,0.169 -1.843,-0.054 -2.588,-0.649 -0.744,-0.594 -1.135,-1.394 -1.135,-2.324l0 -7.877c0,-0.93 0.391,-1.73 1.135,-2.324 0.745,-0.595 1.636,-0.818 2.588,-0.649 -2.342,-0.416 -4.933,-0.648 -7.66,-0.648 -2.727,0 -5.318,0.232 -7.659,0.648 0.952,-0.169 1.843,0.054 2.587,0.649 0.744,0.594 1.135,1.394 1.135,2.324l0 7.877c0,0.93 -0.391,1.73 -1.135,2.324 -0.744,0.595 -1.635,0.818 -2.587,0.649 2.341,0.416 4.932,0.648 7.659,0.648 2.727,0 5.318,-0.232 7.66,-0.648z"/>
   </g>
   <path id="press-start" class="fil14 shd0" d="M234.951 317.135c-0.362,0 -0.731,-0.03 -1.107,-0.088 -0.376,-0.059 -0.743,-0.15 -1.101,-0.272 -0.357,-0.123 -0.698,-0.277 -1.023,-0.464 -0.326,-0.187 -0.616,-0.411 -0.872,-0.672l0.968 -0.984c0.197,0.197 0.42,0.365 0.667,0.504 0.248,0.138 0.51,0.252 0.785,0.34 0.274,0.087 0.556,0.152 0.844,0.192 0.287,0.039 0.568,0.06 0.839,0.06 0.401,0 0.749,-0.015 1.045,-0.044 0.296,-0.029 0.537,-0.092 0.724,-0.188 0.229,-0.112 0.36,-0.237 0.391,-0.372 0.032,-0.136 -0.035,-0.262 -0.203,-0.376 -0.168,-0.115 -0.435,-0.211 -0.8,-0.288 -0.365,-0.077 -0.831,-0.114 -1.397,-0.108 -0.48,-0.016 -0.912,-0.074 -1.296,-0.172 -0.383,-0.099 -0.713,-0.231 -0.987,-0.396 -0.275,-0.165 -0.496,-0.355 -0.66,-0.568 -0.166,-0.213 -0.267,-0.446 -0.304,-0.696 0.01,-0.31 0.09,-0.586 0.24,-0.828 0.149,-0.243 0.358,-0.447 0.628,-0.612 0.269,-0.166 0.59,-0.291 0.964,-0.376 0.373,-0.086 0.789,-0.128 1.248,-0.128 0.304,0 0.617,0.02 0.94,0.06 0.322,0.039 0.646,0.108 0.972,0.204 0.325,0.096 0.645,0.223 0.96,0.38 0.314,0.157 0.618,0.353 0.912,0.588l-0.992 1c-0.214,-0.176 -0.437,-0.319 -0.668,-0.428 -0.232,-0.109 -0.469,-0.195 -0.709,-0.256 -0.239,-0.061 -0.478,-0.105 -0.715,-0.128 -0.237,-0.024 -0.471,-0.037 -0.7,-0.037 -0.214,0 -0.421,0.016 -0.621,0.045 -0.199,0.029 -0.377,0.069 -0.531,0.12 -0.155,0.05 -0.281,0.108 -0.376,0.171 -0.096,0.064 -0.144,0.131 -0.144,0.201 -0.006,0.122 0.157,0.225 0.488,0.308 0.33,0.082 0.8,0.137 1.407,0.164 0.641,0.026 1.186,0.084 1.637,0.172 0.45,0.088 0.817,0.215 1.1,0.38 0.282,0.164 0.488,0.372 0.615,0.62 0.128,0.247 0.192,0.54 0.192,0.876 0,0.261 -0.072,0.517 -0.215,0.768 -0.144,0.25 -0.358,0.475 -0.64,0.672 -0.283,0.197 -0.634,0.356 -1.052,0.476 -0.419,0.119 -0.903,0.18 -1.453,0.18zm10.633 -4.92l-2.984 0 0 4.696 -1.392 0 0 -4.696 -2.993 0 0 -1.385 7.369 0 0 1.385zm3.88 -1.385l3.856 6.081 -1.656 0 -0.712 -1.112 -3.84 0 -0.72 1.112 -1.656 0 3.856 -6.081 0.872 0zm-1.48 3.569l2.088 0c-0.096,-0.144 -0.181,-0.275 -0.252,-0.392 -0.072,-0.117 -0.146,-0.237 -0.22,-0.356 -0.075,-0.12 -0.157,-0.252 -0.244,-0.396 -0.088,-0.144 -0.197,-0.318 -0.324,-0.52l-1.048 1.664zm6.408 2.512l-1.408 0 0 -6.081 4.44 0c0.336,0 0.64,0.051 0.912,0.153 0.271,0.101 0.505,0.244 0.7,0.428 0.194,0.184 0.344,0.404 0.448,0.66 0.103,0.255 0.156,0.541 0.156,0.856 0,0.464 -0.103,0.861 -0.308,1.192 -0.206,0.33 -0.484,0.586 -0.836,0.768 0.08,0.16 0.168,0.337 0.264,0.532 0.095,0.194 0.192,0.386 0.288,0.576 0.096,0.189 0.185,0.365 0.268,0.528 0.082,0.162 0.148,0.292 0.196,0.388l-1.56 0 -0.976 -1.872 -2.584 0 0 1.872zm0 -3.28l3.032 0c0.25,0 0.45,-0.062 0.6,-0.185 0.149,-0.123 0.224,-0.298 0.224,-0.523 0,-0.215 -0.075,-0.387 -0.224,-0.515 -0.15,-0.129 -0.35,-0.193 -0.6,-0.193l-3.032 0 0 1.416zm12.592 -1.416l-2.984 0 0 4.696 -1.392 0 0 -4.696 -2.992 0 0 -1.385 7.368 0 0 1.385z"/>
   <path id="press-dpad-stick" class="fil15 shd0" d="M294.305 400.516c3.678,0 6.669,2.991 6.669,6.669 0,3.684 -2.986,6.67 -6.669,6.67 -3.678,0 -6.67,-2.991 -6.67,-6.67 0,-3.677 2.993,-6.669 6.67,-6.669zm0 2c-2.584,0 -4.669,2.085 -4.669,4.669 0,2.583 2.086,4.67 4.669,4.67 2.579,0 4.669,-2.09 4.669,-4.67 0,-2.582 -2.086,-4.669 -4.669,-4.669zm-91.61 -2l2 0 0 5.669 5.67 0 0 2.001 -5.67 0 0 5.669 -2 0 0 -5.669 -5.669 0 0 -2.001 5.669 0 0 -5.669z"/>
   <g>
    <path class="fil16" d="M196.092 89.104l13.984 -0.014c5.721,0 10.357,-4.623 10.357,-10.318 0,-5.706 -4.636,-10.329 -10.357,-10.329l-3.632 0.02c-0.286,0 -0.518,-0.235 -0.518,-0.524 0,-0.288 0.232,-0.524 0.518,-0.524l13.958 0.004 0.005 -4.379 -13.966 0c-2.7,0 -4.897,2.193 -4.897,4.888 0,2.698 2.197,4.883 4.897,4.883l3.649 0.048c3.278,0 5.93,2.644 5.93,5.905 0,3.264 -2.652,5.913 -5.93,5.913l-13.992 0 -0.006 4.427zm0.006 -5.455l13.992 0c2.709,0 4.9,-2.185 4.9,-4.885 0,-2.698 -2.191,-4.88 -4.9,-4.88l-3.649 -0.04c-3.272,0 -5.927,-2.646 -5.927,-5.916 0,-3.261 2.655,-5.907 5.927,-5.907l13.966 -0.003 -0.005 -4.396 -13.958 0c-5.715,0 -10.357,4.617 -10.357,10.318 0,5.7 4.642,10.32 10.357,10.32l3.612 0.005c0.274,0 0.507,0.225 0.507,0.507 0,0.278 -0.233,0.501 -0.507,0.501l-13.964 0.012 0.006 4.364 0 0zm0 0l0 0 0 0zm35.176 1.056c-2.426,0 -4.413,-1.933 -4.413,-4.402l0 -13.968c0,-2.376 1.987,-4.329 4.413,-4.329l14.926 0.003 0 -4.387 -14.926 0c-4.857,0 -8.792,3.92 -8.792,8.76l0 13.921c0,4.841 3.935,8.767 8.792,8.767l14.864 0.006 -0.003 -4.376 -14.861 0.005 0 0zm0 0l0 0 0 0zm-3.343 -18.322c0,-1.851 1.49,-3.352 3.343,-3.352l14.926 0 0 4.393 -12.859 0c-1.03,0 -1.045,1.022 -1.045,1.022l10.729 0 0 4.374 -15.099 0 0.005 -6.437 0 0zm0 0l0 0 0 0zm3.343 17.258c-1.848,0 -3.348,-1.492 -3.348,-3.338l0 -6.442 15.099 0 0 4.382 -10.729 0c0.014,1.03 1.044,1.035 1.044,1.035l12.797 0.001 -0.002 4.356 -14.861 0.006zm64.548 1.053l-11.674 0 0 4.379 17.765 0 -9.239 -27.336c-0.81,-2.666 -3.479,-4.628 -6.638,-4.628 -3.165,0 -5.825,1.953 -6.641,4.618l-8.29 24.314 0 -17.595 -12.424 0 0 4.374 8.033 0 0 11.874 -10.054 0c-2.417,0 -4.393,-1.97 -4.393,-4.391l0 -13.921c0,-2.423 1.961,-4.376 4.381,-4.376l14.457 0 0 -4.384 -14.49 0c-4.856,0 -8.79,3.92 -8.79,8.76l0 13.921c0,4.841 3.968,8.767 8.823,8.767l18.074 0.003 9.053 -26.583c0.367,-0.879 1.234,-1.5 2.253,-1.5 1.013,0 1.885,0.621 2.256,1.495l7.538 22.209 0 0zm-42.525 -4.391c0,1.855 1.5,3.364 3.351,3.364l9.03 0 0 -9.812 -6.986 0 0 4.388 2.593 0 0.008 1.03 -2.581 0c-0.564,0 -1.025,-0.466 -1.025,-1.03l-0.023 -9.8c0,0 -0.003,-1.019 1.036,-1.044l12.409 0 -0.005 -4.371 -14.457 0.003c-1.851,0 -3.351,1.501 -3.351,3.352l0 13.92 0.001 0zm0 0l0 0 0 0zm30.843 -0.504l-3.145 9.274 -5.18 0 8.874 -26.107c0.195,-0.558 0.725,-0.959 1.35,-0.959 0.626,0 1.161,0.402 1.35,0.959l7.018 20.731 -10.276 0 0.009 -3.898zm0.332 -0.978l3.104 0 -1.546 -4.595 -1.558 4.595zm11.35 5.873l0 0 0 0z"/>
   </g>
  </g>
  <g id="holes">
   <ellipse class="fil17" cx="145.012" cy="297.327" rx="52.115" ry="52.116"/>
   <circle class="fil17" cx="249" cy="350.513" r="23.433"/>
   <circle class="fil18" cx="301.403" cy="223.807" r="23.433"/>
   <circle class="fil18" cx="345.369" cy="191.891" r="23.433"/>
   <circle class="fil18" cx="393.569" cy="169.093" r="23.433"/>
   <circle class="fil18" cx="323.275" cy="283.059" r="23.433"/>
   <circle class="fil18" cx="373.097" cy="245.268" r="23.433"/>
   <circle class="fil18" cx="426.137" cy="217.619" r="23.433"/>
  </g>
  <g id="dpad">
   <circle class="fil19" cx="145.012" cy="297.328" r="48.546"/>
   <path class="fil20" d="M156.149 257.458l0 15.532c0,7.291 5.91,13.201 13.201,13.201l15.533 0c1.236,0 2.277,0.842 2.535,2.051 0.625,2.93 0.956,5.969 0.956,9.086 0,3.116 -0.331,6.156 -0.956,9.085 -0.258,1.21 -1.299,2.051 -2.535,2.051l-15.533 0c-7.291,0 -13.201,5.911 -13.201,13.202l0 15.532c0,1.237 -0.842,2.278 -2.051,2.535 -2.93,0.626 -5.969,0.957 -9.086,0.957 -3.116,0 -6.156,-0.331 -9.085,-0.957 -1.21,-0.257 -2.051,-1.298 -2.051,-2.535l0 -15.532c0,-7.291 -5.911,-13.202 -13.202,-13.202l-15.532 0c-1.236,0 -2.278,-0.841 -2.535,-2.051 -0.626,-2.929 -0.956,-5.968 -0.956,-9.085 0,-3.117 0.33,-6.156 0.956,-9.086 0.257,-1.209 1.298,-2.051 2.535,-2.051l15.532 0c7.291,0 13.202,-5.91 13.202,-13.201l0 -15.532c0,-1.237 0.841,-2.278 2.051,-2.536 2.929,-0.625 5.969,-0.956 9.085,-0.956 3.116,0 6.156,0.331 9.086,0.956 1.209,0.258 2.051,1.299 2.051,2.536z"/>
   <path class="fil21" d="M121.536 283.599l-20.388 0c4.483,-14.336 15.799,-25.652 30.136,-30.135l-0.005 20.392c0,5.381 -4.362,9.743 -9.743,9.743zm0 27.457l-20.388 0c4.483,14.338 15.799,25.653 30.136,30.135l-0.005 -20.391c0,-5.381 -4.362,-9.744 -9.743,-9.744zm37.21 9.744l-0.005 20.391c14.337,-4.482 25.652,-15.798 30.135,-30.135l-20.388 0c-5.38,0 -9.742,4.363 -9.742,9.744zm9.742 -37.201l20.388 0c-4.483,-14.336 -15.798,-25.652 -30.135,-30.135l0.005 20.392c0,5.381 4.362,9.743 9.742,9.743z"/>
   <path class="fil22" d="M113.464 327.4l2.878 -5.867c0.161,-0.328 0.449,-0.543 0.809,-0.602 0.36,-0.06 0.704,0.05 0.961,0.307l2.99 2.99c0.257,0.258 0.367,0.601 0.308,0.961 -0.06,0.361 -0.275,0.648 -0.603,0.81l-5.867 2.877c-0.429,0.211 -0.928,0.129 -1.266,-0.21 -0.338,-0.337 -0.42,-0.837 -0.21,-1.266zm60.219 -5.867l2.877 5.867c0.211,0.429 0.129,0.929 -0.209,1.266 -0.339,0.339 -0.837,0.421 -1.267,0.21l-5.866 -2.877c-0.329,-0.162 -0.544,-0.449 -0.603,-0.81 -0.06,-0.359 0.05,-0.703 0.308,-0.961l2.989 -2.99c0.258,-0.257 0.602,-0.367 0.961,-0.307 0.361,0.059 0.649,0.274 0.81,0.602zm-4.465 -52.876l5.866 -2.877c0.429,-0.211 0.929,-0.129 1.267,0.209 0.338,0.338 0.42,0.837 0.209,1.267l-2.877 5.866c-0.161,0.329 -0.449,0.543 -0.81,0.603 -0.359,0.06 -0.704,-0.051 -0.961,-0.308l-2.989 -2.989c-0.258,-0.258 -0.368,-0.602 -0.308,-0.961 0.059,-0.361 0.274,-0.649 0.603,-0.81zm-54.278 -2.877l5.867 2.877c0.328,0.161 0.543,0.449 0.603,0.81 0.059,0.359 -0.051,0.703 -0.308,0.961l-2.99 2.989c-0.258,0.258 -0.601,0.368 -0.961,0.308 -0.361,-0.06 -0.648,-0.274 -0.809,-0.603l-2.878 -5.866c-0.211,-0.429 -0.129,-0.929 0.21,-1.267 0.337,-0.338 0.837,-0.42 1.266,-0.209z"/>
   <path class="fil23" d="M116.77 321.743l-2.876 5.867c-0.121,0.245 -0.075,0.524 0.119,0.717 0.193,0.193 0.471,0.241 0.717,0.119l5.867 -2.877c0.187,-0.092 0.306,-0.251 0.34,-0.458 0.035,-0.209 -0.025,-0.394 -0.175,-0.544l-2.989 -2.99c-0.15,-0.149 -0.335,-0.209 -0.544,-0.174 -0.207,0.033 -0.366,0.152 -0.459,0.34zm59.361 5.867l-2.877 -5.867c-0.092,-0.188 -0.252,-0.307 -0.458,-0.34 -0.209,-0.035 -0.395,0.025 -0.544,0.174l-2.99 2.99c-0.15,0.15 -0.209,0.335 -0.175,0.544 0.034,0.207 0.153,0.366 0.341,0.458l5.867 2.877c0.246,0.121 0.523,0.075 0.717,-0.119 0.193,-0.193 0.24,-0.472 0.119,-0.717zm-0.836 -61.401l-5.867 2.877c-0.188,0.092 -0.307,0.251 -0.341,0.458 -0.034,0.209 0.025,0.394 0.175,0.544l2.99 2.99c0.149,0.149 0.335,0.209 0.544,0.174 0.206,-0.034 0.366,-0.152 0.458,-0.34l2.877 -5.867c0.121,-0.246 0.074,-0.523 -0.119,-0.717 -0.194,-0.193 -0.472,-0.24 -0.717,-0.119zm-54.698 2.877l-5.867 -2.877c-0.246,-0.121 -0.524,-0.074 -0.717,0.119 -0.194,0.194 -0.241,0.471 -0.119,0.717l2.876 5.867c0.093,0.187 0.252,0.306 0.459,0.34 0.208,0.035 0.394,-0.025 0.544,-0.174l2.989 -2.99c0.15,-0.15 0.21,-0.335 0.175,-0.544 -0.034,-0.207 -0.153,-0.366 -0.34,-0.458z"/>
   <path class="fil24" d="M156.149 257.457l0 15.533c0,7.291 5.91,13.201 13.201,13.201l15.533 0c1.236,0 2.277,0.842 2.535,2.051 0.625,2.93 0.956,5.969 0.956,9.086 0,3.116 -0.331,6.156 -0.956,9.085 -0.258,1.21 -1.299,2.051 -2.535,2.051l-15.533 0c-7.291,0 -13.201,5.911 -13.201,13.202l0 15.532c0,1.237 -0.842,2.278 -2.051,2.535 -2.93,0.626 -5.969,0.957 -9.086,0.957 -3.116,0 -6.156,-0.331 -9.085,-0.957 -1.21,-0.257 -2.051,-1.298 -2.051,-2.535l0 -15.532c0,-7.291 -5.911,-13.202 -13.202,-13.202l-15.532 0c-1.237,0 -2.277,-0.841 -2.535,-2.051 -0.626,-2.929 -0.956,-5.968 -0.956,-9.085 0,-3.117 0.33,-6.156 0.956,-9.086 0.258,-1.209 1.298,-2.051 2.535,-2.051l15.532 0c7.291,0 13.202,-5.91 13.202,-13.201l0 -15.533c0,-1.236 0.841,-2.277 2.051,-2.535 2.929,-0.625 5.969,-0.956 9.085,-0.956 3.116,0 6.156,0.331 9.086,0.956 1.209,0.258 2.051,1.299 2.051,2.535zm-2.592 15.533l0 -11.474c0,-0.838 -0.584,-1.542 -1.407,-1.698 -2.312,-0.438 -4.698,-0.667 -7.138,-0.667 -2.439,0 -4.826,0.229 -7.138,0.667 -0.824,0.156 -1.407,0.86 -1.407,1.698l0.001 11.474c0,4.361 -1.768,8.309 -4.626,11.168 -2.858,2.858 -6.807,4.625 -11.168,4.625l-11.474 0c-0.838,0 -1.542,0.584 -1.698,1.407 -0.437,2.312 -0.667,4.698 -0.667,7.138 0,2.439 0.23,4.826 0.667,7.138 0.156,0.824 0.86,1.407 1.698,1.407l11.474 -0.001c4.361,0 8.31,1.768 11.168,4.626 2.858,2.858 4.626,6.807 4.626,11.168l0 11.474c0,0.838 0.583,1.542 1.407,1.698 2.312,0.437 4.698,0.667 7.137,0.667 2.44,0 4.826,-0.23 7.139,-0.667 0.823,-0.156 1.406,-0.86 1.406,-1.698l0 -11.474c0,-4.361 1.767,-8.31 4.625,-11.168 2.859,-2.858 6.807,-4.626 11.168,-4.626l11.474 0c0.838,0 1.543,-0.583 1.698,-1.406 0.438,-2.312 0.667,-4.699 0.667,-7.138 0,-2.44 -0.229,-4.826 -0.667,-7.139 -0.156,-0.823 -0.86,-1.406 -1.698,-1.406l-11.474 0c-4.361,0 -8.309,-1.767 -11.168,-4.625 -2.858,-2.859 -4.625,-6.807 -4.625,-11.168z"/>
   <circle class="fil25" cx="145.012" cy="297.328" r="8.924"/>
   <path class="fil26" d="M154.853 260.254l0 -1.901c0,-0.966 -0.672,-1.777 -1.62,-1.956 -2.663,-0.503 -5.411,-0.768 -8.221,-0.768 -2.81,0 -5.558,0.265 -8.222,0.768 -0.948,0.18 -1.62,0.991 -1.62,1.956l0.001 1.901c0,-0.965 0.671,-1.775 1.62,-1.955 2.663,-0.504 5.411,-0.768 8.221,-0.768 2.81,0 5.558,0.264 8.221,0.768 0.949,0.179 1.62,0.99 1.62,1.955zm-47.068 27.625c-1.332,0 -2.453,0.55 -2.731,1.339 0.142,-1.292 0.715,-2.193 1.394,-2.193l14.226 0c8.006,0 14.496,-6.284 14.496,-14.035 0,8.223 -6.49,14.889 -14.496,14.889l-12.889 0zm74.455 0c1.332,0 2.452,0.55 2.73,1.339 -0.142,-1.292 -0.714,-2.193 -1.393,-2.193l-14.226 0c-8.007,0 -14.497,-6.284 -14.497,-14.035 0,8.223 6.49,14.889 14.497,14.889l12.889 0z"/>
  </g>
  <path class="fil27" d="M62.124 71.556l0 -60.414c0,-5.248 -4.264,-9.511 -9.512,-9.511l-9.324 0c-5.248,0 -9.511,4.263 -9.511,9.511l0 60.414 28.347 0z"/>
  <path class="fil27" d="M464.187 71.556l0 -60.414c0,-5.248 -4.264,-9.511 -9.511,-9.511l-9.325 0c-5.248,0 -9.51,4.263 -9.51,9.511l0 60.414 28.346 0z"/>
  <g id="stick">
   <circle class="fil28 shd1" cx="89.705" cy="162.534" r="39.685"/>
   <circle class="fil29" cx="89.705" cy="162.534" r="30.236"/>
   <path class="fil30" d="M89.705 130.298c17.802,0 32.236,14.433 32.236,32.236 0,17.803 -14.434,32.237 -32.236,32.237 -17.803,0 -32.237,-14.434 -32.237,-32.237 0,-17.803 14.434,-32.236 32.237,-32.236zm0 4c-15.596,0 -28.237,12.64 -28.237,28.236 0,15.596 12.641,28.236 28.237,28.236 15.595,0 28.236,-12.64 28.236,-28.236 0,-15.595 -12.641,-28.236 -28.236,-28.236z"/>
   <g>
    <path class="fil31" d="M89.705 137.412c13.873,0 25.122,11.248 25.122,25.122 0,13.874 -11.249,25.122 -25.122,25.122 -13.874,0 -25.123,-11.248 -25.123,-25.122 0,-13.874 11.249,-25.122 25.123,-25.122zm0 1.5c-13.047,0 -23.623,10.576 -23.623,23.622 0,13.046 10.576,23.622 23.623,23.622 13.046,0 23.622,-10.576 23.622,-23.622 0,-13.046 -10.576,-23.622 -23.622,-23.622z"/>
    <path class="fil31" d="M89.705 144.026c10.22,0 18.507,8.287 18.507,18.508 0,10.221 -8.287,18.508 -18.507,18.508 -10.221,0 -18.508,-8.287 -18.508,-18.508 0,-10.221 8.286,-18.508 18.508,-18.508zm0 1.5c-9.394,0 -17.008,7.615 -17.008,17.008 0,9.393 7.614,17.008 17.008,17.008 9.393,0 17.007,-7.615 17.007,-17.008 0,-9.393 -7.614,-17.008 -17.007,-17.008z"/>
    <path class="fil32" d="M89.705 138.912c13.046,0 23.622,10.576 23.622,23.622 0,13.046 -10.576,23.622 -23.622,23.622 -13.047,0 -23.623,-10.576 -23.623,-23.622 0,-13.046 10.576,-23.622 23.623,-23.622zm0 1.5c-12.219,0 -22.122,9.904 -22.122,22.122 0,12.218 9.903,22.122 22.122,22.122 12.217,0 22.121,-9.904 22.121,-22.122 0,-12.218 -9.903,-22.122 -22.121,-22.122z"/>
    <path class="fil31" d="M89.705 150.64c6.568,0 11.893,5.326 11.893,11.894 0,6.568 -5.325,11.894 -11.893,11.894 -6.569,0 -11.894,-5.326 -11.894,-11.894 0,-6.568 5.325,-11.894 11.894,-11.894zm0 1.5c-5.741,0 -10.394,4.654 -10.394,10.394 0,5.741 4.653,10.394 10.394,10.394 5.74,0 10.393,-4.653 10.393,-10.394 0,-5.74 -4.653,-10.394 -10.393,-10.394z"/>
    <path class="fil33" d="M89.705 145.526c9.393,0 17.007,7.615 17.007,17.008 0,9.393 -7.614,17.008 -17.007,17.008 -9.394,0 -17.008,-7.615 -17.008,-17.008 0,-9.393 7.614,-17.008 17.008,-17.008zm0 1.5c-8.566,0 -15.508,6.943 -15.508,15.508 0,8.565 6.942,15.508 15.508,15.508 8.565,0 15.507,-6.943 15.507,-15.508 0,-8.565 -6.942,-15.508 -15.507,-15.508z"/>
    <path class="fil34" d="M89.705 152.14c5.74,0 10.393,4.654 10.393,10.394 0,5.741 -4.653,10.394 -10.393,10.394 -5.741,0 -10.394,-4.653 -10.394,-10.394 0,-5.74 4.653,-10.394 10.394,-10.394zm0 1.501c-4.913,0 -8.894,3.981 -8.894,8.893 0,4.912 3.981,8.894 8.894,8.894 4.911,0 8.893,-3.982 8.893,-8.894 0,-4.912 -3.981,-8.893 -8.893,-8.893z"/>
   </g>
  </g>
  <g id="button-start">
   <path class="fil35" d="M249 328.591c12.107,0 21.921,9.815 21.921,21.922 0,12.106 -9.814,21.921 -21.921,21.921 -12.107,0 -21.921,-9.815 -21.921,-21.921 0,-12.107 9.814,-21.922 21.921,-21.922z"/>
   <path class="fil36" d="M249 329.725c11.48,0 20.787,9.308 20.787,20.788 0,11.48 -9.307,20.787 -20.787,20.787 -11.48,0 -20.787,-9.307 -20.787,-20.787 0,-11.48 9.307,-20.788 20.787,-20.788z"/>
   <path class="fil37" d="M249 331.615c10.437,0 18.898,8.461 18.898,18.898 0,10.436 -8.461,18.897 -18.898,18.897 -10.437,0 -18.898,-8.461 -18.898,-18.897 0,-10.437 8.461,-18.898 18.898,-18.898z"/>
   <path class="fil38" d="M249 371.3c11.48,0 20.786,-9.306 20.786,-20.786l0 -0.001c-5.109,5.703 -12.528,9.293 -20.786,9.293 -8.259,0 -15.678,-3.591 -20.786,-9.294l0 0.002c0,11.48 9.306,20.786 20.786,20.786z"/>
  </g>
  <g id="button-x">
   <path class="fil39" d="M301.403 201.886c12.106,0 21.921,9.815 21.921,21.921 0,12.107 -9.815,21.921 -21.921,21.921 -12.107,0 -21.921,-9.814 -21.921,-21.921 0,-12.106 9.814,-21.921 21.921,-21.921z"/>
   <path class="fil40" d="M301.403 203.02c11.48,0 20.787,9.307 20.787,20.787 0,11.48 -9.307,20.788 -20.787,20.788 -11.481,0 -20.788,-9.308 -20.788,-20.788 0,-11.48 9.307,-20.787 20.788,-20.787z"/>
   <path class="fil41" d="M301.403 204.91c10.436,0 18.897,8.46 18.897,18.897 0,10.437 -8.461,18.898 -18.897,18.898 -10.437,0 -18.898,-8.461 -18.898,-18.898 0,-10.437 8.461,-18.897 18.898,-18.897z"/>
   <path class="fil38" d="M301.402 244.595c11.48,0 20.787,-9.307 20.787,-20.786l0 -0.001c-5.109,5.702 -12.528,9.292 -20.787,9.292 -8.258,0 -15.678,-3.59 -20.786,-9.293l0 0.002c0,11.479 9.307,20.786 20.786,20.786z"/>
   <path class="fil42" d="M293.391 235.465l8.763 -5.868 -0.6 -0.896 -1.199 0.803c-0.216,0.143 -0.465,0.293 -0.806,0.503 -0.409,0.239 -0.655,0.244 -0.68,0.047 -0.025,-0.143 0.016,-0.348 0.22,-0.733l2.383 -4.463 4.784 -0.339c0.238,-0.017 0.451,-0.017 0.672,-0.005 0.222,0.011 0.23,0.237 -0.064,0.54 -0.119,0.132 -0.337,0.313 -0.886,0.683l-1.773 1.188 0.6 0.896 10.333 -6.921 -0.6 -0.896c-0.267,0.178 -0.533,0.357 -0.8,0.535 -0.827,0.552 -1.046,0.618 -2.401,0.791 -0.13,0.016 -0.262,0.033 -0.393,0.05l-7.775 0.495 2.832 -5.327 0.457 -0.858c0.06,-0.104 0.117,-0.206 0.188,-0.303 0.327,-0.45 0.644,-0.714 1.497,-1.287l1.071 -0.718 -0.608 -0.908 -8.394 5.622 0.608 0.909 1.717 -1.151c0.08,-0.053 0.393,-0.271 0.595,-0.311 0.135,-0.028 0.188,0.024 0.152,0.15 -0.036,0.127 -0.141,0.34 -0.498,1.008l-1.869 3.505 -3.556 0.129c-0.59,0.022 -0.77,0.018 -0.885,0.006 -0.197,-0.029 -0.216,-0.162 -0.091,-0.295 0.104,-0.109 0.164,-0.18 0.581,-0.46 0.589,-0.395 1.178,-0.789 1.768,-1.183l-0.609 -0.909 -10.088 6.757 0.609 0.908 1.472 -0.986c0.505,-0.338 1.347,-0.492 1.933,-0.566 0.172,-0.008 0.336,-0.029 0.475,-0.034l6.644 -0.432 -3.517 6.481 -0.515 0.931c-0.301,0.53 -0.765,0.955 -1.266,1.293l-1.081 0.723 0.6 0.896z"/>
  </g>
  <g id="button-y">
   <path class="fil39" d="M345.369 169.97c12.106,0 21.921,9.814 21.921,21.921 0,12.106 -9.815,21.921 -21.921,21.921 -12.107,0 -21.921,-9.815 -21.921,-21.921 0,-12.107 9.814,-21.921 21.921,-21.921z"/>
   <path class="fil40" d="M345.369 171.103c11.48,0 20.787,9.307 20.787,20.788 0,11.48 -9.307,20.787 -20.787,20.787 -11.481,0 -20.788,-9.307 -20.788,-20.787 0,-11.481 9.307,-20.788 20.788,-20.788z"/>
   <path class="fil43" d="M345.369 172.993c10.436,0 18.897,8.461 18.897,18.898 0,10.436 -8.461,18.897 -18.897,18.897 -10.437,0 -18.898,-8.461 -18.898,-18.897 0,-10.437 8.461,-18.898 18.898,-18.898z"/>
   <path class="fil38" d="M345.369 212.678c11.479,0 20.786,-9.306 20.786,-20.786l0 -0.001c-5.109,5.703 -12.528,9.293 -20.786,9.293 -8.259,0 -15.679,-3.591 -20.787,-9.294l0 0.002c0,11.48 9.307,20.786 20.787,20.786z"/>
   <path class="fil42" d="M352.659 194.164l0.659 -0.333 -0.487 -0.962 -0.659 0.333 -1.344 0.68 -0.006 0.002 -0.004 0.003c-0.103,0.051 -0.211,0.09 -0.313,0.142 -1.075,0.493 -1.22,0.468 -1.54,-0.166l-1.14 -2.254 3.15 -6.342c0.046,-0.106 0.118,-0.225 0.171,-0.318 0.382,-0.676 0.662,-0.996 1.091,-1.263 0.428,-0.217 0.857,-0.433 1.285,-0.649l-0.493 -0.976 -7.462 3.771 -0.659 0.333 0.487 0.962 0.658 -0.332 1.161 -0.587 0.004 -0.002 0.003 -0.002c0.079,-0.039 0.187,-0.077 0.263,-0.116 0.462,-0.2 0.654,-0.148 0.556,0.116 -0.033,0.133 -0.111,0.304 -0.307,0.702l-1.837 3.869 -4.228 -0.804c-0.331,-0.064 -0.556,-0.116 -0.721,-0.182 -0.278,-0.091 -0.173,-0.276 0.393,-0.596l0.004 -0.001 0.004 -0.002 0.004 -0.002 0.003 -0.002 0.005 -0.003 0.003 -0.002 0.004 -0.002 0.005 -0.001 0.004 -0.002 0.004 -0.003 0.003 -0.001 0.005 -0.002 0.004 -0.003 0.004 -0.002 0.004 -0.002 0.004 -0.002 0.004 -0.002 0.004 -0.002 0.004 -0.002 0.005 -0.002 0.004 -0.003 0.004 -0.002 0.005 -0.002 0.004 -0.002 0.004 -0.002 0.005 -0.003 0.004 -0.001 0.004 -0.003 0.004 -0.002 0.005 -0.002 0.004 -0.003 0.005 -0.001 0.004 -0.003 0.004 -0.002 0.004 -0.002 0.005 -0.002 0.004 -0.003 0.005 -0.002 0.004 -0.002 0.004 -0.002 0.005 -0.002 0.004 -0.002 0.004 -0.002 0.004 -0.003 0.005 -0.002 0.004 -0.002 0.004 -0.002 0.004 -0.002 0.004 -0.002 0.004 -0.002 0.005 -0.002 0.004 -0.002 0.003 -0.003 0.005 -0.002 0.003 -0.002 0.005 -0.002 0.004 -0.002 0.003 -0.002 0.005 -0.002 0.003 -0.001 0.004 -0.002 0.004 -0.003 0.004 -0.001 0.004 -0.002 1.107 -0.56 0.659 -0.333 -0.493 -0.976 -0.659 0.334 -8.648 4.371 -0.659 0.333 0.493 0.975 0.658 -0.333 0.027 -0.013 0.003 -0.001 0.002 -0.002 0.003 -0.001 0.003 -0.002 0.002 -0.001 0.003 -0.001 0.003 -0.001 0.003 -0.002 0.002 -0.001 0.003 -0.002 0.003 -0.001 0.003 -0.002 0.002 -0.001 0.004 -0.001 0.002 -0.002 0.003 -0.001 0.003 -0.002 0.003 -0.002 0.003 -0.001 0.003 -0.001 0.003 -0.002 0.003 -0.002 0.003 -0.001 0.003 -0.001 0.003 -0.002 0.004 -0.002 0.002 -0.001 0.003 -0.002 0.004 -0.002 0.003 -0.001 0.003 -0.001 0.003 -0.002 0.003 -0.002 0.003 -0.001 0.003 -0.001 0.003 -0.002 0.003 -0.002 0.003 -0.001 0.003 -0.002 0.004 -0.002 0.002 -0.001 0.004 -0.001 0.002 -0.002 0.004 -0.002 0.003 -0.001 0.002 -0.001 0.003 -0.002 0.003 -0.002 0.003 -0.001 0.003 -0.002 0.003 -0.001 0.003 -0.001 0.003 -0.002 0.002 -0.001 0.003 -0.002 0.003 -0.001 0.003 -0.002 0.002 -0.001 0.003 -0.001 0.003 -0.001 0.002 -0.002 0.003 -0.001 0.003 -0.001 0.002 -0.002c0.976,-0.427 1.352,-0.468 2.437,-0.288l6.842 1.226 0.912 1.806 0.254 0.501c0.32,0.633 0.254,0.765 -0.886,1.391 -0.06,0.044 -0.142,0.088 -0.213,0.125l-0.005 0.002 -0.004 0.001 -0.004 0.003 -0.004 0.002 -0.004 0.002 -0.004 0.002 -0.003 0.002 -0.004 0.002 -0.004 0.002 -0.004 0.002 -0.004 0.002 -1.345 0.68 -0.659 0.332 0.487 0.963 0.658 -0.333 9.941 -5.025z"/>
  </g>
  <g id="button-z">
   <path class="fil39" d="M393.569 147.172c12.106,0 21.921,9.815 21.921,21.921 0,12.107 -9.815,21.921 -21.921,21.921 -12.107,0 -21.921,-9.814 -21.921,-21.921 0,-12.106 9.814,-21.921 21.921,-21.921z"/>
   <path class="fil44" d="M393.569 148.306c11.48,0 20.787,9.307 20.787,20.787 0,11.48 -9.307,20.788 -20.787,20.788 -11.481,0 -20.788,-9.308 -20.788,-20.788 0,-11.48 9.307,-20.787 20.788,-20.787z"/>
   <path class="fil43" d="M393.569 150.196c10.436,0 18.897,8.46 18.897,18.897 0,10.437 -8.461,18.898 -18.897,18.898 -10.437,0 -18.898,-8.461 -18.898,-18.898 0,-10.437 8.461,-18.897 18.898,-18.897z"/>
   <path class="fil38" d="M393.569 189.881c11.479,0 20.786,-9.307 20.786,-20.786l0 -0.001c-5.109,5.702 -12.528,9.292 -20.786,9.292 -8.259,0 -15.679,-3.59 -20.787,-9.293l0 0.002c0,11.479 9.307,20.786 20.787,20.786z"/>
   <path class="fil42" d="M404.959 170.642l-1.411 -3.919c-0.908,0.327 -1.816,0.654 -2.724,0.981l0.211 0.584c0.045,0.125 0.067,0.274 0.112,0.399 0.213,1.462 -0.916,2.513 -4.112,3.664l-6.504 2.343 11.032 -12.783 -0.431 -1.195 -0.694 0.25 -17.343 6.249 1.422 3.947c0.861,-0.311 1.722,-0.621 2.584,-0.931l-0.218 -0.691c-0.522,-1.712 0.539,-2.691 4.846,-4.243l4.448 -1.603 -10.835 12.634 0.441 1.223 0.694 -0.25 18.482 -6.659z"/>
  </g>
  <g id="button-a">
   <path class="fil45" d="M323.275 304.98c12.106,0 21.921,-9.815 21.921,-21.921 0,-12.107 -9.815,-21.921 -21.921,-21.921 -12.107,0 -21.922,9.814 -21.922,21.921 0,12.106 9.815,21.921 21.922,21.921z"/>
   <circle class="fil46" cx="323.275" cy="283.059" r="20.787"/>
   <circle class="fil47" cx="323.275" cy="283.059" r="18.898"/>
   <path class="fil38" d="M323.275 303.847c11.48,0 20.787,-9.307 20.787,-20.788l0 -0.001c-5.109,5.703 -12.529,9.293 -20.787,9.293 -8.259,0 -15.679,-3.59 -20.788,-9.294l0 0.002c0,11.481 9.307,20.788 20.788,20.788z"/>
   <path class="fil42" d="M320.178 286.029l0.603 -5.439 5.236 1.528 -5.839 3.911zm2.888 4.028l-0.643 -0.96 -1.999 1.338c-0.552,0.37 -0.824,0.362 -0.782,-0.086 0,-0.171 0.035,-0.347 0.061,-0.535l0.276 -2.262 7.496 -5.02 2.144 0.64 0.684 0.17c0.243,0.194 0.196,0.342 -0.307,0.682l-0.024 0.016 -1.973 1.322 0.643 0.96 8.888 -5.954 -0.643 -0.96c-0.352,0.236 -0.621,0.422 -0.999,0.612 -0.693,0.331 -1.044,0.376 -1.826,0.175l-11.789 -3.323c-1.384,0.928 -2.769,1.855 -4.154,2.783l-1.572 12.272c-0.138,0.988 -0.243,1.173 -0.891,1.683l-0.281 0.207 0 0 -0.079 0.053 -0.578 0.387 0.643 0.96 0.657 -0.44 7.048 -4.72z"/>
  </g>
  <g id="button-b">
   <path class="fil48" d="M373.097 267.189c12.107,0 21.921,-9.815 21.921,-21.921 0,-12.107 -9.814,-21.922 -21.921,-21.922 -12.106,0 -21.921,9.815 -21.921,21.922 0,12.106 9.815,21.921 21.921,21.921z"/>
   <circle class="fil49" cx="373.097" cy="245.268" r="20.787"/>
   <circle class="fil50" cx="373.097" cy="245.268" r="18.898"/>
   <path class="fil38" d="M373.097 266.055c11.48,0 20.788,-9.307 20.788,-20.787l0 -0.001c-5.109,5.703 -12.529,9.293 -20.788,9.293 -8.259,0 -15.679,-3.591 -20.787,-9.294l0 0.002c0,11.48 9.307,20.787 20.787,20.787z"/>
   <path class="fil42" d="M372.474 250.637l-1.827 -3.617 4.182 -2.113c3.446,-1.742 5.527,-1.695 5.718,-0.195 0.131,1.033 -1.094,2.397 -3.665,3.697l-4.408 2.228zm-2.377 -4.704l-1.692 -3.348 3.984 -2.013c2.91,-1.471 4.75,-1.479 5.01,-0.192 0.174,0.976 -0.543,1.942 -2.344,3.011 -0.23,0.147 -0.45,0.263 -0.687,0.383l-0.013 0.006 -0.013 0.007 -0.013 0.007 -0.013 0.006 -0.013 0.007 -0.013 0.007 -0.013 0.006 -0.014 0.007 -0.013 0.006 -4.153 2.1zm8.506 2.935c4.266,-2.155 6.121,-3.82 6.694,-5.351 0.098,-0.298 0.161,-0.595 0.138,-0.85 -0.078,-1.769 -2.203,-2.114 -5.977,-0.809 -0.148,0.057 -0.304,0.1 -0.453,0.157l0.283 -0.213 0.374 -0.313c1.551,-1.281 2.24,-2.303 2.215,-3.195 -0.024,-2.222 -3.159,-2.251 -9.205,0.804l-13.163 6.654 0.528 1.045 2.175 -1.099 0.005 -0.003 0.005 -0.002 0.006 -0.003 0.005 -0.003 0.005 -0.002 0.005 -0.003 0.005 -0.003 0.005 -0.002 0.005 -0.003 0.005 -0.002 0.005 -0.003 0.005 -0.002 0.005 -0.002 0.004 -0.003 0.005 -0.002 0.005 -0.003 0.005 -0.002 0.005 -0.003 0.005 -0.002 0.004 -0.002 0.005 -0.003 0.005 -0.002 0.004 -0.003 0.005 -0.002 0.005 -0.003 0.004 -0.002 0.005 -0.002 0.005 -0.002 0.004 -0.003 0.005 -0.002 0.004 -0.003 0.005 -0.002 0.005 -0.002 0.004 -0.002 0.005 -0.003 0.005 -0.002 0.004 -0.003 0.005 -0.002 0.005 -0.002 0.004 -0.003 0.005 -0.002 0.005 -0.002 0.004 -0.003 0.005 -0.002 0.005 -0.002 0.005 -0.003 0.005 -0.002 0.004 -0.003 0.005 -0.002 0.005 -0.002 0.005 -0.003 0.005 -0.002 0.004 -0.003 0.005 -0.002 0.005 -0.003 0.006 -0.003 0.004 -0.002 0.005 -0.003 0.005 -0.002 0.006 -0.003 0.005 -0.002 0.005 -0.003 0.005 -0.002 0.005 -0.003c1.208,-0.558 1.364,-0.53 1.707,0.148l3.027 5.989 0.243 0.48c0.335,0.664 0.187,0.863 -0.949,1.491 -0.064,0.047 -0.153,0.094 -0.246,0.142l-0.005 0.002 -0.005 0.003 -0.006 0.002 -0.005 0.003 -0.005 0.003 -0.005 0.002 -0.006 0.003 -0.005 0.003 -0.005 0.002 -0.005 0.003 -0.006 0.003 -2.118 1.071 0.521 1.031 13.954 -7.054z"/>
  </g>
  <g id="button-c">
   <path class="fil51" d="M426.136 239.54c12.107,0 21.922,-9.815 21.922,-21.921 0,-12.107 -9.815,-21.922 -21.922,-21.922 -12.106,0 -21.921,9.815 -21.921,21.922 0,12.106 9.815,21.921 21.921,21.921z"/>
   <circle class="fil52" cx="426.136" cy="217.619" r="20.787"/>
   <circle class="fil53" cx="426.136" cy="217.619" r="18.898"/>
   <path class="fil38" d="M426.137 238.406c11.48,0 20.787,-9.307 20.787,-20.787l0 -0.001c-5.109,5.703 -12.529,9.293 -20.787,9.293 -8.259,0 -15.679,-3.591 -20.788,-9.294l0 0.002c0,11.48 9.307,20.787 20.788,20.787z"/>
   <path class="fil42" d="M431.949 210.425c-2.097,-0.138 -4.709,0.327 -7.304,1.313 -1.364,0.465 -2.737,1.076 -4.041,1.822 -4.069,2.341 -6.096,5.308 -5.1,7.978 0.706,1.865 2.617,2.875 5.329,3.025 1.82,0.102 3.835,-0.187 6.082,-0.862 0.76,-0.226 1.479,-0.468 2.157,-0.722 5.515,-1.906 8.516,-4.641 8.329,-7.06 0.009,-0.255 -0.048,-0.504 -0.158,-0.717 -1.002,0.361 -2.004,0.722 -3.007,1.084 0.065,0.178 0.069,0.378 0.069,0.563 -0.068,1.795 -1.999,3.634 -4.962,4.789 -0.451,0.15 -0.923,0.285 -1.412,0.401 -2.912,0.697 -5.426,0.256 -6.741,-1.524 -2.156,-2.996 0.241,-6.22 4.473,-7.875 0.295,-0.097 0.596,-0.188 0.904,-0.27 3.099,-0.831 5.459,-0.537 6.54,0.874 0.113,0.127 0.196,0.265 0.25,0.414 1.002,-0.361 2.004,-0.722 3.007,-1.083l-1.47 -4.08c-0.913,0.329 -1.826,0.658 -2.739,0.987l-0.206 0.943z"/>
  </g>
 </g>
</svg>
