<?xml version="1.0" encoding="UTF-8"?>
<!DOCTYPE svg PUBLIC "-//W3C//DTD SVG 1.1//EN" "http://www.w3.org/Graphics/SVG/1.1/DTD/svg11.dtd">
<svg xml:space="preserve" viewBox="0 0 498 522" width="498px" height="522px" version="1.1" style="shape-rendering:geometricPrecision; fill-rule:evenodd; clip-rule:evenodd" xmlns="http://www.w3.org/2000/svg" xmlns:xlink="http://www.w3.org/1999/xlink">
 <defs>
  <style type="text/css">
    .fil38 {fill:black;fill-opacity:0.05}
    .fil42 {fill:black;fill-opacity:0.25}
    .fil47 {fill:url(#id14)}
    .fil46 {fill:url(#id22)}
    .fil45 {fill:url(#id35);fill-opacity:0.6}
  </style>
  <linearGradient id="id14" gradientUnits="userSpaceOnUse" x1="323.275" y1="264.161" x2="323.275" y2="301.957">
   <stop offset="0" style="stop-opacity:1; stop-color:#00BF76"/>
   <stop offset="0.4" style="stop-opacity:1; stop-color:#00B870"/>
   <stop offset="1" style="stop-opacity:1; stop-color:#009159"/>
  </linearGradient>
  <linearGradient id="id22" gradientUnits="userSpaceOnUse" x1="323.275" y1="262.272" x2="323.275" y2="303.846">
   <stop offset="0" style="stop-opacity:1; stop-color:#29CC8D"/>
   <stop offset="0.4" style="stop-opacity:1; stop-color:#00B870"/>
   <stop offset="1" style="stop-opacity:1; stop-color:#008A55"/>
  </linearGradient>
  <linearGradient id="id35" gradientUnits="userSpaceOnUse" xlink:href="#id14" x1="323.275" y1="261.138" x2="323.275" y2="304.98">
  </linearGradient>
 </defs>
 <g>
  <g id="button-a">
   <path class="fil45" d="M323.275 304.98c12.106,0 21.921,-9.815 21.921,-21.921 0,-12.107 -9.815,-21.921 -21.921,-21.921 -12.107,0 -21.922,9.814 -21.922,21.921 0,12.106 9.815,21.921 21.922,21.921z"/>
   <circle class="fil46" cx="323.275" cy="283.059" r="20.787"/>
   <circle class="fil47" cx="323.275" cy="283.059" r="18.898"/>
   <path class="fil38" d="M323.275 303.847c11.48,0 20.787,-9.307 20.787,-20.788l0 -0.001c-5.109,5.703 -12.529,9.293 -20.787,9.293 -8.259,0 -15.679,-3.59 -20.788,-9.294l0 0.002c0,11.481 9.307,20.788 20.788,20.788z"/>
   <path class="fil42" d="M320.178 286.029l0.603 -5.439 5.236 1.528 -5.839 3.911zm2.888 4.028l-0.643 -0.96 -1.999 1.338c-0.552,0.37 -0.824,0.362 -0.782,-0.086 0,-0.171 0.035,-0.347 0.061,-0.535l0.276 -2.262 7.496 -5.02 2.144 0.64 0.684 0.17c0.243,0.194 0.196,0.342 -0.307,0.682l-0.024 0.016 -1.973 1.322 0.643 0.96 8.888 -5.954 -0.643 -0.96c-0.352,0.236 -0.621,0.422 -0.999,0.612 -0.693,0.331 -1.044,0.376 -1.826,0.175l-11.789 -3.323c-1.384,0.928 -2.769,1.855 -4.154,2.783l-1.572 12.272c-0.138,0.988 -0.243,1.173 -0.891,1.683l-0.281 0.207 0 0 -0.079 0.053 -0.578 0.387 0.643 0.96 0.657 -0.44 7.048 -4.72z"/>
  </g>
 </g>
</svg>
