<?xml version="1.0" encoding="UTF-8"?>
<!DOCTYPE svg PUBLIC "-//W3C//DTD SVG 1.1//EN" "http://www.w3.org/Graphics/SVG/1.1/DTD/svg11.dtd">
<svg xml:space="preserve" viewBox="0 0 498 522" width="498px" height="522px" version="1.1" style="shape-rendering:geometricPrecision; fill-rule:evenodd; clip-rule:evenodd" xmlns="http://www.w3.org/2000/svg" xmlns:xlink="http://www.w3.org/1999/xlink">
 <defs>
  <style type="text/css">
    .fil3 {fill:black;fill-opacity:0.05}
    .fil4 {fill:black;fill-opacity:0.25}
    .fil2 {fill:url(#id0)}
    .fil1 {fill:url(#id1)}
    .fil0 {fill:url(#id2);fill-opacity:0.6}
  </style>
  <linearGradient id="id0" gradientUnits="objectBoundingBox" x1="50%" y1="99.9997%" x2="50%" y2="0%">
   <stop offset="0" style="stop-opacity:1; stop-color:gray"/>
   <stop offset="0.6" style="stop-opacity:1; stop-color:#B3B3B3"/>
   <stop offset="1" style="stop-opacity:1; stop-color:#C8C8C8"/>
  </linearGradient>
  <linearGradient id="id1" gradientUnits="objectBoundingBox" x1="50.0001%" y1="100%" x2="50.0001%" y2="0%">
   <stop offset="0" style="stop-opacity:1; stop-color:#787878"/>
   <stop offset="0.5" style="stop-opacity:1; stop-color:#ABABAB"/>
   <stop offset="1" style="stop-opacity:1; stop-color:#D8D8D8"/>
  </linearGradient>
  <linearGradient id="id2" gradientUnits="objectBoundingBox" x1="50.0001%" y1="99.9998%" x2="50.0001%" y2="0%">
   <stop offset="0" style="stop-opacity:1; stop-color:#666666"/>
   <stop offset="0.5" style="stop-opacity:1; stop-color:#8C8C8C"/>
   <stop offset="1" style="stop-opacity:1; stop-color:#CCCCCC"/>
  </linearGradient>
 </defs>
 <g>
  <g id="button-y">
   <path class="fil0" d="M345.369 169.97c12.106,0 21.921,9.814 21.921,21.921 0,12.106 -9.815,21.921 -21.921,21.921 -12.107,0 -21.921,-9.815 -21.921,-21.921 0,-12.107 9.814,-21.921 21.921,-21.921z"/>
   <path class="fil1" d="M345.369 171.103c11.48,0 20.787,9.307 20.787,20.788 0,11.48 -9.307,20.787 -20.787,20.787 -11.481,0 -20.788,-9.307 -20.788,-20.787 0,-11.481 9.307,-20.788 20.788,-20.788z"/>
   <path class="fil2" d="M345.369 172.993c10.436,0 18.897,8.461 18.897,18.898 0,10.436 -8.461,18.897 -18.897,18.897 -10.437,0 -18.898,-8.461 -18.898,-18.897 0,-10.437 8.461,-18.898 18.898,-18.898z"/>
   <path class="fil3" d="M345.369 212.678c11.479,0 20.786,-9.306 20.786,-20.786l0 -0.001c-5.109,5.703 -12.528,9.293 -20.786,9.293 -8.259,0 -15.679,-3.591 -20.787,-9.294l0 0.002c0,11.48 9.307,20.786 20.787,20.786z"/>
   <path class="fil4" d="M352.659 194.164l0.659 -0.333 -0.487 -0.962 -0.659 0.333 -1.344 0.68 -0.006 0.002 -0.004 0.003c-0.103,0.051 -0.211,0.09 -0.313,0.142 -1.075,0.493 -1.22,0.468 -1.54,-0.166l-1.14 -2.254 3.15 -6.342c0.046,-0.106 0.118,-0.225 0.171,-0.318 0.382,-0.676 0.662,-0.996 1.091,-1.263 0.428,-0.217 0.857,-0.433 1.285,-0.649l-0.493 -0.976 -7.462 3.771 -0.659 0.333 0.487 0.962 0.658 -0.332 1.161 -0.587 0.004 -0.002 0.003 -0.002c0.079,-0.039 0.187,-0.077 0.263,-0.116 0.462,-0.2 0.654,-0.148 0.556,0.116 -0.033,0.133 -0.111,0.304 -0.307,0.702l-1.837 3.869 -4.228 -0.804c-0.331,-0.064 -0.556,-0.116 -0.721,-0.182 -0.278,-0.091 -0.173,-0.276 0.393,-0.596l0.004 -0.001 0.004 -0.002 0.004 -0.002 0.003 -0.002 0.005 -0.003 0.003 -0.002 0.004 -0.002 0.005 -0.001 0.004 -0.002 0.004 -0.003 0.003 -0.001 0.005 -0.002 0.004 -0.003 0.004 -0.002 0.004 -0.002 0.004 -0.002 0.004 -0.002 0.004 -0.002 0.004 -0.002 0.005 -0.002 0.004 -0.003 0.004 -0.002 0.005 -0.002 0.004 -0.002 0.004 -0.002 0.005 -0.003 0.004 -0.001 0.004 -0.003 0.004 -0.002 0.005 -0.002 0.004 -0.003 0.005 -0.001 0.004 -0.003 0.004 -0.002 0.004 -0.002 0.005 -0.002 0.004 -0.003 0.005 -0.002 0.004 -0.002 0.004 -0.002 0.005 -0.002 0.004 -0.002 0.004 -0.002 0.004 -0.003 0.005 -0.002 0.004 -0.002 0.004 -0.002 0.004 -0.002 0.004 -0.002 0.004 -0.002 0.005 -0.002 0.004 -0.002 0.003 -0.003 0.005 -0.002 0.003 -0.002 0.005 -0.002 0.004 -0.002 0.003 -0.002 0.005 -0.002 0.003 -0.001 0.004 -0.002 0.004 -0.003 0.004 -0.001 0.004 -0.002 1.107 -0.56 0.659 -0.333 -0.493 -0.976 -0.659 0.334 -8.648 4.371 -0.659 0.333 0.493 0.975 0.658 -0.333 0.027 -0.013 0.003 -0.001 0.002 -0.002 0.003 -0.001 0.003 -0.002 0.002 -0.001 0.003 -0.001 0.003 -0.001 0.003 -0.002 0.002 -0.001 0.003 -0.002 0.003 -0.001 0.003 -0.002 0.002 -0.001 0.004 -0.001 0.002 -0.002 0.003 -0.001 0.003 -0.002 0.003 -0.002 0.003 -0.001 0.003 -0.001 0.003 -0.002 0.003 -0.002 0.003 -0.001 0.003 -0.001 0.003 -0.002 0.004 -0.002 0.002 -0.001 0.003 -0.002 0.004 -0.002 0.003 -0.001 0.003 -0.001 0.003 -0.002 0.003 -0.002 0.003 -0.001 0.003 -0.001 0.003 -0.002 0.003 -0.002 0.003 -0.001 0.003 -0.002 0.004 -0.002 0.002 -0.001 0.004 -0.001 0.002 -0.002 0.004 -0.002 0.003 -0.001 0.002 -0.001 0.003 -0.002 0.003 -0.002 0.003 -0.001 0.003 -0.002 0.003 -0.001 0.003 -0.001 0.003 -0.002 0.002 -0.001 0.003 -0.002 0.003 -0.001 0.003 -0.002 0.002 -0.001 0.003 -0.001 0.003 -0.001 0.002 -0.002 0.003 -0.001 0.003 -0.001 0.002 -0.002c0.976,-0.427 1.352,-0.468 2.437,-0.288l6.842 1.226 0.912 1.806 0.254 0.501c0.32,0.633 0.254,0.765 -0.886,1.391 -0.06,0.044 -0.142,0.088 -0.213,0.125l-0.005 0.002 -0.004 0.001 -0.004 0.003 -0.004 0.002 -0.004 0.002 -0.004 0.002 -0.003 0.002 -0.004 0.002 -0.004 0.002 -0.004 0.002 -0.004 0.002 -1.345 0.68 -0.659 0.332 0.487 0.963 0.658 -0.333 9.941 -5.025z"/>
  </g>
 </g>
</svg>
