<?xml version="1.0" encoding="UTF-8"?>
<!DOCTYPE svg PUBLIC "-//W3C//DTD SVG 1.1//EN" "http://www.w3.org/Graphics/SVG/1.1/DTD/svg11.dtd">
<svg xml:space="preserve" viewBox="0 0 498 522" width="498px" height="522px" version="1.1" style="shape-rendering:geometricPrecision; fill-rule:evenodd; clip-rule:evenodd" xmlns="http://www.w3.org/2000/svg" xmlns:xlink="http://www.w3.org/1999/xlink">
 <defs>
  <style type="text/css">
    .fil38 {fill:black;fill-opacity:0.05}
    .fil42 {fill:black;fill-opacity:0.25}
    .fil49 {fill:url(#id18)}
    .fil50 {fill:url(#id27)}
    .fil48 {fill:url(#id33);fill-opacity:0.6}
  </style>
  <linearGradient id="id18" gradientUnits="userSpaceOnUse" x1="373.097" y1="224.481" x2="373.097" y2="266.054">
   <stop offset="0" style="stop-opacity:1; stop-color:#FFDE67"/>
   <stop offset="0.4" style="stop-opacity:1; stop-color:#FFCF0D"/>
   <stop offset="1" style="stop-opacity:1; stop-color:#D1A90B"/>
  </linearGradient>
  <linearGradient id="id27" gradientUnits="userSpaceOnUse" x1="373.097" y1="226.37" x2="373.097" y2="264.165">
   <stop offset="0" style="stop-opacity:1; stop-color:#FFD633"/>
   <stop offset="0.4" style="stop-opacity:1; stop-color:#FFCF0D"/>
   <stop offset="1" style="stop-opacity:1; stop-color:#D9B00B"/>
  </linearGradient>
  <linearGradient id="id33" gradientUnits="userSpaceOnUse" xlink:href="#id27" x1="373.097" y1="223.346" x2="373.097" y2="267.189">
  </linearGradient>
 </defs>
 <g>
  <g id="button-b">
   <path class="fil48" d="M373.097 267.189c12.107,0 21.921,-9.815 21.921,-21.921 0,-12.107 -9.814,-21.922 -21.921,-21.922 -12.106,0 -21.921,9.815 -21.921,21.922 0,12.106 9.815,21.921 21.921,21.921z"/>
   <circle class="fil49" cx="373.097" cy="245.268" r="20.787"/>
   <circle class="fil50" cx="373.097" cy="245.268" r="18.898"/>
   <path class="fil38" d="M373.097 266.055c11.48,0 20.788,-9.307 20.788,-20.787l0 -0.001c-5.109,5.703 -12.529,9.293 -20.788,9.293 -8.259,0 -15.679,-3.591 -20.787,-9.294l0 0.002c0,11.48 9.307,20.787 20.787,20.787z"/>
   <path class="fil42" d="M372.474 250.637l-1.827 -3.617 4.182 -2.113c3.446,-1.742 5.527,-1.695 5.718,-0.195 0.131,1.033 -1.094,2.397 -3.665,3.697l-4.408 2.228zm-2.377 -4.704l-1.692 -3.348 3.984 -2.013c2.91,-1.471 4.75,-1.479 5.01,-0.192 0.174,0.976 -0.543,1.942 -2.344,3.011 -0.23,0.147 -0.45,0.263 -0.687,0.383l-0.013 0.006 -0.013 0.007 -0.013 0.007 -0.013 0.006 -0.013 0.007 -0.013 0.007 -0.013 0.006 -0.014 0.007 -0.013 0.006 -4.153 2.1zm8.506 2.935c4.266,-2.155 6.121,-3.82 6.694,-5.351 0.098,-0.298 0.161,-0.595 0.138,-0.85 -0.078,-1.769 -2.203,-2.114 -5.977,-0.809 -0.148,0.057 -0.304,0.1 -0.453,0.157l0.283 -0.213 0.374 -0.313c1.551,-1.281 2.24,-2.303 2.215,-3.195 -0.024,-2.222 -3.159,-2.251 -9.205,0.804l-13.163 6.654 0.528 1.045 2.175 -1.099 0.005 -0.003 0.005 -0.002 0.006 -0.003 0.005 -0.003 0.005 -0.002 0.005 -0.003 0.005 -0.003 0.005 -0.002 0.005 -0.003 0.005 -0.002 0.005 -0.003 0.005 -0.002 0.005 -0.002 0.004 -0.003 0.005 -0.002 0.005 -0.003 0.005 -0.002 0.005 -0.003 0.005 -0.002 0.004 -0.002 0.005 -0.003 0.005 -0.002 0.004 -0.003 0.005 -0.002 0.005 -0.003 0.004 -0.002 0.005 -0.002 0.005 -0.002 0.004 -0.003 0.005 -0.002 0.004 -0.003 0.005 -0.002 0.005 -0.002 0.004 -0.002 0.005 -0.003 0.005 -0.002 0.004 -0.003 0.005 -0.002 0.005 -0.002 0.004 -0.003 0.005 -0.002 0.005 -0.002 0.004 -0.003 0.005 -0.002 0.005 -0.002 0.005 -0.003 0.005 -0.002 0.004 -0.003 0.005 -0.002 0.005 -0.002 0.005 -0.003 0.005 -0.002 0.004 -0.003 0.005 -0.002 0.005 -0.003 0.006 -0.003 0.004 -0.002 0.005 -0.003 0.005 -0.002 0.006 -0.003 0.005 -0.002 0.005 -0.003 0.005 -0.002 0.005 -0.003c1.208,-0.558 1.364,-0.53 1.707,0.148l3.027 5.989 0.243 0.48c0.335,0.664 0.187,0.863 -0.949,1.491 -0.064,0.047 -0.153,0.094 -0.246,0.142l-0.005 0.002 -0.005 0.003 -0.006 0.002 -0.005 0.003 -0.005 0.003 -0.005 0.002 -0.006 0.003 -0.005 0.003 -0.005 0.002 -0.005 0.003 -0.006 0.003 -2.118 1.071 0.521 1.031 13.954 -7.054z"/>
  </g>
 </g>
</svg>
