<?xml version="1.0" encoding="UTF-8"?>
<!DOCTYPE svg PUBLIC "-//W3C//DTD SVG 1.1//EN" "http://www.w3.org/Graphics/SVG/1.1/DTD/svg11.dtd">
<svg xml:space="preserve" viewBox="0 0 498 522" width="498px" height="522px" version="1.1" style="shape-rendering:geometricPrecision; fill-rule:evenodd; clip-rule:evenodd" xmlns="http://www.w3.org/2000/svg" xmlns:xlink="http://www.w3.org/1999/xlink">
 <defs>
  <style type="text/css">
    .fil18 {fill:#333333}
    .fil17 {fill:#333333}
    .fil4 {fill:#4D4D4D}
    .fil19 {fill:#585858}
    .fil22 {fill:#606060}
    .fil16 {fill:#666666}
    .fil21 {fill:#787878}
    .fil23 {fill:#909090}
    .fil15 {fill:#F0F0F0}
    .fil14 {fill:#F8F8F8}
    .fil1 {fill:black;fill-opacity:0.1}
    .fil10 {fill:black;fill-opacity:0.2}
    .fil26 {fill:white;fill-opacity:0.5}
    .fil5 {fill:url(#id0)}
    .fil11 {fill:url(#id1)}
    .fil2 {fill:url(#id2)}
    .fil0 {fill:url(#id3)}
    .fil13 {fill:url(#id4)}
    .fil7 {fill:url(#id5)}
    .fil25 {fill:url(#id6)}
    .fil24 {fill:url(#id7)}
    .fil20 {fill:url(#id8)}
    .fil8 {fill:url(#id9)}
    .fil6 {fill:url(#id10)}
    .fil9 {fill:url(#id11)}
    .fil3 {fill:url(#id12)}
    .fil12 {fill:url(#id13);fill-opacity:0.149020}
    .shd0 {filter: drop-shadow(0px 1px .5px rgba(0, 0, 0, 0.2)) drop-shadow(0px 0px .5px rgba(0, 0, 0, 0.2))}
  </style>
  <linearGradient id="id0" gradientUnits="userSpaceOnUse" x1="89.705" y1="219.227" x2="89.705" y2="105.841">
   <stop offset="0" style="stop-opacity:1; stop-color:#666666"/>
   <stop offset="1" style="stop-opacity:1; stop-color:#E6E6E6"/>
  </linearGradient>
  <linearGradient id="id1" gradientUnits="userSpaceOnUse" x1="240.205" y1="407.185" x2="278" y2="407.185">
   <stop offset="0" style="stop-opacity:1; stop-color:#CCCCCC"/>
   <stop offset="0.2" style="stop-opacity:1; stop-color:#CCCCCC"/>
   <stop offset="0.4" style="stop-opacity:1; stop-color:#999999"/>
   <stop offset="0.6" style="stop-opacity:1; stop-color:#999999"/>
   <stop offset="0.8" style="stop-opacity:1; stop-color:#CCCCCC"/>
   <stop offset="1" style="stop-opacity:1; stop-color:#CCCCCC"/>
  </linearGradient>
  <linearGradient id="id2" gradientUnits="userSpaceOnUse" x1="249" y1="479.064" x2="249" y2="1.631">
   <stop offset="0" style="stop-opacity:1; stop-color:#D6D6D6"/>
   <stop offset="0.45" style="stop-opacity:1; stop-color:#E7E7E7"/>
   <stop offset="1" style="stop-opacity:1; stop-color:#F8F8F8"/>
  </linearGradient>
  <linearGradient id="id3" gradientUnits="userSpaceOnUse" xlink:href="#id2" x1="249" y1="520.37" x2="249" y2="240.356">
  </linearGradient>
  <linearGradient id="id4" gradientUnits="userSpaceOnUse" x1="259.102" y1="414.745" x2="259.102" y2="399.626">
   <stop offset="0" style="stop-opacity:1; stop-color:#999999"/>
   <stop offset="0.3" style="stop-opacity:1; stop-color:#B3B3B3"/>
   <stop offset="0.65" style="stop-opacity:1; stop-color:#E6E6E6"/>
   <stop offset="1" style="stop-opacity:1; stop-color:#CCCCCC"/>
  </linearGradient>
  <linearGradient id="id5" gradientUnits="userSpaceOnUse" x1="249" y1="378.859" x2="249" y2="322.166">
   <stop offset="0" style="stop-opacity:1; stop-color:#FCFCFC"/>
   <stop offset="1" style="stop-opacity:1; stop-color:#A3A3A3"/>
  </linearGradient>
  <linearGradient id="id6" gradientUnits="userSpaceOnUse" x1="145.012" y1="305.36" x2="145.012" y2="291.079">
   <stop offset="0" style="stop-opacity:1; stop-color:silver"/>
   <stop offset="0.35" style="stop-opacity:1; stop-color:#878787"/>
   <stop offset="1" style="stop-opacity:1; stop-color:#4D4D4D"/>
  </linearGradient>
  <linearGradient id="id7" gradientUnits="userSpaceOnUse" x1="145.012" y1="340.69" x2="145.012" y2="253.966">
   <stop offset="0" style="stop-opacity:1; stop-color:#9A9A9A"/>
   <stop offset="0.5" style="stop-opacity:1; stop-color:#8A8A8A"/>
   <stop offset="1" style="stop-opacity:1; stop-color:#909090"/>
  </linearGradient>
  <linearGradient id="id8" gradientUnits="userSpaceOnUse" x1="145.012" y1="340.689" x2="145.012" y2="253.967">
   <stop offset="0" style="stop-opacity:1; stop-color:#8A8A8A"/>
   <stop offset="0.5" style="stop-opacity:1; stop-color:gray"/>
   <stop offset="1" style="stop-opacity:1; stop-color:#6C6C6C"/>
  </linearGradient>
  <linearGradient id="id9" gradientUnits="userSpaceOnUse" x1="249" y1="377.348" x2="249" y2="323.678">
   <stop offset="0" style="stop-opacity:1; stop-color:#ECECEC"/>
   <stop offset="1" style="stop-opacity:1; stop-color:#B3B3B3"/>
  </linearGradient>
  <linearGradient id="id10" gradientUnits="userSpaceOnUse" x1="145.013" y1="361.579" x2="145.013" y2="233.076">
   <stop offset="0" style="stop-opacity:1; stop-color:#F4F4F4"/>
   <stop offset="1" style="stop-opacity:1; stop-color:#C3C3C3"/>
  </linearGradient>
  <linearGradient id="id11" gradientUnits="userSpaceOnUse" x1="238.549" y1="412.763" x2="238.549" y2="401.608">
   <stop offset="0" style="stop-opacity:1; stop-color:#F8F8F8"/>
   <stop offset="0.3" style="stop-opacity:1; stop-color:#CCCCCC"/>
   <stop offset="0.7" style="stop-opacity:1; stop-color:#999999"/>
   <stop offset="1" style="stop-opacity:1; stop-color:gray"/>
  </linearGradient>
  <linearGradient id="id12" gradientUnits="userSpaceOnUse" x1="68.453" y1="230.629" x2="68.453" y2="90.643">
   <stop offset="0" style="stop-opacity:1; stop-color:#CCCCCC"/>
   <stop offset="1" style="stop-opacity:1; stop-color:#FCFCFC"/>
  </linearGradient>
  <linearGradient id="id13" gradientUnits="userSpaceOnUse" x1="259.102" y1="414.745" x2="259.102" y2="399.626">
   <stop offset="0" style="stop-opacity:1; stop-color:black"/>
   <stop offset="0.3" style="stop-opacity:1; stop-color:black"/>
   <stop offset="0.7" style="stop-opacity:1; stop-color:#999999"/>
   <stop offset="1" style="stop-opacity:1; stop-color:white"/>
  </linearGradient>
 </defs>
 <g>
  <g id="shell">
   <path class="fil0" d="M154.392 473.251c-3.414,10.132 -6.147,20.562 -8.147,31.239 -1.484,7.924 -8.084,13.594 -16.141,13.867l-59.027 2.002c-7.32,0.248 -13.7,-3.933 -16.393,-10.744 -33.831,-85.56 -52.029,-175.871 -52.029,-269.259l492.69 0c0,93.388 -18.198,183.699 -52.029,269.259 -2.693,6.811 -9.073,10.992 -16.393,10.744l-59.027 -2.002c-8.057,-0.273 -14.657,-5.943 -16.141,-13.867 -2,-10.677 -4.733,-21.107 -8.147,-31.239 -1.99,-5.908 -8.422,-9.11 -14.335,-7.135l-80.273 -225.76 -80.273 225.76c-5.913,-1.975 -12.345,1.227 -14.335,7.135z"/>
   <path class="fil1" d="M492.903 299.436c-11.196,43.587 -34.491,82.537 -66.234,113.299 -24.544,23.784 -54.134,42.669 -87.073,55.021 -2.873,-2.114 -6.696,-2.851 -10.323,-1.64l-1.674 -4.707c35.062,-11.685 66.468,-30.967 92.117,-55.823 43.638,-42.288 70.629,-100.706 70.629,-165.23l5 0c0,19.838 -0.825,39.536 -2.442,59.08zm-334.498 168.32c-32.94,-12.352 -62.53,-31.237 -87.074,-55.021 -31.743,-30.762 -55.038,-69.712 -66.234,-113.299 -1.617,-19.544 -2.442,-39.242 -2.442,-59.08l5 0c0,64.524 26.991,122.942 70.629,165.23 25.649,24.856 57.055,44.138 92.117,55.823l-1.674 4.707c-3.627,-1.211 -7.45,-0.474 -10.322,1.64z"/>
   <path class="fil2" d="M249 1.631c136.053,0 246.345,106.88 246.345,238.725 0,131.845 -110.292,238.726 -246.345,238.726 -136.053,0 -246.345,-106.881 -246.345,-238.726 0,-9.184 0.538,-18.247 1.581,-27.161 2.686,-22.938 3.757,-42.633 3.574,-65.728 -0.001,-0.138 -0.002,-0.277 -0.002,-0.416 0,-17.77 9.011,-33.436 22.713,-42.678 19.534,-13.175 35.471,-25.462 53.18,-41.006 43.705,-38.364 101.683,-61.736 165.299,-61.736z"/>
   <path class="fil3" d="M86.558 90.642c37.472,0 68.066,29.447 69.905,66.462 -2.764,-34.451 -31.596,-61.548 -66.758,-61.548 -36.992,0 -66.979,29.987 -66.979,66.978 0,36.991 29.987,66.979 66.979,66.979 9.305,0 18.166,-1.899 26.218,-5.328 -8.93,4.133 -18.877,6.444 -29.365,6.444 -38.656,0 -69.993,-31.337 -69.993,-69.993 0,-38.657 31.337,-69.994 69.993,-69.994z"/>
   <circle class="fil4" cx="89.705" cy="162.534" r="58.583"/>
   <circle class="fil5" cx="89.705" cy="162.534" r="56.693"/>
   <circle class="fil6" cx="145.013" cy="297.328" r="64.252"/>
   <circle class="fil7" cx="249" cy="350.513" r="28.346"/>
   <circle class="fil8" cx="249" cy="350.513" r="26.835"/>
   <path class="fil9" d="M238.898 399.626c-10.437,0 -18.898,3.385 -18.898,7.559 0,4.175 8.461,7.56 18.898,7.56l20.204 0c10.437,0 18.898,-3.385 18.898,-7.56 0,-4.174 -8.461,-7.559 -18.898,-7.559l-20.204 0zm0 -1l20.204 0c5.343,0 10.201,0.875 13.734,2.288 3.808,1.524 6.164,3.735 6.164,6.271 0,2.537 -2.356,4.748 -6.164,6.271 -3.533,1.414 -8.391,2.289 -13.734,2.289l-20.204 0c-5.343,0 -10.201,-0.875 -13.734,-2.289 -3.808,-1.523 -6.164,-3.734 -6.164,-6.271 0,-2.536 2.356,-4.747 6.164,-6.271 3.533,-1.413 8.391,-2.288 13.734,-2.288z"/>
   <path class="fil10" d="M238.898 399.626c-10.437,0 -18.898,3.385 -18.898,7.559 0,4.175 8.461,7.56 18.898,7.56l20.204 0c-10.436,0 -18.897,-3.385 -18.897,-7.56 0,-4.174 8.461,-7.559 18.897,-7.559l-20.204 0z"/>
   <g>
    <ellipse class="fil11" cx="259.102" cy="407.185" rx="18.898" ry="7.559"/>
    <path class="fil12" d="M259.102 399.626c10.437,0 18.898,3.385 18.898,7.559 0,4.175 -8.461,7.56 -18.898,7.56 -10.436,0 -18.897,-3.385 -18.897,-7.56 0,-4.174 8.461,-7.559 18.897,-7.559zm12.992 3.14c-3.305,-1.321 -7.898,-2.14 -12.992,-2.14 -5.094,0 -9.686,0.819 -12.991,2.14 -3.031,1.213 -4.906,2.782 -4.906,4.419 0,1.638 1.875,3.207 4.906,4.419 3.305,1.322 7.897,2.14 12.991,2.14 5.094,0 9.687,-0.818 12.992,-2.14 3.031,-1.212 4.906,-2.781 4.906,-4.419 0,-1.637 -1.875,-3.206 -4.906,-4.419z"/>
    <path class="fil13" d="M266.762 414.097c-0.952,0.169 -1.843,-0.054 -2.588,-0.649 -0.744,-0.594 -1.135,-1.394 -1.135,-2.324l0 -7.877c0,-0.93 0.391,-1.73 1.135,-2.324 0.745,-0.595 1.636,-0.818 2.588,-0.649 -2.342,-0.416 -4.933,-0.648 -7.66,-0.648 -2.727,0 -5.318,0.232 -7.659,0.648 0.952,-0.169 1.843,0.054 2.587,0.649 0.744,0.594 1.135,1.394 1.135,2.324l0 7.877c0,0.93 -0.391,1.73 -1.135,2.324 -0.744,0.595 -1.635,0.818 -2.587,0.649 2.341,0.416 4.932,0.648 7.659,0.648 2.727,0 5.318,-0.232 7.66,-0.648z"/>
   </g>
   <path id="press-start" class="fil14 shd0" d="M234.951 317.135c-0.362,0 -0.731,-0.03 -1.107,-0.088 -0.376,-0.059 -0.743,-0.15 -1.101,-0.272 -0.357,-0.123 -0.698,-0.277 -1.023,-0.464 -0.326,-0.187 -0.616,-0.411 -0.872,-0.672l0.968 -0.984c0.197,0.197 0.42,0.365 0.667,0.504 0.248,0.138 0.51,0.252 0.785,0.34 0.274,0.087 0.556,0.152 0.844,0.192 0.287,0.039 0.568,0.06 0.839,0.06 0.401,0 0.749,-0.015 1.045,-0.044 0.296,-0.029 0.537,-0.092 0.724,-0.188 0.229,-0.112 0.36,-0.237 0.391,-0.372 0.032,-0.136 -0.035,-0.262 -0.203,-0.376 -0.168,-0.115 -0.435,-0.211 -0.8,-0.288 -0.365,-0.077 -0.831,-0.114 -1.397,-0.108 -0.48,-0.016 -0.912,-0.074 -1.296,-0.172 -0.383,-0.099 -0.713,-0.231 -0.987,-0.396 -0.275,-0.165 -0.496,-0.355 -0.66,-0.568 -0.166,-0.213 -0.267,-0.446 -0.304,-0.696 0.01,-0.31 0.09,-0.586 0.24,-0.828 0.149,-0.243 0.358,-0.447 0.628,-0.612 0.269,-0.166 0.59,-0.291 0.964,-0.376 0.373,-0.086 0.789,-0.128 1.248,-0.128 0.304,0 0.617,0.02 0.94,0.06 0.322,0.039 0.646,0.108 0.972,0.204 0.325,0.096 0.645,0.223 0.96,0.38 0.314,0.157 0.618,0.353 0.912,0.588l-0.992 1c-0.214,-0.176 -0.437,-0.319 -0.668,-0.428 -0.232,-0.109 -0.469,-0.195 -0.709,-0.256 -0.239,-0.061 -0.478,-0.105 -0.715,-0.128 -0.237,-0.024 -0.471,-0.037 -0.7,-0.037 -0.214,0 -0.421,0.016 -0.621,0.045 -0.199,0.029 -0.377,0.069 -0.531,0.12 -0.155,0.05 -0.281,0.108 -0.376,0.171 -0.096,0.064 -0.144,0.131 -0.144,0.201 -0.006,0.122 0.157,0.225 0.488,0.308 0.33,0.082 0.8,0.137 1.407,0.164 0.641,0.026 1.186,0.084 1.637,0.172 0.45,0.088 0.817,0.215 1.1,0.38 0.282,0.164 0.488,0.372 0.615,0.62 0.128,0.247 0.192,0.54 0.192,0.876 0,0.261 -0.072,0.517 -0.215,0.768 -0.144,0.25 -0.358,0.475 -0.64,0.672 -0.283,0.197 -0.634,0.356 -1.052,0.476 -0.419,0.119 -0.903,0.18 -1.453,0.18zm10.633 -4.92l-2.984 0 0 4.696 -1.392 0 0 -4.696 -2.993 0 0 -1.385 7.369 0 0 1.385zm3.88 -1.385l3.856 6.081 -1.656 0 -0.712 -1.112 -3.84 0 -0.72 1.112 -1.656 0 3.856 -6.081 0.872 0zm-1.48 3.569l2.088 0c-0.096,-0.144 -0.181,-0.275 -0.252,-0.392 -0.072,-0.117 -0.146,-0.237 -0.22,-0.356 -0.075,-0.12 -0.157,-0.252 -0.244,-0.396 -0.088,-0.144 -0.197,-0.318 -0.324,-0.52l-1.048 1.664zm6.408 2.512l-1.408 0 0 -6.081 4.44 0c0.336,0 0.64,0.051 0.912,0.153 0.271,0.101 0.505,0.244 0.7,0.428 0.194,0.184 0.344,0.404 0.448,0.66 0.103,0.255 0.156,0.541 0.156,0.856 0,0.464 -0.103,0.861 -0.308,1.192 -0.206,0.33 -0.484,0.586 -0.836,0.768 0.08,0.16 0.168,0.337 0.264,0.532 0.095,0.194 0.192,0.386 0.288,0.576 0.096,0.189 0.185,0.365 0.268,0.528 0.082,0.162 0.148,0.292 0.196,0.388l-1.56 0 -0.976 -1.872 -2.584 0 0 1.872zm0 -3.28l3.032 0c0.25,0 0.45,-0.062 0.6,-0.185 0.149,-0.123 0.224,-0.298 0.224,-0.523 0,-0.215 -0.075,-0.387 -0.224,-0.515 -0.15,-0.129 -0.35,-0.193 -0.6,-0.193l-3.032 0 0 1.416zm12.592 -1.416l-2.984 0 0 4.696 -1.392 0 0 -4.696 -2.992 0 0 -1.385 7.368 0 0 1.385z"/>
   <path id="press-dpad-stick" class="fil15 shd0" d="M294.305 400.516c3.678,0 6.669,2.991 6.669,6.669 0,3.684 -2.986,6.67 -6.669,6.67 -3.678,0 -6.67,-2.991 -6.67,-6.67 0,-3.677 2.993,-6.669 6.67,-6.669zm0 2c-2.584,0 -4.669,2.085 -4.669,4.669 0,2.583 2.086,4.67 4.669,4.67 2.579,0 4.669,-2.09 4.669,-4.67 0,-2.582 -2.086,-4.669 -4.669,-4.669zm-91.61 -2l2 0 0 5.669 5.67 0 0 2.001 -5.67 0 0 5.669 -2 0 0 -5.669 -5.669 0 0 -2.001 5.669 0 0 -5.669z"/>
   <g>
    <path class="fil16" d="M196.092 89.104l13.984 -0.014c5.721,0 10.357,-4.623 10.357,-10.318 0,-5.706 -4.636,-10.329 -10.357,-10.329l-3.632 0.02c-0.286,0 -0.518,-0.235 -0.518,-0.524 0,-0.288 0.232,-0.524 0.518,-0.524l13.958 0.004 0.005 -4.379 -13.966 0c-2.7,0 -4.897,2.193 -4.897,4.888 0,2.698 2.197,4.883 4.897,4.883l3.649 0.048c3.278,0 5.93,2.644 5.93,5.905 0,3.264 -2.652,5.913 -5.93,5.913l-13.992 0 -0.006 4.427zm0.006 -5.455l13.992 0c2.709,0 4.9,-2.185 4.9,-4.885 0,-2.698 -2.191,-4.88 -4.9,-4.88l-3.649 -0.04c-3.272,0 -5.927,-2.646 -5.927,-5.916 0,-3.261 2.655,-5.907 5.927,-5.907l13.966 -0.003 -0.005 -4.396 -13.958 0c-5.715,0 -10.357,4.617 -10.357,10.318 0,5.7 4.642,10.32 10.357,10.32l3.612 0.005c0.274,0 0.507,0.225 0.507,0.507 0,0.278 -0.233,0.501 -0.507,0.501l-13.964 0.012 0.006 4.364 0 0zm0 0l0 0 0 0zm35.176 1.056c-2.426,0 -4.413,-1.933 -4.413,-4.402l0 -13.968c0,-2.376 1.987,-4.329 4.413,-4.329l14.926 0.003 0 -4.387 -14.926 0c-4.857,0 -8.792,3.92 -8.792,8.76l0 13.921c0,4.841 3.935,8.767 8.792,8.767l14.864 0.006 -0.003 -4.376 -14.861 0.005 0 0zm0 0l0 0 0 0zm-3.343 -18.322c0,-1.851 1.49,-3.352 3.343,-3.352l14.926 0 0 4.393 -12.859 0c-1.03,0 -1.045,1.022 -1.045,1.022l10.729 0 0 4.374 -15.099 0 0.005 -6.437 0 0zm0 0l0 0 0 0zm3.343 17.258c-1.848,0 -3.348,-1.492 -3.348,-3.338l0 -6.442 15.099 0 0 4.382 -10.729 0c0.014,1.03 1.044,1.035 1.044,1.035l12.797 0.001 -0.002 4.356 -14.861 0.006zm64.548 1.053l-11.674 0 0 4.379 17.765 0 -9.239 -27.336c-0.81,-2.666 -3.479,-4.628 -6.638,-4.628 -3.165,0 -5.825,1.953 -6.641,4.618l-8.29 24.314 0 -17.595 -12.424 0 0 4.374 8.033 0 0 11.874 -10.054 0c-2.417,0 -4.393,-1.97 -4.393,-4.391l0 -13.921c0,-2.423 1.961,-4.376 4.381,-4.376l14.457 0 0 -4.384 -14.49 0c-4.856,0 -8.79,3.92 -8.79,8.76l0 13.921c0,4.841 3.968,8.767 8.823,8.767l18.074 0.003 9.053 -26.583c0.367,-0.879 1.234,-1.5 2.253,-1.5 1.013,0 1.885,0.621 2.256,1.495l7.538 22.209 0 0zm-42.525 -4.391c0,1.855 1.5,3.364 3.351,3.364l9.03 0 0 -9.812 -6.986 0 0 4.388 2.593 0 0.008 1.03 -2.581 0c-0.564,0 -1.025,-0.466 -1.025,-1.03l-0.023 -9.8c0,0 -0.003,-1.019 1.036,-1.044l12.409 0 -0.005 -4.371 -14.457 0.003c-1.851,0 -3.351,1.501 -3.351,3.352l0 13.92 0.001 0zm0 0l0 0 0 0zm30.843 -0.504l-3.145 9.274 -5.18 0 8.874 -26.107c0.195,-0.558 0.725,-0.959 1.35,-0.959 0.626,0 1.161,0.402 1.35,0.959l7.018 20.731 -10.276 0 0.009 -3.898zm0.332 -0.978l3.104 0 -1.546 -4.595 -1.558 4.595zm11.35 5.873l0 0 0 0z"/>
   </g>
  </g>
  <g id="holes">
   <ellipse class="fil17" cx="145.012" cy="297.327" rx="52.115" ry="52.116"/>
   <circle class="fil17" cx="249" cy="350.513" r="23.433"/>
   <circle class="fil18" cx="301.403" cy="223.807" r="23.433"/>
   <circle class="fil18" cx="345.369" cy="191.891" r="23.433"/>
   <circle class="fil18" cx="393.569" cy="169.093" r="23.433"/>
   <circle class="fil18" cx="323.275" cy="283.059" r="23.433"/>
   <circle class="fil18" cx="373.097" cy="245.268" r="23.433"/>
   <circle class="fil18" cx="426.137" cy="217.619" r="23.433"/>
  </g>
  <g id="dpad">
   <circle class="fil19" cx="145.012" cy="297.328" r="48.546"/>
   <path class="fil20" d="M156.149 257.458l0 15.532c0,7.291 5.91,13.201 13.201,13.201l15.533 0c1.236,0 2.277,0.842 2.535,2.051 0.625,2.93 0.956,5.969 0.956,9.086 0,3.116 -0.331,6.156 -0.956,9.085 -0.258,1.21 -1.299,2.051 -2.535,2.051l-15.533 0c-7.291,0 -13.201,5.911 -13.201,13.202l0 15.532c0,1.237 -0.842,2.278 -2.051,2.535 -2.93,0.626 -5.969,0.957 -9.086,0.957 -3.116,0 -6.156,-0.331 -9.085,-0.957 -1.21,-0.257 -2.051,-1.298 -2.051,-2.535l0 -15.532c0,-7.291 -5.911,-13.202 -13.202,-13.202l-15.532 0c-1.236,0 -2.278,-0.841 -2.535,-2.051 -0.626,-2.929 -0.956,-5.968 -0.956,-9.085 0,-3.117 0.33,-6.156 0.956,-9.086 0.257,-1.209 1.298,-2.051 2.535,-2.051l15.532 0c7.291,0 13.202,-5.91 13.202,-13.201l0 -15.532c0,-1.237 0.841,-2.278 2.051,-2.536 2.929,-0.625 5.969,-0.956 9.085,-0.956 3.116,0 6.156,0.331 9.086,0.956 1.209,0.258 2.051,1.299 2.051,2.536z"/>
   <path class="fil21" d="M121.536 283.599l-20.388 0c4.483,-14.336 15.799,-25.652 30.136,-30.135l-0.005 20.392c0,5.381 -4.362,9.743 -9.743,9.743zm0 27.457l-20.388 0c4.483,14.338 15.799,25.653 30.136,30.135l-0.005 -20.391c0,-5.381 -4.362,-9.744 -9.743,-9.744zm37.21 9.744l-0.005 20.391c14.337,-4.482 25.652,-15.798 30.135,-30.135l-20.388 0c-5.38,0 -9.742,4.363 -9.742,9.744zm9.742 -37.201l20.388 0c-4.483,-14.336 -15.798,-25.652 -30.135,-30.135l0.005 20.392c0,5.381 4.362,9.743 9.742,9.743z"/>
   <path class="fil22" d="M113.464 327.4l2.878 -5.867c0.161,-0.328 0.449,-0.543 0.809,-0.602 0.36,-0.06 0.704,0.05 0.961,0.307l2.99 2.99c0.257,0.258 0.367,0.601 0.308,0.961 -0.06,0.361 -0.275,0.648 -0.603,0.81l-5.867 2.877c-0.429,0.211 -0.928,0.129 -1.266,-0.21 -0.338,-0.337 -0.42,-0.837 -0.21,-1.266zm60.219 -5.867l2.877 5.867c0.211,0.429 0.129,0.929 -0.209,1.266 -0.339,0.339 -0.837,0.421 -1.267,0.21l-5.866 -2.877c-0.329,-0.162 -0.544,-0.449 -0.603,-0.81 -0.06,-0.359 0.05,-0.703 0.308,-0.961l2.989 -2.99c0.258,-0.257 0.602,-0.367 0.961,-0.307 0.361,0.059 0.649,0.274 0.81,0.602zm-4.465 -52.876l5.866 -2.877c0.429,-0.211 0.929,-0.129 1.267,0.209 0.338,0.338 0.42,0.837 0.209,1.267l-2.877 5.866c-0.161,0.329 -0.449,0.543 -0.81,0.603 -0.359,0.06 -0.704,-0.051 -0.961,-0.308l-2.989 -2.989c-0.258,-0.258 -0.368,-0.602 -0.308,-0.961 0.059,-0.361 0.274,-0.649 0.603,-0.81zm-54.278 -2.877l5.867 2.877c0.328,0.161 0.543,0.449 0.603,0.81 0.059,0.359 -0.051,0.703 -0.308,0.961l-2.99 2.989c-0.258,0.258 -0.601,0.368 -0.961,0.308 -0.361,-0.06 -0.648,-0.274 -0.809,-0.603l-2.878 -5.866c-0.211,-0.429 -0.129,-0.929 0.21,-1.267 0.337,-0.338 0.837,-0.42 1.266,-0.209z"/>
   <path class="fil23" d="M116.77 321.743l-2.876 5.867c-0.121,0.245 -0.075,0.524 0.119,0.717 0.193,0.193 0.471,0.241 0.717,0.119l5.867 -2.877c0.187,-0.092 0.306,-0.251 0.34,-0.458 0.035,-0.209 -0.025,-0.394 -0.175,-0.544l-2.989 -2.99c-0.15,-0.149 -0.335,-0.209 -0.544,-0.174 -0.207,0.033 -0.366,0.152 -0.459,0.34zm59.361 5.867l-2.877 -5.867c-0.092,-0.188 -0.252,-0.307 -0.458,-0.34 -0.209,-0.035 -0.395,0.025 -0.544,0.174l-2.99 2.99c-0.15,0.15 -0.209,0.335 -0.175,0.544 0.034,0.207 0.153,0.366 0.341,0.458l5.867 2.877c0.246,0.121 0.523,0.075 0.717,-0.119 0.193,-0.193 0.24,-0.472 0.119,-0.717zm-0.836 -61.401l-5.867 2.877c-0.188,0.092 -0.307,0.251 -0.341,0.458 -0.034,0.209 0.025,0.394 0.175,0.544l2.99 2.99c0.149,0.149 0.335,0.209 0.544,0.174 0.206,-0.034 0.366,-0.152 0.458,-0.34l2.877 -5.867c0.121,-0.246 0.074,-0.523 -0.119,-0.717 -0.194,-0.193 -0.472,-0.24 -0.717,-0.119zm-54.698 2.877l-5.867 -2.877c-0.246,-0.121 -0.524,-0.074 -0.717,0.119 -0.194,0.194 -0.241,0.471 -0.119,0.717l2.876 5.867c0.093,0.187 0.252,0.306 0.459,0.34 0.208,0.035 0.394,-0.025 0.544,-0.174l2.989 -2.99c0.15,-0.15 0.21,-0.335 0.175,-0.544 -0.034,-0.207 -0.153,-0.366 -0.34,-0.458z"/>
   <path class="fil24" d="M156.149 257.457l0 15.533c0,7.291 5.91,13.201 13.201,13.201l15.533 0c1.236,0 2.277,0.842 2.535,2.051 0.625,2.93 0.956,5.969 0.956,9.086 0,3.116 -0.331,6.156 -0.956,9.085 -0.258,1.21 -1.299,2.051 -2.535,2.051l-15.533 0c-7.291,0 -13.201,5.911 -13.201,13.202l0 15.532c0,1.237 -0.842,2.278 -2.051,2.535 -2.93,0.626 -5.969,0.957 -9.086,0.957 -3.116,0 -6.156,-0.331 -9.085,-0.957 -1.21,-0.257 -2.051,-1.298 -2.051,-2.535l0 -15.532c0,-7.291 -5.911,-13.202 -13.202,-13.202l-15.532 0c-1.237,0 -2.277,-0.841 -2.535,-2.051 -0.626,-2.929 -0.956,-5.968 -0.956,-9.085 0,-3.117 0.33,-6.156 0.956,-9.086 0.258,-1.209 1.298,-2.051 2.535,-2.051l15.532 0c7.291,0 13.202,-5.91 13.202,-13.201l0 -15.533c0,-1.236 0.841,-2.277 2.051,-2.535 2.929,-0.625 5.969,-0.956 9.085,-0.956 3.116,0 6.156,0.331 9.086,0.956 1.209,0.258 2.051,1.299 2.051,2.535zm-2.592 15.533l0 -11.474c0,-0.838 -0.584,-1.542 -1.407,-1.698 -2.312,-0.438 -4.698,-0.667 -7.138,-0.667 -2.439,0 -4.826,0.229 -7.138,0.667 -0.824,0.156 -1.407,0.86 -1.407,1.698l0.001 11.474c0,4.361 -1.768,8.309 -4.626,11.168 -2.858,2.858 -6.807,4.625 -11.168,4.625l-11.474 0c-0.838,0 -1.542,0.584 -1.698,1.407 -0.437,2.312 -0.667,4.698 -0.667,7.138 0,2.439 0.23,4.826 0.667,7.138 0.156,0.824 0.86,1.407 1.698,1.407l11.474 -0.001c4.361,0 8.31,1.768 11.168,4.626 2.858,2.858 4.626,6.807 4.626,11.168l0 11.474c0,0.838 0.583,1.542 1.407,1.698 2.312,0.437 4.698,0.667 7.137,0.667 2.44,0 4.826,-0.23 7.139,-0.667 0.823,-0.156 1.406,-0.86 1.406,-1.698l0 -11.474c0,-4.361 1.767,-8.31 4.625,-11.168 2.859,-2.858 6.807,-4.626 11.168,-4.626l11.474 0c0.838,0 1.543,-0.583 1.698,-1.406 0.438,-2.312 0.667,-4.699 0.667,-7.138 0,-2.44 -0.229,-4.826 -0.667,-7.139 -0.156,-0.823 -0.86,-1.406 -1.698,-1.406l-11.474 0c-4.361,0 -8.309,-1.767 -11.168,-4.625 -2.858,-2.859 -4.625,-6.807 -4.625,-11.168z"/>
   <circle class="fil25" cx="145.012" cy="297.328" r="8.924"/>
   <path class="fil26" d="M154.853 260.254l0 -1.901c0,-0.966 -0.672,-1.777 -1.62,-1.956 -2.663,-0.503 -5.411,-0.768 -8.221,-0.768 -2.81,0 -5.558,0.265 -8.222,0.768 -0.948,0.18 -1.62,0.991 -1.62,1.956l0.001 1.901c0,-0.965 0.671,-1.775 1.62,-1.955 2.663,-0.504 5.411,-0.768 8.221,-0.768 2.81,0 5.558,0.264 8.221,0.768 0.949,0.179 1.62,0.99 1.62,1.955zm-47.068 27.625c-1.332,0 -2.453,0.55 -2.731,1.339 0.142,-1.292 0.715,-2.193 1.394,-2.193l14.226 0c8.006,0 14.496,-6.284 14.496,-14.035 0,8.223 -6.49,14.889 -14.496,14.889l-12.889 0zm74.455 0c1.332,0 2.452,0.55 2.73,1.339 -0.142,-1.292 -0.714,-2.193 -1.393,-2.193l-14.226 0c-8.007,0 -14.497,-6.284 -14.497,-14.035 0,8.223 6.49,14.889 14.497,14.889l12.889 0z"/>
  </g>
 </g>
</svg>
