<?xml version="1.0" encoding="UTF-8"?>
<!DOCTYPE svg PUBLIC "-//W3C//DTD SVG 1.1//EN" "http://www.w3.org/Graphics/SVG/1.1/DTD/svg11.dtd">
<svg xml:space="preserve" viewBox="0 0 472 234" width="472px" height="234px" version="1.1" style="shape-rendering:geometricPrecision; fill-rule:evenodd; clip-rule:evenodd" xmlns="http://www.w3.org/2000/svg">
 <defs>
  <style type="text/css">
    .str1 {stroke:#1A1A1A;stroke-width:2.835}
    .str3 {stroke:#D02020;stroke-width:1}
    .str0 {stroke:#1A1A1A;stroke-linejoin:round}
    .str2 {stroke:#1A1A1A;stroke-linejoin:round}
    .fil6 {fill:none}
    .fil11 {fill:black}
    .fil13 {fill:#1A1A1A}
    .fil10 {fill:#5C5C61}
    .fil16 {fill:gray}
    .fil12 {fill:#D02020}
    .fil4 {fill:#E6E6E6}
    .fil5 {fill:#38383B}
    .fil8 {fill:#5B5B60}
    .fil0 {fill:#5C5C61}
    .fil1 {fill:#808087}
    .fil9 {fill:black}
    .fil2 {fill:#2C2C2E}
    .fil20 {fill:black;fill-opacity:0.5}
    .fil17 {fill:black;fill-opacity:0.5}
    .fil19 {fill:#4D4D4D;fill-opacity:0.5}
    .fil21 {fill:gray;fill-opacity:0.5}
    .fil18 {fill:#B3B3B3;fill-opacity:0.5}
    .fil22 {fill:gray;fill-rule:nonzero;fill-opacity:0.5}
    .fil15 {fill:url(#id0)}
    .fil3 {fill:url(#id1)}
    .fil23 {fill:url(#id2)}
    .fil14 {fill:url(#id3)}
    .fil7 {fill:url(#id4);fill-opacity:0.3}
  </style>
  <linearGradient id="id0" gradientUnits="userSpaceOnUse" x1="82.551" y1="181.513" x2="82.551" y2="98.363">
   <stop offset="0" style="stop-opacity:1; stop-color:#303030"/>
   <stop offset="1" style="stop-opacity:1; stop-color:#1A1A1A"/>
  </linearGradient>
  <linearGradient id="id1" gradientUnits="userSpaceOnUse" x1="236" y1="123.426" x2="236" y2="0.212">
   <stop offset="0" style="stop-opacity:1; stop-color:#38383B"/>
   <stop offset="0.1" style="stop-opacity:1; stop-color:#38383B"/>
   <stop offset="0.5" style="stop-opacity:1; stop-color:#505054"/>
   <stop offset="1" style="stop-opacity:1; stop-color:#505054"/>
  </linearGradient>
  <linearGradient id="id2" gradientUnits="userSpaceOnUse" x1="82.55" y1="148.442" x2="82.55" y2="133.323">
   <stop offset="0" style="stop-opacity:1; stop-color:#4D4D4D"/>
   <stop offset="0.35" style="stop-opacity:1; stop-color:#2B2B2B"/>
   <stop offset="1" style="stop-opacity:1; stop-color:#080808"/>
  </linearGradient>
  <linearGradient id="id3" gradientUnits="userSpaceOnUse" x1="82.551" y1="181.513" x2="82.551" y2="98.363">
   <stop offset="0" style="stop-opacity:1; stop-color:#181818"/>
   <stop offset="1" style="stop-opacity:1; stop-color:#282828"/>
  </linearGradient>
  <linearGradient id="id4" gradientUnits="userSpaceOnUse" x1="241.471" y1="183.897" x2="241.471" y2="146.102">
   <stop offset="0" style="stop-opacity:1; stop-color:white"/>
   <stop offset="0.2" style="stop-opacity:1; stop-color:white"/>
   <stop offset="0.5" style="stop-opacity:1; stop-color:#5C5C61"/>
   <stop offset="0.8" style="stop-opacity:1; stop-color:black"/>
   <stop offset="1" style="stop-opacity:1; stop-color:black"/>
  </linearGradient>
 </defs>
 <g>
  <g>
   <path class="fil0" d="M25.163 23.412l421.674 0c13.864,1.519 24.25,13.104 24.25,27.052l0 156.111c0,14.988 -12.225,27.212 -27.213,27.212l-415.748 0c-14.988,0 -27.213,-12.224 -27.213,-27.212l0 -156.111c0,-13.948 10.386,-25.533 24.25,-27.052z"/>
   <path class="fil1" d="M25.163 23.412l142.805 -15.641 136.064 0 142.805 15.641c13.864,1.519 24.25,13.104 24.25,27.052l0 2.834c0,-13.947 -10.386,-25.532 -24.25,-27.051l-142.805 -15.641 -136.064 0 -142.805 15.641c-13.864,1.519 -24.25,13.104 -24.25,27.051l0 -2.834c0,-13.948 10.386,-25.533 24.25,-27.052z"/>
   <path class="fil2" d="M458.261 27.335c3.992,3.891 6.212,9.184 6.212,14.763l0 164.477c0,11.348 -9.251,20.598 -20.599,20.598l-415.748 0c-11.348,0 -20.599,-9.25 -20.599,-20.598l0 -164.477c0,-5.579 2.22,-10.872 6.212,-14.763 3.363,-2.084 7.234,-3.464 11.424,-3.923l0.883 -0.096c-9.617,1.064 -16.818,9.104 -16.818,18.782l0 164.477c0,10.408 8.489,18.897 18.898,18.897l415.748 0c10.409,0 18.898,-8.489 18.898,-18.897l0 -164.477c0,-9.678 -7.201,-17.718 -16.818,-18.782l0.883 0.096c4.19,0.459 8.061,1.839 11.424,3.923z"/>
   <path class="fil0" d="M26.068 23.313l141.9 -15.542 136.064 0 141.9 15.542c9.628,1.054 16.84,9.1 16.84,18.785l0 164.477c0,10.408 -8.489,18.897 -18.898,18.897l-415.748 0c-10.409,0 -18.898,-8.489 -18.898,-18.897l0 -164.477c0,-9.685 7.212,-17.731 16.84,-18.785z"/>
   <path class="fil1" d="M26.068 23.313l141.9 -15.542 136.064 0 141.9 15.542c9.628,1.054 16.84,9.1 16.84,18.785 0,1.575 0,3.15 0,4.725 0,-9.686 -7.212,-17.731 -16.84,-18.786l-141.9 -15.541 -136.064 0 -141.9 15.541c-9.628,1.055 -16.84,9.1 -16.84,18.786 0,-1.575 0,-3.15 0,-4.725 0,-9.685 7.212,-17.731 16.84,-18.785z"/>
   <path class="fil3" d="M304.032 3.992l0 51.402c0,37.572 -30.46,68.032 -68.032,68.032 -37.572,0 -68.032,-30.46 -68.032,-68.032l0 -51.402c0,-2.082 1.698,-3.78 3.78,-3.78 43.871,0 84.632,0 128.504,0 2.082,0 3.78,1.698 3.78,3.78z"/>
   <path class="fil0" d="M292.693 0.212l0 55.182c0,31.31 -25.383,56.693 -56.693,56.693 -31.31,0 -56.693,-25.383 -56.693,-56.693l0 -55.182c37.961,0 75.425,0 113.386,0z"/>
   <path class="fil4 str0" d="M31.905 51.614l132.284 0c2.082,0 3.779,1.698 3.779,3.78l0 0c0,37.572 30.46,68.032 68.032,68.032 37.572,0 68.032,-30.46 68.032,-68.032l0 0c0,-2.082 1.697,-3.78 3.779,-3.78l132.284 0c4.163,0 7.559,3.396 7.559,7.559l0 139.843c0,4.163 -3.397,7.559 -7.559,7.559l-408.19 0c-4.162,0 -7.559,-3.396 -7.559,-7.559l0 -139.843c0,-4.163 3.396,-7.559 7.559,-7.559z"/>
   <path class="fil5" d="M462.772 206.575c0,10.408 -8.489,18.897 -18.898,18.897l-415.748 0c-10.409,0 -18.898,-8.489 -18.898,-18.897 0,-1.575 0,-3.15 0,-4.725 0,10.409 8.489,18.898 18.898,18.898l415.748 0c10.409,0 18.898,-8.489 18.898,-18.898 0,1.575 0,3.15 0,4.725z"/>
   <path class="fil5" d="M471.087 203.74l0 2.835c0,14.988 -12.225,27.212 -27.213,27.212l-415.748 0c-14.988,0 -27.213,-12.224 -27.213,-27.212l0 -2.835c0,14.988 12.225,27.213 27.213,27.213l415.748 0c14.988,0 27.213,-12.225 27.213,-27.213z"/>
   <path class="fil6 str1" d="M24.346 171.992l423.308 0m0 6.77l-423.308 0"/>
   <circle class="fil0 str2" cx="82.551" cy="139.938" r="50.646"/>
   <path class="fil0 str2" d="M174.015 142.323l81.639 0c12.472,0 22.677,10.205 22.677,22.677l0 0c0,12.472 -10.205,22.677 -22.677,22.677l-81.639 0c-12.472,0 -22.677,-10.205 -22.677,-22.677l0 0c0,-12.472 10.205,-22.677 22.677,-22.677z"/>
   <path class="fil7" d="M274.551 165c0,10.394 -8.504,18.898 -18.897,18.898l-81.639 0c-10.393,0 -18.897,-8.504 -18.897,-18.898 0,-10.394 8.504,-18.898 18.897,-18.898l81.639 0c10.393,0 18.897,8.504 18.897,18.898z"/>
   <rect class="fil8" x="160.787" y="151.771" width="108.095" height="26.457" rx="11.639" ry="13.229"/>
   <path class="fil9" d="M174.204 158.007l21.922 0c3.843,0 6.992,3.148 6.992,6.992 0,3.854 -3.144,6.993 -6.992,6.993l-21.922 0c-3.843,0 -6.991,-3.148 -6.991,-6.992 0,-3.846 3.147,-6.993 6.991,-6.993zm59.339 0l21.922 0c3.843,0 6.991,3.148 6.991,6.992 0,3.846 -3.147,6.993 -6.991,6.993l-21.922 0c-3.843,0 -6.992,-3.148 -6.992,-6.992 0,-3.846 3.147,-6.993 6.992,-6.993z"/>
   <circle class="fil10 str2" cx="392.473" cy="165" r="24.567"/>
   <circle class="fil11" cx="392.473" cy="165" r="20.788"/>
   <circle class="fil10 str2" cx="332" cy="165" r="24.567"/>
   <circle class="fil11" cx="332" cy="165" r="20.788"/>
   <path class="fil6 str3" d="M380.201 64.843l12.272 0 -0.001 7.559m-60.472 0l0.001 -7.559 12.271 0"/>
   <path class="fil12" d="M346.418 62.403l2.132 0 0 5.824 1.003 0 0 -5.824 2.124 0 0 -0.874 -5.259 0 0 0.874zm8.711 5.925c1.612,0 2.655,-1 2.655,-2.397l0 -4.402 -0.985 0 0 4.321c0,0.917 -0.634,1.576 -1.67,1.576 -1.034,0 -1.669,-0.659 -1.669,-1.576l0 -4.321 -0.984 0 0 4.402c0,1.397 1.038,2.397 2.653,2.397zm3.857 -0.101l0.994 0 0 -2.539 1.483 0c0.013,0 0.032,0 0.044,0l1.336 2.539 1.122 0 -1.446 -2.705c0.836,-0.301 1.343,-0.972 1.343,-1.908 0,-1.28 -0.898,-2.084 -2.332,-2.084l-2.544 0 0 6.697zm0.994 -3.386l0 -2.449 1.506 0c0.861,0 1.392,0.468 1.392,1.222 0,0.756 -0.526,1.227 -1.388,1.227l-1.51 0zm4.877 3.386l2.575 0c1.583,0 2.375,-0.742 2.375,-1.882 0,-0.955 -0.609,-1.48 -1.384,-1.587l0 -0.009c0.697,-0.215 1.118,-0.687 1.118,-1.458 0,-1.078 -0.805,-1.762 -2.184,-1.762l-2.5 0 0 6.698zm0.985 -0.838l0 -2.152 1.564 0c0.886,0 1.389,0.423 1.389,1.104 0,0.683 -0.517,1.048 -1.424,1.048l-1.529 0zm0 -2.971l0 -2.052 1.501 0c0.759,0 1.213,0.397 1.213,1.027 0,0.632 -0.454,1.025 -1.213,1.025l-1.501 0zm7.728 3.91c1.785,0 3.084,-1.4 3.084,-3.446 0,-2.054 -1.299,-3.454 -3.084,-3.454 -1.786,0 -3.08,1.4 -3.08,3.454 0,2.041 1.294,3.446 3.08,3.446zm0 -0.911c-1.156,0 -2.078,-0.906 -2.078,-2.535 0,-1.637 0.922,-2.544 2.078,-2.544 1.155,0 2.081,0.907 2.081,2.544 0,1.629 -0.926,2.535 -2.081,2.535z"/>
   <circle class="fil10 str2" cx="392.473" cy="96.969" r="24.567"/>
   <circle class="fil11" cx="392.473" cy="96.969" r="20.788"/>
   <circle class="fil10 str2" cx="332" cy="96.969" r="24.567"/>
   <circle class="fil11" cx="332" cy="96.969" r="20.788"/>
   <path class="fil11" d="M353.977 122.48c8.183,0 8.336,0 16.519,0 4.697,0 8.504,3.808 8.504,8.504 0,4.697 -3.807,8.505 -8.504,8.505 -8.183,0 -8.336,0 -16.519,0 -4.697,0 -8.504,-3.808 -8.504,-8.505 0,-4.696 3.807,-8.504 8.504,-8.504z"/>
   <path class="fil4" d="M353.375 136.482l4.657 0c2.499,0 3.846,-1.259 3.846,-3.097 0,-1.565 -1.03,-2.506 -2.369,-2.63l0 -0.015c1.203,-0.302 1.961,-1.15 1.961,-2.426 0,-1.694 -1.324,-2.827 -3.69,-2.827l-4.405 0 0 10.995zm2.22 -1.783l0 -2.929 2.155 0c1.145,0 1.817,0.573 1.817,1.49 0,0.916 -0.687,1.439 -1.852,1.439l-2.12 0zm0 -4.636l0 -2.794 2.016 0c0.997,0 1.609,0.542 1.609,1.4 0,0.853 -0.612,1.394 -1.609,1.394l-2.016 0zm6.759 6.419l2.448 0 0.796 -2.402 4.105 0 0.767 2.402 2.515 0 -3.856 -10.995 -2.92 0 -3.855 10.995zm3.855 -4.214l0.375 -1.135c0.355,-1.123 0.695,-2.243 1.093,-3.609 0.39,1.366 0.729,2.486 1.069,3.609l0.368 1.135 -2.905 0z"/>
   <path class="fil13" d="M172.563 137.665c1.43,0 2.353,-0.744 2.353,-1.875 0,-0.9 -0.582,-1.444 -1.845,-1.742l-0.681 -0.161c-0.869,-0.208 -1.207,-0.469 -1.207,-0.925 0,-0.569 0.537,-0.97 1.299,-0.97 0.796,0 1.312,0.443 1.36,1.165l0.905 0c-0.037,-1.229 -0.893,-1.985 -2.252,-1.985 -1.354,0 -2.239,0.732 -2.239,1.838 0,0.869 0.553,1.395 1.823,1.696l0.692 0.164c0.876,0.207 1.21,0.485 1.21,0.97 0,0.612 -0.563,1.005 -1.418,1.005 -0.944,0 -1.498,-0.489 -1.503,-1.321l-0.931 0c0,1.329 0.924,2.141 2.434,2.141zm3.254 -0.094l4.233 0 0 -0.823 -3.298 0 0 -1.985 3.053 0 0 -0.811 -3.053 0 0 -1.863 3.298 0 0 -0.823 -4.233 0 0 6.305zm5.099 0l3.917 0 0 -0.823 -2.981 0 0 -5.482 -0.936 0 0 6.305zm4.699 0l4.234 0 0 -0.823 -3.299 0 0 -1.985 3.054 0 0 -0.811 -3.054 0 0 -1.863 3.299 0 0 -0.823 -4.234 0 0 6.305zm7.796 0.095c1.376,0 2.442,-0.848 2.657,-2.186l-0.952 0c-0.199,0.853 -0.841,1.329 -1.696,1.329 -1.243,0 -2.003,-0.963 -2.003,-2.386 0,-1.432 0.76,-2.395 2.003,-2.395 0.859,0 1.506,0.48 1.692,1.338l0.956 0c-0.22,-1.342 -1.281,-2.195 -2.657,-2.195 -1.742,0 -2.938,1.313 -2.938,3.252 0,1.925 1.201,3.243 2.938,3.243zm3.192 -5.577l2.008 0 0 5.482 0.944 0 0 -5.482 1.999 0 0 -0.823 -4.951 0 0 0.823z"/>
   <path class="fil13" d="M235.243 137.665c1.43,0 2.353,-0.744 2.353,-1.875 0,-0.9 -0.582,-1.444 -1.845,-1.742l-0.682 -0.161c-0.868,-0.208 -1.206,-0.469 -1.206,-0.925 0,-0.569 0.537,-0.97 1.299,-0.97 0.795,0 1.312,0.443 1.36,1.165l0.905 0c-0.038,-1.229 -0.894,-1.985 -2.252,-1.985 -1.354,0 -2.239,0.732 -2.239,1.838 0,0.869 0.553,1.395 1.823,1.696l0.691 0.164c0.877,0.207 1.21,0.485 1.21,0.97 0,0.612 -0.562,1.005 -1.417,1.005 -0.944,0 -1.499,-0.489 -1.503,-1.321l-0.931 0c0,1.329 0.924,2.141 2.434,2.141zm2.738 -5.576l2.008 0 0 5.482 0.944 0 0 -5.482 1.999 0 0 -0.823 -4.951 0 0 0.823zm4.381 5.482l0.998 0 0.576 -1.637 2.539 0 0.558 1.637 1.019 0 -2.27 -6.305 -1.133 0 -2.287 6.305zm1.857 -2.434l0.392 -1.117c0.173,-0.521 0.355,-1.077 0.609,-1.894 0.25,0.817 0.428,1.373 0.601,1.894l0.379 1.117 -1.981 0zm4.486 2.434l0.935 0 0 -2.39 1.396 0c0.013,0 0.03,0 0.042,0l1.257 2.39 1.057 0 -1.361 -2.546c0.786,-0.283 1.264,-0.916 1.264,-1.796 0,-1.205 -0.846,-1.962 -2.195,-1.962l-2.395 0 0 6.304zm0.935 -3.187l0 -2.305 1.418 0c0.811,0 1.31,0.44 1.31,1.15 0,0.712 -0.495,1.155 -1.306,1.155l-1.422 0zm4.035 -2.295l2.008 0 0 5.482 0.944 0 0 -5.482 1.999 0 0 -0.823 -4.951 0 0 0.823z"/>
   <path class="fil12" d="M62.808 66.439l-0.483 0c-0.29,0 -0.598,0.019 -0.965,0.038 -0.212,0.02 -0.367,0.02 -0.463,0.02 -0.309,0 -0.541,-0.077 -0.733,-0.213 -0.193,-0.135 -0.29,-0.328 -0.29,-0.54 0,-0.154 0.038,-0.289 0.135,-0.366 0.077,-0.097 0.212,-0.155 0.405,-0.213 0.174,-0.038 0.309,-0.115 0.367,-0.212 0.058,-0.097 0.116,-0.309 0.154,-0.599 0.039,-0.347 0.078,-1.003 0.097,-1.987 0.038,-0.984 0.038,-1.95 0.038,-2.934 0,-0.386 -0.038,-0.637 -0.096,-0.753 -0.058,-0.135 -0.193,-0.231 -0.405,-0.308 -0.309,-0.116 -0.463,-0.329 -0.463,-0.598 0,-0.213 0.115,-0.387 0.328,-0.522 0.212,-0.116 0.521,-0.193 0.907,-0.193 0.135,0 0.27,0 0.443,0 0.387,0.019 0.657,0.019 0.83,0.019 0.657,0 1.371,-0.019 2.2,-0.057 0.174,0 0.387,-0.02 0.638,-0.02 1.042,0 1.852,0.116 2.451,0.348 0.887,0.347 1.563,0.945 2.026,1.775 0.405,0.734 0.598,1.602 0.598,2.625 0,0.502 -0.077,1.023 -0.231,1.544 -0.154,0.521 -0.347,0.965 -0.598,1.332 -0.522,0.753 -1.255,1.293 -2.182,1.601 -0.54,0.174 -1.119,0.271 -1.736,0.271l-0.83 -0.02 -0.714 -0.019c-0.521,-0.019 -1.004,-0.019 -1.428,-0.019zm1.428 -7.354l0 5.25c0,0.29 0.058,0.483 0.173,0.598 0.116,0.117 0.328,0.174 0.618,0.174 1.312,0 1.988,-1.003 1.988,-3.011 0,-1.1 -0.155,-1.968 -0.463,-2.586 -0.348,-0.675 -0.908,-1.003 -1.718,-1.003 -0.212,0 -0.367,0.038 -0.463,0.135 -0.097,0.096 -0.135,0.231 -0.135,0.443zm13.143 4.324l-3.185 0c-0.135,0 -0.212,0.058 -0.212,0.174 0,0.289 0.155,0.578 0.483,0.829 0.328,0.251 0.656,0.386 1.022,0.386 0.213,0 0.464,-0.038 0.714,-0.135 0.271,-0.077 0.483,-0.193 0.657,-0.309 0.154,-0.115 0.27,-0.154 0.367,-0.154 0.115,0 0.231,0.077 0.347,0.212 0.116,0.155 0.174,0.29 0.174,0.444 0,0.328 -0.213,0.637 -0.618,0.946 -0.714,0.54 -1.544,0.811 -2.489,0.811 -0.946,0 -1.738,-0.271 -2.394,-0.83 -0.308,-0.27 -0.579,-0.599 -0.772,-0.985 -0.27,-0.501 -0.405,-1.042 -0.405,-1.621 0,-0.752 0.231,-1.447 0.695,-2.046 0.405,-0.521 0.907,-0.907 1.524,-1.177 0.464,-0.193 0.966,-0.289 1.506,-0.289 0.868,0 1.582,0.25 2.2,0.733 0.309,0.251 0.54,0.541 0.733,0.868 0.213,0.386 0.329,0.753 0.329,1.12 0,0.29 -0.058,0.54 -0.174,0.714 -0.155,0.212 -0.309,0.309 -0.502,0.309zm-3.011 -1.274l0.695 0c0.29,0 0.444,-0.135 0.444,-0.405 0,-0.251 -0.077,-0.444 -0.212,-0.599 -0.136,-0.154 -0.329,-0.231 -0.541,-0.231 -0.251,0 -0.444,0.096 -0.598,0.289 -0.135,0.193 -0.212,0.367 -0.212,0.56 0,0.135 0.038,0.232 0.096,0.29 0.039,0.057 0.154,0.096 0.328,0.096zm12.333 0.058l0.096 2.393c0,0.174 0.039,0.309 0.077,0.405 0.039,0.077 0.194,0.251 0.425,0.502 0.077,0.077 0.097,0.174 0.097,0.309 0,0.29 -0.174,0.502 -0.541,0.618 -0.367,0.115 -1.003,0.173 -1.911,0.173 -0.617,0 -1.061,-0.058 -1.331,-0.154 -0.271,-0.116 -0.405,-0.29 -0.405,-0.541 0,-0.096 0.019,-0.154 0.038,-0.192 0.019,-0.039 0.116,-0.155 0.27,-0.309 0.174,-0.193 0.271,-0.83 0.271,-1.892 0,-0.617 -0.078,-1.081 -0.213,-1.39 -0.116,-0.231 -0.328,-0.366 -0.656,-0.366 -0.309,0 -0.502,0.097 -0.618,0.289 -0.116,0.193 -0.173,0.541 -0.173,1.062l0 1.351c0,0.27 0.019,0.444 0.058,0.54 0.038,0.097 0.154,0.29 0.328,0.579 0.058,0.077 0.077,0.174 0.077,0.271 0,0.27 -0.193,0.463 -0.56,0.598 -0.366,0.135 -0.945,0.193 -1.737,0.193 -1.254,0 -1.891,-0.251 -1.891,-0.772 0,-0.116 0.019,-0.193 0.058,-0.251 0.038,-0.058 0.135,-0.135 0.27,-0.231 0.116,-0.078 0.193,-0.194 0.231,-0.29 0.039,-0.116 0.058,-0.386 0.097,-0.811 0.039,-0.521 0.039,-1.061 0.039,-1.621 0,-0.309 -0.02,-0.521 -0.078,-0.618 -0.038,-0.096 -0.193,-0.212 -0.405,-0.347 -0.193,-0.116 -0.289,-0.27 -0.289,-0.444 0,-0.174 0.077,-0.328 0.231,-0.444 0.155,-0.115 0.483,-0.27 0.984,-0.444 0.444,-0.154 0.85,-0.289 1.255,-0.386 0.405,-0.115 0.675,-0.154 0.83,-0.154 0.135,0 0.251,0.058 0.347,0.154 0.097,0.097 0.135,0.213 0.135,0.348 0,0.019 0,0.077 0,0.173 0,0.039 0,0.078 0,0.097 0,0.212 0.097,0.328 0.271,0.328 0.116,0 0.231,-0.077 0.347,-0.251 0.386,-0.559 0.946,-0.849 1.698,-0.849 0.579,0 1.062,0.154 1.467,0.444 0.289,0.212 0.483,0.463 0.598,0.753 0.116,0.193 0.193,0.617 0.213,1.177zm9.032 -4.478l0 6.195c0,0.348 0.019,0.579 0.038,0.676 0.039,0.097 0.116,0.193 0.251,0.29 0.155,0.115 0.271,0.212 0.328,0.289 0.059,0.077 0.078,0.193 0.078,0.309 0,0.367 -0.367,0.637 -1.1,0.83 -0.656,0.173 -1.313,0.251 -1.969,0.251 -0.154,0 -0.231,-0.02 -0.29,-0.058 -0.038,-0.039 -0.077,-0.155 -0.077,-0.309 -0.019,-0.232 -0.096,-0.347 -0.251,-0.347 -0.077,0 -0.193,0.077 -0.366,0.212 -0.464,0.366 -0.985,0.559 -1.544,0.559 -0.695,0 -1.332,-0.251 -1.891,-0.771 -0.329,-0.309 -0.599,-0.676 -0.792,-1.081 -0.27,-0.522 -0.405,-1.062 -0.405,-1.602 0,-0.637 0.173,-1.255 0.521,-1.853 0.328,-0.54 0.772,-0.965 1.332,-1.255 0.463,-0.25 0.926,-0.366 1.389,-0.366 0.521,0 1.004,0.116 1.409,0.347 0.078,0.039 0.116,0.058 0.155,0.058 0.154,0 0.212,-0.193 0.212,-0.579 0,-0.174 -0.039,-0.289 -0.116,-0.386 -0.077,-0.096 -0.212,-0.154 -0.425,-0.232 -0.289,-0.096 -0.424,-0.25 -0.424,-0.482 0,-0.328 0.328,-0.579 0.984,-0.772 1.158,-0.328 1.93,-0.483 2.335,-0.483 0.425,0.001 0.618,0.194 0.618,0.56zm-3.686 3.416c-0.29,0 -0.521,0.155 -0.695,0.464 -0.232,0.424 -0.347,0.965 -0.347,1.64 0,0.618 0.115,1.081 0.328,1.39 0.154,0.231 0.366,0.347 0.637,0.347 0.289,0 0.502,-0.173 0.636,-0.521 0.135,-0.347 0.194,-0.888 0.194,-1.66 0,-0.694 -0.078,-1.158 -0.232,-1.389 -0.116,-0.174 -0.29,-0.251 -0.521,-0.271zm11.251 1.892l-0.887 2.451c-0.212,0.618 -0.444,1.1 -0.676,1.505 -0.231,0.406 -0.482,0.714 -0.772,0.985 -0.579,0.559 -1.293,0.849 -2.123,0.849 -0.675,0 -1.215,-0.174 -1.621,-0.521 -0.328,-0.271 -0.482,-0.618 -0.482,-1.042 0,-0.348 0.115,-0.637 0.328,-0.888 0.212,-0.251 0.502,-0.348 0.829,-0.348 0.328,0 0.58,0.116 0.792,0.328 0.097,0.097 0.154,0.193 0.193,0.271 0.039,0.076 0.077,0.25 0.135,0.501 0.058,0.193 0.154,0.29 0.347,0.29 0.136,0 0.252,-0.058 0.348,-0.174 0.096,-0.116 0.135,-0.27 0.135,-0.463 0,-0.212 -0.116,-0.56 -0.347,-1.061l-1.641 -3.475c-0.174,-0.366 -0.309,-0.579 -0.386,-0.675 -0.077,-0.097 -0.27,-0.193 -0.579,-0.328 -0.096,-0.039 -0.174,-0.116 -0.232,-0.212 -0.058,-0.116 -0.096,-0.213 -0.096,-0.309 0,-0.405 0.405,-0.676 1.196,-0.83 0.541,-0.097 1.139,-0.135 1.834,-0.135 0.483,0 0.849,0.058 1.138,0.154 0.367,0.135 0.56,0.348 0.56,0.676 0,0.116 -0.058,0.25 -0.154,0.405 -0.097,0.154 -0.154,0.27 -0.154,0.386 0,0.116 0.019,0.212 0.076,0.348 0.039,0.115 0.155,0.308 0.309,0.598 0.174,0.308 0.328,0.482 0.464,0.482 0.135,0 0.289,-0.135 0.444,-0.424 0.154,-0.29 0.231,-0.541 0.231,-0.811 0,-0.212 -0.058,-0.386 -0.174,-0.502 -0.173,-0.212 -0.25,-0.386 -0.25,-0.521 0,-0.231 0.154,-0.405 0.462,-0.559 0.309,-0.136 0.715,-0.213 1.236,-0.213 0.965,0 1.447,0.232 1.447,0.695 0,0.174 -0.058,0.309 -0.154,0.405 -0.097,0.097 -0.27,0.193 -0.54,0.29 -0.213,0.077 -0.386,0.212 -0.522,0.405 -0.231,0.27 -0.443,0.772 -0.714,1.467zm-36.946 19.24l2.442 -11.493 1.833 0 -2.46 11.572c-0.184,0.863 -1.032,1.563 -1.895,1.563l-0.956 0 0.252 -1.187 0.231 0c0.252,0 0.499,-0.204 0.553,-0.455zm30.102 -3.433l0.066 5.075 -1.878 0 -0.064 -4.918 -0.022 0 -1.045 4.918 -1.832 0 2.791 -13.135 3.014 0c0.863,0 1.413,0.7 1.23,1.563l-1.082 5.091c-0.131,0.618 -0.603,1.152 -1.178,1.406zm-8.493 -6.497c0.183,-0.863 1.031,-1.563 1.894,-1.563l1.452 0c0.863,0 1.413,0.7 1.23,1.563l-2.128 10.009c-0.183,0.863 -1.031,1.563 -1.894,1.563l-1.452 0c-0.862,0 -1.413,-0.7 -1.23,-1.563l2.128 -10.009zm-13.617 10.009l2.46 -11.572 -1.832 0 -2.443 11.493c-0.053,0.251 -0.301,0.455 -0.553,0.455 -0.251,0 -0.412,-0.204 -0.359,-0.455l2.443 -11.493 -1.832 0 -2.46 11.572c-0.183,0.863 0.368,1.563 1.231,1.563l1.45 0c0.863,0 1.712,-0.7 1.895,-1.563zm15.432 -9.93l-2.094 9.851c-0.053,0.251 0.107,0.455 0.359,0.455 0.252,0 0.499,-0.204 0.553,-0.455l2.094 -9.851c0.053,-0.251 -0.107,-0.455 -0.359,-0.455 -0.252,0 -0.5,0.204 -0.553,0.455zm-3.085 -1.642l-2.791 13.135 -1.832 0 2.792 -13.135 1.831 0zm9.359 1.187c-0.419,1.973 -0.839,3.947 -1.258,5.921l0.456 0c0.251,0 0.499,-0.204 0.552,-0.455l1.065 -5.011c0.054,-0.251 -0.107,-0.455 -0.359,-0.455l-0.456 0zm-17.07 4.725l-1.534 7.223 -1.833 0 2.792 -13.135 1.832 0 -0.346 7.223 1.535 -7.223 1.832 0 -2.792 13.135 -1.832 0 0.346 -7.223z"/>
   <circle class="fil11" cx="82.551" cy="139.938" r="46.866"/>
  </g>
  <g id="dpad">
   <circle class="fil14" cx="82.551" cy="139.938" r="41.575"/>
   <path class="fil15" d="M82.551 181.513c-10.393,0 -18.898,-8.504 -18.898,-18.898l0 -1.511c0,-1.249 -1.018,-2.268 -2.267,-2.268l-1.512 0c-10.394,0 -18.898,-8.505 -18.898,-18.898 0,-10.393 8.504,-18.897 18.898,-18.897l1.512 0c1.249,0 2.267,-1.019 2.267,-2.268l0 -1.512c0,-10.394 8.505,-18.898 18.898,-18.898 10.394,0 18.898,8.505 18.898,18.898l0 1.512c0,1.249 1.018,2.268 2.267,2.268l1.512 0c10.393,0 18.898,8.503 18.898,18.897 0,10.394 -8.504,18.898 -18.898,18.898l-1.512 0c-1.249,0 -2.267,1.019 -2.267,2.268l0 1.511c0,10.393 -8.504,18.898 -18.898,18.898z"/>
   <path class="fil16" d="M40.976 139.938c0,-10.393 8.504,-18.897 18.898,-18.897l1.512 0c1.249,0 2.267,-1.019 2.267,-2.268l0 0.945c0,1.249 -1.018,2.268 -2.267,2.268l-1.512 0c-10.077,0 -18.378,7.993 -18.874,17.952l-0.024 0zm22.677 -21.732l0 -0.945c0,-10.394 8.505,-18.898 18.898,-18.898 10.394,0 18.898,8.505 18.898,18.898l0 0.945c0,-10.393 -8.504,-18.898 -18.898,-18.898 -10.393,0 -18.898,8.504 -18.898,18.898zm37.796 0.567c0,1.249 1.018,2.268 2.267,2.268l1.512 0c10.393,0 18.898,8.503 18.898,18.897l-0.024 0c-0.496,-9.96 -8.798,-17.952 -18.874,-17.952l-1.512 0c-1.249,0 -2.267,-1.019 -2.267,-2.268l0 -0.945z"/>
   <path class="fil11" d="M82.551 181.513c-10.393,0 -18.898,-8.504 -18.898,-18.898l0 -0.944c0,10.393 8.505,18.897 18.898,18.897 10.394,0 18.898,-8.504 18.898,-18.897l0 0.944c0,10.393 -8.504,18.898 -18.898,18.898zm-18.898 -20.409c0,-1.249 -1.018,-2.268 -2.267,-2.268l-1.512 0c-10.394,0 -18.898,-8.505 -18.898,-18.898l0.024 0c0.496,9.959 8.797,17.953 18.874,17.953l1.512 0c1.249,0 2.267,1.019 2.267,2.268l0 0.945zm60.473 -21.166c0,10.394 -8.504,18.898 -18.898,18.898l-1.512 0c-1.249,0 -2.267,1.019 -2.267,2.268l0 -0.945c0,-1.249 1.018,-2.268 2.267,-2.268l1.512 0c10.077,0 18.378,-7.994 18.874,-17.953l0.024 0z"/>
   <path class="fil17" d="M82.551 100.254l0 -1.881c0.78,0 1.445,0.444 1.745,1.163l9.444 22.666c0.251,0.601 0.189,1.233 -0.172,1.775l-1.568 -1.047 -9.449 -22.676z"/>
   <path class="fil18" d="M93.568 123.977l-1.568 -1.047 -18.897 0 -1.568 1.047c0.361,0.542 0.921,0.842 1.572,0.842l18.889 0c0.651,0 1.211,-0.3 1.572,-0.842z"/>
   <path class="fil17" d="M71.535 123.977l1.568 -1.047 -0.001 0 9.449 -22.677 0 0.001 0 -1.881c-0.779,0 -1.444,0.444 -1.744,1.163l-9.444 22.666c-0.251,0.601 -0.19,1.233 0.172,1.775z"/>
   <path class="fil19" d="M82.551 179.632l0 1.881c0.779,0 1.445,-0.444 1.744,-1.163l9.445 -22.666c0.25,-0.601 0.189,-1.233 -0.172,-1.775l-1.569 1.047 -9.448 22.676z"/>
   <path class="fil20" d="M93.568 155.909l-1.569 1.047 -18.897 0 -1.568 -1.047c0.362,-0.542 0.922,-0.842 1.573,-0.842l18.888 0c0.652,0 1.211,0.3 1.573,0.842z"/>
   <path class="fil19" d="M71.534 155.909l1.568 1.047 0 0 9.449 22.677 0 -0.001 0 1.881c-0.779,0 -1.445,-0.444 -1.744,-1.163l-9.445 -22.666c-0.25,-0.601 -0.189,-1.233 0.172,-1.775z"/>
   <path class="fil20" d="M42.862 139.943l-1.881 0c0,-0.78 0.444,-1.445 1.163,-1.744l22.667 -9.445c0.601,-0.25 1.233,-0.189 1.775,0.172l-1.047 1.568 -22.677 9.449z"/>
   <path class="fil13" d="M66.586 128.926l-1.047 1.568 0 18.898 1.047 1.567c0.542,-0.361 0.841,-0.921 0.841,-1.572l0 -18.888c0,-0.652 -0.299,-1.211 -0.841,-1.573z"/>
   <path class="fil21" d="M66.586 150.959l-1.047 -1.567 0 0 -22.677 -9.449 0 0 -1.881 0c0,0.779 0.444,1.444 1.163,1.744l22.667 9.444c0.601,0.251 1.233,0.19 1.775,-0.172z"/>
   <path class="fil20" d="M122.241 139.943l1.881 0c0,-0.779 -0.444,-1.444 -1.163,-1.744l-22.666 -9.444c-0.602,-0.251 -1.234,-0.19 -1.776,0.172l1.047 1.568 22.677 9.448z"/>
   <path class="fil13" d="M98.517 128.927l1.047 1.568 0 18.897 -1.047 1.568c-0.541,-0.362 -0.841,-0.921 -0.841,-1.573l0 -18.888c0,-0.651 0.3,-1.211 0.841,-1.572z"/>
   <path class="fil22" d="M98.517 150.96l1.047 -1.568 0 0 22.677 -9.448 0 -0.001 1.881 0c0,0.78 -0.444,1.445 -1.163,1.744l-22.666 9.445c-0.601,0.25 -1.234,0.189 -1.776,-0.172z"/>
   <circle class="fil23" cx="82.551" cy="139.938" r="9.449"/>
  </g>
 </g>
</svg>
