<?xml version="1.0" encoding="UTF-8"?>
<!DOCTYPE svg PUBLIC "-//W3C//DTD SVG 1.1//EN" "http://www.w3.org/Graphics/SVG/1.1/DTD/svg11.dtd">
<svg xml:space="preserve" viewBox="0 0 472 234" width="472px" height="234px" version="1.1" style="shape-rendering:geometricPrecision; fill-rule:evenodd; clip-rule:evenodd" xmlns="http://www.w3.org/2000/svg">
 <defs>
  <style type="text/css">
    .fil0 {fill:#5C5C61}
    .fil1 {fill:white}
  </style>
 </defs>
 <g>
  <path class="fil0" d="M446.837 23.412c13.864,1.519 24.25,13.104 24.25,27.052l0 156.111c0,14.988 -12.225,27.212 -27.213,27.212l-415.748 0c-14.988,0 -27.213,-12.224 -27.213,-27.212l0 -156.111c0,-13.948 10.386,-25.533 24.25,-27.052l142.805 -15.641 0 -3.779c0,-2.082 1.698,-3.78 3.78,-3.78 43.871,0 84.632,0 128.504,0 2.082,0 3.78,1.698 3.78,3.78l0 3.779 142.805 15.641z"/>
  <path class="fil1" d="M236 71.183c29.897,0 54.132,24.235 54.132,54.132 0,29.897 -24.235,54.132 -54.132,54.132 -29.897,0 -54.132,-24.235 -54.132,-54.132 0,-29.897 24.235,-54.132 54.132,-54.132zm6.753 56.856c0.987,0.988 0.987,2.601 0,3.588l-5.055 5.054 2.133 2.132c0.753,0.756 0.753,1.979 0,2.735l-5.012 5.01c-4.425,4.424 -11.043,5.313 -16.351,2.668l-11.014 11.016c7.775,6.364 17.713,10.184 28.546,10.184 24.914,0 45.111,-20.197 45.111,-45.111 0,-10.833 -3.82,-20.771 -10.184,-28.547l-11.007 11.008c2.646,5.305 1.757,11.927 -2.667,16.351l-5.012 5.013c-0.754,0.754 -1.977,0.754 -2.733,0l-17.315 -17.318c-0.757,-0.753 -0.757,-1.977 0,-2.732l5.01 -5.013c4.419,-4.417 11.028,-5.311 16.33,-2.677l11.013 -11.013c-7.775,-6.364 -17.714,-10.182 -28.546,-10.182 -24.914,0 -45.111,20.196 -45.111,45.11 0,10.832 3.818,20.771 10.182,28.547l11.022 -11.02c-2.635,-5.304 -1.742,-11.915 2.676,-16.331l5.012 -5.013c0.756,-0.756 1.98,-0.756 2.733,0l2.121 2.12 5.055 -5.054c0.987,-0.987 2.602,-0.987 3.589,0 0.987,0.988 0.987,2.601 0,3.588l-5.055 5.054 5.885 5.887 5.054 -5.054c0.988,-0.987 2.603,-0.987 3.59,0z"/>
 </g>
</svg>
