<?xml version="1.0" encoding="UTF-8"?>
<!DOCTYPE svg PUBLIC "-//W3C//DTD SVG 1.1//EN" "http://www.w3.org/Graphics/SVG/1.1/DTD/svg11.dtd">
<svg viewBox="0 0 562 316" xml:space="preserve" width="562px" height="316px" version="1.1" style="shape-rendering:geometricPrecision; fill-rule:evenodd; clip-rule:evenodd" xmlns="http://www.w3.org/2000/svg" xmlns:xlink="http://www.w3.org/1999/xlink">
 <defs>
  <style type="text/css">
    .fil3 {fill:black;fill-opacity:0.1}
    .fil4 {fill:black;fill-opacity:0.5}
    .fil1 {fill:url(#id0)}
    .fil2 {fill:url(#id1)}
    .fil0 {fill:url(#id2);fill-opacity:0.6}
  </style>
  <linearGradient id="id0" gradientUnits="userSpaceOnUse" x1="491.389" y1="141.254" x2="491.389" y2="119.333">
   <stop offset="0" style="stop-opacity:1; stop-color:#303030"/>
   <stop offset="1" style="stop-opacity:1; stop-color:#484848"/>
  </linearGradient>
  <linearGradient id="id1" gradientUnits="userSpaceOnUse" x1="491.389" y1="121.223" x2="491.389" y2="161.286">
   <stop offset="0" style="stop-opacity:1; stop-color:#161616"/>
   <stop offset="0.6" style="stop-opacity:1; stop-color:#303030"/>
   <stop offset="1" style="stop-opacity:1; stop-color:#404040"/>
  </linearGradient>
  <linearGradient id="id2" gradientUnits="userSpaceOnUse" xlink:href="#id0" x1="491.389" y1="141.255" x2="491.389" y2="117.444">
  </linearGradient>
 </defs>
 <g>
  <path class="fil0" d="M491.389 117.444c13.15,0 23.811,10.66 23.811,23.811 0,13.15 -10.661,23.811 -23.811,23.811 -13.15,0 -23.811,-10.661 -23.811,-23.811 0,-13.151 10.661,-23.811 23.811,-23.811z"/>
  <circle class="fil1" cx="491.389" cy="141.254" r="21.921"/>
  <path class="fil2" d="M491.389 121.223c11.063,0 20.031,8.969 20.031,20.031 0,11.063 -8.968,20.032 -20.031,20.032 -11.063,0 -20.032,-8.969 -20.032,-20.032 0,-11.062 8.969,-20.031 20.032,-20.031z"/>
  <path class="fil3" d="M491.389 121.223c11.063,0 20.031,8.968 20.031,20.031l0 0.001c-4.922,-5.496 -12.072,-8.955 -20.031,-8.955 -7.959,0 -15.109,3.46 -20.032,8.956l0 -0.002c0,-11.063 8.969,-20.031 20.032,-20.031z"/>
  <path class="fil4" d="M497.55 133.63c-2.222,-0.146 -4.991,0.346 -7.742,1.391 -1.446,0.493 -2.901,1.141 -4.284,1.932 -4.313,2.481 -6.461,5.626 -5.406,8.456 0.749,1.977 2.775,3.048 5.65,3.207 1.928,0.108 4.065,-0.198 6.446,-0.914 0.806,-0.24 1.569,-0.495 2.287,-0.765 5.846,-2.02 9.027,-4.919 8.828,-7.483 0.01,-0.271 -0.05,-0.535 -0.167,-0.76 -1.062,0.382 -2.125,0.765 -3.187,1.148 0.068,0.189 0.073,0.402 0.072,0.598 -0.071,1.902 -2.118,3.851 -5.259,5.076 -0.478,0.159 -0.978,0.301 -1.497,0.425 -3.087,0.738 -5.751,0.271 -7.145,-1.616 -2.286,-3.175 0.255,-6.593 4.741,-8.347 0.312,-0.103 0.632,-0.199 0.959,-0.287 3.284,-0.88 5.786,-0.569 6.931,0.927 0.12,0.135 0.209,0.281 0.266,0.439 1.062,-0.383 2.125,-0.766 3.187,-1.149l-1.558 -4.324c-0.968,0.349 -1.936,0.698 -2.904,1.046l-0.218 1z"/>
 </g>
</svg>
