<?xml version="1.0" encoding="UTF-8"?>
<!DOCTYPE svg PUBLIC "-//W3C//DTD SVG 1.1//EN" "http://www.w3.org/Graphics/SVG/1.1/DTD/svg11.dtd">
<svg xml:space="preserve" viewBox="0 0 562 316" width="562px" height="316px" version="1.1" style="shape-rendering:geometricPrecision; fill-rule:evenodd; clip-rule:evenodd" xmlns="http://www.w3.org/2000/svg" xmlns:xlink="http://www.w3.org/1999/xlink">
 <defs>
  <style type="text/css">
    .fil3 {fill:black;fill-opacity:0.1}
    .fil4 {fill:#1A1A1A}
    .fil1 {fill:url(#id0)}
    .fil2 {fill:url(#id1)}
    .fil0 {fill:url(#id2);fill-opacity:0.6}
  </style>
  <linearGradient id="id0" gradientUnits="userSpaceOnUse" x1="379.44" y1="197.837" x2="379.44" y2="175.916">
   <stop offset="0" style="stop-opacity:1; stop-color:#303030"/>
   <stop offset="1" style="stop-opacity:1; stop-color:#484848"/>
  </linearGradient>
  <linearGradient id="id1" gradientUnits="userSpaceOnUse" x1="379.44" y1="177.806" x2="379.44" y2="217.869">
   <stop offset="0" style="stop-opacity:1; stop-color:#262626"/>
   <stop offset="0.6" style="stop-opacity:1; stop-color:#303030"/>
   <stop offset="1" style="stop-opacity:1; stop-color:#404040"/>
  </linearGradient>
  <linearGradient id="id2" gradientUnits="userSpaceOnUse" xlink:href="#id0" x1="379.44" y1="197.838" x2="379.44" y2="174.026">
  </linearGradient>
 </defs>
 <g>
  <path class="fil0" d="M379.44 174.026c13.15,0 23.811,10.661 23.811,23.812 0,13.15 -10.661,23.811 -23.811,23.811 -13.15,0 -23.811,-10.661 -23.811,-23.811 0,-13.151 10.661,-23.812 23.811,-23.812z"/>
  <circle class="fil1" cx="379.44" cy="197.837" r="21.921"/>
  <circle class="fil2" cx="379.44" cy="197.837" r="20.032"/>
  <path class="fil3" d="M379.44 177.806c11.063,0 20.031,8.968 20.031,20.031l0 0.001c-4.923,-5.496 -12.073,-8.955 -20.031,-8.955 -7.959,0 -15.109,3.46 -20.032,8.956l0 -0.002c0,-11.063 8.969,-20.031 20.032,-20.031z"/>
  <path class="fil4" d="M376.157 200.985l0.64 -5.764 5.549 1.619 -6.189 4.145zm3.061 4.27l-0.681 -1.018 -2.119 1.419c-0.585,0.393 -0.873,0.384 -0.828,-0.091 0,-0.181 0.037,-0.368 0.064,-0.568l0.292 -2.397 7.946 -5.321 2.272 0.679 0.726 0.18c0.257,0.205 0.207,0.362 -0.326,0.723l-0.026 0.017 -2.091 1.401 0.682 1.017 9.422 -6.311 -0.682 -1.017c-0.373,0.249 -0.658,0.448 -1.059,0.649 -0.734,0.35 -1.106,0.398 -1.935,0.186l-12.497 -3.524c-1.468,0.984 -2.936,1.967 -4.403,2.95l-1.666 13.009c-0.147,1.047 -0.258,1.243 -0.945,1.784l-0.298 0.219 0 0 -0.083 0.056 -0.613 0.411 0.681 1.017 0.697 -0.466 7.47 -5.004z"/>
 </g>
</svg>
