<?xml version="1.0" encoding="UTF-8"?>
<!DOCTYPE svg PUBLIC "-//W3C//DTD SVG 1.1//EN" "http://www.w3.org/Graphics/SVG/1.1/DTD/svg11.dtd">
<svg xml:space="preserve" viewBox="0 0 562 316" width="562px" height="316px" version="1.1" style="shape-rendering:geometricPrecision; fill-rule:evenodd; clip-rule:evenodd" xmlns="http://www.w3.org/2000/svg">
 <defs>
  <style type="text/css">
    .fil3 {fill:black;fill-opacity:0.1}
    .fil4 {fill:#1A1A1A}
    .fil1 {fill:url(#id0)}
    .fil2 {fill:url(#id1)}
    .fil0 {fill:url(#id2);fill-opacity:0.6}
  </style>
  <linearGradient id="id0" gradientUnits="userSpaceOnUse" x1="403.405" y1="121.706" x2="403.405" y2="90.714">
   <stop offset="0" style="stop-opacity:1; stop-color:#2A2A2A"/>
   <stop offset="0.5" style="stop-opacity:1; stop-color:#303030"/>
   <stop offset="1" style="stop-opacity:1; stop-color:#606060"/>
  </linearGradient>
  <linearGradient id="id1" gradientUnits="userSpaceOnUse" x1="403.405" y1="119.816" x2="403.405" y2="92.603">
   <stop offset="0" style="stop-opacity:1; stop-color:#2C2C2C"/>
   <stop offset="0.5" style="stop-opacity:1; stop-color:#343434"/>
   <stop offset="1" style="stop-opacity:1; stop-color:#505050"/>
  </linearGradient>
  <linearGradient id="id2" gradientUnits="userSpaceOnUse" x1="403.405" y1="106.21" x2="403.405" y2="88.824">
   <stop offset="0" style="stop-opacity:1; stop-color:#303030"/>
   <stop offset="1" style="stop-opacity:1; stop-color:#606060"/>
  </linearGradient>
 </defs>
 <g>
  <path class="fil0" d="M403.405 88.824c9.601,0 17.386,7.784 17.386,17.386 0,9.602 -7.785,17.386 -17.386,17.386 -9.602,0 -17.386,-7.784 -17.386,-17.386 0,-9.602 7.784,-17.386 17.386,-17.386z"/>
  <path class="fil1" d="M403.405 90.714c8.558,0 15.496,6.938 15.496,15.496 0,8.558 -6.938,15.496 -15.496,15.496 -8.558,0 -15.496,-6.938 -15.496,-15.496 0,-8.558 6.938,-15.496 15.496,-15.496z"/>
  <path class="fil2" d="M403.405 92.603c7.514,0 13.606,6.092 13.606,13.607 0,7.514 -6.092,13.606 -13.606,13.606 -7.515,0 -13.606,-6.092 -13.606,-13.606 0,-7.515 6.091,-13.607 13.606,-13.607z"/>
  <path class="fil3" d="M403.405 121.706c8.558,0 15.495,-6.938 15.495,-15.495l0 -0.001c-3.808,4.251 -9.339,6.927 -15.495,6.927 -6.157,0 -11.687,-2.676 -15.495,-6.928l0 0.002c0,8.557 6.937,15.495 15.495,15.495z"/>
  <path class="fil4" d="M409.237 108.029l0.527 -0.267 -0.389 -0.77 -0.527 0.267 -1.076 0.544 -0.004 0.002 -0.004 0.002c-0.082,0.04 -0.169,0.072 -0.251,0.113 -0.859,0.395 -0.976,0.374 -1.231,-0.132l-0.912 -1.803 2.52 -5.074c0.036,-0.085 0.094,-0.18 0.136,-0.255 0.306,-0.54 0.53,-0.796 0.874,-1.01 0.342,-0.173 0.685,-0.346 1.027,-0.52l-0.394 -0.78 -5.97 3.017 -0.527 0.266 0.39 0.77 0.527 -0.266 0.928 -0.469 0.003 -0.002 0.003 -0.001c0.063,-0.031 0.149,-0.062 0.21,-0.093 0.37,-0.161 0.523,-0.119 0.445,0.093 -0.026,0.105 -0.089,0.243 -0.246,0.561l-1.469 3.095 -3.383 -0.643c-0.265,-0.051 -0.444,-0.093 -0.577,-0.145 -0.222,-0.073 -0.138,-0.222 0.315,-0.477l0.003 -0.002 0.003 -0.001 0.004 -0.002 0.002 -0.001 0.004 -0.002 0.003 -0.002 0.003 -0.001 0.003 -0.002 0.003 -0.001 0.004 -0.002 0.003 -0.001 0.003 -0.002 0.003 -0.002 0.003 -0.001 0.004 -0.002 0.003 -0.002 0.004 -0.002 0.003 -0.001 0.003 -0.002 0.004 -0.002 0.003 -0.001 0.003 -0.002 0.004 -0.002 0.003 -0.001 0.004 -0.002 0.003 -0.002 0.004 -0.002 0.003 -0.002 0.003 -0.001 0.004 -0.002 0.003 -0.002 0.004 -0.001 0.003 -0.002 0.004 -0.002 0.003 -0.002 0.004 -0.002 0.003 -0.001 0.004 -0.002 0.003 -0.002 0.004 -0.001 0.003 -0.002 0.003 -0.002 0.004 -0.002 0.003 -0.002 0.004 -0.001 0.003 -0.002 0.003 -0.001 0.003 -0.002 0.004 -0.002 0.003 -0.002 0.004 -0.001 0.003 -0.002 0.003 -0.002 0.003 -0.001 0.003 -0.002 0.004 -0.002 0.003 -0.001 0.003 -0.002 0.003 -0.001 0.003 -0.002 0.003 -0.001 0.003 -0.002 0.003 -0.002 0.003 -0.001 0.886 -0.448 0.528 -0.266 -0.395 -0.78 -0.527 0.266 -6.919 3.497 -0.527 0.266 0.395 0.781 0.527 -0.267 0.021 -0.011 0.002 0 0.002 -0.002 0.002 -0.001 0.002 -0.001 0.002 -0.001 0.003 -0.001 0.002 -0.001 0.002 -0.001 0.002 -0.001 0.002 -0.001 0.003 -0.001 0.002 -0.002 0.002 -0.001 0.003 -0.001 0.002 -0.001 0.002 -0.001 0.002 -0.002 0.003 -0.001 0.002 -0.001 0.003 -0.001 0.002 -0.001 0.003 -0.002 0.002 -0.001 0.002 -0.001 0.003 -0.001 0.002 -0.002 0.003 -0.001 0.002 -0.001 0.003 -0.001 0.002 -0.001 0.003 -0.002 0.002 -0.001 0.002 -0.001 0.003 -0.001 0.002 -0.001 0.003 -0.002 0.002 -0.001 0.003 -0.001 0.002 -0.002 0.003 -0.001 0.002 -0.001 0.003 -0.001 0.002 -0.002 0.003 -0.001 0.002 -0.001 0.002 -0.001 0.002 -0.001 0.003 -0.002 0.002 -0.001 0.003 -0.001 0.002 -0.001 0.002 -0.001 0.002 -0.001 0.003 -0.002 0.002 -0.001 0.002 -0.001 0.002 -0.001 0.002 -0.001 0.003 -0.001 0.002 -0.001 0.002 -0.001 0.002 -0.001 0.002 -0.001 0.002 -0.001c0.781,-0.342 1.082,-0.375 1.949,-0.231l5.474 0.981 0.73 1.445 0.203 0.4c0.256,0.507 0.203,0.613 -0.709,1.113 -0.048,0.035 -0.114,0.071 -0.171,0.1l-0.003 0.002 -0.004 0.001 -0.003 0.002 -0.003 0.002 -0.003 0.001 -0.003 0.002 -0.003 0.001 -0.003 0.002 -0.003 0.001 -0.003 0.002 -0.003 0.002 -1.077 0.543 -0.527 0.266 0.39 0.771 0.527 -0.267 7.952 -4.019z"/>
 </g>
</svg>

