<?xml version="1.0" encoding="UTF-8"?>
<!DOCTYPE svg PUBLIC "-//W3C//DTD SVG 1.1//EN" "http://www.w3.org/Graphics/SVG/1.1/DTD/svg11.dtd">
<svg xml:space="preserve" viewBox="0 0 562 316" width="562px" height="316px" version="1.1" style="shape-rendering:geometricPrecision; fill-rule:evenodd; clip-rule:evenodd" xmlns="http://www.w3.org/2000/svg" xmlns:xlink="http://www.w3.org/1999/xlink">
 <defs>
  <style type="text/css">
    .fil3 {fill:black;fill-opacity:0.1}
    .fil4 {fill:#1A1A1A}
    .fil1 {fill:url(#id0)}
    .fil2 {fill:url(#id1)}
    .fil0 {fill:url(#id2);fill-opacity:0.6}
  </style>
  <linearGradient id="id0" gradientUnits="userSpaceOnUse" x1="432.169" y1="162.346" x2="432.169" y2="140.425">
   <stop offset="0" style="stop-opacity:1; stop-color:#303030"/>
   <stop offset="1" style="stop-opacity:1; stop-color:#484848"/>
  </linearGradient>
  <linearGradient id="id1" gradientUnits="userSpaceOnUse" x1="432.169" y1="142.315" x2="432.169" y2="182.378">
   <stop offset="0" style="stop-opacity:1; stop-color:#262626"/>
   <stop offset="0.6" style="stop-opacity:1; stop-color:#303030"/>
   <stop offset="1" style="stop-opacity:1; stop-color:#404040"/>
  </linearGradient>
  <linearGradient id="id2" gradientUnits="userSpaceOnUse" xlink:href="#id0" x1="432.169" y1="162.347" x2="432.169" y2="138.536">
  </linearGradient>
 </defs>
 <g>
  <path class="fil0" d="M432.169 138.536c13.151,0 23.811,10.661 23.811,23.811 0,13.15 -10.66,23.811 -23.811,23.811 -13.15,0 -23.811,-10.661 -23.811,-23.811 0,-13.15 10.661,-23.811 23.811,-23.811z"/>
  <circle class="fil1" cx="432.169" cy="162.346" r="21.921"/>
  <circle class="fil2" cx="432.169" cy="162.346" r="20.032"/>
  <path class="fil3" d="M432.169 142.315c11.063,0 20.032,8.968 20.032,20.031l0 0.001c-4.923,-5.496 -12.073,-8.955 -20.032,-8.955 -7.959,0 -15.109,3.46 -20.031,8.956l0 -0.002c0,-11.063 8.968,-20.031 20.031,-20.031z"/>
  <path class="fil4" d="M431.509 168.037l-1.937 -3.832 4.432 -2.241c3.653,-1.847 5.859,-1.796 6.062,-0.206 0.139,1.094 -1.16,2.541 -3.885,3.918l-4.672 2.361zm-2.52 -4.985l-1.793 -3.549 4.222 -2.134c3.085,-1.559 5.036,-1.568 5.311,-0.203 0.185,1.034 -0.576,2.058 -2.484,3.192 -0.244,0.155 -0.478,0.278 -0.729,0.405l-0.014 0.007 -0.013 0.007 -0.014 0.007 -0.014 0.007 -0.014 0.007 -0.014 0.007 -0.014 0.008 -0.014 0.006 -0.013 0.007 -4.403 2.226zm9.017 3.112c4.521,-2.286 6.487,-4.05 7.095,-5.673 0.104,-0.316 0.17,-0.631 0.146,-0.901 -0.083,-1.876 -2.335,-2.241 -6.336,-0.858 -0.157,0.061 -0.322,0.106 -0.479,0.167l0.299 -0.226 0.397 -0.332c1.644,-1.358 2.375,-2.441 2.348,-3.387 -0.026,-2.355 -3.349,-2.386 -9.757,0.853l-13.954 7.053 0.56 1.108 2.306 -1.166 0.005 -0.002 0.006 -0.003 0.005 -0.003 0.006 -0.003 0.005 -0.003 0.005 -0.002 0.006 -0.003 0.005 -0.002 0.006 -0.003 0.005 -0.003 0.005 -0.002 0.006 -0.003 0.004 -0.003 0.006 -0.002 0.005 -0.003 0.005 -0.003 0.005 -0.002 0.005 -0.003 0.005 -0.002 0.005 -0.003 0.005 -0.002 0.005 -0.003 0.005 -0.002 0.005 -0.003 0.005 -0.002 0.005 -0.003 0.005 -0.002 0.005 -0.003 0.005 -0.002 0.004 -0.003 0.005 -0.002 0.005 -0.003 0.005 -0.002 0.005 -0.003 0.005 -0.002 0.005 -0.003 0.005 -0.002 0.005 -0.003 0.005 -0.002 0.005 -0.003 0.005 -0.002 0.005 -0.003 0.005 -0.002 0.005 -0.003 0.005 -0.002 0.005 -0.003 0.005 -0.003 0.005 -0.002 0.005 -0.002 0.005 -0.003 0.005 -0.003 0.005 -0.002 0.006 -0.003 0.005 -0.003 0.005 -0.002 0.005 -0.003 0.006 -0.003 0.005 -0.002 0.006 -0.003 0.005 -0.003 0.005 -0.003 0.006 -0.002 0.005 -0.003 0.006 -0.003c1.28,-0.591 1.446,-0.562 1.809,0.157l3.208 6.348 0.258 0.51c0.355,0.703 0.199,0.914 -1.006,1.58 -0.068,0.05 -0.162,0.1 -0.26,0.15l-0.006 0.002 -0.005 0.003 -0.006 0.003 -0.006 0.003 -0.005 0.003 -0.006 0.003 -0.005 0.002 -0.006 0.004 -0.006 0.002 -0.005 0.003 -0.006 0.003 -2.246 1.135 0.553 1.093 14.792 -7.476z"/>
 </g>
</svg>

