<?xml version="1.0" encoding="UTF-8"?>
<!DOCTYPE svg PUBLIC "-//W3C//DTD SVG 1.1//EN" "http://www.w3.org/Graphics/SVG/1.1/DTD/svg11.dtd">
<svg viewBox="0 0 562 316" xml:space="preserve" width="562px" height="316px" version="1.1" style="shape-rendering:geometricPrecision; fill-rule:evenodd; clip-rule:evenodd" xmlns="http://www.w3.org/2000/svg">
 <defs>
  <style type="text/css">
    .fil0 {fill:red}
    .fil1 {fill:white}
  </style>
 </defs>
 <g>
  <path class="fil0" d="M393.68 3.208c-4.109,0.331 -6.899,1.174 -6.899,2.829l0 0.934c-13.162,0.23 -25.157,1.898 -38.36,4.596l-22.145 4.901 -9.343 1.878c-6.65,1.209 -13.107,2.158 -19.833,2.837 -5.435,0.471 -10.645,0.724 -16.1,0.768 -5.455,-0.044 -10.665,-0.297 -16.1,-0.768 -6.726,-0.679 -13.183,-1.628 -19.833,-2.837l-9.343 -1.878 -22.145 -4.901c-13.203,-2.698 -25.198,-4.366 -38.36,-4.596l0 -0.934c0,-1.655 -2.79,-2.498 -6.899,-2.829l-0.059 -0.006c-17.631,-1.489 -41.409,-4.831 -55.642,1.731 -17.138,7.903 -32.227,27.537 -44.287,44.697l-0.044 0.064 -0.108 0.152 -0.077 0.113c-1.654,2.395 -2.479,4.286 -1.709,5.038l0.781 0.763 0 0.001c-3.582,4.025 -7.053,8.201 -10.506,12.545 -37.239,47.881 -83.191,166.874 -35.537,222.576 6.316,7.134 13.392,12.215 21.951,16.34 10.072,4.722 20.879,7.5 32.019,7.751 10.34,0.135 19.557,-1.863 29.179,-5.562 6.982,-2.793 13.287,-6.078 19.795,-9.825 5.695,-3.37 11.161,-6.843 16.727,-10.429l19.478 -12.8c11.317,-7.201 22.106,-13.378 34.275,-19.061 14.01,-6.284 27.721,-11.145 42.507,-15.295 14.414,-3.837 28.974,-6.648 43.937,-6.728 14.963,0.08 29.523,2.891 43.937,6.728 14.786,4.15 28.497,9.011 42.507,15.295 12.169,5.683 22.958,11.86 34.275,19.061l19.478 12.8c5.566,3.586 11.032,7.059 16.727,10.429 6.508,3.747 12.813,7.032 19.795,9.825 9.622,3.699 18.839,5.697 29.179,5.562 11.14,-0.251 21.947,-3.029 32.019,-7.751 8.559,-4.125 15.635,-9.206 21.951,-16.34 47.654,-55.702 1.702,-174.695 -35.537,-222.576 -3.453,-4.344 -6.924,-8.52 -10.506,-12.545l0 -0.001 0.781 -0.763c0.77,-0.752 -0.055,-2.643 -1.709,-5.038l-0.077 -0.113 -0.108 -0.152 -0.044 -0.064c-12.06,-17.16 -27.149,-36.794 -44.287,-44.697 -14.233,-6.562 -38.011,-3.22 -55.642,-1.731l-0.059 0.006z"/>
  <path class="fil1" d="M281 70.271c32.989,0 59.73,26.741 59.73,59.73 0,32.989 -26.741,59.73 -59.73,59.73 -32.989,0 -59.73,-26.741 -59.73,-59.73 0,-32.989 26.741,-59.73 59.73,-59.73zm7.451 62.735c1.089,1.091 1.089,2.87 0,3.959l-5.577 5.578 2.353 2.352c0.831,0.834 0.831,2.184 0,3.018l-5.531 5.528c-4.882,4.882 -12.184,5.862 -18.041,2.944l-12.154 12.156c8.58,7.021 19.545,11.236 31.499,11.236 27.49,0 49.776,-22.286 49.776,-49.776 0,-11.953 -4.215,-22.919 -11.237,-31.499l-12.145 12.145c2.919,5.854 1.939,13.162 -2.943,18.043l-5.531 5.531c-0.831,0.833 -2.181,0.833 -3.015,0l-19.105 -19.108c-0.835,-0.831 -0.835,-2.183 0,-3.015l5.528 -5.531c4.876,-4.875 12.168,-5.861 18.019,-2.955l12.152 -12.152c-8.58,-7.022 -19.547,-11.235 -31.499,-11.235 -27.49,0 -49.776,22.286 -49.776,49.776 0,11.952 4.213,22.919 11.235,31.499l12.161 -12.159c-2.906,-5.853 -1.922,-13.148 2.953,-18.021l5.531 -5.53c0.834,-0.834 2.184,-0.834 3.015,0l2.341 2.339 5.577 -5.578c1.089,-1.089 2.871,-1.089 3.961,0 1.089,1.091 1.089,2.87 0,3.959l-5.578 5.578 6.493 6.496 5.578 -5.578c1.089,-1.089 2.871,-1.089 3.96,0z"/>
 </g>
</svg>
