<?xml version="1.0" encoding="UTF-8"?>
<!DOCTYPE svg PUBLIC "-//W3C//DTD SVG 1.1//EN" "http://www.w3.org/Graphics/SVG/1.1/DTD/svg11.dtd">
<svg xml:space="preserve" viewBox="0 0 1098 612" width="1098px" height="612px" version="1.1" style="shape-rendering:geometricPrecision; fill-rule:evenodd; clip-rule:evenodd" xmlns="http://www.w3.org/2000/svg">
 <defs>
  <style type="text/css">
    .fil1 {fill:white}
    .fil0 {fill:red}
  </style>
 </defs>
 <g>
  <path class="fil0" d="M766.327 7.451c-7.924,0.639 -13.305,2.265 -13.305,5.457l0 1.8c-25.387,0.444 -48.522,3.661 -73.987,8.866l-42.71 9.452 -18.021 3.621c-12.825,2.334 -25.278,4.164 -38.252,5.472 -10.481,0.909 -20.53,1.396 -31.052,1.482 -10.522,-0.086 -20.571,-0.573 -31.052,-1.482 -12.974,-1.308 -25.427,-3.138 -38.252,-5.472l-18.021 -3.621 -42.71 -9.452c-25.465,-5.205 -48.6,-8.422 -73.987,-8.866l0 -1.8c0,-3.192 -5.381,-4.818 -13.305,-5.457l-0.114 -0.011c-34.004,-2.871 -79.866,-9.318 -107.317,3.339 -33.053,15.241 -62.156,53.109 -85.417,86.208l-0.085 0.122 -0.207 0.294 -0.15 0.217c-3.19,4.62 -4.78,8.267 -3.296,9.717l1.506 1.472 0 0.001c-6.908,7.764 -13.603,15.817 -20.263,24.197 -71.822,92.349 -160.451,321.851 -68.539,429.284 12.18,13.759 25.828,23.56 42.336,31.516 19.425,9.106 40.269,14.465 61.755,14.949 19.943,0.261 37.719,-3.594 56.277,-10.728 13.468,-5.387 25.628,-11.723 38.179,-18.95 10.985,-6.499 21.527,-13.197 32.262,-20.114l37.568 -24.687c21.827,-13.888 42.637,-25.802 66.107,-36.763 27.02,-12.121 53.465,-21.496 81.984,-29.5 27.8,-7.4 55.881,-12.823 84.741,-12.977 28.86,0.154 56.941,5.577 84.741,12.977 28.519,8.004 54.964,17.379 81.984,29.5 23.47,10.961 44.28,22.875 66.107,36.763l37.568 24.687c10.735,6.917 21.277,13.615 32.262,20.114 12.551,7.227 24.711,13.563 38.179,18.95 18.558,7.134 36.334,10.989 56.277,10.728 21.486,-0.484 42.33,-5.843 61.755,-14.949 16.508,-7.956 30.156,-17.757 42.336,-31.516 91.912,-107.433 3.283,-336.935 -68.539,-429.284 -6.66,-8.38 -13.355,-16.433 -20.263,-24.197l0 -0.001 1.506 -1.472c1.484,-1.45 -0.106,-5.097 -3.296,-9.717l-0.15 -0.217 -0.207 -0.294 -0.085 -0.122c-23.261,-33.099 -52.364,-70.967 -85.417,-86.208 -27.451,-12.657 -73.313,-6.21 -107.317,-3.339l-0.114 0.011z"/>
  <path class="fil1" d="M549 136.796c63.626,0 115.202,51.576 115.202,115.202 0,63.626 -51.576,115.202 -115.202,115.202 -63.626,0 -115.202,-51.576 -115.202,-115.202 0,-63.626 51.576,-115.202 115.202,-115.202zm14.371 120.998c2.101,2.104 2.101,5.536 0,7.636l-10.757 10.758 4.539 4.536c1.603,1.608 1.603,4.212 0,5.821l-10.668 10.662c-9.415,9.415 -23.5,11.306 -34.796,5.679l-23.441 23.443c16.548,13.544 37.698,21.673 60.752,21.673 53.021,0 96.003,-42.983 96.003,-96.004 0,-23.054 -8.128,-44.204 -21.672,-60.752l-23.424 23.425c5.63,11.29 3.739,25.384 -5.677,34.799l-10.667 10.667c-1.603,1.606 -4.207,1.606 -5.816,0l-36.848 -36.853c-1.611,-1.603 -1.611,-4.21 0,-5.816l10.662 -10.667c9.404,-9.402 23.468,-11.304 34.753,-5.699l23.438 -23.438c-16.548,-13.544 -37.7,-21.669 -60.752,-21.669 -53.021,0 -96.003,42.982 -96.003,96.003 0,23.052 8.125,44.204 21.669,60.752l23.454 -23.451c-5.605,-11.288 -3.706,-25.357 5.696,-34.756l10.667 -10.668c1.609,-1.608 4.213,-1.608 5.816,0l4.514 4.512 10.758 -10.757c2.1,-2.101 5.537,-2.101 7.638,0 2.101,2.104 2.101,5.535 0,7.636l-10.757 10.757 12.523 12.529 10.757 -10.758c2.101,-2.1 5.538,-2.1 7.639,0z"/>
 </g>
</svg>
