<?xml version="1.0" encoding="UTF-8"?>
<!DOCTYPE svg PUBLIC "-//W3C//DTD SVG 1.1//EN" "http://www.w3.org/Graphics/SVG/1.1/DTD/svg11.dtd">
<svg xml:space="preserve" viewBox="0 0 562 316" width="562px" height="316px" version="1.1" style="shape-rendering:geometricPrecision; fill-rule:evenodd; clip-rule:evenodd" xmlns="http://www.w3.org/2000/svg">
 <defs>
  <style type="text/css">
    .fil1 {fill:#3040B0}
    .fil2 {fill:black;fill-opacity:0.2}
    .fil0 {fill:#3040B0;fill-opacity:0.7}
  </style>
 </defs>
 <g>
  <path class="fil0" d="M281 195.98c12.002,0 21.732,3.808 21.732,8.504 0,4.696 -9.73,8.504 -21.732,8.504 -12.003,0 -21.733,-3.808 -21.733,-8.504 0,-4.696 9.73,-8.504 21.733,-8.504z"/>
  <path class="fil1" d="M281 196.98c-5.879,0 -11.183,0.926 -15.004,2.42 -3.539,1.385 -5.729,3.19 -5.729,5.084 0,1.895 2.19,3.699 5.729,5.084 3.821,1.494 9.125,2.42 15.004,2.42 5.878,0 11.182,-0.926 15.003,-2.42 3.539,-1.385 5.729,-3.189 5.729,-5.084 0,-1.894 -2.19,-3.699 -5.729,-5.084 -3.821,-1.494 -9.125,-2.42 -15.003,-2.42z"/>
  <path class="fil2" d="M281 202.15c1.288,0 2.333,1.045 2.333,2.334 0,1.288 -1.045,2.333 -2.333,2.333 -1.289,0 -2.333,-1.045 -2.333,-2.333 0,-1.289 1.044,-2.334 2.333,-2.334z"/>
 </g>
</svg>
