<?xml version="1.0" encoding="UTF-8"?>
<!DOCTYPE svg PUBLIC "-//W3C//DTD SVG 1.1//EN" "http://www.w3.org/Graphics/SVG/1.1/DTD/svg11.dtd">
<svg xml:space="preserve" viewBox="0 0 562 316" width="562px" height="316px" version="1.1" style="shape-rendering:geometricPrecision; fill-rule:evenodd; clip-rule:evenodd" xmlns="http://www.w3.org/2000/svg">
 <defs>
  <style type="text/css">
    .fil4 {fill:#565676}
    .fil3 {fill:black;fill-opacity:0.05}
    .fil1 {fill:url(#id0)}
    .fil2 {fill:url(#id1)}
    .fil0 {fill:url(#id2);fill-opacity:0.6}
  </style>
  <linearGradient id="id0" gradientUnits="userSpaceOnUse" x1="452.582" y1="104.293" x2="452.582" y2="73.301">
   <stop offset="0" style="stop-opacity:1; stop-color:#6A6A92"/>
   <stop offset="0.5" style="stop-opacity:1; stop-color:#8E94C0"/>
   <stop offset="1" style="stop-opacity:1; stop-color:#CED2E8"/>
  </linearGradient>
  <linearGradient id="id1" gradientUnits="userSpaceOnUse" x1="452.582" y1="102.403" x2="452.582" y2="75.19">
   <stop offset="0" style="stop-opacity:1; stop-color:#707098"/>
   <stop offset="0.5" style="stop-opacity:1; stop-color:#8E94C0"/>
   <stop offset="1" style="stop-opacity:1; stop-color:#B4BADC"/>
  </linearGradient>
  <linearGradient id="id2" gradientUnits="userSpaceOnUse" x1="452.582" y1="88.797" x2="452.582" y2="71.411">
   <stop offset="0" style="stop-opacity:1; stop-color:#646488"/>
   <stop offset="1" style="stop-opacity:1; stop-color:#B4BADC"/>
  </linearGradient>
 </defs>
 <g>
  <path class="fil0" d="M452.582 71.411c9.601,0 17.386,7.784 17.386,17.386 0,9.602 -7.785,17.386 -17.386,17.386 -9.602,0 -17.386,-7.784 -17.386,-17.386 0,-9.602 7.784,-17.386 17.386,-17.386z"/>
  <path class="fil1" d="M452.582 73.301c8.558,0 15.496,6.938 15.496,15.496 0,8.558 -6.938,15.496 -15.496,15.496 -8.558,0 -15.496,-6.938 -15.496,-15.496 0,-8.558 6.938,-15.496 15.496,-15.496z"/>
  <path class="fil2" d="M452.582 75.19c7.514,0 13.606,6.092 13.606,13.607 0,7.514 -6.092,13.606 -13.606,13.606 -7.515,0 -13.606,-6.092 -13.606,-13.606 0,-7.515 6.091,-13.607 13.606,-13.607z"/>
  <path class="fil3" d="M452.582 104.293c8.558,0 15.495,-6.938 15.495,-15.495l0 -0.001c-3.808,4.251 -9.339,6.927 -15.495,6.927 -6.157,0 -11.688,-2.676 -15.495,-6.928l0 0.002c0,8.557 6.937,15.495 15.495,15.495z"/>
  <path class="fil4" d="M461.694 90.036l-1.129 -3.136c-0.726,0.262 -1.452,0.524 -2.179,0.785l0.169 0.467c0.036,0.1 0.053,0.219 0.09,0.32 0.17,1.169 -0.734,2.01 -3.29,2.931l-5.204 1.875 8.826 -10.227 -0.344 -0.956 -0.556 0.2 -13.874 4.999 1.137 3.157c0.689,-0.248 1.378,-0.496 2.067,-0.744l-0.174 -0.553c-0.418,-1.37 0.431,-2.153 3.877,-3.394l3.559 -1.282 -8.669 10.107 0.353 0.978 0.555 -0.2 14.786 -5.327z"/>
 </g>
</svg>
