<?xml version="1.0" encoding="UTF-8"?>
<!DOCTYPE svg PUBLIC "-//W3C//DTD SVG 1.1//EN" "http://www.w3.org/Graphics/SVG/1.1/DTD/svg11.dtd">
<svg viewBox="0 0 562 316" xml:space="preserve" width="562px" height="316px" version="1.1" style="shape-rendering:geometricPrecision; fill-rule:evenodd; clip-rule:evenodd" xmlns="http://www.w3.org/2000/svg">
 <defs>
  <style type="text/css">
    .fil0 {fill:#B20000}
    .fil2 {fill:red}
    .fil3 {fill:#FF2727}
    .fil1 {fill:#77828C}
  </style>
 </defs>
 <g>
  <path class="fil0" d="M110.388 164.326l-24.014 0c-1.385,-4.702 -2.131,-9.678 -2.131,-14.828 0,-5.15 0.746,-10.125 2.131,-14.827l24.014 0c6.845,1.464 11.979,7.547 11.979,14.829 0,7.277 -5.126,13.355 -11.964,14.826l-0.015 0z"/>
  <path class="fil1" d="M93.598 158.732l0.005 0.001c-0.004,-0.002 -0.01,-0.005 -0.005,-0.001z"/>
  <path class="fil1" d="M93.609 158.742c0.008,0.007 0.001,-0.001 -0.001,-0.009 -0.013,-0.001 -0.006,0.002 0.001,0.009z"/>
  <path class="fil2" d="M115.226 162.369c-1.51,-0.545 -3.139,-0.843 -4.837,-0.843l-16.775 0c-1.336,0 -2.46,-0.909 -2.739,-2.215 -0.675,-3.164 -1.032,-6.446 -1.032,-9.813 0,-3.366 0.357,-6.648 1.032,-9.812 0.279,-1.307 1.403,-2.215 2.739,-2.215l16.775 0c1.697,0 3.325,-0.298 4.834,-0.841 4.29,2.678 7.144,7.44 7.144,12.87 0,5.428 -2.853,10.189 -7.141,12.869z"/>
  <path class="fil3" d="M115.226 162.369c-1.51,-0.545 -3.139,-0.843 -4.837,-0.843l-16.775 0c-1.336,0 -2.46,-0.909 -2.739,-2.215 -0.675,-3.164 -1.032,-6.446 -1.032,-9.813 0,-3.366 0.357,-6.648 1.032,-9.812 0.279,-1.307 1.403,-2.215 2.739,-2.215l16.775 0c1.697,0 3.325,-0.298 4.834,-0.841 0.912,0.568 1.758,1.231 2.526,1.975 -2.229,1.067 -4.725,1.665 -7.36,1.665l-12.392 0c-0.905,0 -1.666,0.63 -1.834,1.519 -0.472,2.497 -0.72,5.074 -0.72,7.709 0,2.635 0.247,5.212 0.72,7.71 0.168,0.89 0.929,1.519 1.834,1.519l12.392 0c2.636,0 5.133,0.598 7.361,1.666 -0.767,0.743 -1.613,1.406 -2.524,1.976z"/>
 </g>
</svg>
