<?xml version="1.0" encoding="UTF-8"?>
<!DOCTYPE svg PUBLIC "-//W3C//DTD SVG 1.1//EN" "http://www.w3.org/Graphics/SVG/1.1/DTD/svg11.dtd">
<svg viewBox="0 0 562 316" xml:space="preserve" width="562px" height="316px" version="1.1" style="shape-rendering:geometricPrecision; fill-rule:evenodd; clip-rule:evenodd" xmlns="http://www.w3.org/2000/svg">
 <defs>
  <style type="text/css">
    .fil0 {fill:#B20000}
    .fil2 {fill:red}
    .fil3 {fill:#FF2727}
    .fil1 {fill:#77828C}
  </style>
 </defs>
 <g>
  <path class="fil0" d="M136.675 97.067c5.15,0 10.125,0.746 14.827,2.131l0 24.013 -0.001 0.046c-1.476,6.83 -7.55,11.948 -14.822,11.948 -7.287,0 -13.373,-5.141 -14.832,-11.994l0 -24.013c4.702,-1.385 9.677,-2.131 14.828,-2.131z"/>
  <path class="fil1" d="M127.441 106.422l-0.001 0.005c0.002,-0.005 0.005,-0.01 0.001,-0.005z"/>
  <path class="fil1" d="M127.43 106.433c-0.006,0.008 0.002,0.001 0.009,-0.001l0 -0.008 -0.009 0.009z"/>
  <path class="fil2" d="M148.703 106.438l0 16.775c0,1.703 0.298,3.336 0.846,4.85 -2.679,4.288 -7.441,7.142 -12.87,7.142 -5.433,0 -10.198,-2.858 -12.876,-7.152 0.546,-1.511 0.844,-3.141 0.844,-4.84l0 -16.775c0,-1.336 0.909,-2.46 2.215,-2.739 3.164,-0.675 6.447,-1.032 9.813,-1.032 3.365,0 6.648,0.357 9.812,1.032 1.306,0.279 2.216,1.403 2.216,2.739z"/>
  <path class="fil3" d="M148.703 106.438l0 16.775c0,1.703 0.298,3.336 0.846,4.85 -0.569,0.91 -1.231,1.756 -1.974,2.523 -1.072,-2.232 -1.672,-4.733 -1.672,-7.373l0 -12.393c0,-0.905 -0.63,-1.665 -1.52,-1.833 -2.496,-0.473 -5.074,-0.721 -7.708,-0.721 -2.636,0 -5.213,0.248 -7.71,0.721 -0.89,0.168 -1.519,0.928 -1.519,1.833l0 12.393c0,2.638 -0.599,5.136 -1.669,7.366 -0.743,-0.768 -1.405,-1.615 -1.974,-2.526 0.546,-1.511 0.844,-3.141 0.844,-4.84l0 -16.775c0,-1.336 0.909,-2.46 2.215,-2.739 3.164,-0.675 6.447,-1.032 9.813,-1.032 3.365,0 6.648,0.357 9.812,1.032 1.306,0.279 2.216,1.403 2.216,2.739z"/>
 </g>
</svg>
