<?xml version="1.0" encoding="UTF-8"?>
<!DOCTYPE svg PUBLIC "-//W3C//DTD SVG 1.1//EN" "http://www.w3.org/Graphics/SVG/1.1/DTD/svg11.dtd">
<svg xml:space="preserve" viewBox="0 0 1098 612" width="1098px" height="612px" version="1.1" style="shape-rendering:geometricPrecision; fill-rule:evenodd; clip-rule:evenodd" xmlns="http://www.w3.org/2000/svg">
 <defs>
  <style type="text/css">
    .fil1 {fill:red}
    .fil3 {fill:black;fill-opacity:0.05}
    .fil4 {fill:black;fill-opacity:0.3}
    .fil0 {fill:red;fill-opacity:0.5}
    .fil2 {fill:url(#id0)}
  </style>
  <linearGradient id="id0" gradientUnits="userSpaceOnUse" x1="738.862" y1="421.05" x2="738.862" y2="344.62">
   <stop offset="0" style="stop-opacity:1; stop-color:red"/>
   <stop offset="0.3" style="stop-opacity:1; stop-color:red"/>
   <stop offset="1" style="stop-opacity:1; stop-color:#D00000"/>
  </linearGradient>
 </defs>
 <g>
  <path class="fil0" d="M738.862 337.42c25.081,0 45.415,20.334 45.415,45.415 0,25.082 -20.334,45.415 -45.415,45.415 -25.082,0 -45.415,-20.333 -45.415,-45.415 0,-25.081 20.333,-45.415 45.415,-45.415z"/>
  <circle class="fil1" cx="738.862" cy="382.835" r="41.815"/>
  <circle class="fil2" cx="738.862" cy="382.835" r="38.215"/>
  <path class="fil3" d="M738.862 344.621c19.266,0 35.202,14.258 37.832,32.797 0.113,0.793 -0.287,1.536 -1.012,1.879 -0.724,0.343 -1.554,0.18 -2.096,-0.411 -7.226,-7.886 -20.076,-13.133 -34.724,-13.133 -14.649,0 -27.499,5.249 -34.726,13.135 -0.541,0.591 -1.37,0.754 -2.095,0.412 -0.724,-0.343 -1.125,-1.087 -1.013,-1.88 2.63,-18.539 18.567,-32.799 37.834,-32.799z"/>
  <path class="fil4" d="M732.6 388.84l1.22 -10.996 10.586 3.088 -11.806 7.908zm5.839 8.144l-1.3 -1.941 -4.04 2.706c-1.117,0.748 -1.668,0.732 -1.581,-0.174 0,-0.346 0.07,-0.701 0.122,-1.082l0.558 -4.572 15.156 -10.152 4.334 1.295 1.386 0.344c0.49,0.391 0.394,0.69 -0.623,1.379l-0.049 0.033 -3.989 2.672 1.3 1.94 17.972 -12.037 -1.3 -1.941c-0.711,0.476 -1.255,0.854 -2.02,1.238 -1.401,0.669 -2.111,0.759 -3.691,0.354l-23.836 -6.72c-2.801,1.876 -5.601,3.751 -8.401,5.627l-3.177 24.813c-0.279,1.997 -0.491,2.37 -1.803,3.403l-0.567 0.418 -0.001 0.001 -0.159 0.106 -1.169 0.783 1.3 1.941 1.328 -0.89 14.25 -9.544z"/>
 </g>
</svg>
