<?xml version="1.0" encoding="UTF-8"?>
<!DOCTYPE svg PUBLIC "-//W3C//DTD SVG 1.1//EN" "http://www.w3.org/Graphics/SVG/1.1/DTD/svg11.dtd">
<svg viewBox="0 0 562 316" xml:space="preserve" width="562px" height="316px" version="1.1" style="shape-rendering:geometricPrecision; fill-rule:evenodd; clip-rule:evenodd" xmlns="http://www.w3.org/2000/svg">
 <defs>
  <style type="text/css">
    .fil0 {fill:#DD0000}
    .fil1 {fill:red}
  </style>
 </defs>
 <g>
  <path class="fil0" d="M168.261 3.202c4.153,0.351 5.416,2.33 3.755,2.386l-2.897 0.096c-16.307,0.378 -30.954,2.063 -46.355,7.533 -13.016,4.824 -24.1,10.98 -34.914,19.667 -7.795,6.435 -11.734,10.38 -18.245,17.697l-0.798 0.865c-0.972,1.054 -2.32,0.812 -0.627,-1.6 12.086,-17.211 27.23,-36.977 44.439,-44.913 14.233,-6.562 38.011,-3.22 55.642,-1.731z"/>
  <path class="fil1" d="M113.416 13.136c12.161,-5.433 22.558,-8.055 35.798,-9.322 11.558,-1.106 26.005,-1.543 26.005,2.223l0 0.934c-1.715,-0.031 -3.449,-0.036 -5.208,-0.017 -16.307,0.378 -31.565,2.816 -46.967,8.285 -13.015,4.824 -23.874,11.262 -34.688,19.948 -7.795,6.435 -14.67,13.256 -21.181,20.573l-0.781 -0.763c-2.232,-2.182 8.949,-13.951 14.914,-19.831 8.807,-8.682 20.907,-17.025 32.108,-22.03z"/>
 </g>
</svg>
