<?xml version="1.0" encoding="UTF-8"?>
<!DOCTYPE svg PUBLIC "-//W3C//DTD SVG 1.1//EN" "http://www.w3.org/Graphics/SVG/1.1/DTD/svg11.dtd">
<svg xml:space="preserve" viewBox="0 0 562 316" width="562px" height="316px" version="1.1" style="shape-rendering:geometricPrecision; fill-rule:evenodd; clip-rule:evenodd" xmlns="http://www.w3.org/2000/svg">
 <defs>
  <style type="text/css">
    .fil0 {fill:red;fill-opacity:0.501961}
    .fil1 {fill:red}
    .fil2 {fill:#FF2727}
  </style>
 </defs>
 <g>
  <path class="fil0" d="M162.961 134.671l17.629 0c2.133,0 3.932,1.426 4.417,3.504 0.849,3.637 1.298,7.428 1.298,11.323 0,3.896 -0.449,7.687 -1.298,11.323 -0.485,2.078 -2.283,3.505 -4.417,3.505l-17.644 0c-6.838,-1.471 -11.964,-7.549 -11.964,-14.826 0,-7.282 5.134,-13.365 11.979,-14.829z"/>
  <path class="fil1" d="M158.126 136.63c1.509,0.543 3.137,0.841 4.834,0.841l16.775 0c1.336,0 2.46,0.908 2.738,2.215 0.676,3.164 1.033,6.446 1.033,9.812 0,3.366 -0.357,6.649 -1.033,9.813 -0.278,1.306 -1.402,2.215 -2.738,2.215l-16.775 0c-1.698,0 -3.327,0.298 -4.838,0.843 -4.287,-2.68 -7.14,-7.441 -7.14,-12.869 0,-5.43 2.854,-10.192 7.144,-12.87z"/>
  <path class="fil2" d="M158.126 136.63c1.509,0.543 3.137,0.841 4.834,0.841l16.775 0c1.336,0 2.46,0.908 2.738,2.215 0.676,3.164 1.033,6.446 1.033,9.812 0,3.366 -0.357,6.649 -1.033,9.813 -0.278,1.306 -1.402,2.215 -2.738,2.215l-16.775 0c-1.698,0 -3.327,0.298 -4.838,0.843 -0.91,-0.57 -1.756,-1.233 -2.524,-1.976 2.229,-1.068 4.726,-1.666 7.362,-1.666l12.392 0c0.906,0 1.666,-0.63 1.834,-1.52 0.472,-2.497 0.72,-5.074 0.72,-7.709 0,-2.635 -0.247,-5.212 -0.72,-7.709 -0.169,-0.89 -0.928,-1.52 -1.834,-1.52l-12.392 0.001c-2.635,0 -5.131,-0.598 -7.359,-1.665 0.768,-0.744 1.613,-1.407 2.525,-1.975z"/>
 </g>
</svg>
