<?xml version="1.0" encoding="UTF-8"?>
<!DOCTYPE svg PUBLIC "-//W3C//DTD SVG 1.1//EN" "http://www.w3.org/Graphics/SVG/1.1/DTD/svg11.dtd">
<svg xml:space="preserve" viewBox="0 0 562 316" width="562px" height="316px" version="1.1" style="shape-rendering:geometricPrecision; fill-rule:evenodd; clip-rule:evenodd" xmlns="http://www.w3.org/2000/svg">
 <defs>
  <style type="text/css">
    .fil0 {fill:red;fill-opacity:0.501961}
    .fil1 {fill:red}
    .fil2 {fill:#FF2727}
  </style>
 </defs>
 <g>
  <path class="fil0" d="M151.502 175.785l0 17.629c0,2.133 -1.427,3.931 -3.504,4.416 -3.637,0.849 -7.428,1.299 -11.323,1.299 -3.896,0 -7.686,-0.45 -11.324,-1.299 -2.077,-0.485 -3.504,-2.283 -3.504,-4.416l0 -17.644c1.47,-6.838 7.549,-11.963 14.826,-11.963 7.282,0 13.365,5.133 14.829,11.978z"/>
  <path class="fil1" d="M149.543 170.95c-0.544,1.509 -0.84,3.137 -0.84,4.834l0 16.775c0,1.335 -0.91,2.459 -2.216,2.738 -3.164,0.676 -6.446,1.032 -9.812,1.032 -3.366,0 -6.649,-0.356 -9.813,-1.032 -1.306,-0.279 -2.215,-1.402 -2.215,-2.738l0 -16.775c0,-1.699 -0.298,-3.328 -0.842,-4.837 2.679,-4.288 7.44,-7.14 12.868,-7.14 5.429,0 10.192,2.854 12.87,7.143z"/>
  <path class="fil2" d="M149.543 170.95c-0.544,1.509 -0.84,3.137 -0.84,4.834l0 16.775c0,1.335 -0.91,2.459 -2.216,2.738 -3.164,0.676 -6.446,1.032 -9.812,1.032 -3.366,0 -6.649,-0.356 -9.813,-1.032 -1.306,-0.279 -2.215,-1.402 -2.215,-2.738l0 -16.775c0,-1.699 -0.298,-3.328 -0.842,-4.837 0.569,-0.911 1.232,-1.757 1.975,-2.525 1.068,2.229 1.666,4.726 1.666,7.362l0 12.392c0,0.905 0.63,1.666 1.519,1.834 2.498,0.472 5.074,0.72 7.71,0.72 2.634,0 5.212,-0.248 7.709,-0.72 0.89,-0.169 1.519,-0.929 1.519,-1.834l0 -12.392c0,-2.635 0.598,-5.131 1.665,-7.359 0.743,0.768 1.406,1.614 1.975,2.525z"/>
 </g>
</svg>
