<?xml version="1.0" encoding="UTF-8"?>
<!DOCTYPE svg PUBLIC "-//W3C//DTD SVG 1.1//EN" "http://www.w3.org/Graphics/SVG/1.1/DTD/svg11.dtd">
<svg xml:space="preserve" viewBox="0 0 562 316" width="562px" height="316px" version="1.1" style="shape-rendering:geometricPrecision; fill-rule:evenodd; clip-rule:evenodd" xmlns="http://www.w3.org/2000/svg">
 <defs>
  <style type="text/css">
    .fil0 {fill:red;fill-opacity:0.501961}
    .fil1 {fill:red}
    .fil2 {fill:#FF2727}
  </style>
 </defs>
 <g>
  <path class="fil0" d="M88.342 160.821c-0.849,-3.636 -1.298,-7.427 -1.298,-11.323 0,-3.895 0.449,-7.686 1.298,-11.323 0.485,-2.078 2.284,-3.504 4.417,-3.504l17.629 0c6.845,1.464 11.979,7.547 11.979,14.829 0,7.277 -5.126,13.355 -11.964,14.826l-17.644 0c-2.133,0 -3.932,-1.427 -4.417,-3.505z"/>
  <path class="fil1" d="M115.226 162.369c-1.51,-0.545 -3.139,-0.843 -4.837,-0.843l-16.775 0c-1.336,0 -2.46,-0.909 -2.739,-2.215 -0.675,-3.164 -1.032,-6.446 -1.032,-9.813 0,-3.366 0.357,-6.648 1.032,-9.812 0.279,-1.307 1.403,-2.215 2.739,-2.215l16.775 0c1.697,0 3.325,-0.298 4.834,-0.841 4.29,2.678 7.144,7.44 7.144,12.87 0,5.428 -2.853,10.189 -7.141,12.869z"/>
  <path class="fil2" d="M115.226 162.369c-1.51,-0.545 -3.139,-0.843 -4.837,-0.843l-16.775 0c-1.336,0 -2.46,-0.909 -2.739,-2.215 -0.675,-3.164 -1.032,-6.446 -1.032,-9.813 0,-3.366 0.357,-6.648 1.032,-9.812 0.279,-1.307 1.403,-2.215 2.739,-2.215l16.775 0c1.697,0 3.325,-0.298 4.834,-0.841 0.912,0.568 1.758,1.231 2.526,1.975 -2.229,1.067 -4.725,1.665 -7.36,1.665l-12.392 0c-0.905,0 -1.666,0.63 -1.834,1.519 -0.472,2.497 -0.72,5.074 -0.72,7.709 0,2.635 0.247,5.212 0.72,7.71 0.168,0.89 0.929,1.519 1.834,1.519l12.392 0c2.636,0 5.133,0.598 7.361,1.666 -0.767,0.743 -1.613,1.406 -2.524,1.976z"/>
 </g>
</svg>
