<?xml version="1.0" encoding="UTF-8"?>
<!DOCTYPE svg PUBLIC "-//W3C//DTD SVG 1.1//EN" "http://www.w3.org/Graphics/SVG/1.1/DTD/svg11.dtd">
<svg xml:space="preserve" viewBox="0 0 1098 612" width="1098px" height="612px" version="1.1" style="shape-rendering:geometricPrecision; fill-rule:evenodd; clip-rule:evenodd" xmlns="http://www.w3.org/2000/svg">
 <defs>
  <style type="text/css">
    .fil1 {fill:red}
    .fil3 {fill:black;fill-opacity:0.05}
    .fil4 {fill:black;fill-opacity:0.3}
    .fil0 {fill:red;fill-opacity:0.5}
    .fil2 {fill:url(#id0)}
  </style>
  <linearGradient id="id0" gradientUnits="userSpaceOnUse" x1="954.779" y1="311.918" x2="954.779" y2="235.488">
   <stop offset="0" style="stop-opacity:1; stop-color:red"/>
   <stop offset="0.3" style="stop-opacity:1; stop-color:red"/>
   <stop offset="1" style="stop-opacity:1; stop-color:#D00000"/>
  </linearGradient>
 </defs>
 <g>
  <path class="fil0" d="M954.779 228.288c25.082,0 45.415,20.334 45.415,45.415 0,25.081 -20.333,45.415 -45.415,45.415 -25.081,0 -45.415,-20.334 -45.415,-45.415 0,-25.081 20.334,-45.415 45.415,-45.415z"/>
  <circle class="fil1" cx="954.779" cy="273.703" r="41.815"/>
  <circle class="fil2" cx="954.779" cy="273.703" r="38.215"/>
  <path class="fil3" d="M954.779 235.49c19.266,0 35.202,14.257 37.833,32.796 0.112,0.794 -0.288,1.536 -1.013,1.879 -0.724,0.343 -1.554,0.181 -2.096,-0.411 -7.226,-7.886 -20.076,-13.132 -34.724,-13.132 -14.649,0 -27.499,5.248 -34.725,13.135 -0.541,0.591 -1.371,0.753 -2.096,0.411 -0.724,-0.343 -1.125,-1.086 -1.013,-1.88 2.631,-18.539 18.568,-32.798 37.834,-32.798z"/>
  <path class="fil4" d="M966.531 259.16c-4.238,-0.279 -9.52,0.66 -14.768,2.653 -2.757,0.941 -5.533,2.177 -8.171,3.685 -8.226,4.732 -12.324,10.732 -10.311,16.13 1.427,3.771 5.292,5.814 10.776,6.117 3.679,0.205 7.754,-0.379 12.297,-1.744 1.537,-0.456 2.991,-0.945 4.361,-1.458 11.151,-3.854 17.219,-9.384 16.84,-14.275 0.018,-0.517 -0.096,-1.02 -0.318,-1.45 -2.027,0.73 -4.054,1.46 -6.081,2.19 0.13,0.362 0.141,0.766 0.139,1.141 -0.136,3.628 -4.041,7.347 -10.032,9.682 -0.912,0.303 -1.866,0.575 -2.855,0.812 -5.888,1.407 -10.97,0.517 -13.629,-3.083 -4.361,-6.057 0.486,-12.576 9.044,-15.922 0.595,-0.197 1.205,-0.38 1.828,-0.547 6.265,-1.679 11.037,-1.085 13.221,1.767 0.23,0.258 0.398,0.538 0.506,0.839 2.027,-0.73 4.054,-1.461 6.081,-2.191l-2.973 -8.249c-1.846,0.665 -3.692,1.33 -5.538,1.995l-0.417 1.908z"/>
 </g>
</svg>
