<?xml version="1.0" encoding="UTF-8"?>
<!DOCTYPE svg PUBLIC "-//W3C//DTD SVG 1.1//EN" "http://www.w3.org/Graphics/SVG/1.1/DTD/svg11.dtd">
<svg xml:space="preserve" viewBox="0 0 562 316" width="562px" height="316px" version="1.1" style="shape-rendering:geometricPrecision; fill-rule:evenodd; clip-rule:evenodd" xmlns="http://www.w3.org/2000/svg">
 <defs>
  <style type="text/css">
    .fil0 {fill:red;fill-opacity:0.501961}
    .fil1 {fill:red}
    .fil2 {fill:#FF2727}
  </style>
 </defs>
 <g>
  <path class="fil0" d="M151.502 105.582l-0.001 17.675c-1.476,6.83 -7.55,11.948 -14.822,11.948 -7.287,0 -13.373,-5.141 -14.832,-11.994l0 -17.629c0,-2.133 1.427,-3.932 3.504,-4.416 3.638,-0.849 7.428,-1.299 11.324,-1.299 3.895,0 7.686,0.45 11.322,1.299 2.078,0.484 3.505,2.283 3.505,4.416z"/>
  <path class="fil1" d="M148.703 106.438l0 16.775c0,1.703 0.298,3.336 0.846,4.85 -2.679,4.288 -7.441,7.142 -12.87,7.142 -5.433,0 -10.198,-2.858 -12.876,-7.152 0.546,-1.511 0.844,-3.141 0.844,-4.84l0 -16.775c0,-1.336 0.909,-2.46 2.215,-2.739 3.164,-0.675 6.447,-1.032 9.813,-1.032 3.365,0 6.648,0.357 9.812,1.032 1.306,0.279 2.216,1.403 2.216,2.739z"/>
  <path class="fil2" d="M148.703 106.438l0 16.775c0,1.703 0.298,3.336 0.846,4.85 -0.569,0.91 -1.231,1.756 -1.974,2.523 -1.072,-2.232 -1.672,-4.733 -1.672,-7.373l0 -12.393c0,-0.905 -0.63,-1.665 -1.52,-1.833 -2.496,-0.473 -5.074,-0.721 -7.708,-0.721 -2.636,0 -5.213,0.248 -7.71,0.721 -0.89,0.168 -1.519,0.928 -1.519,1.833l0 12.393c0,2.638 -0.599,5.136 -1.669,7.366 -0.743,-0.768 -1.405,-1.615 -1.974,-2.526 0.546,-1.511 0.844,-3.141 0.844,-4.84l0 -16.775c0,-1.336 0.909,-2.46 2.215,-2.739 3.164,-0.675 6.447,-1.032 9.813,-1.032 3.365,0 6.648,0.357 9.812,1.032 1.306,0.279 2.216,1.403 2.216,2.739z"/>
 </g>
</svg>
