<?xml version="1.0" encoding="UTF-8"?>
<!DOCTYPE svg PUBLIC "-//W3C//DTD SVG 1.1//EN" "http://www.w3.org/Graphics/SVG/1.1/DTD/svg11.dtd">
<svg viewBox="0 0 562 316" xml:space="preserve" width="562px" height="316px" version="1.1" style="shape-rendering:geometricPrecision; fill-rule:evenodd; clip-rule:evenodd" xmlns="http://www.w3.org/2000/svg">
 <defs>
  <style type="text/css">
    .fil0 {fill:#B20000}
    .fil2 {fill:red}
    .fil3 {fill:#FF2727}
    .fil1 {fill:#77828C}
  </style>
 </defs>
 <g>
  <path class="fil0" d="M151.502 175.785l0 24.014c-4.702,1.384 -9.677,2.13 -14.827,2.13 -5.151,0 -10.126,-0.746 -14.828,-2.13l0 -24.014 0 -0.015c1.47,-6.838 7.549,-11.963 14.826,-11.963 7.282,0 13.365,5.133 14.829,11.978z"/>
  <path class="fil1" d="M145.908 192.575l0.001 -0.006c-0.002,0.005 -0.005,0.01 -0.001,0.006z"/>
  <path class="fil1" d="M145.919 192.564c0.006,-0.008 -0.002,-0.001 -0.009,0 -0.002,0.014 0.001,0.008 0.009,0z"/>
  <path class="fil2" d="M149.543 170.95c-0.544,1.509 -0.84,3.137 -0.84,4.834l0 16.775c0,1.335 -0.91,2.459 -2.216,2.738 -3.164,0.676 -6.446,1.032 -9.812,1.032 -3.366,0 -6.649,-0.356 -9.813,-1.032 -1.306,-0.279 -2.215,-1.402 -2.215,-2.738l0 -16.775c0,-1.699 -0.298,-3.328 -0.842,-4.837 2.679,-4.288 7.44,-7.14 12.868,-7.14 5.429,0 10.192,2.854 12.87,7.143z"/>
  <path class="fil3" d="M149.543 170.95c-0.544,1.509 -0.84,3.137 -0.84,4.834l0 16.775c0,1.335 -0.91,2.459 -2.216,2.738 -3.164,0.676 -6.446,1.032 -9.812,1.032 -3.366,0 -6.649,-0.356 -9.813,-1.032 -1.306,-0.279 -2.215,-1.402 -2.215,-2.738l0 -16.775c0,-1.699 -0.298,-3.328 -0.842,-4.837 0.569,-0.911 1.232,-1.757 1.975,-2.525 1.068,2.229 1.666,4.726 1.666,7.362l0 12.392c0,0.905 0.63,1.666 1.519,1.834 2.498,0.472 5.074,0.72 7.71,0.72 2.634,0 5.212,-0.248 7.709,-0.72 0.89,-0.169 1.519,-0.929 1.519,-1.834l0 -12.392c0,-2.635 0.598,-5.131 1.665,-7.359 0.743,0.768 1.406,1.614 1.975,2.525z"/>
 </g>
</svg>
