<?xml version="1.0" encoding="UTF-8"?>
<!DOCTYPE svg PUBLIC "-//W3C//DTD SVG 1.1//EN" "http://www.w3.org/Graphics/SVG/1.1/DTD/svg11.dtd">
<svg viewBox="0 0 562 316" xml:space="preserve" width="562px" height="316px" version="1.1" style="shape-rendering:geometricPrecision; fill-rule:evenodd; clip-rule:evenodd" xmlns="http://www.w3.org/2000/svg">
 <defs>
  <style type="text/css">
    .fil1 {fill:red}
    .fil4 {fill:black;fill-opacity:0.1}
    .fil3 {fill:black;fill-opacity:0.3}
    .fil0 {fill:red;fill-opacity:0.5}
    .fil2 {fill:url(#id0)}
  </style>
  <linearGradient id="id0" gradientUnits="userSpaceOnUse" x1="491.389" y1="161.288" x2="491.389" y2="121.22">
   <stop offset="0" style="stop-opacity:1; stop-color:red"/>
   <stop offset="0.3" style="stop-opacity:1; stop-color:red"/>
   <stop offset="1" style="stop-opacity:1; stop-color:#D00000"/>
  </linearGradient>
 </defs>
 <g>
  <path class="fil0" d="M491.389 117.444c13.15,0 23.811,10.66 23.811,23.811 0,13.15 -10.661,23.811 -23.811,23.811 -13.151,0 -23.811,-10.661 -23.811,-23.811 0,-13.151 10.66,-23.811 23.811,-23.811z"/>
  <circle class="fil1" cx="491.389" cy="141.254" r="21.921"/>
  <circle class="fil2" cx="491.389" cy="141.254" r="20.034"/>
  <path class="fil3" d="M497.55 133.63c-2.222,-0.146 -4.991,0.346 -7.742,1.391 -1.446,0.494 -2.901,1.141 -4.284,1.932 -4.313,2.481 -6.46,5.626 -5.405,8.456 0.748,1.977 2.774,3.048 5.649,3.207 1.928,0.108 4.065,-0.198 6.446,-0.914 0.806,-0.24 1.568,-0.496 2.287,-0.765 5.845,-2.02 9.027,-4.919 8.828,-7.483 0.009,-0.271 -0.05,-0.535 -0.167,-0.76 -1.063,0.382 -2.125,0.765 -3.187,1.148 0.068,0.19 0.073,0.402 0.072,0.598 -0.071,1.902 -2.118,3.851 -5.259,5.076 -0.479,0.159 -0.978,0.301 -1.497,0.425 -3.087,0.738 -5.751,0.271 -7.144,-1.616 -2.287,-3.175 0.254,-6.593 4.74,-8.347 0.312,-0.103 0.632,-0.199 0.959,-0.287 3.284,-0.88 5.786,-0.568 6.931,0.927 0.12,0.135 0.208,0.281 0.265,0.439 1.063,-0.382 2.125,-0.765 3.188,-1.148l-1.558 -4.325c-0.968,0.349 -1.936,0.698 -2.904,1.046l-0.218 1z"/>
  <path class="fil4" d="M491.389 121.22c11.065,0 20.034,8.97 20.034,20.034l0 0.001c-4.923,-5.497 -12.074,-8.956 -20.034,-8.956 -7.96,0 -15.111,3.46 -20.035,8.957l0 -0.002c0,-11.064 8.97,-20.034 20.035,-20.034z"/>
 </g>
</svg>
