<?xml version="1.0" encoding="UTF-8"?>
<!DOCTYPE svg PUBLIC "-//W3C//DTD SVG 1.1//EN" "http://www.w3.org/Graphics/SVG/1.1/DTD/svg11.dtd">
<svg xml:space="preserve" viewBox="0 0 1098 612" width="1098px" height="612px" version="1.1" style="shape-rendering:geometricPrecision; fill-rule:evenodd; clip-rule:evenodd" xmlns="http://www.w3.org/2000/svg">
 <defs>
  <style type="text/css">
    .fil0 {fill:#B20000}
    .fil1 {fill:red}
    .fil2 {fill:#FF2727}
  </style>
 </defs>
 <g>
  <path class="fil0" d="M321.337 261.005l46.317 0c2.669,9.068 4.108,18.665 4.108,28.598 0,9.933 -1.438,19.528 -4.108,28.597l-46.317 0 -0.029 0c-13.188,-2.835 -23.074,-14.559 -23.074,-28.594 0,-14.046 9.9,-25.777 23.103,-28.601z"/>
  <path class="fil1" d="M312.011 264.782c2.911,1.05 6.05,1.623 9.324,1.623l32.354 0c2.576,0 4.744,1.753 5.282,4.272 1.302,6.102 1.991,12.434 1.991,18.926 0,6.491 -0.689,12.823 -1.991,18.926 -0.538,2.519 -2.705,4.272 -5.282,4.272l-32.354 0c-3.276,0 -6.417,0.573 -9.33,1.624 -8.27,-5.167 -13.771,-14.35 -13.771,-24.819 0,-10.472 5.504,-19.657 13.777,-24.824z"/>
  <path class="fil2" d="M312.011 264.782c2.911,1.05 6.05,1.623 9.324,1.623l32.354 0c2.576,0 4.744,1.753 5.282,4.272 1.302,6.102 1.991,12.434 1.991,18.926 0,6.491 -0.689,12.823 -1.991,18.926 -0.538,2.519 -2.705,4.272 -5.282,4.272l-32.354 0c-3.276,0 -6.417,0.573 -9.33,1.624 -1.757,-1.097 -3.388,-2.376 -4.868,-3.81 4.298,-2.06 9.114,-3.214 14.198,-3.214l23.901 0c1.746,0 3.212,-1.214 3.537,-2.93 0.911,-4.816 1.389,-9.786 1.389,-14.868 0,-5.082 -0.478,-10.053 -1.389,-14.87 -0.325,-1.716 -1.791,-2.93 -3.537,-2.93l-23.901 0.001c-5.083,0 -9.897,-1.153 -14.194,-3.212 1.481,-1.434 3.113,-2.712 4.87,-3.81z"/>
 </g>
</svg>
