<?xml version="1.0" encoding="UTF-8"?>
<!DOCTYPE svg PUBLIC "-//W3C//DTD SVG 1.1//EN" "http://www.w3.org/Graphics/SVG/1.1/DTD/svg11.dtd">
<svg viewBox="0 0 562 316" xml:space="preserve" width="562px" height="316px" version="1.1" style="shape-rendering:geometricPrecision; fill-rule:evenodd; clip-rule:evenodd" xmlns="http://www.w3.org/2000/svg">
 <defs>
  <style type="text/css">
    .fil3 {fill:black;fill-opacity:0.1}
    .fil2 {fill:black;fill-opacity:0.3}
    .fil1 {fill:url(#id0)}
    .fil0 {fill:url(#id1);fill-opacity:0.5}
  </style>
  <linearGradient id="id0" gradientUnits="userSpaceOnUse" x1="359.768" y1="151.275" x2="359.768" y2="120.283">
   <stop offset="0" style="stop-opacity:1; stop-color:#C00000"/>
   <stop offset="0.6" style="stop-opacity:1; stop-color:red"/>
   <stop offset="1" style="stop-opacity:1; stop-color:red"/>
  </linearGradient>
  <linearGradient id="id1" gradientUnits="userSpaceOnUse" xlink:href="#id0" x1="359.768" y1="153.165" x2="359.768" y2="118.393">
  </linearGradient>
 </defs>
 <g>
  <path class="fil0" d="M359.768 118.393c9.602,0 17.385,7.784 17.385,17.386 0,9.601 -7.783,17.386 -17.385,17.386 -9.602,0 -17.386,-7.785 -17.386,-17.386 0,-9.602 7.784,-17.386 17.386,-17.386z"/>
  <path class="fil1" d="M359.768 120.283c8.558,0 15.496,6.938 15.496,15.496 0,8.558 -6.938,15.496 -15.496,15.496 -8.558,0 -15.496,-6.938 -15.496,-15.496 0,-8.558 6.938,-15.496 15.496,-15.496z"/>
  <path class="fil2" d="M353.436 145.14l7.01 -4.695 -0.48 -0.717 -0.959 0.642c-0.173,0.115 -0.372,0.235 -0.645,0.403 -0.327,0.191 -0.524,0.195 -0.544,0.038 -0.02,-0.115 0.013,-0.279 0.176,-0.587l1.907 -3.57 3.827 -0.271c0.19,-0.014 0.361,-0.014 0.538,-0.005 0.177,0.01 0.184,0.19 -0.052,0.433 -0.095,0.105 -0.27,0.25 -0.709,0.546l-1.418 0.95 0.48 0.717 8.267 -5.537 -0.48 -0.717c-0.214,0.143 -0.427,0.286 -0.641,0.429 -0.661,0.441 -0.836,0.494 -1.92,0.632 -0.105,0.013 -0.21,0.027 -0.314,0.04l-6.22 0.397 2.265 -4.262 0.366 -0.686c0.047,-0.084 0.093,-0.165 0.15,-0.243 0.262,-0.36 0.515,-0.572 1.197,-1.03l0.858 -0.574 -0.487 -0.727 -6.715 4.499 0.486 0.726 1.374 -0.92c0.063,-0.042 0.314,-0.217 0.475,-0.249 0.109,-0.023 0.15,0.018 0.122,0.119 -0.029,0.103 -0.113,0.272 -0.398,0.807l-1.496 2.804 -2.844 0.103c-0.472,0.018 -0.616,0.015 -0.708,0.005 -0.157,-0.023 -0.173,-0.13 -0.073,-0.236 0.083,-0.087 0.131,-0.144 0.465,-0.368 0.471,-0.316 0.942,-0.631 1.414,-0.947l-0.487 -0.727 -8.07 5.406 0.487 0.727 1.178 -0.789c0.403,-0.271 1.077,-0.393 1.546,-0.453 0.137,-0.007 0.268,-0.023 0.38,-0.027l5.315 -0.346 -2.814 5.185 -0.411 0.745c-0.241,0.424 -0.613,0.764 -1.013,1.034l-0.865 0.579 0.48 0.717z"/>
  <path class="fil3" d="M359.855 151.313c8.557,0 15.495,-6.938 15.495,-15.495l0 -0.001c-3.808,4.251 -9.339,6.927 -15.495,6.927 -6.157,0 -11.688,-2.676 -15.495,-6.928l0 0.002c0,8.557 6.937,15.495 15.495,15.495z"/>
 </g>
</svg>
