<?xml version="1.0" encoding="UTF-8"?>
<!DOCTYPE svg PUBLIC "-//W3C//DTD SVG 1.1//EN" "http://www.w3.org/Graphics/SVG/1.1/DTD/svg11.dtd">
<svg xml:space="preserve" viewBox="0 0 562 316" width="562px" height="316px" version="1.1" style="shape-rendering:geometricPrecision; fill-rule:evenodd; clip-rule:evenodd" xmlns="http://www.w3.org/2000/svg" xmlns:xlink="http://www.w3.org/1999/xlink">
 <defs>
  <style type="text/css">
    .str0 {stroke:#404040;stroke-width:2}
    .fil9 {fill:#101010}
    .fil4 {fill:#1A1A1A}
    .fil31 {fill:#1C1C1C}
    .fil13 {fill:#1F1F1F}
    .fil10 {fill:#202020}
    .fil21 {fill:#262626}
    .fil18 {fill:#272727}
    .fil12 {fill:#303030}
    .fil19 {fill:#333333}
    .fil14 {fill:#444444}
    .fil0 {fill:#4D4D4D}
    .fil8 {fill:#E6E6E6}
    .fil25 {fill:black;fill-opacity:0.1}
    .fil17 {fill:white;fill-opacity:0.25}
    .fil27 {fill:url(#id0)}
    .fil20 {fill:url(#id1)}
    .fil26 {fill:url(#id2)}
    .fil1 {fill:url(#id3)}
    .fil7 {fill:url(#id4)}
    .fil5 {fill:url(#id5)}
    .fil6 {fill:url(#id6)}
    .fil11 {fill:url(#id7)}
    .fil32 {fill:url(#id8)}
    .fil16 {fill:url(#id9)}
    .fil3 {fill:url(#id10)}
    .fil2 {fill:url(#id11)}
    .fil29 {fill:url(#id12)}
    .fil15 {fill:url(#id13)}
    .fil23 {fill:url(#id14)}
    .fil24 {fill:url(#id15)}
    .fil30 {fill:url(#id16)}
    .fil28 {fill:url(#id17);fill-opacity:0.6}
    .fil22 {fill:url(#id18);fill-opacity:0.6}
    .shd0 {filter: drop-shadow(0px 1px .5px rgba(0, 0, 0, 0.4)) drop-shadow(0px 0px .5px rgba(0, 0, 0, 0.4))}
  </style>
  <linearGradient id="id0" gradientUnits="objectBoundingBox" x1="50%" y1="100%" x2="50%" y2="0%">
   <stop offset="0" style="stop-opacity:1; stop-color:#101010"/>
   <stop offset="1" style="stop-opacity:1; stop-color:#1C1C1C"/>
  </linearGradient>
  <linearGradient id="id1" gradientUnits="userSpaceOnUse" x1="280.999" y1="197.886" x2="280.999" y2="191.082">
   <stop offset="0" style="stop-opacity:1; stop-color:#262626"/>
   <stop offset="1" style="stop-opacity:1; stop-color:#3A3A3A"/>
  </linearGradient>
  <linearGradient id="id2" gradientUnits="userSpaceOnUse" xlink:href="#id0" x1="360.003" y1="145.144" x2="360.003" y2="126.751">
  </linearGradient>
  <linearGradient id="id3" gradientUnits="userSpaceOnUse" x1="281" y1="314.98" x2="281" y2="6.943">
   <stop offset="0" style="stop-opacity:1; stop-color:#1A1A1A"/>
   <stop offset="0.45" style="stop-opacity:1; stop-color:#333333"/>
   <stop offset="1" style="stop-opacity:1; stop-color:#4D4D4D"/>
  </linearGradient>
  <linearGradient id="id4" gradientUnits="userSpaceOnUse" x1="280.999" y1="198.013" x2="281" y2="191.603">
   <stop offset="0" style="stop-opacity:1; stop-color:#404040"/>
   <stop offset="1" style="stop-opacity:1; stop-color:#181818"/>
  </linearGradient>
  <linearGradient id="id5" gradientUnits="userSpaceOnUse" x1="111.854" y1="217.505" x2="161.495" y2="81.492">
   <stop offset="0" style="stop-opacity:1; stop-color:#505050"/>
   <stop offset="1" style="stop-opacity:1; stop-color:#1A1A1A"/>
  </linearGradient>
  <linearGradient id="id6" gradientUnits="userSpaceOnUse" x1="450.146" y1="217.505" x2="400.505" y2="81.492">
   <stop offset="0" style="stop-opacity:1; stop-color:#484848"/>
   <stop offset="1" style="stop-opacity:1; stop-color:#343434"/>
  </linearGradient>
  <linearGradient id="id7" gradientUnits="userSpaceOnUse" x1="136.675" y1="195.41" x2="136.675" y2="103.587">
   <stop offset="0" style="stop-opacity:1; stop-color:#3D3D3D"/>
   <stop offset="0.5" style="stop-opacity:1; stop-color:#333333"/>
   <stop offset="1" style="stop-opacity:1; stop-color:#292929"/>
  </linearGradient>
  <linearGradient id="id8" gradientUnits="userSpaceOnUse" x1="491.389" y1="121.223" x2="491.389" y2="161.286">
   <stop offset="0" style="stop-opacity:1; stop-color:#262626"/>
   <stop offset="0.6" style="stop-opacity:1; stop-color:#303030"/>
   <stop offset="1" style="stop-opacity:1; stop-color:#404040"/>
  </linearGradient>
  <linearGradient id="id9" gradientUnits="userSpaceOnUse" x1="136.674" y1="158.002" x2="136.674" y2="142.883">
   <stop offset="0" style="stop-opacity:1; stop-color:#666666"/>
   <stop offset="0.35" style="stop-opacity:1; stop-color:#3B3B3B"/>
   <stop offset="1" style="stop-opacity:1; stop-color:#101010"/>
  </linearGradient>
  <linearGradient id="id10" gradientUnits="userSpaceOnUse" x1="281.001" y1="281.777" x2="281.001" y2="31.816">
   <stop offset="0" style="stop-opacity:1; stop-color:#080808"/>
   <stop offset="1" style="stop-opacity:1; stop-color:#101010"/>
  </linearGradient>
  <linearGradient id="id11" gradientUnits="userSpaceOnUse" x1="281" y1="281.464" x2="281" y2="32.281">
   <stop offset="0" style="stop-opacity:1; stop-color:#101010"/>
   <stop offset="0.65" style="stop-opacity:1; stop-color:#484848"/>
   <stop offset="1" style="stop-opacity:1; stop-color:gray"/>
  </linearGradient>
  <linearGradient id="id12" gradientUnits="objectBoundingBox" x1="49.9998%" y1="50.0001%" x2="49.9998%" y2="0.000133575%">
   <stop offset="0" style="stop-opacity:1; stop-color:#303030"/>
   <stop offset="1" style="stop-opacity:1; stop-color:#484848"/>
  </linearGradient>
  <linearGradient id="id13" gradientUnits="userSpaceOnUse" x1="136.675" y1="195.41" x2="136.675" y2="103.586">
   <stop offset="0" style="stop-opacity:1; stop-color:#444444"/>
   <stop offset="0.5" style="stop-opacity:1; stop-color:#3A3A3A"/>
   <stop offset="1" style="stop-opacity:1; stop-color:#444444"/>
  </linearGradient>
  <linearGradient id="id14" gradientUnits="objectBoundingBox" x1="49.9997%" y1="100.001%" x2="49.9997%" y2="0.000525194%">
   <stop offset="0" style="stop-opacity:1; stop-color:#2A2A2A"/>
   <stop offset="0.5" style="stop-opacity:1; stop-color:#303030"/>
   <stop offset="1" style="stop-opacity:1; stop-color:#606060"/>
  </linearGradient>
  <linearGradient id="id15" gradientUnits="objectBoundingBox" x1="50.0001%" y1="100%" x2="50.0001%" y2="0.000236779%">
   <stop offset="0" style="stop-opacity:1; stop-color:#2C2C2C"/>
   <stop offset="0.5" style="stop-opacity:1; stop-color:#343434"/>
   <stop offset="1" style="stop-opacity:1; stop-color:#505050"/>
  </linearGradient>
  <linearGradient id="id16" gradientUnits="objectBoundingBox" xlink:href="#id8" x1="49.9998%" y1="1.131e-05%" x2="49.9998%" y2="100%">
  </linearGradient>
  <linearGradient id="id17" gradientUnits="objectBoundingBox" xlink:href="#id12" x1="49.9998%" y1="49.9998%" x2="49.9998%" y2="0%">
  </linearGradient>
  <linearGradient id="id18" gradientUnits="objectBoundingBox" x1="49.9998%" y1="50%" x2="49.9998%" y2="0.000217662%">
   <stop offset="0" style="stop-opacity:1; stop-color:#303030"/>
   <stop offset="1" style="stop-opacity:1; stop-color:#606060"/>
  </linearGradient>
 </defs>
 <g>
  <g id="shell">
   <path class="fil0" d="M475.529 33.097c-12.973,-10.42 -33.935,-21.143 -50.009,-25.026 -5.378,-1.299 -38.81,-6.505 -38.739,-1.1 0.147,0.968 3.377,0.748 5.137,0.768 16.307,0.377 31.066,2.815 46.467,8.284 13.016,4.824 23.518,11.405 34.332,20.091 7.795,6.435 19.517,21.167 22.108,19.646 2.646,-2.906 -15.798,-19.766 -19.296,-22.663zm-389.058 0c12.973,-10.42 33.935,-21.143 50.009,-25.026 5.378,-1.299 38.81,-6.505 38.739,-1.1 -0.147,0.968 -3.377,0.748 -5.137,0.768 -16.307,0.377 -31.066,2.815 -46.467,8.284 -13.016,4.824 -23.518,11.405 -34.332,20.091 -7.795,6.435 -19.517,21.167 -22.108,19.646 -2.646,-2.906 15.798,-19.766 19.296,-22.663z"/>
   <path class="fil1" d="M409.488 281.463l11.709 7.694c5.566,3.586 11.032,7.059 16.728,10.429 6.507,3.747 12.812,7.032 19.795,9.825 9.621,3.699 18.838,5.697 29.178,5.562 11.14,-0.251 21.947,-3.029 32.019,-7.751 8.559,-4.125 15.636,-9.206 21.951,-16.34 47.654,-55.702 1.702,-174.695 -35.537,-222.576 -9.729,-12.242 -19.604,-23.143 -31.687,-33.119 -10.814,-8.686 -21.673,-15.124 -34.688,-19.948 -15.402,-5.469 -30.66,-7.907 -46.967,-8.285 -15.266,-0.171 -28.646,1.563 -43.568,4.613l-22.145 4.901 -9.343 1.878c-6.65,1.209 -13.107,2.158 -19.833,2.837 -5.435,0.471 -10.645,0.724 -16.1,0.768 -5.455,-0.044 -10.665,-0.297 -16.1,-0.768 -6.726,-0.679 -13.183,-1.628 -19.833,-2.837l-9.343 -1.878 -22.145 -4.901c-14.922,-3.05 -28.302,-4.784 -43.568,-4.613 -16.307,0.378 -31.565,2.816 -46.967,8.285 -13.015,4.824 -23.874,11.262 -34.688,19.948 -12.083,9.976 -21.958,20.877 -31.687,33.119 -37.239,47.881 -83.191,166.874 -35.537,222.576 6.315,7.134 13.392,12.215 21.951,16.34 10.072,4.722 20.879,7.5 32.019,7.751 10.34,0.135 19.557,-1.863 29.178,-5.562 6.983,-2.793 13.288,-6.078 19.795,-9.825 5.696,-3.37 11.162,-6.843 16.728,-10.429l11.744 -7.717c37.147,-24.409 51.591,-71.167 128.453,-71.167 76.862,0 91.329,46.77 128.488,71.19z"/>
   <path class="fil2" d="M44.442 116.208c3.974,-7.561 8.73,-14.494 14.519,-21.388 14.145,-16.399 31.691,-29.184 51.236,-38.425 19.172,-8.759 38.499,-13.482 59.226,-16.966 37.282,-5.768 73.905,-6.989 111.577,-7.148 37.674,0.159 74.293,1.381 111.577,7.148 20.727,3.485 40.052,8.207 59.226,16.966 19.513,9.226 37.121,22.041 51.235,38.425 5.784,6.88 10.545,13.823 14.52,21.388 2.171,4.129 4.106,8.444 5.847,13.035 5.639,15.536 7.807,30.894 6.792,47.388 -0.995,13.172 -3.829,24.91 -9.457,36.89 -5.856,11.962 -12.79,20.777 -22.939,29.27 -8.601,6.965 -17.515,12.183 -27.442,17.015 -19.897,9.364 -39.772,15.405 -60.87,21.657l-7.77 -5.106c-34.011,-21.643 -79.976,-41.084 -120.719,-41.084 -40.743,0 -86.704,19.441 -120.719,41.084l-7.771 5.107c-21.091,-6.251 -40.979,-12.293 -60.869,-21.658 -9.923,-4.827 -18.847,-10.054 -27.443,-17.015 -10.151,-8.497 -17.079,-17.303 -22.939,-29.27 -5.619,-11.961 -8.473,-23.736 -9.457,-36.89 -1.009,-16.476 1.148,-31.87 6.792,-47.388 1.744,-4.596 3.68,-8.91 5.848,-13.035z"/>
   <path class="fil3" d="M281 32.746c-18.82,0.079 -37.384,0.425 -55.909,1.471 -18.507,1.044 -36.96,2.789 -55.569,5.667 -10.352,1.74 -20.373,3.793 -30.171,6.498 -9.79,2.703 -19.385,6.063 -28.939,10.426 -9.91,4.686 -19.318,10.29 -28.008,16.807 -8.397,6.299 -16.144,13.459 -23.073,21.489 -4.458,5.309 -8.314,10.656 -11.656,16.278 -3.343,5.624 -6.187,11.543 -8.645,18.025 -2.81,7.726 -4.752,15.422 -5.866,23.236 -1.113,7.809 -1.399,15.74 -0.898,23.939 0.49,6.551 1.447,12.772 2.979,18.828 1.532,6.058 3.64,11.965 6.436,17.914 2.907,5.939 6.081,11.095 9.783,15.82 3.714,4.734 7.983,9.063 13.033,13.29 4.277,3.463 8.639,6.497 13.167,9.267 4.531,2.771 9.23,5.279 14.179,7.686 9.924,4.672 19.853,8.509 29.932,11.958 10.097,3.455 20.332,6.518 30.866,9.64l0.413 0.122 -1.019 0.669c-10.435,-3.093 -20.578,-6.133 -30.559,-9.548 -10.109,-3.459 -20.07,-7.31 -30.034,-12.001 -4.974,-2.419 -9.703,-4.942 -14.263,-7.731 -4.56,-2.789 -8.963,-5.853 -13.279,-9.348 -5.101,-4.269 -9.394,-8.618 -13.147,-13.403 -3.744,-4.777 -6.973,-10.018 -9.911,-16.02 -2.824,-6.01 -4.957,-11.98 -6.502,-18.089 -1.545,-6.109 -2.509,-12.368 -3.002,-18.971 -0.506,-8.26 -0.218,-16.28 0.904,-24.153 1.123,-7.878 3.081,-15.638 5.915,-23.428 2.479,-6.537 5.348,-12.509 8.716,-18.176 3.37,-5.669 7.242,-11.041 11.73,-16.387 6.972,-8.078 14.792,-15.311 23.243,-21.649 8.745,-6.559 18.192,-12.189 28.153,-16.898 9.602,-4.385 19.27,-7.773 29.104,-10.489 9.84,-2.716 19.869,-4.772 30.244,-6.515 18.654,-2.885 37.168,-4.637 55.693,-5.683 18.523,-1.046 37.112,-1.392 55.963,-1.471 18.851,0.079 37.436,0.425 55.959,1.471 18.524,1.046 37.039,2.798 55.693,5.683 10.375,1.743 20.404,3.799 30.243,6.515 9.834,2.716 19.503,6.104 29.105,10.489 9.961,4.709 19.407,10.339 28.152,16.898 8.451,6.338 16.272,13.571 23.243,21.649 4.489,5.346 8.361,10.718 11.73,16.387 3.369,5.667 6.238,11.639 8.717,18.176 2.833,7.79 4.792,15.55 5.914,23.428 1.122,7.873 1.41,15.893 0.905,24.153 -0.494,6.603 -1.458,12.862 -3.003,18.971 -1.545,6.109 -3.677,12.079 -6.502,18.089 -2.938,6.002 -6.167,11.243 -9.911,16.02 -3.753,4.785 -8.045,9.134 -13.146,13.403 -4.317,3.495 -8.719,6.559 -13.28,9.348 -4.56,2.789 -9.289,5.312 -14.263,7.731 -9.964,4.691 -19.925,8.542 -30.033,12.001 -9.982,3.415 -20.125,6.455 -30.56,9.549l-1.02 -0.67 0.415 -0.122c10.533,-3.122 20.768,-6.185 30.866,-9.64 10.079,-3.449 20.007,-7.286 29.931,-11.958 4.949,-2.407 9.648,-4.915 14.179,-7.686 4.529,-2.77 8.891,-5.804 13.167,-9.267 5.05,-4.227 9.32,-8.556 13.033,-13.29 3.703,-4.725 6.876,-9.881 9.784,-15.82 2.795,-5.949 4.903,-11.856 6.436,-17.914 1.532,-6.056 2.489,-12.277 2.978,-18.828 0.501,-8.199 0.215,-16.13 -0.898,-23.939 -1.113,-7.814 -3.056,-15.51 -5.865,-23.236 -2.459,-6.482 -5.302,-12.401 -8.646,-18.025 -3.342,-5.622 -7.198,-10.969 -11.656,-16.278 -6.929,-8.03 -14.675,-15.19 -23.073,-21.489 -8.69,-6.517 -18.098,-12.121 -28.007,-16.807 -9.554,-4.363 -19.15,-7.723 -28.94,-10.426 -9.797,-2.705 -19.819,-4.758 -30.17,-6.498 -18.609,-2.878 -37.063,-4.623 -55.569,-5.667 -18.525,-1.046 -37.091,-1.392 -55.911,-1.471z"/>
   <path class="fil4" d="M339.913 103.634l-8.798 -29.13c-2.016,-6.677 -7.988,-11.118 -14.972,-11.118l-70.287 0c-6.984,0 -12.955,4.442 -14.972,11.118l-8.798 29.13 10.304 -27.099c2.307,-6.066 6.967,-10.346 13.466,-10.346l70.287 0c6.499,0 11.159,4.281 13.466,10.346l10.304 27.099z"/>
   <path class="fil5 str0" d="M192.207 93.184c25.498,25.144 21.304,70.739 -9.366,101.841 -30.67,31.102 -76.202,35.931 -101.699,10.787 -25.498,-25.143 -21.304,-70.739 9.366,-101.84 30.67,-31.102 76.202,-35.931 101.699,-10.788z"/>
   <path class="fil6 str0" d="M369.793 93.184c-25.497,25.144 -21.304,70.739 9.366,101.841 30.67,31.102 76.202,35.931 101.699,10.787 25.497,-25.143 21.304,-70.739 -9.366,-101.84 -30.67,-31.102 -76.202,-35.931 -101.699,-10.788z"/>
   <path class="fil0 shd0" d="M266.951 167.771c-0.362,0 -0.731,-0.029 -1.107,-0.088 -0.376,-0.059 -0.743,-0.149 -1.101,-0.272 -0.357,-0.123 -0.698,-0.277 -1.023,-0.464 -0.326,-0.187 -0.616,-0.411 -0.872,-0.672l0.968 -0.984c0.197,0.197 0.42,0.365 0.667,0.504 0.248,0.139 0.51,0.252 0.785,0.34 0.274,0.088 0.556,0.152 0.844,0.192 0.288,0.04 0.568,0.06 0.839,0.06 0.401,0 0.748,-0.015 1.045,-0.044 0.296,-0.029 0.537,-0.092 0.724,-0.188 0.229,-0.112 0.36,-0.236 0.391,-0.372 0.033,-0.136 -0.035,-0.261 -0.203,-0.376 -0.168,-0.115 -0.435,-0.211 -0.8,-0.288 -0.366,-0.077 -0.831,-0.113 -1.397,-0.108 -0.48,-0.016 -0.912,-0.074 -1.296,-0.172 -0.384,-0.099 -0.713,-0.231 -0.987,-0.396 -0.275,-0.165 -0.495,-0.355 -0.66,-0.568 -0.166,-0.213 -0.267,-0.446 -0.304,-0.696 0.01,-0.309 0.09,-0.586 0.24,-0.828 0.149,-0.243 0.358,-0.447 0.628,-0.612 0.269,-0.165 0.59,-0.291 0.964,-0.376 0.373,-0.086 0.789,-0.128 1.248,-0.128 0.304,0 0.617,0.02 0.94,0.06 0.322,0.04 0.646,0.108 0.972,0.204 0.325,0.096 0.645,0.222 0.96,0.38 0.314,0.157 0.618,0.353 0.912,0.588l-0.992 1c-0.214,-0.176 -0.437,-0.319 -0.668,-0.428 -0.232,-0.11 -0.469,-0.195 -0.709,-0.256 -0.24,-0.061 -0.478,-0.104 -0.715,-0.128 -0.238,-0.024 -0.471,-0.036 -0.7,-0.036 -0.214,0 -0.42,0.014 -0.621,0.044 -0.199,0.029 -0.377,0.069 -0.531,0.12 -0.155,0.05 -0.28,0.108 -0.376,0.172 -0.096,0.064 -0.144,0.131 -0.144,0.2 -0.006,0.123 0.157,0.225 0.488,0.308 0.33,0.082 0.8,0.137 1.407,0.164 0.641,0.027 1.186,0.084 1.637,0.172 0.45,0.088 0.817,0.215 1.1,0.38 0.282,0.165 0.488,0.372 0.615,0.62 0.129,0.248 0.192,0.54 0.192,0.876 0,0.261 -0.071,0.517 -0.215,0.768 -0.144,0.251 -0.358,0.475 -0.64,0.672 -0.283,0.197 -0.634,0.356 -1.052,0.476 -0.419,0.12 -0.903,0.18 -1.453,0.18zm10.633 -4.92l-2.984 0 0 4.696 -1.392 0 0 -4.696 -2.993 0 0 -1.384 7.369 0 0 1.384zm3.88 -1.384l3.856 6.08 -1.656 0 -0.712 -1.112 -3.84 0 -0.72 1.112 -1.656 0 3.856 -6.08 0.872 0zm-1.48 3.568l2.088 0c-0.096,-0.144 -0.18,-0.275 -0.252,-0.392 -0.072,-0.117 -0.146,-0.236 -0.22,-0.356 -0.075,-0.12 -0.156,-0.252 -0.244,-0.396 -0.088,-0.144 -0.197,-0.318 -0.324,-0.52l-1.048 1.664zm6.407 2.512l-1.407 0 0 -6.08 4.44 0c0.336,0 0.64,0.05 0.912,0.152 0.272,0.101 0.505,0.244 0.7,0.428 0.194,0.184 0.344,0.404 0.448,0.66 0.104,0.256 0.156,0.541 0.156,0.856 0,0.464 -0.103,0.861 -0.308,1.192 -0.206,0.331 -0.484,0.587 -0.836,0.768 0.08,0.16 0.167,0.337 0.263,0.532 0.096,0.195 0.192,0.387 0.288,0.576 0.096,0.189 0.186,0.365 0.269,0.528 0.082,0.163 0.148,0.292 0.196,0.388l-1.56 0 -0.976 -1.872 -2.585 0 0 1.872zm0 -3.28l3.033 0c0.25,0 0.45,-0.061 0.6,-0.185 0.149,-0.123 0.224,-0.298 0.224,-0.523 0,-0.215 -0.075,-0.387 -0.224,-0.515 -0.15,-0.129 -0.35,-0.193 -0.6,-0.193l-3.033 0 0 1.416zm12.593 -1.416l-2.984 0 0 4.696 -1.392 0 0 -4.696 -2.992 0 0 -1.384 7.368 0 0 1.384z"/>
   <path class="fil7" d="M312.181 194.484c0,6.311 -9.175,11.654 -21.823,13.451 -1.938,2.701 -5.404,4.501 -9.359,4.501 -3.954,0 -7.421,-1.8 -9.358,-4.501 -12.648,-1.797 -21.823,-7.14 -21.823,-13.451 0,-7.787 13.961,-14.099 31.181,-14.099 17.221,0 31.181,6.313 31.182,14.099z"/>
   <path class="fil8" d="M269.284 81.06c-0.019,0.274 -0.029,0.55 -0.029,0.828 0,0.309 0.011,0.615 0.035,0.917l0.555 0.563c-0.126,0.034 -0.248,0.066 -0.368,0.097l-0.135 -0.137c0.006,0.056 0.014,0.112 0.021,0.167 -1.973,0.51 -3.096,0.64 -3.705,0.584 -0.437,-0.04 -0.543,-0.447 -0.412,-0.694 0.045,-0.09 0.105,-0.185 0.176,-0.291 0.639,-0.916 2.021,-1.929 3.96,-2.947 -0.022,0.147 -0.041,0.295 -0.057,0.444l2.265 2.29c-0.137,0.04 -0.272,0.079 -0.407,0.117 -0.639,-0.651 -1.288,-1.313 -1.899,-1.938zm3.008 4.789l7.822 7.928c0.355,0.031 0.715,0.049 1.078,0.049 0.237,0 0.472,-0.008 0.706,-0.022 -2.476,-2.515 -5.794,-5.877 -6.695,-6.751 -0.316,-0.306 -0.887,-0.878 -1.595,-1.592 0.136,-0.041 0.273,-0.083 0.41,-0.125l8.34 8.433c0.505,-0.049 1,-0.13 1.485,-0.239 -2.53,-2.537 -6.47,-6.483 -7.459,-7.442 -0.246,-0.238 -0.644,-0.635 -1.138,-1.135 0.16,-0.05 0.32,-0.101 0.481,-0.153l8.561 8.619c0.433,-0.116 0.857,-0.255 1.27,-0.417 -2.51,-2.481 -6.942,-6.859 -7.993,-7.878 -0.168,-0.162 -0.406,-0.4 -0.696,-0.693 0.186,-0.061 0.373,-0.122 0.561,-0.183l8.548 8.579c0.378,-0.166 0.745,-0.35 1.102,-0.553 -2.474,-2.412 -7.241,-7.059 -8.33,-8.115 -0.075,-0.072 -0.163,-0.159 -0.263,-0.26 0.212,-0.07 0.426,-0.141 0.64,-0.213l8.346 8.355c0.332,-0.206 0.653,-0.428 0.962,-0.664 -2.355,-2.265 -6.951,-6.685 -8.327,-8.017l0.27 -0.09 0.435 -0.145 7.986 7.963c0.29,-0.24 0.569,-0.494 0.835,-0.76 -2.183,-2.071 -6.171,-5.854 -7.9,-7.51 0.256,-0.085 0.512,-0.17 0.769,-0.255l7.464 7.418c0.247,-0.269 0.482,-0.548 0.705,-0.839 -2.063,-1.931 -5.462,-5.117 -7.306,-6.863 0.28,-0.092 0.56,-0.183 0.84,-0.274l6.778 6.711c0.205,-0.293 0.398,-0.596 0.576,-0.908 -1.926,-1.778 -4.738,-4.379 -6.543,-6.065 0.302,-0.097 0.602,-0.192 0.901,-0.286l5.918 5.84 -0.008 0.016c2.953,-1.374 5.224,-2.87 6.552,-4.355 1.205,-1.336 1.702,-2.702 1.482,-4.054 -0.141,-0.889 -0.628,-1.608 -1.402,-2.075 -1.482,-0.896 -3.972,-0.767 -7.502,0.058 -0.723,-0.643 -1.284,-1.15 -1.567,-1.425 -0.73,-0.709 -2.598,-2.836 -4.362,-4.881 -0.506,-0.172 -1.028,-0.309 -1.561,-0.413l7.007 6.834c-0.414,0.102 -0.843,0.212 -1.285,0.331 -0.435,-0.394 -0.774,-0.706 -0.974,-0.901 -0.92,-0.893 -3.662,-4.022 -5.733,-6.411 -0.424,-0.046 -0.855,-0.07 -1.291,-0.07 -0.067,0 -0.135,0.001 -0.202,0.003l7.691 7.518c-0.392,0.109 -0.795,0.223 -1.207,0.344 -0.184,-0.171 -0.334,-0.313 -0.444,-0.419 -1.055,-1.021 -4.558,-5.002 -6.667,-7.417 -0.477,0.033 -0.946,0.094 -1.406,0.181l7.967 7.817c-0.366,0.109 -0.739,0.222 -1.12,0.339 -1.226,-1.199 -5.337,-5.838 -7.297,-8.062 -0.449,0.103 -0.889,0.232 -1.317,0.384l8 7.869c-0.334,0.104 -0.672,0.211 -1.017,0.321 -1.714,-1.78 -5.735,-6.28 -7.323,-8.063 -0.414,0.162 -0.817,0.347 -1.208,0.552l7.837 7.733c-0.302,0.098 -0.609,0.197 -0.919,0.298 -2.004,-2.112 -5.904,-6.432 -7.204,-7.875 -0.376,0.211 -0.739,0.441 -1.088,0.69l7.513 7.44c-0.273,0.09 -0.55,0.181 -0.83,0.273 -2.159,-2.278 -5.807,-6.277 -6.942,-7.524 -0.335,0.254 -0.657,0.525 -0.964,0.811l7.043 6.999c-0.226,0.076 -0.454,0.152 -0.684,0.228l-0.052 0.017c-2.162,-2.278 -5.403,-5.787 -6.54,-7.02 -0.296,0.292 -0.577,0.598 -0.841,0.919l6.434 6.417c-0.22,0.072 -0.439,0.145 -0.657,0.217 -2.036,-2.137 -4.778,-5.07 -5.99,-6.367 -0.254,0.328 -0.492,0.67 -0.712,1.023l5.676 5.681c-0.199,0.065 -0.396,0.13 -0.592,0.194 -1.811,-1.891 -4.027,-4.234 -5.275,-5.556 -0.055,0.094 -0.108,0.189 -0.161,0.286 -3.205,1.375 -6.311,3.137 -7.734,5.184 -1.156,1.663 -0.955,3.085 -0.578,3.984 0.945,2.286 4.17,1.879 7.209,1.186 0.183,-0.043 0.369,-0.087 0.556,-0.133 0.454,1.104 1.069,2.125 1.815,3.034 -1.86,0.168 -3.612,0.218 -5.179,0.138 -0.839,-0.045 -1.552,0.608 -1.583,1.447 -0.029,0.834 0.628,1.522 1.457,1.563 0.548,0.025 1.111,0.04 1.688,0.04 2.079,0 4.349,-0.176 6.715,-0.514 0.816,0.49 1.695,0.885 2.622,1.17 0.628,0.192 1.277,0.335 1.944,0.422 -2.263,-2.327 -4.824,-4.95 -5.603,-5.705 -0.386,-0.374 -1.15,-1.136 -2.081,-2.07 0.116,-0.033 0.233,-0.065 0.35,-0.099zm20.751 -2.522c0.018,-0.15 0.033,-0.301 0.046,-0.454 -0.993,-0.884 -2.03,-1.81 -2.968,-2.653 0.371,-0.099 0.733,-0.192 1.086,-0.278l1.922 1.878c-0.002,-0.345 -0.019,-0.687 -0.05,-1.024 -0.39,-0.345 -0.779,-0.688 -1.157,-1.023 2.679,-0.606 3.961,-0.592 4.553,-0.492 0.292,0.05 0.463,0.351 0.367,0.628 -0.14,0.407 -0.462,0.808 -0.683,1.055 -0.693,0.772 -1.757,1.573 -3.116,2.363zm-3.636 -2.912l3.553 3.486 -0.162 0.791c-1.428,-1.286 -3.063,-2.762 -4.409,-3.987 0.344,-0.101 0.684,-0.197 1.018,-0.29zm-1.76 0.51l4.859 4.78 -0.231 0.624c-1.728,-1.576 -3.951,-3.606 -5.586,-5.113 0.322,-0.099 0.642,-0.197 0.958,-0.291zm-17.376 -3.863l4.749 4.767c-0.175,0.056 -0.348,0.111 -0.521,0.166 -1.502,-1.556 -3.198,-3.329 -4.382,-4.568l0.154 -0.365zm-0.588 1.652l3.626 3.652c-0.153,0.047 -0.306,0.093 -0.458,0.14 -1.113,-1.146 -2.294,-2.365 -3.274,-3.38l0.106 -0.412zm17.446 -7.184c3.028,-0.502 5.775,-0.744 7.859,-0.665 0.834,0.03 1.482,0.729 1.447,1.563 -0.03,0.839 -0.728,1.487 -1.562,1.452 -1.289,-0.05 -2.862,0.037 -4.616,0.242 0.411,0.479 0.786,0.993 1.118,1.534l-4.249 -4.128 0.003 0.002zm42.473 26.258c-0.526,0 -0.951,0.426 -0.951,0.951l0 5.416 -5.443 -6.052c-0.264,-0.294 -0.68,-0.395 -1.048,-0.251 -0.369,0.141 -0.609,0.496 -0.609,0.887l0 7.902c0,0.526 0.425,0.951 0.95,0.951 0.527,0 0.952,-0.425 0.952,-0.951l0 -5.416 5.442 6.052c0.185,0.204 0.443,0.315 0.707,0.315 0.114,0 0.231,-0.02 0.342,-0.063 0.368,-0.141 0.609,-0.496 0.609,-0.888l0 -7.902c0,-0.525 -0.425,-0.951 -0.951,-0.951zm-11.488 6.049c-0.064,-0.06 -0.027,-0.171 0.063,-0.177 1.766,-0.111 2.291,-1.434 2.382,-2.559 0,-0.004 0,-0.007 0,-0.01 0.057,-0.797 -0.255,-1.645 -0.831,-2.264 -0.449,-0.483 -1.269,-1.055 -2.643,-1.055 -1.017,0 -2.163,0.016 -3.138,0.046 -1.601,0.051 -1.714,0.091 -1.865,0.148 -0.382,0.137 -0.637,0.499 -0.637,0.904l0 7.717c0,0.549 0.459,0.992 1.012,0.965 0.519,-0.023 0.921,-0.473 0.921,-0.992l0 -6.785c0.847,-0.034 2.251,-0.071 3.707,-0.071 0.543,0 0.955,0.147 1.227,0.439 0.274,0.295 0.328,0.643 0.318,0.807 -0.024,0.298 -0.104,1.179 -1.685,1.179l-0.827 0c-0.426,0 -0.821,0.241 -0.992,0.63 -0.181,0.412 -0.084,0.887 0.245,1.192l3.637 3.41c0.188,0.174 0.425,0.261 0.66,0.261 0.258,0 0.516,-0.104 0.707,-0.305 0.365,-0.388 0.345,-1.001 -0.044,-1.366l-2.217 -2.114zm-8.631 -6.481c-0.526,0 -0.952,0.426 -0.952,0.951l0 5.875c0,0.908 -1.293,1.705 -2.77,1.705 -1.473,0 -2.769,-0.797 -2.769,-1.705l0 -5.875c0,-0.525 -0.426,-0.951 -0.952,-0.951 -0.525,0 -0.951,0.426 -0.951,0.951l0 5.875c0,1.009 0.543,1.976 1.487,2.65 0.861,0.616 1.993,0.954 3.182,0.954 1.189,0 2.318,-0.338 3.182,-0.954 0.944,-0.674 1.487,-1.641 1.487,-2.65l0 -5.875c0.007,-0.525 -0.419,-0.951 -0.944,-0.951zm-10.008 0.416l-6.428 0c-0.533,0 -0.968,0.432 -0.968,0.967 0,0.533 0.432,0.968 0.968,0.968l2.248 0 0 6.934c0,0.532 0.432,0.968 0.967,0.968 0.536,0 0.968,-0.432 0.968,-0.968l0 -6.934 2.248 0c0.532,0 0.968,-0.432 0.968,-0.968 -0.004,-0.532 -0.436,-0.967 -0.971,-0.967zm-8.414 1.473c-0.499,-1.021 -1.471,-1.909 -2.532,-1.909 -1.062,0 -2.033,0.888 -2.532,1.909 -0.871,1.775 -1.695,4.076 -2.519,7.037 -0.144,0.523 0.161,1.062 0.68,1.206 0.087,0.024 0.177,0.037 0.264,0.037 0.429,0 0.824,-0.285 0.945,-0.717 0.181,-0.653 0.365,-1.269 0.546,-1.855l5.235 0c0.181,0.586 0.362,1.202 0.546,1.855 0.144,0.523 0.687,0.827 1.205,0.68 0.523,-0.144 0.828,-0.686 0.68,-1.206 -0.827,-2.961 -1.65,-5.262 -2.518,-7.037zm-4.508 3.775c0.398,-1.112 0.797,-2.08 1.205,-2.911 0.174,-0.354 0.456,-0.81 0.771,-0.81 0.318,0 0.599,0.456 0.773,0.81 0.409,0.835 0.807,1.799 1.206,2.911l-3.955 0 0 0zm-3.186 1.38c-0.127,-1.571 -1.396,-2.767 -2.92,-2.767 -0.034,0 -0.064,0 -0.097,0l-0.881 0c-0.007,0 -0.014,0 -0.017,0l-2.14 0 -0.041 0c-0.535,0.02 -0.987,-0.408 -1.034,-0.981 -0.031,-0.445 0.187,-0.891 0.469,-0.954l0.053 -0.014c1.259,-0.358 3.945,-0.265 4.887,0.077 0.502,0.181 1.055,-0.08 1.235,-0.583 0.181,-0.502 -0.08,-1.055 -0.582,-1.236 -1.387,-0.499 -4.481,-0.559 -6.049,-0.12 -1.209,0.288 -2.047,1.561 -1.943,2.974l0 0.01c0.128,1.571 1.397,2.767 2.921,2.767 0.034,0 0.064,0 0.097,0l0.881 0c0.007,0 0.013,0 0.017,0l2.14 0 0.04 0c0.536,-0.02 0.988,0.408 1.035,0.981 0.03,0.446 -0.187,0.891 -0.469,0.955l-0.053 0.013c-1.26,0.358 -3.946,0.265 -4.887,-0.077 -0.503,-0.181 -1.055,0.081 -1.236,0.583 -0.181,0.502 0.08,1.055 0.583,1.236 0.76,0.275 2.036,0.415 3.292,0.415 1.032,0 2.05,-0.097 2.757,-0.295 1.209,-0.288 2.046,-1.561 1.942,-2.974l0 -0.01zm-16.542 -5.155c-0.499,-1.021 -1.471,-1.909 -2.532,-1.909 -1.062,0 -2.033,0.888 -2.533,1.909 -0.87,1.775 -1.694,4.076 -2.518,7.037 -0.144,0.523 0.161,1.062 0.68,1.206 0.087,0.024 0.177,0.037 0.264,0.037 0.429,0 0.824,-0.285 0.945,-0.717 0.181,-0.653 0.365,-1.269 0.546,-1.855l5.231 0c0.181,0.586 0.362,1.202 0.547,1.855 0.143,0.523 0.686,0.827 1.205,0.68 0.523,-0.144 0.828,-0.686 0.68,-1.206 -0.824,-2.961 -1.648,-5.262 -2.515,-7.037zm-4.512 3.772c0.399,-1.112 0.797,-2.08 1.206,-2.911 0.174,-0.355 0.455,-0.811 0.77,-0.811 0.318,0 0.6,0.456 0.774,0.811 0.408,0.834 0.807,1.799 1.206,2.911l-3.956 0 0 0zm-3.326 -0.097c0,-0.027 0,-0.054 -0.003,-0.077 0,-0.007 0,-0.014 -0.004,-0.021 -0.003,-0.026 -0.006,-0.049 -0.009,-0.077 0,-0.006 -0.004,-0.013 -0.004,-0.02 -0.007,-0.023 -0.01,-0.05 -0.02,-0.073 -0.004,-0.007 -0.004,-0.014 -0.007,-0.02 -0.006,-0.024 -0.017,-0.047 -0.026,-0.071 -0.004,-0.007 -0.007,-0.013 -0.007,-0.02 -0.01,-0.024 -0.021,-0.044 -0.03,-0.067 -0.004,-0.006 -0.007,-0.013 -0.01,-0.02 -0.014,-0.02 -0.024,-0.04 -0.037,-0.061 -0.004,-0.006 -0.007,-0.013 -0.014,-0.016 -0.013,-0.02 -0.026,-0.037 -0.043,-0.057 -0.003,-0.007 -0.01,-0.01 -0.014,-0.016 -0.016,-0.017 -0.03,-0.038 -0.047,-0.054 -0.006,-0.007 -0.01,-0.01 -0.017,-0.017 -0.016,-0.017 -0.033,-0.034 -0.049,-0.047 -0.007,-0.003 -0.014,-0.01 -0.017,-0.013 -0.017,-0.013 -0.037,-0.027 -0.057,-0.041 -0.007,-0.003 -0.014,-0.01 -0.02,-0.013 -0.02,-0.013 -0.037,-0.023 -0.057,-0.037 -0.007,-0.003 -0.017,-0.006 -0.024,-0.013 -0.02,-0.01 -0.04,-0.02 -0.06,-0.03 -0.01,-0.003 -0.02,-0.007 -0.027,-0.01 -0.02,-0.007 -0.04,-0.017 -0.06,-0.021 -0.01,-0.003 -0.02,-0.006 -0.033,-0.009 -0.021,-0.007 -0.041,-0.01 -0.057,-0.014 -0.014,-0.003 -0.024,-0.003 -0.037,-0.007 -0.02,-0.003 -0.037,-0.006 -0.057,-0.009 -0.014,0 -0.027,-0.004 -0.04,-0.004 -0.014,0 -0.024,-0.004 -0.037,-0.004 -0.007,0 -0.014,0 -0.02,0 -0.004,0 -0.01,0 -0.013,0l-3.658 0c-0.533,0 -0.968,0.432 -0.968,0.969 0,0.532 0.432,0.968 0.968,0.968l2.559 0c-0.442,1.795 -1.873,2.093 -2.867,2.093 -1.973,0 -3.353,-1.493 -3.353,-3.631 0,-1.56 1.597,-2.981 3.353,-2.981 1.075,0 1.872,0.245 2.749,0.841 0.442,0.301 1.042,0.184 1.344,-0.254 0.301,-0.443 0.184,-1.042 -0.255,-1.344 -1.196,-0.813 -2.378,-1.176 -3.835,-1.176 -1.37,0 -2.68,0.517 -3.694,1.458 -1.012,0.934 -1.592,2.197 -1.592,3.456 0,1.621 0.54,3.025 1.561,4.053 0.968,0.975 2.291,1.511 3.725,1.511 1.346,0 2.529,-0.389 3.423,-1.122 0.744,-0.61 1.433,-1.769 1.507,-3.839 0,-0.01 0,-0.017 0,-0.027 0,-0.003 0,-0.006 0,-0.006 -0.01,0 -0.01,-0.004 -0.01,-0.01zm-11.167 2.753l-4.538 0 0 -2.184 3.175 0c0.533,0 0.968,-0.432 0.968,-0.968 0,-0.532 -0.432,-0.968 -0.968,-0.968l-3.175 0 0 -1.852 4.538 0c0.533,0 0.968,-0.432 0.968,-0.968 0,-0.533 -0.432,-0.968 -0.968,-0.968l-5.506 0c-0.533,0 -0.968,0.432 -0.968,0.968l0 7.901c0,0.533 0.432,0.968 0.968,0.968l5.506 0c0.533,0 0.968,-0.432 0.968,-0.968 -0.003,-0.529 -0.435,-0.961 -0.968,-0.961zm-7.305 -1.273c-0.127,-1.571 -1.396,-2.767 -2.921,-2.767 -0.033,0 -0.063,0 -0.096,0l-0.881 0c-0.007,0 -0.014,0 -0.017,0l-2.14 0 -0.04 0c-0.537,0.02 -0.989,-0.408 -1.036,-0.981 -0.029,-0.445 0.188,-0.891 0.469,-0.954l0.054 -0.014c1.259,-0.358 3.946,-0.265 4.887,0.077 0.502,0.181 1.055,-0.08 1.236,-0.583 0.181,-0.502 -0.081,-1.055 -0.583,-1.236 -1.387,-0.499 -4.482,-0.559 -6.049,-0.12 -1.209,0.288 -2.047,1.561 -1.943,2.974l0 0.01c0.127,1.571 1.397,2.767 2.921,2.767 0.033,0 0.064,0 0.097,0l0.881 0c0.007,0 0.013,0 0.017,0l2.14 0 0.04 0c0.536,-0.02 0.988,0.408 1.035,0.981 0.03,0.446 -0.188,0.891 -0.469,0.955l-0.054 0.013c-1.259,0.358 -3.945,0.265 -4.886,-0.077 -0.502,-0.181 -1.055,0.081 -1.236,0.583 -0.181,0.502 0.08,1.055 0.582,1.236 0.761,0.275 2.037,0.415 3.293,0.415 1.032,0 2.05,-0.097 2.757,-0.295 1.209,-0.288 2.046,-1.561 1.942,-2.974l0 -0.01z"/>
  </g>
  <g id="holes">
   <circle class="fil9" cx="136.674" cy="149.498" r="55.181"/>
   <path class="fil9" d="M281 184.468c6.204,0 11.86,0.985 15.988,2.576 4.599,1.774 7.445,4.394 7.445,7.44 0,3.045 -2.846,5.665 -7.445,7.439 -4.128,1.591 -9.784,2.576 -15.988,2.576 -6.205,0 -11.861,-0.985 -15.989,-2.576 -4.599,-1.774 -7.444,-4.394 -7.444,-7.439 0,-3.046 2.845,-5.666 7.444,-7.44 4.128,-1.591 9.784,-2.576 15.989,-2.576z"/>
   <circle class="fil9" cx="359.768" cy="135.779" r="18.142"/>
   <circle class="fil9" cx="403.405" cy="106.21" r="18.142"/>
   <circle class="fil9" cx="452.582" cy="88.797" r="18.142"/>
   <circle class="fil9" cx="379.44" cy="197.838" r="24.567"/>
   <circle class="fil9" cx="432.169" cy="162.346" r="24.567"/>
   <circle class="fil9" cx="491.389" cy="141.255" r="24.567"/>
  </g>
  <g id="dpad">
   <circle class="fil10" cx="136.675" cy="149.498" r="51.401"/>
   <path class="fil11" d="M148.466 107.283l0 16.446c0,7.72 6.258,13.978 13.978,13.978l16.446 0c1.309,0 2.411,0.891 2.684,2.171 0.662,3.102 1.012,6.32 1.012,9.62 0,3.3 -0.35,6.518 -1.012,9.62 -0.273,1.281 -1.375,2.172 -2.684,2.172l-16.446 0c-7.72,0 -13.978,6.258 -13.978,13.978l0 16.446c0,1.309 -0.891,2.411 -2.171,2.684 -3.102,0.662 -6.321,1.012 -9.62,1.012 -3.3,0 -6.519,-0.35 -9.62,-1.012 -1.281,-0.273 -2.172,-1.375 -2.172,-2.684l0 -16.446c0,-7.72 -6.258,-13.978 -13.978,-13.978l-16.446 0c-1.309,0 -2.411,-0.891 -2.684,-2.172 -0.662,-3.102 -1.012,-6.32 -1.012,-9.62 0,-3.299 0.35,-6.518 1.012,-9.62 0.273,-1.28 1.375,-2.171 2.684,-2.171l16.446 0c7.72,0 13.978,-6.258 13.978,-13.978l0 -16.446c0,-1.309 0.891,-2.411 2.172,-2.685 3.101,-0.662 6.32,-1.011 9.62,-1.011 3.299,0 6.518,0.349 9.62,1.011 1.28,0.274 2.171,1.375 2.171,2.685z"/>
   <path class="fil12" d="M183.118 164.035c-4.746,15.179 -16.727,27.16 -31.907,31.907l0 -20.672c0,-6.205 5.03,-11.235 11.235,-11.235l20.672 0zm-60.98 31.907c-15.179,-4.747 -27.161,-16.727 -31.907,-31.907l20.672 0c6.205,0 11.235,5.03 11.235,11.235l0 20.672zm0 -92.887l0 20.672c0,6.204 -5.03,11.235 -11.235,11.235l-20.672 0c4.746,-15.179 16.727,-27.161 31.907,-31.907zm60.98 31.907l-20.672 0c-6.205,0 -11.235,-5.031 -11.235,-11.235l0 -20.672c15.18,4.746 27.161,16.727 31.907,31.907z"/>
   <path class="fil13" d="M103.271 181.34l3.046 -6.213c0.171,-0.347 0.476,-0.575 0.858,-0.638 0.38,-0.063 0.745,0.054 1.017,0.326l3.166 3.166c0.272,0.272 0.389,0.636 0.326,1.017 -0.064,0.382 -0.291,0.686 -0.638,0.858l-6.212 3.046c-0.455,0.223 -0.983,0.136 -1.341,-0.222 -0.358,-0.358 -0.445,-0.887 -0.222,-1.34zm63.761 -6.213l3.046 6.213c0.223,0.453 0.136,0.982 -0.222,1.34 -0.358,0.358 -0.886,0.445 -1.34,0.222l-6.212 -3.046c-0.348,-0.171 -0.576,-0.476 -0.639,-0.858 -0.063,-0.38 0.054,-0.745 0.326,-1.017l3.166 -3.166c0.272,-0.272 0.637,-0.389 1.017,-0.326 0.382,0.063 0.688,0.291 0.858,0.638zm-4.728 -55.986l6.212 -3.046c0.453,-0.223 0.983,-0.136 1.34,0.221 0.358,0.358 0.445,0.887 0.222,1.341l-3.046 6.212c-0.171,0.348 -0.476,0.575 -0.858,0.638 -0.38,0.064 -0.745,-0.054 -1.017,-0.326l-3.166 -3.165c-0.272,-0.273 -0.389,-0.637 -0.326,-1.017 0.063,-0.383 0.291,-0.687 0.639,-0.858zm-57.47 -3.046l6.212 3.046c0.347,0.171 0.574,0.475 0.638,0.858 0.063,0.38 -0.054,0.744 -0.326,1.017l-3.166 3.165c-0.272,0.273 -0.637,0.39 -1.017,0.326 -0.383,-0.063 -0.687,-0.29 -0.858,-0.638l-3.046 -6.212c-0.223,-0.454 -0.136,-0.983 0.222,-1.341 0.357,-0.357 0.887,-0.444 1.341,-0.221z"/>
   <path class="fil14" d="M106.772 175.35l-3.047 6.212c-0.127,0.26 -0.078,0.554 0.127,0.759 0.205,0.205 0.499,0.255 0.759,0.127l6.212 -3.047c0.199,-0.098 0.324,-0.266 0.361,-0.485 0.036,-0.221 -0.027,-0.418 -0.186,-0.576l-3.165 -3.166c-0.159,-0.158 -0.355,-0.221 -0.576,-0.185 -0.219,0.036 -0.387,0.162 -0.485,0.361zm62.852 6.212l-3.047 -6.212c-0.097,-0.199 -0.266,-0.325 -0.484,-0.361 -0.222,-0.036 -0.419,0.027 -0.577,0.185l-3.166 3.166c-0.158,0.159 -0.221,0.355 -0.184,0.576 0.035,0.219 0.161,0.387 0.36,0.485l6.212 3.047c0.261,0.127 0.554,0.078 0.759,-0.127 0.205,-0.205 0.254,-0.499 0.127,-0.759zm-0.886 -65.013l-6.212 3.047c-0.199,0.097 -0.325,0.266 -0.36,0.484 -0.037,0.222 0.026,0.418 0.184,0.577l3.166 3.165c0.158,0.159 0.355,0.222 0.577,0.185 0.218,-0.036 0.387,-0.161 0.484,-0.36l3.047 -6.212c0.127,-0.261 0.078,-0.555 -0.127,-0.759 -0.205,-0.205 -0.499,-0.255 -0.759,-0.127zm-57.915 3.047l-6.212 -3.047c-0.26,-0.128 -0.555,-0.078 -0.759,0.127 -0.205,0.204 -0.255,0.498 -0.127,0.759l3.047 6.212c0.098,0.198 0.266,0.324 0.485,0.36 0.221,0.037 0.417,-0.026 0.576,-0.185l3.165 -3.165c0.159,-0.159 0.222,-0.355 0.186,-0.577 -0.037,-0.218 -0.162,-0.387 -0.361,-0.484z"/>
   <path class="fil15" d="M148.466 107.283l0 16.446c0,7.72 6.258,13.978 13.978,13.978l16.446 0c1.309,0 2.411,0.891 2.684,2.171 0.662,3.102 1.012,6.32 1.012,9.62 0,3.3 -0.35,6.518 -1.012,9.62 -0.273,1.281 -1.375,2.172 -2.684,2.172l-16.446 0c-7.72,0 -13.978,6.258 -13.978,13.978l0 16.446c0,1.309 -0.891,2.411 -2.171,2.684 -3.102,0.662 -6.321,1.012 -9.62,1.012 -3.3,0 -6.519,-0.35 -9.62,-1.012 -1.281,-0.273 -2.172,-1.375 -2.172,-2.684l0 -16.446c0,-7.72 -6.258,-13.978 -13.978,-13.978l-16.446 0c-1.309,0 -2.411,-0.891 -2.684,-2.172 -0.662,-3.102 -1.012,-6.32 -1.012,-9.62 0,-3.299 0.35,-6.518 1.012,-9.62 0.273,-1.28 1.375,-2.171 2.684,-2.171l16.446 0c7.72,0 13.978,-6.258 13.978,-13.978l0 -16.446c0,-1.309 0.891,-2.411 2.172,-2.685 3.101,-0.662 6.32,-1.012 9.62,-1.012 3.299,0 6.518,0.35 9.62,1.012 1.28,0.274 2.171,1.375 2.171,2.685zm-2.744 16.446l0 -12.149c0,-0.887 -0.618,-1.633 -1.49,-1.798 -2.448,-0.463 -4.975,-0.706 -7.557,-0.706 -2.584,0 -5.11,0.243 -7.559,0.706 -0.872,0.166 -1.489,0.911 -1.489,1.798l0 12.149c0,4.617 -1.871,8.798 -4.897,11.824 -3.027,3.026 -7.208,4.898 -11.825,4.898l-12.149 0c-0.887,0 -1.633,0.618 -1.797,1.49 -0.463,2.448 -0.707,4.974 -0.707,7.557 0,2.583 0.243,5.11 0.707,7.558 0.165,0.873 0.91,1.49 1.797,1.49l12.149 -0.001c4.617,0 8.798,1.872 11.825,4.898 3.026,3.026 4.897,7.208 4.897,11.825l0 12.149c0,0.887 0.618,1.632 1.49,1.797 2.448,0.463 4.974,0.707 7.558,0.707 2.582,0 5.109,-0.243 7.558,-0.707 0.872,-0.165 1.489,-0.91 1.489,-1.797l0 -12.149c0,-4.617 1.871,-8.799 4.897,-11.825 3.026,-3.026 7.208,-4.898 11.825,-4.898l12.149 0c0.887,0 1.632,-0.617 1.798,-1.489 0.463,-2.448 0.706,-4.975 0.706,-7.558 0,-2.583 -0.243,-5.11 -0.706,-7.558 -0.166,-0.872 -0.911,-1.489 -1.798,-1.489l-12.149 0c-4.617,0 -8.799,-1.872 -11.825,-4.898 -3.026,-3.026 -4.897,-7.207 -4.897,-11.824z"/>
   <circle class="fil16" cx="136.675" cy="149.498" r="9.449"/>
   <path class="fil17" d="M147.094 110.244l0 -2.013c0,-1.022 -0.711,-1.881 -1.716,-2.07 -2.819,-0.533 -5.729,-0.814 -8.704,-0.814 -2.975,0 -5.885,0.28 -8.705,0.814 -1.004,0.19 -1.716,1.048 -1.715,2.07l0 2.013c0,-1.022 0.711,-1.88 1.716,-2.07 2.819,-0.534 5.729,-0.813 8.705,-0.813 2.975,0 5.884,0.28 8.704,0.813 1.004,0.19 1.715,1.048 1.715,2.07zm-49.836 29.25c-1.411,0 -2.597,0.582 -2.891,1.417 0.15,-1.368 0.756,-2.321 1.475,-2.321l15.063 0c8.477,0 15.349,-6.654 15.349,-14.861 0,8.707 -6.872,15.765 -15.349,15.765l-13.647 0zm78.833 0c1.411,0 2.597,0.582 2.892,1.417 -0.15,-1.368 -0.757,-2.321 -1.476,-2.321l-15.063 0c-8.477,0 -15.349,-6.654 -15.349,-14.861 0,8.707 6.872,15.765 15.349,15.765l13.647 0z"/>
  </g>
  <path class="fil18" d="M168.261 3.202c4.153,0.351 5.416,2.33 3.755,2.386l-2.897 0.096c-16.307,0.378 -30.954,2.063 -46.355,7.533 -13.016,4.824 -24.1,10.98 -34.914,19.667 -7.795,6.435 -11.734,10.38 -18.245,17.697l-0.798 0.865c-0.972,1.054 -2.32,0.812 -0.627,-1.6 12.086,-17.211 27.23,-36.977 44.439,-44.913 14.233,-6.562 38.011,-3.22 55.642,-1.731z"/>
  <path class="fil19" d="M113.416 13.136c12.161,-5.433 22.558,-8.055 35.798,-9.322 11.558,-1.106 26.005,-1.543 26.005,2.223l0 0.934c-1.715,-0.031 -3.449,-0.036 -5.208,-0.017 -16.307,0.378 -31.565,2.816 -46.967,8.285 -13.015,4.824 -23.874,11.262 -34.688,19.948 -7.795,6.435 -14.67,13.256 -21.181,20.573l-0.781 -0.763c-2.232,-2.182 8.949,-13.951 14.914,-19.831 8.807,-8.682 20.907,-17.025 32.108,-22.03z"/>
  <path class="fil18" d="M393.739 3.202c-4.153,0.351 -5.416,2.33 -3.755,2.386l2.897 0.096c16.307,0.378 30.954,2.063 46.355,7.533 13.016,4.824 24.1,10.98 34.914,19.667 7.795,6.435 11.734,10.38 18.245,17.697l0.798 0.865c0.972,1.054 2.32,0.812 0.627,-1.6 -12.086,-17.211 -27.23,-36.977 -44.439,-44.913 -14.233,-6.562 -38.011,-3.22 -55.642,-1.731z"/>
  <path class="fil19" d="M448.584 13.136c-12.161,-5.433 -22.558,-8.055 -35.798,-9.322 -11.558,-1.106 -26.005,-1.543 -26.005,2.223l0 0.934c1.715,-0.031 3.449,-0.036 5.208,-0.017 16.307,0.378 31.565,2.816 46.967,8.285 13.015,4.824 23.874,11.262 34.688,19.948 7.795,6.435 14.67,13.256 21.181,20.573l0.781 -0.763c2.232,-2.182 -8.949,-13.951 -14.914,-19.831 -8.807,-8.682 -20.907,-17.025 -32.108,-22.03z"/>
  <path class="fil20" d="M281 185.98c12.002,0 21.732,3.808 21.732,8.504 0,4.696 -9.73,8.504 -21.732,8.504 -12.003,0 -21.733,-3.808 -21.733,-8.504 0,-4.696 9.73,-8.504 21.733,-8.504z"/>
  <path class="fil12" d="M281 186.98c-5.879,0 -11.183,0.925 -15.004,2.42 -3.539,1.385 -5.729,3.19 -5.729,5.084 0,1.894 2.19,3.699 5.729,5.083 3.821,1.495 9.125,2.421 15.004,2.421 5.878,0 11.182,-0.926 15.003,-2.421 3.539,-1.384 5.729,-3.189 5.729,-5.083 0,-1.894 -2.19,-3.699 -5.729,-5.084 -3.821,-1.495 -9.125,-2.42 -15.003,-2.42z"/>
  <circle class="fil21" cx="281" cy="194.483" r="2.333"/>
  <path class="fil22" d="M359.855 118.431c9.601,0 17.385,7.784 17.385,17.386 0,9.601 -7.784,17.386 -17.385,17.386 -9.602,0 -17.386,-7.785 -17.386,-17.386 0,-9.602 7.784,-17.386 17.386,-17.386z"/>
  <path class="fil23" d="M359.855 120.321c8.558,0 15.496,6.938 15.496,15.496 0,8.558 -6.938,15.496 -15.496,15.496 -8.558,0 -15.496,-6.938 -15.496,-15.496 0,-8.558 6.938,-15.496 15.496,-15.496z"/>
  <path class="fil24" d="M359.855 122.21c7.514,0 13.606,6.092 13.606,13.607 0,7.514 -6.092,13.606 -13.606,13.606 -7.515,0 -13.607,-6.092 -13.607,-13.606 0,-7.515 6.092,-13.607 13.607,-13.607z"/>
  <path class="fil25" d="M359.855 151.313c8.557,0 15.495,-6.938 15.495,-15.495l0 -0.001c-3.808,4.251 -9.339,6.927 -15.495,6.927 -6.157,0 -11.688,-2.676 -15.495,-6.928l0 0.002c0,8.557 6.937,15.495 15.495,15.495z"/>
  <path class="fil26" d="M353.446 145.144l7.01 -4.695 -0.48 -0.717 -0.96 0.642c-0.172,0.115 -0.371,0.235 -0.644,0.404 -0.327,0.19 -0.524,0.194 -0.544,0.037 -0.02,-0.114 0.012,-0.279 0.175,-0.587l1.907 -3.57 3.828 -0.271c0.19,-0.014 0.36,-0.014 0.537,-0.005 0.177,0.01 0.184,0.19 -0.051,0.433 -0.095,0.105 -0.27,0.25 -0.709,0.546l-1.418 0.95 0.48 0.717 8.266 -5.537 -0.48 -0.717c-0.213,0.143 -0.427,0.286 -0.64,0.429 -0.661,0.441 -0.836,0.494 -1.92,0.632 -0.105,0.014 -0.21,0.027 -0.315,0.04l-6.22 0.397 2.266 -4.262 0.365 -0.686c0.048,-0.083 0.093,-0.165 0.15,-0.243 0.262,-0.36 0.516,-0.571 1.198,-1.029l0.857 -0.575 -0.486 -0.726 -6.716 4.498 0.487 0.726 1.373 -0.92c0.064,-0.042 0.315,-0.217 0.476,-0.249 0.108,-0.023 0.15,0.019 0.122,0.12 -0.029,0.102 -0.113,0.272 -0.398,0.806l-1.496 2.804 -2.844 0.103c-0.473,0.018 -0.617,0.015 -0.708,0.005 -0.158,-0.022 -0.173,-0.129 -0.073,-0.236 0.082,-0.087 0.13,-0.144 0.465,-0.368 0.471,-0.315 0.942,-0.631 1.414,-0.947l-0.487 -0.726 -8.071 5.405 0.487 0.727 1.178 -0.789c0.404,-0.27 1.078,-0.393 1.546,-0.453 0.138,-0.006 0.269,-0.023 0.381,-0.027l5.315 -0.346 -2.814 5.185 -0.412 0.745c-0.241,0.424 -0.612,0.764 -1.013,1.034l-0.864 0.579 0.48 0.717z"/>
  <path class="fil22" d="M403.405 88.824c9.601,0 17.386,7.784 17.386,17.386 0,9.602 -7.785,17.386 -17.386,17.386 -9.602,0 -17.386,-7.784 -17.386,-17.386 0,-9.602 7.784,-17.386 17.386,-17.386z"/>
  <path class="fil23" d="M403.405 90.714c8.558,0 15.496,6.938 15.496,15.496 0,8.558 -6.938,15.496 -15.496,15.496 -8.558,0 -15.496,-6.938 -15.496,-15.496 0,-8.558 6.938,-15.496 15.496,-15.496z"/>
  <path class="fil24" d="M403.405 92.603c7.514,0 13.606,6.092 13.606,13.607 0,7.514 -6.092,13.606 -13.606,13.606 -7.515,0 -13.606,-6.092 -13.606,-13.606 0,-7.515 6.091,-13.607 13.606,-13.607z"/>
  <path class="fil25" d="M403.405 121.706c8.558,0 15.495,-6.938 15.495,-15.495l0 -0.001c-3.808,4.251 -9.339,6.927 -15.495,6.927 -6.157,0 -11.687,-2.676 -15.495,-6.928l0 0.002c0,8.557 6.937,15.495 15.495,15.495z"/>
  <path class="fil27" d="M409.237 108.029l0.527 -0.267 -0.389 -0.77 -0.527 0.267 -1.076 0.544 -0.004 0.002 -0.004 0.002c-0.082,0.04 -0.169,0.072 -0.251,0.113 -0.859,0.395 -0.976,0.374 -1.231,-0.132l-0.912 -1.803 2.52 -5.074c0.036,-0.085 0.094,-0.18 0.136,-0.255 0.306,-0.54 0.53,-0.796 0.874,-1.01 0.342,-0.173 0.685,-0.346 1.027,-0.52l-0.394 -0.78 -5.97 3.017 -0.527 0.266 0.39 0.77 0.527 -0.266 0.928 -0.469 0.003 -0.002 0.003 -0.001c0.063,-0.031 0.149,-0.062 0.21,-0.093 0.37,-0.161 0.523,-0.119 0.445,0.093 -0.026,0.105 -0.089,0.243 -0.246,0.561l-1.469 3.095 -3.383 -0.643c-0.265,-0.051 -0.444,-0.093 -0.577,-0.145 -0.222,-0.073 -0.138,-0.222 0.315,-0.477l0.003 -0.002 0.003 -0.001 0.004 -0.002 0.002 -0.001 0.004 -0.002 0.003 -0.002 0.003 -0.001 0.003 -0.002 0.003 -0.001 0.004 -0.002 0.003 -0.001 0.003 -0.002 0.003 -0.002 0.003 -0.001 0.004 -0.002 0.003 -0.002 0.004 -0.002 0.003 -0.001 0.003 -0.002 0.004 -0.002 0.003 -0.001 0.003 -0.002 0.004 -0.002 0.003 -0.001 0.004 -0.002 0.003 -0.002 0.004 -0.002 0.003 -0.002 0.003 -0.001 0.004 -0.002 0.003 -0.002 0.004 -0.001 0.003 -0.002 0.004 -0.002 0.003 -0.002 0.004 -0.002 0.003 -0.001 0.004 -0.002 0.003 -0.002 0.004 -0.001 0.003 -0.002 0.003 -0.002 0.004 -0.002 0.003 -0.002 0.004 -0.001 0.003 -0.002 0.003 -0.001 0.003 -0.002 0.004 -0.002 0.003 -0.002 0.004 -0.001 0.003 -0.002 0.003 -0.002 0.003 -0.001 0.003 -0.002 0.004 -0.002 0.003 -0.001 0.003 -0.002 0.003 -0.001 0.003 -0.002 0.003 -0.001 0.003 -0.002 0.003 -0.002 0.003 -0.001 0.886 -0.448 0.528 -0.266 -0.395 -0.78 -0.527 0.266 -6.919 3.497 -0.527 0.266 0.395 0.781 0.527 -0.267 0.021 -0.011 0.002 0 0.002 -0.002 0.002 -0.001 0.002 -0.001 0.002 -0.001 0.003 -0.001 0.002 -0.001 0.002 -0.001 0.002 -0.001 0.002 -0.001 0.003 -0.001 0.002 -0.002 0.002 -0.001 0.003 -0.001 0.002 -0.001 0.002 -0.001 0.002 -0.002 0.003 -0.001 0.002 -0.001 0.003 -0.001 0.002 -0.001 0.003 -0.002 0.002 -0.001 0.002 -0.001 0.003 -0.001 0.002 -0.002 0.003 -0.001 0.002 -0.001 0.003 -0.001 0.002 -0.001 0.003 -0.002 0.002 -0.001 0.002 -0.001 0.003 -0.001 0.002 -0.001 0.003 -0.002 0.002 -0.001 0.003 -0.001 0.002 -0.002 0.003 -0.001 0.002 -0.001 0.003 -0.001 0.002 -0.002 0.003 -0.001 0.002 -0.001 0.002 -0.001 0.002 -0.001 0.003 -0.002 0.002 -0.001 0.003 -0.001 0.002 -0.001 0.002 -0.001 0.002 -0.001 0.003 -0.002 0.002 -0.001 0.002 -0.001 0.002 -0.001 0.002 -0.001 0.003 -0.001 0.002 -0.001 0.002 -0.001 0.002 -0.001 0.002 -0.001 0.002 -0.001c0.781,-0.342 1.082,-0.375 1.949,-0.231l5.474 0.981 0.73 1.445 0.203 0.4c0.256,0.507 0.203,0.613 -0.709,1.113 -0.048,0.035 -0.114,0.071 -0.171,0.1l-0.003 0.002 -0.004 0.001 -0.003 0.002 -0.003 0.002 -0.003 0.001 -0.003 0.002 -0.003 0.001 -0.003 0.002 -0.003 0.001 -0.003 0.002 -0.003 0.002 -1.077 0.543 -0.527 0.266 0.39 0.771 0.527 -0.267 7.952 -4.019z"/>
  <path class="fil22" d="M452.582 71.411c9.601,0 17.386,7.784 17.386,17.386 0,9.602 -7.785,17.386 -17.386,17.386 -9.602,0 -17.386,-7.784 -17.386,-17.386 0,-9.602 7.784,-17.386 17.386,-17.386z"/>
  <path class="fil23" d="M452.582 73.301c8.558,0 15.496,6.938 15.496,15.496 0,8.558 -6.938,15.496 -15.496,15.496 -8.558,0 -15.496,-6.938 -15.496,-15.496 0,-8.558 6.938,-15.496 15.496,-15.496z"/>
  <path class="fil24" d="M452.582 75.19c7.514,0 13.606,6.092 13.606,13.607 0,7.514 -6.092,13.606 -13.606,13.606 -7.515,0 -13.606,-6.092 -13.606,-13.606 0,-7.515 6.091,-13.607 13.606,-13.607z"/>
  <path class="fil25" d="M452.582 104.293c8.558,0 15.495,-6.938 15.495,-15.495l0 -0.001c-3.808,4.251 -9.339,6.927 -15.495,6.927 -6.157,0 -11.688,-2.676 -15.495,-6.928l0 0.002c0,8.557 6.937,15.495 15.495,15.495z"/>
  <path class="fil27" d="M461.694 90.036l-1.129 -3.136c-0.726,0.262 -1.452,0.524 -2.179,0.785l0.169 0.467c0.036,0.1 0.053,0.219 0.09,0.32 0.17,1.169 -0.734,2.01 -3.29,2.931l-5.204 1.875 8.826 -10.227 -0.344 -0.956 -0.556 0.2 -13.874 4.999 1.137 3.157c0.689,-0.248 1.378,-0.496 2.067,-0.744l-0.174 -0.553c-0.418,-1.37 0.431,-2.153 3.877,-3.394l3.559 -1.282 -8.669 10.107 0.353 0.978 0.555 -0.2 14.786 -5.327z"/>
  <path class="fil28" d="M379.44 174.026c13.15,0 23.811,10.661 23.811,23.812 0,13.15 -10.661,23.811 -23.811,23.811 -13.15,0 -23.811,-10.661 -23.811,-23.811 0,-13.151 10.661,-23.812 23.811,-23.812z"/>
  <circle class="fil29" cx="379.44" cy="197.837" r="21.921"/>
  <circle class="fil30" cx="379.44" cy="197.837" r="20.032"/>
  <path class="fil25" d="M379.44 177.806c11.063,0 20.031,8.968 20.031,20.031l0 0.001c-4.923,-5.496 -12.073,-8.955 -20.031,-8.955 -7.959,0 -15.109,3.46 -20.032,8.956l0 -0.002c0,-11.063 8.969,-20.031 20.032,-20.031z"/>
  <path class="fil31" d="M376.157 200.985l0.64 -5.764 5.549 1.619 -6.189 4.145zm3.061 4.27l-0.681 -1.018 -2.119 1.419c-0.585,0.393 -0.873,0.384 -0.828,-0.091 0,-0.181 0.037,-0.368 0.064,-0.568l0.292 -2.397 7.946 -5.321 2.272 0.679 0.726 0.18c0.257,0.205 0.207,0.362 -0.326,0.723l-0.026 0.017 -2.091 1.401 0.682 1.017 9.422 -6.311 -0.682 -1.017c-0.373,0.249 -0.658,0.448 -1.059,0.649 -0.734,0.35 -1.106,0.398 -1.935,0.186l-12.497 -3.524c-1.468,0.984 -2.936,1.967 -4.403,2.95l-1.666 13.009c-0.147,1.047 -0.258,1.243 -0.945,1.784l-0.298 0.219 0 0 -0.083 0.056 -0.613 0.411 0.681 1.017 0.697 -0.466 7.47 -5.004z"/>
  <path class="fil28" d="M432.169 138.536c13.151,0 23.811,10.661 23.811,23.811 0,13.15 -10.66,23.811 -23.811,23.811 -13.15,0 -23.811,-10.661 -23.811,-23.811 0,-13.15 10.661,-23.811 23.811,-23.811z"/>
  <circle class="fil29" cx="432.169" cy="162.346" r="21.921"/>
  <circle class="fil30" cx="432.169" cy="162.346" r="20.032"/>
  <path class="fil25" d="M432.169 142.315c11.063,0 20.032,8.968 20.032,20.031l0 0.001c-4.923,-5.496 -12.073,-8.955 -20.032,-8.955 -7.959,0 -15.109,3.46 -20.031,8.956l0 -0.002c0,-11.063 8.968,-20.031 20.031,-20.031z"/>
  <path class="fil31" d="M431.509 168.037l-1.937 -3.832 4.432 -2.241c3.653,-1.847 5.859,-1.796 6.062,-0.206 0.139,1.094 -1.16,2.541 -3.885,3.918l-4.672 2.361zm-2.52 -4.985l-1.793 -3.549 4.222 -2.134c3.085,-1.559 5.036,-1.568 5.311,-0.203 0.185,1.034 -0.576,2.058 -2.484,3.192 -0.244,0.155 -0.478,0.278 -0.729,0.405l-0.014 0.007 -0.013 0.007 -0.014 0.007 -0.014 0.007 -0.014 0.007 -0.014 0.007 -0.014 0.008 -0.014 0.006 -0.013 0.007 -4.403 2.226zm9.017 3.112c4.521,-2.286 6.487,-4.05 7.095,-5.673 0.104,-0.316 0.17,-0.631 0.146,-0.901 -0.083,-1.876 -2.335,-2.241 -6.336,-0.858 -0.157,0.061 -0.322,0.106 -0.479,0.167l0.299 -0.226 0.397 -0.332c1.644,-1.358 2.375,-2.441 2.348,-3.387 -0.026,-2.355 -3.349,-2.386 -9.757,0.853l-13.954 7.053 0.56 1.108 2.306 -1.166 0.005 -0.002 0.006 -0.003 0.005 -0.003 0.006 -0.003 0.005 -0.003 0.005 -0.002 0.006 -0.003 0.005 -0.002 0.006 -0.003 0.005 -0.003 0.005 -0.002 0.006 -0.003 0.004 -0.003 0.006 -0.002 0.005 -0.003 0.005 -0.003 0.005 -0.002 0.005 -0.003 0.005 -0.002 0.005 -0.003 0.005 -0.002 0.005 -0.003 0.005 -0.002 0.005 -0.003 0.005 -0.002 0.005 -0.003 0.005 -0.002 0.005 -0.003 0.005 -0.002 0.004 -0.003 0.005 -0.002 0.005 -0.003 0.005 -0.002 0.005 -0.003 0.005 -0.002 0.005 -0.003 0.005 -0.002 0.005 -0.003 0.005 -0.002 0.005 -0.003 0.005 -0.002 0.005 -0.003 0.005 -0.002 0.005 -0.003 0.005 -0.002 0.005 -0.003 0.005 -0.003 0.005 -0.002 0.005 -0.002 0.005 -0.003 0.005 -0.003 0.005 -0.002 0.006 -0.003 0.005 -0.003 0.005 -0.002 0.005 -0.003 0.006 -0.003 0.005 -0.002 0.006 -0.003 0.005 -0.003 0.005 -0.003 0.006 -0.002 0.005 -0.003 0.006 -0.003c1.28,-0.591 1.446,-0.562 1.809,0.157l3.208 6.348 0.258 0.51c0.355,0.703 0.199,0.914 -1.006,1.58 -0.068,0.05 -0.162,0.1 -0.26,0.15l-0.006 0.002 -0.005 0.003 -0.006 0.003 -0.006 0.003 -0.005 0.003 -0.006 0.003 -0.005 0.002 -0.006 0.004 -0.006 0.002 -0.005 0.003 -0.006 0.003 -2.246 1.135 0.553 1.093 14.792 -7.476z"/>
  <path class="fil28" d="M491.389 117.444c13.15,0 23.811,10.661 23.811,23.811 0,13.151 -10.661,23.812 -23.811,23.812 -13.15,0 -23.811,-10.661 -23.811,-23.812 0,-13.15 10.661,-23.811 23.811,-23.811z"/>
  <circle class="fil29" cx="491.389" cy="141.255" r="21.921"/>
  <circle class="fil32" cx="491.389" cy="141.255" r="20.032"/>
  <path class="fil25" d="M491.389 121.223c11.063,0 20.031,8.969 20.031,20.032l0 0.001c-4.922,-5.496 -12.072,-8.955 -20.031,-8.955 -7.959,0 -15.109,3.46 -20.032,8.956l0 -0.002c0,-11.063 8.969,-20.032 20.032,-20.032z"/>
  <path class="fil31" d="M497.55 133.63c-2.222,-0.146 -4.991,0.346 -7.742,1.391 -1.446,0.493 -2.901,1.141 -4.284,1.932 -4.313,2.481 -6.461,5.626 -5.406,8.456 0.749,1.977 2.775,3.048 5.65,3.207 1.928,0.108 4.065,-0.198 6.446,-0.914 0.806,-0.24 1.569,-0.495 2.287,-0.765 5.846,-2.02 9.027,-4.919 8.828,-7.483 0.01,-0.271 -0.05,-0.535 -0.167,-0.76 -1.062,0.382 -2.125,0.765 -3.187,1.148 0.068,0.189 0.073,0.402 0.072,0.598 -0.071,1.902 -2.118,3.851 -5.259,5.076 -0.478,0.159 -0.978,0.301 -1.497,0.425 -3.087,0.738 -5.751,0.271 -7.145,-1.616 -2.286,-3.175 0.255,-6.593 4.741,-8.347 0.312,-0.103 0.632,-0.199 0.959,-0.287 3.284,-0.88 5.786,-0.569 6.931,0.927 0.12,0.135 0.209,0.281 0.266,0.439 1.062,-0.383 2.125,-0.766 3.187,-1.149l-1.558 -4.324c-0.968,0.349 -1.936,0.698 -2.904,1.046l-0.218 1z"/>
 </g>
</svg>
