<?xml version="1.0" encoding="UTF-8"?>
<!DOCTYPE svg PUBLIC "-//W3C//DTD SVG 1.1//EN" "http://www.w3.org/Graphics/SVG/1.1/DTD/svg11.dtd">
<svg viewBox="0 0 562 316" xml:space="preserve" width="562px" height="316px" version="1.1" style="shape-rendering:geometricPrecision; fill-rule:evenodd; clip-rule:evenodd" xmlns="http://www.w3.org/2000/svg">
 <defs>
  <style type="text/css">
    .fil0 {fill:#C45D84}
    .fil1 {fill:#F575A5}
  </style>
 </defs>
 <g>
  <path class="fil0" d="M393.739 3.202c-4.153,0.351 -5.416,2.331 -3.755,2.386l2.898 0.096c16.306,0.378 30.953,2.064 46.354,7.533 13.016,4.824 24.1,10.98 34.914,19.667 7.795,6.435 11.734,10.38 18.245,17.697l0.798 0.865c0.973,1.054 2.321,0.812 0.627,-1.599 -12.085,-17.212 -27.23,-36.978 -44.439,-44.913 -14.233,-6.563 -38.011,-3.22 -55.642,-1.732z"/>
  <path class="fil1" d="M448.584 13.137c-12.161,-5.434 -22.558,-8.056 -35.798,-9.323 -11.557,-1.106 -26.004,-1.543 -26.004,2.223l0 0.934c1.714,-0.03 3.448,-0.036 5.207,-0.017 16.307,0.378 31.565,2.816 46.967,8.286 13.016,4.823 23.874,11.261 34.688,19.947 7.795,6.436 14.671,13.256 21.181,20.574l0.781 -0.764c2.233,-2.182 -8.949,-13.95 -14.914,-19.831 -8.806,-8.682 -20.907,-17.024 -32.108,-22.029z"/>
 </g>
</svg>
