<?xml version="1.0" encoding="UTF-8"?>
<!DOCTYPE svg PUBLIC "-//W3C//DTD SVG 1.1//EN" "http://www.w3.org/Graphics/SVG/1.1/DTD/svg11.dtd">
<svg viewBox="0 0 562 316" xml:space="preserve" width="562px" height="316px" version="1.1" style="shape-rendering:geometricPrecision; fill-rule:evenodd; clip-rule:evenodd" xmlns="http://www.w3.org/2000/svg">
 <defs>
  <style type="text/css">
    .fil0 {fill:#C45D84}
    .fil1 {fill:#F575A5}
  </style>
 </defs>
 <g>
  <path class="fil0" d="M168.261 3.202c4.153,0.351 5.417,2.331 3.756,2.386l-2.898 0.096c-16.307,0.378 -30.954,2.064 -46.355,7.533 -13.016,4.824 -24.1,10.98 -34.913,19.667 -7.795,6.435 -11.735,10.38 -18.245,17.697l-0.799 0.865c-0.972,1.054 -2.32,0.812 -0.626,-1.599 12.085,-17.212 27.229,-36.978 44.438,-44.913 14.233,-6.563 38.011,-3.22 55.642,-1.732z"/>
  <path class="fil1" d="M113.416 13.137c12.162,-5.434 22.558,-8.056 35.799,-9.323 11.557,-1.106 26.004,-1.543 26.004,2.223l0 0.934c-1.714,-0.03 -3.449,-0.036 -5.208,-0.017 -16.307,0.378 -31.565,2.816 -46.966,8.286 -13.016,4.823 -23.875,11.261 -34.689,19.947 -7.795,6.436 -14.67,13.256 -21.181,20.574l-0.781 -0.764c-2.232,-2.182 8.949,-13.95 14.914,-19.831 8.807,-8.682 20.907,-17.024 32.108,-22.029z"/>
 </g>
</svg>
