<?xml version="1.0" encoding="UTF-8"?>
<!DOCTYPE svg PUBLIC "-//W3C//DTD SVG 1.1//EN" "http://www.w3.org/Graphics/SVG/1.1/DTD/svg11.dtd">
<svg xml:space="preserve" viewBox="0 0 562 316" width="562px" height="316px" version="1.1" style="shape-rendering:geometricPrecision; fill-rule:evenodd; clip-rule:evenodd" xmlns="http://www.w3.org/2000/svg" xmlns:xlink="http://www.w3.org/1999/xlink">
 <defs>
  <style type="text/css">
    .fil4 {fill:black;fill-opacity:0.05}
    .fil3 {fill:black;fill-opacity:0.3}
    .fil1 {fill:url(#id0)}
    .fil2 {fill:url(#id1)}
    .fil0 {fill:url(#id2);fill-opacity:0.6}
  </style>
  <linearGradient id="id0" gradientUnits="userSpaceOnUse" x1="379.44" y1="219.759" x2="379.44" y2="175.916">
   <stop offset="0" style="stop-opacity:1; stop-color:#00AE68"/>
   <stop offset="0.5" style="stop-opacity:1; stop-color:#00B870"/>
   <stop offset="1" style="stop-opacity:1; stop-color:#00C274"/>
  </linearGradient>
  <linearGradient id="id1" gradientUnits="userSpaceOnUse" x1="379.44" y1="217.872" x2="379.44" y2="177.803">
   <stop offset="0" style="stop-opacity:1; stop-color:#00BF76"/>
   <stop offset="0.4" style="stop-opacity:1; stop-color:#00B870"/>
   <stop offset="1" style="stop-opacity:1; stop-color:#009159"/>
  </linearGradient>
  <linearGradient id="id2" gradientUnits="userSpaceOnUse" xlink:href="#id0" x1="379.44" y1="221.649" x2="379.44" y2="174.026">
  </linearGradient>
 </defs>
 <g>
  <path class="fil0" d="M379.44 174.026c13.15,0 23.811,10.661 23.811,23.812 0,13.15 -10.661,23.811 -23.811,23.811 -13.15,0 -23.811,-10.661 -23.811,-23.811 0,-13.151 10.661,-23.812 23.811,-23.812z"/>
  <circle class="fil1" cx="379.44" cy="197.838" r="21.921"/>
  <circle class="fil2" cx="379.44" cy="197.838" r="20.034"/>
  <path class="fil3" d="M376.157 200.985l0.64 -5.764 5.549 1.619 -6.189 4.145zm3.061 4.27l-0.681 -1.018 -2.119 1.419c-0.585,0.392 -0.873,0.384 -0.828,-0.091 0,-0.181 0.037,-0.368 0.064,-0.568l0.293 -2.397 7.945 -5.321 2.272 0.679 0.726 0.18c0.257,0.205 0.207,0.362 -0.326,0.723l-0.026 0.017 -2.091 1.401 0.682 1.017 9.421 -6.311 -0.681 -1.017c-0.373,0.25 -0.658,0.448 -1.059,0.649 -0.735,0.35 -1.107,0.398 -1.935,0.186l-12.497 -3.523c-1.467,0.983 -2.936,1.966 -4.403,2.95l-1.666 13.008c-0.146,1.047 -0.258,1.242 -0.945,1.784l-0.297 0.219 -0.001 0 -0.083 0.056 -0.613 0.411 0.681 1.017 0.697 -0.466 7.47 -5.004z"/>
  <path class="fil4" d="M379.44 177.803c11.064,0 20.034,8.97 20.034,20.034l0 0.001c-4.923,-5.497 -12.075,-8.956 -20.034,-8.956 -7.96,0 -15.112,3.46 -20.035,8.957l0 -0.002c0,-11.064 8.97,-20.034 20.035,-20.034z"/>
 </g>
</svg>
