<?xml version="1.0" encoding="UTF-8"?>
<!DOCTYPE svg PUBLIC "-//W3C//DTD SVG 1.1//EN" "http://www.w3.org/Graphics/SVG/1.1/DTD/svg11.dtd">
<svg xml:space="preserve" viewBox="0 0 562 316" width="562px" height="316px" version="1.1" style="shape-rendering:geometricPrecision; fill-rule:evenodd; clip-rule:evenodd" xmlns="http://www.w3.org/2000/svg" xmlns:xlink="http://www.w3.org/1999/xlink">
 <defs>
  <style type="text/css">
    .str0 {stroke:#E6E6E6;stroke-width:2}
    .fil9 {fill:#333333}
    .fil10 {fill:#585858}
    .fil13 {fill:#606060}
    .fil8 {fill:#666666}
    .fil12 {fill:#787878}
    .fil14 {fill:#909090}
    .fil4 {fill:#CCCCCC}
    .fil0 {fill:#F8F8F8}
    .fil17 {fill:white;fill-opacity:0.5}
    .fil1 {fill:url(#id0)}
    .fil7 {fill:url(#id1)}
    .fil5 {fill:url(#id2)}
    .fil6 {fill:url(#id3)}
    .fil16 {fill:url(#id4)}
    .fil3 {fill:url(#id5)}
    .fil11 {fill:url(#id6)}
    .fil2 {fill:url(#id7)}
    .fil15 {fill:url(#id8)}
    .shd0 {filter: drop-shadow(0px 1px .5px rgba(0, 0, 0, 0.2)) drop-shadow(0px 0px .5px rgba(0, 0, 0, 0.2))}
  </style>
  <linearGradient id="id0" gradientUnits="userSpaceOnUse" x1="281" y1="314.98" x2="281" y2="6.943">
   <stop offset="0" style="stop-opacity:1; stop-color:#D6D6D6"/>
   <stop offset="0.45" style="stop-opacity:1; stop-color:#E7E7E7"/>
   <stop offset="1" style="stop-opacity:1; stop-color:#F8F8F8"/>
  </linearGradient>
  <linearGradient id="id1" gradientUnits="userSpaceOnUse" x1="280.999" y1="198.013" x2="281" y2="191.603">
   <stop offset="0" style="stop-opacity:1; stop-color:#E6E6E6"/>
   <stop offset="1" style="stop-opacity:1; stop-color:#B3B3B3"/>
  </linearGradient>
  <linearGradient id="id2" gradientUnits="userSpaceOnUse" x1="111.854" y1="217.505" x2="161.495" y2="81.492">
   <stop offset="0" style="stop-opacity:1; stop-color:#FCFCFC"/>
   <stop offset="1" style="stop-opacity:1; stop-color:#CCCCCC"/>
  </linearGradient>
  <linearGradient id="id3" gradientUnits="userSpaceOnUse" x1="450.146" y1="217.505" x2="400.505" y2="81.492">
   <stop offset="0" style="stop-opacity:1; stop-color:#E8E8E8"/>
   <stop offset="1" style="stop-opacity:1; stop-color:#E0E0E0"/>
  </linearGradient>
  <linearGradient id="id4" gradientUnits="userSpaceOnUse" x1="136.674" y1="158.002" x2="136.674" y2="142.883">
   <stop offset="0" style="stop-opacity:1; stop-color:silver"/>
   <stop offset="0.35" style="stop-opacity:1; stop-color:#878787"/>
   <stop offset="1" style="stop-opacity:1; stop-color:#4D4D4D"/>
  </linearGradient>
  <linearGradient id="id5" gradientUnits="userSpaceOnUse" x1="281.001" y1="281.777" x2="281.001" y2="31.816">
   <stop offset="0" style="stop-opacity:1; stop-color:#B3B3B3"/>
   <stop offset="1" style="stop-opacity:1; stop-color:#CCCCCC"/>
  </linearGradient>
  <linearGradient id="id6" gradientUnits="userSpaceOnUse" x1="136.675" y1="195.41" x2="136.675" y2="103.586">
   <stop offset="0" style="stop-opacity:1; stop-color:#8A8A8A"/>
   <stop offset="0.5" style="stop-opacity:1; stop-color:gray"/>
   <stop offset="1" style="stop-opacity:1; stop-color:#6C6C6C"/>
  </linearGradient>
  <linearGradient id="id7" gradientUnits="userSpaceOnUse" x1="281" y1="281.464" x2="281" y2="116.208">
   <stop offset="0" style="stop-opacity:1; stop-color:#CCCCCC"/>
   <stop offset="0.7" style="stop-opacity:1; stop-color:#E4E4E4"/>
   <stop offset="1" style="stop-opacity:1; stop-color:#FCFCFC"/>
  </linearGradient>
  <linearGradient id="id8" gradientUnits="userSpaceOnUse" x1="136.675" y1="195.41" x2="136.675" y2="103.586">
   <stop offset="0" style="stop-opacity:1; stop-color:#9A9A9A"/>
   <stop offset="0.5" style="stop-opacity:1; stop-color:#8A8A8A"/>
   <stop offset="1" style="stop-opacity:1; stop-color:#909090"/>
  </linearGradient>
 </defs>
 <g>
  <g id="shell">
   <path class="fil0" d="M86.471 33.097c12.973,-10.42 33.935,-21.143 50.009,-25.026 5.378,-1.299 38.81,-6.505 38.739,-1.1 -0.147,0.968 -3.377,0.748 -5.137,0.768 -16.307,0.377 -31.066,2.815 -46.467,8.284 -13.016,4.824 -23.518,11.405 -34.332,20.091 -7.795,6.435 -19.517,21.167 -22.108,19.646 -2.646,-2.906 15.798,-19.766 19.296,-22.663zm389.058 0c-12.973,-10.42 -33.935,-21.143 -50.009,-25.026 -5.378,-1.299 -38.81,-6.505 -38.739,-1.1 0.147,0.968 3.377,0.748 5.137,0.768 16.307,0.377 31.066,2.815 46.467,8.284 13.016,4.824 23.518,11.405 34.332,20.091 7.795,6.435 19.517,21.167 22.108,19.646 2.646,-2.906 -15.798,-19.766 -19.296,-22.663z"/>
   <path class="fil1" d="M409.488 281.463l11.709 7.694c5.566,3.586 11.032,7.059 16.728,10.429 6.507,3.747 12.812,7.032 19.795,9.825 9.621,3.699 18.838,5.697 29.178,5.562 11.14,-0.251 21.947,-3.029 32.019,-7.751 8.559,-4.125 15.636,-9.206 21.951,-16.34 47.654,-55.702 1.702,-174.695 -35.537,-222.576 -9.729,-12.242 -19.604,-23.143 -31.687,-33.119 -10.814,-8.686 -21.673,-15.124 -34.688,-19.948 -15.402,-5.469 -30.66,-7.907 -46.967,-8.285 -15.266,-0.171 -28.646,1.563 -43.568,4.613l-22.145 4.901 -9.343 1.878c-6.65,1.209 -13.107,2.158 -19.833,2.837 -5.435,0.471 -10.645,0.724 -16.1,0.768 -5.455,-0.044 -10.665,-0.297 -16.1,-0.768 -6.726,-0.679 -13.183,-1.628 -19.833,-2.837l-9.343 -1.878 -22.145 -4.901c-14.922,-3.05 -28.302,-4.784 -43.568,-4.613 -16.307,0.378 -31.565,2.816 -46.967,8.285 -13.015,4.824 -23.874,11.262 -34.688,19.948 -12.083,9.976 -21.958,20.877 -31.687,33.119 -37.239,47.881 -83.191,166.874 -35.537,222.576 6.315,7.134 13.392,12.215 21.951,16.34 10.072,4.722 20.879,7.5 32.019,7.751 10.34,0.135 19.557,-1.863 29.178,-5.562 6.983,-2.793 13.288,-6.078 19.795,-9.825 5.696,-3.37 11.162,-6.843 16.728,-10.429l11.744 -7.717c37.147,-24.409 51.591,-71.167 128.453,-71.167 76.862,0 91.329,46.77 128.488,71.19z"/>
   <path class="fil2" d="M44.442 116.208c3.974,-7.561 8.73,-14.494 14.519,-21.388 14.145,-16.399 31.691,-29.184 51.236,-38.425 19.172,-8.759 38.499,-13.482 59.226,-16.966 37.282,-5.768 73.905,-6.989 111.577,-7.148 37.674,0.159 74.293,1.381 111.577,7.148 20.727,3.485 40.052,8.207 59.226,16.966 19.513,9.226 37.121,22.041 51.235,38.425 5.784,6.88 10.545,13.823 14.52,21.388 2.171,4.129 4.106,8.444 5.847,13.035 5.639,15.536 7.807,30.894 6.792,47.388 -0.995,13.172 -3.829,24.91 -9.457,36.89 -5.856,11.962 -12.79,20.777 -22.939,29.27 -8.601,6.965 -17.515,12.183 -27.442,17.015 -19.897,9.364 -39.772,15.405 -60.87,21.657 -2.59,-1.702 -5.18,-3.404 -7.77,-5.106 -34.011,-21.643 -79.976,-41.084 -120.719,-41.084 -40.743,0 -86.704,19.441 -120.719,41.084 -2.59,1.703 -5.181,3.405 -7.771,5.107 -21.091,-6.251 -40.979,-12.293 -60.869,-21.658 -9.923,-4.827 -18.847,-10.054 -27.443,-17.015 -10.151,-8.497 -17.079,-17.303 -22.939,-29.27 -5.619,-11.961 -8.473,-23.736 -9.457,-36.89 -1.009,-16.476 1.148,-31.87 6.792,-47.388 1.744,-4.596 3.68,-8.91 5.848,-13.035z"/>
   <path class="fil3" d="M281 32.746c-18.82,0.079 -37.384,0.425 -55.909,1.471 -18.507,1.044 -36.96,2.789 -55.569,5.667 -10.352,1.74 -20.373,3.793 -30.171,6.498 -9.79,2.703 -19.385,6.063 -28.939,10.426 -9.91,4.686 -19.318,10.29 -28.008,16.807 -8.397,6.299 -16.144,13.459 -23.073,21.489 -4.458,5.309 -8.314,10.656 -11.656,16.278 -3.343,5.624 -6.187,11.543 -8.645,18.025 -2.81,7.726 -4.752,15.422 -5.866,23.236 -1.113,7.809 -1.399,15.74 -0.898,23.939 0.49,6.551 1.447,12.772 2.979,18.828 1.532,6.058 3.64,11.965 6.436,17.914 2.907,5.939 6.081,11.095 9.783,15.82 3.714,4.734 7.983,9.063 13.033,13.29 4.277,3.463 8.639,6.497 13.167,9.267 4.531,2.771 9.23,5.279 14.179,7.686 9.924,4.672 19.853,8.509 29.932,11.958 10.097,3.455 20.332,6.518 30.866,9.64l0.413 0.122 -1.019 0.669c-10.435,-3.093 -20.578,-6.133 -30.559,-9.548 -10.109,-3.459 -20.07,-7.31 -30.034,-12.001 -4.974,-2.419 -9.703,-4.942 -14.263,-7.731 -4.56,-2.789 -8.963,-5.853 -13.279,-9.348 -5.101,-4.269 -9.394,-8.618 -13.147,-13.403 -3.744,-4.777 -6.973,-10.018 -9.911,-16.02 -2.824,-6.01 -4.957,-11.98 -6.502,-18.089 -1.545,-6.109 -2.509,-12.368 -3.002,-18.971 -0.506,-8.26 -0.218,-16.28 0.904,-24.153 1.123,-7.878 3.081,-15.638 5.915,-23.428 2.479,-6.537 5.348,-12.509 8.716,-18.176 3.37,-5.669 7.242,-11.041 11.73,-16.387 6.972,-8.078 14.792,-15.311 23.243,-21.649 8.745,-6.559 18.192,-12.189 28.153,-16.898 9.602,-4.385 19.27,-7.773 29.104,-10.489 9.84,-2.716 19.869,-4.772 30.244,-6.515 18.654,-2.885 37.168,-4.637 55.693,-5.683 18.523,-1.046 37.112,-1.392 55.963,-1.471 18.851,0.079 37.436,0.425 55.959,1.471 18.524,1.046 37.039,2.798 55.693,5.683 10.375,1.743 20.404,3.799 30.243,6.515 9.834,2.716 19.503,6.104 29.105,10.489 9.961,4.709 19.407,10.339 28.152,16.898 8.451,6.338 16.272,13.571 23.243,21.649 4.489,5.346 8.361,10.718 11.73,16.387 3.369,5.667 6.238,11.639 8.717,18.176 2.833,7.79 4.792,15.55 5.914,23.428 1.122,7.873 1.41,15.893 0.905,24.153 -0.494,6.603 -1.458,12.862 -3.003,18.971 -1.545,6.109 -3.677,12.079 -6.502,18.089 -2.938,6.002 -6.167,11.243 -9.911,16.02 -3.753,4.785 -8.045,9.134 -13.146,13.403 -4.317,3.495 -8.719,6.559 -13.28,9.348 -4.56,2.789 -9.289,5.312 -14.263,7.731 -9.964,4.691 -19.925,8.542 -30.033,12.001 -9.982,3.415 -20.125,6.455 -30.56,9.549l-1.02 -0.67 0.415 -0.122c10.533,-3.122 20.768,-6.185 30.866,-9.64 10.079,-3.449 20.007,-7.286 29.931,-11.958 4.949,-2.407 9.648,-4.915 14.179,-7.686 4.529,-2.77 8.891,-5.804 13.167,-9.267 5.05,-4.227 9.32,-8.556 13.033,-13.29 3.703,-4.725 6.876,-9.881 9.784,-15.82 2.795,-5.949 4.903,-11.856 6.436,-17.914 1.532,-6.056 2.489,-12.277 2.978,-18.828 0.501,-8.199 0.215,-16.13 -0.898,-23.939 -1.113,-7.814 -3.056,-15.51 -5.865,-23.236 -2.459,-6.482 -5.302,-12.401 -8.646,-18.025 -3.342,-5.622 -7.198,-10.969 -11.656,-16.278 -6.929,-8.03 -14.675,-15.19 -23.073,-21.489 -8.69,-6.517 -18.098,-12.121 -28.007,-16.807 -9.554,-4.363 -19.15,-7.723 -28.94,-10.426 -9.797,-2.705 -19.819,-4.758 -30.17,-6.498 -18.609,-2.878 -37.063,-4.623 -55.569,-5.667 -18.525,-1.046 -37.091,-1.392 -55.911,-1.471z"/>
   <path class="fil4" d="M339.913 103.634l-8.798 -29.13c-2.016,-6.677 -7.988,-11.118 -14.972,-11.118l-70.287 0c-6.984,0 -12.955,4.442 -14.972,11.118l-8.798 29.13 10.304 -27.099c2.307,-6.066 6.967,-10.346 13.466,-10.346l70.287 0c6.499,0 11.159,4.281 13.466,10.346l10.304 27.099z"/>
   <path class="fil5 str0" d="M192.207 93.184c25.498,25.144 21.304,70.739 -9.366,101.841 -30.67,31.102 -76.202,35.931 -101.699,10.787 -25.498,-25.143 -21.304,-70.739 9.366,-101.84 30.67,-31.102 76.202,-35.931 101.699,-10.788z"/>
   <path class="fil6 str0" d="M369.793 93.184c-25.497,25.144 -21.304,70.739 9.366,101.841 30.67,31.102 76.202,35.931 101.699,10.787 25.497,-25.143 21.304,-70.739 -9.366,-101.84 -30.67,-31.102 -76.202,-35.931 -101.699,-10.788z"/>
   <path class="fil0 shd0" d="M266.951 167.771c-0.362,0 -0.731,-0.029 -1.107,-0.088 -0.376,-0.059 -0.743,-0.149 -1.101,-0.272 -0.357,-0.123 -0.698,-0.277 -1.023,-0.464 -0.326,-0.187 -0.616,-0.411 -0.872,-0.672l0.968 -0.984c0.197,0.197 0.42,0.365 0.667,0.504 0.248,0.139 0.51,0.252 0.785,0.34 0.274,0.088 0.556,0.152 0.844,0.192 0.288,0.04 0.568,0.06 0.839,0.06 0.401,0 0.748,-0.015 1.045,-0.044 0.296,-0.029 0.537,-0.092 0.724,-0.188 0.229,-0.112 0.36,-0.236 0.391,-0.372 0.033,-0.136 -0.035,-0.261 -0.203,-0.376 -0.168,-0.115 -0.435,-0.211 -0.8,-0.288 -0.366,-0.077 -0.831,-0.113 -1.397,-0.108 -0.48,-0.016 -0.912,-0.074 -1.296,-0.172 -0.384,-0.099 -0.713,-0.231 -0.987,-0.396 -0.275,-0.165 -0.495,-0.355 -0.66,-0.568 -0.166,-0.213 -0.267,-0.446 -0.304,-0.696 0.01,-0.309 0.09,-0.586 0.24,-0.828 0.149,-0.243 0.358,-0.447 0.628,-0.612 0.269,-0.165 0.59,-0.291 0.964,-0.376 0.373,-0.086 0.789,-0.128 1.248,-0.128 0.304,0 0.617,0.02 0.94,0.06 0.322,0.04 0.646,0.108 0.972,0.204 0.325,0.096 0.645,0.222 0.96,0.38 0.314,0.157 0.618,0.353 0.912,0.588l-0.992 1c-0.214,-0.176 -0.437,-0.319 -0.668,-0.428 -0.232,-0.11 -0.469,-0.195 -0.709,-0.256 -0.24,-0.061 -0.478,-0.104 -0.715,-0.128 -0.238,-0.024 -0.471,-0.036 -0.7,-0.036 -0.214,0 -0.42,0.014 -0.621,0.044 -0.199,0.029 -0.377,0.069 -0.531,0.12 -0.155,0.05 -0.28,0.108 -0.376,0.172 -0.096,0.064 -0.144,0.131 -0.144,0.2 -0.006,0.123 0.157,0.225 0.488,0.308 0.33,0.082 0.8,0.137 1.407,0.164 0.641,0.027 1.186,0.084 1.637,0.172 0.45,0.088 0.817,0.215 1.1,0.38 0.282,0.165 0.488,0.372 0.615,0.62 0.129,0.248 0.192,0.54 0.192,0.876 0,0.261 -0.071,0.517 -0.215,0.768 -0.144,0.251 -0.358,0.475 -0.64,0.672 -0.283,0.197 -0.634,0.356 -1.052,0.476 -0.419,0.12 -0.903,0.18 -1.453,0.18zm10.633 -4.92l-2.984 0 0 4.696 -1.392 0 0 -4.696 -2.993 0 0 -1.384 7.369 0 0 1.384zm3.88 -1.384l3.856 6.08 -1.656 0 -0.712 -1.112 -3.84 0 -0.72 1.112 -1.656 0 3.856 -6.08 0.872 0zm-1.48 3.568l2.088 0c-0.096,-0.144 -0.18,-0.275 -0.252,-0.392 -0.072,-0.117 -0.146,-0.236 -0.22,-0.356 -0.075,-0.12 -0.156,-0.252 -0.244,-0.396 -0.088,-0.144 -0.197,-0.318 -0.324,-0.52l-1.048 1.664zm6.407 2.512l-1.407 0 0 -6.08 4.44 0c0.336,0 0.64,0.05 0.912,0.152 0.272,0.101 0.505,0.244 0.7,0.428 0.194,0.184 0.344,0.404 0.448,0.66 0.104,0.256 0.156,0.541 0.156,0.856 0,0.464 -0.103,0.861 -0.308,1.192 -0.206,0.331 -0.484,0.587 -0.836,0.768 0.08,0.16 0.167,0.337 0.263,0.532 0.096,0.195 0.192,0.387 0.288,0.576 0.096,0.189 0.186,0.365 0.269,0.528 0.082,0.163 0.148,0.292 0.196,0.388l-1.56 0 -0.976 -1.872 -2.585 0 0 1.872zm0 -3.28l3.033 0c0.25,0 0.45,-0.061 0.6,-0.185 0.149,-0.123 0.224,-0.298 0.224,-0.523 0,-0.215 -0.075,-0.387 -0.224,-0.515 -0.15,-0.129 -0.35,-0.193 -0.6,-0.193l-3.033 0 0 1.416zm12.593 -1.416l-2.984 0 0 4.696 -1.392 0 0 -4.696 -2.992 0 0 -1.384 7.368 0 0 1.384z"/>
   <path class="fil7" d="M312.181 194.484c0,6.311 -9.175,11.654 -21.823,13.451 -1.938,2.701 -5.404,4.501 -9.359,4.501 -3.954,0 -7.421,-1.8 -9.358,-4.501 -12.648,-1.797 -21.823,-7.14 -21.823,-13.451 0,-7.787 13.961,-14.099 31.181,-14.099 17.221,0 31.181,6.313 31.182,14.099z"/>
   <g>
    <path class="fil8" d="M241.299 101.526l10.493 -0.011c4.293,0 7.772,-3.468 7.772,-7.742 0,-4.282 -3.479,-7.751 -7.772,-7.751l-2.725 0.016c-0.215,0 -0.389,-0.177 -0.389,-0.394 0,-0.216 0.174,-0.393 0.389,-0.393l10.473 0.003 0.005 -3.286 -10.481 0c-2.026,0 -3.674,1.646 -3.674,3.668 0,2.024 1.648,3.664 3.674,3.664l2.738 0.036c2.46,0 4.45,1.984 4.45,4.431 0,2.449 -1.99,4.437 -4.45,4.437l-10.499 0 -0.004 3.322zm0.004 -4.093l10.499 0c2.033,0 3.677,-1.64 3.677,-3.666 0,-2.025 -1.644,-3.662 -3.677,-3.662l-2.738 -0.03c-2.455,0 -4.447,-1.986 -4.447,-4.439 0,-2.447 1.992,-4.433 4.447,-4.433l10.481 -0.002 -0.005 -3.299 -10.473 0c-4.289,0 -7.772,3.465 -7.772,7.743 0,4.277 3.483,7.744 7.772,7.744l2.71 0.004c0.206,0 0.38,0.168 0.38,0.38 0,0.209 -0.174,0.376 -0.38,0.376l-10.478 0.009 0.004 3.275 0 0zm0 0l0 0 0 0zm26.396 0.792c-1.821,0 -3.312,-1.451 -3.312,-3.303l0 -10.482c0,-1.782 1.491,-3.247 3.312,-3.247l11.2 0.001 0 -3.292 -11.2 0c-3.645,0 -6.597,2.942 -6.597,6.574l0 10.446c0,3.633 2.952,6.579 6.597,6.579l11.153 0.004 -0.002 -3.284 -11.151 0.004 0 0zm0 0l0 0 0 0zm-2.509 -13.749c0,-1.389 1.117,-2.514 2.509,-2.514l11.2 0 0 3.296 -9.65 0c-0.773,0 -0.783,0.767 -0.783,0.767l8.05 0 0 3.281 -11.33 0 0.004 -4.83 0 0zm0 0l0 0 0 0zm2.509 12.951c-1.387,0 -2.513,-1.12 -2.513,-2.505l0 -4.834 11.33 0 0 3.288 -8.051 0c0.011,0.773 0.784,0.777 0.784,0.777l9.603 0 -0.003 3.269 -11.15 0.005zm48.434 0.79l-8.759 0 0 3.286 13.33 0 -6.932 -20.512c-0.608,-2.001 -2.611,-3.473 -4.982,-3.473 -2.374,0 -4.371,1.465 -4.982,3.464l-6.222 18.246 0 -13.203 -9.322 0 0 3.281 6.028 0 0 8.911 -7.545 0c-1.814,0 -3.296,-1.478 -3.296,-3.295l0 -10.446c0,-1.818 1.472,-3.284 3.288,-3.284l10.847 0 0 -3.29 -10.872 0c-3.644,0 -6.596,2.942 -6.596,6.574l0 10.446c0,3.633 2.978,6.579 6.621,6.579l13.562 0.002 6.792 -19.947c0.277,-0.66 0.927,-1.126 1.691,-1.126 0.761,0 1.415,0.466 1.693,1.122l5.656 16.665 0 0zm-31.909 -3.295c0,1.392 1.126,2.524 2.515,2.524l6.775 0 0 -7.362 -5.242 0 0 3.292 1.946 0 0.006 0.773 -1.937 0c-0.423,0 -0.769,-0.35 -0.769,-0.773l-0.017 -7.354c0,0 -0.002,-0.764 0.777,-0.783l9.312 0 -0.004 -3.28 -10.848 0.003c-1.389,0 -2.515,1.125 -2.515,2.514l0 10.446 0.001 0zm0 0l0 0 0 0zm23.144 -0.378l-2.36 6.959 -3.887 0 6.659 -19.59c0.146,-0.419 0.543,-0.72 1.013,-0.72 0.47,0 0.871,0.302 1.013,0.72l5.266 15.556 -7.711 0 0.007 -2.925zm0.249 -0.735l2.329 0 -1.16 -3.447 -1.169 3.447zm8.516 4.408l0 0 0 0z"/>
   </g>
  </g>
  <g id="holes">
   <circle class="fil9" cx="136.674" cy="149.498" r="55.181"/>
   <path class="fil9" d="M281 184.468c6.204,0 11.86,0.985 15.988,2.576 4.599,1.774 7.445,4.394 7.445,7.44 0,3.045 -2.846,5.665 -7.445,7.439 -4.128,1.591 -9.784,2.576 -15.988,2.576 -6.205,0 -11.861,-0.985 -15.989,-2.576 -4.599,-1.774 -7.444,-4.394 -7.444,-7.439 0,-3.046 2.845,-5.666 7.444,-7.44 4.128,-1.591 9.784,-2.576 15.989,-2.576z"/>
   <circle class="fil9" cx="359.768" cy="135.779" r="18.142"/>
   <circle class="fil9" cx="403.405" cy="106.21" r="18.142"/>
   <circle class="fil9" cx="452.582" cy="88.797" r="18.142"/>
   <circle class="fil9" cx="379.44" cy="197.838" r="24.567"/>
   <circle class="fil9" cx="432.169" cy="162.346" r="24.567"/>
   <circle class="fil9" cx="491.389" cy="141.255" r="24.567"/>
  </g>
  <g id="dpad">
   <circle class="fil10" cx="136.674" cy="149.498" r="51.401"/>
   <path class="fil11" d="M148.466 107.283l0 16.446c0,7.72 6.258,13.978 13.978,13.978l16.446 0c1.309,0 2.411,0.891 2.684,2.171 0.662,3.102 1.012,6.32 1.012,9.62 0,3.3 -0.35,6.518 -1.012,9.62 -0.273,1.281 -1.375,2.172 -2.684,2.172l-16.446 0c-7.72,0 -13.978,6.258 -13.978,13.978l0 16.446c0,1.309 -0.891,2.411 -2.171,2.684 -3.102,0.662 -6.321,1.012 -9.62,1.012 -3.3,0 -6.519,-0.35 -9.62,-1.012 -1.281,-0.273 -2.172,-1.375 -2.172,-2.684l0 -16.446c0,-7.72 -6.258,-13.978 -13.978,-13.978l-16.446 0c-1.309,0 -2.411,-0.891 -2.684,-2.172 -0.662,-3.102 -1.012,-6.32 -1.012,-9.62 0,-3.299 0.35,-6.518 1.012,-9.62 0.273,-1.28 1.375,-2.171 2.684,-2.171l16.446 0c7.72,0 13.978,-6.258 13.978,-13.978l0 -16.446c0,-1.309 0.891,-2.411 2.172,-2.685 3.101,-0.662 6.32,-1.011 9.62,-1.011 3.299,0 6.518,0.349 9.62,1.011 1.28,0.274 2.171,1.375 2.171,2.685z"/>
   <path class="fil12" d="M111.817 134.962l-21.586 0c4.746,-15.179 16.727,-27.161 31.907,-31.907l-0.005 21.591c0,5.697 -4.618,10.316 -10.316,10.316zm0 29.073l-21.586 0c4.746,15.18 16.728,27.16 31.907,31.907l-0.005 -21.592c0,-5.697 -4.618,-10.315 -10.316,-10.315zm39.399 10.315l-0.005 21.592c15.18,-4.747 27.161,-16.728 31.907,-31.907l-21.586 0c-5.698,0 -10.316,4.618 -10.316,10.315zm10.316 -39.388l21.586 0c-4.746,-15.18 -16.727,-27.161 -31.907,-31.907l0.005 21.591c0,5.697 4.618,10.316 10.316,10.316z"/>
   <path class="fil13" d="M103.271 181.34l3.046 -6.213c0.171,-0.347 0.476,-0.575 0.858,-0.638 0.38,-0.063 0.745,0.054 1.017,0.326l3.166 3.166c0.272,0.272 0.389,0.636 0.326,1.017 -0.064,0.382 -0.291,0.686 -0.638,0.858l-6.212 3.046c-0.455,0.223 -0.983,0.136 -1.341,-0.222 -0.358,-0.358 -0.445,-0.887 -0.222,-1.34zm63.761 -6.213l3.046 6.213c0.223,0.453 0.136,0.982 -0.222,1.34 -0.358,0.358 -0.886,0.445 -1.34,0.222l-6.212 -3.046c-0.348,-0.171 -0.576,-0.476 -0.639,-0.858 -0.063,-0.38 0.054,-0.745 0.326,-1.017l3.166 -3.166c0.272,-0.272 0.637,-0.389 1.017,-0.326 0.382,0.063 0.688,0.291 0.858,0.638zm-4.728 -55.986l6.212 -3.046c0.453,-0.223 0.983,-0.136 1.34,0.221 0.358,0.358 0.445,0.887 0.222,1.341l-3.046 6.212c-0.171,0.348 -0.476,0.575 -0.858,0.638 -0.38,0.064 -0.745,-0.054 -1.017,-0.326l-3.166 -3.165c-0.272,-0.273 -0.389,-0.637 -0.326,-1.017 0.063,-0.383 0.291,-0.687 0.639,-0.858zm-57.47 -3.046l6.212 3.046c0.347,0.171 0.574,0.475 0.638,0.858 0.063,0.38 -0.054,0.744 -0.326,1.017l-3.166 3.165c-0.272,0.273 -0.637,0.39 -1.017,0.326 -0.383,-0.063 -0.687,-0.29 -0.858,-0.638l-3.046 -6.212c-0.223,-0.454 -0.136,-0.983 0.222,-1.341 0.357,-0.357 0.887,-0.444 1.341,-0.221z"/>
   <path class="fil14" d="M106.772 175.349l-3.047 6.212c-0.127,0.26 -0.078,0.555 0.127,0.759 0.205,0.205 0.499,0.255 0.759,0.127l6.212 -3.046c0.199,-0.098 0.324,-0.266 0.361,-0.485 0.036,-0.221 -0.027,-0.418 -0.186,-0.576l-3.165 -3.166c-0.159,-0.159 -0.355,-0.222 -0.576,-0.185 -0.219,0.036 -0.387,0.162 -0.485,0.36zm62.852 6.212l-3.047 -6.212c-0.097,-0.198 -0.266,-0.324 -0.484,-0.36 -0.222,-0.037 -0.419,0.026 -0.577,0.185l-3.166 3.166c-0.158,0.158 -0.221,0.355 -0.184,0.576 0.035,0.219 0.161,0.387 0.36,0.485l6.212 3.046c0.261,0.128 0.554,0.079 0.759,-0.127 0.205,-0.204 0.254,-0.499 0.127,-0.759zm-0.886 -65.012l-6.212 3.046c-0.199,0.098 -0.325,0.266 -0.36,0.485 -0.037,0.221 0.026,0.417 0.184,0.576l3.166 3.166c0.158,0.158 0.355,0.221 0.577,0.185 0.218,-0.036 0.387,-0.162 0.484,-0.361l3.047 -6.212c0.127,-0.26 0.078,-0.554 -0.127,-0.759 -0.205,-0.204 -0.499,-0.254 -0.759,-0.126zm-57.915 3.046l-6.212 -3.046c-0.26,-0.128 -0.555,-0.078 -0.759,0.126 -0.205,0.205 -0.255,0.499 -0.127,0.759l3.047 6.212c0.098,0.199 0.266,0.325 0.485,0.361 0.221,0.036 0.417,-0.027 0.576,-0.185l3.165 -3.166c0.159,-0.158 0.222,-0.355 0.186,-0.576 -0.037,-0.219 -0.162,-0.387 -0.361,-0.485z"/>
   <path class="fil15" d="M148.466 107.283l0 16.446c0,7.72 6.258,13.978 13.978,13.978l16.446 0c1.309,0 2.411,0.891 2.684,2.171 0.662,3.102 1.012,6.32 1.012,9.62 0,3.3 -0.35,6.518 -1.012,9.62 -0.273,1.281 -1.375,2.172 -2.684,2.172l-16.446 0c-7.72,0 -13.978,6.258 -13.978,13.978l0 16.446c0,1.309 -0.891,2.411 -2.171,2.684 -3.102,0.662 -6.321,1.012 -9.62,1.012 -3.3,0 -6.519,-0.35 -9.62,-1.012 -1.281,-0.273 -2.172,-1.375 -2.172,-2.684l0 -16.446c0,-7.72 -6.258,-13.978 -13.978,-13.978l-16.446 0c-1.309,0 -2.411,-0.891 -2.684,-2.172 -0.662,-3.102 -1.012,-6.32 -1.012,-9.62 0,-3.299 0.35,-6.518 1.012,-9.62 0.273,-1.28 1.375,-2.171 2.684,-2.171l16.446 0c7.72,0 13.978,-6.258 13.978,-13.978l0 -16.446c0,-1.309 0.891,-2.411 2.172,-2.685 3.101,-0.662 6.32,-1.012 9.62,-1.012 3.299,0 6.518,0.35 9.62,1.012 1.28,0.274 2.171,1.375 2.171,2.685zm-2.744 16.446l0 -12.149c0,-0.887 -0.618,-1.633 -1.49,-1.798 -2.448,-0.463 -4.975,-0.706 -7.557,-0.706 -2.584,0 -5.11,0.243 -7.559,0.706 -0.872,0.166 -1.489,0.911 -1.489,1.798l0 12.149c0,4.617 -1.871,8.798 -4.897,11.824 -3.027,3.026 -7.208,4.898 -11.825,4.898l-12.149 0c-0.887,0 -1.633,0.618 -1.797,1.49 -0.463,2.448 -0.707,4.974 -0.707,7.557 0,2.583 0.243,5.11 0.707,7.558 0.165,0.873 0.91,1.49 1.797,1.49l12.149 -0.001c4.617,0 8.798,1.872 11.825,4.898 3.026,3.026 4.897,7.208 4.897,11.825l0 12.149c0,0.887 0.618,1.632 1.49,1.797 2.448,0.463 4.974,0.707 7.558,0.707 2.582,0 5.109,-0.243 7.558,-0.707 0.872,-0.165 1.489,-0.91 1.489,-1.797l0 -12.149c0,-4.617 1.871,-8.799 4.897,-11.825 3.026,-3.026 7.208,-4.898 11.825,-4.898l12.149 0c0.887,0 1.632,-0.617 1.798,-1.489 0.463,-2.448 0.706,-4.975 0.706,-7.558 0,-2.583 -0.243,-5.11 -0.706,-7.558 -0.166,-0.872 -0.911,-1.489 -1.798,-1.489l-12.149 0c-4.617,0 -8.799,-1.872 -11.825,-4.898 -3.026,-3.026 -4.897,-7.207 -4.897,-11.824z"/>
   <circle class="fil16" cx="136.675" cy="149.498" r="9.449"/>
   <path class="fil17" d="M147.094 110.244l0 -2.013c0,-1.022 -0.711,-1.881 -1.716,-2.07 -2.819,-0.533 -5.729,-0.814 -8.704,-0.814 -2.975,0 -5.885,0.28 -8.705,0.814 -1.004,0.19 -1.716,1.048 -1.715,2.07l0 2.013c0,-1.022 0.711,-1.88 1.716,-2.07 2.819,-0.534 5.729,-0.813 8.705,-0.813 2.975,0 5.884,0.28 8.704,0.813 1.004,0.19 1.715,1.048 1.715,2.07zm-49.836 29.25c-1.411,0 -2.597,0.582 -2.891,1.417 0.15,-1.368 0.756,-2.321 1.475,-2.321l15.063 0c8.477,0 15.349,-6.654 15.349,-14.861 0,8.707 -6.872,15.765 -15.349,15.765l-13.647 0zm78.833 0c1.411,0 2.597,0.582 2.892,1.417 -0.15,-1.368 -0.757,-2.321 -1.476,-2.321l-15.063 0c-8.477,0 -15.349,-6.654 -15.349,-14.861 0,8.707 6.872,15.765 15.349,15.765l13.647 0z"/>
  </g>
 </g>
</svg>
