<?xml version="1.0" encoding="UTF-8"?>
<!DOCTYPE svg PUBLIC "-//W3C//DTD SVG 1.1//EN" "http://www.w3.org/Graphics/SVG/1.1/DTD/svg11.dtd">
<svg xml:space="preserve" viewBox="0 0 562 316" width="562px" height="316px" version="1.1" style="shape-rendering:geometricPrecision; fill-rule:evenodd; clip-rule:evenodd" xmlns="http://www.w3.org/2000/svg" xmlns:xlink="http://www.w3.org/1999/xlink">
 <defs>
  <style type="text/css">
    .fil4 {fill:black;fill-opacity:0.05}
    .fil3 {fill:black;fill-opacity:0.3}
    .fil1 {fill:url(#id0)}
    .fil2 {fill:url(#id1)}
    .fil0 {fill:url(#id2);fill-opacity:0.6}
  </style>
  <linearGradient id="id0" gradientUnits="userSpaceOnUse" x1="432.169" y1="184.268" x2="432.169" y2="140.425">
   <stop offset="0" style="stop-opacity:1; stop-color:#F0C000"/>
   <stop offset="0.5" style="stop-opacity:1; stop-color:#FFCF0D"/>
   <stop offset="1" style="stop-opacity:1; stop-color:#FFD943"/>
  </linearGradient>
  <linearGradient id="id1" gradientUnits="userSpaceOnUse" x1="432.169" y1="182.38" x2="432.169" y2="142.312">
   <stop offset="0" style="stop-opacity:1; stop-color:#FFD633"/>
   <stop offset="0.4" style="stop-opacity:1; stop-color:#FFCF0D"/>
   <stop offset="1" style="stop-opacity:1; stop-color:#D9B00B"/>
  </linearGradient>
  <linearGradient id="id2" gradientUnits="userSpaceOnUse" xlink:href="#id0" x1="432.169" y1="186.157" x2="432.169" y2="138.535">
  </linearGradient>
 </defs>
 <g>
  <path class="fil0" d="M432.169 138.535c13.151,0 23.811,10.661 23.811,23.811 0,13.15 -10.66,23.811 -23.811,23.811 -13.15,0 -23.811,-10.661 -23.811,-23.811 0,-13.15 10.661,-23.811 23.811,-23.811z"/>
  <circle class="fil1" cx="432.169" cy="162.346" r="21.921"/>
  <circle class="fil2" cx="432.169" cy="162.346" r="20.034"/>
  <path class="fil3" d="M431.509 168.037l-1.937 -3.832 4.432 -2.241c3.653,-1.846 5.859,-1.796 6.061,-0.206 0.14,1.094 -1.159,2.541 -3.884,3.918l-4.672 2.361zm-2.52 -4.985l-1.793 -3.549 4.222 -2.134c3.085,-1.559 5.036,-1.568 5.311,-0.203 0.185,1.034 -0.576,2.058 -2.484,3.192 -0.244,0.155 -0.478,0.278 -0.729,0.405l-0.014 0.007 -0.013 0.007 -0.014 0.007 -0.014 0.007 -0.014 0.007 -0.014 0.007 -0.014 0.008 -0.014 0.006 -0.014 0.007 -4.402 2.226zm9.016 3.112c4.522,-2.286 6.488,-4.05 7.096,-5.673 0.104,-0.316 0.17,-0.631 0.146,-0.901 -0.083,-1.875 -2.335,-2.241 -6.336,-0.858 -0.157,0.061 -0.322,0.106 -0.479,0.167l0.299 -0.226 0.396 -0.332c1.645,-1.358 2.376,-2.441 2.349,-3.386 -0.026,-2.356 -3.349,-2.387 -9.757,0.852l-13.954 7.053 0.56 1.108 2.306 -1.166 0.006 -0.002 0.005 -0.003 0.006 -0.003 0.005 -0.003 0.005 -0.003 0.006 -0.002 0.005 -0.003 0.006 -0.002 0.005 -0.003 0.005 -0.003 0.005 -0.002 0.006 -0.003 0.005 -0.003 0.005 -0.002 0.005 -0.003 0.005 -0.003 0.005 -0.002 0.005 -0.003 0.005 -0.002 0.005 -0.003 0.005 -0.002 0.006 -0.003 0.004 -0.002 0.005 -0.003 0.005 -0.002 0.005 -0.003 0.005 -0.002 0.005 -0.003 0.005 -0.002 0.005 -0.003 0.005 -0.002 0.005 -0.003 0.005 -0.002 0.005 -0.003 0.004 -0.002 0.005 -0.003 0.005 -0.002 0.005 -0.003 0.005 -0.002 0.005 -0.003 0.005 -0.002 0.005 -0.003 0.005 -0.002 0.005 -0.003 0.005 -0.002 0.005 -0.003 0.005 -0.003 0.005 -0.002 0.005 -0.002 0.005 -0.003 0.006 -0.003 0.004 -0.002 0.006 -0.003 0.005 -0.003 0.005 -0.002 0.006 -0.003 0.005 -0.003 0.005 -0.002 0.006 -0.003 0.005 -0.003 0.005 -0.003 0.006 -0.002 0.005 -0.003 0.006 -0.003c1.281,-0.591 1.446,-0.562 1.809,0.157l3.209 6.348 0.257 0.51c0.356,0.703 0.199,0.914 -1.006,1.579 -0.068,0.05 -0.162,0.101 -0.26,0.15l-0.006 0.003 -0.005 0.003 -0.006 0.003 -0.005 0.003 -0.006 0.003 -0.006 0.002 -0.005 0.003 -0.006 0.003 -0.006 0.003 -0.005 0.003 -0.006 0.003 -2.245 1.135 0.552 1.093 14.791 -7.476z"/>
  <path class="fil4" d="M432.169 142.312c11.065,0 20.035,8.97 20.035,20.034l0 0.001c-4.924,-5.497 -12.075,-8.956 -20.035,-8.956 -7.96,0 -15.111,3.46 -20.034,8.957l0 -0.002c0,-11.064 8.969,-20.034 20.034,-20.034z"/>
 </g>
</svg>
