<?xml version="1.0" encoding="UTF-8"?>
<!DOCTYPE svg PUBLIC "-//W3C//DTD SVG 1.1//EN" "http://www.w3.org/Graphics/SVG/1.1/DTD/svg11.dtd">
<svg xml:space="preserve" viewBox="0 0 562 316" width="562px" height="316px" version="1.1" style="shape-rendering:geometricPrecision; fill-rule:evenodd; clip-rule:evenodd" xmlns="http://www.w3.org/2000/svg">
 <defs>
  <style type="text/css">
    .fil3 {fill:black;fill-opacity:0.05}
    .fil4 {fill:#707070}
    .fil1 {fill:url(#id0)}
    .fil2 {fill:url(#id1)}
    .fil0 {fill:url(#id2);fill-opacity:0.6}
  </style>
  <linearGradient id="id0" gradientUnits="userSpaceOnUse" x1="359.768" y1="151.275" x2="359.768" y2="120.283">
   <stop offset="0" style="stop-opacity:1; stop-color:#787878"/>
   <stop offset="0.5" style="stop-opacity:1; stop-color:#ABABAB"/>
   <stop offset="1" style="stop-opacity:1; stop-color:#D8D8D8"/>
  </linearGradient>
  <linearGradient id="id1" gradientUnits="userSpaceOnUse" x1="359.768" y1="149.385" x2="359.768" y2="122.172">
   <stop offset="0" style="stop-opacity:1; stop-color:gray"/>
   <stop offset="0.6" style="stop-opacity:1; stop-color:#B3B3B3"/>
   <stop offset="1" style="stop-opacity:1; stop-color:#C8C8C8"/>
  </linearGradient>
  <linearGradient id="id2" gradientUnits="userSpaceOnUse" x1="359.768" y1="153.165" x2="359.768" y2="118.393">
   <stop offset="0" style="stop-opacity:1; stop-color:#666666"/>
   <stop offset="0.5" style="stop-opacity:1; stop-color:#8C8C8C"/>
   <stop offset="1" style="stop-opacity:1; stop-color:#CCCCCC"/>
  </linearGradient>
 </defs>
 <g>
  <path class="fil0" d="M359.768 118.393c9.602,0 17.386,7.784 17.386,17.386 0,9.602 -7.784,17.386 -17.386,17.386 -9.602,0 -17.386,-7.784 -17.386,-17.386 0,-9.602 7.784,-17.386 17.386,-17.386z"/>
  <path class="fil1" d="M359.768 120.283c8.558,0 15.496,6.938 15.496,15.496 0,8.558 -6.938,15.496 -15.496,15.496 -8.558,0 -15.496,-6.938 -15.496,-15.496 0,-8.558 6.938,-15.496 15.496,-15.496z"/>
  <path class="fil2" d="M359.768 122.172c7.514,0 13.606,6.092 13.606,13.607 0,7.514 -6.092,13.606 -13.606,13.606 -7.515,0 -13.607,-6.092 -13.607,-13.606 0,-7.515 6.092,-13.607 13.607,-13.607z"/>
  <path class="fil3" d="M359.768 151.275c8.557,0 15.495,-6.937 15.495,-15.495l0 -0.001c-3.808,4.251 -9.339,6.927 -15.495,6.927 -6.157,0 -11.688,-2.676 -15.495,-6.928l0 0.002c0,8.558 6.937,15.495 15.495,15.495z"/>
  <path class="fil4" d="M353.446 145.144l7.01 -4.695 -0.48 -0.717 -0.96 0.642c-0.172,0.115 -0.371,0.235 -0.644,0.404 -0.327,0.19 -0.524,0.194 -0.544,0.037 -0.02,-0.114 0.012,-0.279 0.175,-0.587l1.907 -3.57 3.828 -0.271c0.19,-0.014 0.36,-0.014 0.537,-0.005 0.177,0.01 0.184,0.19 -0.051,0.433 -0.095,0.105 -0.27,0.25 -0.709,0.546l-1.418 0.95 0.48 0.717 8.266 -5.537 -0.48 -0.717c-0.213,0.143 -0.427,0.286 -0.64,0.429 -0.661,0.441 -0.836,0.494 -1.92,0.632 -0.105,0.014 -0.21,0.027 -0.315,0.04l-6.22 0.397 2.266 -4.262 0.365 -0.686c0.048,-0.083 0.093,-0.165 0.15,-0.243 0.262,-0.36 0.516,-0.571 1.198,-1.029l0.857 -0.575 -0.486 -0.726 -6.716 4.498 0.487 0.726 1.373 -0.92c0.064,-0.042 0.315,-0.217 0.476,-0.249 0.108,-0.023 0.15,0.019 0.122,0.12 -0.029,0.102 -0.113,0.272 -0.398,0.806l-1.496 2.804 -2.844 0.103c-0.473,0.018 -0.617,0.015 -0.708,0.005 -0.158,-0.022 -0.173,-0.129 -0.073,-0.236 0.082,-0.087 0.13,-0.144 0.465,-0.368 0.471,-0.315 0.942,-0.631 1.414,-0.947l-0.487 -0.726 -8.071 5.405 0.487 0.727 1.178 -0.789c0.404,-0.27 1.078,-0.393 1.546,-0.453 0.138,-0.006 0.269,-0.023 0.381,-0.027l5.315 -0.346 -2.814 5.185 -0.412 0.745c-0.241,0.424 -0.612,0.764 -1.013,1.034l-0.864 0.579 0.48 0.717z"/>
 </g>
</svg>


