<?xml version="1.0" encoding="UTF-8"?>
<!DOCTYPE svg PUBLIC "-//W3C//DTD SVG 1.1//EN" "http://www.w3.org/Graphics/SVG/1.1/DTD/svg11.dtd">
<svg xml:space="preserve" viewBox="0 0 1060 720" width="1060px" height="720px" version="1.1" style="shape-rendering:geometricPrecision; fill-rule:evenodd; clip-rule:evenodd" xmlns="http://www.w3.org/2000/svg">
 <defs>
  <style type="text/css">
    .fil6 {fill:#080808}
    .fil3 {fill:#181818}
    .fil0 {fill:#1A1A1A}
    .fil7 {fill:#4D4D4D}
    .fil9 {fill:#E6E6E6}
    .fil8 {fill:url(#id0)}
    .fil1 {fill:url(#id1)}
    .fil2 {fill:url(#id2)}
    .fil4 {fill:url(#id3)}
    .fil11 {fill:url(#id4)}
    .fil5 {fill:url(#id5)}
    .fil10 {fill:url(#id6)}
  </style>
  <linearGradient id="id0" gradientUnits="userSpaceOnUse" x1="274.494" y1="129.339" x2="321.092" y2="401.052">
   <stop offset="0" style="stop-opacity:1; stop-color:#181818"/>
   <stop offset="0.65" style="stop-opacity:1; stop-color:#242424"/>
   <stop offset="1" style="stop-opacity:1; stop-color:#303030"/>
  </linearGradient>
  <linearGradient id="id1" gradientUnits="userSpaceOnUse" x1="895.208" y1="215.561" x2="693.926" y2="-41.326">
   <stop offset="0" style="stop-opacity:1; stop-color:#181818"/>
   <stop offset="1" style="stop-opacity:1; stop-color:#282828"/>
  </linearGradient>
  <linearGradient id="id2" gradientUnits="userSpaceOnUse" x1="675.654" y1="219.199" x2="735.975" y2="278.186">
   <stop offset="0" style="stop-opacity:1; stop-color:#101010"/>
   <stop offset="1" style="stop-opacity:1; stop-color:#282828"/>
  </linearGradient>
  <linearGradient id="id3" gradientUnits="userSpaceOnUse" x1="466.716" y1="487.627" x2="64.15" y2="-26.147">
   <stop offset="0" style="stop-opacity:1; stop-color:#181818"/>
   <stop offset="1" style="stop-opacity:1; stop-color:#505050"/>
  </linearGradient>
  <linearGradient id="id4" gradientUnits="userSpaceOnUse" x1="487.503" y1="568.834" x2="572.498" y2="656.575">
   <stop offset="0" style="stop-opacity:1; stop-color:#F0BC5E"/>
   <stop offset="0.45" style="stop-opacity:1; stop-color:#F0BC5E"/>
   <stop offset="0.55" style="stop-opacity:1; stop-color:#9E782E"/>
   <stop offset="1" style="stop-opacity:1; stop-color:#9E782E"/>
  </linearGradient>
  <linearGradient id="id5" gradientUnits="userSpaceOnUse" x1="448.016" y1="119.596" x2="453.961" y2="89.005">
   <stop offset="0" style="stop-opacity:1; stop-color:#4D4D4D"/>
   <stop offset="1" style="stop-opacity:1; stop-color:#101010"/>
  </linearGradient>
  <linearGradient id="id6" gradientUnits="userSpaceOnUse" x1="592.854" y1="122.114" x2="590.679" y2="91.027">
   <stop offset="0" style="stop-opacity:1; stop-color:#333333"/>
   <stop offset="1" style="stop-opacity:1; stop-color:#101010"/>
  </linearGradient>
 </defs>
 <g>
  <polygon class="fil0" points="530,0.945 546.698,180.473 546.698,539.527 530,719.055 513.302,539.527 513.302,180.473 "/>
  <path class="fil1" d="M530 0.945l517.796 0c6.244,0 11.338,5.093 11.338,11.338l0 695.433c0,6.245 -5.094,11.339 -11.338,11.339l-517.796 0 0 -718.11z"/>
  <path class="fil2" d="M538.362 350.117c53.686,-109.865 141.09,-200.22 248.754,-257.594 30.699,-16.323 68.829,-4.65 85.153,26.05 16.323,30.699 4.678,68.837 -26.022,85.161 -84.265,44.899 -152.7,115.602 -194.72,201.577 -15.241,31.25 -52.93,44.227 -84.18,28.986 -31.249,-15.242 -44.226,-52.931 -28.985,-84.18z"/>
  <path class="fil3" d="M835.595 183.699c-88.482,47.146 -160.323,121.396 -204.445,211.673 -9.753,19.996 -33.868,28.299 -53.864,18.547 -19.995,-9.752 -28.298,-33.868 -18.546,-53.863 51.584,-105.563 135.58,-192.372 239.028,-247.499 19.643,-10.444 44.036,-2.982 54.48,16.661 10.444,19.642 2.99,44.037 -16.653,54.481z"/>
  <path class="fil4" d="M12.204 0.945l517.796 0 0 718.11 -517.796 0c-6.244,0 -11.338,-5.094 -11.338,-11.339l0 -695.433c0,-6.245 5.094,-11.338 11.338,-11.338z"/>
  <path class="fil5" d="M442.183 85.796c-9.416,-1.24 -18.055,5.389 -19.295,14.805 -1.24,9.416 5.389,18.055 14.805,19.294 13.116,1.727 26.231,3.454 39.346,5.18 9.416,1.24 18.055,-5.388 19.294,-14.805 1.24,-9.416 -5.389,-18.054 -14.805,-19.294 -13.115,-1.727 -26.23,-3.453 -39.345,-5.18z"/>
  <path class="fil6" d="M481.084 94.348c7.554,0.994 12.872,7.924 11.877,15.478 -0.994,7.554 -7.925,12.872 -15.478,11.877l-39.346 -5.18c-7.553,-0.994 -12.871,-7.924 -11.877,-15.478 0.995,-7.554 7.925,-12.872 15.479,-11.877l39.345 5.18z"/>
  <path class="fil7" d="M1046.315 1.042l-486.715 64.078c-20.639,2.717 -38.561,2.717 -59.2,0l-486.715 -64.078c-0.498,-0.065 -0.992,-0.097 -1.481,-0.097l1035.592 0c-0.489,0 -0.983,0.032 -1.481,0.097z"/>
  <ellipse class="fil8" cx="297.793" cy="265.195" rx="134.173" ry="137.953"/>
  <path class="fil9" d="M92.853 35.717l0 -9.429 -7.676 0 0 21.457 7.676 0 0 -9.489 12.21 9.489 9.852 0 -13.902 -10.698 13.902 -10.759 -9.852 0 -12.21 9.429zm-39.106 -9.429l0 21.457 7.555 0 0 -13.478 14.385 13.478 7.858 0 0 -21.457 -7.555 0 0 13.418 -14.386 -13.418 -7.857 0zm-31.37 6.891c0,3.807 2.538,6.89 5.681,6.89l15.775 0c0.363,0 0.726,0.363 0.726,0.846 0,0.484 -0.303,0.846 -0.726,0.846l-21.517 0 0 6.105 24.056 0c3.143,0 5.682,-3.143 5.682,-6.951 0,-3.808 -2.539,-6.951 -5.682,-6.951l-15.715 0c-0.363,0 -0.725,-0.362 -0.725,-0.846 0,-0.484 0.302,-0.846 0.725,-0.846l21.336 0 0 -5.984 -23.934 0c-3.143,0 -5.681,3.082 -5.681,6.891l-0.001 0z"/>
  <path class="fil9" d="M489.524 652.117l0.939 0 0 -3.05 1.802 0c1.62,0 2.678,-0.911 2.678,-2.359 0,-1.451 -1.016,-2.356 -2.637,-2.356l-2.782 0 0 7.765zm0.939 -3.882l0 -3.051 1.813 0c1.077,0 1.738,0.578 1.738,1.524 0,0.943 -0.661,1.527 -1.738,1.527l-1.813 0zm5.587 3.882l0.939 0 0 -3.05 1.868 0c0.027,0 0.046,0 0.073,0l1.634 3.05 1.093 0 -1.744 -3.201c1.015,-0.311 1.652,-1.097 1.652,-2.208 0,-1.451 -1.015,-2.356 -2.635,-2.356l-2.88 0 0 7.765zm0.939 -3.882l0 -3.051 1.909 0c1.077,0 1.738,0.578 1.738,1.524 0,0.943 -0.655,1.527 -1.728,1.527l-1.919 0zm9.033 4c2.056,0 3.525,-1.67 3.525,-3.995 0,-2.336 -1.469,-4.005 -3.525,-4.005 -2.057,0 -3.526,1.669 -3.526,4.005 0,2.325 1.469,3.995 3.526,3.995zm0 -0.875c-1.412,0 -2.587,-1.113 -2.587,-3.12 0,-2.018 1.175,-3.131 2.587,-3.131 1.406,0 2.586,1.113 2.586,3.131 0,2.007 -1.18,3.12 -2.586,3.12zm7.973 -2.827l-3.392 0 0 0.832 3.392 0 0 -0.832zm4.611 3.702c1.851,0 3.279,-1.353 3.279,-3.163l0 -0.837 -2.961 0 0 0.832 2.033 0c-0.009,1.362 -1.058,2.293 -2.351,2.293 -1.552,0 -2.61,-1.28 -2.61,-3.12 0,-1.851 1.058,-3.131 2.61,-3.131 1.142,0 2.043,0.717 2.283,1.759l0.948 0c-0.271,-1.551 -1.583,-2.633 -3.231,-2.633 -2.067,0 -3.548,1.658 -3.548,4.005 0,2.329 1.484,3.995 3.548,3.995zm4.542 -0.118l5.048 0 0 -0.832 -4.109 0 0 -2.73 3.806 0 0 -0.832 -3.806 0 0 -2.539 4.109 0 0 -0.832 -5.048 0 0 7.765zm5.524 0l0.978 0 0.782 -2.176 3.239 0 0.761 2.176 0.999 0 -2.832 -7.765 -1.063 0 -2.864 7.765zm2.057 -3.008l0.599 -1.669c0.197,-0.546 0.405,-1.171 0.739,-2.204 0.333,1.033 0.541,1.658 0.735,2.206l0.583 1.667 -2.656 0zm5.571 3.008l0.939 0 0 -3.05 1.868 0c0.027,0 0.046,0 0.073,0l1.634 3.05 1.093 0 -1.744 -3.201c1.015,-0.311 1.652,-1.097 1.652,-2.208 0,-1.451 -1.015,-2.356 -2.635,-2.356l-2.88 0 0 7.765zm0.939 -3.882l0 -3.051 1.909 0c1.078,0 1.739,0.578 1.739,1.524 0,0.943 -0.656,1.527 -1.728,1.527l-1.92 0zm11.037 4c1.686,0 2.812,-0.911 2.812,-2.256 0,-1.081 -0.71,-1.748 -2.219,-2.121l-0.88 -0.219c-1.122,-0.281 -1.552,-0.629 -1.552,-1.232 0,-0.77 0.711,-1.31 1.716,-1.31 1.05,0 1.731,0.586 1.788,1.554l0.928 0c-0.043,-1.486 -1.074,-2.414 -2.684,-2.414 -1.618,0 -2.676,0.881 -2.676,2.216 0,1.056 0.656,1.67 2.239,2.059l0.867 0.213c1.118,0.276 1.534,0.651 1.534,1.295 0,0.832 -0.743,1.361 -1.872,1.361 -1.244,0 -1.968,-0.659 -1.968,-1.767l-0.96 0c0,1.613 1.136,2.621 2.927,2.621zm3.989 -0.118l0.939 0 0 -3.05 1.802 0c1.62,0 2.678,-0.911 2.678,-2.359 0,-1.451 -1.016,-2.356 -2.637,-2.356l-2.782 0 0 7.765zm0.939 -3.882l0 -3.051 1.813 0c1.077,0 1.738,0.578 1.738,1.524 0,0.943 -0.661,1.527 -1.738,1.527l-1.813 0zm5.587 3.882l5.047 0 0 -0.832 -4.108 0 0 -2.73 3.806 0 0 -0.832 -3.806 0 0 -2.539 4.108 0 0 -0.832 -5.047 0 0 7.765zm9.473 0.118c1.626,0 2.916,-1.01 3.199,-2.622l-0.953 0c-0.267,1.123 -1.125,1.747 -2.246,1.747 -1.635,0 -2.65,-1.278 -2.65,-3.12 0,-1.852 1.015,-3.131 2.65,-3.131 1.131,0 1.99,0.63 2.24,1.759l0.959 0c-0.287,-1.618 -1.573,-2.633 -3.199,-2.633 -2.151,0 -3.589,1.658 -3.589,4.005 0,2.331 1.444,3.995 3.589,3.995zm-131.593 11.176l0.978 0 0.782 -2.176 3.239 0 0.761 2.176 0.999 0 -2.832 -7.766 -1.063 0 -2.864 7.766zm2.057 -3.009l0.599 -1.669c0.197,-0.545 0.405,-1.171 0.739,-2.204 0.333,1.033 0.541,1.659 0.735,2.206l0.583 1.667 -2.656 0zm7.969 3.009c2.37,0 3.725,-1.469 3.725,-3.899 0,-2.409 -1.355,-3.867 -3.62,-3.867l-2.503 0 0 7.766 2.398 0zm-1.459 -0.832l0 -6.102 1.502 0c1.826,0 2.743,1.158 2.743,3.035 0,1.898 -0.917,3.067 -2.848,3.067l-1.397 0zm8.261 0.832l1.063 0 2.832 -7.766 -0.978 0 -1.635 4.679c-0.157,0.454 -0.397,1.161 -0.734,2.224 -0.35,-1.063 -0.585,-1.77 -0.745,-2.224l-1.678 -4.679 -0.989 0 2.864 7.766zm3.063 0l0.978 0 0.782 -2.176 3.239 0 0.761 2.176 0.999 0 -2.832 -7.766 -1.063 0 -2.864 7.766zm2.057 -3.009l0.599 -1.669c0.197,-0.545 0.406,-1.171 0.74,-2.204 0.332,1.033 0.54,1.659 0.734,2.206l0.583 1.667 -2.656 0zm5.571 3.009l0.939 0 0 -4.503c0,-0.344 -0.011,-1.01 -0.048,-1.976 0.558,0.934 0.996,1.652 1.211,1.986l2.846 4.493 1.09 0 0 -7.766 -0.939 0 0 5.014c0,0.261 0.016,0.933 0.032,1.475 -0.313,-0.553 -0.667,-1.141 -0.85,-1.434l-3.201 -5.055 -1.08 0 0 7.766zm10.864 0.117c1.626,0 2.916,-1.01 3.199,-2.622l-0.953 0c-0.267,1.123 -1.125,1.747 -2.246,1.747 -1.635,0 -2.65,-1.278 -2.65,-3.12 0,-1.852 1.015,-3.13 2.65,-3.13 1.131,0 1.99,0.629 2.24,1.758l0.959 0c-0.287,-1.618 -1.573,-2.633 -3.199,-2.633 -2.151,0 -3.589,1.658 -3.589,4.005 0,2.331 1.444,3.995 3.589,3.995zm4.413 -0.117l5.047 0 0 -0.832 -4.108 0 0 -2.731 3.806 0 0 -0.832 -3.806 0 0 -2.539 4.108 0 0 -0.832 -5.047 0 0 7.766zm8.581 0c2.37,0 3.724,-1.469 3.724,-3.899 0,-2.409 -1.354,-3.867 -3.619,-3.867l-2.503 0 0 7.766 2.398 0zm-1.459 -0.832l0 -6.102 1.502 0c1.826,0 2.743,1.158 2.743,3.035 0,1.898 -0.917,3.067 -2.848,3.067l-1.397 0zm9.082 0.832l5.047 0 0 -0.832 -4.108 0 0 -2.731 3.806 0 0 -0.832 -3.806 0 0 -2.539 4.108 0 0 -0.832 -5.047 0 0 7.766zm6.183 0l0.939 0 0 -4.503c0,-0.344 -0.011,-1.01 -0.048,-1.976 0.558,0.934 0.996,1.652 1.211,1.986l2.846 4.493 1.09 0 0 -7.766 -0.939 0 0 5.014c0,0.261 0.016,0.933 0.032,1.475 -0.313,-0.553 -0.667,-1.141 -0.85,-1.434l-3.202 -5.055 -1.079 0 0 7.766zm7.071 -6.934l2.529 0 0 6.934 0.939 0 0 -6.934 2.521 0 0 -0.832 -5.989 0 0 0.832zm7.013 6.934l5.047 0 0 -0.832 -4.108 0 0 -2.731 3.806 0 0 -0.832 -3.806 0 0 -2.539 4.108 0 0 -0.832 -5.047 0 0 7.766zm6.183 0l0.939 0 0 -3.051 1.868 0c0.027,0 0.046,0 0.073,0l1.634 3.051 1.093 0 -1.744 -3.202c1.015,-0.311 1.652,-1.097 1.652,-2.208 0,-1.451 -1.016,-2.356 -2.635,-2.356l-2.88 0 0 7.766zm0.939 -3.883l0 -3.051 1.909 0c1.077,0 1.738,0.578 1.738,1.524 0,0.944 -0.655,1.527 -1.728,1.527l-1.919 0zm5.094 -3.051l2.53 0 0 6.934 0.939 0 0 -6.934 2.52 0 0 -0.832 -5.989 0 0 0.832zm5.312 6.934l0.978 0 0.782 -2.176 3.239 0 0.761 2.176 0.999 0 -2.832 -7.766 -1.063 0 -2.864 7.766zm2.057 -3.009l0.599 -1.669c0.197,-0.545 0.406,-1.171 0.74,-2.204 0.332,1.033 0.54,1.659 0.734,2.206l0.583 1.667 -2.656 0zm6.51 -4.757l-0.939 0 0 7.766 0.939 0 0 -7.766zm1.542 7.766l0.938 0 0 -4.503c0,-0.344 -0.011,-1.01 -0.048,-1.976 0.558,0.934 0.996,1.652 1.211,1.986l2.846 4.493 1.09 0 0 -7.766 -0.939 0 0 5.014c0,0.261 0.016,0.933 0.032,1.475 -0.313,-0.553 -0.666,-1.141 -0.85,-1.434l-3.201 -5.055 -1.079 0 0 7.766zm7.573 0l0.928 0 0 -4.503c0,-0.527 -0.011,-1.194 -0.032,-1.835 0.297,0.771 0.547,1.438 0.709,1.835l1.815 4.503 0.772 0 1.803 -4.503c0.167,-0.416 0.428,-1.126 0.725,-1.949 -0.016,0.677 -0.032,1.392 -0.032,1.949l0 4.503 0.917 0 0 -7.766 -1.276 0 -1.94 5.014c-0.135,0.359 -0.402,1.047 -0.569,1.516 -0.17,-0.469 -0.432,-1.157 -0.572,-1.516l-1.972 -5.014 -1.276 0 0 7.766zm9.146 0l5.048 0 0 -0.832 -4.109 0 0 -2.731 3.806 0 0 -0.832 -3.806 0 0 -2.539 4.109 0 0 -0.832 -5.048 0 0 7.766zm6.183 0l0.939 0 0 -4.503c0,-0.344 -0.011,-1.01 -0.048,-1.976 0.558,0.934 0.996,1.652 1.211,1.986l2.846 4.493 1.09 0 0 -7.766 -0.939 0 0 5.014c0,0.261 0.016,0.933 0.032,1.475 -0.313,-0.553 -0.667,-1.141 -0.85,-1.434l-3.202 -5.055 -1.079 0 0 7.766zm7.071 -6.934l2.529 0 0 6.934 0.939 0 0 -6.934 2.521 0 0 -0.832 -5.989 0 0 0.832zm12.244 7.051c1.686,0 2.812,-0.91 2.812,-2.256 0,-1.081 -0.71,-1.748 -2.219,-2.121l-0.88 -0.219c-1.122,-0.281 -1.552,-0.629 -1.552,-1.232 0,-0.769 0.711,-1.31 1.716,-1.31 1.05,0 1.731,0.587 1.788,1.554l0.928 0c-0.043,-1.486 -1.074,-2.414 -2.684,-2.414 -1.618,0 -2.676,0.882 -2.676,2.217 0,1.056 0.656,1.669 2.239,2.058l0.867 0.213c1.118,0.276 1.534,0.651 1.534,1.295 0,0.832 -0.743,1.362 -1.872,1.362 -1.244,0 -1.968,-0.66 -1.968,-1.768l-0.96 0c0,1.613 1.136,2.621 2.927,2.621zm6.175 -0.117l0.939 0 0 -3.201 2.853 -4.565 -1.077 0 -1.552 2.512c-0.234,0.386 -0.464,0.772 -0.688,1.152 -0.224,-0.38 -0.448,-0.766 -0.688,-1.152l-1.557 -2.512 -1.083 0 2.853 4.565 0 3.201zm7.231 0.117c1.687,0 2.812,-0.91 2.812,-2.256 0,-1.081 -0.709,-1.748 -2.218,-2.121l-0.881 -0.219c-1.121,-0.281 -1.551,-0.629 -1.551,-1.232 0,-0.769 0.711,-1.31 1.715,-1.31 1.051,0 1.731,0.587 1.789,1.554l0.927 0c-0.042,-1.486 -1.073,-2.414 -2.684,-2.414 -1.618,0 -2.675,0.882 -2.675,2.217 0,1.056 0.655,1.669 2.238,2.058l0.867 0.213c1.119,0.276 1.534,0.651 1.534,1.295 0,0.832 -0.743,1.362 -1.872,1.362 -1.244,0 -1.968,-0.66 -1.968,-1.768l-0.96 0c0,1.613 1.137,2.621 2.927,2.621zm3.33 -7.051l2.529 0 0 6.934 0.939 0 0 -6.934 2.521 0 0 -0.832 -5.989 0 0 0.832zm7.013 6.934l5.047 0 0 -0.832 -4.108 0 0 -2.731 3.806 0 0 -0.832 -3.806 0 0 -2.539 4.108 0 0 -0.832 -5.047 0 0 7.766zm6.183 0l0.928 0 0 -4.503c0,-0.527 -0.011,-1.194 -0.032,-1.835 0.297,0.771 0.547,1.438 0.709,1.835l1.815 4.503 0.772 0 1.803 -4.503c0.167,-0.416 0.428,-1.126 0.725,-1.949 -0.016,0.677 -0.032,1.392 -0.032,1.949l0 4.503 0.917 0 0 -7.766 -1.276 0 -1.94 5.014c-0.135,0.359 -0.402,1.047 -0.569,1.516 -0.17,-0.469 -0.432,-1.157 -0.572,-1.516l-1.972 -5.014 -1.276 0 0 7.766z"/>
  <path class="fil9" d="M494.07 640.824l1.65 0 0 -3.361c0,-0.511 -0.033,-1.444 -0.052,-2.335 0.23,0.907 0.466,1.835 0.611,2.335l1.024 3.361 1.367 0 1.004 -3.361c0.151,-0.521 0.39,-1.496 0.624,-2.44 -0.018,0.923 -0.056,1.908 -0.056,2.44l0 3.361 1.652 0 0 -7.765 -2.496 0 -0.894 3.049c-0.13,0.494 -0.342,1.349 -0.516,2.083 -0.173,-0.734 -0.389,-1.589 -0.525,-2.083l-0.902 -3.049 -2.491 0 0 7.765zm27.195 0.116c1.629,0 2.758,-0.978 2.758,-2.31 0,-0.926 -0.566,-1.722 -1.579,-1.852l0 -0.014c0.794,-0.146 1.37,-0.754 1.37,-1.662 0,-1.264 -1.059,-2.16 -2.546,-2.16 -1.613,0 -2.608,1.063 -2.608,2.476l1.581 0c0,-0.654 0.422,-1.09 1.027,-1.09 0.583,0 0.991,0.399 0.991,0.98 0,0.567 -0.428,0.908 -1.122,0.908l-0.646 0 0 1.312 0.646 0c0.736,0 1.219,0.384 1.219,0.976 0,0.605 -0.449,1.01 -1.106,1.01 -0.707,0 -1.132,-0.489 -1.132,-1.305l-1.593 0c0,1.461 0.876,2.731 2.74,2.731zm6.033 0c1.629,0 2.759,-0.978 2.759,-2.31 0,-0.926 -0.566,-1.722 -1.579,-1.852l0 -0.014c0.793,-0.146 1.369,-0.754 1.369,-1.662 0,-1.264 -1.059,-2.16 -2.546,-2.16 -1.612,0 -2.607,1.063 -2.607,2.476l1.58 0c0,-0.654 0.423,-1.09 1.027,-1.09 0.583,0 0.991,0.399 0.991,0.98 0,0.567 -0.427,0.908 -1.122,0.908l-0.646 0 0 1.312 0.646 0c0.737,0 1.22,0.384 1.22,0.976 0,0.605 -0.45,1.01 -1.106,1.01 -0.707,0 -1.133,-0.489 -1.133,-1.305l-1.593 0c0,1.461 0.876,2.731 2.74,2.731zm6.198 0c1.845,0 2.951,-1.526 2.951,-3.993 0,-2.473 -1.106,-4.004 -2.951,-4.004 -1.844,0 -2.951,1.531 -2.951,4.004 0,2.462 1.107,3.993 2.951,3.993zm0 -1.469c-0.844,0 -1.361,-0.956 -1.361,-2.524 0,-1.573 0.517,-2.535 1.361,-2.535 0.847,0 1.367,0.962 1.367,2.535 0,1.568 -0.52,2.524 -1.367,2.524zm5.559 1.353l1.651 0 0 -3.361c0,-0.511 -0.033,-1.444 -0.053,-2.335 0.231,0.907 0.466,1.835 0.612,2.335l1.023 3.361 1.367 0 1.005 -3.361c0.15,-0.521 0.39,-1.496 0.623,-2.44 -0.017,0.923 -0.056,1.908 -0.056,2.44l0 3.361 1.652 0 0 -7.765 -2.496 0 -0.893 3.049c-0.131,0.494 -0.343,1.349 -0.517,2.083 -0.173,-0.734 -0.389,-1.589 -0.524,-2.083l-0.903 -3.049 -2.491 0 0 7.765zm-36.695 0l1.834 0 0.425 -1.493 2.48 0 0.413 1.493 1.885 0 -2.414 -7.765 -2.223 0 -2.4 7.765zm2.682 -2.954l0.126 -0.454c0.245,-0.865 0.469,-1.717 0.709,-2.672 0.233,0.955 0.459,1.807 0.688,2.672l0.126 0.454 -1.649 0zm4.411 2.954l1.902 0 0.909 -1.497c0.211,-0.343 0.408,-0.682 0.605,-1.025 0.196,0.343 0.391,0.682 0.588,1.025l0.877 1.497 1.953 0 -2.463 -4.023 2.223 -3.742 -1.854 0 -0.678 1.173c-0.216,0.37 -0.422,0.745 -0.629,1.115 -0.197,-0.37 -0.398,-0.745 -0.608,-1.115l-0.67 -1.173 -1.906 0 2.262 3.794 -2.511 3.971zm38.326 0l5.203 0 0 -1.589 -3.516 0 0 -1.536 3.249 0 0 -1.547 -3.249 0 0 -1.504 3.516 0 0 -1.589 -5.203 0 0 7.765zm9.109 0.117c1.87,0 3.16,-1.324 3.16,-3.288l0 -1.053 -3.044 0 0 1.376 1.392 0c-0.012,0.798 -0.571,1.334 -1.457,1.334 -1.103,0 -1.731,-0.872 -1.731,-2.36 0,-1.496 0.624,-2.376 1.712,-2.376 0.755,0 1.233,0.437 1.36,1.125l1.715 0c-0.154,-1.65 -1.49,-2.757 -3.136,-2.757 -1.899,0 -3.347,1.47 -3.347,4.008 0,2.418 1.346,3.991 3.376,3.991zm3.147 -0.117l1.834 0 0.425 -1.493 2.48 0 0.413 1.493 1.884 0 -2.414 -7.765 -2.222 0 -2.4 7.765zm2.681 -2.954l0.127 -0.454c0.245,-0.865 0.468,-1.717 0.709,-2.672 0.233,0.955 0.459,1.807 0.688,2.672l0.126 0.454 -1.65 0z"/>
  <circle class="fil6" cx="595.026" cy="377.754" r="46.866"/>
  <circle class="fil6" cx="652.231" cy="286.207" r="46.866"/>
  <circle class="fil6" cx="727.22" cy="208.554" r="46.866"/>
  <circle class="fil6" cx="816.714" cy="148.189" r="46.866"/>
  <path class="fil10" d="M578.472 90.976c-9.416,1.239 -16.045,9.878 -14.805,19.294 1.239,9.416 9.878,16.045 19.294,14.805 13.115,-1.727 26.23,-3.453 39.346,-5.18 9.416,-1.24 16.045,-9.878 14.805,-19.295 -1.24,-9.416 -9.879,-16.044 -19.295,-14.804 -13.115,1.726 -26.23,3.453 -39.345,5.18z"/>
  <path class="fil6" d="M618.261 89.168c7.554,-0.995 14.484,4.323 15.479,11.877 0.994,7.554 -4.324,14.483 -11.877,15.478l-39.346 5.18c-7.553,0.995 -14.484,-4.323 -15.478,-11.877 -0.995,-7.554 4.323,-14.484 11.877,-15.478l39.345 -5.18z"/>
  <path class="fil11" d="M551.455 615.691l0.684 0c0.639,0 1.733,0.132 2.183,0.396 0.451,0.262 0.747,0.556 0.89,0.881 0.144,0.326 0.217,1.043 0.217,2.151l0 4.351c0,1.313 -1.387,1.982 -2.056,2.127 -0.671,0.145 -1.323,0.217 -1.959,0.217 -1.832,0 -3.412,-0.476 -4.746,-1.429 -1.331,-0.955 -2.296,-2.446 -2.895,-4.481 -0.598,-2.031 -0.895,-4.393 -0.895,-7.09 0,-2.225 0.273,-4.395 0.819,-6.509 0.547,-2.115 1.478,-3.763 2.792,-4.946 1.314,-1.181 2.961,-1.772 4.938,-1.772 2.071,0 3.281,0.524 4.805,2.107 1.558,1.619 3.053,3.457 3.925,6.157l1.274 0 0 -9.912 -0.724 0c-0.262,0.793 -0.547,1.332 -0.859,1.617 -0.313,0.286 -0.652,0.428 -1.016,0.428 -0.234,0 -0.994,-0.258 -2.275,-0.774 -1.282,-0.517 -2.21,-0.83 -2.782,-0.941 -1.055,-0.22 -1.874,-0.331 -3.187,-0.331 -4.243,0 -7.766,1.458 -10.564,4.374 -2.799,2.919 -4.198,6.491 -4.198,10.719 0,2.364 0.455,4.499 1.366,6.407 0.716,1.478 1.709,2.807 2.978,3.99 1.269,1.182 2.735,2.136 4.393,2.862 1.659,0.725 3.746,1.088 6.258,1.088 1.966,0 3.861,-0.203 5.691,-0.609 1.83,-0.408 3.589,-1.01 5.284,-1.809l0 -5.846c0,-1.025 0.058,-1.67 0.175,-1.932 0.208,-0.499 0.503,-0.855 0.887,-1.07 0.383,-0.216 1.428,-0.356 2.403,-0.427l0 -0.957 -13.811 0 0 0.957 0.005 0.006zm31.749 7.573c-1.574,1.205 -3.669,1.807 -6.282,1.807l-1.489 0c-0.798,0 -1.375,-0.108 -1.733,-0.328 -0.357,-0.22 -0.602,-0.5 -0.732,-0.843 -0.13,-0.343 -0.196,-1.281 -0.196,-2.815l0 -7.853c1.342,0 2.914,0.175 3.619,0.526 0.704,0.349 1.323,1.033 1.855,2.049 0.534,1.016 0.883,2.137 1.049,3.73l1.132 0 0 -14.452 -1.132 0c-0.222,2.172 -0.733,3.629 -1.536,4.741 -0.801,1.113 -2.095,1.669 -3.878,1.669l-1.109 0 0 -9.694c-0.01,-1.684 1.492,-1.489 1.492,-1.489l1.755 0c2.122,0 3.568,0.124 4.339,0.371 1.322,0.411 2.345,1.057 3.069,1.933 0.724,0.879 1.284,2.325 1.685,4.342l0.949 0 0 -8.255 -23.612 0 0 1.131 0.745 0c0.907,0 1.623,0.192 2.144,0.575 0.372,0.26 0.627,0.631 0.764,1.111 0.068,0.287 0.103,1.061 0.103,2.323l0 17.463c0,1.398 -0.075,2.261 -0.227,2.592 -0.192,0.465 -0.467,0.794 -0.825,0.986 -0.495,0.289 -1.148,0.432 -1.959,0.432l-0.745 0 0 1.314 24.012 0 1.443 -8.881 -1.318 0c-0.688,2.472 -1.819,4.311 -3.394,5.515m0.012 0l0 0 0 0zm18.579 -24.999c-4.024,-0.166 -7.415,1.145 -10.169,3.936 -2.759,2.79 -4.135,6.278 -4.135,10.459 0,3.725 1.059,6.944 3.18,9.658 2.681,3.434 6.477,5.153 11.388,5.153 4.893,0 8.685,-1.801 11.368,-5.402 2.025,-2.712 3.038,-5.856 3.038,-9.43 0,-4.182 -1.358,-7.665 -4.073,-10.449 -2.716,-2.785 -6.246,-4.092 -10.592,-3.925m6.418 22.35c-0.657,1.945 -1.576,3.361 -2.757,4.246 -0.925,0.692 -2.079,1.038 -3.461,1.038 -2.053,0 -3.648,-0.803 -4.791,-2.409 -1.636,-2.297 -2.455,-5.846 -2.455,-10.65 0,-4.043 0.529,-7.142 1.589,-9.301 1.301,-2.63 3.199,-3.944 5.694,-3.944 1.355,0 2.552,0.381 3.591,1.142 1.039,0.761 1.894,2.066 2.566,3.914 0.67,1.848 1.006,4.632 1.006,8.357 0,3.128 -0.328,5.666 -0.987,7.61m0.005 -0.003l0 0 0 0zm-95.579 6.694c4.894,0 8.685,-1.801 11.368,-5.403 2.026,-2.713 3.039,-5.855 3.039,-9.43 0,-4.181 -1.359,-7.664 -4.073,-10.448 -2.716,-2.785 -6.246,-4.092 -10.593,-3.925 -4.024,-0.166 -7.415,1.145 -10.169,3.936 -2.758,2.789 -4.134,6.277 -4.134,10.458 0,3.725 1.059,6.945 3.18,9.659 2.68,3.433 6.476,5.152 11.387,5.152m-5.762 -23.916c1.301,-2.629 3.198,-3.944 5.694,-3.944 1.354,0 2.551,0.38 3.591,1.142 1.039,0.761 1.894,2.066 2.565,3.913 0.671,1.849 1.006,4.633 1.006,8.356 0,3.127 -0.328,5.665 -0.986,7.61 -0.656,1.945 -1.575,3.36 -2.756,4.247 -0.925,0.692 -2.079,1.038 -3.462,1.038 -2.052,0 -3.647,-0.803 -4.79,-2.408 -1.636,-2.298 -2.455,-5.846 -2.455,-10.651 0,-4.043 0.529,-7.142 1.589,-9.301m0.004 -0.002l0 0 0 0zm-8.424 14.134l-1.318 0c-0.688,2.471 -1.82,4.31 -3.394,5.514 -1.574,1.206 -3.669,1.808 -6.279,1.808l-1.49 0c-0.797,0 -1.373,-0.11 -1.732,-0.328 -0.357,-0.22 -0.602,-0.501 -0.733,-0.844 -0.13,-0.343 -0.196,-1.281 -0.196,-2.815l0 -7.852c1.342,0 2.914,0.175 3.62,0.526 0.704,0.349 1.324,1.032 1.855,2.048 0.533,1.016 0.882,2.138 1.048,3.73l1.133 0 0 -14.451 -1.133 0c-0.221,2.17 -0.733,3.628 -1.535,4.741 -0.801,1.112 -2.095,1.668 -3.878,1.668l-1.11 0 0 -9.694c-0.01,-1.684 1.494,-1.489 1.494,-1.489l1.753 0c2.123,0 3.57,0.124 4.341,0.371 1.323,0.411 2.346,1.056 3.069,1.933 0.724,0.879 1.285,2.326 1.685,4.342l0.949 0 0 -8.262 -23.612 0 0 1.138 0.744 0c0.907,0 1.623,0.192 2.146,0.575 0.37,0.26 0.625,0.631 0.762,1.111 0.069,0.287 0.104,1.061 0.104,2.322l0 17.464c0,1.397 -0.075,2.261 -0.227,2.589 -0.192,0.466 -0.469,0.795 -0.824,0.987 -0.496,0.288 -1.149,0.432 -1.961,0.432l-0.744 0 0 1.313 24.012 0 1.443 -8.88 0.008 0.003zm-45.319 7.548l-0.637 0c-0.914,0 -1.727,-0.28 -2.436,-0.842 -0.709,-0.561 -1.064,-1.642 -1.064,-3.245l0 -16.866 18.271 22.776 1.184 0.001 0 -23.23c0,-1.321 0.11,-1.704 0.328,-2.247 0.218,-0.544 0.523,-0.936 0.912,-1.177 0.389,-0.24 1.154,-0.436 2.29,-0.588l0 -1.182 -9.064 0 0 1.182c1.495,-0.027 2.561,0.358 3.194,1.156 0.463,0.591 0.695,1.177 0.695,2.857l0 12.166 -14.224 -17.361 -8.654 0 0 0.938c0.822,0.027 0.852,0.303 1.29,0.536l2.318 2.333 -0.003 18.705c0,1.479 -0.292,2.526 -0.876,3.142 -0.584,0.616 -1.619,0.931 -3.104,0.945l0 1.131 9.576 0 0 -1.131 0.004 0.001zm81.704 -12.37c0,1.856 -1.505,3.36 -3.36,3.36 -1.857,0 -3.36,-1.505 -3.36,-3.36 0,-1.856 1.505,-3.36 3.36,-3.36 1.856,0 3.36,1.505 3.36,3.36z"/>
  <path class="fil9" d="M438.871 134.388c1.894,0.249 3.17,-0.513 3.365,-1.992 0.151,-1.153 -0.487,-1.924 -2.083,-2.485l-0.717 -0.256c-0.916,-0.33 -1.263,-0.643 -1.2,-1.117 0.073,-0.561 0.677,-0.879 1.459,-0.776 0.825,0.108 1.309,0.627 1.27,1.361l1.486 0.195c0.158,-1.551 -0.819,-2.632 -2.589,-2.865 -1.747,-0.23 -3.039,0.557 -3.223,1.953 -0.144,1.097 0.5,1.899 1.976,2.428l0.786 0.281c0.947,0.34 1.311,0.682 1.246,1.176 -0.079,0.597 -0.712,0.907 -1.593,0.791 -0.985,-0.13 -1.513,-0.702 -1.422,-1.549l-1.53 -0.201c-0.22,1.669 0.801,2.797 2.769,3.056zm3.999 0.41l5.515 0.726 0.18 -1.364 -3.929 -0.518 0.245 -1.861 3.634 0.478 0.174 -1.321 -3.634 -0.478 0.235 -1.788 3.929 0.517 0.18 -1.364 -5.516 -0.726 -1.013 7.699zm6.428 0.846l5.081 0.669 0.18 -1.364 -3.496 -0.46 0.835 -6.335 -1.587 -0.209 -1.013 7.699zm5.887 0.775l5.515 0.726 0.179 -1.364 -3.929 -0.517 0.245 -1.862 3.635 0.479 0.174 -1.322 -3.634 -0.478 0.235 -1.788 3.929 0.518 0.179 -1.365 -5.515 -0.726 -1.013 7.699zm9.821 1.41c1.801,0.237 3.291,-0.695 3.759,-2.374l-1.602 -0.211c-0.314,0.874 -1.043,1.304 -1.952,1.185 -1.312,-0.173 -1.944,-1.27 -1.739,-2.83 0.207,-1.57 1.107,-2.464 2.413,-2.292 0.914,0.12 1.512,0.729 1.572,1.659l1.608 0.211c-0.017,-1.748 -1.214,-3.039 -3.015,-3.276 -2.117,-0.279 -3.852,1.037 -4.175,3.488 -0.32,2.436 1.02,4.162 3.131,4.44zm4.783 -5.932l2.334 0.308 -0.834 6.334 1.586 0.209 0.834 -6.334 2.329 0.306 0.179 -1.364 -6.248 -0.823 -0.18 1.364z"/>
  <path class="fil9" d="M591.522 138.211c1.893,-0.249 2.929,-1.316 2.734,-2.795 -0.152,-1.153 -0.968,-1.732 -2.655,-1.861l-0.759 -0.062c-0.97,-0.082 -1.385,-0.294 -1.448,-0.768 -0.074,-0.561 0.426,-1.025 1.209,-1.128 0.825,-0.109 1.427,0.267 1.579,0.986l1.486 -0.196c-0.25,-1.539 -1.473,-2.33 -3.242,-2.097 -1.747,0.23 -2.792,1.325 -2.608,2.721 0.144,1.096 0.974,1.704 2.537,1.834l0.832 0.068c1.002,0.083 1.442,0.319 1.507,0.813 0.079,0.597 -0.452,1.06 -1.333,1.176 -0.986,0.129 -1.643,-0.286 -1.775,-1.128l-1.53 0.202c0.219,1.669 1.497,2.494 3.466,2.235zm2.62 -6.906l2.333 -0.307 0.834 6.334 1.587 -0.208 -0.835 -6.335 2.329 -0.307 -0.18 -1.364 -6.248 0.823 0.18 1.364zm6.326 5.611l1.715 -0.225 0.335 -1.755 2.875 -0.378 0.759 1.61 1.761 -0.232 -3.714 -7.343 -2.045 0.269 -1.686 8.054zm2.311 -3.305l0.159 -0.83c0.144,-0.819 0.279,-1.634 0.432,-2.628 0.399,0.921 0.74,1.674 1.081,2.429l0.363 0.761 -2.035 0.268zm5.762 2.243l1.585 -0.209 -0.353 -2.688 1.397 -0.184c0.006,-0.001 0.011,-0.002 0.017,-0.002l1.721 2.508 1.702 -0.224 -1.935 -2.785c0.81,-0.512 1.22,-1.344 1.085,-2.365 -0.204,-1.551 -1.416,-2.384 -3.156,-2.155l-3.077 0.405 1.014 7.699zm1.063 -4.173l-0.317 -2.413 1.392 -0.183c0.845,-0.112 1.43,0.29 1.527,1.025 0.097,0.737 -0.365,1.276 -1.204,1.387l-1.398 0.184zm4.414 -2.993l2.334 -0.307 0.834 6.335 1.586 -0.209 -0.834 -6.335 2.328 -0.306 -0.179 -1.365 -6.248 0.823 0.179 1.364z"/>
  <path class="fil9" d="M498.348 351.636l1.6 0 0 -2.667 1.438 0c1.746,0 2.861,-0.976 2.861,-2.549 0,-1.573 -1.094,-2.55 -2.84,-2.55l-3.059 0 0 7.766zm1.6 -4l0 -2.432 1.354 0c0.85,0 1.377,0.467 1.377,1.216 0,0.748 -0.527,1.216 -1.377,1.216l-1.354 0zm3.715 4l1.73 0 0.562 -1.696 2.9 0 0.542 1.696 1.776 0 -2.724 -7.766 -2.062 0 -2.724 7.766zm2.724 -2.976l0.265 -0.802c0.251,-0.793 0.491,-1.584 0.771,-2.549 0.276,0.965 0.516,1.756 0.756,2.549l0.26 0.802 -2.052 0zm8.157 2.976c2.383,0 3.832,-1.49 3.832,-3.888 0,-2.388 -1.465,-3.878 -3.802,-3.878l-2.768 0 0 7.766 2.738 0zm-1.138 -1.344l0 -5.078 1.068 0c1.547,0 2.292,0.898 2.292,2.534 0,1.641 -0.736,2.544 -2.306,2.544l-1.054 0zm7.632 1.344l1.729 0 0.562 -1.696 2.9 0 0.542 1.696 1.776 0 -2.724 -7.766 -2.062 0 -2.723 7.766zm2.723 -2.976l0.265 -0.802c0.251,-0.793 0.491,-1.584 0.771,-2.549 0.276,0.965 0.516,1.756 0.756,2.549l0.26 0.802 -2.052 0z"/>
  <path class="fil9" d="M561.287 250.088l1.6 0 0 -2.667 1.438 0c1.746,0 2.861,-0.976 2.861,-2.549 0,-1.573 -1.094,-2.549 -2.84,-2.549l-3.059 0 0 7.765zm1.6 -4l0 -2.432 1.354 0c0.85,0 1.377,0.468 1.377,1.216 0,0.749 -0.527,1.216 -1.377,1.216l-1.354 0zm3.715 4l1.73 0 0.562 -1.696 2.9 0 0.542 1.696 1.776 0 -2.724 -7.765 -2.062 0 -2.724 7.765zm2.724 -2.976l0.265 -0.802c0.251,-0.793 0.491,-1.584 0.771,-2.549 0.276,0.965 0.516,1.756 0.756,2.549l0.26 0.802 -2.052 0zm8.157 2.976c2.383,0 3.832,-1.49 3.832,-3.888 0,-2.387 -1.465,-3.877 -3.802,-3.877l-2.768 0 0 7.765 2.738 0zm-1.138 -1.344l0 -5.077 1.068 0c1.547,0 2.292,0.898 2.292,2.533 0,1.641 -0.736,2.544 -2.306,2.544l-1.054 0zm8.165 1.344l3.289 0c1.765,0 2.716,-0.889 2.716,-2.187 0,-1.105 -0.727,-1.77 -1.673,-1.857l0 -0.011c0.85,-0.214 1.385,-0.813 1.385,-1.714 0,-1.196 -0.935,-1.996 -2.606,-1.996l-3.111 0 0 7.765zm1.568 -1.259l0 -2.069 1.522 0c0.808,0 1.283,0.405 1.283,1.052 0,0.647 -0.485,1.017 -1.308,1.017l-1.497 0zm0 -3.274l0 -1.973 1.424 0c0.704,0 1.136,0.382 1.136,0.988 0,0.602 -0.432,0.985 -1.136,0.985l-1.424 0z"/>
  <path class="fil9" d="M645.407 157.435l1.6 0 0 -2.667 1.439 0c1.745,0 2.86,-0.976 2.86,-2.549 0,-1.573 -1.094,-2.549 -2.839,-2.549l-3.06 0 0 7.765zm1.6 -4l0 -2.432 1.355 0c0.85,0 1.376,0.468 1.376,1.216 0,0.749 -0.526,1.216 -1.376,1.216l-1.355 0zm3.716 4l1.73 0 0.561 -1.696 2.9 0 0.542 1.696 1.776 0 -2.724 -7.765 -2.062 0 -2.723 7.765zm2.723 -2.976l0.265 -0.801c0.251,-0.793 0.491,-1.584 0.772,-2.55 0.275,0.966 0.515,1.757 0.755,2.55l0.26 0.801 -2.052 0zm8.157 2.976c2.384,0 3.833,-1.49 3.833,-3.888 0,-2.387 -1.465,-3.877 -3.803,-3.877l-2.768 0 0 7.765 2.738 0zm-1.138 -1.344l0 -5.077 1.068 0c1.547,0 2.292,0.898 2.292,2.533 0,1.641 -0.736,2.544 -2.306,2.544l-1.054 0zm11.603 1.46c1.817,0 3.172,-1.119 3.417,-2.845l-1.616 0c-0.197,0.909 -0.864,1.43 -1.781,1.43 -1.323,0 -2.093,-1.005 -2.093,-2.578 0,-1.584 0.775,-2.588 2.093,-2.588 0.923,0 1.595,0.526 1.776,1.44l1.621 0c-0.245,-1.732 -1.6,-2.856 -3.417,-2.856 -2.135,0 -3.683,1.531 -3.683,4.004 0,2.457 1.554,3.993 3.683,3.993z"/>
  <path class="fil9" d="M740.166 92.07l1.6 0 0 -2.667 1.439 0c1.746,0 2.86,-0.976 2.86,-2.549 0,-1.573 -1.093,-2.549 -2.839,-2.549l-3.06 0 0 7.765zm1.6 -4l0 -2.432 1.355 0c0.85,0 1.376,0.468 1.376,1.216 0,0.749 -0.526,1.216 -1.376,1.216l-1.355 0zm3.716 4l1.73 0 0.561 -1.696 2.9 0 0.542 1.696 1.776 0 -2.723 -7.765 -2.063 0 -2.723 7.765zm2.723 -2.976l0.265 -0.802c0.251,-0.792 0.491,-1.584 0.772,-2.549 0.275,0.965 0.515,1.757 0.755,2.549l0.26 0.802 -2.052 0zm8.157 2.976c2.384,0 3.833,-1.49 3.833,-3.888 0,-2.387 -1.465,-3.877 -3.803,-3.877l-2.768 0 0 7.765 2.738 0zm-1.138 -1.344l0 -5.077 1.069 0c1.546,0 2.291,0.898 2.291,2.533 0,1.641 -0.736,2.544 -2.305,2.544l-1.055 0zm10.903 1.344c2.384,0 3.833,-1.49 3.833,-3.888 0,-2.387 -1.465,-3.877 -3.803,-3.877l-2.768 0 0 7.765 2.738 0zm-1.138 -1.344l0 -5.077 1.069 0c1.546,0 2.291,0.898 2.291,2.533 0,1.641 -0.736,2.544 -2.305,2.544l-1.055 0z"/>
 </g>
</svg>
