<?xml version="1.0" encoding="UTF-8"?>
<!DOCTYPE svg PUBLIC "-//W3C//DTD SVG 1.1//EN" "http://www.w3.org/Graphics/SVG/1.1/DTD/svg11.dtd">
<svg xml:space="preserve" viewBox="0 0 1060 720" width="1060px" height="720px" version="1.1" style="shape-rendering:geometricPrecision; fill-rule:evenodd; clip-rule:evenodd" xmlns="http://www.w3.org/2000/svg">
 <defs>
  <style type="text/css">
    .fil1 {fill:none}
    .fil0 {fill:#080808}
    .fil4 {fill:black;fill-opacity:0.1}
    .fil3 {fill:white;fill-opacity:0.6}
    .fil2 {fill:url(#id0)}
  </style>
  <linearGradient id="id0" gradientUnits="userSpaceOnUse" x1="329.361" y1="165.09" x2="349.903" y2="281.592">
   <stop offset="0" style="stop-opacity:1; stop-color:#484848"/>
   <stop offset="0.4" style="stop-opacity:1; stop-color:#303030"/>
   <stop offset="1" style="stop-opacity:1; stop-color:#101010"/>
  </linearGradient>
 </defs>
 <g>
  <path class="fil0" d="M311.935 279.337c-7.81,7.809 -20.474,7.81 -28.284,0 -7.811,-7.81 -7.811,-20.474 0,-28.284l28.284 -28.285c7.811,-7.81 20.474,-7.81 28.285,0 7.81,7.811 7.81,20.474 -0.001,28.284l-28.284 28.285z"/>
  <circle class="fil1" transform="matrix(0.942806 0.942806 -0.942811 0.942811 297.793 265.195)" r="15"/>
  <circle class="fil2" cx="339.632" cy="223.341" r="59.149"/>
  <path class="fil3" d="M341.81 175.747c-0.936,-3.061 -7.617,-3.736 -14.923,-1.507 -7.305,2.23 -12.47,6.52 -11.534,9.582 0.935,3.061 7.616,3.736 14.922,1.507 7.306,-2.23 12.47,-6.519 11.535,-9.582z"/>
  <path class="fil4" d="M389.493 230.365c-13.157,19.344 -35.069,30.941 -58.484,30.941 -14.237,0 -28.146,-4.298 -39.897,-12.322 -2.435,-1.688 -4.797,-3.522 -7.034,-5.459 8.456,23.42 30.7,39.03 55.616,39.03 32.644,0 59.118,-26.459 59.118,-59.085 0,-3.326 -0.289,-6.666 -0.844,-9.941 -2.074,5.947 -4.935,11.63 -8.476,16.837l0.001 -0.001z"/>
 </g>
</svg>
