<?xml version="1.0" encoding="UTF-8"?>
<!DOCTYPE svg PUBLIC "-//W3C//DTD SVG 1.1//EN" "http://www.w3.org/Graphics/SVG/1.1/DTD/svg11.dtd">
<svg xml:space="preserve" viewBox="0 0 1060 720" width="1060px" height="720px" version="1.1" style="shape-rendering:geometricPrecision; fill-rule:evenodd; clip-rule:evenodd" xmlns="http://www.w3.org/2000/svg">
 <defs>
  <style type="text/css">
    .fil2 {fill:black;fill-opacity:0.1}
    .fil1 {fill:white;fill-opacity:0.6}
    .fil0 {fill:url(#id0)}
  </style>
  <linearGradient id="id0" gradientUnits="userSpaceOnUse" x1="287.522" y1="206.944" x2="308.064" y2="323.446">
   <stop offset="0" style="stop-opacity:1; stop-color:#484848"/>
   <stop offset="0.4" style="stop-opacity:1; stop-color:#303030"/>
   <stop offset="1" style="stop-opacity:1; stop-color:#101010"/>
  </linearGradient>
 </defs>
 <g>
  <circle class="fil0" cx="297.793" cy="265.195" r="59.149"/>
  <path class="fil1" d="M299.971 217.601c-0.936,-3.061 -7.617,-3.736 -14.923,-1.507 -7.305,2.23 -12.469,6.52 -11.534,9.582 0.935,3.061 7.616,3.736 14.922,1.507 7.306,-2.23 12.47,-6.52 11.535,-9.582z"/>
  <path class="fil2" d="M347.654 272.218c-13.156,19.345 -35.069,30.942 -58.484,30.942 -14.237,0 -28.146,-4.297 -39.897,-12.322 -2.435,-1.688 -4.797,-3.522 -7.034,-5.46 8.456,23.421 30.7,39.031 55.616,39.031 32.644,0 59.119,-26.459 59.119,-59.086 0,-3.325 -0.289,-6.665 -0.845,-9.94 -2.074,5.947 -4.935,11.631 -8.475,16.837l0 -0.002z"/>
 </g>
</svg>
