<?xml version="1.0" encoding="UTF-8"?>
<!DOCTYPE svg PUBLIC "-//W3C//DTD SVG 1.1//EN" "http://www.w3.org/Graphics/SVG/1.1/DTD/svg11.dtd">
<svg xml:space="preserve" viewBox="0 0 1060 720" width="1060px" height="720px" version="1.1" style="shape-rendering:geometricPrecision; fill-rule:evenodd; clip-rule:evenodd" xmlns="http://www.w3.org/2000/svg">
 <defs>
  <style type="text/css">
    .fil1 {fill:none}
    .fil0 {fill:#080808}
    .fil4 {fill:black;fill-opacity:0.1}
    .fil3 {fill:white;fill-opacity:0.6}
    .fil2 {fill:url(#id0)}
  </style>
  <linearGradient id="id0" gradientUnits="userSpaceOnUse" x1="245.711" y1="248.74" x2="266.253" y2="365.242">
   <stop offset="0" style="stop-opacity:1; stop-color:#484848"/>
   <stop offset="0.4" style="stop-opacity:1; stop-color:#303030"/>
   <stop offset="1" style="stop-opacity:1; stop-color:#101010"/>
  </linearGradient>
 </defs>
 <g>
  <path class="fil0" d="M283.651 251.054c7.81,-7.81 20.473,-7.811 28.284,-0.001 7.811,7.811 7.811,20.474 0,28.285l-28.284 28.284c-7.811,7.811 -20.474,7.811 -28.285,0 -7.81,-7.81 -7.81,-20.474 0.001,-28.284l28.284 -28.284z"/>
  <circle class="fil1" transform="matrix(-0.942806 -0.942806 0.942811 -0.942811 297.793 265.195)" r="15"/>
  <circle class="fil2" cx="255.982" cy="306.991" r="59.149"/>
  <path class="fil3" d="M258.16 259.398c-0.936,-3.062 -7.617,-3.737 -14.923,-1.507 -7.306,2.229 -12.47,6.519 -11.534,9.581 0.935,3.061 7.616,3.736 14.922,1.507 7.306,-2.23 12.47,-6.519 11.535,-9.581z"/>
  <path class="fil4" d="M305.843 314.015c-13.156,19.344 -35.069,30.941 -58.484,30.941 -14.237,0 -28.146,-4.297 -39.897,-12.322 -2.435,-1.688 -4.797,-3.522 -7.034,-5.459 8.456,23.42 30.7,39.03 55.615,39.03 32.645,0 59.119,-26.459 59.119,-59.085 0,-3.326 -0.288,-6.666 -0.844,-9.941 -2.074,5.948 -4.935,11.63 -8.476,16.837l0.001 -0.001z"/>
 </g>
</svg>
