<?xml version="1.0" encoding="UTF-8"?>
<!DOCTYPE svg PUBLIC "-//W3C//DTD SVG 1.1//EN" "http://www.w3.org/Graphics/SVG/1.1/DTD/svg11.dtd">
<svg xml:space="preserve" viewBox="0 0 1060 720" width="1060px" height="720px" version="1.1" style="shape-rendering:geometricPrecision; fill-rule:evenodd; clip-rule:evenodd" xmlns="http://www.w3.org/2000/svg">
 <defs>
  <style type="text/css">
    .fil1 {fill:white;fill-opacity:0.5}
    .fil2 {fill:white;fill-opacity:0.7}
    .fil0 {fill:url(#id0)}
  </style>
  <linearGradient id="id0" gradientUnits="userSpaceOnUse" x1="469.073" y1="101.725" x2="467.47" y2="113.904">
   <stop offset="0" style="stop-opacity:1; stop-color:red"/>
   <stop offset="1" style="stop-opacity:1; stop-color:#D00000"/>
  </linearGradient>
 </defs>
 <g>
  <path class="fil0" d="M438.335 115.024c-6.726,-0.886 -11.461,-7.056 -10.575,-13.783 0.885,-6.725 7.055,-11.46 13.781,-10.574 13.116,1.727 26.231,3.453 39.346,5.18 6.726,0.886 11.461,7.055 10.575,13.781 -0.886,6.726 -7.056,11.461 -13.782,10.576 -13.115,-1.727 -26.23,-3.454 -39.345,-5.18z"/>
  <path class="fil1" d="M440.308 100.913c-1.601,-0.21 -2.729,-1.68 -2.518,-3.282 0.211,-1.601 1.68,-2.729 3.281,-2.518l9.336 1.229 20.448 2.692 9.335 1.229c1.602,0.211 2.729,1.68 2.518,3.282 -0.211,1.601 -1.681,2.729 -3.282,2.519l-9.335 -1.229 -29.783 -3.922z"/>
  <path class="fil2" d="M440.492 99.506c-0.822,-0.109 -1.404,-0.865 -1.295,-1.689 0.108,-0.824 0.864,-1.405 1.688,-1.296 13.04,1.717 26.08,3.434 39.121,5.15 0.824,0.109 1.404,0.865 1.295,1.689 -0.108,0.824 -0.866,1.404 -1.688,1.296 -13.04,-1.717 -26.081,-3.434 -39.121,-5.15z"/>
 </g>
</svg>
