<?xml version="1.0" encoding="UTF-8"?>
<!DOCTYPE svg PUBLIC "-//W3C//DTD SVG 1.1//EN" "http://www.w3.org/Graphics/SVG/1.1/DTD/svg11.dtd">
<svg xml:space="preserve" viewBox="0 0 1060 720" width="1060px" height="720px" version="1.1" style="shape-rendering:geometricPrecision; fill-rule:evenodd; clip-rule:evenodd" xmlns="http://www.w3.org/2000/svg">
 <defs>
  <style type="text/css">
    .fil1 {fill:white;fill-opacity:0.5}
    .fil2 {fill:white;fill-opacity:0.7}
    .fil0 {fill:url(#id0)}
  </style>
  <linearGradient id="id0" gradientUnits="userSpaceOnUse" x1="608.568" y1="99.403" x2="610.172" y2="111.581">
   <stop offset="0" style="stop-opacity:1; stop-color:red"/>
   <stop offset="1" style="stop-opacity:1; stop-color:#D00000"/>
  </linearGradient>
 </defs>
 <g>
  <path class="fil0" d="M582.32 120.204c-6.726,0.885 -12.896,-3.85 -13.782,-10.576 -0.886,-6.726 3.849,-12.895 10.575,-13.781 13.115,-1.727 26.23,-3.453 39.346,-5.18 6.726,-0.886 12.896,3.849 13.781,10.574 0.886,6.727 -3.849,12.897 -10.575,13.783 -13.115,1.726 -26.23,3.453 -39.345,5.18z"/>
  <path class="fil1" d="M580.574 106.064c-1.601,0.21 -3.071,-0.918 -3.282,-2.519 -0.211,-1.602 0.916,-3.071 2.518,-3.282l9.335 -1.229 20.448 -2.692 9.336 -1.229c1.601,-0.211 3.07,0.917 3.281,2.518 0.211,1.602 -0.917,3.072 -2.518,3.282l-9.335 1.23 -29.783 3.921z"/>
  <path class="fil2" d="M580.387 104.656c-0.822,0.108 -1.58,-0.472 -1.688,-1.296 -0.109,-0.824 0.471,-1.58 1.295,-1.689 13.041,-1.716 26.081,-3.433 39.121,-5.15 0.824,-0.109 1.58,0.472 1.688,1.296 0.109,0.824 -0.473,1.58 -1.295,1.689 -13.04,1.716 -26.081,3.433 -39.121,5.15z"/>
 </g>
</svg>
