<?xml version="1.0" encoding="UTF-8"?>
<!DOCTYPE svg PUBLIC "-//W3C//DTD SVG 1.1//EN" "http://www.w3.org/Graphics/SVG/1.1/DTD/svg11.dtd">
<svg xml:space="preserve" viewBox="0 0 1058 718" width="1058px" height="718px" version="1.1" style="shape-rendering:geometricPrecision; fill-rule:evenodd; clip-rule:evenodd" xmlns="http://www.w3.org/2000/svg" xmlns:xlink="http://www.w3.org/1999/xlink">
 <defs>
  <style type="text/css">
    .fil6 {fill:#080808}
    .fil3 {fill:#181818}
    .fil0 {fill:#1A1A1A}
    .fil7 {fill:#4D4D4D}
    .fil9 {fill:#E6E6E6}
    .fil21 {fill:white;fill-opacity:0.0785}
    .fil22 {fill:black;fill-opacity:0.1}
    .fil17 {fill:white;fill-opacity:0.5}
    .fil18 {fill:white;fill-opacity:0.7}
    .fil8 {fill:url(#id0)}
    .fil4 {fill:url(#id1)}
    .fil1 {fill:url(#id2)}
    .fil2 {fill:url(#id3)}
    .fil20 {fill:url(#id4)}
    .fil15 {fill:url(#id5)}
    .fil11 {fill:url(#id6)}
    .fil14 {fill:url(#id7)}
    .fil13 {fill:url(#id8)}
    .fil5 {fill:url(#id9)}
    .fil10 {fill:url(#id10)}
    .fil19 {fill:url(#id11)}
    .fil16 {fill:url(#id12)}
    .fil12 {fill:url(#id13);fill-opacity:0.5}
  </style>
  <linearGradient id="id0" gradientUnits="objectBoundingBox" x1="41.3176%" y1="0.759612%" x2="58.6824%" y2="99.2404%">
   <stop offset="0" style="stop-opacity:1; stop-color:#101010"/>
   <stop offset="0.65" style="stop-opacity:1; stop-color:#202020"/>
   <stop offset="1" style="stop-opacity:1; stop-color:#303030"/>
  </linearGradient>
  <linearGradient id="id1" gradientUnits="userSpaceOnUse" x1="464.866" y1="487.503" x2="62.402" y2="-26.14">
   <stop offset="0" style="stop-opacity:1; stop-color:#101010"/>
   <stop offset="1" style="stop-opacity:1; stop-color:#505050"/>
  </linearGradient>
  <linearGradient id="id2" gradientUnits="userSpaceOnUse" x1="893.25" y1="215.507" x2="692.018" y2="-41.315">
   <stop offset="0" style="stop-opacity:1; stop-color:#101010"/>
   <stop offset="1" style="stop-opacity:1; stop-color:#202020"/>
  </linearGradient>
  <linearGradient id="id3" gradientUnits="userSpaceOnUse" x1="673.751" y1="219.144" x2="734.057" y2="278.116">
   <stop offset="0" style="stop-opacity:1; stop-color:#101010"/>
   <stop offset="1" style="stop-opacity:1; stop-color:#282828"/>
  </linearGradient>
  <linearGradient id="id4" gradientUnits="userSpaceOnUse" x1="285.717" y1="206.892" x2="306.254" y2="323.364">
   <stop offset="0" style="stop-opacity:1; stop-color:#484848"/>
   <stop offset="0.4" style="stop-opacity:1; stop-color:#303030"/>
   <stop offset="1" style="stop-opacity:1; stop-color:#101010"/>
  </linearGradient>
  <linearGradient id="id5" gradientUnits="objectBoundingBox" x1="41.3178%" y1="0.75983%" x2="58.6825%" y2="99.2405%">
   <stop offset="0" style="stop-opacity:1; stop-color:#383838"/>
   <stop offset="0.4" style="stop-opacity:1; stop-color:#202020"/>
   <stop offset="1" style="stop-opacity:1; stop-color:#101010"/>
  </linearGradient>
  <linearGradient id="id6" gradientUnits="userSpaceOnUse" x1="526.434" y1="610.795" x2="529.834" y2="614.304">
   <stop offset="0" style="stop-opacity:1; stop-color:#F6B83E"/>
   <stop offset="1" style="stop-opacity:1; stop-color:#A47A28"/>
  </linearGradient>
  <linearGradient id="id7" gradientUnits="objectBoundingBox" xlink:href="#id5" x1="41.3178%" y1="0.75983%" x2="58.6825%" y2="99.2405%">
  </linearGradient>
  <linearGradient id="id8" gradientUnits="objectBoundingBox" x1="42.186%" y1="5.68386%" x2="57.8143%" y2="94.3165%">
   <stop offset="0" style="stop-opacity:1; stop-color:#484848"/>
   <stop offset="0.5" style="stop-opacity:1; stop-color:#202020"/>
   <stop offset="1" style="stop-opacity:1; stop-color:#101010"/>
  </linearGradient>
  <linearGradient id="id9" gradientUnits="userSpaceOnUse" x1="446.171" y1="119.566" x2="452.114" y2="88.983">
   <stop offset="0" style="stop-opacity:1; stop-color:#4D4D4D"/>
   <stop offset="1" style="stop-opacity:1; stop-color:#101010"/>
  </linearGradient>
  <linearGradient id="id10" gradientUnits="userSpaceOnUse" x1="590.972" y1="122.083" x2="588.798" y2="91.004">
   <stop offset="0" style="stop-opacity:1; stop-color:#333333"/>
   <stop offset="1" style="stop-opacity:1; stop-color:#101010"/>
  </linearGradient>
  <linearGradient id="id11" gradientUnits="userSpaceOnUse" x1="606.682" y1="99.378" x2="608.285" y2="111.553">
   <stop offset="0" style="stop-opacity:1; stop-color:#484848"/>
   <stop offset="1" style="stop-opacity:1; stop-color:#1C1C1C"/>
  </linearGradient>
  <linearGradient id="id12" gradientUnits="userSpaceOnUse" xlink:href="#id11" x1="467.222" y1="101.7" x2="465.619" y2="113.875">
  </linearGradient>
  <linearGradient id="id13" gradientUnits="objectBoundingBox" x1="41.3178%" y1="0.759416%" x2="58.6825%" y2="99.2405%">
   <stop offset="0" style="stop-opacity:1; stop-color:#404040"/>
   <stop offset="0.4" style="stop-opacity:1; stop-color:#202020"/>
   <stop offset="1" style="stop-opacity:1; stop-color:#101010"/>
  </linearGradient>
 </defs>
 <g>
  <polygon class="fil0" points="528.134,0.945 544.828,180.428 544.828,539.39 528.134,718.873 511.44,539.39 511.44,180.428 "/>
  <path class="fil1" d="M528.134 0.945l517.664 0c6.244,0 11.336,5.092 11.336,11.335l0 695.258c0,6.243 -5.092,11.335 -11.336,11.335l-517.664 0 0 -717.928z"/>
  <path class="fil2" d="M536.494 350.029c53.672,-109.838 141.054,-200.169 248.69,-257.529 30.692,-16.319 68.813,-4.649 85.132,26.043 16.319,30.692 4.677,68.82 -26.015,85.139 -84.244,44.888 -152.661,115.573 -194.67,201.527 -15.238,31.241 -52.917,44.215 -84.159,28.978 -31.241,-15.238 -44.215,-52.917 -28.978,-84.158z"/>
  <path class="fil3" d="M833.651 183.653c-88.459,47.134 -160.282,121.365 -204.393,211.62 -9.75,19.99 -33.859,28.291 -53.85,18.541 -19.99,-9.749 -28.291,-33.859 -18.541,-53.849 51.57,-105.536 135.545,-192.323 238.967,-247.436 19.638,-10.441 44.025,-2.981 54.466,16.656 10.442,19.638 2.989,44.027 -16.649,54.468z"/>
  <path class="fil4" d="M10.47 0.945l517.664 0 0 717.928 -517.664 0c-6.244,0 -11.336,-5.092 -11.336,-11.335l0 -695.258c0,-6.243 5.092,-11.335 11.336,-11.335z"/>
  <path class="fil5" d="M440.339 85.775c-9.413,-1.24 -18.05,5.387 -19.29,14.801 -1.239,9.414 5.388,18.05 14.802,19.289 13.112,1.727 26.223,3.453 39.335,5.179 9.414,1.239 18.051,-5.387 19.29,-14.801 1.239,-9.414 -5.388,-18.05 -14.801,-19.29 -13.112,-1.726 -26.224,-3.452 -39.336,-5.178z"/>
  <path class="fil6" d="M479.231 94.324c7.552,0.995 12.868,7.923 11.874,15.475 -0.995,7.552 -7.923,12.868 -15.475,11.874l-39.335 -5.179c-7.552,-0.994 -12.869,-7.922 -11.875,-15.474 0.995,-7.552 7.923,-12.869 15.475,-11.874l39.336 5.178z"/>
  <path class="fil7" d="M1044.319 1.043l-486.593 64.061c-20.633,2.716 -38.551,2.716 -59.184,0l-486.593 -64.061c-0.497,-0.065 -0.991,-0.098 -1.479,-0.098l1035.328 0c-0.488,0 -0.982,0.033 -1.479,0.098z"/>
  <ellipse class="fil8" cx="295.986" cy="265.128" rx="134.139" ry="137.918"/>
  <path class="fil9" d="M91.098 35.709l0 -9.427 -7.674 0 0 21.452 7.674 0 0 -9.488 12.206 9.488 9.85 0 -13.898 -10.696 13.898 -10.756 -9.85 0 -12.206 9.427zm-39.097 -9.427l0 21.452 7.554 0 0 -13.476 14.381 13.476 7.856 0 0 -21.452 -7.553 0 0 13.415 -14.382 -13.415 -7.856 0zm-31.362 6.889c0,3.806 2.538,6.888 5.68,6.888l15.772 0c0.362,0 0.725,0.363 0.725,0.846 0,0.484 -0.303,0.846 -0.725,0.846l-21.512 0 0 6.103 24.05 0c3.142,0 5.68,-3.142 5.68,-6.949 0,-3.807 -2.538,-6.949 -5.68,-6.949l-15.711 0c-0.363,0 -0.725,-0.363 -0.725,-0.846 0,-0.484 0.302,-0.846 0.725,-0.846l21.33 0 0 -5.982 -23.928 0c-3.142,0 -5.68,3.081 -5.68,6.889l-0.001 0z"/>
  <path class="fil9" d="M487.668 651.952l0.939 0 0 -3.049 1.802 0c1.619,0 2.676,-0.91 2.676,-2.359 0,-1.45 -1.014,-2.355 -2.635,-2.355l-2.782 0 0 7.763zm0.939 -3.881l0 -3.05 1.812 0c1.078,0 1.738,0.577 1.738,1.523 0,0.944 -0.66,1.527 -1.738,1.527l-1.812 0zm5.586 3.881l0.938 0 0 -3.049 1.868 0c0.027,0 0.046,0 0.073,0l1.633 3.049 1.093 0 -1.743 -3.2c1.015,-0.311 1.651,-1.097 1.651,-2.208 0,-1.45 -1.015,-2.355 -2.634,-2.355l-2.879 0 0 7.763zm0.938 -3.881l0 -3.05 1.909 0c1.077,0 1.738,0.577 1.738,1.523 0,0.944 -0.656,1.527 -1.728,1.527l-1.919 0zm9.031 3.999c2.056,0 3.524,-1.669 3.524,-3.994 0,-2.335 -1.468,-4.004 -3.524,-4.004 -2.057,0 -3.525,1.669 -3.525,4.004 0,2.325 1.468,3.994 3.525,3.994zm0 -0.875c-1.412,0 -2.586,-1.112 -2.586,-3.119 0,-2.017 1.174,-3.13 2.586,-3.13 1.406,0 2.586,1.113 2.586,3.13 0,2.007 -1.18,3.119 -2.586,3.119zm7.971 -2.826l-3.391 0 0 0.832 3.391 0 0 -0.832zm4.61 3.701c1.85,0 3.278,-1.353 3.278,-3.162l0 -0.837 -2.96 0 0 0.832 2.032 0c-0.009,1.361 -1.058,2.292 -2.35,2.292 -1.551,0 -2.609,-1.279 -2.609,-3.119 0,-1.85 1.058,-3.13 2.609,-3.13 1.141,0 2.042,0.717 2.282,1.758l0.948 0c-0.271,-1.55 -1.582,-2.632 -3.23,-2.632 -2.067,0 -3.547,1.658 -3.547,4.004 0,2.328 1.484,3.994 3.547,3.994zm4.541 -0.118l5.046 0 0 -0.831 -4.107 0 0 -2.73 3.805 0 0 -0.832 -3.805 0 0 -2.538 4.107 0 0 -0.832 -5.046 0 0 7.763zm5.522 0l0.978 0 0.782 -2.175 3.238 0 0.761 2.175 0.998 0 -2.831 -7.763 -1.062 0 -2.864 7.763zm2.056 -3.007l0.599 -1.669c0.198,-0.545 0.406,-1.171 0.74,-2.204 0.332,1.033 0.54,1.659 0.734,2.206l0.583 1.667 -2.656 0zm5.57 3.007l0.939 0 0 -3.049 1.868 0c0.027,0 0.046,0 0.073,0l1.633 3.049 1.093 0 -1.743 -3.2c1.014,-0.311 1.651,-1.097 1.651,-2.208 0,-1.45 -1.015,-2.355 -2.634,-2.355l-2.88 0 0 7.763zm0.939 -3.881l0 -3.05 1.909 0c1.077,0 1.738,0.577 1.738,1.523 0,0.944 -0.656,1.527 -1.728,1.527l-1.919 0zm11.034 3.999c1.686,0 2.811,-0.91 2.811,-2.256 0,-1.08 -0.709,-1.747 -2.218,-2.12l-0.88 -0.219c-1.121,-0.281 -1.551,-0.629 -1.551,-1.231 0,-0.77 0.711,-1.31 1.715,-1.31 1.05,0 1.731,0.586 1.788,1.553l0.928 0c-0.043,-1.486 -1.074,-2.413 -2.684,-2.413 -1.617,0 -2.675,0.881 -2.675,2.216 0,1.056 0.656,1.669 2.238,2.058l0.867 0.213c1.118,0.276 1.534,0.651 1.534,1.294 0,0.832 -0.743,1.362 -1.872,1.362 -1.244,0 -1.967,-0.66 -1.967,-1.767l-0.96 0c0,1.612 1.136,2.62 2.926,2.62zm3.988 -0.118l0.939 0 0 -3.049 1.802 0c1.619,0 2.676,-0.91 2.676,-2.359 0,-1.45 -1.014,-2.355 -2.635,-2.355l-2.782 0 0 7.763zm0.939 -3.881l0 -3.05 1.812 0c1.078,0 1.738,0.577 1.738,1.523 0,0.944 -0.66,1.527 -1.738,1.527l-1.812 0zm5.586 3.881l5.046 0 0 -0.831 -4.108 0 0 -2.73 3.805 0 0 -0.832 -3.805 0 0 -2.538 4.108 0 0 -0.832 -5.046 0 0 7.763zm9.471 0.118c1.624,0 2.914,-1.01 3.197,-2.622l-0.953 0c-0.266,1.123 -1.124,1.747 -2.244,1.747 -1.635,0 -2.65,-1.278 -2.65,-3.119 0,-1.852 1.015,-3.13 2.65,-3.13 1.13,0 1.989,0.629 2.239,1.758l0.958 0c-0.286,-1.617 -1.573,-2.632 -3.197,-2.632 -2.151,0 -3.589,1.658 -3.589,4.004 0,2.33 1.443,3.994 3.589,3.994zm-131.56 11.173l0.977 0 0.782 -2.176 3.238 0 0.761 2.176 0.999 0 -2.832 -7.764 -1.062 0 -2.863 7.764zm2.056 -3.008l0.599 -1.668c0.197,-0.546 0.405,-1.172 0.739,-2.204 0.333,1.032 0.541,1.658 0.734,2.205l0.583 1.667 -2.655 0zm7.967 3.008c2.37,0 3.724,-1.468 3.724,-3.898 0,-2.408 -1.354,-3.866 -3.619,-3.866l-2.502 0 0 7.764 2.397 0zm-1.459 -0.832l0 -6.1 1.502 0c1.825,0 2.743,1.157 2.743,3.034 0,1.898 -0.918,3.066 -2.848,3.066l-1.397 0zm8.26 0.832l1.062 0 2.831 -7.764 -0.977 0 -1.635 4.678c-0.156,0.454 -0.396,1.161 -0.734,2.224 -0.35,-1.063 -0.585,-1.77 -0.745,-2.224l-1.678 -4.678 -0.988 0 2.864 7.764zm3.062 0l0.977 0 0.782 -2.176 3.239 0 0.76 2.176 0.999 0 -2.831 -7.764 -1.063 0 -2.863 7.764zm2.056 -3.008l0.599 -1.668c0.197,-0.546 0.405,-1.172 0.739,-2.204 0.333,1.032 0.541,1.658 0.735,2.205l0.582 1.667 -2.655 0zm5.57 3.008l0.939 0 0 -4.502c0,-0.343 -0.011,-1.01 -0.048,-1.975 0.557,0.933 0.995,1.652 1.21,1.986l2.845 4.491 1.09 0 0 -7.764 -0.939 0 0 5.013c0,0.261 0.016,0.933 0.032,1.475 -0.312,-0.553 -0.666,-1.141 -0.849,-1.435l-3.201 -5.053 -1.079 0 0 7.764zm10.861 0.117c1.625,0 2.915,-1.009 3.198,-2.621l-0.953 0c-0.266,1.123 -1.125,1.747 -2.245,1.747 -1.635,0 -2.65,-1.278 -2.65,-3.12 0,-1.851 1.015,-3.129 2.65,-3.129 1.131,0 1.989,0.629 2.24,1.757l0.958 0c-0.286,-1.617 -1.573,-2.632 -3.198,-2.632 -2.15,0 -3.588,1.658 -3.588,4.004 0,2.331 1.443,3.994 3.588,3.994zm4.412 -0.117l5.046 0 0 -0.832 -4.108 0 0 -2.73 3.805 0 0 -0.832 -3.805 0 0 -2.538 4.108 0 0 -0.832 -5.046 0 0 7.764zm8.579 0c2.369,0 3.723,-1.468 3.723,-3.898 0,-2.408 -1.354,-3.866 -3.618,-3.866l-2.503 0 0 7.764 2.398 0zm-1.459 -0.832l0 -6.1 1.501 0c1.826,0 2.743,1.157 2.743,3.034 0,1.898 -0.917,3.066 -2.847,3.066l-1.397 0zm9.08 0.832l5.046 0 0 -0.832 -4.107 0 0 -2.73 3.805 0 0 -0.832 -3.805 0 0 -2.538 4.107 0 0 -0.832 -5.046 0 0 7.764zm6.181 0l0.939 0 0 -4.502c0,-0.343 -0.011,-1.01 -0.048,-1.975 0.558,0.933 0.995,1.652 1.21,1.986l2.845 4.491 1.09 0 0 -7.764 -0.938 0 0 5.013c0,0.261 0.015,0.933 0.032,1.475 -0.313,-0.553 -0.667,-1.141 -0.85,-1.435l-3.201 -5.053 -1.079 0 0 7.764zm7.069 -6.932l2.529 0 0 6.932 0.938 0 0 -6.932 2.52 0 0 -0.832 -5.987 0 0 0.832zm7.011 6.932l5.046 0 0 -0.832 -4.107 0 0 -2.73 3.805 0 0 -0.832 -3.805 0 0 -2.538 4.107 0 0 -0.832 -5.046 0 0 7.764zm6.182 0l0.938 0 0 -3.05 1.868 0c0.027,0 0.046,0 0.073,0l1.634 3.05 1.092 0 -1.743 -3.201c1.015,-0.311 1.651,-1.097 1.651,-2.207 0,-1.451 -1.015,-2.356 -2.634,-2.356l-2.879 0 0 7.764zm0.938 -3.882l0 -3.05 1.909 0c1.077,0 1.738,0.578 1.738,1.524 0,0.943 -0.656,1.526 -1.728,1.526l-1.919 0zm5.094 -3.05l2.529 0 0 6.932 0.938 0 0 -6.932 2.52 0 0 -0.832 -5.987 0 0 0.832zm5.31 6.932l0.978 0 0.782 -2.176 3.238 0 0.761 2.176 0.998 0 -2.831 -7.764 -1.062 0 -2.864 7.764zm2.057 -3.008l0.598 -1.668c0.198,-0.546 0.406,-1.172 0.74,-2.204 0.332,1.032 0.54,1.658 0.734,2.205l0.583 1.667 -2.655 0zm6.508 -4.756l-0.938 0 0 7.764 0.938 0 0 -7.764zm1.541 7.764l0.939 0 0 -4.502c0,-0.343 -0.011,-1.01 -0.048,-1.975 0.557,0.933 0.995,1.652 1.21,1.986l2.845 4.491 1.09 0 0 -7.764 -0.939 0 0 5.013c0,0.261 0.016,0.933 0.032,1.475 -0.312,-0.553 -0.666,-1.141 -0.849,-1.435l-3.201 -5.053 -1.079 0 0 7.764zm7.572 0l0.927 0 0 -4.502c0,-0.526 -0.01,-1.193 -0.032,-1.834 0.297,0.771 0.548,1.438 0.709,1.834l1.815 4.502 0.771 0 1.803 -4.502c0.167,-0.416 0.428,-1.125 0.725,-1.948 -0.016,0.677 -0.032,1.391 -0.032,1.948l0 4.502 0.917 0 0 -7.764 -1.276 0 -1.939 5.013c-0.135,0.359 -0.402,1.046 -0.569,1.516 -0.17,-0.47 -0.432,-1.157 -0.572,-1.516l-1.971 -5.013 -1.276 0 0 7.764zm9.144 0l5.046 0 0 -0.832 -4.108 0 0 -2.73 3.805 0 0 -0.832 -3.805 0 0 -2.538 4.108 0 0 -0.832 -5.046 0 0 7.764zm6.181 0l0.939 0 0 -4.502c0,-0.343 -0.011,-1.01 -0.048,-1.975 0.557,0.933 0.995,1.652 1.21,1.986l2.845 4.491 1.09 0 0 -7.764 -0.939 0 0 5.013c0,0.261 0.016,0.933 0.032,1.475 -0.312,-0.553 -0.666,-1.141 -0.849,-1.435l-3.201 -5.053 -1.079 0 0 7.764zm7.069 -6.932l2.529 0 0 6.932 0.938 0 0 -6.932 2.52 0 0 -0.832 -5.987 0 0 0.832zm12.24 7.049c1.687,0 2.812,-0.91 2.812,-2.255 0,-1.081 -0.709,-1.747 -2.218,-2.121l-0.88 -0.218c-1.122,-0.281 -1.552,-0.63 -1.552,-1.232 0,-0.77 0.712,-1.31 1.716,-1.31 1.05,0 1.73,0.587 1.788,1.553l0.927 0c-0.043,-1.485 -1.073,-2.413 -2.683,-2.413 -1.618,0 -2.675,0.882 -2.675,2.216 0,1.056 0.655,1.669 2.237,2.058l0.868 0.214c1.118,0.275 1.533,0.65 1.533,1.294 0,0.831 -0.742,1.361 -1.871,1.361 -1.244,0 -1.968,-0.659 -1.968,-1.767l-0.959 0c0,1.612 1.135,2.62 2.925,2.62zm6.175 -0.117l0.938 0 0 -3.199 2.853 -4.565 -1.077 0 -1.552 2.512c-0.234,0.385 -0.464,0.771 -0.688,1.152 -0.224,-0.381 -0.448,-0.767 -0.688,-1.152l-1.556 -2.512 -1.083 0 2.853 4.565 0 3.199zm7.228 0.117c1.687,0 2.812,-0.91 2.812,-2.255 0,-1.081 -0.709,-1.747 -2.218,-2.121l-0.88 -0.218c-1.122,-0.281 -1.552,-0.63 -1.552,-1.232 0,-0.77 0.712,-1.31 1.716,-1.31 1.05,0 1.73,0.587 1.788,1.553l0.927 0c-0.043,-1.485 -1.073,-2.413 -2.683,-2.413 -1.618,0 -2.675,0.882 -2.675,2.216 0,1.056 0.655,1.669 2.237,2.058l0.868 0.214c1.118,0.275 1.533,0.65 1.533,1.294 0,0.831 -0.743,1.361 -1.871,1.361 -1.244,0 -1.968,-0.659 -1.968,-1.767l-0.959 0c0,1.612 1.135,2.62 2.925,2.62zm3.329 -7.049l2.529 0 0 6.932 0.939 0 0 -6.932 2.52 0 0 -0.832 -5.988 0 0 0.832zm7.012 6.932l5.046 0 0 -0.832 -4.108 0 0 -2.73 3.805 0 0 -0.832 -3.805 0 0 -2.538 4.108 0 0 -0.832 -5.046 0 0 7.764zm6.181 0l0.928 0 0 -4.502c0,-0.526 -0.011,-1.193 -0.032,-1.834 0.297,0.771 0.547,1.438 0.709,1.834l1.815 4.502 0.771 0 1.802 -4.502c0.167,-0.416 0.428,-1.125 0.725,-1.948 -0.015,0.677 -0.032,1.391 -0.032,1.948l0 4.502 0.917 0 0 -7.764 -1.276 0 -1.939 5.013c-0.135,0.359 -0.401,1.046 -0.569,1.516 -0.17,-0.47 -0.431,-1.157 -0.572,-1.516l-1.971 -5.013 -1.276 0 0 7.764z"/>
  <path class="fil9" d="M492.213 640.662l1.65 0 0 -3.361c0,-0.51 -0.033,-1.443 -0.052,-2.333 0.23,0.906 0.465,1.834 0.611,2.333l1.023 3.361 1.366 0 1.005 -3.361c0.15,-0.52 0.39,-1.494 0.624,-2.438 -0.018,0.922 -0.057,1.907 -0.057,2.438l0 3.361 1.652 0 0 -7.763 -2.496 0 -0.893 3.048c-0.13,0.494 -0.342,1.349 -0.516,2.083 -0.173,-0.734 -0.389,-1.589 -0.525,-2.083l-0.902 -3.048 -2.49 0 0 7.763zm27.188 0.116c1.628,0 2.758,-0.978 2.758,-2.309 0,-0.926 -0.566,-1.722 -1.579,-1.852l0 -0.014c0.793,-0.146 1.369,-0.754 1.369,-1.662 0,-1.264 -1.059,-2.159 -2.545,-2.159 -1.612,0 -2.607,1.062 -2.607,2.476l1.58 0c0,-0.654 0.423,-1.09 1.027,-1.09 0.583,0 0.991,0.398 0.991,0.979 0,0.567 -0.428,0.909 -1.122,0.909l-0.646 0 0 1.311 0.646 0c0.736,0 1.219,0.384 1.219,0.976 0,0.604 -0.449,1.009 -1.105,1.009 -0.707,0 -1.133,-0.489 -1.133,-1.304l-1.593 0c0,1.46 0.877,2.73 2.74,2.73zm6.032 0c1.628,0 2.758,-0.978 2.758,-2.309 0,-0.926 -0.566,-1.722 -1.579,-1.852l0 -0.014c0.793,-0.146 1.369,-0.754 1.369,-1.662 0,-1.264 -1.059,-2.159 -2.545,-2.159 -1.612,0 -2.607,1.062 -2.607,2.476l1.58 0c0,-0.654 0.422,-1.09 1.027,-1.09 0.582,0 0.99,0.398 0.99,0.979 0,0.567 -0.427,0.909 -1.121,0.909l-0.646 0 0 1.311 0.646 0c0.736,0 1.219,0.384 1.219,0.976 0,0.604 -0.449,1.009 -1.105,1.009 -0.708,0 -1.133,-0.489 -1.133,-1.304l-1.593 0c0,1.46 0.876,2.73 2.74,2.73zm6.197 0c1.844,0 2.949,-1.525 2.949,-3.992 0,-2.472 -1.105,-4.003 -2.949,-4.003 -1.844,0 -2.952,1.531 -2.952,4.003 0,2.461 1.108,3.992 2.952,3.992zm0 -1.468c-0.845,0 -1.362,-0.957 -1.362,-2.524 0,-1.573 0.517,-2.535 1.362,-2.535 0.846,0 1.366,0.962 1.366,2.535 0,1.567 -0.52,2.524 -1.366,2.524zm5.556 1.352l1.651 0 0 -3.361c0,-0.51 -0.033,-1.443 -0.053,-2.333 0.231,0.906 0.466,1.834 0.612,2.333l1.023 3.361 1.366 0 1.005 -3.361c0.15,-0.52 0.39,-1.494 0.623,-2.438 -0.017,0.922 -0.056,1.907 -0.056,2.438l0 3.361 1.651 0 0 -7.763 -2.495 0 -0.893 3.048c-0.131,0.494 -0.342,1.349 -0.516,2.083 -0.173,-0.734 -0.389,-1.589 -0.525,-2.083l-0.902 -3.048 -2.491 0 0 7.763zm-36.685 0l1.833 0 0.426 -1.493 2.479 0 0.413 1.493 1.884 0 -2.414 -7.763 -2.221 0 -2.4 7.763zm2.681 -2.954l0.126 -0.453c0.245,-0.865 0.469,-1.717 0.709,-2.671 0.233,0.954 0.459,1.806 0.688,2.671l0.126 0.453 -1.649 0zm4.41 2.954l1.902 0 0.908 -1.496c0.211,-0.343 0.408,-0.683 0.605,-1.026 0.197,0.343 0.392,0.683 0.589,1.026l0.876 1.496 1.953 0 -2.463 -4.022 2.223 -3.741 -1.854 0 -0.678 1.173c-0.216,0.37 -0.422,0.745 -0.629,1.115 -0.196,-0.37 -0.398,-0.745 -0.607,-1.115l-0.671 -1.173 -1.905 0 2.262 3.793 -2.511 3.97zm38.316 0l5.202 0 0 -1.589 -3.515 0 0 -1.535 3.248 0 0 -1.547 -3.248 0 0 -1.503 3.515 0 0 -1.589 -5.202 0 0 7.763zm9.107 0.117c1.87,0 3.159,-1.324 3.159,-3.288l0 -1.052 -3.043 0 0 1.376 1.392 0c-0.013,0.798 -0.571,1.333 -1.457,1.333 -1.102,0 -1.73,-0.871 -1.73,-2.359 0,-1.496 0.623,-2.376 1.711,-2.376 0.755,0 1.233,0.438 1.36,1.125l1.714 0c-0.153,-1.649 -1.489,-2.756 -3.135,-2.756 -1.898,0 -3.346,1.469 -3.346,4.007 0,2.418 1.345,3.99 3.375,3.99zm3.146 -0.117l1.833 0 0.426 -1.493 2.479 0 0.413 1.493 1.884 0 -2.414 -7.763 -2.221 0 -2.4 7.763zm2.681 -2.954l0.126 -0.453c0.245,-0.865 0.469,-1.717 0.709,-2.671 0.233,0.954 0.459,1.806 0.688,2.671l0.126 0.453 -1.649 0z"/>
  <circle class="fil6" cx="593.144" cy="377.658" r="46.854"/>
  <circle class="fil6" cx="650.334" cy="286.135" r="46.854"/>
  <circle class="fil6" cx="725.304" cy="208.502" r="46.854"/>
  <circle class="fil6" cx="814.775" cy="148.152" r="46.854"/>
  <path class="fil10" d="M576.593 90.953c-9.413,1.239 -16.04,9.876 -14.801,19.289 1.239,9.414 9.876,16.041 19.29,14.802 13.112,-1.727 26.223,-3.453 39.335,-5.179 9.414,-1.239 16.041,-9.876 14.802,-19.29 -1.24,-9.414 -9.877,-16.04 -19.29,-14.801 -13.112,1.726 -26.224,3.452 -39.336,5.179z"/>
  <path class="fil6" d="M616.373 89.146c7.552,-0.995 14.48,4.321 15.474,11.873 0.995,7.553 -4.322,14.481 -11.874,15.475l-39.335 5.178c-7.552,0.995 -14.48,-4.322 -15.475,-11.874 -0.994,-7.552 4.322,-14.48 11.874,-15.474l39.336 -5.178z"/>
  <path class="fil11" d="M549.583 615.535l0.685 0c0.638,0 1.732,0.132 2.182,0.396 0.45,0.262 0.747,0.556 0.89,0.881 0.144,0.326 0.216,1.043 0.216,2.151l0 4.349c0,1.313 -1.387,1.982 -2.055,2.127 -0.671,0.145 -1.323,0.217 -1.959,0.217 -1.831,0 -3.411,-0.476 -4.744,-1.429 -1.331,-0.954 -2.296,-2.445 -2.895,-4.479 -0.597,-2.031 -0.895,-4.392 -0.895,-7.089 0,-2.224 0.273,-4.394 0.82,-6.507 0.546,-2.115 1.477,-3.762 2.791,-4.945 1.313,-1.181 2.96,-1.772 4.937,-1.772 2.07,0 3.28,0.524 4.804,2.107 1.557,1.618 3.051,3.456 3.924,6.155l1.273 0 0 -9.91 -0.724 0c-0.262,0.794 -0.547,1.333 -0.859,1.618 -0.313,0.285 -0.652,0.427 -1.015,0.427 -0.234,0 -0.994,-0.258 -2.275,-0.774 -1.282,-0.516 -2.209,-0.83 -2.781,-0.94 -1.055,-0.22 -1.873,-0.331 -3.186,-0.331 -4.242,0 -7.764,1.458 -10.562,4.373 -2.798,2.918 -4.196,6.489 -4.196,10.716 0,2.363 0.454,4.498 1.365,6.405 0.716,1.478 1.709,2.807 2.977,3.99 1.269,1.181 2.735,2.135 4.392,2.861 1.659,0.724 3.745,1.087 6.256,1.087 1.966,0 3.861,-0.203 5.69,-0.609 1.829,-0.407 3.588,-1.01 5.283,-1.808l0 -5.845c0,-1.025 0.058,-1.669 0.175,-1.931 0.208,-0.499 0.503,-0.855 0.887,-1.07 0.382,-0.215 1.428,-0.356 2.403,-0.426l0 -0.957 -13.809 0 0 0.957 0.005 0.005zm31.742 7.571c-1.575,1.205 -3.668,1.807 -6.28,1.807l-1.49 0c-0.798,0 -1.374,-0.108 -1.732,-0.328 -0.357,-0.22 -0.602,-0.5 -0.732,-0.843 -0.13,-0.342 -0.196,-1.281 -0.196,-2.814l0 -7.851c1.341,0 2.913,0.175 3.618,0.526 0.704,0.349 1.323,1.032 1.854,2.048 0.534,1.016 0.883,2.137 1.049,3.729l1.132 0 0 -14.448 -1.132 0c-0.221,2.171 -0.732,3.628 -1.535,4.74 -0.801,1.113 -2.095,1.668 -3.877,1.668l-1.109 0.001 0 -9.692c-0.01,-1.684 1.492,-1.489 1.492,-1.489l1.754 0c2.122,0 3.567,0.124 4.338,0.371 1.322,0.411 2.344,1.056 3.068,1.933 0.724,0.879 1.284,2.324 1.685,4.34l0.949 0 0 -8.252 -23.606 0 0 1.13 0.745 0c0.906,0 1.622,0.192 2.143,0.575 0.372,0.26 0.627,0.631 0.763,1.111 0.069,0.286 0.104,1.061 0.104,2.322l0 17.459c0,1.397 -0.075,2.26 -0.227,2.591 -0.192,0.465 -0.467,0.794 -0.825,0.986 -0.495,0.289 -1.148,0.432 -1.958,0.432l-0.745 0 0 1.313 24.006 0 1.442 -8.878 -1.318 0c-0.687,2.471 -1.818,4.31 -3.393,5.514m0.013 -0.001l0 0 0 0zm18.574 -24.992c-4.023,-0.166 -7.414,1.145 -10.167,3.935 -2.758,2.789 -4.133,6.276 -4.133,10.456 0,3.724 1.059,6.943 3.179,9.656 2.68,3.433 6.475,5.151 11.384,5.151 4.893,0 8.683,-1.8 11.365,-5.4 2.025,-2.711 3.038,-5.855 3.038,-9.428 0,-4.181 -1.358,-7.663 -4.072,-10.446 -2.715,-2.784 -6.245,-4.092 -10.59,-3.925m6.417 22.345c-0.657,1.945 -1.576,3.36 -2.756,4.245 -0.925,0.692 -2.079,1.037 -3.461,1.037 -2.052,0 -3.646,-0.802 -4.789,-2.407 -1.635,-2.297 -2.455,-5.845 -2.455,-10.648 0,-4.042 0.53,-7.141 1.589,-9.299 1.301,-2.629 3.198,-3.943 5.692,-3.943 1.355,0 2.552,0.381 3.591,1.142 1.039,0.761 1.894,2.066 2.565,3.913 0.67,1.848 1.006,4.631 1.006,8.355 0,3.127 -0.329,5.664 -0.986,7.608m0.004 -0.003l0 0 0 0zm-95.555 6.692c4.893,0 8.684,-1.801 11.366,-5.401 2.024,-2.713 3.038,-5.854 3.038,-9.428 0,-4.18 -1.359,-7.662 -4.073,-10.446 -2.715,-2.783 -6.244,-4.091 -10.589,-3.924 -4.023,-0.166 -7.414,1.146 -10.167,3.936 -2.758,2.788 -4.133,6.275 -4.133,10.455 0,3.725 1.059,6.943 3.179,9.656 2.68,3.433 6.475,5.152 11.384,5.152m-5.76 -23.911c1.3,-2.628 3.197,-3.943 5.692,-3.943 1.354,0 2.551,0.381 3.59,1.142 1.039,0.761 1.894,2.066 2.565,3.912 0.671,1.848 1.006,4.632 1.006,8.354 0,3.126 -0.328,5.663 -0.986,7.608 -0.657,1.945 -1.575,3.36 -2.756,4.246 -0.924,0.692 -2.078,1.038 -3.46,1.038 -2.052,0 -3.647,-0.803 -4.79,-2.408 -1.635,-2.297 -2.454,-5.845 -2.454,-10.648 0,-4.042 0.529,-7.14 1.589,-9.299m0.004 -0.002l0 0 0 0zm-8.422 14.13l-1.318 0c-0.687,2.471 -1.819,4.31 -3.393,5.514 -1.574,1.205 -3.668,1.807 -6.277,1.807l-1.489 0c-0.798,0 -1.374,-0.11 -1.733,-0.328 -0.357,-0.22 -0.601,-0.501 -0.732,-0.843 -0.13,-0.343 -0.196,-1.281 -0.196,-2.815l0 -7.85c1.341,0 2.913,0.175 3.618,0.526 0.705,0.348 1.324,1.032 1.855,2.048 0.533,1.015 0.883,2.136 1.049,3.728l1.132 0 0 -14.447 -1.132 0c-0.222,2.17 -0.734,3.627 -1.536,4.739 -0.8,1.113 -2.094,1.669 -3.877,1.669l-1.11 0 0 -9.692c-0.009,-1.684 1.494,-1.489 1.494,-1.489l1.753 0c2.122,0 3.569,0.124 4.34,0.371 1.323,0.411 2.345,1.056 3.068,1.933 0.724,0.878 1.285,2.325 1.685,4.34l0.948 0 0 -8.259 -23.605 0 0 1.138 0.744 0c0.906,0 1.622,0.192 2.144,0.574 0.371,0.26 0.625,0.631 0.762,1.111 0.07,0.287 0.104,1.061 0.104,2.321l0 17.46c0,1.397 -0.075,2.26 -0.227,2.588 -0.192,0.466 -0.468,0.795 -0.823,0.987 -0.496,0.288 -1.149,0.432 -1.96,0.432l-0.744 0 0 1.313 24.005 0 1.443 -8.878 0.008 0.002zm-45.307 7.547l-0.638 0c-0.914,0 -1.726,-0.28 -2.435,-0.841 -0.709,-0.562 -1.064,-1.643 -1.064,-3.245l0 -16.862 18.266 22.77 1.185 0.002 0 -23.224c0,-1.321 0.11,-1.704 0.327,-2.247 0.218,-0.544 0.523,-0.936 0.912,-1.177 0.39,-0.24 1.154,-0.436 2.29,-0.588l0 -1.181 -9.062 0 0 1.181c1.494,-0.027 2.561,0.358 3.193,1.156 0.463,0.591 0.695,1.177 0.695,2.856l0 12.163 -14.22 -17.356 -8.653 0 0 0.938c0.823,0.027 0.852,0.303 1.29,0.535l2.318 2.333 -0.003 18.7c0,1.479 -0.292,2.525 -0.876,3.141 -0.584,0.617 -1.618,0.931 -3.103,0.945l0 1.13 9.574 0 0 -1.13 0.004 0.001zm81.683 -12.367c0,1.856 -1.505,3.359 -3.359,3.359 -1.856,0 -3.36,-1.504 -3.36,-3.359 0,-1.856 1.505,-3.359 3.36,-3.359 1.855,0 3.359,1.505 3.359,3.359z"/>
  <path class="fil9" d="M437.028 134.354c1.893,0.25 3.169,-0.513 3.364,-1.991 0.152,-1.153 -0.487,-1.924 -2.083,-2.485l-0.716 -0.256c-0.916,-0.33 -1.262,-0.643 -1.2,-1.117 0.074,-0.56 0.677,-0.878 1.459,-0.775 0.825,0.108 1.309,0.627 1.269,1.36l1.486 0.196c0.158,-1.551 -0.819,-2.632 -2.588,-2.864 -1.746,-0.231 -3.038,0.557 -3.222,1.952 -0.144,1.096 0.499,1.898 1.975,2.427l0.786 0.281c0.946,0.34 1.31,0.682 1.245,1.176 -0.078,0.597 -0.711,0.906 -1.592,0.79 -0.985,-0.129 -1.512,-0.701 -1.422,-1.548l-1.529 -0.201c-0.22,1.669 0.8,2.796 2.768,3.055zm3.998 0.41l5.513 0.726 0.18 -1.364 -3.928 -0.517 0.245 -1.861 3.634 0.478 0.174 -1.321 -3.634 -0.478 0.236 -1.787 3.927 0.517 0.18 -1.364 -5.514 -0.726 -1.013 7.697zm6.426 0.846l5.08 0.669 0.18 -1.364 -3.495 -0.46 0.834 -6.333 -1.586 -0.209 -1.013 7.697zm5.886 0.775l5.513 0.726 0.18 -1.364 -3.928 -0.517 0.245 -1.861 3.633 0.478 0.174 -1.321 -3.633 -0.479 0.235 -1.786 3.928 0.517 0.18 -1.364 -5.514 -0.726 -1.013 7.697zm9.819 1.409c1.8,0.237 3.289,-0.695 3.758,-2.373l-1.602 -0.211c-0.314,0.874 -1.043,1.304 -1.952,1.184 -1.311,-0.172 -1.943,-1.269 -1.738,-2.828 0.206,-1.57 1.106,-2.464 2.412,-2.292 0.914,0.12 1.512,0.729 1.572,1.658l1.607 0.212c-0.017,-1.748 -1.213,-3.039 -3.014,-3.276 -2.116,-0.278 -3.851,1.037 -4.173,3.488 -0.321,2.435 1.019,4.16 3.13,4.438zm4.781 -5.93l2.334 0.307 -0.834 6.334 1.585 0.208 0.834 -6.333 2.328 0.307 0.18 -1.364 -6.247 -0.823 -0.18 1.364z"/>
  <path class="fil9" d="M589.64 138.176c1.893,-0.249 2.928,-1.315 2.734,-2.794 -0.152,-1.152 -0.968,-1.732 -2.655,-1.861l-0.758 -0.061c-0.971,-0.082 -1.386,-0.295 -1.448,-0.769 -0.074,-0.56 0.426,-1.024 1.208,-1.127 0.825,-0.109 1.427,0.267 1.579,0.986l1.485 -0.196c-0.249,-1.539 -1.472,-2.33 -3.241,-2.097 -1.746,0.23 -2.791,1.325 -2.607,2.72 0.144,1.096 0.974,1.705 2.536,1.834l0.832 0.068c1.002,0.083 1.442,0.319 1.507,0.813 0.079,0.597 -0.452,1.059 -1.333,1.175 -0.985,0.13 -1.642,-0.285 -1.774,-1.127l-1.53 0.202c0.22,1.668 1.497,2.494 3.465,2.234zm2.619 -6.904l2.333 -0.307 0.834 6.333 1.586 -0.209 -0.834 -6.333 2.328 -0.306 -0.179 -1.365 -6.248 0.823 0.18 1.364zm6.325 5.61l1.715 -0.225 0.335 -1.755 2.874 -0.378 0.758 1.61 1.761 -0.232 -3.713 -7.341 -2.044 0.269 -1.686 8.052zm2.311 -3.305l0.158 -0.829c0.145,-0.819 0.279,-1.634 0.432,-2.628 0.399,0.921 0.74,1.674 1.082,2.429l0.362 0.76 -2.034 0.268zm5.76 2.243l1.585 -0.209 -0.354 -2.687 1.398 -0.184c0.005,-0.001 0.011,-0.002 0.016,-0.002l1.721 2.507 1.702 -0.224 -1.935 -2.784c0.809,-0.512 1.22,-1.344 1.085,-2.364 -0.204,-1.551 -1.416,-2.384 -3.155,-2.155l-3.077 0.405 1.014 7.697zm1.063 -4.172l-0.317 -2.413 1.392 -0.183c0.844,-0.111 1.429,0.291 1.526,1.025 0.097,0.737 -0.365,1.276 -1.203,1.387l-1.398 0.184zm4.413 -2.992l2.333 -0.307 0.834 6.333 1.586 -0.209 -0.834 -6.333 2.328 -0.306 -0.18 -1.364 -6.247 0.822 0.18 1.364z"/>
  <path class="fil9" d="M496.49 351.547l1.599 0 0 -2.666 1.439 0c1.745,0 2.859,-0.976 2.859,-2.549 0,-1.572 -1.093,-2.549 -2.838,-2.549l-3.059 0 0 7.764zm1.599 -3.999l0 -2.431 1.355 0c0.849,0 1.375,0.467 1.375,1.215 0,0.749 -0.526,1.216 -1.375,1.216l-1.355 0zm3.715 3.999l1.73 0 0.561 -1.695 2.899 0 0.542 1.695 1.775 0 -2.722 -7.764 -2.062 0 -2.723 7.764zm2.723 -2.975l0.265 -0.802c0.25,-0.792 0.49,-1.583 0.771,-2.548 0.275,0.965 0.515,1.756 0.755,2.548l0.26 0.802 -2.051 0zm8.154 2.975c2.384,0 3.832,-1.49 3.832,-3.887 0,-2.387 -1.464,-3.877 -3.801,-3.877l-2.768 0 0 7.764 2.737 0zm-1.137 -1.344l0 -5.076 1.068 0c1.546,0 2.291,0.898 2.291,2.533 0,1.641 -0.736,2.543 -2.305,2.543l-1.054 0zm7.63 1.344l1.729 0 0.562 -1.695 2.899 0 0.542 1.695 1.775 0 -2.723 -7.764 -2.061 0 -2.723 7.764zm2.723 -2.975l0.265 -0.802c0.25,-0.792 0.49,-1.583 0.771,-2.548 0.275,0.965 0.515,1.756 0.755,2.548l0.26 0.802 -2.051 0z"/>
  <path class="fil9" d="M559.413 250.025l1.599 0 0 -2.666 1.439 0c1.745,0 2.859,-0.976 2.859,-2.549 0,-1.572 -1.093,-2.548 -2.838,-2.548l-3.059 0 0 7.763zm1.599 -3.999l0 -2.431 1.355 0c0.849,0 1.375,0.467 1.375,1.215 0,0.749 -0.526,1.216 -1.375,1.216l-1.355 0zm3.715 3.999l1.73 0 0.561 -1.695 2.899 0 0.542 1.695 1.775 0 -2.722 -7.763 -2.062 0 -2.723 7.763zm2.723 -2.975l0.265 -0.802c0.25,-0.792 0.49,-1.583 0.771,-2.548 0.276,0.965 0.515,1.756 0.755,2.548l0.26 0.802 -2.051 0zm8.155 2.975c2.383,0 3.831,-1.489 3.831,-3.887 0,-2.387 -1.464,-3.876 -3.801,-3.876l-2.768 0 0 7.763 2.738 0zm-1.138 -1.344l0 -5.076 1.068 0c1.546,0 2.291,0.898 2.291,2.533 0,1.641 -0.736,2.543 -2.305,2.543l-1.054 0zm8.163 1.344l3.288 0c1.765,0 2.716,-0.889 2.716,-2.186 0,-1.105 -0.727,-1.77 -1.673,-1.857l0 -0.011c0.85,-0.213 1.385,-0.812 1.385,-1.713 0,-1.196 -0.935,-1.996 -2.606,-1.996l-3.11 0 0 7.763zm1.568 -1.258l0 -2.069 1.521 0c0.809,0 1.283,0.405 1.283,1.052 0,0.647 -0.485,1.017 -1.308,1.017l-1.496 0zm0 -3.274l0 -1.973 1.423 0c0.704,0 1.136,0.382 1.136,0.988 0,0.603 -0.432,0.985 -1.136,0.985l-1.423 0z"/>
  <path class="fil9" d="M643.512 157.396l1.599 0 0 -2.667 1.438 0c1.746,0 2.86,-0.975 2.86,-2.548 0,-1.573 -1.093,-2.549 -2.838,-2.549l-3.059 0 0 7.764zm1.599 -3.999l0 -2.432 1.355 0c0.849,0 1.375,0.468 1.375,1.216 0,0.748 -0.526,1.216 -1.375,1.216l-1.355 0zm3.715 3.999l1.73 0 0.561 -1.696 2.899 0 0.542 1.696 1.775 0 -2.723 -7.764 -2.061 0 -2.723 7.764zm2.723 -2.976l0.265 -0.801c0.25,-0.793 0.49,-1.584 0.771,-2.549 0.275,0.965 0.515,1.756 0.755,2.549l0.26 0.801 -2.051 0zm8.154 2.976c2.384,0 3.832,-1.49 3.832,-3.887 0,-2.387 -1.464,-3.877 -3.801,-3.877l-2.768 0 0 7.764 2.737 0zm-1.137 -1.344l0 -5.076 1.068 0c1.546,0 2.291,0.898 2.291,2.533 0,1.64 -0.736,2.543 -2.305,2.543l-1.054 0zm11.6 1.459c1.817,0 3.171,-1.118 3.416,-2.843l-1.615 0c-0.197,0.907 -0.864,1.429 -1.781,1.429 -1.323,0 -2.092,-1.005 -2.092,-2.578 0,-1.583 0.775,-2.587 2.092,-2.587 0.922,0 1.594,0.526 1.775,1.439l1.621 0c-0.245,-1.731 -1.599,-2.854 -3.416,-2.854 -2.134,0 -3.682,1.53 -3.682,4.002 0,2.457 1.553,3.992 3.682,3.992z"/>
  <path class="fil9" d="M738.247 92.047l1.6 0 0 -2.666 1.438 0c1.745,0 2.859,-0.976 2.859,-2.549 0,-1.572 -1.093,-2.548 -2.838,-2.548l-3.059 0 0 7.763zm1.6 -3.999l0 -2.431 1.354 0c0.85,0 1.376,0.467 1.376,1.215 0,0.749 -0.526,1.216 -1.376,1.216l-1.354 0zm3.714 3.999l1.73 0 0.561 -1.695 2.899 0 0.542 1.695 1.776 0 -2.723 -7.763 -2.062 0 -2.723 7.763zm2.723 -2.975l0.265 -0.802c0.251,-0.792 0.49,-1.583 0.771,-2.548 0.276,0.965 0.516,1.756 0.756,2.548l0.259 0.802 -2.051 0zm8.155 2.975c2.383,0 3.831,-1.489 3.831,-3.887 0,-2.387 -1.464,-3.876 -3.801,-3.876l-2.768 0 0 7.763 2.738 0zm-1.138 -1.344l0 -5.076 1.068 0c1.546,0 2.291,0.898 2.291,2.533 0,1.641 -0.736,2.543 -2.305,2.543l-1.054 0zm10.9 1.344c2.383,0 3.832,-1.489 3.832,-3.887 0,-2.387 -1.464,-3.876 -3.801,-3.876l-2.768 0 0 7.763 2.737 0zm-1.137 -1.344l0 -5.076 1.068 0c1.546,0 2.291,0.898 2.291,2.533 0,1.641 -0.736,2.543 -2.305,2.543l-1.054 0z"/>
  <ellipse class="fil8" cx="295.986" cy="265.128" rx="134.139" ry="137.918"/>
  <path class="fil12" d="M593.143 332.316c25.042,0 45.343,20.301 45.343,45.342 0,25.042 -20.301,45.343 -45.343,45.343 -25.042,0 -45.343,-20.301 -45.343,-45.343 0,-25.041 20.301,-45.342 45.343,-45.342z"/>
  <circle class="fil13" cx="593.143" cy="377.658" r="41.564"/>
  <circle class="fil14" cx="593.143" cy="377.658" r="37.786"/>
  <path class="fil12" d="M650.333 240.792c25.042,0 45.343,20.301 45.343,45.342 0,25.042 -20.301,45.343 -45.343,45.343 -25.041,0 -45.343,-20.301 -45.343,-45.343 0,-25.041 20.302,-45.342 45.343,-45.342z"/>
  <circle class="fil13" cx="650.333" cy="286.134" r="41.564"/>
  <circle class="fil14" cx="650.333" cy="286.134" r="37.786"/>
  <path class="fil12" d="M725.304 163.159c25.041,0 45.342,20.301 45.342,45.343 0,25.041 -20.301,45.342 -45.342,45.342 -25.042,0 -45.343,-20.301 -45.343,-45.342 0,-25.042 20.301,-45.343 45.343,-45.343z"/>
  <circle class="fil13" cx="725.304" cy="208.502" r="41.564"/>
  <circle class="fil15" cx="725.304" cy="208.502" r="37.786"/>
  <path class="fil12" d="M814.775 102.809c25.042,0 45.343,20.301 45.343,45.342 0,25.042 -20.301,45.343 -45.343,45.343 -25.042,0 -45.343,-20.301 -45.343,-45.343 0,-25.041 20.301,-45.342 45.343,-45.342z"/>
  <circle class="fil13" cx="814.775" cy="148.152" r="41.564"/>
  <circle class="fil15" cx="814.775" cy="148.151" r="37.786"/>
  <path class="fil16" d="M436.492 114.995c-6.724,-0.885 -11.458,-7.054 -10.573,-13.779 0.886,-6.724 7.054,-11.457 13.779,-10.572 13.112,1.727 26.224,3.453 39.335,5.179 6.725,0.885 11.458,7.054 10.573,13.778 -0.886,6.724 -7.054,11.458 -13.778,10.573 -13.112,-1.727 -26.224,-3.453 -39.336,-5.179z"/>
  <path class="fil17" d="M438.465 100.888c-1.601,-0.21 -2.728,-1.68 -2.518,-3.281 0.211,-1.601 1.68,-2.729 3.281,-2.518l9.333 1.229 20.443 2.691 9.333 1.229c1.601,0.211 2.728,1.68 2.517,3.281 -0.211,1.601 -1.681,2.729 -3.281,2.518l-9.332 -1.228 -29.776 -3.921z"/>
  <path class="fil18" d="M438.649 99.481c-0.823,-0.108 -1.404,-0.864 -1.295,-1.688 0.108,-0.825 0.864,-1.405 1.688,-1.296 13.036,1.716 26.073,3.433 39.111,5.149 0.823,0.108 1.403,0.864 1.294,1.688 -0.108,0.824 -0.865,1.404 -1.687,1.296 -13.037,-1.716 -26.074,-3.433 -39.111,-5.149z"/>
  <path class="fil19" d="M580.44 120.174c-6.724,0.885 -12.893,-3.849 -13.778,-10.573 -0.885,-6.724 3.848,-12.893 10.573,-13.778 13.111,-1.726 26.223,-3.452 39.335,-5.179 6.725,-0.885 12.893,3.848 13.778,10.572 0.885,6.725 -3.848,12.894 -10.572,13.779 -13.112,1.726 -26.224,3.452 -39.336,5.179z"/>
  <path class="fil17" d="M578.695 106.037c-1.601,0.211 -3.07,-0.917 -3.281,-2.518 -0.211,-1.601 0.916,-3.07 2.517,-3.281l9.333 -1.229 20.443 -2.691 9.333 -1.229c1.601,-0.211 3.07,0.917 3.281,2.518 0.21,1.601 -0.917,3.071 -2.518,3.281l-9.332 1.229 -29.776 3.92z"/>
  <path class="fil18" d="M578.508 104.63c-0.822,0.108 -1.579,-0.472 -1.688,-1.296 -0.108,-0.824 0.472,-1.58 1.295,-1.688 13.038,-1.716 26.074,-3.433 39.111,-5.149 0.824,-0.109 1.58,0.471 1.688,1.296 0.109,0.824 -0.473,1.58 -1.295,1.688 -13.037,1.716 -26.074,3.433 -39.111,5.149z"/>
  <circle class="fil20" cx="295.986" cy="265.128" r="59.134"/>
  <path class="fil21" d="M298.163 217.547c-0.935,-3.061 -7.615,-3.736 -14.919,-1.507 -7.303,2.229 -12.466,6.517 -11.531,9.579 0.935,3.061 7.614,3.735 14.918,1.506 7.304,-2.229 12.467,-6.517 11.532,-9.578z"/>
  <path class="fil22" d="M345.834 272.15c-13.153,19.339 -35.06,30.933 -58.469,30.933 -14.233,0 -28.139,-4.296 -39.887,-12.319 -2.435,-1.687 -4.795,-3.521 -7.032,-5.458 8.454,23.415 30.693,39.021 55.601,39.021 32.637,0 59.104,-26.452 59.104,-59.071 0,-3.324 -0.288,-6.663 -0.844,-9.937 -2.073,5.945 -4.933,11.627 -8.473,16.833l0 -0.002z"/>
 </g>
</svg>
