<?xml version="1.0" encoding="UTF-8"?>
<!DOCTYPE svg PUBLIC "-//W3C//DTD SVG 1.1//EN" "http://www.w3.org/Graphics/SVG/1.1/DTD/svg11.dtd">
<svg xml:space="preserve" viewBox="0 0 594 420" width="594px" height="420px" version="1.1" style="shape-rendering:geometricPrecision; fill-rule:evenodd; clip-rule:evenodd" xmlns="http://www.w3.org/2000/svg" xmlns:xlink="http://www.w3.org/1999/xlink">
 <defs>
  <style type="text/css">
    .fil21 {fill:#080808}
    .fil22 {fill:#0F0F0F}
    .fil8 {fill:#333333}
    .fil26 {fill:#484848}
    .fil29 {fill:#4D4D4D}
    .fil31 {fill:#525252}
    .fil24 {fill:#6F6FDB}
    .fil7 {fill:#191919}
    .fil13 {fill:#E0E0E0}
    .fil5 {fill:#EAEAEA}
    .fil6 {fill:#F2F2F2}
    .fil3 {fill:#F9F9F9}
    .fil23 {fill:black;fill-opacity:0.5}
    .fil34 {fill:black;fill-opacity:0.4}
    .fil33 {fill:white;fill-opacity:0.8}
    .fil11 {fill:url(#id0)}
    .fil19 {fill:url(#id1)}
    .fil9 {fill:url(#id2)}
    .fil4 {fill:url(#id3)}
    .fil27 {fill:url(#id4)}
    .fil10 {fill:url(#id5)}
    .fil28 {fill:url(#id6)}
    .fil32 {fill:url(#id7)}
    .fil15 {fill:url(#id8)}
    .fil25 {fill:url(#id9)}
    .fil30 {fill:url(#id10)}
    .fil18 {fill:url(#id11)}
    .fil14 {fill:url(#id12)}
    .fil1 {fill:url(#id13)}
    .fil2 {fill:url(#id14)}
    .fil16 {fill:url(#id15)}
    .fil20 {fill:url(#id16)}
    .fil12 {fill:url(#id17)}
    .fil0 {fill:url(#id18)}
    .fil17 {fill:url(#id19)}
    .fil35 {fill:url(#id20)}
    .shd0 {filter: drop-shadow(0px 1px .5px rgba(0, 0, 0, 0.2)) drop-shadow(0px 0px .5px rgba(0, 0, 0, 0.4))}
    .shd1 {filter: drop-shadow(0px 1px .5px rgba(0, 0, 0, 0.2)) drop-shadow(0px 0px .5px rgba(0, 0, 0, 0.4))}
    .shd2 {filter: drop-shadow(0px 2px 2px rgba(0, 0, 0, 0.7)) drop-shadow(0px 0px 2px rgba(0, 0, 0, 0.4))}
  </style>
  <linearGradient id="id0" gradientUnits="objectBoundingBox" x1="50%" y1="100%" x2="50%" y2="0%">
   <stop offset="0" style="stop-opacity:1; stop-color:#E0E0E0"/>
   <stop offset="1" style="stop-opacity:1; stop-color:#EBEBEB"/>
  </linearGradient>
  <linearGradient id="id1" gradientUnits="userSpaceOnUse" x1="382.21" y1="326.474" x2="382.21" y2="247.104">
   <stop offset="0" style="stop-opacity:1; stop-color:#F7F7F7"/>
   <stop offset="1" style="stop-opacity:1; stop-color:#8C8C8C"/>
  </linearGradient>
  <linearGradient id="id2" gradientUnits="objectBoundingBox" x1="50%" y1="100%" x2="50%" y2="0%">
   <stop offset="0" style="stop-opacity:1; stop-color:#B3B3B3"/>
   <stop offset="0.5" style="stop-opacity:1; stop-color:#E3E3E3"/>
   <stop offset="1" style="stop-opacity:1; stop-color:#FAFAFA"/>
  </linearGradient>
  <linearGradient id="id3" gradientUnits="objectBoundingBox" x1="50%" y1="100%" x2="50%" y2="0%">
   <stop offset="0" style="stop-opacity:1; stop-color:#F0F0F0"/>
   <stop offset="0.5" style="stop-opacity:1; stop-color:#F0F0F0"/>
   <stop offset="0.8" style="stop-opacity:1; stop-color:#FAFAFA"/>
   <stop offset="1" style="stop-opacity:1; stop-color:#FAFAFA"/>
  </linearGradient>
  <linearGradient id="id4" gradientUnits="objectBoundingBox" x1="50%" y1="100%" x2="50%" y2="0%">
   <stop offset="0" style="stop-opacity:1; stop-color:#333333"/>
   <stop offset="0.05" style="stop-opacity:1; stop-color:#333333"/>
   <stop offset="0.15" style="stop-opacity:1; stop-color:#666666"/>
   <stop offset="0.85" style="stop-opacity:1; stop-color:gray"/>
   <stop offset="0.95" style="stop-opacity:1; stop-color:#B3B3B3"/>
   <stop offset="1" style="stop-opacity:1; stop-color:#B3B3B3"/>
  </linearGradient>
  <linearGradient id="id5" gradientUnits="objectBoundingBox" xlink:href="#id0" x1="50%" y1="105%" x2="50%" y2="0%">
  </linearGradient>
  <linearGradient id="id6" gradientUnits="objectBoundingBox" x1="50%" y1="100%" x2="50%" y2="1.88986e-14%">
   <stop offset="0" style="stop-opacity:1; stop-color:#333333"/>
   <stop offset="0.05" style="stop-opacity:1; stop-color:#333333"/>
   <stop offset="0.1" style="stop-opacity:1; stop-color:#3C3C3C"/>
   <stop offset="0.4" style="stop-opacity:1; stop-color:#3C3C3C"/>
   <stop offset="0.6" style="stop-opacity:1; stop-color:gray"/>
   <stop offset="0.9" style="stop-opacity:1; stop-color:gray"/>
   <stop offset="0.95" style="stop-opacity:1; stop-color:#B3B3B3"/>
   <stop offset="1" style="stop-opacity:1; stop-color:#B3B3B3"/>
  </linearGradient>
  <linearGradient id="id7" gradientUnits="userSpaceOnUse" x1="296.986" y1="218.568" x2="296.986" y2="250.316">
   <stop offset="0" style="stop-opacity:1; stop-color:gray"/>
   <stop offset="0.4" style="stop-opacity:1; stop-color:#BFBFBF"/>
   <stop offset="1" style="stop-opacity:1; stop-color:#E6E6E6"/>
  </linearGradient>
  <linearGradient id="id8" gradientUnits="userSpaceOnUse" xlink:href="#id1" x1="211.763" y1="326.474" x2="211.763" y2="247.104">
  </linearGradient>
  <linearGradient id="id9" gradientUnits="userSpaceOnUse" x1="128.043" y1="193.47" x2="128.043" y2="158.095">
   <stop offset="0" style="stop-opacity:1; stop-color:#333333"/>
   <stop offset="0.3" style="stop-opacity:1; stop-color:#333333"/>
   <stop offset="0.45" style="stop-opacity:1; stop-color:gray"/>
   <stop offset="0.85" style="stop-opacity:1; stop-color:gray"/>
   <stop offset="0.95" style="stop-opacity:1; stop-color:#B3B3B3"/>
   <stop offset="1" style="stop-opacity:1; stop-color:#B3B3B3"/>
  </linearGradient>
  <linearGradient id="id10" gradientUnits="userSpaceOnUse" x1="128.043" y1="248.048" x2="128.043" y2="212.661">
   <stop offset="0" style="stop-opacity:1; stop-color:#333333"/>
   <stop offset="0.05" style="stop-opacity:1; stop-color:#333333"/>
   <stop offset="0.15" style="stop-opacity:1; stop-color:gray"/>
   <stop offset="0.55" style="stop-opacity:1; stop-color:gray"/>
   <stop offset="0.7" style="stop-opacity:1; stop-color:#999999"/>
   <stop offset="1" style="stop-opacity:1; stop-color:#999999"/>
  </linearGradient>
  <linearGradient id="id11" gradientUnits="userSpaceOnUse" x1="382.21" y1="324.584" x2="382.21" y2="248.994">
   <stop offset="0" style="stop-opacity:1; stop-color:#232323"/>
   <stop offset="1" style="stop-opacity:1; stop-color:#707070"/>
  </linearGradient>
  <linearGradient id="id12" gradientUnits="userSpaceOnUse" xlink:href="#id11" x1="211.763" y1="324.584" x2="211.763" y2="248.994">
  </linearGradient>
  <linearGradient id="id13" gradientUnits="userSpaceOnUse" x1="5.189" y1="262.523" x2="198.403" y2="339.91">
   <stop offset="0" style="stop-opacity:1; stop-color:#CCCCCC"/>
   <stop offset="0.15" style="stop-opacity:1; stop-color:#D9D9D9"/>
   <stop offset="0.37" style="stop-opacity:1; stop-color:#E6E6E6"/>
   <stop offset="0.6" style="stop-opacity:1; stop-color:#D9D9D9"/>
   <stop offset="0.8" style="stop-opacity:1; stop-color:#CCCCCC"/>
   <stop offset="1" style="stop-opacity:1; stop-color:#CCCCCC"/>
  </linearGradient>
  <linearGradient id="id14" gradientUnits="userSpaceOnUse" xlink:href="#id13" x1="588.783" y1="262.523" x2="395.569" y2="339.91">
  </linearGradient>
  <linearGradient id="id15" gradientUnits="userSpaceOnUse" xlink:href="#id0" x1="211.769" y1="341.592" x2="211.769" y2="231.986">
  </linearGradient>
  <linearGradient id="id16" gradientUnits="userSpaceOnUse" xlink:href="#id0" x1="382.203" y1="341.592" x2="382.203" y2="231.986">
  </linearGradient>
  <linearGradient id="id17" gradientUnits="userSpaceOnUse" x1="224.825" y1="345.372" x2="224.825" y2="228.358">
   <stop offset="0" style="stop-opacity:1; stop-color:#B3B3B3"/>
   <stop offset="0.5" style="stop-opacity:1; stop-color:#E0E0E0"/>
   <stop offset="1" style="stop-opacity:1; stop-color:#F7F7F7"/>
  </linearGradient>
  <linearGradient id="id18" gradientUnits="userSpaceOnUse" x1="279.966" y1="304.363" x2="279.966" y2="115.387">
   <stop offset="0" style="stop-opacity:1; stop-color:#999999"/>
   <stop offset="0.08" style="stop-opacity:1; stop-color:silver"/>
   <stop offset="0.1" style="stop-opacity:1; stop-color:#D6D6D6"/>
   <stop offset="0.9" style="stop-opacity:1; stop-color:#F2F2F2"/>
   <stop offset="0.92" style="stop-opacity:1; stop-color:#FAFAFA"/>
   <stop offset="1" style="stop-opacity:1; stop-color:#CCCCCC"/>
  </linearGradient>
  <linearGradient id="id19" gradientUnits="userSpaceOnUse" xlink:href="#id17" x1="379.251" y1="345.372" x2="379.251" y2="228.358">
  </linearGradient>
  <linearGradient id="id20" gradientUnits="userSpaceOnUse" x1="495.56" y1="358.471" x2="583.598" y2="330.083">
   <stop offset="0" style="stop-opacity:1; stop-color:#744153"/>
   <stop offset="0.501961" style="stop-opacity:1; stop-color:#A77786"/>
   <stop offset="1" style="stop-opacity:1; stop-color:#744153"/>
  </linearGradient>
 </defs>
 <g>
  <g id="shell">
   <path class="fil0" d="M128.041 115.387l150.047 0 0.581 0.58c0.368,0.368 0.816,0.554 1.336,0.554l33.962 0c0.521,0 0.968,-0.186 1.336,-0.554l0.581 -0.58 150.047 0 0 188.976 -337.89 0 0 -188.976z"/>
   <path class="fil1" d="M38.822 182.928l164.576 71.982 -95.661 139.05c-11.425,16.607 -29.845,25.539 -48.582,25.546 -32.563,0.01 -58.963,-26.399 -58.961,-58.961 0.001,-4.283 0.475,-8.632 1.458,-12.985l37.17 -164.632z"/>
   <path class="fil2" d="M555.15 182.928l-164.576 71.982 95.661 139.05c11.425,16.607 29.845,25.539 48.582,25.546 32.563,0.01 58.963,-26.399 58.961,-58.961 -0.001,-4.283 -0.475,-8.632 -1.458,-12.985l-37.17 -164.632z"/>
   <path class="fil3" d="M94.078 81.872l67.921 -0.002c-2.095,-2.132 -2.493,-6.697 -3.883,-8.179 -0.409,-0.436 -0.998,-0.797 -1.772,-1.2 -1.007,-0.514 -2.055,-0.984 -3.14,-1.413 -1.096,-0.434 -2.182,-0.807 -3.258,-1.124 -2.377,-0.703 -4.821,-1.208 -7.299,-1.58 -2.505,-0.376 -5.014,-0.615 -7.511,-0.784 -1.232,-0.068 -2.414,-0.122 -3.54,-0.155 -1.039,-0.031 -2.217,-0.048 -3.564,-0.048 -1.347,0 -2.524,0.017 -3.564,0.048 -1.125,0.033 -2.308,0.087 -3.54,0.154 -2.513,0.172 -5.012,0.409 -7.507,0.785 -2.468,0.371 -4.902,0.875 -7.294,1.584 -1.9,0.557 -6.838,2.31 -8.172,3.738 -1.4,1.499 -1.791,6.139 -3.877,8.176z"/>
   <path class="fil3" d="M431.976 81.872l67.915 -0.002c-2.092,-2.13 -2.49,-6.7 -3.877,-8.179 -0.41,-0.437 -0.998,-0.798 -1.772,-1.2 -1.007,-0.514 -2.055,-0.984 -3.14,-1.413 -1.096,-0.434 -2.182,-0.807 -3.258,-1.124 -2.377,-0.703 -4.822,-1.208 -7.299,-1.58 -2.505,-0.376 -5.014,-0.615 -7.511,-0.784 -1.231,-0.068 -2.414,-0.122 -3.54,-0.155 -1.039,-0.031 -2.217,-0.048 -3.564,-0.048 -1.346,0 -2.524,0.017 -3.564,0.048 -1.125,0.033 -2.308,0.087 -3.54,0.154 -2.512,0.172 -5.012,0.409 -7.507,0.785 -2.467,0.371 -4.901,0.875 -7.295,1.584 -1.899,0.557 -6.837,2.31 -8.171,3.738 -1.381,1.478 -1.767,6.056 -3.877,8.176z"/>
   <path class="fil4" d="M77.018 127.151l102.047 0 -3.338 -19.672c-0.597,-3.151 -1.19,-6.222 -1.923,-9.338 -0.479,-1.93 -0.987,-3.749 -1.683,-5.604 -0.959,-2.43 -2.014,-4.191 -3.837,-5.971 -2.499,-2.399 -5.379,-4.306 -8.395,-5.859 -3.034,-1.519 -6.002,-2.599 -9.24,-3.503 -4.321,-1.154 -8.523,-1.813 -12.955,-2.23 -3.254,-0.256 -6.39,-0.377 -9.653,-0.406 -3.262,0.029 -6.4,0.15 -9.653,0.406 -4.433,0.417 -8.633,1.076 -12.954,2.23 -3.242,0.903 -6.204,1.985 -9.242,3.503 -3.035,1.567 -5.873,3.449 -8.395,5.859 -1.832,1.806 -2.866,3.515 -3.835,5.971 -0.697,1.843 -1.211,3.683 -1.684,5.604 -0.735,3.113 -1.327,6.189 -1.923,9.338l-3.337 19.672z"/>
   <path class="fil4" d="M414.907 127.151l102.047 0 -3.337 -19.672c-0.598,-3.151 -1.191,-6.222 -1.923,-9.338 -0.48,-1.93 -0.987,-3.749 -1.684,-5.604 -0.959,-2.43 -2.014,-4.191 -3.836,-5.971 -2.5,-2.399 -5.38,-4.306 -8.396,-5.859 -3.033,-1.519 -6.002,-2.599 -9.24,-3.503 -4.32,-1.154 -8.523,-1.813 -12.955,-2.23 -3.254,-0.256 -6.39,-0.377 -9.653,-0.406 -3.262,0.029 -6.4,0.15 -9.653,0.406 -4.433,0.417 -8.633,1.076 -12.954,2.23 -3.242,0.903 -6.204,1.985 -9.241,3.503 -3.036,1.567 -5.874,3.449 -8.396,5.859 -1.831,1.806 -2.866,3.515 -3.835,5.971 -0.697,1.843 -1.21,3.683 -1.684,5.604 -0.734,3.113 -1.327,6.189 -1.923,9.338l-3.337 19.672z"/>
   <path class="fil5" d="M80.843 127.151l94.396 0 -3.236 -19.074c-0.336,-1.774 -0.653,-3.435 -0.877,-4.542 -0.486,-2.391 -1.008,-4.817 -1.699,-7.161 -0.512,-1.734 -1.118,-3.522 -2.089,-5.058 -0.447,-0.707 -0.982,-1.364 -1.666,-2.034 -1.101,-1.056 -2.289,-2.006 -3.532,-2.863 -2.546,-1.753 -5.22,-3.082 -8.109,-4.166 -3.395,-1.275 -6.86,-2.117 -10.438,-2.72 -3.693,-0.621 -7.149,-0.93 -10.87,-1.083 -1.61,-0.066 -3.159,-0.104 -4.682,-0.117 -1.523,0.013 -3.072,0.051 -4.682,0.117 -3.715,0.153 -7.19,0.464 -10.87,1.083 -3.593,0.605 -7.017,1.442 -10.424,2.721 -2.925,1.097 -5.544,2.39 -8.122,4.166 -1.878,1.295 -3.95,2.942 -5.198,4.91 -0.963,1.52 -1.585,3.324 -2.092,5.043 -0.69,2.338 -1.214,4.777 -1.697,7.162 -0.227,1.119 -0.545,2.787 -0.881,4.564l-3.232 19.052z"/>
   <path class="fil5" d="M513.129 127.151l-94.396 0 3.236 -19.074c0.336,-1.774 0.653,-3.435 0.877,-4.542 0.486,-2.391 1.008,-4.817 1.699,-7.161 0.512,-1.734 1.118,-3.522 2.089,-5.058 0.447,-0.707 0.982,-1.364 1.666,-2.034 1.101,-1.056 2.289,-2.006 3.532,-2.863 2.546,-1.753 5.22,-3.082 8.109,-4.166 3.395,-1.275 6.86,-2.117 10.438,-2.72 3.693,-0.621 7.149,-0.93 10.87,-1.083 1.61,-0.066 3.159,-0.104 4.682,-0.117 1.523,0.013 3.072,0.051 4.682,0.117 3.715,0.153 7.19,0.464 10.87,1.083 3.593,0.605 7.017,1.442 10.424,2.721 2.925,1.097 5.544,2.39 8.122,4.166 1.878,1.295 3.95,2.942 5.198,4.91 0.963,1.52 1.585,3.324 2.092,5.043 0.69,2.338 1.214,4.777 1.698,7.162 0.226,1.119 0.545,2.787 0.88,4.564l3.232 19.052z"/>
   <polygon id="press-L" class="fil6 shd0" points="124.047,101.762 132.751,101.762 132.751,99.678 126.455,99.678 126.455,88.176 124.047,88.176 "/>
   <path id="press-R" class="fil6 shd0" d="M461.356 101.766l2.26 0 0 -4.947 2.567 0c0.024,0 0.041,0 0.059,0l2.397 4.947 2.471 0 -2.643 -5.382c1.504,-0.654 2.404,-2.01 2.404,-3.868 0,-2.669 -1.741,-4.34 -4.544,-4.34l-4.971 0 0 13.59zm2.26 -6.925l0 -4.63 2.585 0c1.522,0 2.462,0.887 2.462,2.305 0,1.428 -0.94,2.325 -2.447,2.325l-2.6 0z"/>
   <g id="indicators">
    <path class="fil7" d="M249.347 119.739l0 1.89c0,0.208 -0.339,0.378 -0.756,0.378l-5.291 0c-0.417,0 -0.756,-0.17 -0.756,-0.378l0 -1.89c0,-0.417 0.339,-0.756 0.756,-0.756l5.291 0c0.417,0 0.756,0.339 0.756,0.756zm-17.386 0l0 1.89c0,0.208 -0.339,0.378 -0.756,0.378l-5.291 0c-0.417,0 -0.756,-0.17 -0.756,-0.378l0 -1.89c0,-0.417 0.339,-0.756 0.756,-0.756l5.291 0c0.417,0 0.756,0.339 0.756,0.756zm-17.386 0l0 1.89c0,0.208 -0.339,0.378 -0.756,0.378l-5.291 0c-0.417,0 -0.756,-0.17 -0.756,-0.378l0 -1.89c0,-0.417 0.339,-0.756 0.756,-0.756l5.291 0c0.417,0 0.756,0.339 0.756,0.756zm-17.386 0l0 1.89c0,0.208 -0.339,0.378 -0.756,0.378l-5.29 0c-0.418,0 -0.757,-0.17 -0.757,-0.378l0 -1.89c0,-0.417 0.339,-0.756 0.757,-0.756l5.29 0c0.417,0 0.756,0.339 0.756,0.756z"/>
    <path class="fil3" d="M243.3 118.605l5.291 0c0.417,0 0.756,0.17 0.756,0.378l0 0.756c0,-0.208 -0.339,-0.378 -0.756,-0.378l-5.291 0c-0.417,0 -0.756,0.17 -0.756,0.378l0 -0.756c0,-0.208 0.339,-0.378 0.756,-0.378zm-17.386 0l5.291 0c0.417,0 0.756,0.17 0.756,0.378l0 0.756c0,-0.208 -0.339,-0.378 -0.756,-0.378l-5.291 0c-0.417,0 -0.756,0.17 -0.756,0.378l0 -0.756c0,-0.208 0.339,-0.378 0.756,-0.378zm-17.386 0l5.291 0c0.417,0 0.756,0.17 0.756,0.378l0 0.756c0,-0.208 -0.339,-0.378 -0.756,-0.378l-5.291 0c-0.417,0 -0.756,0.17 -0.756,0.378l0 -0.756c0,-0.208 0.339,-0.378 0.756,-0.378zm-17.385 0l5.29 0c0.417,0 0.756,0.17 0.756,0.378l0 0.756c0,-0.208 -0.339,-0.378 -0.756,-0.378l-5.29 0c-0.418,0 -0.757,0.17 -0.757,0.378l0 -0.756c0,-0.208 0.339,-0.378 0.757,-0.378z"/>
    <path class="fil8" d="M191.898 119.361l3.78 0c0.416,0 0.756,0.17 0.756,0.378l0 1.89c0,0.208 -0.34,0.378 -0.756,0.378l-3.78 0c-0.416,0 -0.756,-0.17 -0.756,-0.378l0 -1.89c0,-0.208 0.34,-0.378 0.756,-0.378zm17.386 0l3.779 0c0.417,0 0.756,0.17 0.756,0.378l0 1.89c0,0.208 -0.339,0.378 -0.756,0.378l-3.779 0c-0.417,0 -0.756,-0.17 -0.756,-0.378l0 -1.89c0,-0.208 0.339,-0.378 0.756,-0.378zm17.386 0l3.779 0c0.417,0 0.756,0.17 0.756,0.378l0 1.89c0,0.208 -0.339,0.378 -0.756,0.378l-3.779 0c-0.417,0 -0.756,-0.17 -0.756,-0.378l0 -1.89c0,-0.208 0.339,-0.378 0.756,-0.378zm17.386 0l3.779 0c0.417,0 0.756,0.17 0.756,0.378l0 1.89c0,0.208 -0.339,0.378 -0.756,0.378l-3.779 0c-0.417,0 -0.756,-0.17 -0.756,-0.378l0 -1.89c0,-0.208 0.339,-0.378 0.756,-0.378z"/>
   </g>
   <circle class="fil9" cx="128.041" cy="203.072" r="91.465"/>
   <circle class="fil9" cx="465.931" cy="203.072" r="91.465"/>
   <circle class="fil10" cx="128.041" cy="203.072" r="79.37"/>
   <path id="press-arrows" class="fil10 shd1" d="M190.029 203.637l-8.004 8.004c-0.118,0.118 -0.285,0.151 -0.439,0.088 -0.153,-0.064 -0.248,-0.206 -0.248,-0.373l0 -16.578c0,-0.166 0.095,-0.308 0.248,-0.372 0.154,-0.063 0.321,-0.03 0.439,0.087l8.004 8.005c0.314,0.313 0.314,0.825 0,1.139zm-62.547 61.419l-8.005 -8.004c-0.118,-0.118 -0.151,-0.286 -0.087,-0.44 0.063,-0.153 0.206,-0.248 0.372,-0.248l16.578 0c0.166,0 0.309,0.095 0.372,0.248 0.064,0.154 0.03,0.322 -0.087,0.44l-8.005 8.004c-0.313,0.313 -0.825,0.313 -1.138,0zm-61.42 -62.548l8.005 -8.005c0.118,-0.117 0.285,-0.15 0.439,-0.087 0.153,0.063 0.248,0.206 0.248,0.372l0 16.578c0,0.166 -0.095,0.309 -0.248,0.372 -0.154,0.064 -0.321,0.031 -0.439,-0.087l-8.005 -8.005c-0.313,-0.313 -0.313,-0.825 0,-1.138zm62.548 -61.419l8.005 8.004c0.117,0.118 0.151,0.285 0.087,0.439 -0.063,0.154 -0.206,0.249 -0.372,0.249l-16.578 0c-0.166,0 -0.309,-0.095 -0.372,-0.249 -0.064,-0.154 -0.03,-0.321 0.087,-0.439l8.005 -8.004c0.313,-0.314 0.825,-0.314 1.138,0zm-0.569 -17.387c-43.835,0 -79.37,35.535 -79.37,79.37 0,43.834 35.535,79.37 79.37,79.37 43.835,0 79.37,-35.536 79.37,-79.37 0,-43.835 -35.535,-79.37 -79.37,-79.37z"/>
   <path id="press-cross-L" class="fil10 shd1" d="M106.692 136.175c-2.082,0 -3.78,1.697 -3.78,3.779l0 34.205c0,2.082 -1.698,3.779 -3.779,3.779l-34.205 0c-2.082,0 -3.78,1.698 -3.78,3.78l0 42.709c0,2.081 1.698,3.779 3.78,3.779l34.205 0c2.081,0 3.779,1.698 3.779,3.78l0 34.204c0,2.082 1.698,3.78 3.78,3.78l42.708 0c2.082,0 3.78,-1.698 3.78,-3.78l0 -34.204c0,-2.082 1.698,-3.78 3.779,-3.78l34.205 0c2.082,0 3.78,-1.698 3.78,-3.779l0 -42.709c0,-2.082 -1.698,-3.78 -3.78,-3.78l-34.205 0c-2.081,0 -3.779,-1.697 -3.779,-3.779l0 -34.205c0,-2.082 -1.698,-3.779 -3.78,-3.779l-42.708 0zm21.349 -12.473c43.835,0 79.37,35.535 79.37,79.37 0,43.834 -35.535,79.37 -79.37,79.37 -43.835,0 -79.37,-35.536 -79.37,-79.37 0,-43.835 35.535,-79.37 79.37,-79.37z"/>
   <path class="fil11" d="M128.041 115.387c48.427,0 87.685,39.258 87.685,87.685 0,48.427 -39.258,87.685 -87.685,87.685 -48.427,0 -87.685,-39.258 -87.685,-87.685 0,-48.427 39.258,-87.685 87.685,-87.685zm0 12.094c-41.747,0 -75.591,33.844 -75.591,75.591 0,41.747 33.844,75.59 75.591,75.59 41.747,0 75.591,-33.843 75.591,-75.59 0,-41.747 -33.844,-75.591 -75.591,-75.591z"/>
   <circle class="fil10" cx="465.931" cy="203.072" r="79.37"/>
   <path id="press-cross-R" class="fil10 shd1" d="M396.766 224.993c0,2.082 1.697,3.78 3.779,3.78l35.906 0c2.081,0 3.779,1.697 3.779,3.779l0 35.906c0,2.082 1.698,3.779 3.78,3.779l43.842 0c2.082,0 3.78,-1.697 3.78,-3.779l0 -35.906c0,-2.082 1.698,-3.779 3.779,-3.779l35.906 0c2.082,0 3.779,-1.698 3.779,-3.78l0 -43.842c0,-2.082 -1.697,-3.78 -3.779,-3.78l-35.906 0c-2.081,0 -3.779,-1.698 -3.779,-3.779l0 -35.906c0,-2.082 -1.698,-3.78 -3.78,-3.78l-43.842 0c-2.082,0 -3.78,1.698 -3.78,3.78l0 35.906c0,2.081 -1.698,3.779 -3.779,3.779l-35.906 0c-2.082,0 -3.779,1.698 -3.779,3.78l0 43.842zm69.165 -101.291c43.835,0 79.37,35.535 79.37,79.37 0,43.834 -35.535,79.37 -79.37,79.37 -43.835,0 -79.37,-35.536 -79.37,-79.37 0,-43.835 35.535,-79.37 79.37,-79.37z"/>
   <path class="fil11" d="M465.931 115.387c48.427,0 87.685,39.258 87.685,87.685 0,48.427 -39.258,87.685 -87.685,87.685 -48.427,0 -87.685,-39.258 -87.685,-87.685 0,-48.427 39.258,-87.685 87.685,-87.685zm0 12.094c-41.747,0 -75.591,33.844 -75.591,75.591 0,41.747 33.844,75.59 75.591,75.59 41.747,0 75.591,-33.843 75.591,-75.59 0,-41.747 -33.844,-75.591 -75.591,-75.591z"/>
   <path class="fil12" d="M215.966 228.358c30.392,2.155 54.379,27.49 54.379,58.431 0,32.355 -26.228,58.583 -58.582,58.583 -30.94,0 -56.275,-23.985 -58.431,-54.376l3.635 -5.123 53.877 -53.88 5.122 -3.635z"/>
   <circle class="fil13" cx="211.763" cy="286.789" r="47.244"/>
   <circle class="fil14" cx="211.763" cy="286.789" r="37.795"/>
   <path id="shadow-analog-L" class="fil15 shd2" d="M211.763 247.104c-21.918,0 -39.686,17.767 -39.686,39.685 0,21.917 17.768,39.685 39.686,39.685 21.917,0 39.685,-17.768 39.685,-39.685 0,-21.918 -17.768,-39.685 -39.685,-39.685zm0 3.779c19.83,0 35.905,16.076 35.905,35.906 0,19.83 -16.075,35.905 -35.905,35.905 -19.831,0 -35.906,-16.075 -35.906,-35.905 0,-19.83 16.075,-35.906 35.906,-35.906z"/>
   <path class="fil16" d="M211.763 247.104c21.917,0 39.685,17.767 39.685,39.685 0,21.917 -17.768,39.685 -39.685,39.685 -21.918,0 -39.686,-17.768 -39.686,-39.685 0,-21.918 17.768,-39.685 39.686,-39.685zm-54.805 38.78c0.008,0.294 0.001,0.599 0.001,0.905 0,30.266 24.537,54.803 54.804,54.803 30.266,0 54.803,-24.537 54.803,-54.803 0,-30.267 -24.537,-54.803 -54.803,-54.803 -0.307,0 -0.613,0.006 -0.919,0.009 -25.378,8.453 -45.446,28.52 -53.886,53.889z"/>
   <path class="fil17" d="M440.64 290.996c-2.156,30.391 -27.491,54.376 -58.43,54.376 -32.355,0 -58.583,-26.228 -58.583,-58.583 0,-30.941 23.987,-56.276 54.379,-58.431l5.122 3.635 53.877 53.88 3.635 5.123z"/>
   <circle class="fil13" cx="382.21" cy="286.789" r="47.244"/>
   <circle class="fil18" cx="382.209" cy="286.789" r="37.795"/>
   <path id="shadow-analog-R" class="fil19 shd2" d="M382.21 247.104c21.917,0 39.685,17.767 39.685,39.685 0,21.917 -17.768,39.685 -39.685,39.685 -21.918,0 -39.686,-17.768 -39.686,-39.685 0,-21.918 17.768,-39.685 39.686,-39.685zm0 3.779c-19.831,0 -35.906,16.076 -35.906,35.906 0,19.83 16.075,35.905 35.906,35.905 19.83,0 35.905,-16.075 35.905,-35.905 0,-19.83 -16.075,-35.906 -35.905,-35.906z"/>
   <path class="fil20" d="M382.21 247.104c-21.918,0 -39.686,17.767 -39.686,39.685 0,21.917 17.768,39.685 39.686,39.685 21.917,0 39.685,-17.768 39.685,-39.685 0,-21.918 -17.768,-39.685 -39.685,-39.685zm54.804 38.783c-0.008,0.291 -0.001,0.596 -0.001,0.902 0,30.266 -24.537,54.803 -54.803,54.803 -30.267,0 -54.804,-24.537 -54.804,-54.803 0,-30.267 24.537,-54.803 54.804,-54.803 0.306,0 0.612,0.006 0.918,0.011 25.378,8.455 45.446,28.523 53.886,53.89z"/>
  </g>
  <g id="holes">
   <path class="fil21" d="M115.947 154.316l24.189 0c3.122,0 5.669,2.547 5.669,5.669l0 19.234c0,1.561 -0.557,2.904 -1.661,4.008l-12.094 12.094c-2.208,2.208 -5.81,2.208 -8.018,0l-12.094 -12.095c-1.104,-1.104 -1.661,-2.447 -1.661,-4.008l0 -19.233c0,-3.122 2.547,-5.669 5.67,-5.669zm35.948 30.992l19.233 0c3.122,0 5.669,2.547 5.669,5.669l0 24.189c0,3.123 -2.547,5.67 -5.669,5.67l-19.233 0c-1.561,0 -2.904,-0.557 -4.008,-1.661l-12.095 -12.094c-2.208,-2.208 -2.208,-5.81 0,-8.018l12.095 -12.095c1.104,-1.104 2.447,-1.66 4.008,-1.66zm-6.09 41.617l0 19.234c0,3.122 -2.547,5.669 -5.669,5.669l-24.189 0c-3.123,0 -5.67,-2.547 -5.67,-5.669l0 -19.233c0,-1.561 0.557,-2.905 1.661,-4.009l12.094 -12.094c2.208,-2.208 5.81,-2.208 8.018,0l12.094 12.094c1.104,1.104 1.661,2.447 1.661,4.008zm-41.617 -6.089l-19.234 0c-3.122,0 -5.669,-2.547 -5.669,-5.67l0 -24.189c0,-3.122 2.547,-5.669 5.669,-5.669l19.234 0c1.561,0 2.904,0.556 4.008,1.66l12.095 12.095c2.208,2.208 2.208,5.81 0,8.018l-12.095 12.094c-1.104,1.104 -2.447,1.661 -4.008,1.661z"/>
   <path class="fil21" d="M234.624 192.678l21.921 0c2.082,0 3.78,1.699 3.78,3.78l0 13.228c0,2.081 -1.699,3.78 -3.78,3.78l-21.921 0c-2.081,0 -3.78,-1.698 -3.78,-3.78l0 -13.228c0,-2.082 1.698,-3.78 3.78,-3.78z"/>
   <path class="fil21" d="M338.228 213.749l23.821 -6.045c2.548,-0.647 3.347,-2.003 3.347,-4.631 0,-2.629 -0.801,-3.987 -3.347,-4.633l-23.821 -6.045c-1.586,-0.403 -3.186,-0.141 -4.57,0.821 -1.384,0.962 -2.278,2.559 -2.278,4.296l0 11.12c0,1.736 0.894,3.333 2.278,4.295 1.384,0.962 2.982,1.225 4.57,0.822z"/>
   <circle class="fil21" cx="465.93" cy="158.237" r="20.409"/>
   <circle class="fil21" cx="421.096" cy="203.072" r="20.409"/>
   <circle class="fil21" cx="510.766" cy="203.072" r="20.409"/>
   <circle class="fil21" cx="465.93" cy="247.907" r="20.409"/>
   <circle class="fil22" cx="296.986" cy="234.442" r="17.008"/>
  </g>
  <g id="print">
   <path class="fil23" d="M196.375 124.738l-3.032 0 0 -0.596 -1.391 0 0 0.596 -0.746 0 0 0.528 0.746 0 0 1.787 1.815 0 2.608 -1.782 0 -0.533zm-3.032 0.528l1.655 0 0 0.003 -1.65 1.137 -0.005 0 0 -1.14z"/>
   <path class="fil23" d="M211.162 124.098c-1.431,0 -2.424,0.367 -2.424,0.866 0,0.348 0.498,0.646 1.388,0.695l0 0.005c-0.697,0.055 -1.204,0.283 -1.204,0.624 0,0.474 0.931,0.81 2.238,0.81 1.416,0 2.291,-0.399 2.291,-0.929l-1.389 0c0,0.245 -0.371,0.409 -0.902,0.409 -0.512,0 -0.871,-0.15 -0.871,-0.368 0,-0.212 0.376,-0.34 0.986,-0.34l0.568 0 0 -0.492 -0.568 0c-0.647,0 -1.072,-0.144 -1.072,-0.366 0,-0.227 0.396,-0.379 0.972,-0.379 0.622,0 0.995,0.183 0.995,0.489l1.401 0c0,-0.548 -0.771,-1.024 -2.409,-1.024z"/>
   <path class="fil23" d="M230.827 124.142l-4.55 0 0 0.551 2.542 0 0 0.004 -1.148 0.463c-0.841,0.332 -1.372,0.6 -1.372,1.021 0,0.563 0.947,0.916 2.257,0.916 1.42,0 2.313,-0.418 2.313,-1.072l-1.358 0c0,0.33 -0.374,0.521 -0.955,0.521 -0.531,0 -0.877,-0.16 -0.877,-0.402 0,-0.264 0.424,-0.424 0.873,-0.605l2.275 -0.896 0 -0.501z"/>
   <polygon class="fil23" points="244.649,127.053 245.974,127.053 247.487,126.604 247.487,126.008 246.081,126.424 246.074,126.424 246.074,124.142 244.649,124.142 "/>
   <path class="fil23" d="M298.861 125.876l-2.013 1.319 -2.064 -1.309 1.491 -0.003 0.022 -3.195c-0.122,0.025 -0.249,0.05 -0.38,0.075 -0.85,0.163 -1.922,0.369 -1.962,1.277l1.046 0 0 1.118 -3.012 0 0 -1.118 0.933 0c0.041,-1.141 1.426,-1.407 2.523,-1.617 0.396,-0.077 0.737,-0.142 0.855,-0.259l0.011 -1.67c-0.773,-0.078 -1.31,-0.339 -1.31,-0.636 0,-0.001 0,-0.002 0,-0.002 0,0 0,-0.001 0,-0.001 0,-0.365 0.797,-0.66 1.779,-0.66 0.001,0 0.002,0 0.004,0 0.001,0 0.002,0 0.004,0 0.982,0 1.778,0.295 1.778,0.66 0,0 0,0.001 0,0.001 0,0 0,0.001 0,0.002 0,0.275 -0.463,0.522 -1.16,0.618l-0.007 1.038c0.353,0.074 0.69,0.123 0.999,0.169 1.366,0.202 2.293,0.339 2.312,1.52 0.757,0.081 1.279,0.337 1.279,0.63 0,0 0,0.001 0,0.002 0,0.361 -0.795,0.657 -1.77,0.657 -0.974,0 -1.769,-0.296 -1.769,-0.657 0,-0.296 0.516,-0.541 1.227,-0.626 -0.014,-0.928 -0.679,-1.027 -1.659,-1.171 -0.197,-0.029 -0.405,-0.06 -0.622,-0.096l-0.026 3.938 1.491 -0.004 0 0z"/>
   <path id="dualshock3" class="fil24" d="M403.04 121.037c-2.678,0 -4.353,0.802 -4.353,2.071 0,1.269 1.698,2.071 4.353,2.071l3.238 0 0 -4.142 -3.238 0zm1.13 0.831l0 2.48 -1 0c-1.603,0 -2.364,-0.421 -2.364,-1.24 0,-0.817 0.745,-1.24 2.341,-1.24l1.023 0zm-10.018 -0.894c-2.22,0 -3.669,0.607 -3.669,1.52l0 2.685 2.052 0 0 -2.604c0,-0.439 0.644,-0.753 1.617,-0.753 0.966,0 1.622,0.317 1.622,0.753l0 2.604 2.053 0 0 -2.685c0,-0.913 -1.445,-1.52 -3.675,-1.52zm-3.695 0.063l-2.292 0 -0.532 0.797 -3.1 0 -0.515 -0.797 -2.357 0 3.018 4.142 2.778 0 3 -4.142zm-3.351 1.576l-0.158 0.242c-0.307,0.462 -0.587,0.916 -0.887,1.425 -0.292,-0.509 -0.574,-0.963 -0.86,-1.425l-0.158 -0.242 2.063 0zm-6.044 -1.576l-5.976 0 0 0.848 3.868 0 0 3.294 2.108 0 0 -4.142zm-10.255 -0.063c-2.248,0 -3.582,0.491 -3.582,1.324 0,0.638 0.836,1.001 2.768,1.185l0.766 0.071c0.994,0.097 1.409,0.223 1.409,0.447 0,0.258 -0.556,0.438 -1.349,0.438 -0.83,0 -1.387,-0.21 -1.445,-0.552l-1.951 0c0.052,0.846 1.336,1.355 3.424,1.355 2.047,0 3.429,-0.519 3.429,-1.288 0,-0.601 -0.872,-1.002 -2.576,-1.168l-0.893 -0.086c-1.046,-0.102 -1.498,-0.239 -1.498,-0.474 0,-0.272 0.591,-0.45 1.48,-0.45 1.005,0 1.62,0.233 1.648,0.63l2.009 0c0,-0.913 -1.318,-1.432 -3.639,-1.432zm-4.546 0.063l-2.108 0 0 1.684 -3.315 0 0 -1.684 -2.108 0 0 4.142 2.108 0 0 -1.61 3.315 0 0 1.61 2.108 0 0 -4.142zm-12.577 -0.063c-2.356,0 -4.171,0.784 -4.171,2.131 0,1.349 1.815,2.137 4.171,2.137 2.366,0 4.176,-0.788 4.176,-2.137 0,-1.341 -1.81,-2.131 -4.176,-2.131zm0 0.871c1.252,0 2.056,0.461 2.056,1.26 0,0.802 -0.804,1.266 -2.056,1.266 -1.247,0 -2.052,-0.464 -2.052,-1.266 0,-0.799 0.805,-1.26 2.052,-1.26zm-8.975 -0.871c-2.134,0 -3.68,0.618 -3.944,1.568l2.12 0c0.187,-0.439 0.85,-0.697 1.788,-0.697 1.348,0 2.11,0.474 2.11,1.26 0,0.789 -0.769,1.266 -2.11,1.266 -0.938,0 -1.606,-0.261 -1.782,-0.702l-2.126 0c0.258,0.949 1.81,1.573 3.944,1.573 2.396,0 4.193,-0.785 4.193,-2.137 0,-1.341 -1.797,-2.131 -4.193,-2.131zm-4.8 0.063l-2.108 0 0 1.053 -1.108 0.629 -2.244 -1.682 -2.414 0 3.28 2.357 -3.158 1.785 2.48 0 1.951 -1.134c0.403,-0.239 0.81,-0.475 1.213,-0.714l0 1.848 2.108 0 0 -4.142zm-15.283 -0.084c-2.613,0 -4.442,0.688 -4.442,1.642 0,0.655 0.955,1.206 2.578,1.307l0 0.01c-1.318,0.13 -2.223,0.57 -2.223,1.191 0,0.898 1.72,1.539 4.106,1.539 2.549,0 4.176,-0.737 4.176,-1.742l-2.267 0c0,0.532 -0.76,0.872 -1.909,0.872 -1.112,0 -1.872,-0.311 -1.872,-0.784 0,-0.442 0.805,-0.719 2.066,-0.719l1.041 0 0 -0.835 -1.041 0c-1.373,0 -2.287,-0.306 -2.287,-0.776 0,-0.492 0.853,-0.817 2.095,-0.817 1.323,0 2.115,0.381 2.115,1.021l2.299 0c0,-1.052 -1.533,-1.909 -4.435,-1.909z"/>
   <path id="sony" class="fil23" d="M282.32 160.344c-3.7,0 -7.129,-1.102 -9.415,-3.158 -1.63,-1.464 -2.562,-3.554 -2.562,-5.746 0,-0.029 0.001,-0.06 0.001,-0.088 0,-0.006 0,-0.013 0,-0.019 0,-2.206 0.93,-4.312 2.561,-5.796 2.123,-1.929 5.878,-3.153 9.415,-3.153 3.912,0 7.045,0.985 9.439,3.157 1.61,1.47 2.528,3.552 2.528,5.732 0,0.026 0,0.053 0,0.078 -0.012,2.208 -0.926,4.318 -2.528,5.836 -2.23,2.067 -5.733,3.157 -9.439,3.157l0 -2.363c1.961,0 3.782,-0.678 5.053,-1.943 1.272,-1.265 1.849,-2.8 1.849,-4.694 0,-1.809 -0.634,-3.499 -1.849,-4.695 -1.255,-1.235 -3.118,-1.93 -5.053,-1.93 -1.935,0 -3.806,0.689 -5.062,1.93 -1.21,1.198 -1.836,2.895 -1.836,4.695 -0.001,0.044 -0.002,0.091 -0.002,0.137 0,1.699 0.659,3.333 1.838,4.556 1.256,1.251 3.115,1.943 5.062,1.943l0 2.364zm-27.018 -17.96c-1.978,0 -4.225,0.371 -6.123,1.224 -1.771,0.792 -3.214,2.063 -3.214,4.172 0,0.003 0,0.007 0,0.01 0,1.1 0.42,2.16 1.174,2.961 0.512,0.474 1.338,1.278 3.498,1.752 0.965,0.204 3.028,0.532 5.084,0.748 2.055,0.217 4.047,0.408 4.863,0.627 0.649,0.165 1.741,0.39 1.741,1.615 0,1.224 -1.149,1.591 -1.349,1.671 -0.2,0.08 -1.58,0.712 -4.058,0.712 -1.638,-0.044 -3.27,-0.326 -4.831,-0.829 -0.925,-0.331 -1.894,-0.766 -2.798,-1.87 -0.364,-0.521 -0.567,-1.138 -0.581,-1.773l-2.245 0 0 6.287 2.494 0 0 -0.851c0,-0.001 0,-0.002 0,-0.003 0,-0.196 0.159,-0.355 0.355,-0.355 0.064,0 0.128,0.018 0.183,0.052 1.174,0.511 2.399,0.909 3.649,1.18 1.31,0.274 2.157,0.472 3.786,0.472 0.099,0 0.207,0.001 0.308,0.001 1.615,0 3.224,-0.244 4.767,-0.72 1.088,-0.297 2.114,-0.805 3.013,-1.487 1.019,-0.781 1.615,-1.992 1.615,-3.276 0,-0.01 0,-0.021 0,-0.032 0,-0.011 0,-0.022 0,-0.033 0,-1.201 -0.468,-2.357 -1.304,-3.22 -0.469,-0.455 -1.014,-0.828 -1.608,-1.1 -0.637,-0.288 -1.304,-0.522 -1.984,-0.693 -1.294,-0.316 -4.2,-0.712 -5.59,-0.85 -1.457,-0.152 -3.986,-0.362 -4.996,-0.674 -0.307,-0.096 -0.931,-0.392 -0.931,-1.116 0,-0.517 0.286,-0.954 0.849,-1.307 0.896,-0.561 2.704,-0.91 4.59,-0.91 0.05,0.001 0.109,-0.001 0.161,-0.001 1.77,0 3.528,0.356 5.159,1.041 0.45,0.196 0.877,0.451 1.264,0.755 0.632,0.539 1.072,1.273 1.247,2.085l2.015 0 0 -5.472 -2.245 0 0 0.635c0,0.204 -0.204,0.473 -0.613,0.251 -1.012,-0.526 -3.857,-1.665 -7.345,-1.679zm49.287 1.003l10.972 9.901 -0.112 -6.666c-0.012,-0.875 -0.172,-1.24 -1.119,-1.24l-2.061 0 0 -1.995 9.388 0 0 1.995 -2.014 0c-0.964,0 -1.021,0.31 -1.037,1.24l0.169 12.738 -3.214 0 -12.64 -11.278 0 8.002c0.011,0.872 0.051,1.282 0.947,1.282l2.245 0 0 1.994 -9.202 0 0 -1.994 2.155 0c0.804,0 0.771,-0.767 0.771,-1.327l0 -9.341c0,-0.612 -0.085,-1.314 -1.347,-1.314l-1.747 -0.001 0 -1.996 7.846 0zm27.779 13.975c0,0 0,0 0,0 0.186,0 0.371,-0.012 0.555,-0.035 0.194,-0.058 0.352,-0.198 0.433,-0.384 0.028,-0.141 0.042,-0.286 0.043,-0.43l0 -3.154c0,-0.105 0,-0.108 -0.135,-0.275 -0.135,-0.167 -5.747,-6.531 -6.002,-6.817 -0.319,-0.347 -0.878,-0.884 -1.729,-0.884l-1.949 0 0 -1.996 11 0 0 1.993 -1.326 0c-0.306,0 -0.51,0.291 -0.249,0.612 0,0 3.702,4.429 3.737,4.476 0.035,0.046 0.065,0.057 0.112,0.014 0.047,-0.043 3.794,-4.449 3.823,-4.49 0.05,-0.067 0.078,-0.148 0.078,-0.231 0,-0.211 -0.171,-0.382 -0.382,-0.382 -0.007,0 -0.015,0 -0.023,0.001l-1.361 0 0 -1.993 9.019 0 0 1.996 -2.015 0c-0.73,0 -1.02,0.135 -1.577,0.756l-6.072 6.927c-0.049,0.071 -0.076,0.157 -0.076,0.244 0,0.016 0.001,0.033 0.003,0.05l0 3.151c0,0.144 0.016,0.289 0.044,0.431 0.08,0.185 0.238,0.325 0.431,0.383 0.174,0.023 0.352,0.035 0.529,0.035 0.007,0 0.015,0 0.022,0l2.059 0 0 1.996 -10.943 0 0 -1.996 1.951 0.002z"/>
   <path class="fil23" d="M226.965 187.007c2.072,0 3.362,-1.031 3.362,-2.66 0,-1.282 -0.812,-2.036 -2.622,-2.44l-0.886 -0.203c-1.14,-0.265 -1.592,-0.593 -1.592,-1.179 0,-0.713 0.686,-1.21 1.656,-1.21 1.022,0 1.692,0.557 1.756,1.474l1.466 0c-0.052,-1.732 -1.26,-2.781 -3.216,-2.781 -1.932,0 -3.21,1.037 -3.21,2.593 0,1.225 0.8,1.99 2.546,2.388l0.94 0.212c1.168,0.268 1.626,0.626 1.626,1.24 0,0.768 -0.722,1.258 -1.814,1.258 -1.216,0 -1.944,-0.626 -1.954,-1.68l-1.514 0c0,1.868 1.292,2.988 3.456,2.988zm4.522 -0.133l6.064 0 0 -1.341 -4.516 0 0 -2.426 4.176 0 0 -1.32 -4.176 0 0 -2.305 4.516 0 0 -1.341 -6.064 0 0 8.733zm7.184 0l5.596 0 0 -1.341 -4.048 0 0 -7.394 -1.548 0 0 8.735zm6.598 0l6.064 0 0 -1.341 -4.516 0 0 -2.426 4.176 0 0 -1.32 -4.176 0 0 -2.305 4.516 0 0 -1.341 -6.064 0 0 8.733zm10.986 0.131c1.968,0 3.468,-1.218 3.762,-3.118l-1.57 0c-0.246,1.104 -1.068,1.731 -2.18,1.731 -1.606,0 -2.566,-1.234 -2.566,-3.104 0,-1.883 0.966,-3.117 2.566,-3.117 1.118,0 1.94,0.633 2.174,1.742l1.576 0c-0.294,-1.905 -1.794,-3.13 -3.762,-3.13 -2.408,0 -4.114,1.769 -4.114,4.505 0,2.717 1.706,4.491 4.114,4.491zm4.432 -7.523l2.718 0 0 7.393 1.548 0 0 -7.393 2.706 0 0 -1.341 -6.972 0 0 1.341z"/>
   <path class="fil23" d="M334.093 187.007c2.072,0 3.362,-1.031 3.362,-2.66 0,-1.282 -0.812,-2.036 -2.622,-2.44l-0.886 -0.203c-1.14,-0.265 -1.592,-0.593 -1.592,-1.179 0,-0.713 0.686,-1.21 1.656,-1.21 1.022,0 1.692,0.557 1.756,1.474l1.466 0c-0.052,-1.732 -1.26,-2.781 -3.216,-2.781 -1.932,0 -3.21,1.037 -3.21,2.593 0,1.225 0.8,1.99 2.546,2.388l0.94 0.212c1.168,0.268 1.626,0.626 1.626,1.24 0,0.768 -0.722,1.258 -1.814,1.258 -1.216,0 -1.944,-0.626 -1.954,-1.68l-1.514 0c0,1.868 1.292,2.988 3.456,2.988zm3.86 -7.525l2.718 0 0 7.393 1.548 0 0 -7.393 2.706 0 0 -1.341 -6.972 0 0 1.341zm6.156 7.393l1.664 0 0.714 -2.088 3.388 0 0.696 2.088 1.706 0 -3.106 -8.736 -1.944 0 -3.118 8.736zm2.812 -3.36l0.422 -1.229c0.264,-0.805 0.528,-1.643 0.856,-2.745 0.328,1.102 0.586,1.94 0.844,2.745l0.41 1.229 -2.532 0zm6.166 3.36l1.548 0 0 -3.18 1.758 0c0.016,0 0.028,0 0.04,0l1.642 3.18 1.692 0 -1.81 -3.46c1.03,-0.42 1.646,-1.292 1.646,-2.485 0,-1.716 -1.192,-2.791 -3.112,-2.791l-3.404 0 0 8.736zm1.548 -4.451l0 -2.976 1.77 0c1.042,0 1.686,0.57 1.686,1.482 0,0.918 -0.644,1.494 -1.676,1.494l-1.78 0zm5.459 -2.942l2.719 0 0 7.393 1.548 0 0 -7.393 2.705 0 0 -1.341 -6.972 0 0 1.341z"/>
  </g>
  <g id="dpad">
   <g>
    <path class="fil25" d="M113.492 178.938l0 -17.063c0,-2.082 1.698,-3.78 3.78,-3.78l21.543 0c2.082,0 3.779,1.698 3.779,3.78l0 17.063c0,1.041 -0.371,1.936 -1.107,2.672l-10.771 10.772c-1.472,1.472 -3.873,1.472 -5.345,0l-10.772 -10.772c-0.736,-0.736 -1.107,-1.631 -1.107,-2.672z"/>
    <path class="fil26" d="M129.381 191.047l10.77 -10.773c0.389,-0.388 0.554,-0.787 0.554,-1.336l0 -17.063c0,-1.039 -0.851,-1.89 -1.89,-1.89l-21.543 0c-1.047,0 -1.89,0.843 -1.89,1.89l0 17.063c0,0.549 0.165,0.948 0.553,1.336l10.772 10.772c0.366,0.366 0.851,0.55 1.336,0.55 0.489,0 0.974,-0.183 1.338,-0.549z"/>
   </g>
   <g>
    <path class="fil27" d="M162.141 188.521l7.099 0c2.082,0 3.78,1.697 3.78,3.779l0 21.544c0,2.081 -1.698,3.779 -3.78,3.779l-7.099 0 -1.89 -14.551 1.89 -14.551z"/>
    <path class="fil28" d="M152.177 188.521l9.964 0 0 29.102 -9.964 0c-1.04,0 -1.936,-0.371 -2.672,-1.107l-10.772 -10.772c-1.472,-1.472 -1.472,-3.873 0,-5.345l10.772 -10.771c0.736,-0.736 1.632,-1.107 2.672,-1.107z"/>
    <path class="fil29" d="M140.066 201.735c-0.366,0.362 -0.547,0.847 -0.547,1.337 0,0.485 0.184,0.97 0.55,1.336l10.772 10.772c0.389,0.389 0.787,0.553 1.336,0.553l17.063 0c1.048,0 1.89,-0.841 1.89,-1.889l0 -21.544c0,-1.038 -0.851,-1.89 -1.89,-1.89l-17.063 0c-0.549,0 -0.947,0.165 -1.336,0.554l-10.775 10.771z"/>
   </g>
   <g>
    <path class="fil27" d="M83.067 213.844l0 -21.544c0,-2.082 1.698,-3.779 3.779,-3.779l7.1 0 1.89 14.551 -1.89 14.551 -7.1 0c-2.081,0 -3.779,-1.698 -3.779,-3.779z"/>
    <path class="fil28" d="M93.946 188.521l9.963 0c1.041,0 1.937,0.371 2.673,1.107l10.771 10.771c1.472,1.472 1.472,3.873 0,5.345l-10.771 10.772c-0.736,0.736 -1.632,1.107 -2.673,1.107l-9.963 0 0 -29.102z"/>
    <path class="fil29" d="M116.019 204.41c0.366,-0.364 0.549,-0.85 0.549,-1.338 0,-0.485 -0.184,-0.97 -0.551,-1.337l-10.771 -10.771c-0.389,-0.389 -0.787,-0.554 -1.337,-0.554l-17.063 0c-1.047,0 -1.889,0.843 -1.889,1.89l0 21.544c0,1.038 0.851,1.889 1.889,1.889l17.063 0c0.55,0 0.948,-0.164 1.337,-0.553l10.773 -10.77z"/>
   </g>
   <g>
    <path class="fil30" d="M142.594 227.206l0 17.063c0,2.082 -1.697,3.779 -3.779,3.779l-21.543 0c-2.082,0 -3.78,-1.697 -3.78,-3.779l0 -17.063c0,-1.04 0.371,-1.936 1.107,-2.672l10.772 -10.772c1.472,-1.472 3.873,-1.472 5.345,0l10.771 10.772c0.736,0.736 1.107,1.632 1.107,2.672z"/>
    <path class="fil31" d="M126.707 215.095l-10.772 10.775c-0.388,0.389 -0.553,0.787 -0.553,1.336l0 17.063c0,1.047 0.843,1.89 1.89,1.89l21.543 0c1.039,0 1.89,-0.852 1.89,-1.89l0 -17.063c0,-0.549 -0.165,-0.947 -0.554,-1.336l-10.771 -10.772c-0.367,-0.366 -0.851,-0.55 -1.337,-0.55 -0.489,0 -0.974,0.181 -1.336,0.547z"/>
   </g>
  </g>
  <g id="button-ps">
   <circle class="fil32" cx="296.986" cy="234.442" r="15.874"/>
   <path class="fil33" d="M296.986 219.951c6.538,0 12.065,4.331 13.869,10.281 0.035,0.114 -0.025,0.235 -0.136,0.277 -0.116,0.043 -0.245,-0.013 -0.291,-0.127 -2.145,-5.318 -7.355,-9.071 -13.442,-9.071 -6.088,0 -11.299,3.754 -13.444,9.074 -0.046,0.114 -0.175,0.17 -0.29,0.127 -0.111,-0.042 -0.171,-0.163 -0.136,-0.277 1.802,-5.951 7.33,-10.284 13.87,-10.284z"/>
   <path id="ps" class="fil34" d="M308.865 239.396c-0.472,0.596 -1.63,1.021 -1.63,1.021 0,0 -8.612,3.093 -8.612,3.093 0,0 0,-2.281 0,-2.281 0,0 6.338,-2.258 6.338,-2.258 0.719,-0.258 0.829,-0.622 0.245,-0.813 -0.583,-0.192 -1.64,-0.137 -2.36,0.122 0,0 -4.223,1.487 -4.223,1.487 0,0 0,-2.367 0,-2.367 0,0 0.244,-0.083 0.244,-0.083 0,0 1.22,-0.432 2.936,-0.622 1.716,-0.189 3.817,0.026 5.466,0.652 1.859,0.587 2.068,1.453 1.596,2.049l0 0zm-9.422 -3.884c0,0 0,-5.834 0,-5.834 0,-0.685 -0.126,-1.316 -0.769,-1.494 -0.492,-0.158 -0.798,0.299 -0.798,0.984 0,0 0,14.608 0,14.608 0,0 -3.94,-1.25 -3.94,-1.25 0,0 0,-17.418 0,-17.418 1.675,0.311 4.116,1.045 5.428,1.488 3.337,1.145 4.468,2.571 4.468,5.783 0,3.131 -1.933,4.318 -4.389,3.133l0 0zm-12.736 5.479c-1.908,-0.538 -2.226,-1.657 -1.356,-2.302 0.804,-0.596 2.171,-1.044 2.171,-1.044 0,0 5.649,-2.009 5.649,-2.009 0,0 0,2.29 0,2.29 0,0 -4.065,1.455 -4.065,1.455 -0.718,0.258 -0.828,0.623 -0.245,0.814 0.584,0.191 1.641,0.137 2.36,-0.122 0,0 1.95,-0.707 1.95,-0.707 0,0 0,2.048 0,2.048 -0.124,0.022 -0.262,0.044 -0.389,0.066 -1.95,0.318 -4.028,0.185 -6.075,-0.489l0 0z"/>
  </g>
  <path id="FF" class="fil35" d="M525.252 405.881c-2.196,-0.952 -3.115,-2.027 -1.763,-2.062 1.951,-0.05 2.193,-0.211 2.645,-1.761 0.852,-2.912 1.306,-4.961 1.181,-5.324 -0.093,-0.271 -0.742,-0.157 -2.468,0.434 -2.413,0.826 -3.53,0.884 -3.18,0.165 0.185,-0.377 3.775,-2.302 10.764,-5.768 6.14,-3.046 7.97,-4.414 12.612,-9.43 0.801,-0.866 2.534,-2.236 3.904,-3.086 2.356,-1.462 2.48,-1.592 2.827,-2.934 0.2,-0.772 0.26,-1.453 0.136,-1.514 -0.616,-0.3 -3.736,0.897 -6.036,2.317 -3.192,1.971 -8.293,4.345 -14.649,6.818 -6.273,2.44 -6.949,2.511 -8.103,0.841 -1.398,-2.024 -3.437,-2.197 -6.217,-0.527 -2.671,1.603 -3.92,4.193 -3.143,6.519 0.3,0.9 0.284,0.93 -0.288,0.546 -0.352,-0.236 -0.819,-1.024 -1.112,-1.877 -0.279,-0.809 -0.885,-1.947 -1.347,-2.529 -0.462,-0.583 -1.054,-1.679 -1.315,-2.437 -0.439,-1.275 -0.42,-1.408 0.253,-1.799 0.4,-0.233 1.224,-0.948 1.832,-1.589 0.608,-0.641 1.588,-1.332 2.178,-1.535 0.936,-0.322 1.152,-0.273 1.699,0.386 0.618,0.746 0.612,0.77 -0.466,1.747 -0.601,0.545 -1.367,1.093 -1.702,1.218 -0.603,0.226 -1.309,1.732 -1.344,2.872 -0.017,0.575 -0.007,0.572 0.327,-0.107 0.702,-1.423 2.574,-2.437 3.301,-1.788 0.286,0.256 0.584,0.243 0.968,-0.042 0.497,-0.369 0.491,-0.534 -0.065,-1.6 -0.432,-0.83 -0.519,-1.223 -0.286,-1.303 0.193,-0.066 0.292,0.066 0.237,0.315 -0.056,0.251 0.129,0.138 0.444,-0.27 0.62,-0.805 0.608,-1.758 -0.02,-1.541 -0.232,0.08 -0.432,0.327 -0.443,0.549 -0.011,0.222 -0.13,0.12 -0.263,-0.227 -0.177,-0.46 -0.082,-0.685 0.352,-0.835 1.089,-0.374 3.355,-2.146 3.226,-2.521 -0.07,-0.203 -0.5,-0.839 -0.956,-1.414 -1.151,-1.449 -2.392,-4.249 -2.351,-5.3 0.04,-1.022 1.265,-2.5 1.669,-2.013 0.139,0.167 0.056,-0.163 -0.184,-0.735 -0.305,-0.725 -0.321,-1.079 -0.051,-1.172 0.51,-0.176 1.021,1.322 0.853,2.498 -0.071,0.496 0.135,1.96 0.458,3.255 0.49,1.963 0.683,2.389 1.166,2.571 0.627,0.237 1.216,1.508 0.77,1.661 -0.322,0.111 2.95,2.809 3.875,3.196 0.9,0.375 3.672,0.197 4.523,-0.291 1.095,-0.628 1.075,-1.397 -0.095,-3.63 -2.403,-4.584 -2.317,-4.164 -0.916,-4.446 0.759,-0.152 1.457,-0.484 1.802,-0.856 0.84,-0.905 1.922,-0.365 2.473,1.234 0.51,1.483 0.674,1.498 3.967,0.363 3.024,-1.04 3.031,-1.059 1.531,-3.901 -1.156,-2.189 -3.262,-4.422 -4.826,-5.116 -0.553,-0.245 -1.998,-1.059 -3.212,-1.808 -2.099,-1.296 -6.154,-2.974 -7.834,-3.242 -0.889,-0.142 -1.547,0.274 -1.348,0.852 0.074,0.215 1.071,1.068 2.215,1.897 1.934,1.402 2.31,1.54 5.357,1.968 2.763,0.389 3.413,0.6 4.155,1.347 0.483,0.487 0.845,0.955 0.803,1.04 -0.041,0.085 -0.616,0.12 -1.276,0.078 -1.127,-0.073 -1.238,-0.026 -1.805,0.767 -0.831,1.164 -1.133,2.53 -0.69,3.126 0.202,0.272 0.246,0.536 0.099,0.586 -0.414,0.143 -1.023,-0.345 -1.526,-1.219 -0.25,-0.437 -0.854,-1.228 -1.341,-1.759 -0.887,-0.964 -0.887,-0.964 -0.622,0.505 0.173,0.958 0.105,1.768 -0.195,2.329 -0.41,0.766 -0.549,0.844 -1.279,0.716 -0.451,-0.08 -1.03,-0.077 -1.286,0.005 -0.846,0.271 -1.937,-0.868 -2.225,-2.321 -0.253,-1.281 -0.286,-1.313 -1.405,-1.385 -0.63,-0.041 -1.24,-0.215 -1.354,-0.389 -0.115,-0.173 -0.532,-0.745 -0.927,-1.272 -0.556,-0.743 -0.673,-1.076 -0.519,-1.483 0.332,-0.881 -0.317,-1.262 -1.587,-0.93 -1.472,0.385 -1.85,-0.058 -0.554,-0.647 0.528,-0.24 1.074,-0.623 1.214,-0.853 0.177,-0.291 0.402,-0.361 0.743,-0.233 1.138,0.429 0.683,-0.619 -0.712,-1.646 -0.523,-0.384 -1.306,-1.692 -2.494,-4.167 -0.953,-1.985 -1.771,-3.72 -1.818,-3.856 -0.228,-0.664 -0.884,0.579 -0.977,1.854 -0.133,1.812 -1.594,7.161 -2.365,8.659 -0.727,1.413 -0.846,1.131 -0.326,-0.766 0.656,-2.382 0.759,-3.687 0.459,-5.767 -0.156,-1.08 -0.347,-1.996 -0.423,-2.035 -0.076,-0.04 -0.347,0.478 -0.603,1.15 -0.982,2.582 -1.994,4.943 -2.19,5.112 -0.395,0.341 -0.382,-0.358 0.02,-1.088 1.061,-1.925 2.57,-9.063 1.973,-9.337 -0.137,-0.064 -0.458,0.456 -0.715,1.155 -2.085,5.691 -3.021,8.019 -3.257,8.101 -0.151,0.052 -0.105,-0.428 0.103,-1.066 0.924,-2.838 1.198,-5.237 1.112,-9.759 -0.023,-1.209 -0.06,-1.302 -0.333,-0.851 -0.275,0.451 -0.299,0.384 -0.229,-0.618 0.285,-4.05 0.999,-6.687 2.167,-7.994 0.214,-0.241 0.304,-0.48 0.198,-0.531 -0.105,-0.051 -1.245,0.987 -2.533,2.307 -1.288,1.321 -2.836,2.833 -3.439,3.361 -0.603,0.528 -2.017,1.784 -3.141,2.791 -1.124,1.007 -2.103,1.802 -2.175,1.767 -0.072,-0.035 1.244,-1.577 2.923,-3.426 3.175,-3.496 4.023,-4.688 3.798,-5.341 -0.102,-0.298 -0.238,-0.272 -0.593,0.111 -0.253,0.272 -0.38,0.628 -0.283,0.789 0.176,0.292 -2.687,2.564 -3.023,2.4 -0.096,-0.047 -0.05,-0.129 0.103,-0.181 0.152,-0.053 0.948,-0.898 1.768,-1.878 0.82,-0.98 1.847,-1.908 2.283,-2.062 1.161,-0.41 2.564,-1.847 4.941,-5.059 1.16,-1.567 2.141,-2.901 2.18,-2.964 0.04,-0.063 -0.06,-0.222 -0.22,-0.353 -0.317,-0.26 -0.948,0.286 -1.556,1.344 -1.98,3.444 -4.044,5.451 -8.052,7.832 -4.413,2.623 -4.684,2.565 -1.127,-0.24 3.156,-2.488 9.393,-8.701 10.691,-10.65 0.389,-0.584 1.507,-1.82 2.484,-2.747 5.624,-5.335 10.243,-7.522 13.564,-6.425 0.455,0.15 1.507,0.265 2.338,0.256 1.806,-0.02 3.154,0.62 4.546,2.16 0.933,1.032 1.29,1.868 3.789,8.871 2.204,6.179 2.731,7.909 2.62,8.61 -0.122,0.777 -0.024,0.994 0.87,1.914 0.77,0.793 1.033,1.286 1.114,2.093 0.058,0.581 0.008,0.813 -0.112,0.516 -0.304,-0.75 -2.039,3.287 -1.771,4.121 0.288,0.902 0.959,1.01 5.264,0.85 0.732,-0.027 1.285,0.105 1.242,0.296 -0.043,0.19 0.027,0.218 0.156,0.061 0.271,-0.332 3.306,0.148 3.443,0.544 0.172,0.5 -0.518,0.78 -2.688,1.091 -1.204,0.173 -2.672,0.16 -3.309,-0.027 -1.145,-0.339 -1.145,-0.339 -1.643,0.85 -0.375,0.893 -0.397,1.366 -0.084,1.908 0.303,0.525 0.302,0.597 -0.003,0.266 -0.363,-0.393 -0.492,-0.209 -0.977,1.409 -0.558,1.863 -0.558,1.863 0.151,1.401 0.708,-0.462 0.708,-0.462 0.987,0.945 0.161,0.812 0.119,1.706 -0.099,2.115 -0.51,0.958 -0.345,2.753 0.571,6.236 0.422,1.606 0.726,3.486 0.676,4.179 -0.145,2 0.055,2.201 1.018,1.027 0.778,-0.949 2.702,-2.519 2.786,-2.274 0.02,0.06 -0.251,0.41 -0.604,0.78 -1.081,1.135 -3.294,4.823 -2.79,4.65 0.566,-0.195 1.169,-0.941 3.246,-4.016 2.125,-3.148 2.789,-4.693 2.717,-6.322 -0.056,-1.258 0.016,-1.4 0.89,-1.73 0.523,-0.197 1.154,-0.289 1.401,-0.205 0.302,0.103 0.413,0.046 0.338,-0.172 -0.127,-0.37 -1.449,-0.472 -2.384,-0.185 -0.354,0.109 -1.151,-0.127 -1.832,-0.542 -0.663,-0.405 -1.012,-0.694 -0.777,-0.643 0.721,0.156 0.289,-0.444 -0.741,-1.031 -0.973,-0.554 -1.141,-0.179 -0.279,0.621 0.424,0.393 0.327,0.46 -1.345,0.928 -1.84,0.515 -2.112,0.384 -1.672,-0.802 0.314,-0.847 2.982,-4.122 4.514,-5.541 0.784,-0.726 1.739,-1.944 2.124,-2.706 0.698,-1.385 0.698,-1.385 2.636,-0.635 1.066,0.412 2.516,0.875 3.223,1.028 0.707,0.153 1.355,0.493 1.44,0.755 0.139,0.434 0.104,0.444 -0.394,0.11 -0.647,-0.433 -1.468,-0.197 -1.98,0.568 -0.533,0.795 -0.306,1.115 0.998,1.41 1.317,0.296 2.027,0.143 2.059,-0.446 0.012,-0.222 0.111,-0.006 0.22,0.48 0.109,0.485 0.147,2.016 0.085,3.401 -0.124,2.758 0.253,4.396 1.018,4.423 0.344,0.012 0.632,0.447 1.002,1.513 0.631,1.813 1.14,2.338 1.456,1.5 0.148,-0.391 0.003,-1.019 -0.463,-1.997 -0.962,-2.019 -2.064,-3.525 -2.186,-2.986 -0.079,0.351 -0.166,0.381 -0.442,0.155 -0.205,-0.167 -0.201,-0.485 0.007,-0.785 0.193,-0.278 0.278,-0.716 0.189,-0.975 -0.224,-0.65 0.89,-1.694 1.493,-1.4 0.593,0.289 1.355,0.006 1.579,-0.587 0.135,-0.357 -0.007,-0.551 -0.564,-0.772 -0.41,-0.161 -0.792,-0.562 -0.85,-0.89 -0.174,-0.977 0.388,-0.981 0.832,-0.006 0.474,1.041 1.321,1.195 3.139,0.568 1.491,-0.513 2.464,-1.471 3.632,-3.574 0.95,-1.711 0.954,-1.747 0.278,-2.511 -0.613,-0.692 -0.654,-0.877 -0.381,-1.732 0.515,-1.614 1.408,-2.344 3.625,-2.964 1.914,-0.536 1.985,-0.531 2.086,0.173 0.093,0.645 0.207,0.694 0.995,0.422 0.49,-0.168 1.106,-0.603 1.369,-0.965 0.573,-0.789 1.085,-0.738 1.387,0.139 0.258,0.75 -0.152,1.568 -2.017,4.023 -1.326,1.746 -1.707,2.667 -1.431,3.469 0.097,0.28 0.379,0.27 0.972,-0.037 0.774,-0.401 0.828,-0.381 0.725,0.26 -0.163,1.006 0.023,1.323 0.646,1.108 0.96,-0.33 1.101,0.211 0.165,0.637 -0.685,0.312 -0.85,0.542 -0.701,0.975 0.138,0.401 0.376,0.499 0.807,0.334 0.366,-0.14 0.736,-0.044 0.924,0.237 0.437,0.656 0.142,0.89 -0.923,0.732 -0.806,-0.119 -0.912,-0.075 -0.928,0.386 -0.019,0.547 1.333,1.225 1.993,0.998 0.197,-0.068 0.584,0.013 0.858,0.18 0.66,0.401 0.315,1.429 -0.499,1.491 -0.978,0.075 -0.914,1.172 0.18,3.091 0.531,0.931 1.059,1.578 1.174,1.437 0.115,-0.14 0.111,-0.459 -0.007,-0.708 -0.45,-0.942 -0.588,-2.99 -0.222,-3.297 0.593,-0.497 1.048,-0.094 1.016,0.9 -0.015,0.493 0.141,1.124 0.347,1.402 0.207,0.278 0.534,1.705 0.728,3.171 0.352,2.667 0.352,2.667 1.606,3.382 0.689,0.394 1.292,0.828 1.339,0.966 0.256,0.744 -0.022,1.291 -0.788,1.555 -0.462,0.159 -1.015,0.477 -1.23,0.707 -0.214,0.23 -0.993,0.848 -1.73,1.372 -1.34,0.956 -1.34,0.956 -3.84,0.564 -1.375,-0.216 -2.823,-0.281 -3.219,-0.145 -1.245,0.429 -0.543,1.094 1.348,1.279 0.975,0.095 2.247,0.458 2.828,0.806 1.3,0.779 1.981,0.48 4.746,-2.082 1.038,-0.961 1.944,-1.723 2.014,-1.694 0.07,0.03 0.133,0.335 0.142,0.677 0.01,0.413 -0.633,1.185 -1.91,2.292 -1.774,1.54 -2.597,2.635 -2.403,3.198 0.21,0.61 -1.432,4.977 -3.171,8.434 -7.886,15.67 -34.795,27.124 -50.886,20.152zm25.291 -4.336c-0.313,-0.91 -0.638,-1.32 -1.261,-1.59 -2.116,-0.918 -4.493,-0.54 -6.692,1.065 -1.014,0.739 -1.014,0.739 0.705,0.373 1.68,-0.359 4.924,-0.15 5.088,0.328 0.154,0.447 1.77,1.331 2.178,1.191 0.288,-0.1 0.283,-0.493 -0.018,-1.367l0 0zm20.241 -19.269c0.798,-0.658 0.578,-1.866 -0.64,-3.517 -1.803,-2.445 -4.656,-4.78 -5.489,-4.493 -0.129,0.045 0.313,0.857 0.982,1.804 0.821,1.164 1.518,2.595 2.149,4.415 0.514,1.48 1.028,2.772 1.143,2.87 0.201,0.172 0.668,-0.1 1.855,-1.079l0 0zm-13.753 3.564c1.218,-1.813 1.187,-2.417 -0.225,-4.328 -0.998,-1.35 -1.009,-1.356 -1.903,-0.848 -0.688,0.392 -0.977,0.418 -1.231,0.115 -0.582,-0.694 -1.039,-0.204 -0.715,0.767 0.17,0.509 0.437,1.808 0.594,2.889 0.322,2.219 1.071,3.438 1.929,3.141 0.276,-0.097 0.975,-0.877 1.551,-1.736l0 0zm18.994 -10.725c-0.635,-0.301 -1.608,-0.615 -2.159,-0.695 -0.882,-0.129 -1.004,-0.09 -1.019,0.33 -0.009,0.263 0.123,0.591 0.292,0.729 0.567,0.465 2.455,0.729 3.253,0.455 0.79,-0.271 0.79,-0.271 -0.367,-0.819zm-1.461 -4.045c0.018,-1.165 -1.043,-4.413 -1.689,-5.174 -0.453,-0.534 -0.064,1.744 0.805,4.708 0.547,1.867 0.86,2.032 0.884,0.466zm-13.989 1.115c0.044,-0.195 -0.085,-0.203 -0.305,-0.02 -0.426,0.358 -0.446,0.592 -0.039,0.452 0.147,-0.051 0.302,-0.245 0.344,-0.432zm1.255 -3.083c0.47,-0.522 0.916,-2.135 0.735,-2.659 -0.037,-0.109 -0.675,-0.31 -1.417,-0.445 -1.313,-0.24 -1.364,-0.226 -1.877,0.508 -0.655,0.938 -0.555,1.268 0.732,2.397 1.147,1.007 1.105,1.002 1.827,0.199zm-14.348 2.622c0.368,-1.03 0.368,-1.03 -0.272,-0.917 -0.648,0.115 -2.375,2.206 -2.367,2.865 0.011,0.774 2.258,-0.886 2.639,-1.948l0 0zm-27.134 8.371c-0.418,-0.361 -0.452,-0.352 -0.314,0.072 0.085,0.262 0.327,0.678 0.537,0.925 0.35,0.41 0.377,0.404 0.314,-0.072 -0.038,-0.286 -0.28,-0.703 -0.537,-0.925zm46.856 -16.278c2.035,-1.041 2.367,-1.322 3.199,-2.704 1.974,-3.28 1.886,-2.977 1.076,-3.685 -0.404,-0.354 -1.042,-1.267 -1.417,-2.029 -0.85,-1.725 -0.752,-2.928 0.254,-3.122 1.248,-0.241 1.664,-1.859 0.454,-1.767 -0.343,0.026 -0.629,0.3 -0.718,0.687 -0.081,0.353 -0.406,0.731 -0.722,0.84 -0.315,0.109 -0.581,0.4 -0.589,0.649 -0.009,0.249 -0.701,1.165 -1.538,2.036 -1.487,1.548 -1.511,1.606 -1.04,2.483 0.424,0.792 0.41,0.904 -0.122,0.945 -0.82,0.062 -0.843,0.427 -0.072,1.16 0.962,0.916 0.857,1.626 -0.428,2.884 -0.637,0.624 -1.291,1.444 -1.453,1.823 -0.367,0.86 0.201,1.653 0.81,1.129 0.234,-0.203 1.271,-0.8 2.306,-1.329l0 0zm-13.689 2.151c-0.145,-0.43 -0.154,-0.819 -0.019,-0.865 0.36,-0.125 -0.415,-3.398 -0.857,-3.613 -0.24,-0.117 -0.237,0.041 0.009,0.448 0.331,0.55 0.317,0.579 -0.114,0.237 -0.272,-0.215 -0.599,-0.263 -0.728,-0.106 -0.156,0.191 -0.096,0.316 0.182,0.378 0.318,0.072 0.502,0.586 0.793,2.207 0.486,2.707 0.693,3.33 0.87,2.616 0.07,-0.286 0.009,-0.872 -0.136,-1.302l0 0zm-14.851 6.145c-0.151,-0.123 -0.675,-0.068 -1.166,0.122 -0.894,0.345 -0.894,0.345 0.032,0.268 1.341,-0.11 1.436,-0.143 1.134,-0.39zm12.329 -9.797c-0.08,-0.234 -0.337,-0.36 -0.571,-0.279 -0.443,0.153 -0.447,0.529 -0.009,0.743 0.439,0.214 0.733,-0.021 0.58,-0.464zm-1.791 -1.207c-0.146,-0.168 -0.156,0.014 -0.021,0.403 0.134,0.39 0.254,0.528 0.265,0.306 0.011,-0.222 -0.099,-0.541 -0.244,-0.709zm-19.566 5.515c-0.059,-0.171 0.169,-0.832 0.508,-1.469 0.709,-1.337 0.331,-1.916 -1.187,-1.816 -1.728,0.114 -1.741,0.454 -0.12,3.196 0.353,0.597 0.999,0.67 0.799,0.09l0 -0.001zm-4.776 0.408c0.043,-0.19 -0.058,-0.297 -0.223,-0.241 -0.165,0.057 -0.256,0.231 -0.203,0.387 0.054,0.156 0.154,0.265 0.223,0.241 0.069,-0.024 0.16,-0.198 0.203,-0.387l0 0zm15.363 -6.48c-0.216,-0.589 -2.081,-1.802 -2.248,-1.462 -0.134,0.276 1.896,2.132 2.216,2.026 0.117,-0.04 0.132,-0.293 0.032,-0.564l0 0zm31.098 -11.114c0.526,-0.567 0.797,-2.16 0.444,-2.602 -0.312,-0.39 -1.402,-0.029 -2.202,0.73 -0.672,0.638 -0.672,0.636 0.013,1.808 0.505,0.864 0.987,0.881 1.745,0.064l0 0zm-22.286 7.189c-0.084,-0.243 -0.253,-0.319 -0.376,-0.169 -0.122,0.15 -0.287,0.087 -0.365,-0.139 -0.078,-0.226 -0.359,-0.419 -0.623,-0.429 -0.641,-0.022 -0.38,0.693 0.39,1.068 0.764,0.373 1.169,0.235 0.974,-0.331l0 0zm-9.744 -0.195c-0.536,-3.01 -0.346,-2.804 -1.539,-1.664 -0.984,0.941 -1.018,1.044 -0.477,1.466 0.319,0.25 0.857,0.68 1.196,0.957 0.863,0.704 1.05,0.531 0.82,-0.759l0 0zm-1.688 -0.759c-0.132,-0.384 0.29,-0.796 0.576,-0.562 0.136,0.112 0.083,0.342 -0.119,0.512 -0.202,0.169 -0.408,0.193 -0.457,0.05zm-3.658 -3.586c-0.185,-0.155 -0.961,-0.725 -1.725,-1.268 -0.763,-0.544 -1.479,-1.256 -1.592,-1.582 -0.35,-1.019 -0.003,-2.997 0.882,-5.018 0.803,-1.834 1.061,-3.161 0.776,-3.989 -0.07,-0.202 -0.617,-0.734 -1.217,-1.183 -0.599,-0.45 -1.947,-1.809 -2.993,-3.021 -1.903,-2.204 -1.903,-2.204 -2.084,-1.069 -0.2,1.258 0.156,2.635 0.917,3.548 0.646,0.774 3.293,1.983 3.668,1.675 0.422,-0.347 0.751,0.207 0.835,1.407 0.078,1.097 -1.743,5.11 -2.356,5.193 -0.181,0.026 -0.301,0.297 -0.265,0.604 0.064,0.533 0.092,0.524 0.642,-0.185 0.795,-1.026 0.999,-0.793 0.432,0.492 -0.276,0.625 -0.568,0.951 -0.699,0.78 -0.123,-0.161 -0.354,-0.247 -0.514,-0.193 -0.16,0.055 -0.155,0.261 0.009,0.457 0.203,0.241 0.145,0.351 -0.18,0.34 -0.414,-0.014 -0.438,-0.113 -0.18,-0.717 0.38,-0.888 0.016,-1.09 -0.597,-0.334 -0.587,0.725 -0.532,0.869 0.55,1.449 0.483,0.258 1.222,0.903 1.644,1.433 0.982,1.234 1.453,1.521 2.655,1.617 1.266,0.1 1.826,-0.075 1.392,-0.436l0 0zm-0.673 -4.947c-0.101,-1.175 -0.767,-1.341 -1.042,-0.26 -0.125,0.493 -0.108,0.995 0.038,1.114 0.507,0.414 1.071,-0.066 1.004,-0.854l0 0zm-15.813 3.286c1.241,-0.251 1.533,-0.446 2.486,-1.651 1.437,-1.82 1.562,-2.166 2.041,-5.656 0.411,-2.997 0.411,-2.997 -0.843,-7.753 -1.295,-4.915 -1.297,-5.568 -0.015,-5.083 0.527,0.198 0.516,0.056 -0.102,-1.437 -0.377,-0.911 -0.593,-1.76 -0.48,-1.886 0.152,-0.169 2.048,1.941 2.353,2.619 0.021,0.047 0.139,-0.038 0.262,-0.188 0.122,-0.15 -0.001,-0.923 -0.275,-1.719 -0.497,-1.445 -0.497,-1.445 0.297,-1.114 0.795,0.331 0.795,0.331 0.209,-0.85 -0.445,-0.898 -0.88,-1.298 -1.809,-1.665 -1.519,-0.6 -1.664,-0.558 -1.697,0.484 -0.02,0.645 -0.187,0.861 -0.726,0.939 -0.927,0.133 -2.391,2.487 -1.906,3.065 0.474,0.564 0.854,0.344 0.852,-0.493 -0.002,-0.638 0.045,-0.617 0.45,0.209 0.248,0.506 0.35,1.046 0.225,1.198 -0.138,0.169 0.173,1.281 0.797,2.851 1.025,2.576 1.025,2.576 -0.168,3.024 -0.655,0.246 -1.361,0.482 -1.568,0.524 -0.208,0.042 -0.516,0.36 -0.685,0.706 -0.254,0.521 -0.666,0.717 -2.399,1.137 -2.281,0.554 -2.517,0.782 -2.386,2.309 0.04,0.459 -0.152,1.594 -0.425,2.522 -0.729,2.474 -0.632,2.544 1.949,1.426 1.578,-0.683 2.241,-0.863 2.321,-0.63 0.062,0.178 -0.041,0.399 -0.227,0.491 -0.696,0.337 -0.887,0.477 -1.504,1.09 -0.474,0.472 -0.874,0.626 -1.609,0.624 -0.914,-0.004 -0.962,0.04 -0.745,0.671 0.128,0.372 0.476,0.968 0.774,1.325 0.541,0.649 0.541,0.649 1.162,-0.22 0.782,-1.095 3.702,-2.234 3.942,-1.538 0.106,0.308 -0.17,0.534 -0.999,0.82 -1.228,0.422 -3.174,2.2 -2.77,2.531 0.134,0.109 0.529,-0.103 0.88,-0.472 0.704,-0.743 2.146,-1.353 2.28,-0.963 0.141,0.411 -0.41,1.116 -1.263,1.614 -0.508,0.297 -0.844,0.792 -0.917,1.349 -0.064,0.483 -0.134,1.017 -0.156,1.187 -0.023,0.168 0.19,-0.013 0.474,-0.403 0.389,-0.536 0.857,-0.779 1.92,-0.994l0 0zm10.852 -4.232c-0.103,-0.303 -0.088,-0.674 0.034,-0.824 0.123,-0.15 0.18,-0.4 0.126,-0.556 -0.182,-0.529 -0.5,0.204 -0.504,1.162 -0.002,0.579 0.103,0.917 0.265,0.861 0.149,-0.051 0.184,-0.341 0.079,-0.643zm-17.677 3.016c-0.217,-0.629 -0.303,-0.667 -0.56,-0.244 -0.167,0.274 -0.243,0.675 -0.17,0.89 0.074,0.215 0.326,0.324 0.56,0.244 0.27,-0.093 0.332,-0.418 0.17,-0.89zm-0.818 -10.023c1.74,-4.654 2.233,-6.711 1.447,-6.052 -0.216,0.181 -0.574,0.391 -0.795,0.467 -0.248,0.086 -0.301,0.438 -0.139,0.921 0.166,0.496 -0.041,1.743 -0.57,3.412 -0.458,1.447 -0.753,2.833 -0.656,3.081 0.163,0.412 0.181,0.406 0.214,-0.071 0.02,-0.287 0.245,-1.078 0.499,-1.758zm3.458 -3.731c0.36,-1.361 0.591,-2.659 0.513,-2.886 -0.078,-0.225 -0.077,-0.889 0.002,-1.475 0.126,-0.934 0.014,-0.807 -0.913,1.033 -0.582,1.154 -0.993,2.295 -0.916,2.536 0.078,0.241 0.002,1.057 -0.167,1.813 -0.367,1.637 -0.322,1.857 0.331,1.628 0.297,-0.104 0.757,-1.165 1.149,-2.649l0.001 0zm4.775 -2.083c-0.085,-0.58 -0.326,-1.317 -0.535,-1.639 -0.21,-0.322 -0.438,-1.111 -0.509,-1.755 -0.125,-1.144 -0.136,-1.154 -0.508,-0.479 -0.209,0.379 -0.425,1.061 -0.481,1.515 -0.055,0.454 -0.378,1.145 -0.717,1.536 -0.642,0.741 -1.447,2.745 -1.044,2.598 0.673,-0.246 2.121,-1.616 1.726,-1.633 -0.291,-0.014 -0.251,-0.096 0.112,-0.235 1.237,-0.47 1.451,-0.002 0.369,0.806 -1.082,0.808 -1.082,0.808 0.117,0.603 0.659,-0.113 1.294,-0.217 1.412,-0.233 0.118,-0.016 0.144,-0.503 0.058,-1.084l0 0zm4.069 -2.116c-0.165,-0.249 -0.146,-0.005 0.041,0.541 0.189,0.546 0.324,0.748 0.301,0.451 -0.023,-0.297 -0.176,-0.744 -0.342,-0.992l0 0zm3.069 -7.036c-0.169,-0.493 -0.555,-0.988 -0.855,-1.102 -0.837,-0.316 -0.774,-0.589 0.175,-0.768 1.086,-0.204 1.995,-1.344 1.854,-2.324 -0.133,-0.927 -0.619,-0.792 -2.06,0.572 -0.573,0.542 -1.347,1.091 -1.721,1.219 -0.805,0.278 -0.831,0.137 0.302,1.598 0.504,0.649 0.987,1.556 1.073,2.014 0.151,0.802 0.184,0.812 0.849,0.26 0.556,-0.461 0.632,-0.748 0.383,-1.469l0 0zm-11.968 1.172c-0.123,-0.358 -0.981,-0.345 -1.418,0.022 -0.203,0.17 -0.258,0.398 -0.124,0.508 0.318,0.26 1.655,-0.2 1.542,-0.53zm-6.5 53.418c-1.063,-1.271 -1.1,-1.877 -0.053,-0.865 1.021,0.987 1.555,1.794 1.257,1.897 -0.146,0.05 -0.687,-0.414 -1.204,-1.032l0 0zm-1.664 -2.171c-0.219,-0.325 -0.495,-0.914 -0.615,-1.308 -0.127,-0.424 0.063,-0.237 0.464,0.455 0.718,1.238 0.827,1.855 0.151,0.853zm16.347 -6.523c-0.982,-0.188 -1.804,-0.4 -1.828,-0.471 -0.068,-0.196 1.71,-0.011 2.019,0.21 0.147,0.105 0.946,0.145 1.775,0.087 1.238,-0.085 1.355,-0.049 0.661,0.206 -0.464,0.17 -1.647,0.155 -2.627,-0.032l0 0zm40.457 -16.941c-0.775,-0.818 -0.857,-1.127 -0.345,-1.303 0.234,-0.081 0.374,-0.295 0.312,-0.478 -0.063,-0.181 -0.016,-0.283 0.103,-0.225 0.119,0.059 0.142,0.436 0.051,0.839 -0.128,0.562 -0.071,0.753 0.245,0.826 0.23,0.053 0.37,0.286 0.316,0.525 -0.068,0.303 -0.271,0.249 -0.682,-0.184l0 0zm1.991 -1.069c-0.27,-0.131 0.04,-1.052 0.393,-1.174 0.137,-0.047 0.31,0.092 0.385,0.309 0.147,0.426 -0.41,1.045 -0.778,0.865l0 0zm-3.144 -1.402c-0.739,-0.212 -0.739,-0.212 -0.291,-1.13 0.548,-1.124 1.183,-1.62 1.868,-1.46 0.429,0.101 0.401,0.351 -0.16,1.462 -0.627,1.242 -0.731,1.325 -1.417,1.128zm3.429 -1.414c0.01,-0.316 0.115,-0.528 0.232,-0.471 0.118,0.057 0.109,0.316 -0.018,0.575 -0.185,0.375 -0.228,0.353 -0.214,-0.104zm-48.09 15.632c-1.787,-1.122 -2.734,-2.163 -2.151,-2.363 0.253,-0.088 3.386,2.267 3.515,2.64 0.159,0.462 -0.355,0.359 -1.364,-0.277l0 0zm42.433 -15.514c-0.572,-0.342 -1.071,-0.713 -1.109,-0.824 -0.039,-0.11 -1.497,-0.418 -3.242,-0.683 -2.491,-0.38 -3.175,-0.599 -3.188,-1.025 -0.011,-0.367 -0.338,-0.614 -1.008,-0.764 -2.061,-0.458 -4.503,-2.342 -3.49,-2.691 0.18,-0.062 0.855,0.062 1.499,0.276 0.645,0.213 1.341,0.247 1.546,0.074 0.209,-0.175 0.758,-0.14 1.24,0.078 1.024,0.463 2.73,0.758 2.859,0.494 0.159,-0.327 -0.85,-1.078 -1.755,-1.308 -0.898,-0.227 -2.53,-1.55 -2.097,-1.699 0.132,-0.045 0.872,0.124 1.644,0.376 0.773,0.253 1.501,0.43 1.62,0.395 0.434,-0.132 -0.136,-1.034 -0.913,-1.443 -0.764,-0.403 -0.796,-0.477 -0.72,-1.671 0.094,-1.46 0.364,-1.351 1.853,0.746 0.59,0.831 1.109,1.284 1.368,1.195 0.23,-0.079 0.389,-0.277 0.355,-0.439 -0.034,-0.163 -0.101,-0.461 -0.148,-0.663 -0.048,-0.202 0.337,-0.586 0.856,-0.853 0.759,-0.392 0.886,-0.59 0.65,-1.017 -0.161,-0.292 -0.486,-1.071 -0.724,-1.731 -0.38,-1.056 -0.509,-1.172 -1.08,-0.976 -0.357,0.123 -0.684,0.378 -0.726,0.568 -0.086,0.379 -1.228,0.855 -1.609,0.67 -0.132,-0.064 -0.198,-0.382 -0.146,-0.704 0.058,-0.364 -0.317,-1.454 -0.988,-2.87 -0.99,-2.088 -1.182,-2.321 -2.253,-2.738 -0.987,-0.384 -1.137,-0.543 -0.957,-1.018 0.321,-0.849 0.846,-0.887 1.795,-0.128 0.645,0.517 0.861,0.566 0.873,0.201 0.01,-0.266 -0.19,-0.491 -0.444,-0.5 -0.557,-0.019 -1.269,-1.939 -1.995,-5.385 -0.274,-1.297 -1.162,-4.469 -1.972,-7.049 -1.443,-4.59 -1.467,-4.726 -1.103,-6.317 0.204,-0.894 0.289,-2.367 0.187,-3.272 -0.102,-0.905 -0.216,-2.064 -0.254,-2.574 -0.038,-0.511 -0.203,-1.382 -0.367,-1.936 -0.164,-0.554 -0.299,-1.507 -0.301,-2.117 -0.003,-1.109 -0.003,-1.109 0.494,-0.17 0.498,0.939 0.498,0.939 0.671,-0.389 0.112,-0.865 0.384,-1.437 0.779,-1.639 0.745,-0.381 0.899,0.004 1.737,4.349 0.632,3.282 0.63,3.807 -0.018,4.984 -0.357,0.648 -0.525,0.737 -1.123,0.599 -0.387,-0.089 -0.715,-0.112 -0.729,-0.052 -0.014,0.061 -0.076,0.484 -0.137,0.941 -0.061,0.457 -0.182,1.254 -0.27,1.77 -0.088,0.516 -0.081,1.036 0.016,1.155 0.097,0.118 0.941,-0.675 1.875,-1.762 1.117,-1.302 2.037,-2.096 2.689,-2.325 0.991,-0.347 0.991,-0.347 -0.137,-4.003 -1.853,-6.012 -4.73,-14.319 -5.668,-16.367 -0.714,-1.56 -0.752,-1.724 -0.205,-0.881 1.008,1.55 5.373,13.611 6.841,18.899 1.275,4.597 1.283,4.658 1,7.903 -0.343,3.936 -0.216,5.629 0.586,7.79 0.333,0.899 0.544,1.299 0.469,0.888 -0.569,-3.11 -0.616,-8.928 -0.08,-9.807 0.068,-0.11 0.096,-0.976 0.063,-1.925 -0.05,-1.39 -0.015,-1.512 0.178,-0.627 0.131,0.602 0.166,2.552 0.077,4.333 -0.189,3.782 0.082,5.85 1.175,8.967 0.438,1.245 1.228,3.566 1.755,5.157 0.528,1.592 1.11,2.927 1.293,2.968 0.618,0.14 0.91,-1.101 0.61,-2.585 -0.164,-0.812 -0.219,-1.574 -0.121,-1.694 0.098,-0.12 0.262,0.188 0.366,0.684 0.122,0.585 0.272,0.8 0.426,0.612 0.153,-0.187 0.25,-0.055 0.273,0.371 0.019,0.365 0.05,0.931 0.069,1.259 0.018,0.328 0.195,0.632 0.391,0.677 0.457,0.103 0.631,0.583 0.257,0.712 -0.157,0.054 -0.822,0.632 -1.479,1.283 -1.275,1.263 -1.552,1.242 -1.863,-0.144 -0.147,-0.658 -0.252,-0.688 -1.133,-0.321 -1.508,0.628 -1.651,0.734 -1.515,1.127 0.069,0.201 0.689,0.343 1.377,0.315 0.981,-0.039 1.3,0.089 1.472,0.591 0.433,1.257 2.383,3.951 4.109,5.676 1.661,1.66 1.8,1.894 2.621,4.411 0.863,2.64 0.873,2.656 1.561,2.42 1.058,-0.365 1.13,0.521 0.117,1.422 -0.907,0.808 -1.869,1.024 -1.726,0.388 0.045,-0.198 -0.117,-0.482 -0.361,-0.63 -0.471,-0.287 -0.577,-1.256 -0.153,-1.401 0.357,-0.123 -0.588,-2.732 -1.491,-4.114 -0.731,-1.122 -1.699,-1.774 -3.798,-2.56 -0.903,-0.339 -1.035,-0.317 -1.29,0.206 -0.157,0.321 -0.463,0.644 -0.68,0.719 -0.332,0.114 -0.801,1.535 -0.561,1.701 0.043,0.03 0.108,0.402 0.144,0.827 0.037,0.425 0.247,0.888 0.466,1.028 0.219,0.14 0.699,0.656 1.066,1.146 0.809,1.079 2.909,2.282 3.252,1.863 0.136,-0.166 0.111,-0.345 -0.056,-0.396 -0.573,-0.176 -3.088,-2.124 -3.853,-2.984 -1.169,-1.313 -0.344,-1.269 0.877,0.047 0.741,0.799 1.064,0.982 1.139,0.647 0.123,-0.544 0.201,-0.515 1.16,0.421 1.537,1.502 1.7,2.158 0.961,3.877 -0.682,1.588 -0.682,1.588 -1.721,0.965l0 0zm-4.3 -18.286c0.104,-0.275 0.036,-0.682 -0.15,-0.904 -0.186,-0.222 -0.249,-0.641 -0.14,-0.93 0.11,-0.29 0.055,-0.645 -0.121,-0.789 -0.426,-0.349 -0.6,0.639 -0.373,2.131 0.179,1.18 0.458,1.355 0.784,0.492zm-0.304 -3.743c-0.081,-0.234 -0.197,-0.408 -0.258,-0.387 -0.062,0.022 -0.119,0.256 -0.128,0.52 -0.009,0.265 0.107,0.439 0.258,0.387 0.151,-0.051 0.208,-0.286 0.128,-0.52zm-3.187 -9.133c-0.062,-1.331 0.119,-3.618 0.401,-5.083 0.282,-1.465 0.414,-2.712 0.293,-2.77 -0.12,-0.059 -0.529,0.569 -0.907,1.397 -0.798,1.745 -1.676,2.49 -2.209,1.873 -0.501,-0.582 -0.04,1.765 0.9,4.578 0.716,2.145 1.007,2.641 1.457,2.487 0.098,-0.034 0.128,-1.151 0.065,-2.482l0 0zm-0.561 -7.499c0.87,-1.146 0.949,-1.596 0.237,-1.351 -1.102,0.379 -2.229,2.245 -1.556,2.573 0.284,0.138 0.288,0.133 1.319,-1.222l0 0zm-2.478 -5.095c-0.037,-0.642 -0.205,-2.22 -0.373,-3.508 -0.27,-2.064 -0.38,-2.395 -0.927,-2.793 -0.596,-0.432 -0.615,-0.389 -0.469,1.022 0.308,2.978 0.863,6.238 1.093,6.426 0.492,0.402 0.742,-0.021 0.676,-1.147l0 0zm17.013 39.578c-0.366,-0.437 0.266,-1.929 0.819,-1.934 0.623,-0.007 0.934,0.88 0.523,1.493 -0.506,0.754 -0.955,0.902 -1.342,0.441l0 0zm2.569 -1.174c-0.078,-0.224 -0.124,-0.814 -0.103,-1.313 0.02,-0.498 -0.313,-1.986 -0.741,-3.306 -0.779,-2.401 -0.779,-2.401 0.139,-3.419 0.505,-0.559 1.064,-1.546 1.244,-2.193 0.179,-0.646 0.67,-1.569 1.093,-2.051 0.517,-0.59 0.782,-1.328 0.813,-2.267 0.052,-1.553 0.416,-2.35 0.452,-0.989 0.013,0.479 0.045,1.728 0.072,2.775 0.055,2.143 -0.174,3.386 -0.942,5.125 -0.527,1.194 -0.527,1.194 -1.249,0.748 -0.557,-0.345 -0.773,-0.344 -0.947,0.006 -0.311,0.622 0.358,1.364 0.854,0.948 0.268,-0.224 0.271,0.364 0.01,1.878 -0.231,1.336 -0.248,2.594 -0.043,3.189 0.236,0.685 0.21,1.027 -0.087,1.129 -0.234,0.081 -0.488,-0.036 -0.565,-0.26l0 0zm-5.907 0.664c-0.111,-0.092 -0.535,-0.66 -0.941,-1.262 -0.406,-0.601 -0.855,-1.053 -0.999,-1.004 -0.44,0.152 -2.227,-0.936 -2.41,-1.467 -0.237,-0.688 0.272,-0.796 0.746,-0.158 0.222,0.299 0.53,0.406 0.718,0.248 0.495,-0.415 0.992,0.033 2.194,1.979 1.012,1.641 1.195,2.081 0.692,1.664l0 0zm3.201 -5.759c-0.166,-0.483 -0.722,-1.267 -1.235,-1.742 -0.513,-0.475 -0.809,-0.906 -0.659,-0.959 0.379,-0.13 1.16,0.641 2.125,2.095 0.665,1.003 0.746,1.252 0.443,1.357 -0.227,0.078 -0.49,-0.215 -0.675,-0.751l0.001 0zm-3.026 -0.487c-1.008,-0.833 -1.012,-0.841 -0.851,-1.52 0.096,-0.405 0.233,-0.371 0.687,0.174 1.574,1.889 1.659,2.585 0.164,1.346zm0.668 -3.179c-0.555,-0.27 -0.918,-0.315 -0.848,-0.103 0.087,0.263 0.001,0.274 -0.3,0.037 -0.636,-0.499 -0.982,-1.754 -0.639,-2.317 0.167,-0.275 0.199,-0.803 0.072,-1.174 -0.128,-0.371 -0.105,-0.718 0.051,-0.772 0.156,-0.054 0.473,0.444 0.705,1.106 0.231,0.661 0.865,1.672 1.408,2.246 0.542,0.573 1.004,1.093 1.025,1.154 0.112,0.327 -0.622,0.239 -1.474,-0.177l0 0zm-58.092 12.367c-0.054,-0.156 0.004,-0.596 0.129,-0.978 0.125,-0.381 0.271,-0.566 0.325,-0.41 0.054,0.156 -0.005,0.596 -0.129,0.978 -0.125,0.381 -0.271,0.566 -0.325,0.41zm48.035 -42.515c-0.109,-0.661 -0.385,-2.024 -0.614,-3.029 -0.228,-1.006 -0.35,-1.963 -0.27,-2.128 0.081,-0.164 0.187,0.044 0.238,0.463 0.049,0.419 0.323,1.654 0.606,2.746 0.283,1.092 0.452,2.248 0.376,2.567 -0.105,0.441 -0.187,0.29 -0.337,-0.619l0.001 0zm-2.031 -8.21c-0.099,-0.335 -0.055,-0.426 0.113,-0.231 0.152,0.177 0.227,0.425 0.164,0.552 -0.061,0.127 -0.186,-0.018 -0.277,-0.321l0 0zm-7.624 1.688c-0.427,-0.242 -0.417,-0.321 0.061,-0.485 0.389,-0.134 0.564,-0.044 0.552,0.286 -0.02,0.572 0.021,0.559 -0.613,0.199zm7.234 -2.823c-0.1,-0.334 -0.056,-0.425 0.113,-0.23 0.152,0.177 0.226,0.425 0.164,0.552 -0.062,0.126 -0.186,-0.018 -0.277,-0.322l0 0zm-5.67 1.047c-0.276,-0.744 -0.327,-0.765 -0.499,-0.205 -0.173,0.558 -0.232,0.532 -0.571,-0.255 -0.353,-0.817 -0.695,-5.559 -0.495,-6.867 0.049,-0.32 -0.064,-1.024 -0.25,-1.564 -0.217,-0.631 -0.198,-1.139 0.052,-1.42 0.322,-0.359 0.293,-0.539 -0.163,-1.02 -0.336,-0.354 -0.508,-0.773 -0.437,-1.069 0.083,-0.352 0.192,-0.267 0.393,0.309 0.161,0.457 0.374,0.679 0.502,0.522 0.302,-0.368 0.523,0.355 1.02,3.335 0.231,1.383 0.553,3.182 0.715,3.999 0.162,0.816 0.264,1.923 0.226,2.46 -0.207,2.907 -0.15,2.702 -0.493,1.775l0 0zm-1.109 -12.062c-0.139,-0.068 -0.399,-0.586 -0.576,-1.15 -0.321,-1.026 -0.321,-1.026 0.32,-0.009 0.645,1.024 0.725,1.387 0.256,1.159zm-2.189 -3.33c-0.441,-1.151 -0.299,-1.164 0.488,-0.04 0.403,0.575 0.467,0.834 0.227,0.916 -0.188,0.065 -0.503,-0.321 -0.715,-0.876z"/>
 </g>
</svg>
