<?xml version="1.0" encoding="UTF-8"?>
<!DOCTYPE svg PUBLIC "-//W3C//DTD SVG 1.1//EN" "http://www.w3.org/Graphics/SVG/1.1/DTD/svg11.dtd">
<svg xml:space="preserve" viewBox="0 0 1000 532" width="1000px" height="532px" version="1.1" style="shape-rendering:geometricPrecision; fill-rule:evenodd; clip-rule:evenodd" xmlns="http://www.w3.org/2000/svg" xmlns:xlink="http://www.w3.org/1999/xlink">
 <defs>
  <style type="text/css">
    .fil3 {fill:black;fill-opacity:0.05}
    .fil4 {fill:black;fill-opacity:0.5}
    .fil2 {fill:url(#id0)}
    .fil1 {fill:url(#id1)}
    .fil0 {fill:url(#id2);fill-opacity:0.6}
  </style>
  <linearGradient id="id0" gradientUnits="userSpaceOnUse" x1="833.726" y1="210.666" x2="833.726" y2="156.087">
   <stop offset="0" style="stop-opacity:1; stop-color:#4D4D4D"/>
   <stop offset="0.6" style="stop-opacity:1; stop-color:gray"/>
   <stop offset="1" style="stop-opacity:1; stop-color:#999999"/>
  </linearGradient>
  <linearGradient id="id1" gradientUnits="userSpaceOnUse" x1="833.726" y1="214.456" x2="833.726" y2="152.297">
   <stop offset="0" style="stop-opacity:1; stop-color:#333333"/>
   <stop offset="0.6" style="stop-opacity:1; stop-color:gray"/>
   <stop offset="1" style="stop-opacity:1; stop-color:#B3B3B3"/>
  </linearGradient>
  <linearGradient id="id2" gradientUnits="userSpaceOnUse" x1="833.726" y1="218.247" x2="833.726" y2="148.507">
   <stop offset="0" style="stop-opacity:1; stop-color:#333333"/>
   <stop offset="0.501961" style="stop-opacity:1; stop-color:gray"/>
   <stop offset="1" style="stop-opacity:1; stop-color:#CCCCCC"/>
  </linearGradient>
 </defs>
 <g>
  <path class="fil0" d="M833.726 148.507c19.258,0 34.87,15.612 34.87,34.87 0,19.258 -15.612,34.87 -34.87,34.87 -19.258,0 -34.87,-15.612 -34.87,-34.87 0,-19.258 15.612,-34.87 34.87,-34.87z"/>
  <path class="fil1" d="M833.726 152.297c17.164,0 31.079,13.915 31.079,31.08 0,17.164 -13.915,31.079 -31.079,31.079 -17.164,0 -31.079,-13.915 -31.079,-31.079 0,-17.165 13.915,-31.08 31.079,-31.08z"/>
  <path class="fil2" d="M833.726 156.087c15.071,0 27.289,12.218 27.289,27.29 0,15.071 -12.218,27.289 -27.289,27.289 -15.071,0 -27.29,-12.218 -27.29,-27.289 0,-15.072 12.219,-27.29 27.29,-27.29z"/>
  <path class="fil3" d="M833.726 214.456c17.163,0 31.077,-13.914 31.077,-31.077l0 -0.001c-7.637,8.526 -18.73,13.893 -31.077,13.893 -12.347,0 -23.44,-5.368 -31.077,-13.895l0 0.003c0,17.163 13.914,31.077 31.077,31.077z"/>
  <path class="fil4" d="M823.558 193.914c-0.147,-0.654 0.002,-1.259 0.416,-1.781l12.812 -16.153c0.025,-0.031 -0.008,-0.081 -0.051,-0.073l-14.427 3.018c-1.141,0.238 -1.912,-0.291 -2.149,-1.425l-0.085 -0.408c-0.238,-1.133 0.257,-1.927 1.399,-2.166l18.384 -3.845c0.759,-0.159 1.565,-0.193 2.319,0.014 0.939,0.258 1.5,0.779 1.717,1.742 0.148,0.653 -0.002,1.263 -0.415,1.783l-12.812 16.151c-0.024,0.031 0.01,0.082 0.051,0.073l14.427 -3.017c1.141,-0.239 1.911,0.292 2.149,1.425l0.085 0.407c0.238,1.133 -0.258,1.928 -1.399,2.166l-18.384 3.846c-0.759,0.158 -1.558,0.191 -2.312,-0.013 -0.942,-0.256 -1.507,-0.779 -1.725,-1.744z"/>
 </g>
</svg>
