<?xml version="1.0" encoding="UTF-8"?>
<!DOCTYPE svg PUBLIC "-//W3C//DTD SVG 1.1//EN" "http://www.w3.org/Graphics/SVG/1.1/DTD/svg11.dtd">
<svg xml:space="preserve" viewBox="0 0 1000 532" width="1000px" height="532px" version="1.1" style="shape-rendering:geometricPrecision; fill-rule:evenodd; clip-rule:evenodd" xmlns="http://www.w3.org/2000/svg" xmlns:xlink="http://www.w3.org/1999/xlink">
 <defs>
  <style type="text/css">
    .fil2 {fill:black;fill-opacity:0.1}
    .fil3 {fill:black;fill-opacity:0.5}
    .fil1 {fill:url(#id0)}
    .fil0 {fill:url(#id1);fill-opacity:0.7}
  </style>
  <linearGradient id="id0" gradientUnits="userSpaceOnUse" x1="649.264" y1="287.24" x2="649.264" y2="224.256">
   <stop offset="0" style="stop-opacity:1; stop-color:#4D4D4D"/>
   <stop offset="0.6" style="stop-opacity:1; stop-color:gray"/>
   <stop offset="1" style="stop-opacity:1; stop-color:gray"/>
  </linearGradient>
  <linearGradient id="id1" gradientUnits="userSpaceOnUse" xlink:href="#id0" x1="649.264" y1="290.617" x2="649.264" y2="220.879">
  </linearGradient>
 </defs>
 <g>
  <path class="fil0" d="M649.264 220.879c19.257,0 34.869,15.612 34.869,34.869 0,19.257 -15.612,34.869 -34.869,34.869 -19.257,0 -34.869,-15.612 -34.869,-34.869 0,-19.257 15.612,-34.869 34.869,-34.869z"/>
  <circle class="fil1" cx="649.264" cy="255.748" r="31.492"/>
  <path class="fil2" d="M674.038 263.965c-2.61,11.357 -12.782,19.829 -24.931,19.829 -12.15,0 -22.321,-8.472 -24.931,-19.829 -0.163,-0.713 0.128,-1.418 0.747,-1.807 0.618,-0.39 1.379,-0.347 1.951,0.108 6.1,4.86 13.827,7.767 22.233,7.767 8.406,0 16.133,-2.907 22.233,-7.767 0.572,-0.455 1.334,-0.498 1.952,-0.108 0.619,0.39 0.91,1.094 0.746,1.807z"/>
  <path class="fil3" d="M663.862 256.013c0.573,0.083 0.972,0.311 1.198,0.674 0.401,0.647 0.167,1.236 -0.693,1.77 -0.1,0.088 -0.253,0.195 -0.458,0.323 -0.58,0.36 -1.054,0.512 -1.418,0.454l-11.555 -1.692c-0.332,-0.048 -0.644,0.144 -0.748,0.463l-3.68 11.145c-0.106,0.349 -0.465,0.714 -1.075,1.092 -0.181,0.112 -0.331,0.192 -0.45,0.24 -0.86,0.534 -1.495,0.477 -1.902,-0.179 -0.219,-0.354 -0.244,-0.809 -0.068,-1.356l3.657 -11.179c0.065,-0.199 0.042,-0.396 -0.069,-0.574 -0.111,-0.177 -0.277,-0.286 -0.484,-0.315l-11.21 -1.611c-0.577,-0.079 -0.979,-0.301 -1.203,-0.663 -0.396,-0.638 -0.165,-1.219 0.701,-1.756l0.968 -0.601c0.283,-0.176 0.573,-0.239 0.874,-0.2l11.231 1.575c0.331,0.046 0.64,-0.147 0.745,-0.463l3.538 -10.724c0.102,-0.302 0.292,-0.536 0.567,-0.706l0.939 -0.583c0.852,-0.528 1.479,-0.473 1.88,0.174 0.225,0.363 0.246,0.813 0.065,1.351l-3.506 10.722c-0.065,0.198 -0.041,0.395 0.068,0.572 0.109,0.177 0.275,0.286 0.481,0.317l11.607 1.73z"/>
 </g>
</svg>
