<?xml version="1.0" encoding="UTF-8"?>
<!DOCTYPE svg PUBLIC "-//W3C//DTD SVG 1.1//EN" "http://www.w3.org/Graphics/SVG/1.1/DTD/svg11.dtd">
<svg xml:space="preserve" viewBox="0 0 1000 532" width="1000px" height="532px" version="1.1" style="shape-rendering:geometricPrecision; fill-rule:evenodd; clip-rule:evenodd" xmlns="http://www.w3.org/2000/svg" xmlns:xlink="http://www.w3.org/1999/xlink">
 <defs>
  <style type="text/css">
    .fil3 {fill:black;fill-opacity:0.05}
    .fil4 {fill:black;fill-opacity:0.5}
    .fil2 {fill:url(#id0)}
    .fil1 {fill:url(#id1)}
    .fil0 {fill:url(#id2);fill-opacity:0.6}
  </style>
  <linearGradient id="id0" gradientUnits="userSpaceOnUse" x1="739.517" y1="238.36" x2="739.517" y2="183.781">
   <stop offset="0" style="stop-opacity:1; stop-color:#4D4D4D"/>
   <stop offset="0.6" style="stop-opacity:1; stop-color:gray"/>
   <stop offset="1" style="stop-opacity:1; stop-color:#999999"/>
  </linearGradient>
  <linearGradient id="id1" gradientUnits="userSpaceOnUse" x1="739.517" y1="242.149" x2="739.517" y2="179.991">
   <stop offset="0" style="stop-opacity:1; stop-color:#333333"/>
   <stop offset="0.6" style="stop-opacity:1; stop-color:gray"/>
   <stop offset="1" style="stop-opacity:1; stop-color:#B3B3B3"/>
  </linearGradient>
  <linearGradient id="id2" gradientUnits="userSpaceOnUse" x1="739.517" y1="245.94" x2="739.517" y2="176.2">
   <stop offset="0" style="stop-opacity:1; stop-color:#333333"/>
   <stop offset="0.501961" style="stop-opacity:1; stop-color:gray"/>
   <stop offset="1" style="stop-opacity:1; stop-color:#CCCCCC"/>
  </linearGradient>
 </defs>
 <g>
  <path class="fil0" d="M739.517 176.2c19.258,0 34.87,15.612 34.87,34.87 0,19.258 -15.612,34.87 -34.87,34.87 -19.258,0 -34.87,-15.612 -34.87,-34.87 0,-19.258 15.612,-34.87 34.87,-34.87z"/>
  <path class="fil1" d="M739.517 179.991c17.164,0 31.079,13.915 31.079,31.079 0,17.164 -13.915,31.08 -31.079,31.08 -17.164,0 -31.079,-13.916 -31.079,-31.08 0,-17.164 13.915,-31.079 31.079,-31.079z"/>
  <path class="fil2" d="M739.517 183.781c15.071,0 27.289,12.218 27.289,27.289 0,15.071 -12.218,27.29 -27.289,27.29 -15.071,0 -27.29,-12.219 -27.29,-27.29 0,-15.071 12.219,-27.289 27.29,-27.289z"/>
  <path class="fil3" d="M739.517 242.15c17.163,0 31.077,-13.914 31.077,-31.078l0 -0.001c-7.637,8.526 -18.73,13.893 -31.077,13.893 -12.347,0 -23.44,-5.368 -31.077,-13.895l0 0.003c0,17.164 13.914,31.078 31.077,31.078z"/>
  <path class="fil4" d="M747.691 199.16l-5.58 12.307c-0.144,0.317 -0.151,0.644 -0.021,0.967l2.5 6.245c0.329,0.824 0.087,1.398 -0.731,1.726l-1.011 0.405c-0.829,0.331 -1.403,0.089 -1.728,-0.724l-2.506 -6.261c-0.13,-0.323 -0.36,-0.554 -0.684,-0.684l-12.545 -5.053c-0.506,-0.204 -0.831,-0.487 -0.978,-0.853 -0.274,-0.686 0.062,-1.215 1.007,-1.594l1.072 -0.429c0.331,-0.132 0.655,-0.132 0.983,-0.004l10.944 4.407c0.339,0.137 0.725,-0.017 0.877,-0.35l4.905 -10.752c0.149,-0.319 0.389,-0.545 0.719,-0.677l1.088 -0.435c0.935,-0.375 1.534,-0.219 1.808,0.467 0.143,0.356 0.102,0.784 -0.119,1.292z"/>
 </g>
</svg>
