<?xml version="1.0" encoding="UTF-8"?>
<!DOCTYPE svg PUBLIC "-//W3C//DTD SVG 1.1//EN" "http://www.w3.org/Graphics/SVG/1.1/DTD/svg11.dtd">
<svg xml:space="preserve" viewBox="0 0 1000 532" width="1000px" height="532px" version="1.1" style="shape-rendering:geometricPrecision; fill-rule:evenodd; clip-rule:evenodd" xmlns="http://www.w3.org/2000/svg" xmlns:xlink="http://www.w3.org/1999/xlink">
 <defs>
  <style type="text/css">
    .fil2 {fill:black;fill-opacity:0.1}
    .fil3 {fill:black;fill-opacity:0.5}
    .fil1 {fill:url(#id0)}
    .fil0 {fill:url(#id1);fill-opacity:0.7}
  </style>
  <linearGradient id="id0" gradientUnits="userSpaceOnUse" x1="739.517" y1="242.562" x2="739.517" y2="179.578">
   <stop offset="0" style="stop-opacity:1; stop-color:#4D4D4D"/>
   <stop offset="0.6" style="stop-opacity:1; stop-color:gray"/>
   <stop offset="1" style="stop-opacity:1; stop-color:gray"/>
  </linearGradient>
  <linearGradient id="id1" gradientUnits="userSpaceOnUse" xlink:href="#id0" x1="739.517" y1="245.938" x2="739.517" y2="176.2">
  </linearGradient>
 </defs>
 <g>
  <path class="fil0" d="M739.517 176.2c19.258,0 34.869,15.612 34.869,34.869 0,19.257 -15.611,34.87 -34.869,34.87 -19.257,0 -34.869,-15.613 -34.869,-34.87 0,-19.257 15.612,-34.869 34.869,-34.869z"/>
  <circle class="fil1" cx="739.517" cy="211.069" r="31.492"/>
  <path class="fil2" d="M764.291 219.286c-2.61,11.357 -12.781,19.829 -24.931,19.829 -12.149,0 -22.321,-8.472 -24.93,-19.829 -0.164,-0.712 0.127,-1.418 0.746,-1.807 0.619,-0.389 1.379,-0.347 1.951,0.109 6.1,4.859 13.827,7.766 22.233,7.766 8.407,0 16.133,-2.907 22.234,-7.766 0.572,-0.456 1.333,-0.498 1.951,-0.109 0.619,0.39 0.91,1.095 0.746,1.807z"/>
  <path class="fil3" d="M747.691 199.16l-5.58 12.307c-0.144,0.317 -0.151,0.644 -0.021,0.967l2.5 6.245c0.329,0.824 0.087,1.398 -0.731,1.726l-1.011 0.405c-0.829,0.331 -1.403,0.089 -1.728,-0.724l-2.506 -6.261c-0.13,-0.323 -0.36,-0.554 -0.684,-0.684l-12.545 -5.053c-0.506,-0.204 -0.831,-0.487 -0.978,-0.853 -0.274,-0.686 0.062,-1.215 1.007,-1.594l1.072 -0.429c0.331,-0.132 0.655,-0.132 0.983,-0.004l10.944 4.407c0.339,0.137 0.725,-0.017 0.877,-0.35l4.905 -10.752c0.149,-0.319 0.389,-0.545 0.719,-0.677l1.088 -0.435c0.935,-0.375 1.534,-0.219 1.808,0.467 0.143,0.356 0.102,0.784 -0.119,1.292z"/>
 </g>
</svg>
