<?xml version="1.0" encoding="UTF-8"?>
<!DOCTYPE svg PUBLIC "-//W3C//DTD SVG 1.1//EN" "http://www.w3.org/Graphics/SVG/1.1/DTD/svg11.dtd">
<svg xml:space="preserve" viewBox="0 0 1000 532" width="1000px" height="532px" version="1.1" style="shape-rendering:geometricPrecision; fill-rule:evenodd; clip-rule:evenodd" xmlns="http://www.w3.org/2000/svg" xmlns:xlink="http://www.w3.org/1999/xlink">
 <defs>
  <style type="text/css">
    .fil3 {fill:black;fill-opacity:0.1}
    .fil4 {fill:black;fill-opacity:0.5}
    .fil1 {fill:url(#id0)}
    .fil2 {fill:url(#id1)}
    .fil0 {fill:url(#id2);fill-opacity:0.6}
  </style>
  <linearGradient id="id0" gradientUnits="userSpaceOnUse" x1="781.454" y1="314.97" x2="781.454" y2="271.844">
   <stop offset="0" style="stop-opacity:1; stop-color:#303030"/>
   <stop offset="1" style="stop-opacity:1; stop-color:#484848"/>
  </linearGradient>
  <linearGradient id="id1" gradientUnits="userSpaceOnUse" x1="781.454" y1="275.562" x2="781.454" y2="354.38">
   <stop offset="0" style="stop-opacity:1; stop-color:#262626"/>
   <stop offset="0.6" style="stop-opacity:1; stop-color:#303030"/>
   <stop offset="1" style="stop-opacity:1; stop-color:#404040"/>
  </linearGradient>
  <linearGradient id="id2" gradientUnits="userSpaceOnUse" xlink:href="#id0" x1="781.454" y1="314.971" x2="781.454" y2="268.127">
  </linearGradient>
 </defs>
 <g>
  <path class="fil0" d="M781.454 268.127c25.871,0 46.845,20.973 46.845,46.844 0,25.872 -20.974,46.845 -46.845,46.845 -25.871,0 -46.845,-20.973 -46.845,-46.845 0,-25.871 20.974,-46.844 46.845,-46.844z"/>
  <circle class="fil1" cx="781.453" cy="314.971" r="43.127"/>
  <circle class="fil2" cx="781.453" cy="314.971" r="39.409"/>
  <path class="fil3" d="M781.454 275.562c21.764,0 39.409,17.644 39.409,39.408l0 0.002c-9.685,-10.812 -23.752,-17.618 -39.409,-17.618 -15.658,0 -29.725,6.807 -39.41,17.62l0 -0.004c0,-21.764 17.645,-39.408 39.41,-39.408z"/>
  <path class="fil4" d="M793.066 314.972c-0.557,-1.461 -2.58,-1.494 -6.062,-0.1l-14.064 5.629c-0.419,0.168 -0.625,0.647 -0.457,1.067l1.866 4.66c0.168,0.42 0.647,0.625 1.066,0.457l13.808 -5.527c3.238,-1.296 4.762,-2.741 4.582,-4.339l-0.739 -1.847zm-3.027 -7.774l-0.847 -1.905c-0.721,-1.551 -2.843,-1.621 -6.368,-0.211l-13.728 5.495c-0.42,0.168 -0.625,0.647 -0.457,1.067l1.968 4.917c0.168,0.419 0.647,0.624 1.066,0.456l13.869 -5.551c2.58,-1.032 4.085,-2.115 4.507,-3.254 0.133,-0.357 0.131,-0.696 -0.01,-1.014zm7.74 7.458c1.054,2.635 0.324,5 -2.197,7.099 -0.769,0.64 -1.724,1.263 -2.861,1.867 -0.623,0.335 -1.182,0.6 -1.67,0.795l-17.728 7.096c-0.976,0.391 -1.662,0.092 -2.057,-0.896l-7.99 -19.96c-0.39,-0.976 -0.097,-1.659 0.878,-2.05l17.21 -6.888c1.94,-0.777 3.468,-1.254 4.571,-1.433 1.566,-0.259 3.014,-0.124 4.339,0.393 1.503,0.573 2.533,1.554 3.084,2.933l0.708 1.768c0.554,1.384 0.525,2.726 -0.088,4.04 -0.089,0.184 -0.101,0.366 -0.035,0.531 0.044,0.11 0.126,0.211 0.253,0.316l0.167 0.117c1.344,0.51 2.291,1.46 2.845,2.845l0.571 1.427z"/>
 </g>
</svg>
