<?xml version="1.0" encoding="UTF-8"?>
<!DOCTYPE svg PUBLIC "-//W3C//DTD SVG 1.1//EN" "http://www.w3.org/Graphics/SVG/1.1/DTD/svg11.dtd">
<svg xml:space="preserve" viewBox="0 0 1000 532" width="1000px" height="532px" version="1.1" style="shape-rendering:geometricPrecision; fill-rule:evenodd; clip-rule:evenodd" xmlns="http://www.w3.org/2000/svg">
 <defs>
  <style type="text/css">
    .fil0 {fill:red}
    .fil1 {fill:white}
  </style>
 </defs>
 <g>
  <path class="fil0" d="M277.86 40.48c31.102,-10.709 63.212,-18.847 95.601,-24.528 41.607,-7.296 84.274,-10.471 126.496,-10.471 42.236,0 84.872,3.173 126.493,10.471 32.401,5.683 64.554,13.813 95.669,24.528 143.092,49.271 274.589,159.719 271.444,323.772 -0.67,34.475 -8.853,70.163 -28.07,99.187 -28.704,43.355 -77.642,68.706 -129.971,62.015 -18.74,-2.397 -34.55,-7.298 -52.173,-14.148 -29.611,-11.509 -59.096,-23.349 -88.74,-34.774 -127.023,-48.95 -261.746,-45.19 -389.015,-0.157 -30.244,10.702 -60.106,23.623 -90.018,35.357 -16.666,6.537 -33.354,11.447 -51.118,13.722 -52.038,6.636 -101.626,-18.614 -130.039,-62.015 -19.313,-29.491 -27.309,-64.339 -27.981,-99.255 -3.004,-154.905 134.722,-276.634 271.422,-323.704z"/>
  <path class="fil1" d="M500 116.797c63.626,0 115.202,51.576 115.202,115.202 0,63.626 -51.576,115.202 -115.202,115.202 -63.626,0 -115.202,-51.576 -115.202,-115.202 0,-63.626 51.576,-115.202 115.202,-115.202zm14.371 120.998c2.101,2.104 2.101,5.535 0,7.636l-10.757 10.757 4.539 4.537c1.603,1.608 1.603,4.212 0,5.82l-10.668 10.662c-9.415,9.416 -23.5,11.307 -34.796,5.679l-23.441 23.444c16.548,13.544 37.698,21.672 60.752,21.672 53.021,0 96.003,-42.982 96.003,-96.003 0,-23.055 -8.128,-44.204 -21.672,-60.752l-23.424 23.424c5.63,11.291 3.739,25.384 -5.677,34.8l-10.667 10.667c-1.603,1.606 -4.207,1.606 -5.816,0l-36.848 -36.854c-1.611,-1.603 -1.611,-4.21 0,-5.815l10.662 -10.668c9.404,-9.402 23.468,-11.304 34.753,-5.698l23.438 -23.438c-16.548,-13.544 -37.7,-21.67 -60.752,-21.67 -53.021,0 -96.003,42.983 -96.003,96.004 0,23.052 8.125,44.204 21.669,60.752l23.454 -23.452c-5.605,-11.288 -3.706,-25.356 5.696,-34.756l10.667 -10.667c1.609,-1.608 4.213,-1.608 5.816,0l4.514 4.512 10.758 -10.757c2.1,-2.101 5.537,-2.101 7.638,0 2.101,2.103 2.101,5.535 0,7.635l-10.757 10.758 12.523 12.528 10.757 -10.757c2.101,-2.101 5.538,-2.101 7.639,0z"/>
 </g>
</svg>
