<?xml version="1.0" encoding="UTF-8"?>
<!DOCTYPE svg PUBLIC "-//W3C//DTD SVG 1.1//EN" "http://www.w3.org/Graphics/SVG/1.1/DTD/svg11.dtd">
<svg xml:space="preserve" viewBox="0 0 1000 532" width="1000px" height="532px" version="1.1" style="shape-rendering:geometricPrecision; fill-rule:evenodd; clip-rule:evenodd" xmlns="http://www.w3.org/2000/svg">
 <defs>
  <style type="text/css">
    .fil0 {fill:#B20000}
    .fil2 {fill:red}
    .fil3 {fill:#FF2727}
    .fil1 {fill:#77828C}
  </style>
 </defs>
 <g>
  <path class="fil0" d="M254.618 328.711l0 46.315c-9.069,2.67 -18.665,4.109 -28.598,4.109 -9.933,0 -19.529,-1.439 -28.598,-4.109l0 -46.315 0.001 -0.03c2.835,-13.187 14.559,-23.074 28.594,-23.074 14.045,0 25.777,9.901 28.601,23.104z"/>
  <path class="fil1" d="M243.829 361.092l0.002 -0.01c-0.004,0.009 -0.01,0.02 -0.002,0.01z"/>
  <path class="fil1" d="M243.85 361.071c0.012,-0.015 -0.004,-0.001 -0.018,0.001 -0.003,0.026 0.003,0.014 0.018,-0.001z"/>
  <path class="fil2" d="M250.84 319.384c-1.049,2.912 -1.622,6.051 -1.622,9.324l0 32.354c0,2.576 -1.753,4.744 -4.272,5.281 -6.102,1.303 -12.434,1.992 -18.926,1.992 -6.491,0 -12.823,-0.689 -18.926,-1.992 -2.519,-0.537 -4.272,-2.704 -4.272,-5.281l0 -32.354c0,-3.276 -0.574,-6.417 -1.624,-9.33 5.167,-8.269 14.35,-13.771 24.819,-13.771 10.472,0 19.657,5.505 24.823,13.777z"/>
  <path class="fil3" d="M250.84 319.384c-1.049,2.912 -1.622,6.051 -1.622,9.324l0 32.354c0,2.576 -1.753,4.744 -4.272,5.281 -6.102,1.303 -12.434,1.992 -18.926,1.992 -6.491,0 -12.823,-0.689 -18.926,-1.992 -2.519,-0.537 -4.272,-2.704 -4.272,-5.281l0 -32.354c0,-3.276 -0.574,-6.417 -1.624,-9.33 1.097,-1.757 2.377,-3.388 3.81,-4.868 2.06,4.299 3.214,9.114 3.214,14.198l0 23.901c0,1.746 1.214,3.212 2.93,3.536 4.816,0.912 9.786,1.39 14.868,1.39 5.082,0 10.053,-0.478 14.87,-1.39 1.716,-0.325 2.93,-1.79 2.93,-3.536l-0.001 -23.901c0,-5.082 1.153,-9.896 3.211,-14.194 1.434,1.481 2.713,3.113 3.81,4.87z"/>
 </g>
</svg>
