<?xml version="1.0" encoding="UTF-8"?>
<!DOCTYPE svg PUBLIC "-//W3C//DTD SVG 1.1//EN" "http://www.w3.org/Graphics/SVG/1.1/DTD/svg11.dtd">
<svg xml:space="preserve" viewBox="0 0 1000 532" width="1000px" height="532px" version="1.1" style="shape-rendering:geometricPrecision; fill-rule:evenodd; clip-rule:evenodd" xmlns="http://www.w3.org/2000/svg">
 <defs>
  <style type="text/css">
    .fil1 {fill:red}
    .fil2 {fill:#FF2727}
    .fil0 {fill:red;fill-opacity:0.5}
  </style>
 </defs>
 <g>
  <path class="fil0" d="M132.37 300.091c-1.638,-7.013 -2.504,-14.324 -2.504,-21.837 0,-7.513 0.866,-14.823 2.504,-21.837 0.935,-4.007 4.404,-6.759 8.518,-6.759l33.998 0c13.202,2.824 23.102,14.555 23.102,28.599 0,14.034 -9.885,25.757 -23.072,28.592l-34.028 0c-4.114,0 -7.583,-2.751 -8.518,-6.758z"/>
  <path class="fil1" d="M184.218 303.075c-2.913,-1.051 -6.054,-1.625 -9.33,-1.625l-32.351 0c-2.576,0 -4.744,-1.753 -5.281,-4.272 -1.303,-6.101 -1.991,-12.432 -1.991,-18.924 0,-6.491 0.688,-12.822 1.991,-18.924 0.537,-2.519 2.705,-4.272 5.281,-4.272l32.351 0c3.273,0 6.413,-0.572 9.324,-1.622 8.272,5.166 13.776,14.35 13.776,24.821 0,10.469 -5.501,19.651 -13.77,24.818z"/>
  <path class="fil2" d="M184.218 303.075c-2.913,-1.051 -6.054,-1.625 -9.33,-1.625l-32.351 0c-2.576,0 -4.744,-1.753 -5.281,-4.272 -1.303,-6.101 -1.991,-12.432 -1.991,-18.924 0,-6.491 0.688,-12.822 1.991,-18.924 0.537,-2.519 2.705,-4.272 5.281,-4.272l32.351 0c3.273,0 6.413,-0.572 9.324,-1.622 1.757,1.097 3.388,2.375 4.87,3.809 -4.298,2.059 -9.111,3.212 -14.194,3.212l-23.899 0c-1.746,0 -3.212,1.215 -3.536,2.93 -0.911,4.816 -1.389,9.786 -1.389,14.867 0,5.081 0.477,10.052 1.389,14.869 0.325,1.715 1.79,2.929 3.536,2.929l23.899 -0.001c5.084,0 9.899,1.153 14.198,3.214 -1.481,1.433 -3.112,2.712 -4.868,3.81z"/>
 </g>
</svg>
