<?xml version="1.0" encoding="UTF-8"?>
<!DOCTYPE svg PUBLIC "-//W3C//DTD SVG 1.1//EN" "http://www.w3.org/Graphics/SVG/1.1/DTD/svg11.dtd">
<svg xml:space="preserve" viewBox="0 0 1000 532" width="1000px" height="532px" version="1.1" style="shape-rendering:geometricPrecision; fill-rule:evenodd; clip-rule:evenodd" xmlns="http://www.w3.org/2000/svg" xmlns:xlink="http://www.w3.org/1999/xlink">
 <defs>
  <style type="text/css">
    .fil2 {fill:black;fill-opacity:0.05}
    .fil3 {fill:black;fill-opacity:0.3}
    .fil1 {fill:url(#id0)}
    .fil0 {fill:url(#id1);fill-opacity:0.5}
  </style>
  <linearGradient id="id0" gradientUnits="userSpaceOnUse" x1="649.264" y1="286.828" x2="649.264" y2="224.668">
   <stop offset="0" style="stop-opacity:1; stop-color:#C00000"/>
   <stop offset="0.6" style="stop-opacity:1; stop-color:red"/>
   <stop offset="1" style="stop-opacity:1; stop-color:red"/>
  </linearGradient>
  <linearGradient id="id1" gradientUnits="userSpaceOnUse" xlink:href="#id0" x1="649.264" y1="290.618" x2="649.264" y2="220.878">
  </linearGradient>
 </defs>
 <g>
  <path class="fil0" d="M649.264 220.878c19.258,0 34.87,15.612 34.87,34.87 0,19.258 -15.612,34.87 -34.87,34.87 -19.258,0 -34.87,-15.612 -34.87,-34.87 0,-19.258 15.612,-34.87 34.87,-34.87z"/>
  <path class="fil1" d="M649.264 224.668c17.165,0 31.08,13.916 31.08,31.08 0,17.165 -13.915,31.08 -31.08,31.08 -17.165,0 -31.08,-13.915 -31.08,-31.08 0,-17.164 13.915,-31.08 31.08,-31.08z"/>
  <path class="fil2" d="M649.438 286.904c17.164,0 31.078,-13.914 31.078,-31.078l0 -0.001c-7.638,8.526 -18.731,13.893 -31.078,13.893 -12.347,0 -23.441,-5.368 -31.077,-13.895l0 0.003c0,17.164 13.914,31.078 31.077,31.078z"/>
  <path class="fil3" d="M663.934 255.519c0.627,0.093 1.204,0.351 1.549,0.905 0.631,1.014 0.062,1.842 -0.821,2.436 -0.438,0.295 -0.885,0.618 -1.391,0.779 -0.31,0.098 -0.594,0.126 -0.852,0.088l-11.555 -1.691c-0.089,-0.013 -0.173,0.037 -0.202,0.123l-3.68 11.147c-0.081,0.246 -0.234,0.492 -0.467,0.728 -0.395,0.402 -0.829,0.617 -1.305,0.894 -0.925,0.541 -1.923,0.653 -2.552,-0.363 -0.339,-0.546 -0.313,-1.18 -0.12,-1.771l3.658 -11.181c0.036,-0.111 -0.033,-0.224 -0.149,-0.24l-11.21 -1.611c-0.627,-0.09 -1.212,-0.339 -1.557,-0.895 -0.637,-1.029 -0.043,-1.88 0.863,-2.442l0.968 -0.6c0.368,-0.229 0.769,-0.331 1.2,-0.271l11.236 1.575c0.092,0.012 0.172,-0.037 0.201,-0.125l3.54 -10.728c0.136,-0.413 0.407,-0.741 0.776,-0.97l0.94 -0.582c0.912,-0.564 1.932,-0.69 2.567,0.333 0.34,0.548 0.31,1.175 0.115,1.769l-3.505 10.722c-0.037,0.112 0.029,0.224 0.148,0.241l11.605 1.73z"/>
 </g>
</svg>
