<?xml version="1.0" encoding="UTF-8"?>
<!DOCTYPE svg PUBLIC "-//W3C//DTD SVG 1.1//EN" "http://www.w3.org/Graphics/SVG/1.1/DTD/svg11.dtd">
<svg xml:space="preserve" viewBox="0 0 1000 532" width="1000px" height="532px" version="1.1" style="shape-rendering:geometricPrecision; fill-rule:evenodd; clip-rule:evenodd" xmlns="http://www.w3.org/2000/svg" xmlns:xlink="http://www.w3.org/1999/xlink">
 <defs>
  <style type="text/css">
    .fil2 {fill:black;fill-opacity:0.05}
    .fil3 {fill:black;fill-opacity:0.3}
    .fil1 {fill:url(#id0)}
    .fil0 {fill:url(#id1);fill-opacity:0.5}
  </style>
  <linearGradient id="id0" gradientUnits="userSpaceOnUse" x1="649.264" y1="286.828" x2="649.264" y2="224.668">
   <stop offset="0" style="stop-opacity:1; stop-color:#C00000"/>
   <stop offset="0.6" style="stop-opacity:1; stop-color:red"/>
   <stop offset="1" style="stop-opacity:1; stop-color:red"/>
  </linearGradient>
  <linearGradient id="id1" gradientUnits="userSpaceOnUse" xlink:href="#id0" x1="649.264" y1="290.618" x2="649.264" y2="220.878">
  </linearGradient>
 </defs>
 <g>
  <path class="fil0" d="M649.264 220.878c19.258,0 34.87,15.612 34.87,34.87 0,19.258 -15.612,34.87 -34.87,34.87 -19.258,0 -34.87,-15.612 -34.87,-34.87 0,-19.258 15.612,-34.87 34.87,-34.87z"/>
  <path class="fil1" d="M649.264 224.668c17.165,0 31.08,13.916 31.08,31.08 0,17.165 -13.915,31.08 -31.08,31.08 -17.165,0 -31.08,-13.915 -31.08,-31.08 0,-17.164 13.915,-31.08 31.08,-31.08z"/>
  <path class="fil2" d="M649.438 286.904c17.164,0 31.078,-13.914 31.078,-31.078l0 -0.001c-7.638,8.526 -18.731,13.893 -31.078,13.893 -12.347,0 -23.441,-5.368 -31.077,-13.895l0 0.003c0,17.164 13.914,31.078 31.077,31.078z"/>
  <path class="fil3" d="M663.862 256.013c0.573,0.083 0.972,0.311 1.198,0.674 0.401,0.647 0.167,1.236 -0.693,1.77 -0.1,0.088 -0.253,0.195 -0.458,0.323 -0.58,0.36 -1.054,0.512 -1.418,0.454l-11.555 -1.692c-0.332,-0.048 -0.644,0.144 -0.748,0.463l-3.68 11.145c-0.106,0.349 -0.465,0.714 -1.075,1.092 -0.181,0.112 -0.331,0.192 -0.45,0.24 -0.86,0.534 -1.495,0.477 -1.902,-0.179 -0.219,-0.354 -0.244,-0.809 -0.068,-1.356l3.657 -11.179c0.065,-0.199 0.042,-0.396 -0.069,-0.574 -0.111,-0.177 -0.277,-0.286 -0.484,-0.315l-11.21 -1.611c-0.577,-0.079 -0.979,-0.301 -1.203,-0.663 -0.396,-0.638 -0.165,-1.219 0.701,-1.756l0.968 -0.601c0.283,-0.176 0.573,-0.239 0.874,-0.2l11.231 1.575c0.331,0.046 0.64,-0.147 0.745,-0.463l3.538 -10.724c0.102,-0.302 0.292,-0.536 0.567,-0.706l0.939 -0.583c0.852,-0.528 1.479,-0.473 1.88,0.174 0.225,0.363 0.246,0.813 0.065,1.351l-3.506 10.722c-0.065,0.198 -0.041,0.395 0.068,0.572 0.109,0.177 0.275,0.286 0.481,0.317l11.607 1.73z"/>
 </g>
</svg>
