<?xml version="1.0" encoding="UTF-8"?>
<!DOCTYPE svg PUBLIC "-//W3C//DTD SVG 1.1//EN" "http://www.w3.org/Graphics/SVG/1.1/DTD/svg11.dtd">
<svg xml:space="preserve" viewBox="0 0 1000 532" width="1000px" height="532px" version="1.1" style="shape-rendering:geometricPrecision; fill-rule:evenodd; clip-rule:evenodd" xmlns="http://www.w3.org/2000/svg">
 <defs>
  <style type="text/css">
    .fil1 {fill:red}
    .fil2 {fill:#FF2727}
    .fil0 {fill:red;fill-opacity:0.5}
  </style>
 </defs>
 <g>
  <path class="fil0" d="M254.177 193.56l-0.002 34.087c-2.846,13.172 -14.562,23.041 -28.584,23.041 -14.055,0 -25.793,-9.913 -28.605,-23.129l0 -33.999c0,-4.114 2.751,-7.583 6.758,-8.518 7.014,-1.637 14.324,-2.504 21.837,-2.504 7.513,0 14.823,0.868 21.836,2.504 4.008,0.935 6.76,4.404 6.76,8.518z"/>
  <path class="fil1" d="M248.777 195.21l0 32.351c0,3.285 0.577,6.434 1.633,9.354 -5.166,8.27 -14.349,13.774 -24.82,13.774 -10.478,0 -19.667,-5.512 -24.831,-13.793 1.052,-2.914 1.626,-6.057 1.626,-9.335l0 -32.351c0,-2.576 1.753,-4.744 4.272,-5.281 6.102,-1.303 12.432,-1.991 18.924,-1.991 6.491,0 12.822,0.688 18.924,1.991 2.519,0.537 4.272,2.705 4.272,5.281z"/>
  <path class="fil2" d="M248.777 195.21l0 32.351c0,3.285 0.577,6.434 1.633,9.354 -1.096,1.755 -2.375,3.386 -3.807,4.866 -2.067,-4.304 -3.225,-9.127 -3.225,-14.22l0 -23.899c0,-1.746 -1.214,-3.212 -2.93,-3.536 -4.816,-0.911 -9.786,-1.389 -14.867,-1.389 -5.081,0 -10.052,0.477 -14.868,1.389 -1.716,0.325 -2.93,1.79 -2.93,3.536l0.001 23.899c0,5.088 -1.155,9.907 -3.218,14.208 -1.433,-1.482 -2.71,-3.116 -3.807,-4.873 1.052,-2.914 1.626,-6.057 1.626,-9.335l0 -32.351c0,-2.576 1.753,-4.744 4.272,-5.281 6.102,-1.303 12.432,-1.991 18.924,-1.991 6.491,0 12.822,0.688 18.924,1.991 2.519,0.537 4.272,2.705 4.272,5.281z"/>
 </g>
</svg>
