<?xml version="1.0" encoding="UTF-8"?>
<!DOCTYPE svg PUBLIC "-//W3C//DTD SVG 1.1//EN" "http://www.w3.org/Graphics/SVG/1.1/DTD/svg11.dtd">
<svg xml:space="preserve" viewBox="0 0 1000 532" width="1000px" height="532px" version="1.1" style="shape-rendering:geometricPrecision; fill-rule:evenodd; clip-rule:evenodd" xmlns="http://www.w3.org/2000/svg" xmlns:xlink="http://www.w3.org/1999/xlink">
 <defs>
  <style type="text/css">
    .fil2 {fill:black;fill-opacity:0.05}
    .fil3 {fill:black;fill-opacity:0.3}
    .fil1 {fill:url(#id0)}
    .fil0 {fill:url(#id1);fill-opacity:0.5}
  </style>
  <linearGradient id="id0" gradientUnits="userSpaceOnUse" x1="833.726" y1="214.456" x2="833.726" y2="152.296">
   <stop offset="0" style="stop-opacity:1; stop-color:#C00000"/>
   <stop offset="0.6" style="stop-opacity:1; stop-color:red"/>
   <stop offset="1" style="stop-opacity:1; stop-color:red"/>
  </linearGradient>
  <linearGradient id="id1" gradientUnits="userSpaceOnUse" xlink:href="#id0" x1="833.726" y1="218.246" x2="833.726" y2="148.506">
  </linearGradient>
 </defs>
 <g>
  <path class="fil0" d="M833.726 148.506c19.258,0 34.87,15.613 34.87,34.87 0,19.258 -15.612,34.87 -34.87,34.87 -19.257,0 -34.87,-15.612 -34.87,-34.87 0,-19.257 15.613,-34.87 34.87,-34.87z"/>
  <path class="fil1" d="M833.726 152.297c17.165,0 31.08,13.915 31.08,31.079 0,17.165 -13.915,31.08 -31.08,31.08 -17.164,0 -31.079,-13.915 -31.079,-31.08 0,-17.164 13.915,-31.079 31.079,-31.079z"/>
  <path class="fil2" d="M833.727 214.456c17.163,0 31.077,-13.915 31.077,-31.078l0 -0.001c-7.637,8.526 -18.73,13.893 -31.077,13.893 -12.348,0 -23.441,-5.368 -31.078,-13.895l0 0.003c0,17.163 13.915,31.078 31.078,31.078z"/>
  <path class="fil3" d="M843.406 172.945c0.106,0.504 0.001,0.961 -0.318,1.364l-12.813 16.152c-0.144,0.184 -0.156,0.427 -0.032,0.625 0.124,0.199 0.347,0.294 0.576,0.247l14.427 -3.018c0.856,-0.179 1.376,0.165 1.559,1.038l0.085 0.408c0.183,0.873 -0.155,1.397 -1.012,1.576l-18.385 3.845c-0.782,0.164 -1.475,0.164 -2.082,-0.006 -0.803,-0.215 -1.188,-0.628 -1.365,-1.37 -0.106,-0.504 -0.001,-0.96 0.319,-1.364l12.812 -16.151c0.144,-0.185 0.157,-0.428 0.033,-0.626 -0.124,-0.198 -0.348,-0.294 -0.577,-0.246l-14.426 3.017c-0.857,0.18 -1.377,-0.164 -1.56,-1.038l-0.085 -0.407c-0.183,-0.874 0.156,-1.397 1.012,-1.577l18.385 -3.845c0.782,-0.164 1.475,-0.163 2.082,0.007 0.803,0.214 1.188,0.627 1.365,1.369z"/>
 </g>
</svg>
