<?xml version="1.0" encoding="UTF-8"?>
<!DOCTYPE svg PUBLIC "-//W3C//DTD SVG 1.1//EN" "http://www.w3.org/Graphics/SVG/1.1/DTD/svg11.dtd">
<svg xml:space="preserve" viewBox="0 0 1000 532" width="1000px" height="532px" version="1.1" style="shape-rendering:geometricPrecision; fill-rule:evenodd; clip-rule:evenodd" xmlns="http://www.w3.org/2000/svg">
 <defs>
  <style type="text/css">
    .fil1 {fill:red}
    .fil2 {fill:#FF2727}
    .fil0 {fill:red;fill-opacity:0.5}
  </style>
 </defs>
 <g>
  <path class="fil0" d="M254.177 328.95l0 33.997c0,4.114 -2.752,7.583 -6.759,8.518 -7.013,1.637 -14.324,2.504 -21.837,2.504 -7.513,0 -14.823,-0.867 -21.837,-2.504 -4.007,-0.935 -6.758,-4.404 -6.758,-8.518l0 -34.027c2.834,-13.186 14.558,-23.071 28.592,-23.071 14.044,0 25.775,9.899 28.599,23.101z"/>
  <path class="fil1" d="M250.399 319.624c-1.049,2.911 -1.622,6.05 -1.622,9.323l0 32.352c0,2.575 -1.753,4.743 -4.272,5.281 -6.102,1.302 -12.432,1.991 -18.924,1.991 -6.491,0 -12.822,-0.689 -18.924,-1.991 -2.519,-0.538 -4.272,-2.705 -4.272,-5.281l0 -32.352c0,-3.275 -0.574,-6.417 -1.624,-9.329 5.167,-8.268 14.349,-13.769 24.817,-13.769 10.471,0 19.655,5.503 24.821,13.775z"/>
  <path class="fil2" d="M250.399 319.624c-1.049,2.911 -1.622,6.05 -1.622,9.323l0 32.352c0,2.575 -1.753,4.743 -4.272,5.281 -6.102,1.302 -12.432,1.991 -18.924,1.991 -6.491,0 -12.822,-0.689 -18.924,-1.991 -2.519,-0.538 -4.272,-2.705 -4.272,-5.281l0 -32.352c0,-3.275 -0.574,-6.417 -1.624,-9.329 1.097,-1.757 2.376,-3.387 3.81,-4.868 2.06,4.299 3.213,9.113 3.213,14.197l0 23.899c0,1.746 1.215,3.212 2.93,3.536 4.816,0.912 9.786,1.389 14.867,1.389 5.081,0 10.052,-0.477 14.869,-1.389 1.715,-0.325 2.929,-1.79 2.929,-3.536l-0.001 -23.899c0,-5.082 1.153,-9.895 3.211,-14.192 1.434,1.481 2.713,3.112 3.81,4.869z"/>
 </g>
</svg>
