<?xml version="1.0" encoding="UTF-8"?>
<!DOCTYPE svg PUBLIC "-//W3C//DTD SVG 1.1//EN" "http://www.w3.org/Graphics/SVG/1.1/DTD/svg11.dtd">
<svg xml:space="preserve" viewBox="0 0 1000 532" width="1000px" height="532px" version="1.1" style="shape-rendering:geometricPrecision; fill-rule:evenodd; clip-rule:evenodd" xmlns="http://www.w3.org/2000/svg">
 <defs>
  <style type="text/css">
    .fil0 {fill:#B20000}
    .fil2 {fill:red}
    .fil3 {fill:#FF2727}
    .fil1 {fill:#77828C}
  </style>
 </defs>
 <g>
  <path class="fil0" d="M175.321 306.608l-46.317 0c-2.669,-9.068 -4.108,-18.665 -4.108,-28.598 0,-9.933 1.439,-19.528 4.108,-28.597l46.317 0c13.203,2.823 23.104,14.555 23.104,28.6 0,14.036 -9.887,25.76 -23.074,28.595l-0.03 0z"/>
  <path class="fil1" d="M142.938 295.819l0.011 0.002c-0.01,-0.003 -0.02,-0.009 -0.011,-0.002z"/>
  <path class="fil1" d="M142.96 295.84c0.015,0.012 0.001,-0.004 -0.002,-0.017 -0.026,-0.004 -0.013,0.002 0.002,0.017z"/>
  <path class="fil2" d="M184.653 302.833c-2.913,-1.051 -6.054,-1.624 -9.33,-1.624l-32.354 0c-2.576,0 -4.744,-1.753 -5.282,-4.273 -1.303,-6.102 -1.991,-12.433 -1.991,-18.926 0,-6.491 0.688,-12.823 1.991,-18.925 0.538,-2.519 2.705,-4.273 5.282,-4.273l32.354 0c3.273,0 6.413,-0.572 9.324,-1.622 8.273,5.167 13.778,14.352 13.778,24.823 0,10.47 -5.502,19.653 -13.772,24.82z"/>
  <path class="fil3" d="M184.653 302.833c-2.913,-1.051 -6.054,-1.624 -9.33,-1.624l-32.354 0c-2.576,0 -4.744,-1.753 -5.282,-4.273 -1.303,-6.102 -1.991,-12.433 -1.991,-18.926 0,-6.491 0.688,-12.823 1.991,-18.925 0.538,-2.519 2.705,-4.273 5.282,-4.273l32.354 0c3.273,0 6.413,-0.572 9.324,-1.622 1.758,1.097 3.389,2.376 4.87,3.81 -4.297,2.059 -9.111,3.212 -14.194,3.212l-23.901 0c-1.746,0 -3.212,1.215 -3.537,2.93 -0.911,4.816 -1.389,9.787 -1.389,14.868 0,5.082 0.477,10.054 1.389,14.87 0.325,1.716 1.791,2.931 3.537,2.931l23.901 -0.002c5.084,0 9.9,1.154 14.198,3.214 -1.48,1.434 -3.111,2.713 -4.868,3.81z"/>
 </g>
</svg>
