<?xml version="1.0" encoding="UTF-8"?>
<!DOCTYPE svg PUBLIC "-//W3C//DTD SVG 1.1//EN" "http://www.w3.org/Graphics/SVG/1.1/DTD/svg11.dtd">
<svg xml:space="preserve" viewBox="0 0 1000 532" width="1000px" height="532px" version="1.1" style="shape-rendering:geometricPrecision; fill-rule:evenodd; clip-rule:evenodd" xmlns="http://www.w3.org/2000/svg">
 <defs>
  <style type="text/css">
    .fil0 {fill:#B20000}
    .fil2 {fill:red}
    .fil3 {fill:#FF2727}
    .fil1 {fill:#77828C}
  </style>
 </defs>
 <g>
  <path class="fil0" d="M276.72 249.413l46.316 0c2.669,9.068 4.108,18.664 4.108,28.597 0,9.933 -1.438,19.529 -4.108,28.598l-46.316 0 -0.03 0c-13.188,-2.835 -23.074,-14.559 -23.074,-28.595 0,-14.045 9.901,-25.777 23.104,-28.6z"/>
  <path class="fil1" d="M309.102 260.202l-0.011 -0.002c0.01,0.003 0.02,0.009 0.011,0.002z"/>
  <path class="fil1" d="M309.08 260.181c-0.015,-0.013 -0.001,0.004 0.003,0.018 0.025,0.003 0.011,-0.004 -0.003,-0.018z"/>
  <path class="fil2" d="M267.393 253.19c2.912,1.05 6.051,1.622 9.324,1.622l32.355 0c2.576,0 4.743,1.754 5.281,4.273 1.303,6.102 1.991,12.433 1.991,18.925 0,6.492 -0.688,12.824 -1.991,18.926 -0.538,2.52 -2.705,4.273 -5.281,4.273l-32.355 0c-3.275,0 -6.417,0.573 -9.33,1.624 -8.269,-5.167 -13.771,-14.35 -13.771,-24.82 0,-10.471 5.504,-19.656 13.777,-24.823z"/>
  <path class="fil3" d="M267.393 253.19c2.912,1.05 6.051,1.622 9.324,1.622l32.355 0c2.576,0 4.743,1.754 5.281,4.273 1.303,6.102 1.991,12.433 1.991,18.925 0,6.492 -0.688,12.824 -1.991,18.926 -0.538,2.52 -2.705,4.273 -5.281,4.273l-32.355 0c-3.275,0 -6.417,0.573 -9.33,1.624 -1.756,-1.097 -3.388,-2.376 -4.868,-3.81 4.299,-2.06 9.114,-3.214 14.198,-3.214l23.901 0c1.747,0 3.213,-1.214 3.537,-2.93 0.911,-4.816 1.389,-9.787 1.389,-14.869 0,-5.081 -0.477,-10.052 -1.389,-14.869 -0.325,-1.716 -1.79,-2.93 -3.537,-2.93l-23.901 0.001c-5.083,0 -9.896,-1.153 -14.194,-3.212 1.481,-1.434 3.113,-2.713 4.87,-3.81z"/>
 </g>
</svg>
