<?xml version="1.0" encoding="UTF-8"?>
<!DOCTYPE svg PUBLIC "-//W3C//DTD SVG 1.1//EN" "http://www.w3.org/Graphics/SVG/1.1/DTD/svg11.dtd">
<svg xml:space="preserve" viewBox="0 0 1000 532" width="1000px" height="532px" version="1.1" style="shape-rendering:geometricPrecision; fill-rule:evenodd; clip-rule:evenodd" xmlns="http://www.w3.org/2000/svg">
 <defs>
  <style type="text/css">
    .fil0 {fill:#B20000}
    .fil2 {fill:red}
    .fil3 {fill:#FF2727}
    .fil1 {fill:#77828C}
  </style>
 </defs>
 <g>
  <path class="fil0" d="M226.02 176.887c9.933,0 19.529,1.438 28.598,4.108l0 46.316 -0.001 0.088c-2.847,13.173 -14.564,23.044 -28.588,23.044 -14.055,0 -25.793,-9.915 -28.607,-23.132l0 -46.316c9.069,-2.67 18.665,-4.108 28.598,-4.108z"/>
  <path class="fil1" d="M208.212 194.929l-0.002 0.01c0.003,-0.009 0.009,-0.02 0.002,-0.01z"/>
  <path class="fil1" d="M208.19 194.95c-0.012,0.015 0.005,0.002 0.018,-0.001l0 -0.017 -0.018 0.018z"/>
  <path class="fil2" d="M249.218 194.959l0 32.354c0,3.285 0.577,6.435 1.634,9.355 -5.167,8.271 -14.351,13.775 -24.823,13.775 -10.479,0 -19.669,-5.512 -24.833,-13.794 1.052,-2.915 1.626,-6.058 1.626,-9.336l0 -32.354c0,-2.576 1.753,-4.744 4.272,-5.281 6.103,-1.303 12.434,-1.991 18.926,-1.991 6.492,0 12.824,0.688 18.926,1.991 2.519,0.537 4.272,2.705 4.272,5.281z"/>
  <path class="fil3" d="M249.218 194.959l0 32.354c0,3.285 0.577,6.435 1.634,9.355 -1.097,1.756 -2.376,3.387 -3.808,4.867 -2.067,-4.305 -3.225,-9.128 -3.225,-14.222l0 -23.901c0,-1.746 -1.215,-3.212 -2.931,-3.536 -4.816,-0.911 -9.786,-1.389 -14.868,-1.389 -5.082,0 -10.053,0.477 -14.869,1.389 -1.716,0.325 -2.931,1.79 -2.931,3.536l0.002 23.901c0,5.089 -1.156,9.908 -3.219,14.209 -1.433,-1.482 -2.71,-3.115 -3.807,-4.873 1.052,-2.915 1.626,-6.058 1.626,-9.336l0 -32.354c0,-2.576 1.753,-4.744 4.272,-5.281 6.103,-1.303 12.434,-1.991 18.926,-1.991 6.492,0 12.824,0.688 18.926,1.991 2.519,0.537 4.272,2.705 4.272,5.281z"/>
 </g>
</svg>
