<?xml version="1.0" encoding="UTF-8"?>
<!DOCTYPE svg PUBLIC "-//W3C//DTD SVG 1.1//EN" "http://www.w3.org/Graphics/SVG/1.1/DTD/svg11.dtd">
<svg xml:space="preserve" viewBox="0 0 1000 532" width="1000px" height="532px" version="1.1" style="shape-rendering:geometricPrecision; fill-rule:evenodd; clip-rule:evenodd" xmlns="http://www.w3.org/2000/svg">
 <defs>
  <style type="text/css">
    .fil1 {fill:red}
    .fil2 {fill:#FF2727}
    .fil0 {fill:red;fill-opacity:0.5}
  </style>
 </defs>
 <g>
  <path class="fil0" d="M276.276 249.658l33.998 0c4.114,0 7.583,2.752 8.518,6.759 1.637,7.014 2.504,14.324 2.504,21.837 0,7.513 -0.867,14.824 -2.504,21.837 -0.935,4.007 -4.403,6.758 -8.518,6.758l-34.028 0c-13.186,-2.835 -23.072,-14.558 -23.072,-28.592 0,-14.044 9.901,-25.775 23.102,-28.599z"/>
  <path class="fil1" d="M266.95 253.436c2.912,1.05 6.051,1.622 9.324,1.622l32.352 0c2.575,0 4.743,1.753 5.28,4.272 1.303,6.102 1.992,12.433 1.992,18.924 0,6.491 -0.689,12.823 -1.992,18.924 -0.537,2.519 -2.704,4.272 -5.28,4.272l-32.352 0c-3.275,0 -6.417,0.574 -9.33,1.625 -8.268,-5.167 -13.77,-14.349 -13.77,-24.818 0,-10.471 5.505,-19.655 13.776,-24.821z"/>
  <path class="fil2" d="M266.95 253.436c2.912,1.05 6.051,1.622 9.324,1.622l32.352 0c2.575,0 4.743,1.753 5.28,4.272 1.303,6.102 1.992,12.433 1.992,18.924 0,6.491 -0.689,12.823 -1.992,18.924 -0.537,2.519 -2.704,4.272 -5.28,4.272l-32.352 0c-3.275,0 -6.417,0.574 -9.33,1.625 -1.756,-1.098 -3.387,-2.377 -4.867,-3.81 4.298,-2.061 9.113,-3.214 14.197,-3.214l23.899 0c1.746,0 3.212,-1.214 3.536,-2.93 0.911,-4.815 1.389,-9.786 1.389,-14.867 0,-5.081 -0.477,-10.052 -1.389,-14.868 -0.325,-1.716 -1.79,-2.93 -3.536,-2.93l-23.899 0.001c-5.083,0 -9.896,-1.153 -14.193,-3.212 1.481,-1.434 3.112,-2.712 4.869,-3.809z"/>
 </g>
</svg>
