<?xml version="1.0" encoding="UTF-8"?>
<!DOCTYPE svg PUBLIC "-//W3C//DTD SVG 1.1//EN" "http://www.w3.org/Graphics/SVG/1.1/DTD/svg11.dtd">
<svg xml:space="preserve" viewBox="0 0 1000 532" width="1000px" height="532px" version="1.1" style="shape-rendering:geometricPrecision; fill-rule:evenodd; clip-rule:evenodd" xmlns="http://www.w3.org/2000/svg" xmlns:xlink="http://www.w3.org/1999/xlink">
 <defs>
  <style type="text/css">
    .fil2 {fill:black;fill-opacity:0.05}
    .fil3 {fill:black;fill-opacity:0.3}
    .fil1 {fill:url(#id0)}
    .fil0 {fill:url(#id1);fill-opacity:0.5}
  </style>
  <linearGradient id="id0" gradientUnits="userSpaceOnUse" x1="739.517" y1="242.149" x2="739.517" y2="179.99">
   <stop offset="0" style="stop-opacity:1; stop-color:#C00000"/>
   <stop offset="0.6" style="stop-opacity:1; stop-color:red"/>
   <stop offset="1" style="stop-opacity:1; stop-color:red"/>
  </linearGradient>
  <linearGradient id="id1" gradientUnits="userSpaceOnUse" xlink:href="#id0" x1="739.517" y1="245.94" x2="739.517" y2="176.2">
  </linearGradient>
 </defs>
 <g>
  <path class="fil0" d="M739.517 176.2c19.258,0 34.87,15.612 34.87,34.87 0,19.258 -15.612,34.87 -34.87,34.87 -19.257,0 -34.869,-15.612 -34.869,-34.87 0,-19.258 15.612,-34.87 34.869,-34.87z"/>
  <path class="fil1" d="M739.517 179.99c17.165,0 31.08,13.915 31.08,31.08 0,17.164 -13.915,31.079 -31.08,31.079 -17.164,0 -31.079,-13.915 -31.079,-31.079 0,-17.165 13.915,-31.08 31.079,-31.08z"/>
  <path class="fil2" d="M739.517 242.15c17.163,0 31.078,-13.915 31.078,-31.078l0 -0.001c-7.638,8.526 -18.731,13.893 -31.078,13.893 -12.348,0 -23.441,-5.368 -31.077,-13.895l0 0.003c0,17.163 13.914,31.078 31.077,31.078z"/>
  <path class="fil3" d="M742.566 211.673c-0.088,0.195 -0.093,0.376 -0.013,0.575l2.5 6.246c0.43,1.075 0.071,1.942 -1.008,2.374l-1.012 0.405c-1.074,0.429 -1.944,0.081 -2.376,-1.001l-2.506 -6.261c-0.079,-0.197 -0.209,-0.328 -0.406,-0.407l-12.546 -5.053c-0.543,-0.219 -1.031,-0.57 -1.255,-1.13 -0.447,-1.119 0.304,-1.85 1.285,-2.243l1.072 -0.429c0.443,-0.178 0.905,-0.184 1.348,-0.006l10.949 4.409c0.094,0.037 0.197,-0.003 0.239,-0.095l4.906 -10.755c0.2,-0.438 0.539,-0.75 0.986,-0.929l1.087 -0.435c0.98,-0.392 2.012,-0.368 2.457,0.745 0.222,0.553 0.113,1.15 -0.125,1.676l-5.582 12.314z"/>
 </g>
</svg>
