<?xml version="1.0" encoding="UTF-8"?>
<!DOCTYPE svg PUBLIC "-//W3C//DTD SVG 1.1//EN" "http://www.w3.org/Graphics/SVG/1.1/DTD/svg11.dtd">
<svg xml:space="preserve" viewBox="0 0 1000 532" width="1000px" height="532px" version="1.1" style="shape-rendering:geometricPrecision; fill-rule:evenodd; clip-rule:evenodd" xmlns="http://www.w3.org/2000/svg" xmlns:xlink="http://www.w3.org/1999/xlink">
 <defs>
  <style type="text/css">
    .str0 {stroke:#323232;stroke-width:3}
    .str1 {stroke:#333333;stroke-width:4}
    .fil10 {fill:black}
    .fil9 {fill:black}
    .fil14 {fill:#1F1F1F}
    .fil11 {fill:#202020}
    .fil13 {fill:#303030}
    .fil15 {fill:#444444}
    .fil8 {fill:#CCCCCC}
    .fil7 {fill:#E6E6E6}
    .fil25 {fill:black;fill-opacity:0.05}
    .fil32 {fill:black;fill-opacity:0.1}
    .fil18 {fill:white;fill-opacity:0.25}
    .fil26 {fill:black;fill-opacity:0.5}
    .fil20 {fill:white;fill-opacity:0.5}
    .fil33 {fill:black;fill-opacity:0.6}
    .fil21 {fill:white;fill-opacity:0.7}
    .fil2 {fill:url(#id0)}
    .fil34 {fill:url(#id1)}
    .fil5 {fill:url(#id2)}
    .fil0 {fill:url(#id3)}
    .fil1 {fill:url(#id4)}
    .fil35 {fill:url(#id5)}
    .fil12 {fill:url(#id6)}
    .fil6 {fill:url(#id7)}
    .fil3 {fill:url(#id8)}
    .fil31 {fill:url(#id9)}
    .fil30 {fill:url(#id10)}
    .fil24 {fill:url(#id11)}
    .fil4 {fill:url(#id12)}
    .fil28 {fill:url(#id13)}
    .fil27 {fill:url(#id14)}
    .fil16 {fill:url(#id15)}
    .fil17 {fill:url(#id16)}
    .fil23 {fill:url(#id17)}
    .fil19 {fill:url(#id18)}
    .fil29 {fill:url(#id19);fill-opacity:0.6}
    .fil22 {fill:url(#id20);fill-opacity:0.6}
  </style>
  <linearGradient id="id0" gradientUnits="userSpaceOnUse" x1="499.99" y1="75.958" x2="499.99" y2="33.294">
   <stop offset="0" style="stop-opacity:1; stop-color:#1A1A1A"/>
   <stop offset="1" style="stop-opacity:1; stop-color:#333333"/>
  </linearGradient>
  <linearGradient id="id1" gradientUnits="objectBoundingBox" x1="50%" y1="50.0001%" x2="50%" y2="4.43179e-05%">
   <stop offset="0" style="stop-opacity:1; stop-color:#303030"/>
   <stop offset="1" style="stop-opacity:1; stop-color:#484848"/>
  </linearGradient>
  <linearGradient id="id2" gradientUnits="userSpaceOnUse" x1="792.47" y1="466.796" x2="730.527" y2="97.406">
   <stop offset="0" style="stop-opacity:1; stop-color:#101010"/>
   <stop offset="0.6" style="stop-opacity:1; stop-color:#2A2A2A"/>
   <stop offset="0.901961" style="stop-opacity:1; stop-color:gray"/>
   <stop offset="1" style="stop-opacity:1; stop-color:#999999"/>
  </linearGradient>
  <linearGradient id="id3" gradientUnits="userSpaceOnUse" x1="500.005" y1="526.519" x2="500.005" y2="5.481">
   <stop offset="0" style="stop-opacity:1; stop-color:#1C1C1C"/>
   <stop offset="1" style="stop-opacity:1; stop-color:#666666"/>
  </linearGradient>
  <linearGradient id="id4" gradientUnits="userSpaceOnUse" x1="499.989" y1="74.463" x2="499.989" y2="5.481">
   <stop offset="0" style="stop-opacity:1; stop-color:#202020"/>
   <stop offset="0.6" style="stop-opacity:1; stop-color:#4D4D4D"/>
   <stop offset="0.929412" style="stop-opacity:1; stop-color:gray"/>
   <stop offset="1" style="stop-opacity:1; stop-color:#999999"/>
  </linearGradient>
  <linearGradient id="id5" gradientUnits="userSpaceOnUse" x1="891.359" y1="243.568" x2="891.359" y2="322.386">
   <stop offset="0" style="stop-opacity:1; stop-color:#262626"/>
   <stop offset="0.6" style="stop-opacity:1; stop-color:#303030"/>
   <stop offset="1" style="stop-opacity:1; stop-color:#404040"/>
  </linearGradient>
  <linearGradient id="id6" gradientUnits="userSpaceOnUse" x1="226.096" y1="368.826" x2="226.096" y2="188.176">
   <stop offset="0" style="stop-opacity:1; stop-color:#3D3D3D"/>
   <stop offset="0.501961" style="stop-opacity:1; stop-color:#333333"/>
   <stop offset="1" style="stop-opacity:1; stop-color:#292929"/>
  </linearGradient>
  <linearGradient id="id7" gradientUnits="userSpaceOnUse" x1="711.724" y1="150.543" x2="805.144" y2="431.301">
   <stop offset="0" style="stop-opacity:1; stop-color:#1A1A1A"/>
   <stop offset="0.501961" style="stop-opacity:1; stop-color:#333333"/>
   <stop offset="0.94902" style="stop-opacity:1; stop-color:#8A8A8A"/>
   <stop offset="1" style="stop-opacity:1; stop-color:#999999"/>
  </linearGradient>
  <linearGradient id="id8" gradientUnits="userSpaceOnUse" xlink:href="#id2" x1="204.353" y1="452.201" x2="261.734" y2="116.755">
  </linearGradient>
  <linearGradient id="id9" gradientUnits="objectBoundingBox" xlink:href="#id5" x1="50.0001%" y1="0%" x2="50.0001%" y2="100%">
  </linearGradient>
  <linearGradient id="id10" gradientUnits="userSpaceOnUse" xlink:href="#id1" x1="681.49" y1="370.776" x2="681.49" y2="327.649">
  </linearGradient>
  <linearGradient id="id11" gradientUnits="objectBoundingBox" x1="50.0002%" y1="99.9999%" x2="50.0002%" y2="0%">
   <stop offset="0" style="stop-opacity:1; stop-color:#4D4D4D"/>
   <stop offset="0.6" style="stop-opacity:1; stop-color:gray"/>
   <stop offset="1" style="stop-opacity:1; stop-color:#999999"/>
  </linearGradient>
  <linearGradient id="id12" gradientUnits="userSpaceOnUse" x1="277.304" y1="148.562" x2="181.623" y2="415.686">
   <stop offset="0" style="stop-opacity:1; stop-color:#1A1A1A"/>
   <stop offset="0.501961" style="stop-opacity:1; stop-color:#333333"/>
   <stop offset="0.94902" style="stop-opacity:1; stop-color:gray"/>
   <stop offset="1" style="stop-opacity:1; stop-color:#8A8A8A"/>
  </linearGradient>
  <linearGradient id="id13" gradientUnits="userSpaceOnUse" xlink:href="#id11" x1="833.726" y1="210.666" x2="833.726" y2="156.087">
  </linearGradient>
  <linearGradient id="id14" gradientUnits="objectBoundingBox" x1="50.0002%" y1="99.9998%" x2="50.0002%" y2="0.000168819%">
   <stop offset="0" style="stop-opacity:1; stop-color:#333333"/>
   <stop offset="0.6" style="stop-opacity:1; stop-color:gray"/>
   <stop offset="1" style="stop-opacity:1; stop-color:#B3B3B3"/>
  </linearGradient>
  <linearGradient id="id15" gradientUnits="userSpaceOnUse" x1="226.096" y1="368.826" x2="226.096" y2="188.176">
   <stop offset="0" style="stop-opacity:1; stop-color:#444444"/>
   <stop offset="0.501961" style="stop-opacity:1; stop-color:#3A3A3A"/>
   <stop offset="1" style="stop-opacity:1; stop-color:#444444"/>
  </linearGradient>
  <linearGradient id="id16" gradientUnits="userSpaceOnUse" x1="226.094" y1="295.231" x2="226.094" y2="265.486">
   <stop offset="0" style="stop-opacity:1; stop-color:#666666"/>
   <stop offset="0.34902" style="stop-opacity:1; stop-color:#3B3B3B"/>
   <stop offset="1" style="stop-opacity:1; stop-color:#101010"/>
  </linearGradient>
  <linearGradient id="id17" gradientUnits="userSpaceOnUse" xlink:href="#id14" x1="649.264" y1="286.828" x2="649.264" y2="224.67">
  </linearGradient>
  <linearGradient id="id18" gradientUnits="userSpaceOnUse" x1="476.986" y1="253.532" x2="476.986" y2="267.101">
   <stop offset="0" style="stop-opacity:1; stop-color:#8A8A8A"/>
   <stop offset="1" style="stop-opacity:1; stop-color:#4D4D4D"/>
  </linearGradient>
  <linearGradient id="id19" gradientUnits="objectBoundingBox" xlink:href="#id1" x1="50%" y1="50%" x2="50%" y2="0%">
  </linearGradient>
  <linearGradient id="id20" gradientUnits="objectBoundingBox" x1="49.9999%" y1="99.9998%" x2="49.9999%" y2="0%">
   <stop offset="0" style="stop-opacity:1; stop-color:#333333"/>
   <stop offset="0.501961" style="stop-opacity:1; stop-color:gray"/>
   <stop offset="1" style="stop-opacity:1; stop-color:#CCCCCC"/>
  </linearGradient>
 </defs>
 <g>
  <g id="shell">
   <path class="fil0" d="M277.86 40.48c6.858,-2.361 13.765,-4.598 20.714,-6.71l402.827 0c6.95,2.112 13.859,4.348 20.718,6.71 143.092,49.271 274.589,159.719 271.444,323.772 -0.67,34.475 -8.853,70.163 -28.07,99.187 -28.704,43.355 -77.642,68.706 -129.971,62.015 -18.74,-2.397 -34.55,-7.298 -52.173,-14.148 -29.611,-11.509 -59.096,-23.349 -88.74,-34.774 -127.023,-48.95 -261.746,-45.19 -389.015,-0.157 -30.244,10.702 -60.106,23.623 -90.018,35.357 -16.666,6.537 -33.354,11.447 -51.118,13.722 -52.038,6.636 -101.626,-18.614 -130.039,-62.015 -19.313,-29.491 -27.309,-64.339 -27.981,-99.255 -3.004,-154.905 134.722,-276.634 271.422,-323.704z"/>
   <path class="fil1" d="M701.403 33.772l-29.057 33.433c-5.163,5.933 -13.215,8.447 -20.873,6.726 -11.088,-2.492 -21.946,-4.918 -33.16,-6.861 -12.293,-2.129 -24.871,-3.951 -37.263,-5.381 -13.393,-1.546 -26.76,-2.59 -40.221,-3.318 -13.639,-0.738 -27.214,-1.121 -40.873,-1.121 -13.658,0 -27.235,0.382 -40.872,1.121 -13.454,0.73 -26.836,1.775 -40.222,3.318 -12.387,1.427 -24.977,3.249 -37.263,5.381 -11.214,1.946 -22.065,4.416 -33.159,6.861 -7.611,1.676 -15.735,-0.779 -20.876,-6.728l-28.988 -33.433c24.562,-7.469 49.639,-13.39 74.885,-17.818 41.607,-7.296 84.274,-10.471 126.496,-10.471 42.236,0 84.872,3.173 126.493,10.471 25.26,4.431 50.369,10.35 74.953,17.82z"/>
   <path class="fil2" d="M702.968 34.248c-4.652,5.363 -29.499,33.935 -29.491,33.941 -2.749,3.159 -6.269,5.415 -10.123,6.656 -3.879,1.25 -8.098,1.468 -12.209,0.545 -5.517,-1.24 -10.98,-2.465 -16.51,-3.631 -5.46,-1.152 -10.955,-2.239 -16.575,-3.213 -6.167,-1.067 -12.396,-2.057 -18.625,-2.957 -6.184,-0.893 -12.389,-1.701 -18.555,-2.412 -6.661,-0.769 -13.335,-1.415 -20.032,-1.96 -6.754,-0.55 -13.443,-0.992 -20.096,-1.352 -6.842,-0.37 -13.635,-0.651 -20.393,-0.837 -6.661,-0.185 -13.455,-0.278 -20.403,-0.278 -6.948,0 -13.742,0.093 -20.402,0.277 -6.759,0.187 -13.552,0.467 -20.394,0.838 -6.648,0.36 -13.339,0.804 -20.095,1.354 -6.7,0.545 -13.376,1.19 -20.033,1.958 -6.174,0.711 -12.392,1.52 -18.587,2.414 -6.22,0.898 -12.44,1.888 -18.593,2.955 -9.949,1.727 -19.523,3.844 -29.229,5.991l-3.861 0.853 0 0.005c-4.098,0.902 -8.342,0.68 -12.249,-0.578 -3.839,-1.237 -7.351,-3.477 -10.08,-6.635l-29.42 -33.935c1.043,-0.32 2.087,-0.638 3.132,-0.953l28.549 32.931c2.362,2.732 5.405,4.672 8.733,5.744 3.401,1.095 7.104,1.287 10.69,0.497l0.001 0.005 3.86 -0.852c9.816,-2.171 19.498,-4.312 29.369,-6.025 6.159,-1.069 12.406,-2.062 18.676,-2.967 6.239,-0.901 12.484,-1.714 18.669,-2.426 6.728,-0.775 13.437,-1.425 20.138,-1.97 6.643,-0.541 13.372,-0.985 20.177,-1.354 6.794,-0.368 13.61,-0.649 20.464,-0.838 6.951,-0.192 13.776,-0.289 20.485,-0.289 6.71,0 13.535,0.097 20.485,0.289 6.854,0.19 13.67,0.47 20.464,0.838 6.808,0.368 13.535,0.812 20.177,1.352 6.699,0.545 13.407,1.195 20.139,1.972 6.176,0.713 12.408,1.524 18.635,2.424 6.28,0.906 12.537,1.9 18.709,2.969 5.594,0.969 11.136,2.066 16.679,3.236 5.475,1.154 10.986,2.39 16.557,3.642 3.583,0.805 7.259,0.615 10.639,-0.474 3.336,-1.075 6.386,-3.032 8.775,-5.778l28.62 -32.924c1.045,0.315 2.089,0.632 3.133,0.952z"/>
   <path class="fil3 str0" d="M366.166 153.096c32.671,31.58 45.889,72.396 41.21,117.211 -5.973,57.222 -39.39,110.629 -86.228,143.678 -21.582,15.229 -45.704,27.746 -71.452,34.172 -31.604,7.886 -65.476,9.345 -96.772,-1.069 -24.948,-8.301 -47.585,-22.381 -64.332,-42.891 -23.013,-28.184 -30.796,-58.043 -30.796,-94.011 0,-93.372 82.155,-170.857 168.118,-191.358 47.966,-11.441 104.308,-0.475 140.252,34.268z"/>
   <path class="fil4 str1" d="M98.557 248.619c14.522,-30.536 37.522,-58.39 66.344,-76.422 51.297,-32.096 117.309,-47.824 170.445,-7.999 42.77,32.055 46.865,103.28 25.115,148.606 -19.317,40.251 -51.326,74.986 -91.521,95.107 -66.174,33.134 -160.012,15.463 -179.51,-64.74 -7.289,-29.984 -4.264,-66.398 9.127,-94.552z"/>
   <path class="fil5 str0" d="M592.648 164.069c34.461,-48.894 91.988,-71.558 150.726,-68.722 27.602,1.335 54.956,8.112 80.157,19.379 34.477,15.409 65.237,39.218 88.734,68.764 14.627,18.406 26.821,38.877 34.792,61.043 19.126,53.174 15.173,108.43 -16.696,155.666 -30.028,41.556 -74.72,64.471 -125.728,68.328 -55.44,4.176 -112.207,-15.055 -155.565,-49.407 -31.093,-24.63 -55.693,-56.037 -70.594,-92.88 -21.796,-53.912 -19.252,-113.601 14.174,-162.171z"/>
   <path class="fil6 str1" d="M735.427 144.812c-23.316,0.831 -48.217,5.576 -69.407,15.549 -59.306,27.886 -82.991,84.327 -64.847,146.18 6.983,23.798 18.09,43.809 33.476,63.264 17.829,22.54 42.024,40.902 68.59,52.254 17.344,7.407 36.666,12.611 55.502,14.273 19.941,1.756 40.298,0.741 59.823,-3.744 17.55,-4.028 34.75,-10.988 49.146,-21.867 15.083,-11.39 29.546,-28.189 38.29,-44.816 56.742,-107.873 -50.014,-225.39 -170.573,-221.093z"/>
   <g>
    <path class="fil7" d="M430.6 151.033l16.069 -0.016c6.575,0 11.903,-5.312 11.903,-11.858 0,-6.558 -5.328,-11.87 -11.903,-11.87l-4.173 0.022c-0.329,0 -0.596,-0.27 -0.596,-0.602 0,-0.331 0.267,-0.601 0.596,-0.601l16.041 0.003 0.006 -5.032 -16.05 0c-3.104,0 -5.629,2.521 -5.629,5.618 0,3.1 2.524,5.612 5.629,5.612l4.193 0.055c3.767,0 6.815,3.038 6.815,6.786 0,3.751 -3.048,6.796 -6.815,6.796l-16.08 0 -0.006 5.087zm0.006 -6.268l16.08 0c3.112,0 5.63,-2.512 5.63,-5.616 0,-3.1 -2.518,-5.608 -5.63,-5.608l-4.193 -0.045c-3.761,0 -6.813,-3.041 -6.813,-6.799 0,-3.747 3.052,-6.789 6.813,-6.789l16.05 -0.004 -0.006 -5.052 -16.041 0c-6.568,0 -11.903,5.306 -11.903,11.858 0,6.552 5.335,11.86 11.903,11.86l4.151 0.007c0.315,0 0.582,0.257 0.582,0.583 0,0.319 -0.267,0.575 -0.582,0.575l-16.047 0.013 0.006 5.016 0 0.001zm0 0l0 0 0 0zm40.426 1.213c-2.788,0 -5.072,-2.222 -5.072,-5.059l0 -16.054c0,-2.729 2.284,-4.974 5.072,-4.974l17.153 0.003 0 -5.042 -17.153 0c-5.582,0 -10.104,4.506 -10.104,10.068l0 15.999c0,5.563 4.522,10.075 10.104,10.075l17.081 0.007 -0.003 -5.029 -17.078 0.006 0 0zm0 0l0 0 0 0zm-3.842 -21.057c0,-2.127 1.711,-3.852 3.842,-3.852l17.153 0 0 5.049 -14.778 0c-1.184,0 -1.201,1.174 -1.201,1.174l12.33 0 0 5.026 -17.352 0 0.006 -7.397 0 0zm0 0l0 0 0 0zm3.842 19.834c-2.124,0 -3.849,-1.714 -3.849,-3.836l0 -7.404 17.353 0 0 5.037 -12.33 0c0.016,1.183 1.2,1.189 1.2,1.189l14.707 0 -0.003 5.007 -17.078 0.007zm74.18 1.21l-13.416 0 0 5.032 20.417 0 -10.619 -31.415c-0.93,-3.064 -3.998,-5.319 -7.629,-5.319 -3.635,0 -6.693,2.245 -7.631,5.307l-9.528 27.943 0 -20.221 -14.277 0 0 5.026 9.231 0 0 13.647 -11.554 0c-2.778,0 -5.049,-2.264 -5.049,-5.046l0 -15.999c0,-2.785 2.254,-5.029 5.036,-5.029l16.613 0 0 -5.039 -16.652 0c-5.58,0 -10.101,4.506 -10.101,10.068l0 15.999c0,5.563 4.56,10.075 10.14,10.075 8.696,0.004 14.07,0.004 20.771,0.004l10.403 -30.55c0.422,-1.012 1.419,-1.725 2.589,-1.725 1.166,0 2.167,0.713 2.593,1.719l8.663 25.523 0 0zm-48.871 -5.046c0,2.132 1.724,3.865 3.852,3.865l10.377 0 0 -11.275 -8.029 0 0 5.043 2.98 0 0.009 1.183 -2.966 0c-0.648,0 -1.178,-0.536 -1.178,-1.183l-0.027 -11.263c0,0 -0.003,-1.171 1.191,-1.2l14.262 0 -0.007 -5.023 -16.614 0.003c-2.126,0 -3.851,1.725 -3.851,3.852l0 15.998 0.001 0zm0 0l0 0 0 0zm35.446 -0.579l-3.615 10.657 -5.953 0 10.199 -30.003c0.224,-0.641 0.832,-1.102 1.552,-1.102 0.719,0 1.333,0.462 1.551,1.102l8.065 23.826 -11.809 0 0.01 -4.48zm0.381 -1.125l3.568 0 -1.777 -5.281 -1.791 5.281zm13.044 6.75l0 0 0 0z"/>
   </g>
   <path class="fil8" d="M457.062 312.624c3.818,0 6.279,-1.983 6.279,-5.004 0,-2.4 -1.552,-3.852 -4.923,-4.649l-1.818 -0.428c-2.319,-0.554 -3.22,-1.252 -3.22,-2.469 0,-1.518 1.433,-2.589 3.466,-2.589 2.123,0 3.502,1.183 3.629,3.109l2.416 0c-0.1,-3.278 -2.385,-5.297 -6.01,-5.297 -3.613,0 -5.974,1.954 -5.974,4.904 0,2.319 1.475,3.725 4.865,4.527l1.845 0.438c2.338,0.551 3.228,1.295 3.228,2.589 0,1.634 -1.502,2.681 -3.783,2.681 -2.519,0 -3.998,-1.306 -4.01,-3.524l-2.484 0c0,3.547 2.465,5.712 6.494,5.712zm7.308 -14.881l5.358 0 0 14.631 2.52 0 0 -14.631 5.335 0 0 -2.195 -13.213 0 0 2.195zm11.691 14.631l2.662 0 1.537 -4.368 6.776 0 1.491 4.368 2.72 0 -6.06 -16.826 -3.024 0 -6.102 16.826zm4.954 -6.495l1.048 -2.981c0.462,-1.391 0.948,-2.874 1.626,-5.054 0.666,2.18 1.14,3.663 1.602,5.054l1.013 2.981 -5.289 0zm11.972 6.495l2.497 0 0 -6.379 3.725 0c0.034,0 0.081,0 0.111,0l3.356 6.379 2.819 0 -3.632 -6.795c2.099,-0.755 3.374,-2.443 3.374,-4.792 0,-3.217 -2.257,-5.235 -5.859,-5.235l-6.391 0 0 16.822zm2.497 -8.506l0 -6.151 3.782 0c2.165,0 3.498,1.174 3.498,3.07 0,1.899 -1.321,3.081 -3.486,3.081l-3.794 0zm10.767 -6.125l5.358 0 0 14.631 2.519 0 0 -14.631 5.335 0 0 -2.195 -13.212 0 0 2.195z"/>
  </g>
  <g id="holes">
   <circle class="fil9" cx="226.098" cy="278.501" r="112.774"/>
   <path class="fil10" d="M455.589 275.852c-9.326,0 -16.892,-7.563 -16.892,-16.893 0,-9.329 7.563,-16.893 16.892,-16.893 19.618,0 39.235,0 58.853,0 9.329,0 16.892,7.564 16.892,16.893 0,9.33 -7.564,16.893 -16.892,16.893 -19.618,0 -39.235,0 -58.853,0z"/>
   <circle class="fil9" cx="649.264" cy="255.748" r="38.246"/>
   <circle class="fil9" cx="739.517" cy="211.069" r="38.246"/>
   <circle class="fil9" cx="833.726" cy="183.376" r="38.246"/>
   <circle class="fil9" cx="681.49" cy="370.777" r="50.558"/>
   <circle class="fil9" cx="781.454" cy="314.971" r="50.558"/>
   <circle class="fil9" cx="891.359" cy="282.977" r="50.558"/>
  </g>
  <g id="dpad">
   <circle class="fil11" cx="226.098" cy="278.501" r="101.125"/>
   <path class="fil12" d="M249.295 195.449l0 32.354c0,15.188 12.311,27.5 27.499,27.5l32.355 0c2.575,0 4.744,1.753 5.281,4.272 1.303,6.103 1.991,12.434 1.991,18.926 0,6.492 -0.688,12.823 -1.991,18.926 -0.537,2.519 -2.705,4.272 -5.281,4.272l-32.355 0c-15.188,0 -27.499,12.312 -27.499,27.5l0 32.355c0,2.575 -1.753,4.743 -4.273,5.281 -6.102,1.302 -12.434,1.991 -18.926,1.991 -6.491,0 -12.823,-0.689 -18.926,-1.991 -2.519,-0.538 -4.272,-2.705 -4.272,-5.281l0 -32.355c0,-15.188 -12.312,-27.5 -27.499,-27.5l-32.355 0c-2.576,0 -4.744,-1.753 -5.281,-4.272 -1.303,-6.103 -1.992,-12.433 -1.992,-18.926 0,-6.492 0.689,-12.823 1.992,-18.926 0.537,-2.519 2.705,-4.272 5.281,-4.272l32.355 0c15.187,0 27.499,-12.312 27.499,-27.5l0 -32.354c0,-2.576 1.753,-4.745 4.272,-5.282 6.103,-1.303 12.434,-1.991 18.926,-1.991 6.492,0 12.824,0.688 18.926,1.991 2.52,0.537 4.273,2.705 4.273,5.282z"/>
   <path class="fil13" d="M317.468 307.099c-9.338,29.863 -32.909,53.436 -62.774,62.773l0 -40.669c0,-12.207 9.897,-22.104 22.105,-22.104l40.669 0zm-119.97 62.773c-29.863,-9.337 -53.437,-32.908 -62.774,-62.773l40.67 0c12.208,0 22.104,9.897 22.104,22.104l0 40.669zm0 -182.743l0 40.67c0,12.207 -9.896,22.104 -22.104,22.104l-40.67 0c9.339,-29.863 32.909,-53.435 62.774,-62.774zm119.97 62.774l-40.669 0c-12.208,0 -22.105,-9.897 -22.105,-22.104l0 -40.67c29.865,9.339 53.436,32.91 62.774,62.774z"/>
   <path class="fil14" d="M160.379 341.144l5.994 -12.222c0.336,-0.683 0.935,-1.132 1.687,-1.255 0.748,-0.124 1.466,0.106 2.001,0.641l6.228 6.228c0.536,0.536 0.765,1.253 0.642,2.001 -0.125,0.752 -0.572,1.351 -1.256,1.688l-12.221 5.993c-0.894,0.439 -1.934,0.268 -2.638,-0.437 -0.704,-0.704 -0.875,-1.744 -0.437,-2.637zm125.441 -12.222l5.993 12.222c0.439,0.893 0.268,1.933 -0.436,2.637 -0.705,0.706 -1.744,0.876 -2.638,0.437l-12.221 -5.993c-0.683,-0.336 -1.133,-0.936 -1.256,-1.688 -0.124,-0.747 0.105,-1.465 0.642,-2.001l6.227 -6.228c0.536,-0.535 1.254,-0.765 2.002,-0.641 0.751,0.123 1.352,0.572 1.687,1.255zm-9.302 -110.145l12.221 -5.993c0.892,-0.439 1.934,-0.268 2.638,0.437 0.705,0.704 0.875,1.743 0.436,2.637l-5.993 12.221c-0.336,0.684 -0.936,1.131 -1.687,1.256 -0.748,0.124 -1.467,-0.106 -2.002,-0.642l-6.227 -6.227c-0.537,-0.536 -0.766,-1.254 -0.642,-2.001 0.123,-0.752 0.573,-1.352 1.256,-1.688zm-113.064 -5.993l12.221 5.993c0.684,0.337 1.131,0.936 1.256,1.688 0.123,0.748 -0.106,1.465 -0.642,2.001l-6.228 6.227c-0.536,0.537 -1.253,0.766 -2.001,0.642 -0.752,-0.125 -1.351,-0.572 -1.687,-1.256l-5.994 -12.221c-0.439,-0.893 -0.268,-1.933 0.437,-2.637 0.704,-0.705 1.745,-0.876 2.638,-0.437z"/>
   <path class="fil15" d="M167.266 329.36l-5.992 12.221c-0.252,0.512 -0.155,1.091 0.249,1.493 0.403,0.404 0.981,0.502 1.493,0.251l12.221 -5.994c0.391,-0.192 0.638,-0.524 0.709,-0.954 0.072,-0.435 -0.052,-0.822 -0.364,-1.134l-6.227 -6.228c-0.313,-0.312 -0.699,-0.436 -1.134,-0.364 -0.431,0.071 -0.762,0.318 -0.955,0.709zm123.653 12.221l-5.994 -12.221c-0.191,-0.391 -0.524,-0.638 -0.953,-0.709 -0.435,-0.072 -0.822,0.052 -1.134,0.364l-6.228 6.228c-0.312,0.313 -0.436,0.699 -0.363,1.134 0.069,0.43 0.318,0.762 0.708,0.954l12.221 5.994c0.514,0.25 1.09,0.153 1.494,-0.251 0.403,-0.402 0.501,-0.981 0.249,-1.493zm-1.743 -127.903l-12.221 5.994c-0.39,0.192 -0.639,0.523 -0.708,0.953 -0.073,0.436 0.051,0.821 0.363,1.134l6.228 6.228c0.312,0.312 0.699,0.436 1.134,0.364 0.429,-0.071 0.762,-0.318 0.953,-0.71l5.994 -12.22c0.252,-0.513 0.154,-1.091 -0.249,-1.494 -0.403,-0.402 -0.982,-0.5 -1.494,-0.249zm-113.939 5.994l-12.221 -5.994c-0.512,-0.251 -1.091,-0.153 -1.493,0.249 -0.404,0.403 -0.501,0.981 -0.249,1.494l5.992 12.22c0.193,0.391 0.524,0.639 0.955,0.71 0.434,0.072 0.821,-0.052 1.134,-0.364l6.227 -6.228c0.312,-0.312 0.436,-0.698 0.364,-1.134 -0.071,-0.43 -0.318,-0.761 -0.709,-0.953z"/>
   <path class="fil16" d="M249.295 195.449l0 32.354c0,15.188 12.312,27.5 27.499,27.5l32.355 0c2.575,0 4.744,1.753 5.281,4.272 1.303,6.102 1.991,12.434 1.991,18.926 0,6.492 -0.688,12.823 -1.991,18.926 -0.537,2.519 -2.705,4.272 -5.281,4.272l-32.355 0c-15.187,0 -27.499,12.312 -27.499,27.5l0 32.355c0,2.575 -1.754,4.743 -4.273,5.281 -6.102,1.303 -12.434,1.991 -18.926,1.991 -6.491,0 -12.823,-0.688 -18.926,-1.991 -2.519,-0.538 -4.272,-2.705 -4.272,-5.281l0 -32.355c0,-15.188 -12.312,-27.5 -27.499,-27.5l-32.355 0c-2.576,0 -4.744,-1.753 -5.282,-4.272 -1.302,-6.103 -1.991,-12.434 -1.991,-18.926 0,-6.492 0.689,-12.824 1.991,-18.926 0.538,-2.519 2.705,-4.272 5.282,-4.272l32.355 0c15.187,0 27.499,-12.312 27.499,-27.5l0 -32.354c0,-2.576 1.753,-4.745 4.272,-5.282 6.103,-1.303 12.434,-1.991 18.926,-1.991 6.492,0 12.824,0.688 18.926,1.991 2.519,0.537 4.273,2.705 4.273,5.282zm-5.4 32.354l0 -23.901c0,-1.746 -1.214,-3.212 -2.93,-3.537 -4.816,-0.911 -9.787,-1.389 -14.869,-1.389 -5.082,0 -10.053,0.478 -14.869,1.389 -1.716,0.325 -2.931,1.791 -2.931,3.537l0.002 23.901c0,9.084 -3.683,17.31 -9.636,23.263 -5.954,5.954 -14.18,9.636 -23.263,9.636l-23.901 0c-1.747,0 -3.213,1.215 -3.537,2.93 -0.911,4.817 -1.39,9.787 -1.39,14.869 0,5.082 0.478,10.053 1.39,14.87 0.325,1.715 1.79,2.93 3.537,2.93l23.901 -0.001c9.083,0 17.309,3.682 23.263,9.636 5.953,5.953 9.636,14.179 9.636,23.263l0 23.901c0,1.746 1.214,3.212 2.93,3.537 4.816,0.911 9.786,1.389 14.868,1.389 5.082,0 10.054,-0.478 14.87,-1.389 1.716,-0.325 2.93,-1.791 2.93,-3.537l-0.001 -23.901c0,-9.084 3.682,-17.31 9.636,-23.263 5.953,-5.954 14.179,-9.636 23.263,-9.636l23.901 0c1.746,0 3.212,-1.215 3.537,-2.931 0.911,-4.816 1.389,-9.786 1.389,-14.868 0,-5.082 -0.477,-10.053 -1.389,-14.87 -0.325,-1.716 -1.791,-2.93 -3.537,-2.93l-23.901 0.001c-9.084,0 -17.31,-3.682 -23.263,-9.636 -5.954,-5.953 -9.636,-14.179 -9.636,-23.263z"/>
   <circle class="fil17" cx="226.096" cy="278.501" r="18.589"/>
   <path class="fil18" d="M246.595 201.274l-0.001 -3.961c0,-2.011 -1.398,-3.7 -3.374,-4.073 -5.547,-1.048 -11.271,-1.6 -17.124,-1.6 -5.854,0 -11.579,0.551 -17.126,1.6 -1.976,0.374 -3.376,2.063 -3.375,4.073l0 3.961c0,-2.011 1.399,-3.699 3.376,-4.073 5.547,-1.05 11.272,-1.6 17.125,-1.6 5.854,0 11.578,0.551 17.125,1.6 1.976,0.373 3.374,2.062 3.374,4.073zm-98.046 57.545c-2.774,0 -5.109,1.145 -5.688,2.789 0.295,-2.692 1.488,-4.568 2.903,-4.568l29.635 0c16.676,0 30.196,-13.09 30.196,-29.237 0,17.13 -13.52,31.016 -30.196,31.016l-26.85 0zm155.094 0c2.775,0 5.109,1.145 5.688,2.789 -0.295,-2.692 -1.487,-4.568 -2.902,-4.568l-29.634 0c-16.677,0 -30.197,-13.09 -30.197,-29.237 0,17.13 13.52,31.016 30.197,31.016l26.848 0z"/>
  </g>
  <path class="fil19" d="M455.589 272.529c-7.493,0 -13.569,-6.076 -13.569,-13.57 0,-7.494 6.075,-13.569 13.569,-13.569 19.618,0 39.236,0 58.853,0 7.494,0 13.569,6.075 13.569,13.569 0,7.494 -6.076,13.57 -13.569,13.57 -19.617,0 -39.235,0 -58.853,0z"/>
  <path class="fil20" d="M455.715 256.79c-1.783,0 -3.23,-1.447 -3.23,-3.232 0,-1.784 1.446,-3.231 3.23,-3.231 19.534,0 39.067,0 58.601,0 1.784,0 3.23,1.447 3.23,3.231 0,1.785 -1.447,3.232 -3.23,3.232 -19.534,0 -39.067,0 -58.601,0z"/>
  <path class="fil21" d="M455.714 255.222c-0.916,0 -1.662,-0.744 -1.662,-1.662 0,-0.919 0.744,-1.663 1.662,-1.663 19.534,0 39.069,0 58.603,0 0.918,0 1.662,0.745 1.662,1.663 0,0.918 -0.746,1.662 -1.662,1.662 -19.534,0 -39.069,0 -58.603,0z"/>
  <path class="fil22" d="M649.264 220.879c19.258,0 34.87,15.612 34.87,34.87 0,19.258 -15.612,34.87 -34.87,34.87 -19.258,0 -34.87,-15.612 -34.87,-34.87 0,-19.258 15.612,-34.87 34.87,-34.87z"/>
  <path class="fil23" d="M649.264 224.67c17.164,0 31.079,13.915 31.079,31.079 0,17.164 -13.915,31.079 -31.079,31.079 -17.165,0 -31.08,-13.915 -31.08,-31.079 0,-17.164 13.915,-31.079 31.08,-31.079z"/>
  <path class="fil24" d="M649.264 228.46c15.071,0 27.289,12.218 27.289,27.289 0,15.071 -12.218,27.29 -27.289,27.29 -15.071,0 -27.29,-12.219 -27.29,-27.29 0,-15.071 12.219,-27.289 27.29,-27.289z"/>
  <path class="fil25" d="M649.264 286.828c17.163,0 31.077,-13.913 31.077,-31.077l0 -0.001c-7.637,8.526 -18.73,13.893 -31.077,13.893 -12.348,0 -23.44,-5.368 -31.077,-13.895l0 0.003c0,17.164 13.914,31.077 31.077,31.077z"/>
  <path class="fil26" d="M663.862 256.013c0.573,0.083 0.972,0.311 1.198,0.674 0.401,0.647 0.167,1.236 -0.693,1.77 -0.1,0.088 -0.253,0.195 -0.458,0.323 -0.58,0.36 -1.054,0.512 -1.418,0.454l-11.555 -1.692c-0.332,-0.048 -0.644,0.144 -0.748,0.463l-3.68 11.145c-0.106,0.349 -0.465,0.714 -1.075,1.092 -0.181,0.112 -0.331,0.192 -0.45,0.24 -0.86,0.534 -1.495,0.477 -1.902,-0.179 -0.219,-0.354 -0.244,-0.809 -0.068,-1.356l3.657 -11.179c0.065,-0.199 0.042,-0.396 -0.069,-0.574 -0.111,-0.177 -0.277,-0.286 -0.484,-0.315l-11.21 -1.611c-0.577,-0.079 -0.979,-0.301 -1.203,-0.663 -0.396,-0.638 -0.165,-1.219 0.701,-1.756l0.968 -0.601c0.283,-0.176 0.573,-0.239 0.874,-0.2l11.231 1.575c0.331,0.046 0.64,-0.147 0.745,-0.463l3.538 -10.724c0.102,-0.302 0.292,-0.536 0.567,-0.706l0.939 -0.583c0.852,-0.528 1.479,-0.473 1.88,0.174 0.225,0.363 0.246,0.813 0.065,1.351l-3.506 10.722c-0.065,0.198 -0.041,0.395 0.068,0.572 0.109,0.177 0.275,0.286 0.481,0.317l11.607 1.73z"/>
  <path class="fil22" d="M739.517 176.2c19.258,0 34.87,15.612 34.87,34.87 0,19.258 -15.612,34.87 -34.87,34.87 -19.258,0 -34.87,-15.612 -34.87,-34.87 0,-19.258 15.612,-34.87 34.87,-34.87z"/>
  <path class="fil27" d="M739.517 179.991c17.164,0 31.079,13.915 31.079,31.079 0,17.164 -13.915,31.08 -31.079,31.08 -17.164,0 -31.079,-13.916 -31.079,-31.08 0,-17.164 13.915,-31.079 31.079,-31.079z"/>
  <path class="fil24" d="M739.517 183.781c15.071,0 27.289,12.218 27.289,27.289 0,15.071 -12.218,27.29 -27.289,27.29 -15.071,0 -27.29,-12.219 -27.29,-27.29 0,-15.071 12.219,-27.289 27.29,-27.289z"/>
  <path class="fil25" d="M739.517 242.15c17.163,0 31.077,-13.914 31.077,-31.078l0 -0.001c-7.637,8.526 -18.73,13.893 -31.077,13.893 -12.347,0 -23.44,-5.368 -31.077,-13.895l0 0.003c0,17.164 13.914,31.078 31.077,31.078z"/>
  <path class="fil26" d="M747.691 199.16l-5.58 12.307c-0.144,0.317 -0.151,0.644 -0.021,0.967l2.5 6.245c0.329,0.824 0.087,1.398 -0.731,1.726l-1.011 0.405c-0.829,0.331 -1.403,0.089 -1.728,-0.724l-2.506 -6.261c-0.13,-0.323 -0.36,-0.554 -0.684,-0.684l-12.545 -5.053c-0.506,-0.204 -0.831,-0.487 -0.978,-0.853 -0.274,-0.686 0.062,-1.215 1.007,-1.594l1.072 -0.429c0.331,-0.132 0.655,-0.132 0.983,-0.004l10.944 4.407c0.339,0.137 0.725,-0.017 0.877,-0.35l4.905 -10.752c0.149,-0.319 0.389,-0.545 0.719,-0.677l1.088 -0.435c0.935,-0.375 1.534,-0.219 1.808,0.467 0.143,0.356 0.102,0.784 -0.119,1.292z"/>
  <path class="fil22" d="M833.726 148.507c19.258,0 34.87,15.612 34.87,34.87 0,19.258 -15.612,34.87 -34.87,34.87 -19.258,0 -34.87,-15.612 -34.87,-34.87 0,-19.258 15.612,-34.87 34.87,-34.87z"/>
  <path class="fil27" d="M833.726 152.297c17.164,0 31.079,13.915 31.079,31.08 0,17.164 -13.915,31.079 -31.079,31.079 -17.164,0 -31.079,-13.915 -31.079,-31.079 0,-17.165 13.915,-31.08 31.079,-31.08z"/>
  <path class="fil28" d="M833.726 156.087c15.071,0 27.289,12.218 27.289,27.29 0,15.071 -12.218,27.289 -27.289,27.289 -15.071,0 -27.29,-12.218 -27.29,-27.289 0,-15.072 12.219,-27.29 27.29,-27.29z"/>
  <path class="fil25" d="M833.726 214.456c17.163,0 31.077,-13.914 31.077,-31.077l0 -0.001c-7.637,8.526 -18.73,13.893 -31.077,13.893 -12.347,0 -23.44,-5.368 -31.077,-13.895l0 0.003c0,17.163 13.914,31.077 31.077,31.077z"/>
  <path class="fil26" d="M843.406 172.945c0.106,0.504 0.001,0.961 -0.318,1.364l-12.813 16.152c-0.144,0.184 -0.156,0.427 -0.032,0.625 0.124,0.199 0.347,0.294 0.576,0.247l14.427 -3.018c0.856,-0.179 1.376,0.165 1.559,1.038l0.085 0.408c0.183,0.873 -0.155,1.397 -1.012,1.576l-18.385 3.845c-0.782,0.164 -1.475,0.164 -2.082,-0.006 -0.803,-0.215 -1.188,-0.628 -1.365,-1.37 -0.106,-0.504 -0.001,-0.96 0.319,-1.364l12.812 -16.151c0.144,-0.185 0.157,-0.428 0.033,-0.626 -0.124,-0.198 -0.348,-0.294 -0.577,-0.246l-14.426 3.017c-0.857,0.18 -1.377,-0.164 -1.56,-1.038l-0.085 -0.407c-0.183,-0.874 0.156,-1.397 1.012,-1.577l18.385 -3.845c0.782,-0.164 1.475,-0.163 2.082,0.007 0.803,0.214 1.188,0.627 1.365,1.369z"/>
  <path class="fil29" d="M681.491 323.932c25.871,0 46.844,20.974 46.844,46.845 0,25.871 -20.973,46.845 -46.844,46.845 -25.872,0 -46.845,-20.974 -46.845,-46.845 0,-25.871 20.973,-46.845 46.845,-46.845z"/>
  <circle class="fil30" cx="681.49" cy="370.776" r="43.127"/>
  <circle class="fil31" cx="681.49" cy="370.776" r="39.409"/>
  <path class="fil32" d="M681.49 331.367c21.765,0 39.41,17.645 39.41,39.409l0 0.002c-9.686,-10.813 -23.753,-17.618 -39.41,-17.618 -15.657,0 -29.725,6.807 -39.409,17.62l0 -0.004c0,-21.764 17.645,-39.409 39.409,-39.409z"/>
  <path class="fil33" d="M686.631 368.424l-8.589 -3.831c-0.256,-0.114 -0.527,-0.095 -0.766,0.052 -0.238,0.148 -0.376,0.383 -0.388,0.662l-0.404 9.411c-0.013,0.311 0.136,0.586 0.406,0.743 0.269,0.158 0.581,0.154 0.847,-0.011l8.993 -5.579c0.264,-0.164 0.407,-0.442 0.385,-0.753 -0.021,-0.311 -0.199,-0.566 -0.484,-0.694zm14.808 1.637c0.134,0.141 0.258,0.303 0.366,0.477 0.353,0.569 0.45,1.15 0.289,1.737 -0.161,0.587 -0.529,1.055 -1.104,1.412 -0.597,0.37 -1.354,0.346 -2.281,-0.077l-5.733 -2.502c-0.46,-0.201 -0.945,-0.166 -1.371,0.098l-14.811 9.189c-0.427,0.264 -0.674,0.686 -0.697,1.187l-0.288 6.266c0.022,0.272 0.009,0.488 -0.034,0.631 -0.098,0.378 -0.316,0.675 -0.656,0.886 -0.732,0.454 -1.43,0.524 -2.107,0.218 -0.292,-0.136 -0.506,-0.305 -0.634,-0.512 -0.086,-0.139 -0.137,-0.27 -0.148,-0.388l0.616 -25.984c0.033,-1.119 0.574,-1.979 1.639,-2.579 1.256,-0.717 2.225,-0.8 2.905,-0.24l24.049 10.181z"/>
  <path class="fil29" d="M781.454 268.127c25.871,0 46.845,20.973 46.845,46.844 0,25.872 -20.974,46.845 -46.845,46.845 -25.871,0 -46.845,-20.973 -46.845,-46.845 0,-25.871 20.974,-46.844 46.845,-46.844z"/>
  <circle class="fil34" cx="781.453" cy="314.971" r="43.127"/>
  <circle class="fil31" cx="781.453" cy="314.971" r="39.409"/>
  <path class="fil32" d="M781.454 275.562c21.764,0 39.409,17.644 39.409,39.408l0 0.002c-9.685,-10.812 -23.752,-17.618 -39.409,-17.618 -15.658,0 -29.725,6.807 -39.41,17.62l0 -0.004c0,-21.764 17.645,-39.408 39.41,-39.408z"/>
  <path class="fil33" d="M793.066 314.972c-0.557,-1.461 -2.58,-1.494 -6.062,-0.1l-14.064 5.629c-0.419,0.168 -0.625,0.647 -0.457,1.067l1.866 4.66c0.168,0.42 0.647,0.625 1.066,0.457l13.808 -5.527c3.238,-1.296 4.762,-2.741 4.582,-4.339l-0.739 -1.847zm-3.027 -7.774l-0.847 -1.905c-0.721,-1.551 -2.843,-1.621 -6.368,-0.211l-13.728 5.495c-0.42,0.168 -0.625,0.647 -0.457,1.067l1.968 4.917c0.168,0.419 0.647,0.624 1.066,0.456l13.869 -5.551c2.58,-1.032 4.085,-2.115 4.507,-3.254 0.133,-0.357 0.131,-0.696 -0.01,-1.014zm7.74 7.458c1.054,2.635 0.324,5 -2.197,7.099 -0.769,0.64 -1.724,1.263 -2.861,1.867 -0.623,0.335 -1.182,0.6 -1.67,0.795l-17.728 7.096c-0.976,0.391 -1.662,0.092 -2.057,-0.896l-7.99 -19.96c-0.39,-0.976 -0.097,-1.659 0.878,-2.05l17.21 -6.888c1.94,-0.777 3.468,-1.254 4.571,-1.433 1.566,-0.259 3.014,-0.124 4.339,0.393 1.503,0.573 2.533,1.554 3.084,2.933l0.708 1.768c0.554,1.384 0.525,2.726 -0.088,4.04 -0.089,0.184 -0.101,0.366 -0.035,0.531 0.044,0.11 0.126,0.211 0.253,0.316l0.167 0.117c1.344,0.51 2.291,1.46 2.845,2.845l0.571 1.427z"/>
  <path class="fil29" d="M891.359 236.133c25.871,0 46.845,20.973 46.845,46.844 0,25.871 -20.974,46.845 -46.845,46.845 -25.871,0 -46.845,-20.974 -46.845,-46.845 0,-25.871 20.974,-46.844 46.845,-46.844z"/>
  <circle class="fil34" cx="891.358" cy="282.976" r="43.127"/>
  <circle class="fil35" cx="891.358" cy="282.977" r="39.409"/>
  <path class="fil32" d="M891.359 243.568c21.764,0 39.409,17.644 39.409,39.408l0 0.002c-9.685,-10.812 -23.752,-17.618 -39.409,-17.618 -15.658,0 -29.725,6.807 -39.41,17.62l0 -0.004c0,-21.764 17.645,-39.408 39.41,-39.408z"/>
  <path class="fil33" d="M902.935 270.073c0.216,1.035 -0.196,1.665 -1.238,1.882l-15.682 3.281c-3.806,0.796 -5.551,1.953 -5.232,3.477l2.502 11.959c0.239,1.144 1.248,1.766 3.027,1.864 0.781,0.045 2.069,-0.118 3.87,-0.494l14.962 -3.13c1.028,-0.215 1.652,0.198 1.871,1.246l0.102 0.489c0.219,1.048 -0.186,1.676 -1.215,1.891l-14.956 3.129c-1.807,0.377 -3.097,0.594 -3.856,0.652 -1.33,0.09 -2.606,-0.039 -3.836,-0.399 -2.459,-0.721 -3.909,-2.136 -4.35,-4.244l-2.514 -12.018c-0.314,-1.504 0.115,-2.949 1.297,-4.324 1.005,-1.164 2.282,-2.055 3.844,-2.67 0.863,-0.335 2.081,-0.67 3.669,-1.002l15.747 -3.294c1.041,-0.218 1.67,0.188 1.885,1.216l0.103 0.489z"/>
 </g>
</svg>
