<?xml version="1.0" encoding="UTF-8"?>
<!DOCTYPE svg PUBLIC "-//W3C//DTD SVG 1.1//EN" "http://www.w3.org/Graphics/SVG/1.1/DTD/svg11.dtd">
<svg xml:space="preserve" viewBox="0 0 980 450" width="980px" height="450px" version="1.1" style="shape-rendering:geometricPrecision; fill-rule:evenodd; clip-rule:evenodd" xmlns="http://www.w3.org/2000/svg">
 <defs>
  <style type="text/css">
    .str4 {stroke:#C44C28;stroke-width:3}
    .str3 {stroke:#57534F}
    .str1 {stroke:#242221}
    .str2 {stroke:#57534F}
    .str0 {stroke:#302E2C;stroke-width:2}
    .fil4 {fill:none}
    .fil11 {fill:black}
    .fil16 {fill:#262626}
    .fil2 {fill:#505251}
    .fil6 {fill:#635E5A}
    .fil15 {fill:#8A877B}
    .fil1 {fill:#B2B2B0}
    .fil5 {fill:#C44C28}
    .fil17 {fill:#C46428}
    .fil13 {fill:#999493}
    .fil14 {fill:#242221}
    .fil12 {fill:#7D7772}
    .fil3 {fill:#8C887B}
    .fil8 {fill:#505251}
    .fil7 {fill:#C44C28}
    .fil9 {fill:white}
    .fil18 {fill:black;fill-opacity:0.05}
    .fil19 {fill:black;fill-opacity:0.07}
    .fil0 {fill:url(#id0)}
    .fil10 {fill:url(#id1)}
  </style>
  <linearGradient id="id0" gradientUnits="userSpaceOnUse" x1="490" y1="442.74" x2="490" y2="7.26">
   <stop offset="0" style="stop-opacity:1; stop-color:#8C8C8A"/>
   <stop offset="0.05" style="stop-opacity:1; stop-color:#8C8C8A"/>
   <stop offset="0.12" style="stop-opacity:1; stop-color:#B2B2B0"/>
   <stop offset="0.18" style="stop-opacity:1; stop-color:#BFBFBD"/>
   <stop offset="0.72" style="stop-opacity:1; stop-color:#BFBFBD"/>
   <stop offset="0.95" style="stop-opacity:1; stop-color:#E6E6E3"/>
   <stop offset="1" style="stop-opacity:1; stop-color:#E6E6E3"/>
  </linearGradient>
  <linearGradient id="id1" gradientUnits="userSpaceOnUse" x1="521.214" y1="294.814" x2="521.214" y2="372.077">
   <stop offset="0" style="stop-opacity:1; stop-color:#80807E"/>
   <stop offset="0.2" style="stop-opacity:1; stop-color:#80807E"/>
   <stop offset="0.5" style="stop-opacity:1; stop-color:#B2B2B0"/>
   <stop offset="0.8" style="stop-opacity:1; stop-color:#E6E6E3"/>
   <stop offset="1" style="stop-opacity:1; stop-color:#E6E6E3"/>
  </linearGradient>
 </defs>
 <g>
  <path class="fil0" d="M913.607 442.74l-847.214 0c-36.023,0 -63.106,-31.935 -57.221,-67.475l44.298 -267.521c11.439,-69.084 78.134,-113.374 146.246,-97.118l188.628 45.021c3.196,0.763 6,1.093 9.286,1.093l184.74 0c3.286,0 6.09,-0.33 9.286,-1.093l188.628 -45.021c68.112,-16.256 134.807,28.034 146.246,97.118l44.298 267.521c5.885,35.54 -21.198,67.475 -57.221,67.475z"/>
  <path class="fil1" d="M66.393 417.74l847.214 0c20.72,0 35.989,-18.061 32.612,-38.471l-44.298 -267.521c-9.08,-54.842 -61.868,-89.694 -115.875,-76.806l-191.493 45.705c-3.196,0.763 -6,1.093 -9.286,1.093l-190.534 0c-3.286,0 -6.09,-0.33 -9.286,-1.093l-191.493 -45.705c-54.202,-12.935 -106.828,22.161 -115.875,76.806l-44.298 267.521c-3.377,20.41 11.892,38.471 32.612,38.471z"/>
  <path class="fil2" d="M58.124 370.815c-2.436,14.708 8.773,27.925 23.681,27.925l223.485 0 0 -312.934 -108.892 -25.99c-45.408,-10.837 -89.872,18.69 -97.498,64.746l-40.776 246.253z"/>
  <path class="fil3" d="M898.195 398.74c14.908,0 26.117,-13.217 23.681,-27.925l-40.776 -246.253c-7.626,-46.057 -52.09,-75.583 -97.498,-64.746l-191.661 45.745c-3.197,0.764 -6.001,1.094 -9.287,1.094l-185.308 0c-3.287,0 -6.09,-0.33 -9.287,-1.094l-82.769 -19.755 0 312.934 592.905 0z"/>
  <path class="fil4 str0" d="M921.876 370.815l-40.776 -246.253c-7.626,-46.057 -52.09,-75.583 -97.498,-64.746l-191.661 45.745c-3.197,0.764 -6.001,1.094 -9.287,1.094l-185.308 0c-3.287,0 -6.09,-0.33 -9.287,-1.094l-191.661 -45.745c-45.408,-10.837 -89.872,18.69 -97.498,64.746l-40.776 246.253c-2.436,14.708 8.773,27.925 23.681,27.925l816.39 0c14.908,0 26.117,-13.217 23.681,-27.925z"/>
  <circle class="fil2" cx="606.304" cy="358.546" r="18.02"/>
  <circle class="fil2" cx="851.241" cy="266.111" r="18.02"/>
  <circle class="fil5" cx="606.304" cy="230.903" r="18.02"/>
  <circle class="fil5" cx="851.241" cy="138.468" r="18.02"/>
  <circle class="fil1 str1" cx="202.693" cy="231.389" r="92.727"/>
  <circle class="fil6" cx="202.693" cy="231.389" r="87.439"/>
  <path class="fil7" d="M377.165 160.744l-2 0c-1.2,0 -2.48,0.08 -4,0.16 -0.88,0.08 -1.52,0.08 -1.92,0.08 -1.28,0 -2.24,-0.32 -3.04,-0.88 -0.8,-0.56 -1.2,-1.36 -1.2,-2.24 0,-0.64 0.16,-1.2 0.56,-1.52 0.32,-0.4 0.88,-0.64 1.68,-0.88 0.72,-0.159 1.28,-0.48 1.52,-0.879 0.24,-0.4 0.48,-1.28 0.64,-2.48 0.16,-1.441 0.32,-4.16 0.4,-8.24 0.16,-4.08 0.16,-8.08 0.16,-12.16 0,-1.6 -0.16,-2.64 -0.4,-3.121 -0.24,-0.559 -0.8,-0.96 -1.68,-1.279 -1.279,-0.48 -1.92,-1.36 -1.92,-2.48 0,-0.88 0.48,-1.6 1.36,-2.16 0.88,-0.48 2.161,-0.801 3.76,-0.801 0.56,0 1.12,0 1.84,0 1.6,0.081 2.72,0.081 3.44,0.081 2.72,0 5.68,-0.081 9.12,-0.24 0.72,0 1.6,-0.081 2.64,-0.081 4.32,0 7.68,0.481 10.16,1.441 3.68,1.44 6.48,3.92 8.4,7.36 1.68,3.04 2.48,6.64 2.48,10.88 0,2.08 -0.32,4.24 -0.96,6.4 -0.64,2.16 -1.44,4 -2.48,5.52 -2.16,3.12 -5.2,5.36 -9.04,6.64 -2.24,0.72 -4.64,1.119 -7.2,1.119l-3.44 -0.08 -2.96 -0.08c-2.16,-0.08 -4.16,-0.08 -5.92,-0.08zm5.92 -30.48l0 21.76c0,1.2 0.24,2 0.72,2.48 0.48,0.48 1.36,0.72 2.56,0.72 5.44,0 8.24,-4.16 8.24,-12.48 0,-4.56 -0.64,-8.16 -1.92,-10.72 -1.44,-2.8 -3.76,-4.16 -7.12,-4.16 -0.88,0 -1.52,0.16 -1.92,0.56 -0.4,0.4 -0.56,0.96 -0.56,1.84zm54.48 17.92l-13.2 0c-0.56,0 -0.88,0.24 -0.88,0.72 0,1.2 0.64,2.4 2,3.44 1.36,1.04 2.72,1.6 4.24,1.6 0.88,0 1.92,-0.16 2.96,-0.56 1.121,-0.32 2,-0.8 2.72,-1.28 0.641,-0.48 1.12,-0.64 1.521,-0.64 0.48,0 0.96,0.32 1.44,0.88 0.48,0.64 0.72,1.2 0.72,1.84 0,1.36 -0.88,2.64 -2.561,3.92 -2.96,2.24 -6.4,3.36 -10.319,3.36 -3.92,0 -7.201,-1.119 -9.92,-3.44 -1.28,-1.12 -2.4,-2.479 -3.2,-4.08 -1.12,-2.08 -1.68,-4.32 -1.68,-6.72 0,-3.12 0.96,-6 2.88,-8.48 1.68,-2.16 3.76,-3.76 6.32,-4.88 1.92,-0.8 4,-1.2 6.24,-1.2 3.6,0 6.56,1.04 9.12,3.04 1.28,1.04 2.24,2.24 3.04,3.6 0.88,1.6 1.36,3.12 1.36,4.64 0,1.2 -0.24,2.24 -0.72,2.96 -0.641,0.88 -1.281,1.28 -2.081,1.28zm-12.48 -5.28l2.88 0c1.2,0 1.84,-0.56 1.84,-1.68 0,-1.04 -0.32,-1.84 -0.88,-2.48 -0.56,-0.64 -1.36,-0.96 -2.24,-0.96 -1.04,0 -1.84,0.4 -2.479,1.2 -0.561,0.8 -0.88,1.52 -0.88,2.32 0,0.56 0.16,0.96 0.4,1.2 0.159,0.24 0.639,0.4 1.359,0.4zm51.12 0.24l0.4 9.92c0,0.72 0.16,1.28 0.32,1.68 0.16,0.32 0.8,1.04 1.76,2.08 0.32,0.32 0.4,0.72 0.4,1.28 0,1.2 -0.72,2.08 -2.24,2.56 -1.52,0.48 -4.16,0.72 -7.92,0.72 -2.56,0 -4.4,-0.24 -5.52,-0.64 -1.12,-0.48 -1.68,-1.2 -1.68,-2.24 0,-0.4 0.08,-0.64 0.16,-0.8 0.08,-0.16 0.48,-0.64 1.12,-1.28 0.72,-0.8 1.12,-3.44 1.12,-7.84 0,-2.56 -0.32,-4.48 -0.88,-5.76 -0.48,-0.96 -1.36,-1.52 -2.72,-1.52 -1.28,0 -2.08,0.4 -2.56,1.2 -0.48,0.8 -0.72,2.24 -0.72,4.4l0 5.6c0,1.12 0.08,1.84 0.24,2.24 0.16,0.4 0.64,1.2 1.36,2.4 0.24,0.32 0.32,0.72 0.32,1.12 0,1.12 -0.8,1.92 -2.32,2.48 -1.52,0.56 -3.92,0.8 -7.2,0.8 -5.2,0 -7.84,-1.04 -7.84,-3.2 0,-0.48 0.08,-0.8 0.24,-1.04 0.16,-0.24 0.56,-0.56 1.12,-0.96 0.48,-0.32 0.8,-0.8 0.96,-1.2 0.16,-0.48 0.24,-1.6 0.4,-3.36 0.16,-2.16 0.16,-4.4 0.16,-6.72 0,-1.28 -0.08,-2.16 -0.32,-2.56 -0.16,-0.4 -0.8,-0.88 -1.68,-1.44 -0.8,-0.48 -1.2,-1.12 -1.2,-1.84 0,-0.72 0.32,-1.36 0.96,-1.84 0.64,-0.48 2,-1.12 4.08,-1.84 1.84,-0.64 3.52,-1.2 5.2,-1.6 1.68,-0.48 2.8,-0.64 3.44,-0.64 0.56,0 1.04,0.24 1.44,0.64 0.4,0.4 0.56,0.88 0.56,1.44 0,0.08 0,0.32 0,0.72 0,0.16 0,0.32 0,0.4 0,0.88 0.4,1.36 1.12,1.36 0.48,0 0.96,-0.32 1.44,-1.04 1.6,-2.32 3.92,-3.52 7.04,-3.52 2.4,0 4.4,0.64 6.08,1.84 1.2,0.88 2,1.92 2.48,3.12 0.48,0.8 0.8,2.56 0.88,4.88zm37.44 -18.56l0 25.68c0,1.44 0.08,2.4 0.16,2.8 0.16,0.4 0.48,0.8 1.04,1.2 0.64,0.48 1.12,0.88 1.36,1.2 0.24,0.32 0.32,0.8 0.32,1.28 0,1.52 -1.52,2.64 -4.56,3.44 -2.72,0.72 -5.44,1.04 -8.16,1.04 -0.64,0 -0.96,-0.08 -1.2,-0.24 -0.16,-0.16 -0.32,-0.64 -0.32,-1.28 -0.08,-0.96 -0.4,-1.44 -1.04,-1.44 -0.32,0 -0.8,0.32 -1.52,0.88 -1.92,1.52 -4.08,2.32 -6.4,2.32 -2.88,0 -5.52,-1.04 -7.84,-3.2 -1.36,-1.28 -2.48,-2.8 -3.28,-4.48 -1.12,-2.16 -1.68,-4.4 -1.68,-6.64 0,-2.64 0.72,-5.2 2.16,-7.68 1.36,-2.24 3.2,-4 5.52,-5.2 1.92,-1.04 3.84,-1.52 5.76,-1.52 2.16,0 4.16,0.48 5.84,1.44 0.32,0.16 0.48,0.24 0.64,0.24 0.64,0 0.88,-0.8 0.88,-2.4 0,-0.72 -0.16,-1.2 -0.48,-1.6 -0.321,-0.4 -0.88,-0.64 -1.76,-0.96 -1.2,-0.4 -1.76,-1.04 -1.76,-2 0,-1.36 1.36,-2.401 4.08,-3.2 4.8,-1.36 8,-2 9.68,-2 1.76,0 2.56,0.8 2.56,2.32zm-15.28 14.16c-1.2,0 -2.16,0.64 -2.88,1.92 -0.96,1.76 -1.44,4 -1.44,6.8 0,2.561 0.48,4.481 1.36,5.76 0.64,0.96 1.52,1.441 2.64,1.441 1.2,0 2.08,-0.72 2.64,-2.161 0.56,-1.44 0.8,-3.679 0.8,-6.88 0,-2.88 -0.32,-4.8 -0.96,-5.76 -0.48,-0.72 -1.2,-1.04 -2.16,-1.12zm46.64 7.84l-3.68 10.16c-0.88,2.56 -1.84,4.56 -2.8,6.24 -0.96,1.681 -2,2.96 -3.2,4.081 -2.4,2.319 -5.36,3.519 -8.8,3.519 -2.8,0 -5.04,-0.72 -6.72,-2.16 -1.36,-1.119 -2,-2.56 -2,-4.32 0,-1.44 0.48,-2.64 1.36,-3.68 0.88,-1.04 2.08,-1.44 3.44,-1.44 1.36,0 2.4,0.48 3.28,1.36 0.4,0.4 0.64,0.8 0.8,1.12 0.16,0.32 0.32,1.04 0.56,2.08 0.24,0.8 0.64,1.2 1.44,1.2 0.56,0 1.04,-0.24 1.44,-0.72 0.401,-0.48 0.56,-1.12 0.56,-1.92 0,-0.88 -0.48,-2.32 -1.44,-4.4l-6.8 -14.4c-0.72,-1.52 -1.28,-2.4 -1.6,-2.8 -0.32,-0.4 -1.12,-0.8 -2.4,-1.36 -0.4,-0.16 -0.72,-0.48 -0.96,-0.879 -0.24,-0.481 -0.4,-0.88 -0.4,-1.281 0,-1.68 1.68,-2.799 4.96,-3.439 2.24,-0.401 4.72,-0.56 7.6,-0.56 2,0 3.52,0.24 4.719,0.64 1.521,0.56 2.321,1.44 2.321,2.8 0,0.48 -0.24,1.04 -0.641,1.679 -0.399,0.641 -0.639,1.121 -0.639,1.601 0,0.48 0.08,0.879 0.319,1.44 0.16,0.48 0.641,1.28 1.28,2.48 0.72,1.279 1.36,2 1.92,2 0.56,0 1.2,-0.56 1.84,-1.76 0.64,-1.2 0.96,-2.24 0.96,-3.36 0,-0.88 -0.24,-1.601 -0.72,-2.08 -0.72,-0.88 -1.04,-1.6 -1.04,-2.161 0,-0.96 0.64,-1.679 1.92,-2.319 1.28,-0.561 2.96,-0.88 5.12,-0.88 4,0 6,0.96 6,2.88 0,0.72 -0.24,1.279 -0.64,1.68 -0.4,0.4 -1.12,0.8 -2.24,1.2 -0.88,0.319 -1.6,0.88 -2.16,1.68 -0.959,1.119 -1.839,3.199 -2.959,6.079z"/>
  <path class="fil8" d="M396.789 193.998c3.605,0 6,-2.098 6,-5.876l0 -13.8 -2.906 0 0 13.787c0,2.204 -1.227,3.391 -3.107,3.391 -1.88,0 -3.107,-1.187 -3.107,-3.391l0 -1.147 -2.8 0 0 1.138c0,3.786 2.36,5.898 5.92,5.898zm17.649 0.031c5.174,0 8.938,-4.058 8.938,-9.987 0,-5.956 -3.764,-10.014 -8.938,-10.014 -5.177,0 -8.929,4.058 -8.929,10.014 0,5.916 3.752,9.987 8.929,9.987zm0 -2.64c-3.351,0 -6.022,-2.627 -6.022,-7.347 0,-4.747 2.671,-7.374 6.022,-7.374 3.347,0 6.032,2.627 6.032,7.374 0,4.72 -2.685,7.347 -6.032,7.347zm15.974 2.346l2.853 0 0 -7.751 7.107 -11.662 -3.321 0 -3.644 6.124c-0.547,0.911 -1.049,1.809 -1.555,2.711 -0.507,-0.902 -1.023,-1.8 -1.569,-2.711l-3.685 -6.124 -3.346 0 7.16 11.662 0 7.751zm18.653 0.289c4.405,0 7.245,-2.289 7.245,-5.773 0,-2.769 -1.791,-4.445 -5.68,-5.365l-2.098 -0.493c-2.676,-0.64 -3.716,-1.445 -3.716,-2.849 0,-1.751 1.654,-2.987 4,-2.987 2.449,0 4.04,1.365 4.187,3.587l2.787 0c-0.116,-3.782 -2.752,-6.111 -6.934,-6.111 -4.169,0 -6.893,2.253 -6.893,5.658 0,2.675 1.702,4.298 5.613,5.222l2.129 0.507c2.698,0.635 3.725,1.493 3.725,2.986 0,1.885 -1.734,3.094 -4.365,3.094 -2.906,0 -4.613,-1.507 -4.626,-4.067l-2.867 0c0,4.093 2.844,6.591 7.493,6.591zm8.431 -17.169l6.183 0 0 16.88 2.906 0 0 -16.88 6.156 0 0 -2.533 -15.245 0 0 2.533zm20.547 -2.533l-2.88 0 0 19.413 2.88 0 0 -19.413zm11.854 19.707c4.235,0 7.515,-2.614 8.178,-6.734l-2.93 0c-0.613,2.627 -2.59,4.094 -5.222,4.094 -3.826,0 -6.169,-2.965 -6.169,-7.347 0,-4.409 2.343,-7.374 6.169,-7.374 2.645,0 4.636,1.48 5.209,4.12l2.943 0c-0.676,-4.133 -3.943,-6.76 -8.178,-6.76 -5.365,0 -9.049,4.045 -9.049,10.014 0,5.929 3.697,9.987 9.049,9.987zm10.995 -0.294l2.88 0 0 -6.022 2.734 -3.022 6.315 9.044 3.382 0 -7.72 -11.009 7.658 -8.404 -3.657 0 -5.525 6.084c-1.08,1.214 -2.133,2.387 -3.187,3.583l0 -9.667 -2.88 0 0 19.413z"/>
  <path class="fil9" d="M602.718 356.92l0 -4.933 3.56 0c1.76,0 2.84,0.955 2.84,2.471 0,1.506 -1.08,2.462 -2.84,2.462l-3.56 0zm0 8.187l0 -5.173 3.804 0c2.023,0 3.209,1.013 3.209,2.631 0,1.617 -1.213,2.542 -3.271,2.542l-3.742 0zm-3.92 3.146l8.222 0c4.414,0 6.791,-2.222 6.791,-5.466 0,-2.765 -1.818,-4.427 -4.182,-4.645l0 -0.026c2.124,-0.534 3.462,-2.031 3.462,-4.285 0,-2.991 -2.337,-4.991 -6.515,-4.991l-7.778 0 0 19.413z"/>
  <path class="fil9" d="M848.663 268.378l0.662 -2.004c0.627,-1.982 1.227,-3.96 1.929,-6.373 0.689,2.413 1.289,4.391 1.889,6.373l0.649 2.004 -5.129 0zm-6.809 7.44l4.325 0 1.404 -4.24 7.249 0 1.356 4.24 4.44 0 -6.809 -19.413 -5.156 0 -6.809 19.413z"/>
  <path class="fil1 str2" d="M364.687 289.526c-24.255,0 -43.919,19.664 -43.919,43.92 0,24.256 19.663,43.92 43.919,43.92l155.004 0c24.256,0 43.92,-19.664 43.92,-43.92 0,-24.256 -19.664,-43.92 -43.92,-43.92l-155.004 0z"/>
  <path class="fil10" d="M364.687 372.078c-21.335,0 -38.632,-17.296 -38.632,-38.632 0,-21.336 17.297,-38.632 38.632,-38.632 51.669,0 103.336,0 155.004,0 21.336,0 38.632,17.296 38.632,38.632 0,21.336 -17.296,38.632 -38.632,38.632 -51.668,0 -103.335,0 -155.004,0z"/>
  <path class="fil1" d="M519.691 311.153c12.312,0 22.293,9.981 22.293,22.293 0,12.312 -9.981,22.293 -22.293,22.293l-155.004 0c-12.311,0 -22.292,-9.981 -22.292,-22.293 0,-12.312 9.981,-22.293 22.292,-22.293l155.004 0z"/>
  <path class="fil11" d="M408.607 319.139c7.901,0 14.306,6.405 14.306,14.307 0,7.901 -6.405,14.307 -14.306,14.307l-43.92 0c-7.901,0 -14.306,-6.406 -14.306,-14.307 0,-7.902 6.405,-14.307 14.306,-14.307l43.92 0z"/>
  <path class="fil11" d="M519.692 319.139c7.901,0 14.306,6.405 14.306,14.307 0,7.901 -6.405,14.307 -14.306,14.307l-43.92 0c-7.901,0 -14.306,-6.406 -14.306,-14.307 0,-7.902 6.405,-14.307 14.306,-14.307l43.92 0z"/>
  <polygon class="fil3" points="671.01,127.626 733.692,102.709 739.621,117.627 676.94,142.544 "/>
  <path class="fil8" d="M357.117 280.136c2.642,0 4.346,-1.374 4.346,-3.464 0,-1.662 -1.074,-2.667 -3.407,-3.219l-1.259 -0.296c-1.606,-0.384 -2.23,-0.867 -2.23,-1.709 0,-1.051 0.993,-1.793 2.4,-1.793 1.47,0 2.424,0.819 2.512,2.152l1.672 0c-0.069,-2.269 -1.65,-3.666 -4.16,-3.666 -2.501,0 -4.136,1.352 -4.136,3.395 0,1.605 1.022,2.578 3.368,3.133l1.278 0.304c1.618,0.381 2.235,0.896 2.235,1.792 0,1.131 -1.041,1.856 -2.619,1.856 -1.744,0 -2.768,-0.904 -2.776,-2.44l-1.72 0c0,2.456 1.706,3.955 4.496,3.955zm6.01 -0.174l7.822 0 0 -1.52 -6.094 0 0 -3.666 5.64 0 0 -1.499 -5.64 0 0 -3.443 6.094 0 0 -1.52 -7.822 0 0 11.648zm9.422 0l7.234 0 0 -1.52 -5.506 0 0 -10.128 -1.728 0 0 11.648zm8.68 0l7.821 0 0 -1.52 -6.093 0 0 -3.666 5.64 0 0 -1.499 -5.64 0 0 -3.443 6.093 0 0 -1.52 -7.821 0 0 11.648zm14.402 0.176c2.542,0 4.51,-1.568 4.907,-4.04l-1.757 0c-0.368,1.576 -1.555,2.456 -3.134,2.456 -2.296,0 -3.701,-1.778 -3.701,-4.408 0,-2.645 1.405,-4.424 3.701,-4.424 1.587,0 2.781,0.888 3.125,2.472l1.766 0c-0.405,-2.48 -2.365,-4.056 -4.907,-4.056 -3.218,0 -5.429,2.427 -5.429,6.008 0,3.558 2.219,5.992 5.429,5.992zm5.896 -10.304l3.71 0 0 10.128 1.743 0 0 -10.128 3.694 0 0 -1.52 -9.147 0 0 1.52z"/>
  <path class="fil8" d="M483.381 280.136c2.643,0 4.347,-1.374 4.347,-3.464 0,-1.662 -1.075,-2.667 -3.408,-3.219l-1.259 -0.296c-1.605,-0.384 -2.229,-0.867 -2.229,-1.709 0,-1.051 0.992,-1.793 2.4,-1.793 1.469,0 2.424,0.819 2.512,2.152l1.672 0c-0.069,-2.269 -1.651,-3.666 -4.16,-3.666 -2.501,0 -4.136,1.352 -4.136,3.395 0,1.605 1.021,2.578 3.368,3.133l1.277 0.304c1.619,0.381 2.235,0.896 2.235,1.792 0,1.131 -1.04,1.856 -2.619,1.856 -1.744,0 -2.768,-0.904 -2.776,-2.44l-1.72 0c0,2.456 1.707,3.955 4.496,3.955zm5.059 -10.302l3.709 0 0 10.128 1.744 0 0 -10.128 3.694 0 0 -1.52 -9.147 0 0 1.52zm8.093 10.128l1.843 0 1.064 -3.024 4.691 0 1.031 3.024 1.883 0 -4.195 -11.648 -2.093 0 -4.224 11.648zm3.429 -4.496l0.726 -2.064c0.32,-0.963 0.656,-1.989 1.125,-3.498 0.461,1.509 0.789,2.535 1.11,3.498l0.701 2.064 -3.662 0zm8.288 4.496l1.728 0 0 -4.416 2.579 0c0.024,0 0.056,0 0.077,0l2.323 4.416 1.952 0 -2.515 -4.704c1.453,-0.523 2.336,-1.69 2.336,-3.317 0,-2.227 -1.562,-3.624 -4.056,-3.624l-4.424 0 0 11.645zm1.728 -5.888l0 -4.258 2.619 0c1.499,0 2.421,0.813 2.421,2.125 0,1.314 -0.914,2.133 -2.413,2.133l-2.627 0zm7.454 -4.24l3.709 0 0 10.128 1.744 0 0 -10.128 3.693 0 0 -1.52 -9.146 0 0 1.52z"/>
  <path class="fil1" d="M202.693 152.117c43.781,0 79.273,35.491 79.273,79.272 0,43.781 -35.492,79.272 -79.273,79.272 -43.78,0 -79.272,-35.491 -79.272,-79.272 0,-43.781 35.492,-79.272 79.272,-79.272z"/>
  <path class="fil12" d="M150.465 282.236l8.351 -13.544c0.167,-0.27 0.423,-0.433 0.738,-0.47 0.315,-0.037 0.601,0.063 0.826,0.287l5.193 5.193c0.225,0.225 0.324,0.511 0.287,0.827 -0.037,0.315 -0.2,0.57 -0.47,0.737l-13.544 8.351c-0.4,0.247 -0.903,0.188 -1.236,-0.144 -0.333,-0.333 -0.392,-0.836 -0.145,-1.237zm104.457 0l-8.351 -13.544c-0.167,-0.27 -0.423,-0.433 -0.738,-0.47 -0.315,-0.037 -0.601,0.063 -0.826,0.287l-5.193 5.193c-0.225,0.225 -0.324,0.511 -0.287,0.827 0.037,0.315 0.2,0.57 0.47,0.737l13.544 8.351c0.4,0.247 0.903,0.188 1.236,-0.144 0.333,-0.333 0.391,-0.836 0.145,-1.237zm-1.381 -103.075l-13.544 8.35c-0.27,0.167 -0.433,0.423 -0.47,0.738 -0.037,0.315 0.062,0.602 0.287,0.826l5.193 5.194c0.225,0.224 0.511,0.323 0.826,0.286 0.315,-0.037 0.571,-0.2 0.738,-0.47l8.351 -13.543c0.246,-0.401 0.188,-0.904 -0.145,-1.237 -0.333,-0.333 -0.836,-0.391 -1.236,-0.144zm-101.695 0l13.544 8.35c0.27,0.167 0.433,0.423 0.47,0.738 0.037,0.315 -0.062,0.602 -0.287,0.826l-5.193 5.194c-0.225,0.224 -0.511,0.323 -0.826,0.286 -0.315,-0.036 -0.572,-0.2 -0.738,-0.47l-8.35 -13.543c-0.248,-0.401 -0.189,-0.904 0.144,-1.237 0.333,-0.333 0.836,-0.391 1.236,-0.144z"/>
  <path class="fil12" d="M202.693 211.576c10.943,0 19.813,8.871 19.813,19.813 0,10.942 -8.87,19.812 -19.813,19.812 -10.942,0 -19.812,-8.87 -19.812,-19.812 0,-10.942 8.87,-19.813 19.812,-19.813z"/>
  <path class="fil13" d="M229.279 156.691c3.308,2.47 5.234,6.266 5.234,12.099 0,20.869 -14.246,37.868 -31.82,37.868 -17.573,0 -31.82,-16.999 -31.82,-37.868 0,-5.833 1.927,-9.629 5.235,-12.099 2.471,-0.88 4.998,-1.641 7.574,-2.276l38.022 0c2.577,0.635 5.104,1.396 7.575,2.276z"/>
  <path class="fil1" d="M202.693 152.117c6.552,0 12.915,0.8 19.005,2.298 5.034,2.16 8.16,6.332 8.16,14.375 0,20.869 -12.162,38.296 -27.165,38.296 -15.002,0 -27.165,-17.427 -27.165,-38.296 0,-8.043 3.127,-12.215 8.161,-14.375 6.089,-1.498 12.453,-2.298 19.004,-2.298z"/>
  <path class="fil13" d="M277.392 204.803c-2.471,-3.307 -6.267,-5.234 -12.1,-5.234 -20.868,0 -37.868,14.246 -37.868,31.82 0,17.573 17,31.82 37.868,31.82 5.833,0 9.629,-1.927 12.1,-5.235 0.879,-2.47 1.64,-4.998 2.275,-7.574l0 -38.022c-0.635,-2.577 -1.396,-5.104 -2.275,-7.575z"/>
  <path class="fil1" d="M281.966 231.389c0,-6.552 -0.801,-12.915 -2.299,-19.004 -2.16,-5.035 -6.332,-8.161 -14.375,-8.161 -20.868,0 -38.296,12.162 -38.296,27.165 0,15.003 17.428,27.165 38.296,27.165 8.043,0 12.215,-3.126 14.375,-8.161 1.498,-6.089 2.299,-12.453 2.299,-19.004z"/>
  <path class="fil13" d="M229.279 306.087c3.308,-2.471 5.234,-6.266 5.234,-12.099 0,-20.869 -14.246,-37.869 -31.82,-37.869 -17.573,0 -31.82,17 -31.82,37.869 0,5.833 1.927,9.628 5.235,12.099 2.471,0.88 4.998,1.64 7.574,2.275l38.022 0c2.577,-0.635 5.104,-1.395 7.575,-2.275z"/>
  <path class="fil1" d="M202.693 310.661c6.552,0 12.915,-0.801 19.005,-2.299 5.034,-2.16 8.16,-6.332 8.16,-14.374 0,-20.869 -12.162,-38.297 -27.165,-38.297 -15.002,0 -27.165,17.428 -27.165,38.297 0,8.042 3.127,12.214 8.161,14.374 6.089,1.498 12.453,2.299 19.004,2.299z"/>
  <path class="fil13" d="M127.995 204.803c2.471,-3.307 6.267,-5.234 12.1,-5.234 20.868,0 37.868,14.246 37.868,31.82 0,17.573 -17,31.82 -37.868,31.82 -5.833,0 -9.629,-1.927 -12.1,-5.235 -0.879,-2.47 -1.64,-4.998 -2.275,-7.574l0 -38.022c0.635,-2.577 1.396,-5.104 2.275,-7.575z"/>
  <path class="fil1" d="M123.421 231.389c0,-6.552 0.801,-12.915 2.299,-19.004 2.16,-5.035 6.332,-8.161 14.375,-8.161 20.868,0 38.296,12.162 38.296,27.165 0,15.003 -17.428,27.165 -38.296,27.165 -8.043,0 -12.215,-3.126 -14.375,-8.161 -1.498,-6.089 -2.299,-12.453 -2.299,-19.004z"/>
  <path class="fil12" d="M203.67 302.142l5.452 -22.988c0.073,-0.308 0.008,-0.605 -0.189,-0.853 -0.197,-0.249 -0.47,-0.382 -0.787,-0.382l-10.905 0c-0.317,0 -0.59,0.133 -0.787,0.382 -0.197,0.248 -0.262,0.545 -0.189,0.853l5.452 22.988c0.109,0.458 0.506,0.772 0.976,0.772 0.471,0 0.868,-0.314 0.977,-0.772zm69.777 -71.729l-22.988 -5.453c-0.309,-0.073 -0.605,-0.007 -0.854,0.189 -0.249,0.197 -0.381,0.47 -0.381,0.787l0 10.905c0,0.318 0.132,0.59 0.381,0.787 0.249,0.197 0.545,0.263 0.854,0.189l22.988 -5.452c0.458,-0.108 0.772,-0.506 0.772,-0.976 0,-0.471 -0.314,-0.868 -0.772,-0.976zm-141.507 0l22.988 -5.453c0.309,-0.073 0.605,-0.007 0.854,0.189 0.249,0.197 0.381,0.47 0.381,0.787l0 10.905c0,0.318 -0.132,0.59 -0.381,0.787 -0.249,0.197 -0.545,0.263 -0.854,0.189l-22.988 -5.452c-0.458,-0.108 -0.772,-0.506 -0.772,-0.976 0,-0.471 0.314,-0.868 0.772,-0.976zm71.73 -69.778l5.452 22.988c0.073,0.309 0.008,0.605 -0.189,0.854 -0.197,0.249 -0.47,0.381 -0.787,0.381l-10.905 0c-0.317,0 -0.59,-0.132 -0.787,-0.381 -0.197,-0.249 -0.262,-0.545 -0.189,-0.854l5.452 -22.988c0.109,-0.458 0.506,-0.772 0.976,-0.772 0.471,0 0.868,0.314 0.977,0.772z"/>
  <path class="fil9" d="M848.664 140.734l0.662 -2.005c0.626,-1.982 1.226,-3.959 1.929,-6.373 0.689,2.414 1.288,4.391 1.889,6.373l0.648 2.005 -5.128 0zm-6.81 7.44l4.325 0 1.404 -4.24 7.249 0 1.356 4.24 4.44 0 -6.809 -19.413 -5.155 0 -6.81 19.413z"/>
  <path class="fil9" d="M602.718 229.276l0 -4.933 3.56 0c1.76,0 2.84,0.955 2.84,2.471 0,1.507 -1.08,2.462 -2.84,2.462l-3.56 0zm0 8.187l0 -5.173 3.804 0c2.023,0 3.209,1.013 3.209,2.631 0,1.617 -1.213,2.542 -3.271,2.542l-3.742 0zm-3.92 3.147l8.222 0c4.414,0 6.791,-2.223 6.791,-5.467 0,-2.764 -1.818,-4.427 -4.182,-4.644l0 -0.027c2.124,-0.533 3.462,-2.031 3.462,-4.285 0,-2.991 -2.337,-4.991 -6.515,-4.991l-7.778 0 0 19.414z"/>
  <circle class="fil1 str3" cx="678.05" cy="338.191" r="45.3"/>
  <circle class="fil14" cx="678.05" cy="338.191" r="40"/>
  <circle class="fil1 str3" cx="784.679" cy="295.11" r="45.3"/>
  <circle class="fil14" cx="784.679" cy="295.11" r="40"/>
  <rect class="fil4 str4" transform="matrix(0.927184 -0.374607 0.374607 0.927184 651.157 143.983)" width="115.003" height="90.6"/>
  <rect class="fil15" transform="matrix(0.835772 -0.337674 0.606631 1.50146 671.366 125.219)" width="70.411" height="62.016"/>
  <path class="fil1 str3" d="M767.709 125.465c23.197,-9.372 49.599,1.835 58.971,25.032 9.372,23.196 -1.835,49.598 -25.031,58.971 -52.21,21.094 -62.2,25.13 -106.629,43.08 -23.197,9.373 -49.599,-1.835 -58.971,-25.031 -9.373,-23.197 1.835,-49.599 25.031,-58.972 47.766,-19.298 48.133,-19.446 106.629,-43.08z"/>
  <circle class="fil14" cx="678.05" cy="210.547" r="40"/>
  <circle class="fil14" cx="784.679" cy="167.466" r="40"/>
  <path class="fil7" d="M678.767 129.234l3.274 -1.323 3.59 8.886 2.225 -0.899 -3.59 -8.886 3.266 -1.319 -0.773 -1.914 -8.765 3.541 0.773 1.914zm17.977 3.263c2.693,-1.088 3.798,-3.398 2.856,-5.73l-2.84 -7.029 -2.181 0.881 2.767 6.849c0.515,1.273 -0.007,2.545 -1.381,3.1 -1.37,0.554 -2.631,-0.004 -3.143,-1.272l-2.767 -6.849 -2.181 0.881 2.84 7.029c0.945,2.34 3.335,3.229 6.03,2.14zm5.954 -2.595l2.226 -0.9 -1.524 -3.77 1.961 -0.792c0.007,-0.003 0.015,-0.006 0.022,-0.009l3.442 2.995 2.389 -0.965 -3.857 -3.317c0.983,-1.047 1.267,-2.41 0.689,-3.841 -0.88,-2.176 -2.953,-2.931 -5.394,-1.945l-4.317 1.744 4.363 10.8zm-0.021 -6.46l-1.368 -3.385 1.954 -0.789c1.184,-0.479 2.185,-0.115 2.602,0.916 0.417,1.033 -0.051,1.99 -1.227,2.466l-1.961 0.792zm9.669 2.561l4.574 -1.847c2.455,-0.993 3.279,-2.763 2.549,-4.568 -0.621,-1.538 -2.006,-2.054 -3.37,-1.644l-0.006 -0.015c1.062,-0.774 1.469,-1.908 0.963,-3.161 -0.672,-1.664 -2.422,-2.251 -4.746,-1.312l-4.327 1.748 4.363 10.799zm1.474 -2.631l-1.163 -2.878 2.116 -0.855c1.125,-0.455 2.013,-0.158 2.377,0.742 0.364,0.9 -0.104,1.688 -1.248,2.15l-2.082 0.841zm-1.84 -4.555l-1.109 -2.744 1.98 -0.8c0.979,-0.395 1.795,-0.107 2.136,0.737 0.338,0.838 -0.048,1.612 -1.027,2.007l-1.98 0.8zm14.737 1.567c2.91,-1.175 4.231,-4.185 2.847,-7.61 -1.386,-3.431 -4.43,-4.687 -7.341,-3.511 -2.912,1.177 -4.222,4.191 -2.836,7.623 1.378,3.41 4.417,4.675 7.33,3.498zm-0.795 -1.968c-1.672,0.675 -3.373,-0.153 -4.294,-2.435 -0.929,-2.297 -0.28,-4.074 1.391,-4.75 1.669,-0.674 3.377,0.151 4.305,2.449 0.922,2.282 0.267,4.062 -1.402,4.736z"/>
  <path class="fil16" d="M364.687 345.757c-6.798,0 -12.31,-5.512 -12.31,-12.311 0,-6.799 5.511,-12.311 12.31,-12.311l43.92 0c6.799,0 12.31,5.512 12.31,12.311 0,6.799 -5.512,12.311 -12.31,12.311l-43.92 0z"/>
  <path class="fil16" d="M475.772 345.757c-6.798,0 -12.31,-5.512 -12.31,-12.311 0,-6.799 5.511,-12.311 12.31,-12.311l43.92 0c6.799,0 12.31,5.512 12.31,12.311 0,6.799 -5.512,12.311 -12.31,12.311l-43.92 0z"/>
  <circle class="fil1" cx="678.05" cy="338.191" r="37.041"/>
  <circle class="fil17" cx="678.05" cy="210.547" r="37.041"/>
  <path class="fil18" d="M678.05 304.34c17.067,0 31.183,12.629 33.513,29.052 0.1,0.702 -0.255,1.361 -0.896,1.664 -0.643,0.304 -1.179,-0.153 -1.857,-0.364 -6.401,-1.985 -17.784,-6.633 -30.76,-6.633 -12.976,0 -24.36,4.649 -30.76,6.635 -0.678,0.21 -1.215,0.668 -1.857,0.365 -0.641,-0.304 -0.996,-0.963 -0.897,-1.665 2.33,-16.423 16.448,-29.054 33.514,-29.054z"/>
  <path class="fil19" d="M678.05 176.696c17.067,0 31.183,12.63 33.513,29.052 0.1,0.703 -0.255,1.361 -0.896,1.665 -0.643,0.303 -1.179,-0.154 -1.857,-0.364 -6.401,-1.986 -17.784,-6.633 -30.76,-6.633 -12.976,0 -24.36,4.649 -30.76,6.635 -0.678,0.21 -1.215,0.667 -1.857,0.364 -0.641,-0.304 -0.996,-0.962 -0.897,-1.665 2.33,-16.422 16.448,-29.054 33.514,-29.054z"/>
  <circle class="fil1" cx="784.679" cy="295.11" r="37.041"/>
  <path class="fil18" d="M784.679 261.259c17.066,0 31.183,12.629 33.513,29.052 0.099,0.702 -0.255,1.361 -0.897,1.664 -0.642,0.304 -1.178,-0.153 -1.856,-0.364 -6.401,-1.985 -17.784,-6.633 -30.76,-6.633 -12.976,0 -24.36,4.65 -30.761,6.635 -0.677,0.21 -1.214,0.668 -1.856,0.365 -0.641,-0.304 -0.996,-0.963 -0.897,-1.665 2.33,-16.423 16.447,-29.054 33.514,-29.054z"/>
  <circle class="fil17" cx="784.679" cy="167.466" r="37.041"/>
  <path class="fil19" d="M784.679 133.615c17.066,0 31.183,12.63 33.513,29.053 0.099,0.702 -0.255,1.361 -0.897,1.664 -0.642,0.304 -1.178,-0.153 -1.856,-0.364 -6.401,-1.986 -17.784,-6.633 -30.76,-6.633 -12.976,0 -24.36,4.649 -30.761,6.635 -0.677,0.21 -1.214,0.668 -1.856,0.365 -0.641,-0.304 -0.996,-0.963 -0.897,-1.666 2.33,-16.422 16.447,-29.054 33.514,-29.054z"/>
 </g>
</svg>
