<?xml version="1.0" encoding="UTF-8"?>
<!DOCTYPE svg PUBLIC "-//W3C//DTD SVG 1.1//EN" "http://www.w3.org/Graphics/SVG/1.1/DTD/svg11.dtd">
<svg xml:space="preserve" viewBox="0 0 1098 612" width="1098px" height="612px" version="1.1" style="shape-rendering:geometricPrecision; fill-rule:evenodd; clip-rule:evenodd" xmlns="http://www.w3.org/2000/svg">
 <defs>
  <style type="text/css">
    .str0 {stroke:#E6E6E6;stroke-width:2}
    .fil21 {fill:#00B870}
    .fil10 {fill:#333333}
    .fil11 {fill:#4D4D4D}
    .fil12 {fill:gray}
    .fil16 {fill:#909090}
    .fil9 {fill:#B3B3B3}
    .fil28 {fill:#C45D84}
    .fil8 {fill:#E6E6E6}
    .fil26 {fill:#F575A5}
    .fil0 {fill:#F8F8F8}
    .fil22 {fill:#FFCF0D}
    .fil13 {fill:#77828C}
    .fil23 {fill:#1990FF}
    .fil7 {fill:#666666}
    .fil14 {fill:#707070}
    .fil15 {fill:#909090}
    .fil6 {fill:#CCCCCC}
    .fil24 {fill:black;fill-opacity:0.2}
    .fil17 {fill:#00B27F;fill-opacity:0.5}
    .fil20 {fill:#B3B3B3;fill-opacity:0.5}
    .fil18 {fill:#FFCF0D;fill-opacity:0.5}
    .fil19 {fill:#0389FF;fill-opacity:0.5}
    .fil27 {fill:black;fill-opacity:0.5}
    .fil25 {fill:#F575A5;fill-opacity:0.7}
    .fil5 {fill:url(#id0)}
    .fil1 {fill:url(#id1)}
    .fil2 {fill:url(#id2)}
    .fil3 {fill:url(#id3)}
    .fil4 {fill:url(#id4)}
  </style>
  <linearGradient id="id0" gradientUnits="userSpaceOnUse" x1="270.638" y1="427.333" x2="270.638" y2="147.988">
   <stop offset="0" style="stop-opacity:1; stop-color:#F6F6F6"/>
   <stop offset="1" style="stop-opacity:1; stop-color:gainsboro"/>
  </linearGradient>
  <linearGradient id="id1" gradientUnits="userSpaceOnUse" x1="549" y1="606.827" x2="549" y2="12.712">
   <stop offset="0" style="stop-opacity:1; stop-color:#D6D6D6"/>
   <stop offset="1" style="stop-opacity:1; stop-color:#F8F8F8"/>
  </linearGradient>
  <linearGradient id="id2" gradientUnits="userSpaceOnUse" x1="549" y1="351.975" x2="549" y2="61.583">
   <stop offset="0" style="stop-opacity:1; stop-color:#F0F0F0"/>
   <stop offset="1" style="stop-opacity:1; stop-color:white"/>
  </linearGradient>
  <linearGradient id="id3" gradientUnits="userSpaceOnUse" x1="549.002" y1="542.184" x2="549.002" y2="223.452">
   <stop offset="0" style="stop-opacity:1; stop-color:#CCCCCC"/>
   <stop offset="1" style="stop-opacity:1; stop-color:#E6E6E6"/>
  </linearGradient>
  <linearGradient id="id4" gradientUnits="userSpaceOnUse" x1="549.002" y1="542.787" x2="549.002" y2="60.686">
   <stop offset="0" style="stop-opacity:1; stop-color:#B3B3B3"/>
   <stop offset="1" style="stop-opacity:1; stop-color:#CCCCCC"/>
  </linearGradient>
 </defs>
 <g>
  <path class="fil0" d="M173.81 65.098c25.021,-20.097 65.45,-40.779 96.454,-48.268 10.372,-2.505 74.852,-12.546 74.714,-2.122 -0.282,1.867 -6.513,1.443 -9.906,1.481 -31.452,0.729 -59.918,5.43 -89.623,15.979 -25.104,9.304 -45.359,21.996 -66.217,38.749 -15.033,12.412 -37.641,40.824 -42.639,37.892 -5.102,-5.606 30.469,-38.122 37.217,-43.711zm750.38 0c-25.021,-20.097 -65.45,-40.779 -96.454,-48.268 -10.372,-2.505 -74.852,-12.546 -74.714,-2.122 0.282,1.867 6.513,1.443 9.906,1.481 31.452,0.729 59.918,5.43 89.623,15.979 25.104,9.304 45.359,21.996 66.217,38.749 15.033,12.412 37.641,40.824 42.639,37.892 5.102,-5.606 -30.469,-38.122 -37.217,-43.711z"/>
  <path class="fil1" d="M549 43.601c-10.522,-0.086 -20.571,-0.573 -31.052,-1.482 -12.974,-1.308 -25.427,-3.138 -38.252,-5.472l-18.021 -3.621 -42.71 -9.452c-28.782,-5.883 -54.586,-9.227 -84.031,-8.897 -31.451,0.728 -60.88,5.43 -90.584,15.98 -25.104,9.303 -46.048,21.719 -66.905,38.473 -23.304,19.24 -42.35,40.266 -61.115,63.877 -71.822,92.349 -160.451,321.851 -68.539,429.284 12.18,13.759 25.828,23.56 42.336,31.516 19.425,9.106 40.269,14.465 61.755,14.949 19.943,0.261 37.719,-3.594 56.277,-10.728 13.468,-5.387 25.628,-11.723 38.179,-18.95 10.985,-6.499 21.527,-13.197 32.262,-20.114l37.568 -24.687c21.827,-13.888 42.637,-25.802 66.107,-36.763 27.02,-12.121 53.465,-21.496 81.984,-29.5 27.8,-7.4 55.881,-12.823 84.741,-12.977 28.86,0.154 56.941,5.577 84.741,12.977 28.519,8.004 54.964,17.379 81.984,29.5 23.47,10.961 44.28,22.875 66.107,36.763l37.568 24.687c10.735,6.917 21.277,13.615 32.262,20.114 12.551,7.227 24.711,13.563 38.179,18.95 18.558,7.134 36.334,10.989 56.277,10.728 21.486,-0.484 42.33,-5.843 61.755,-14.949 16.508,-7.956 30.156,-17.757 42.336,-31.516 91.912,-107.433 3.283,-336.935 -68.539,-429.284 -18.765,-23.611 -37.811,-44.637 -61.115,-63.877 -20.857,-16.754 -41.801,-29.17 -66.905,-38.473 -29.704,-10.55 -59.133,-15.252 -90.584,-15.98 -29.445,-0.33 -55.249,3.014 -84.031,8.897l-42.71 9.452 -18.021 3.621c-12.825,2.334 -25.278,4.164 -38.252,5.472 -10.481,0.909 -20.53,1.396 -31.052,1.482z"/>
  <path class="fil2" d="M1005.253 225.394c-7.668,-14.589 -16.85,-27.981 -28.006,-41.249 -27.221,-31.601 -61.183,-56.318 -98.818,-74.112 -36.981,-16.893 -74.252,-26 -114.23,-32.722 -71.91,-11.123 -142.538,-13.479 -215.199,-13.786 -72.659,0.307 -143.293,2.662 -215.2,13.786 -39.975,6.719 -77.252,15.83 -114.229,32.722 -37.697,17.824 -71.538,42.483 -98.82,74.112 -11.165,13.297 -20.338,26.667 -28.003,41.249 -3.165,9.701 7.999,89.559 23.315,94.958 126.943,44.749 738.934,44.754 865.874,0 15.316,-5.399 26.481,-85.257 23.316,-94.958z"/>
  <path class="fil3" d="M796.818 544.126l-14.987 -9.849c-21.828,-13.891 -42.636,-25.799 -66.107,-36.763 -27.018,-12.12 -53.466,-21.497 -81.984,-29.5 -27.799,-7.4 -55.881,-12.823 -84.74,-12.977 -28.86,0.154 -56.941,5.577 -84.741,12.977 -28.519,8.004 -54.964,17.379 -81.984,29.5 -23.47,10.961 -44.28,22.875 -66.107,36.763l-14.989 9.85c-40.676,-12.057 -79.036,-23.711 -117.398,-41.772 -19.139,-9.311 -36.35,-19.393 -52.929,-32.817 -19.578,-16.389 -32.942,-33.373 -44.243,-56.454 -10.837,-23.069 -16.341,-45.78 -18.239,-71.151 -1.948,-31.777 2.213,-61.467 13.099,-91.397 3.363,-8.865 7.096,-17.184 11.279,-25.142 -3.165,9.701 7.998,17.557 23.315,22.957 15.318,5.399 28.502,6.39 33.017,-1.786 21.525,-19.765 261.968,16.158 259.467,35.137 -1.503,11.402 7.99,14.251 14.236,11.88 33.453,-12.7 77.7,-18.135 126.217,-18.135 39.748,0 76.632,3.649 107.061,11.95 3.534,0.964 9.053,-0.832 8.367,-6.056 53.185,17.312 234.04,-81.102 284.492,-34.776 4.515,8.176 17.699,7.186 33.017,1.786 15.317,-5.4 26.481,-13.256 23.316,-22.957 4.185,7.966 7.918,16.287 11.277,25.142 10.875,29.965 15.057,59.585 13.099,91.397 -1.918,25.406 -7.384,48.046 -18.239,71.151 -11.296,23.072 -24.669,40.074 -44.243,56.454 -16.59,13.432 -33.781,23.496 -52.929,32.817 -38.375,18.061 -76.709,29.71 -117.4,41.771z"/>
  <path class="fil4" d="M549 64.421c-36.299,0.153 -72.103,0.82 -107.833,2.837 -35.693,2.015 -71.285,5.38 -107.177,10.931 -19.964,3.355 -39.293,7.316 -58.19,12.533 -18.882,5.212 -37.389,11.693 -55.816,20.109 -19.112,9.036 -37.257,19.847 -54.018,32.416 -16.196,12.147 -31.138,25.958 -44.502,41.444 -8.597,10.24 -16.035,20.553 -22.48,31.397 -6.448,10.847 -11.933,22.262 -16.675,34.765 -5.418,14.9 -9.165,29.743 -11.313,44.815 -2.147,15.062 -2.698,30.358 -1.732,46.172 0.945,12.635 2.79,24.633 5.746,36.314 2.954,11.683 7.021,23.076 12.412,34.55 5.608,11.454 11.729,21.399 18.87,30.512 7.162,9.13 15.397,17.479 25.137,25.632 8.248,6.68 16.661,12.532 25.395,17.874 8.739,5.345 17.802,10.181 27.348,14.824 19.14,9.012 38.288,16.412 57.728,23.064 19.475,6.664 39.216,12.571 59.532,18.593l0.797 0.234 -1.965 1.292c-20.126,-5.967 -39.689,-11.829 -58.94,-18.417 -19.497,-6.671 -38.709,-14.097 -57.926,-23.145 -9.594,-4.666 -18.714,-9.533 -27.509,-14.911 -8.797,-5.38 -17.287,-11.289 -25.613,-18.031 -9.838,-8.233 -18.117,-16.62 -25.356,-25.849 -7.221,-9.213 -13.448,-19.322 -19.115,-30.899 -5.448,-11.591 -9.56,-23.106 -12.54,-34.888 -2.98,-11.782 -4.84,-23.853 -5.791,-36.589 -0.975,-15.932 -0.42,-31.399 1.744,-46.584 2.166,-15.196 5.942,-30.161 11.408,-45.186 4.781,-12.609 10.314,-24.126 16.811,-35.057 6.499,-10.934 13.967,-21.294 22.624,-31.605 13.446,-15.581 28.529,-29.531 44.829,-41.755 16.866,-12.65 35.086,-23.508 54.298,-32.592 18.519,-8.457 37.167,-14.992 56.134,-20.229 18.977,-5.239 38.321,-9.204 58.331,-12.567 35.978,-5.563 71.687,-8.943 107.416,-10.96 35.725,-2.017 71.579,-2.684 107.937,-2.837 36.358,0.153 72.203,0.82 107.928,2.837 35.728,2.017 71.438,5.397 107.416,10.96 20.01,3.363 39.354,7.328 58.33,12.567 18.967,5.237 37.616,11.772 56.135,20.229 19.212,9.084 37.431,19.942 54.297,32.592 16.301,12.224 31.384,26.174 44.829,41.755 8.658,10.311 16.126,20.671 22.625,31.605 6.497,10.931 12.03,22.448 16.811,35.057 5.465,15.025 9.242,29.99 11.408,45.186 2.164,15.185 2.719,30.652 1.744,46.584 -0.952,12.736 -2.811,24.807 -5.791,36.589 -2.98,11.782 -7.093,23.297 -12.54,34.888 -5.667,11.577 -11.895,21.686 -19.115,30.899 -7.239,9.229 -15.518,17.616 -25.357,25.849 -8.325,6.742 -16.816,12.651 -25.612,18.031 -8.794,5.378 -17.916,10.245 -27.51,14.911 -19.216,9.048 -38.428,16.474 -57.925,23.145 -19.251,6.588 -38.814,12.45 -58.941,18.418l-1.966 -1.292 0.798 -0.235c20.317,-6.022 40.057,-11.929 59.532,-18.593 19.44,-6.652 38.589,-14.052 57.729,-23.064 9.546,-4.643 18.609,-9.479 27.348,-14.824 8.734,-5.342 17.147,-11.194 25.395,-17.874 9.739,-8.153 17.974,-16.502 25.137,-25.632 7.141,-9.113 13.262,-19.058 18.87,-30.512 5.391,-11.474 9.458,-22.867 12.412,-34.55 2.956,-11.681 4.801,-23.679 5.746,-36.314 0.966,-15.814 0.415,-31.11 -1.733,-46.172 -2.147,-15.072 -5.894,-29.915 -11.312,-44.815 -4.742,-12.503 -10.227,-23.918 -16.675,-34.765 -6.446,-10.844 -13.883,-21.157 -22.481,-31.397 -13.364,-15.486 -28.305,-29.297 -44.502,-41.444 -16.76,-12.569 -34.905,-23.38 -54.017,-32.416 -18.428,-8.416 -36.935,-14.897 -55.817,-20.109 -18.896,-5.217 -38.225,-9.178 -58.19,-12.533 -35.891,-5.551 -71.483,-8.916 -107.176,-10.931 -35.73,-2.017 -71.537,-2.684 -107.836,-2.837z"/>
  <path class="fil5 str0" d="M377.745 180.99c49.176,48.494 41.089,136.435 -18.065,196.421 -59.154,59.985 -146.973,69.299 -196.149,20.805 -49.177,-48.494 -41.089,-136.436 18.064,-196.421 59.155,-59.986 146.974,-69.3 196.15,-20.805zm342.51 0c-49.176,48.494 -41.089,136.435 18.065,196.421 59.154,59.985 146.973,69.299 196.149,20.805 49.176,-48.494 41.089,-136.436 -18.064,-196.421 -59.155,-59.986 -146.974,-69.3 -196.15,-20.805z"/>
  <path class="fil6" d="M662.626 181.856l-16.968 -56.182c-3.889,-12.879 -15.406,-21.444 -28.877,-21.444l-135.563 0c-13.471,0 -24.988,8.567 -28.877,21.444l-16.97 56.182 19.875 -52.266c4.449,-11.699 13.437,-19.954 25.971,-19.954l135.564 0c12.534,0 21.523,8.255 25.971,19.954l19.874 52.266z"/>
  <path class="fil7" d="M472.428 177.791l20.238 -0.021c8.28,0 14.989,-6.69 14.989,-14.932 0,-8.259 -6.709,-14.949 -14.989,-14.949l-5.256 0.029c-0.414,0 -0.75,-0.34 -0.75,-0.758 0,-0.418 0.336,-0.758 0.75,-0.758l20.2 0.004 0.009 -6.338 -20.214 0.001c-3.907,0 -7.087,3.174 -7.087,7.075 0,3.904 3.179,7.066 7.087,7.066l5.281 0.07c4.744,0 8.583,3.826 8.583,8.546 0,4.723 -3.838,8.558 -8.583,8.558l-20.25 0 -0.008 6.407zm0.008 -7.895l20.25 0c3.921,0 7.091,-3.162 7.091,-7.071 0,-3.904 -3.17,-7.062 -7.091,-7.062l-5.281 -0.058c-4.735,0 -8.578,-3.83 -8.578,-8.562 0,-4.719 3.843,-8.549 8.578,-8.549l20.214 -0.005 -0.009 -6.362 -20.2 0c-8.271,0 -14.99,6.682 -14.99,14.933 0,8.25 6.718,14.936 14.99,14.936l5.227 0.008c0.398,0 0.734,0.325 0.734,0.734 0,0.402 -0.336,0.725 -0.734,0.725l-20.209 0.016 0.008 6.317 0 0zm0 0l0 0 0 0zm50.91 1.528c-3.511,0 -6.387,-2.798 -6.387,-6.37l0 -20.217c0,-3.437 2.876,-6.264 6.387,-6.264l21.601 0.004 0 -6.35 -21.601 0c-7.03,0 -12.724,5.674 -12.724,12.679l0 20.148c0,7.006 5.694,12.688 12.724,12.688l21.511 0.008 -0.004 -6.333 -21.507 0.007 0 0zm0 0l0 0 0 0zm-4.838 -26.517c0,-2.679 2.155,-4.851 4.838,-4.851l21.601 0 0 6.358 -18.611 0c-1.491,0 -1.511,1.479 -1.511,1.479l15.526 0 0 6.33 -21.851 0 0.007 -9.316 0.001 0zm0 0l0 0 0 0zm4.838 24.978c-2.675,0 -4.847,-2.16 -4.847,-4.831l0 -9.324 21.852 0 0 6.342 -15.527 0c0.021,1.491 1.512,1.498 1.512,1.498l18.521 0.001 -0.005 6.305 -21.506 0.009zm36.739 1.523c-3.499,0 -6.358,-2.851 -6.358,-6.354l0 -20.148c0,-3.507 2.839,-6.334 6.341,-6.334l20.923 0 0 -6.345 -20.971 0c-7.027,0 -12.721,5.674 -12.721,12.679l0 20.148c0,7.006 5.743,12.688 12.769,12.688l20.923 0.008 0 -29.857 -17.981 0 0 6.33 11.626 0 0 17.185 -14.551 0zm-4.867 -6.354c0,2.684 2.171,4.867 4.85,4.867l13.069 0 0 -14.199 -10.111 0 0 6.35 3.752 0 0.012 1.491 -3.735 0c-0.816,0 -1.483,-0.676 -1.483,-1.491l-0.034 -14.183c0,0 -0.004,-1.475 1.5,-1.512l17.959 0.001 -0.008 -6.326 -20.922 0.004c-2.679,0 -4.85,2.172 -4.85,4.851l0 20.147 0.001 0zm0 0l0 0 0 0zm45.432 -25.092c0.282,-0.807 1.049,-1.388 1.954,-1.388 0.906,0 1.68,0.581 1.954,1.388l10.157 30.004 -14.872 0 0.016 -7.058 4.97 0 -2.238 -6.65 -7.287 21.487 -7.497 0 12.843 -37.783zm16.112 31.446l-16.894 0 0 6.337 25.71 0 -13.371 -39.561c-1.172,-3.859 -5.035,-6.698 -9.608,-6.698 -4.579,0 -8.43,2.826 -9.61,6.682l-13.495 39.578 6.732 0 13.101 -38.472c0.532,-1.274 1.787,-2.172 3.261,-2.172 1.467,0 2.728,0.898 3.265,2.164l10.909 32.142 0 0zm0 0l0 0 0 0z"/>
  <path class="fil8" d="M609.228 371.005c0,14.143 -17.722,26.114 -42.153,30.141 -3.742,6.052 -10.437,10.086 -18.076,10.086 -7.638,0 -14.334,-4.034 -18.076,-10.086 -24.43,-4.027 -42.151,-15.998 -42.151,-30.141l120.456 0z"/>
  <path class="fil9" d="M548.999 339.415c33.263,0 60.228,14.144 60.229,31.59 -18.24,6.931 -38.663,10.815 -60.229,10.815 -21.565,0 -41.988,-3.884 -60.227,-10.815 0,-17.446 26.964,-31.59 60.227,-31.59z"/>
  <circle class="fil10" cx="270.638" cy="289.603" r="106.524"/>
  <path class="fil10" d="M548.999 349.315c12.611,0 24.107,2.132 32.496,5.579 9.349,3.841 15.133,9.516 15.133,16.111 0,6.595 -5.784,12.27 -15.133,16.111 -8.389,3.447 -19.885,5.579 -32.496,5.579 -12.611,0 -24.107,-2.132 -32.496,-5.579 -9.348,-3.841 -15.132,-9.516 -15.132,-16.111 0,-6.595 5.784,-12.27 15.132,-16.111 8.389,-3.447 19.885,-5.579 32.496,-5.579z"/>
  <circle class="fil10" cx="700.92" cy="263.142" r="40.77"/>
  <circle class="fil10" cx="785.084" cy="206.112" r="40.77"/>
  <circle class="fil10" cx="879.932" cy="172.527" r="40.77"/>
  <circle class="fil10" cx="738.862" cy="382.835" r="49.014"/>
  <circle class="fil10" cx="840.562" cy="314.383" r="49.014"/>
  <circle class="fil10" cx="954.779" cy="273.703" r="49.014"/>
  <circle class="fil11" cx="270.638" cy="289.603" r="101.124"/>
  <path class="fil12" d="M221.736 261.005l-42.47 0c9.339,-29.863 32.91,-53.435 62.774,-62.773l-0.01 42.478c0,11.209 -9.086,20.295 -20.294,20.295zm48.901 10.098c10.216,0 18.499,8.283 18.499,18.5 0,10.217 -8.283,18.499 -18.499,18.499 -10.218,0 -18.501,-8.282 -18.501,-18.499 0,-10.217 8.283,-18.5 18.501,-18.5zm-48.901 47.097l-42.47 0c9.338,29.865 32.911,53.435 62.774,62.773l-0.01 -42.477c0,-11.209 -9.086,-20.296 -20.294,-20.296zm77.509 20.296l-0.009 42.477c29.864,-9.338 53.434,-32.91 62.772,-62.773l-42.468 0c-11.209,0 -20.295,9.087 -20.295,20.296zm20.295 -77.491l42.468 0c-9.338,-29.863 -32.909,-53.435 -62.772,-62.773l0.009 42.478c0,11.209 9.086,20.295 20.295,20.295zm-25.704 -54.454l0 32.355c0,15.187 12.312,27.499 27.499,27.499l32.354 0c2.576,0 4.744,1.753 5.282,4.272 1.302,6.102 1.991,12.434 1.991,18.926 0,6.491 -0.689,12.823 -1.991,18.926 -0.538,2.519 -2.705,4.272 -5.282,4.272l-32.354 0c-15.187,0 -27.499,12.311 -27.499,27.499l0 32.354c0,2.576 -1.753,4.744 -4.272,5.282 -6.103,1.302 -12.434,1.991 -18.926,1.991 -6.492,0 -12.823,-0.689 -18.926,-1.991 -2.519,-0.538 -4.272,-2.705 -4.272,-5.282l0 -32.354c0,-15.188 -12.312,-27.499 -27.499,-27.499l-32.355 0c-2.575,0 -4.744,-1.753 -5.281,-4.272 -1.303,-6.103 -1.991,-12.434 -1.991,-18.926 0,-6.492 0.688,-12.824 1.991,-18.926 0.537,-2.519 2.705,-4.272 5.281,-4.272l32.355 0c15.187,0 27.499,-12.312 27.499,-27.499l0 -32.355c0,-2.575 1.753,-4.744 4.272,-5.281 6.103,-1.303 12.434,-1.991 18.926,-1.991 6.491,0 12.823,0.688 18.926,1.991 2.519,0.537 4.272,2.705 4.272,5.281z"/>
  <path class="fil13" d="M187.556 307.411l0.01 0.002c-0.009,-0.003 -0.019,-0.009 -0.01,-0.002z"/>
  <path class="fil13" d="M187.577 307.433c0.015,0.012 0.002,-0.005 -0.001,-0.018 -0.026,-0.004 -0.013,0.002 0.001,0.018z"/>
  <path class="fil13" d="M353.719 271.794l-0.01 -0.002c0.01,0.003 0.02,0.009 0.01,0.002z"/>
  <path class="fil13" d="M353.698 271.773c-0.015,-0.012 -0.001,0.004 0.002,0.018 0.026,0.004 0.012,-0.004 -0.002,-0.018z"/>
  <path class="fil14" d="M208.639 348.527l5.994 -12.221c0.336,-0.683 0.935,-1.132 1.687,-1.256 0.748,-0.124 1.465,0.106 2.001,0.642l6.228 6.228c0.536,0.536 0.765,1.253 0.641,2 -0.124,0.753 -0.571,1.352 -1.256,1.688l-12.221 5.994c-0.894,0.438 -1.933,0.267 -2.637,-0.437 -0.704,-0.704 -0.875,-1.745 -0.437,-2.638zm118.004 -12.221l5.993 12.221c0.439,0.893 0.268,1.934 -0.436,2.638 -0.705,0.705 -1.744,0.875 -2.638,0.437l-12.221 -5.994c-0.683,-0.336 -1.132,-0.935 -1.256,-1.688 -0.124,-0.747 0.106,-1.464 0.642,-2l6.227 -6.228c0.536,-0.536 1.254,-0.766 2.002,-0.642 0.751,0.124 1.352,0.573 1.687,1.256zm-9.302 -102.708l12.221 -5.994c0.893,-0.439 1.934,-0.267 2.638,0.437 0.704,0.704 0.875,1.743 0.436,2.637l-5.993 12.221c-0.335,0.684 -0.936,1.132 -1.687,1.256 -0.748,0.124 -1.466,-0.106 -2.002,-0.641l-6.227 -6.228c-0.536,-0.536 -0.766,-1.253 -0.642,-2.001 0.124,-0.752 0.573,-1.352 1.256,-1.687zm-105.628 -5.994l12.221 5.994c0.685,0.336 1.132,0.935 1.256,1.687 0.124,0.748 -0.105,1.465 -0.641,2.001l-6.228 6.228c-0.536,0.536 -1.253,0.765 -2.001,0.641 -0.752,-0.124 -1.351,-0.572 -1.687,-1.256l-5.994 -12.221c-0.439,-0.893 -0.268,-1.933 0.437,-2.637 0.703,-0.704 1.744,-0.875 2.637,-0.437z"/>
  <path class="fil15" d="M215.527 336.744l-5.994 12.221c-0.251,0.511 -0.153,1.09 0.249,1.493 0.403,0.403 0.982,0.501 1.494,0.249l12.221 -5.993c0.391,-0.192 0.638,-0.524 0.709,-0.954 0.072,-0.435 -0.052,-0.822 -0.364,-1.134l-6.228 -6.228c-0.312,-0.312 -0.698,-0.435 -1.134,-0.363 -0.43,0.07 -0.761,0.318 -0.953,0.709zm7.97 -102.252l-12.221 -5.994c-0.512,-0.251 -1.091,-0.153 -1.494,0.249 -0.402,0.403 -0.5,0.982 -0.249,1.494l5.994 12.221c0.192,0.39 0.523,0.638 0.953,0.709 0.436,0.072 0.822,-0.052 1.134,-0.364l6.228 -6.228c0.312,-0.312 0.436,-0.698 0.364,-1.134 -0.071,-0.43 -0.318,-0.761 -0.709,-0.953zm106.503 -5.994l-12.221 5.994c-0.391,0.192 -0.639,0.523 -0.709,0.953 -0.072,0.436 0.051,0.822 0.364,1.134l6.227 6.228c0.312,0.312 0.699,0.436 1.134,0.364 0.43,-0.071 0.763,-0.318 0.954,-0.709l5.993 -12.221c0.252,-0.512 0.154,-1.091 -0.249,-1.494 -0.402,-0.402 -0.982,-0.5 -1.493,-0.249zm1.742 120.467l-5.993 -12.221c-0.191,-0.391 -0.524,-0.639 -0.954,-0.709 -0.435,-0.072 -0.822,0.051 -1.134,0.363l-6.227 6.228c-0.313,0.313 -0.436,0.698 -0.364,1.134 0.07,0.43 0.318,0.762 0.709,0.954l12.221 5.993c0.512,0.252 1.09,0.154 1.493,-0.249 0.403,-0.403 0.5,-0.982 0.249,-1.493z"/>
  <path class="fil16" d="M293.836 206.551l0 32.355c0,15.187 12.312,27.499 27.499,27.499l32.354 0c2.576,0 4.744,1.753 5.282,4.272 1.302,6.102 1.991,12.434 1.991,18.926 0,6.491 -0.689,12.823 -1.991,18.926 -0.538,2.519 -2.705,4.272 -5.282,4.272l-32.354 0c-15.187,0 -27.499,12.311 -27.499,27.499l0 32.354c0,2.576 -1.753,4.744 -4.272,5.282 -6.103,1.302 -12.434,1.991 -18.926,1.991 -6.492,0 -12.823,-0.689 -18.926,-1.991 -2.519,-0.538 -4.272,-2.705 -4.272,-5.282l0 -32.354c0,-15.188 -12.312,-27.499 -27.499,-27.499l-32.355 0c-2.575,0 -4.744,-1.753 -5.281,-4.272 -1.303,-6.103 -1.991,-12.434 -1.991,-18.926 0,-6.492 0.688,-12.824 1.991,-18.926 0.537,-2.519 2.705,-4.272 5.281,-4.272l32.355 0c15.187,0 27.499,-12.312 27.499,-27.499l0 -32.355c0,-2.575 1.753,-4.744 4.272,-5.281 6.103,-1.303 12.434,-1.991 18.926,-1.991 6.491,0 12.823,0.688 18.926,1.991 2.519,0.537 4.272,2.705 4.272,5.281zm-5.4 32.355l0 -23.901c0,-1.747 -1.214,-3.213 -2.93,-3.537 -4.816,-0.911 -9.786,-1.389 -14.868,-1.389 -5.082,0 -10.053,0.477 -14.87,1.389 -1.716,0.325 -2.93,1.79 -2.93,3.537l0.002 23.901c0,9.083 -3.683,17.309 -9.637,23.262 -5.953,5.954 -14.179,9.636 -23.262,9.636l-23.901 0c-1.747,0 -3.213,1.215 -3.537,2.93 -0.911,4.816 -1.389,9.787 -1.389,14.869 0,5.082 0.477,10.053 1.389,14.869 0.325,1.716 1.79,2.931 3.537,2.931l23.901 -0.002c9.083,0 17.309,3.683 23.262,9.636 5.954,5.954 9.637,14.179 9.637,23.263l0 23.901c0,1.746 1.214,3.212 2.929,3.537 4.816,0.911 9.787,1.389 14.869,1.389 5.082,0 10.053,-0.478 14.869,-1.389 1.716,-0.325 2.931,-1.791 2.931,-3.537l-0.002 -23.901c0,-9.084 3.683,-17.309 9.636,-23.263 5.954,-5.953 14.179,-9.636 23.263,-9.636l23.901 0c1.746,0 3.212,-1.214 3.537,-2.93 0.911,-4.816 1.389,-9.786 1.389,-14.868 0,-5.082 -0.478,-10.053 -1.389,-14.87 -0.325,-1.716 -1.791,-2.93 -3.537,-2.93l-23.901 0.001c-9.084,0 -17.309,-3.682 -23.263,-9.636 -5.953,-5.953 -9.636,-14.179 -9.636,-23.262z"/>
  <path class="fil17" d="M738.862 337.422c25.081,0 45.414,20.333 45.414,45.414 0,25.081 -20.333,45.414 -45.414,45.414 -25.081,0 -45.414,-20.333 -45.414,-45.414 0,-25.081 20.333,-45.414 45.414,-45.414z"/>
  <path class="fil18" d="M840.562 268.969c25.081,0 45.414,20.334 45.414,45.414 0,25.082 -20.333,45.415 -45.414,45.415 -25.081,0 -45.414,-20.333 -45.414,-45.415 0,-25.08 20.333,-45.414 45.414,-45.414z"/>
  <path class="fil19" d="M954.78 228.289c25.081,0 45.414,20.333 45.414,45.414 0,25.082 -20.333,45.415 -45.414,45.415 -25.081,0 -45.414,-20.333 -45.414,-45.415 0,-25.081 20.333,-45.414 45.414,-45.414z"/>
  <path class="fil20" d="M785.084 168.942c20.528,0 37.17,16.642 37.17,37.17 0,20.528 -16.642,37.17 -37.17,37.17 -20.528,0 -37.17,-16.642 -37.17,-37.17 0,-20.528 16.642,-37.17 37.17,-37.17z"/>
  <path class="fil20" d="M879.932 135.357c20.528,0 37.17,16.642 37.17,37.171 0,20.528 -16.642,37.17 -37.17,37.17 -20.528,0 -37.17,-16.642 -37.17,-37.17 0,-20.529 16.642,-37.171 37.17,-37.171z"/>
  <circle class="fil21" cx="738.862" cy="382.836" r="41.814"/>
  <circle class="fil22" cx="840.562" cy="314.383" r="41.814"/>
  <circle class="fil23" cx="954.779" cy="273.703" r="41.814"/>
  <path class="fil20" d="M700.92 225.972c20.529,0 37.171,16.642 37.171,37.17 0,20.528 -16.642,37.17 -37.171,37.17 -20.528,0 -37.17,-16.642 -37.17,-37.17 0,-20.528 16.642,-37.17 37.17,-37.17z"/>
  <circle class="fil9" cx="785.084" cy="206.112" r="33.57"/>
  <circle class="fil9" cx="879.932" cy="172.527" r="33.57"/>
  <circle class="fil9" cx="700.92" cy="263.142" r="33.57"/>
  <path class="fil24" d="M727.496 271.974c-2.782,12.107 -13.624,21.138 -26.576,21.138 -12.951,0 -23.793,-9.031 -26.575,-21.138 -0.174,-0.759 0.136,-1.511 0.796,-1.926 0.659,-0.415 1.47,-0.37 2.079,0.116 6.503,5.18 14.739,8.278 23.7,8.278 8.962,0 17.198,-3.098 23.701,-8.278 0.61,-0.486 1.422,-0.531 2.081,-0.116 0.659,0.416 0.969,1.167 0.794,1.926z"/>
  <path class="fil24" d="M738.862 344.622c19.266,0 35.203,14.257 37.833,32.796 0.112,0.793 -0.288,1.536 -1.012,1.879 -0.725,0.343 -1.555,0.181 -2.097,-0.411 -7.226,-7.886 -20.076,-13.132 -34.724,-13.132 -14.649,0 -27.499,5.248 -34.725,13.134 -0.541,0.592 -1.371,0.754 -2.096,0.412 -0.724,-0.343 -1.125,-1.086 -1.012,-1.88 2.63,-18.539 18.567,-32.798 37.833,-32.798z"/>
  <path class="fil24" d="M811.66 214.944c-2.781,12.107 -13.625,21.138 -26.576,21.138 -12.951,0 -23.793,-9.031 -26.575,-21.138 -0.174,-0.759 0.136,-1.511 0.795,-1.926 0.659,-0.415 1.471,-0.37 2.08,0.116 6.503,5.18 14.739,8.278 23.7,8.278 8.961,0 17.198,-3.098 23.701,-8.278 0.61,-0.486 1.421,-0.531 2.08,-0.116 0.66,0.415 0.97,1.167 0.795,1.926z"/>
  <path class="fil24" d="M906.508 181.36c-2.782,12.106 -13.625,21.137 -26.576,21.137 -12.951,0 -23.794,-9.031 -26.575,-21.137 -0.174,-0.76 0.136,-1.511 0.795,-1.926 0.659,-0.415 1.47,-0.371 2.08,0.115 6.502,5.181 14.739,8.279 23.7,8.279 8.961,0 17.198,-3.098 23.701,-8.279 0.609,-0.486 1.421,-0.53 2.08,-0.115 0.66,0.415 0.97,1.166 0.795,1.926z"/>
  <path class="fil24" d="M840.562 276.17c19.266,0 35.202,14.258 37.832,32.797 0.113,0.793 -0.287,1.536 -1.012,1.879 -0.724,0.343 -1.554,0.18 -2.096,-0.411 -7.226,-7.886 -20.076,-13.133 -34.724,-13.133 -14.649,0 -27.499,5.249 -34.725,13.135 -0.542,0.591 -1.371,0.754 -2.096,0.412 -0.724,-0.343 -1.125,-1.087 -1.013,-1.88 2.63,-18.539 18.567,-32.799 37.834,-32.799z"/>
  <path class="fil24" d="M954.78 235.49c19.265,0 35.202,14.257 37.832,32.797 0.112,0.793 -0.288,1.536 -1.012,1.879 -0.725,0.343 -1.555,0.18 -2.096,-0.411 -7.227,-7.886 -20.076,-13.133 -34.724,-13.133 -14.65,0 -27.499,5.249 -34.726,13.135 -0.541,0.591 -1.371,0.754 -2.096,0.412 -0.724,-0.344 -1.124,-1.087 -1.012,-1.88 2.63,-18.54 18.567,-32.799 37.834,-32.799z"/>
  <path class="fil25" d="M549 352.915c24.316,0 44.028,8.1 44.028,18.091 0,9.989 -19.712,18.089 -44.028,18.089 -24.317,0 -44.028,-8.1 -44.028,-18.089 0,-9.991 19.711,-18.091 44.028,-18.091z"/>
  <path class="fil26" d="M579.449 359.873c-7.755,-3.186 -18.518,-5.157 -30.449,-5.157 -11.932,0 -22.695,1.971 -30.45,5.157 -7.277,2.989 -11.778,6.937 -11.778,11.133 0,4.195 4.501,8.142 11.778,11.132 7.755,3.186 18.518,5.157 30.45,5.157 11.931,0 22.694,-1.971 30.449,-5.157 7.277,-2.99 11.779,-6.937 11.779,-11.132 0,-4.196 -4.502,-8.144 -11.779,-11.133z"/>
  <path class="fil24" d="M549 366.505c2.485,0 4.5,2.015 4.5,4.5 0,2.485 -2.015,4.5 -4.5,4.5 -2.485,0 -4.5,-2.015 -4.5,-4.5 0,-2.485 2.015,-4.5 4.5,-4.5z"/>
  <path class="fil27" d="M963.374 256.758c0.523,1.035 0.265,1.818 -0.775,2.344l-15.673 7.922c-3.804,1.923 -5.323,3.642 -4.553,5.166l6.041 11.952c0.578,1.143 1.823,1.515 3.734,1.114 0.839,-0.174 2.157,-0.712 3.957,-1.621l14.952 -7.558c1.028,-0.519 1.805,-0.259 2.335,0.788l0.247 0.489c0.529,1.047 0.278,1.828 -0.75,2.347l-14.947 7.555c-1.805,0.913 -3.11,1.507 -3.897,1.785 -1.383,0.472 -2.77,0.698 -4.174,0.665 -2.808,-0.065 -4.745,-1.152 -5.81,-3.259l-6.07 -12.01c-0.76,-1.504 -0.715,-3.156 0.146,-4.946 0.734,-1.517 1.832,-2.823 3.312,-3.918 0.819,-0.599 2.013,-1.3 3.6,-2.102l15.737 -7.954c1.041,-0.526 1.822,-0.275 2.342,0.753l0.246 0.488z"/>
  <path class="fil27" d="M853.241 313.275c-0.747,-1.542 -2.959,-1.384 -6.628,0.47l-14.819 7.49c-0.442,0.223 -0.62,0.766 -0.397,1.208l2.482 4.911c0.224,0.442 0.767,0.62 1.209,0.397l14.549 -7.354c3.411,-1.724 4.937,-3.447 4.588,-5.175l-0.984 -1.947zm-4.048 -8.2l-1.106 -1.998c-0.935,-1.625 -3.259,-1.499 -6.973,0.378l-14.466 7.311c-0.441,0.224 -0.62,0.767 -0.397,1.209l2.619 5.18c0.223,0.442 0.766,0.621 1.208,0.397l14.613 -7.386c2.718,-1.374 4.258,-2.7 4.61,-3.983 0.111,-0.403 0.077,-0.774 -0.108,-1.108zm9.164 7.405c1.403,2.776 0.832,5.429 -1.72,7.961 -0.779,0.772 -1.762,1.543 -2.946,2.312 -0.649,0.425 -1.233,0.769 -1.747,1.028l-18.68 9.442c-1.028,0.519 -1.805,0.259 -2.332,-0.782l-10.63 -21.032c-0.52,-1.028 -0.265,-1.802 0.762,-2.322l18.134 -9.165c2.044,-1.033 3.667,-1.7 4.854,-2.001 1.685,-0.433 3.279,-0.424 4.775,0.014 1.696,0.482 2.914,1.455 3.648,2.908l0.942 1.863c0.737,1.459 0.834,2.927 0.29,4.42 -0.08,0.209 -0.075,0.409 0.012,0.583 0.058,0.115 0.159,0.218 0.307,0.321l0.194 0.111c1.515,0.429 2.64,1.377 3.377,2.836l0.76 1.503z"/>
  <path class="fil27" d="M744.7 380.759l-9.012 -5.004c-0.269,-0.149 -0.567,-0.155 -0.842,-0.017 -0.274,0.139 -0.447,0.382 -0.487,0.687l-1.34 10.236c-0.044,0.339 0.093,0.653 0.372,0.85 0.279,0.198 0.62,0.224 0.926,0.069l10.352 -5.232c0.305,-0.154 0.487,-0.444 0.493,-0.786 0.007,-0.341 -0.164,-0.637 -0.462,-0.803zm16.012 3.201c0.133,0.167 0.253,0.356 0.354,0.555 0.331,0.656 0.382,1.3 0.15,1.926 -0.232,0.625 -0.678,1.101 -1.34,1.435 -0.688,0.348 -1.512,0.249 -2.484,-0.302l-6.021 -3.279c-0.482,-0.263 -1.016,-0.271 -1.506,-0.023l-17.05 8.618c-0.492,0.248 -0.802,0.684 -0.875,1.23l-0.913 6.813c-0.001,0.299 -0.036,0.535 -0.096,0.686 -0.144,0.403 -0.41,0.707 -0.802,0.905 -0.842,0.426 -1.611,0.436 -2.321,0.037 -0.307,-0.176 -0.523,-0.382 -0.644,-0.62 -0.081,-0.16 -0.123,-0.308 -0.124,-0.437l3.155 -28.314c0.143,-1.218 0.815,-2.106 2.036,-2.659 1.44,-0.663 2.506,-0.661 3.194,0.015l25.287 13.414z"/>
  <path class="fil27" d="M794.428 189.571l-5.9 16.766c-0.152,0.432 -0.124,0.859 0.083,1.268l3.991 7.898c0.527,1.041 0.276,1.821 -0.759,2.344l-1.279 0.646c-1.047,0.53 -1.827,0.279 -2.347,-0.749l-4.001 -7.917c-0.207,-0.409 -0.535,-0.685 -0.974,-0.819l-17.017 -5.182c-0.687,-0.21 -1.146,-0.543 -1.38,-1.005 -0.438,-0.868 -0.058,-1.6 1.137,-2.204l1.356 -0.686c0.418,-0.211 0.843,-0.248 1.287,-0.118l14.845 4.521c0.46,0.14 0.949,-0.107 1.11,-0.56l5.193 -14.65c0.159,-0.435 0.447,-0.758 0.865,-0.97l1.376 -0.695c1.182,-0.597 1.984,-0.462 2.423,0.406 0.227,0.449 0.223,1.015 -0.009,1.706z"/>
  <path class="fil27" d="M720.018 265.163c0.741,0.174 1.238,0.52 1.492,1.021 0.451,0.893 0.078,1.639 -1.111,2.24 -0.141,0.103 -0.353,0.227 -0.636,0.37 -0.803,0.406 -1.44,0.55 -1.911,0.433l-14.946 -3.541c-0.429,-0.102 -0.86,0.114 -1.034,0.519l-6.099 14.182c-0.178,0.445 -0.692,0.882 -1.534,1.308 -0.25,0.126 -0.456,0.213 -0.617,0.263 -1.189,0.601 -2.014,0.453 -2.471,-0.453 -0.247,-0.488 -0.227,-1.087 0.066,-1.785l6.073 -14.229c0.108,-0.252 0.1,-0.513 -0.024,-0.758 -0.125,-0.246 -0.33,-0.407 -0.598,-0.47l-14.504 -3.395c-0.747,-0.17 -1.248,-0.506 -1.501,-1.007 -0.445,-0.881 -0.075,-1.616 1.12,-2.221l1.337 -0.675c0.392,-0.199 0.778,-0.249 1.168,-0.163l14.536 3.351c0.428,0.099 0.856,-0.118 1.029,-0.521l5.865 -13.646c0.169,-0.384 0.445,-0.668 0.824,-0.86l1.298 -0.656c1.176,-0.594 1.991,-0.45 2.443,0.443 0.253,0.502 0.229,1.095 -0.07,1.778l-5.823 13.647c-0.107,0.252 -0.099,0.512 0.024,0.757 0.123,0.245 0.327,0.406 0.594,0.471l15.01 3.597z"/>
  <path class="fil27" d="M888.679 155.982c0.305,0.604 0.329,1.219 0.059,1.841l-10.779 24.881c-0.12,0.283 -0.053,0.596 0.172,0.806 0.225,0.21 0.541,0.255 0.816,0.117l17.301 -8.745c1.028,-0.52 1.805,-0.259 2.334,0.788l0.247 0.489c0.53,1.047 0.279,1.827 -0.749,2.347l-22.048 11.144c-0.938,0.474 -1.819,0.709 -2.647,0.7 -1.094,0.001 -1.724,-0.393 -2.201,-1.275 -0.305,-0.604 -0.328,-1.22 -0.059,-1.842l10.779 -24.881c0.12,-0.283 0.053,-0.596 -0.172,-0.806 -0.225,-0.21 -0.541,-0.255 -0.816,-0.116l-17.301 8.744c-1.028,0.52 -1.805,0.26 -2.334,-0.788l-0.248 -0.489c-0.529,-1.047 -0.277,-1.827 0.75,-2.347l22.048 -11.143c0.938,-0.475 1.819,-0.71 2.647,-0.701 1.094,-0.001 1.724,0.393 2.201,1.276z"/>
  <path class="fil28" d="M766.442 7.44c-8.011,0.677 -10.447,4.495 -7.244,4.601l5.589 0.186c31.451,0.728 59.701,3.98 89.405,14.529 25.104,9.304 46.481,21.178 67.338,37.931 15.034,12.412 22.632,20.021 35.189,34.134l1.54 1.668c1.876,2.031 4.475,1.567 1.209,-3.085 -23.309,-33.197 -52.518,-71.32 -85.709,-86.624 -27.451,-12.658 -73.313,-6.211 -107.317,-3.34z"/>
  <path class="fil26" d="M872.222 26.6c-23.457,-10.479 -43.508,-15.536 -69.045,-17.98 -22.291,-2.132 -50.155,-2.975 -50.155,4.288l0 1.8c3.307,-0.057 6.651,-0.069 10.044,-0.031 31.451,0.729 60.88,5.43 90.585,15.98 25.103,9.304 46.047,21.72 66.904,38.473 15.034,12.412 28.295,25.567 40.852,39.68l1.507 -1.473c4.305,-4.208 -17.26,-26.906 -28.766,-38.248 -16.984,-16.746 -40.323,-32.835 -61.926,-42.489z"/>
  <path class="fil28" d="M331.559 7.44c8.011,0.677 10.447,4.495 7.243,4.601l-5.588 0.186c-31.452,0.728 -59.701,3.98 -89.406,14.529 -25.103,9.304 -46.481,21.178 -67.338,37.931 -15.033,12.412 -22.631,20.021 -35.189,34.134l-1.539 1.668c-1.876,2.031 -4.476,1.567 -1.209,-3.085 23.309,-33.197 52.518,-71.32 85.709,-86.624 27.451,-12.658 73.313,-6.211 107.317,-3.34z"/>
  <path class="fil26" d="M225.779 26.6c23.456,-10.479 43.508,-15.536 69.045,-17.98 22.291,-2.132 50.154,-2.975 50.154,4.288l0 1.8c-3.306,-0.057 -6.65,-0.069 -10.043,-0.031 -31.452,0.729 -60.88,5.43 -90.585,15.98 -25.104,9.304 -46.047,21.72 -66.904,38.473 -15.034,12.412 -28.295,25.567 -40.853,39.68l-1.506 -1.473c-4.305,-4.208 17.26,-26.906 28.765,-38.248 16.985,-16.746 40.324,-32.835 61.927,-42.489z"/>
 </g>
</svg>
