<?xml version="1.0" encoding="UTF-8"?>
<!DOCTYPE svg PUBLIC "-//W3C//DTD SVG 1.1//EN" "http://www.w3.org/Graphics/SVG/1.1/DTD/svg11.dtd">
<svg xml:space="preserve" viewBox="0 0 1232 544" width="1232px" height="544px" version="1.1" style="shape-rendering:geometricPrecision; fill-rule:evenodd; clip-rule:evenodd" xmlns="http://www.w3.org/2000/svg">
 <defs>
  <style type="text/css">
    .fil1 {fill:black;fill-opacity:0.3}
    .fil0 {fill:url(#id0)}
  </style>
  <linearGradient id="id0" gradientUnits="userSpaceOnUse" x1="908.58" y1="404.679" x2="908.58" y2="337.48">
   <stop offset="0" style="stop-opacity:1; stop-color:#B2B2B4"/>
   <stop offset="1" style="stop-opacity:1; stop-color:#CACACC"/>
  </linearGradient>
 </defs>
 <g>
  <circle class="fil0" cx="908.58" cy="371.08" r="42"/>
  <path class="fil1" d="M916.424 355.393l-4.706 0 0 31.373 4.706 0 0 -31.373zm-26.668 36.08l0 -4.707 4.706 0 0 -31.373 -4.706 0 0 -4.706c12.55,0 25.099,0 37.649,0l0 4.706 -4.706 0 0 31.373 4.706 0 0 4.707c-12.55,0 -25.099,0 -37.649,0zm10.981 -4.707l4.706 0 0 -31.373 -4.706 0 0 31.373z"/>
 </g>
</svg>
