<?xml version="1.0" encoding="UTF-8"?>
<!DOCTYPE svg PUBLIC "-//W3C//DTD SVG 1.1//EN" "http://www.w3.org/Graphics/SVG/1.1/DTD/svg11.dtd">
<svg xml:space="preserve" viewBox="0 0 1232 544" width="1232px" height="544px" version="1.1" style="shape-rendering:geometricPrecision; fill-rule:evenodd; clip-rule:evenodd" xmlns="http://www.w3.org/2000/svg">
 <defs>
  <style type="text/css">
    .fil1 {fill:black;fill-opacity:0.3}
    .fil0 {fill:url(#id0)}
  </style>
  <linearGradient id="id0" gradientUnits="userSpaceOnUse" x1="1073.655" y1="216.099" x2="1073.655" y2="148.899">
   <stop offset="0" style="stop-opacity:1; stop-color:#B2B2B4"/>
   <stop offset="1" style="stop-opacity:1; stop-color:#CACACC"/>
  </linearGradient>
 </defs>
 <g>
  <circle class="fil0" cx="1073.655" cy="182.499" r="42"/>
  <path class="fil1" d="M1080.975 166.415l-9.783 36.876 -6.054 0 -9.784 -36.876 -5.229 0 0 -4.707 15.686 0 0 4.707 -3.98 0 6.334 23.873 6.333 -23.873 -3.981 0 0 -4.707c8.89,0 17.779,0 26.669,0l0 4.707 -4.706 0 0 31.373 4.706 0 0 4.707 -15.687 0 0 -4.707 4.705 0 0 -31.373 -5.229 0z"/>
 </g>
</svg>
