<?xml version="1.0" encoding="UTF-8"?>
<!DOCTYPE svg PUBLIC "-//W3C//DTD SVG 1.1//EN" "http://www.w3.org/Graphics/SVG/1.1/DTD/svg11.dtd">
<svg xml:space="preserve" viewBox="0 0 1232 544" width="1232px" height="544px" version="1.1" style="shape-rendering:geometricPrecision; fill-rule:evenodd; clip-rule:evenodd" xmlns="http://www.w3.org/2000/svg">
 <defs>
  <style type="text/css">
    .fil1 {fill:black;fill-opacity:0.3}
    .fil0 {fill:url(#id0)}
  </style>
  <linearGradient id="id0" gradientUnits="userSpaceOnUse" x1="866.362" y1="295.688" x2="866.362" y2="228.488">
   <stop offset="0" style="stop-opacity:1; stop-color:#B2B2B4"/>
   <stop offset="1" style="stop-opacity:1; stop-color:#CACACC"/>
  </linearGradient>
 </defs>
 <g>
  <circle class="fil0" cx="866.362" cy="262.088" r="42"/>
  <path class="fil1" d="M859.042 246.003l9.784 36.877 6.054 0 9.783 -36.877 5.23 0 0 -4.706 -15.687 0 0 4.706 3.981 0 -6.334 23.873 -6.334 -23.873 3.981 0 0 -4.706c-8.89,0 -17.779,0 -26.669,0l0 4.706 4.706 0 0 31.374 -4.706 0 0 4.706 15.687 0 0 -4.706 -4.705 0 0 -31.374 5.229 0z"/>
 </g>
</svg>
