<?xml version="1.0" encoding="UTF-8"?>
<!DOCTYPE svg PUBLIC "-//W3C//DTD SVG 1.1//EN" "http://www.w3.org/Graphics/SVG/1.1/DTD/svg11.dtd">
<svg xml:space="preserve" viewBox="0 0 1232 544" width="1232px" height="544px" version="1.1" style="shape-rendering:geometricPrecision; fill-rule:evenodd; clip-rule:evenodd" xmlns="http://www.w3.org/2000/svg">
 <defs>
  <style type="text/css">
    .fil0 {fill:#CC0000}
    .fil1 {fill:red}
    .fil2 {fill:black;fill-opacity:0.2}
  </style>
 </defs>
 <g>
  <path class="fil0" d="M135.397 337.35c-6.157,1.072 -12.068,-2.476 -14.04,-8.407 -3.897,-11.717 -6.011,-24.248 -6.011,-37.274 0,-13.026 2.114,-25.556 6.01,-37.273 1.973,-5.931 7.882,-9.469 14.041,-8.407l41.726 7.207c2.547,0.439 4.907,1.207 7.146,2.336 2.215,1.118 4.233,2.564 6.122,4.373 4.251,4.07 7.69,8.998 10.044,14.509 2.277,5.332 3.539,11.166 3.539,17.255 0,6.089 -1.261,11.924 -3.539,17.257 -2.353,5.511 -5.793,10.438 -10.044,14.509 -1.889,1.809 -3.907,3.256 -6.122,4.373 -2.239,1.129 -4.597,1.897 -7.146,2.335l-41.726 7.207z"/>
  <path class="fil1" d="M183.891 266.661c6.582,6.303 10.683,15.176 10.683,25.008 0,9.832 -4.1,18.707 -10.682,25.01 -2.403,2.301 -5.069,3.646 -8.348,4.211l-35.049 6.043c-3.126,0.539 -6.125,-1.3 -7.061,-4.331 -3.021,-9.776 -4.648,-20.164 -4.648,-30.933 0,-10.768 1.627,-21.156 4.647,-30.932 0.937,-3.031 3.935,-4.87 7.062,-4.331l35.049 6.043c3.278,0.566 5.944,1.911 8.347,4.212z"/>
  <path class="fil2" d="M153.51 291.669c0,-2.539 -2.059,-4.598 -4.598,-4.598 -2.539,0 -4.598,2.059 -4.598,4.598 0,2.539 2.059,4.598 4.598,4.598 2.539,0 4.598,-2.059 4.598,-4.598z"/>
 </g>
</svg>
