<?xml version="1.0" encoding="UTF-8"?>
<!DOCTYPE svg PUBLIC "-//W3C//DTD SVG 1.1//EN" "http://www.w3.org/Graphics/SVG/1.1/DTD/svg11.dtd">
<svg xml:space="preserve" viewBox="0 0 1232 544" width="1232px" height="544px" version="1.1" style="shape-rendering:geometricPrecision; fill-rule:evenodd; clip-rule:evenodd" xmlns="http://www.w3.org/2000/svg">
 <defs>
  <style type="text/css">
    .fil0 {fill:#CC0000}
    .fil1 {fill:red}
    .fil2 {fill:black;fill-opacity:0.2}
  </style>
 </defs>
 <g>
  <path class="fil0" d="M289.773 330.143c-2.548,-0.439 -4.907,-1.206 -7.146,-2.335 -2.215,-1.117 -4.233,-2.564 -6.122,-4.373 -4.252,-4.071 -7.69,-8.998 -10.044,-14.509 -2.277,-5.333 -3.538,-11.169 -3.538,-17.258 0,-6.088 1.26,-11.922 3.537,-17.255 2.353,-5.509 5.79,-10.436 10.041,-14.508 1.888,-1.809 3.906,-3.255 6.123,-4.373 2.239,-1.13 4.598,-1.897 7.147,-2.336l41.729 -7.207c6.16,-1.062 12.068,2.476 14.04,8.407 3.897,11.717 6.011,24.247 6.011,37.273 0,13.026 -2.114,25.558 -6.011,37.275 -1.972,5.931 -7.88,9.468 -14.04,8.406l-41.727 -7.207z"/>
  <path class="fil1" d="M283.004 316.679c-6.582,-6.303 -10.681,-15.178 -10.681,-25.011 0,-9.831 4.098,-18.704 10.677,-25.006 2.404,-2.302 5.07,-3.648 8.35,-4.213l35.052 -6.043c3.127,-0.539 6.126,1.3 7.062,4.331 3.02,9.775 4.648,20.164 4.648,30.932 0,10.769 -1.628,21.157 -4.648,30.933 -0.937,3.031 -3.936,4.87 -7.062,4.331l-35.05 -6.043c-3.279,-0.565 -5.945,-1.91 -8.348,-4.211z"/>
  <path class="fil2" d="M313.388 291.669c0,-2.539 2.058,-4.598 4.597,-4.598 2.539,0 4.598,2.059 4.598,4.598 0,2.539 -2.059,4.598 -4.598,4.598 -2.539,0 -4.597,-2.059 -4.597,-4.598z"/>
 </g>
</svg>
