<?xml version="1.0" encoding="UTF-8"?>
<!DOCTYPE svg PUBLIC "-//W3C//DTD SVG 1.1//EN" "http://www.w3.org/Graphics/SVG/1.1/DTD/svg11.dtd">
<svg xml:space="preserve" viewBox="0 0 1232 544" width="1232px" height="544px" version="1.1" style="shape-rendering:geometricPrecision; fill-rule:evenodd; clip-rule:evenodd" xmlns="http://www.w3.org/2000/svg" xmlns:xlink="http://www.w3.org/1999/xlink">
 <defs>
  <style type="text/css">
    .fil4 {fill:#1A1A1A}
    .fil3 {fill:#333333}
    .fil11 {fill:#5E5E60}
    .fil12 {fill:#C0C0C2}
    .fil2 {fill:black;fill-opacity:0.08}
    .fil1 {fill:black;fill-opacity:0.15}
    .fil13 {fill:black;fill-opacity:0.2}
    .fil9 {fill:black;fill-opacity:0.3}
    .fil10 {fill:black;fill-opacity:0.3}
    .fil0 {fill:url(#id0)}
    .fil16 {fill:url(#id1)}
    .fil17 {fill:url(#id2)}
    .fil20 {fill:url(#id3)}
    .fil18 {fill:url(#id4)}
    .fil15 {fill:url(#id5)}
    .fil19 {fill:url(#id6)}
    .fil14 {fill:url(#id7)}
    .fil22 {fill:url(#id8)}
    .fil21 {fill:url(#id9)}
    .fil5 {fill:url(#id10)}
    .fil7 {fill:url(#id11)}
    .fil8 {fill:url(#id12);fill-opacity:0.7}
    .fil6 {fill:url(#id13);fill-opacity:0.7}
    .fil23 {fill:#F0F0F0}
    .shd0 {filter: drop-shadow(0px 1px .5px rgba(0, 0, 0, 0.2)) drop-shadow(0px 0px .5px rgba(0, 0, 0, 0.2))}
  </style>
  <linearGradient id="id0" gradientUnits="userSpaceOnUse" x1="616" y1="541.622" x2="616" y2="2.377">
   <stop offset="0" style="stop-opacity:1; stop-color:#DEDEE0"/>
   <stop offset="1" style="stop-opacity:1; stop-color:#EEEEF0"/>
  </linearGradient>
  <linearGradient id="id1" gradientUnits="userSpaceOnUse" x1="1073.655" y1="216.099" x2="1073.655" y2="148.899">
   <stop offset="0" style="stop-opacity:1; stop-color:#B2B2B4"/>
   <stop offset="1" style="stop-opacity:1; stop-color:#CACACC"/>
  </linearGradient>
  <linearGradient id="id2" gradientUnits="userSpaceOnUse" xlink:href="#id1" x1="967.636" y1="249.713" x2="967.636" y2="182.514">
  </linearGradient>
  <linearGradient id="id3" gradientUnits="userSpaceOnUse" xlink:href="#id1" x1="1009.854" y1="358.705" x2="1009.854" y2="291.505">
  </linearGradient>
  <linearGradient id="id4" gradientUnits="userSpaceOnUse" xlink:href="#id1" x1="908.58" y1="404.679" x2="908.58" y2="337.48">
  </linearGradient>
  <linearGradient id="id5" gradientUnits="userSpaceOnUse" xlink:href="#id1" x1="866.362" y1="295.688" x2="866.362" y2="228.488">
  </linearGradient>
  <linearGradient id="id6" gradientUnits="userSpaceOnUse" xlink:href="#id1" x1="1115.874" y1="325.09" x2="1115.874" y2="257.891">
  </linearGradient>
  <linearGradient id="id7" gradientUnits="userSpaceOnUse" x1="287.037" y1="207.938" x2="287.037" y2="375.4">
   <stop offset="0" style="stop-opacity:1; stop-color:#C0C0C2"/>
   <stop offset="1" style="stop-opacity:1; stop-color:#CACACC"/>
  </linearGradient>
  <linearGradient id="id8" gradientUnits="userSpaceOnUse" x1="665.807" y1="410.886" x2="665.807" y2="399.616">
   <stop offset="0" style="stop-opacity:1; stop-color:#C6C6C8"/>
   <stop offset="1" style="stop-opacity:1; stop-color:#DEDEE0"/>
  </linearGradient>
  <linearGradient id="id9" gradientUnits="userSpaceOnUse" xlink:href="#id8" x1="566.192" y1="410.886" x2="566.192" y2="399.616">
  </linearGradient>
  <linearGradient id="id10" gradientUnits="userSpaceOnUse" xlink:href="#id8" x1="604.714" y1="311.167" x2="604.714" y2="299.898">
  </linearGradient>
  <linearGradient id="id11" gradientUnits="userSpaceOnUse" xlink:href="#id8" x1="604.714" y1="224.886" x2="604.714" y2="213.617">
  </linearGradient>
  <linearGradient id="id12" gradientUnits="userSpaceOnUse" xlink:href="#id8" x1="611.094" y1="225.675" x2="611.094" y2="213.279">
  </linearGradient>
  <linearGradient id="id13" gradientUnits="userSpaceOnUse" xlink:href="#id8" x1="611.094" y1="311.956" x2="611.094" y2="299.559">
  </linearGradient>
 </defs>
 <g>
  <path class="fil0" d="M330.484 540.054c-50.432,-3.221 -100.728,-6.422 -151.108,-10.525 -36.703,-2.989 -67.785,-5.021 -100.787,-23.959 -28.025,-16.081 -51.546,-43.455 -64.199,-73.055 -12.362,-28.918 -12.657,-52.408 -11.352,-82.918 2.112,-49.362 12.44,-101.59 27.002,-148.752 9.311,-30.153 26.491,-75.487 43.683,-103.922 15.138,-25.038 37.375,-40.7 65.914,-46.108 32.311,-6.122 64.648,-12.46 97.108,-17.691 40.23,-6.484 79.941,-12.276 120.381,-17.072 86.201,-10.224 172.205,-13.675 258.874,-13.675 86.669,0 172.673,3.451 258.874,13.675 40.44,4.796 80.151,10.588 120.381,17.072 32.46,5.231 64.797,11.569 97.108,17.691 28.539,5.408 50.776,21.07 65.914,46.108 17.192,28.435 34.372,73.769 43.683,103.922 14.562,47.162 24.89,99.39 27.002,148.752 1.305,30.51 1.01,54 -11.352,82.918 -12.653,29.6 -36.174,56.974 -64.199,73.055 -33.002,18.938 -64.084,20.97 -100.787,23.959 -50.38,4.103 -100.676,7.304 -151.108,10.525 -13.223,0.845 -26.24,1.674 -39.496,1.558 -10.304,-0.09 -11.294,-0.229 -15.028,-2.1 -4.381,-2.196 -7.439,-5.047 -15.572,-14.52 -18.681,-21.759 -44.431,-37.596 -72.172,-44.806 -31.563,-8.203 -73.584,-8.514 -107.11,-10.258 -6.959,-0.362 -21.021,-0.433 -36.138,-0.433 -15.117,0 -29.179,0.071 -36.138,0.433 -33.526,1.744 -75.547,2.055 -107.11,10.258 -27.741,7.21 -53.491,23.047 -72.172,44.806 -8.133,9.473 -11.191,12.324 -15.572,14.52 -3.734,1.871 -4.724,2.01 -15.028,2.1 -13.256,0.116 -26.273,-0.713 -39.496,-1.558z"/>
  <path class="fil1" d="M306.644 492.676c15.956,-9.86 31.273,-21.971 45.054,-34.596 25.079,-22.976 43.546,-49.539 59.296,-79.343 13.19,-24.96 22.683,-56.064 26.742,-87.62 2.23,-17.337 3.235,-34.534 0.504,-51.878 -5.263,-33.42 -25.299,-64.084 -53.44,-82.744 -14.057,-9.322 -27.089,-14.712 -60.974,-25.222 -47.585,-14.758 -99.424,-25.719 -149.535,-29.812 -11.04,-0.902 -28.838,-1.725 -39.825,-1.864 -15.356,-0.194 -27.54,2.525 -38.198,14.653 -7.491,8.525 -13.98,21.973 -23.487,48.179 -13.376,36.872 -20.284,62.505 -28.557,105.96 -4.85,25.47 -10.339,61.141 -8.191,86.523 4.628,54.678 41.984,101.824 92.298,121.128 17.622,6.76 34.324,8.747 52.7,10.379 35.999,3.198 71.776,6.46 107.841,8.943 3.275,0.226 7.38,0.385 9.12,0.353 4.298,-0.077 5.196,-0.904 8.652,-3.039zm-15.302 -3.569c-2.669,-0.066 -6.522,-0.331 -7.329,-0.383 -37.246,-2.388 -76.03,-5.511 -113.029,-9.241 -17.018,-1.715 -28.992,-4.478 -41.365,-9.44 -45.928,-18.418 -77.816,-57.289 -86.506,-104.803 -2.526,-13.808 -2.403,-25.807 -1.183,-39.735 1.96,-22.365 5.385,-44.962 9.799,-66.959 3.54,-17.642 7.633,-34.524 12.371,-51.915 3.885,-14.261 13.412,-42.942 18.788,-56.566 15.691,-39.758 25.722,-44.97 58.725,-42.26 26.895,2.207 53.654,6.201 80.015,11.958 50.319,10.989 116.081,36.433 139.079,53.811 23.306,17.61 41.77,46.377 49.484,77.098 2.906,11.571 4.436,22.655 4.523,34.622 0.181,25.043 -5.657,48.445 -15.156,71.602 -9.452,23.043 -21.809,43.025 -36.192,63.513 -3.964,5.648 -8.359,11.079 -18.511,22.874 -9.758,11.339 -28.555,29.187 -43.757,41.548 -3.341,2.716 -5.257,4.388 -9.756,4.276z"/>
  <path class="fil1" d="M925.356 492.676c-15.956,-9.86 -31.273,-21.971 -45.054,-34.596 -25.079,-22.976 -43.546,-49.539 -59.296,-79.343 -13.19,-24.96 -22.683,-56.064 -26.742,-87.62 -2.23,-17.337 -3.235,-34.534 -0.504,-51.878 5.263,-33.42 25.299,-64.084 53.44,-82.744 14.057,-9.322 27.089,-14.712 60.974,-25.222 47.585,-14.758 99.424,-25.719 149.535,-29.812 11.04,-0.902 28.838,-1.725 39.825,-1.864 15.356,-0.194 27.54,2.525 38.198,14.653 7.491,8.525 13.98,21.973 23.487,48.179 13.376,36.872 20.284,62.505 28.557,105.96 4.85,25.47 10.339,61.141 8.191,86.523 -4.628,54.678 -41.984,101.824 -92.298,121.128 -17.622,6.76 -34.324,8.747 -52.7,10.379 -35.999,3.198 -71.776,6.46 -107.841,8.943 -3.275,0.226 -7.38,0.385 -9.12,0.353 -4.298,-0.077 -5.196,-0.904 -8.652,-3.039zm15.302 -3.569c2.669,-0.066 6.522,-0.331 7.329,-0.383 37.246,-2.388 76.03,-5.511 113.029,-9.241 17.018,-1.715 28.992,-4.478 41.365,-9.44 45.928,-18.418 77.816,-57.289 86.506,-104.803 2.526,-13.808 2.403,-25.807 1.183,-39.735 -1.96,-22.365 -5.385,-44.962 -9.799,-66.959 -3.54,-17.642 -7.633,-34.524 -12.371,-51.915 -3.885,-14.261 -13.412,-42.942 -18.788,-56.566 -15.691,-39.758 -25.722,-44.97 -58.725,-42.26 -26.895,2.207 -53.654,6.201 -80.015,11.958 -50.319,10.989 -116.081,36.433 -139.079,53.811 -23.306,17.61 -41.77,46.377 -49.484,77.098 -2.906,11.571 -4.436,22.655 -4.523,34.622 -0.181,25.043 5.657,48.445 15.156,71.602 9.452,23.043 21.809,43.025 36.192,63.513 3.964,5.648 8.359,11.079 18.511,22.874 9.758,11.339 28.555,29.187 43.757,41.548 3.341,2.716 5.257,4.388 9.756,4.276z"/>
  <path class="fil23 shd0" d="M616.027 106.275l36.143 -20.572 0 -12.959 -36.143 20.572 0 12.959zm-38.487 -18.307l37.712 21.465c0.494,0.281 1.057,0.281 1.551,0l37.712 -21.465c0.503,-0.287 0.792,-0.784 0.792,-1.363l0 -16.548c0,-0.575 -0.283,-1.067 -0.78,-1.356 -0.496,-0.289 -1.065,-0.292 -1.564,-0.008l-36.936 21.024 -36.197 -20.604 0 -25.215 35.738 -19.263c0.261,-0.141 0.412,-0.395 0.412,-0.691l0 -0.461c0,-0.568 -0.276,-1.056 -0.764,-1.347 -0.487,-0.291 -1.048,-0.304 -1.548,-0.034l-36.151 19.486c-0.521,0.281 -0.825,0.789 -0.825,1.381 0.002,14.571 0.053,29.16 0.055,43.636 0,0.579 0.289,1.076 0.793,1.363zm44.103 -68.886c-1.302,-1.694 0.572,-3.929 2.463,-3.231 8.133,1.247 16.33,3.937 22.777,9.2 3.914,3.255 7.193,7.977 6.926,13.279 0.173,7.005 -4.314,12.966 -9.208,17.5 -1.451,3.231 -2.667,6.706 -5.389,9.153 -2.541,1.968 -2.721,5.475 -4.894,7.718 -2.373,2.569 -1.932,0.951 -2.941,3.992 -1.834,3.283 -4.76,5.166 -7.717,6.861 -1.125,0.329 -3.563,1.594 -4.299,-0.524 -0.259,-1.143 4.643,-4.036 0.572,-2.738 -6.863,0.636 -15.506,0.173 -19.781,-6.086 -0.822,-1.895 -0.708,-2.484 -0.714,-3.577 -3.098,-2.235 -5.286,-5.663 -5.019,-9.616 -3.436,-2.384 -6.699,-5.78 -6.848,-10.212 -0.588,-4.345 2.785,-7.859 6.212,-9.945 6.612,-3.961 14.55,-4.95 22.127,-4.934 7.874,0.471 16.063,2.212 22.479,7.075 2.494,1.819 4.188,4.431 5.788,7.019l0.141 -0.141c4.22,-4.062 7.115,-10.855 4.346,-16.471 -3.248,-5.726 -9.405,-9.051 -15.389,-11.248 -3.726,-1.591 -7.906,-1.544 -11.632,-3.074zm-28.048 27.1c-3.906,3.129 -1.02,9.514 3.012,10.761 5.38,-4.4 12.526,-5.671 19.295,-5.632 6.071,0.385 12.337,1.765 17.239,5.554 0.957,1.098 2.134,-0.181 3.13,-0.455 1.467,-0.934 2.918,-1.899 4.33,-2.918 -0.62,-2.314 -1.592,-4.597 -3.459,-6.189 -5.663,-5.2 -13.671,-6.972 -21.162,-7.09 -7.741,-0.173 -16.228,0.855 -22.385,5.969zm27.069 15.296c2.871,-0.4 6.669,-1.1 7.785,-1.503 1.503,-0.458 0.923,-0.699 0.418,-1.087 -3.828,-2.392 -8.408,-3.082 -12.84,-3.341 -4.847,-0.016 -9.938,0.495 -14.228,2.918 -0.439,0.268 -1.848,0.53 0.008,1.059 4.17,1.456 14.466,2.04 15.365,2.079 0.901,0.038 3.492,-0.125 3.492,-0.125zm-22.151 1.559c0.392,1.018 1.189,2.526 2.782,3.451 0.674,-0.448 1.704,-0.96 2.567,-1.415 0.56,-0.227 1.159,-0.626 1.734,-0.827 -0.281,-0.02 -0.703,-0.069 -1.531,-0.106 -1.989,-0.241 -3.678,-0.648 -5.552,-1.103zm27.185 1.624c1.492,0.412 2.914,1.098 3.969,2.408 2.082,-0.581 4.4,-1.93 3.082,-4.361 -2.337,0.691 -4.698,1.326 -7.051,1.953zm-19.39 3.99c1.323,0.784 3.139,0.74 4.558,1.03 4.412,0.291 8.918,0.196 13.311,-0.549 -0.863,-1.271 -2.526,-1.271 -3.875,-1.655 -4.494,-1.075 -9.665,-0.458 -13.994,1.174zm-2.046 4.104c2.879,3.059 7.42,3.396 11.358,3.585 4.4,-0.102 9.184,-0.957 12.58,-3.977 -7.788,2.299 -16.079,2.361 -23.938,0.392zm14.933 -55.656c0,-1.75 -1.418,-3.168 -3.168,-3.168 -1.749,0 -3.167,1.418 -3.167,3.168 0,1.75 1.418,3.168 3.167,3.168 1.75,0 3.168,-1.418 3.168,-3.168z"/>
  <circle class="fil3" cx="866.362" cy="262.088" r="44.528"/>
  <circle class="fil3" cx="1073.655" cy="182.499" r="44.528"/>
  <circle class="fil3" cx="967.636" cy="216.114" r="44.528"/>
  <circle class="fil3" cx="908.58" cy="371.08" r="44.528"/>
  <circle class="fil3" cx="1115.874" cy="291.491" r="44.528"/>
  <circle class="fil3" cx="1009.854" cy="325.105" r="44.528"/>
  <polygon class="fil2" points="541.255,389.254 690.745,389.254 727.766,382.149 504.234,382.149 "/>
  <polygon class="fil2" points="541.255,416.741 690.745,416.741 727.766,423.845 504.234,423.845 "/>
  <path class="fil4" d="M541.255 389.254c-7.591,0 -13.744,6.153 -13.744,13.743 0,7.591 6.153,13.744 13.744,13.744 20.482,0 29.569,0 49.876,0 7.59,0 13.743,-6.153 13.743,-13.744 0,-7.59 -6.153,-13.743 -13.743,-13.743 -20.529,0 -29.109,0 -49.876,0z"/>
  <path class="fil4" d="M640.869 389.254c-7.59,0 -13.743,6.153 -13.743,13.743 0,7.591 6.153,13.744 13.743,13.744 20.482,0 29.569,0 49.876,0 7.591,0 13.744,-6.153 13.744,-13.744 0,-7.59 -6.153,-13.743 -13.744,-13.743 -20.528,0 -29.108,0 -49.876,0z"/>
  <polygon class="fil2" points="598.61,289.535 633.39,289.535 678.254,282.43 553.746,282.43 "/>
  <polygon class="fil2" points="598.61,317.022 633.39,317.022 678.254,324.126 553.746,324.126 "/>
  <path class="fil4" d="M598.61 289.535c-7.59,0 -13.743,6.153 -13.743,13.743 0,7.59 6.153,13.744 13.743,13.744 20.482,0 14.473,0 34.78,0 7.59,0 13.743,-6.154 13.743,-13.744 0,-7.59 -6.153,-13.743 -13.743,-13.743 -20.529,0 -14.012,0 -34.78,0z"/>
  <path class="fil5" d="M604.714 314.548c6.224,0 11.27,-5.046 11.27,-11.27 0,-6.224 -5.046,-11.269 -11.27,-11.269 -6.224,0 -11.269,5.045 -11.269,11.269 0,6.224 5.045,11.27 11.269,11.27z"/>
  <path class="fil6" d="M604.714 290.882c-6.846,0 -12.396,5.55 -12.396,12.396 0,6.847 5.55,12.397 12.396,12.397 21.116,0 -8.365,0 12.759,0 6.846,0 12.397,-5.55 12.397,-12.397 0,-6.846 -5.551,-12.396 -12.397,-12.396 -21.128,0 8.413,0 -12.759,0z"/>
  <polygon class="fil2" points="598.61,203.254 633.39,203.254 678.254,196.15 553.746,196.15 "/>
  <polygon class="fil2" points="598.61,230.741 633.39,230.741 678.254,237.845 553.746,237.845 "/>
  <path class="fil4" d="M598.61 203.254c-7.59,0 -13.743,6.153 -13.743,13.743 0,7.591 6.153,13.744 13.743,13.744 20.482,0 14.473,0 34.78,0 7.59,0 13.743,-6.153 13.743,-13.744 0,-7.59 -6.153,-13.743 -13.743,-13.743 -20.529,0 -14.012,0 -34.78,0z"/>
  <path class="fil7" d="M604.714 228.267c6.224,0 11.27,-5.045 11.27,-11.27 0,-6.223 -5.046,-11.269 -11.27,-11.269 -6.224,0 -11.269,5.046 -11.269,11.269 0,6.225 5.045,11.27 11.269,11.27z"/>
  <path class="fil8" d="M604.714 204.601c-6.846,0 -12.396,5.55 -12.396,12.396 0,6.847 5.55,12.397 12.396,12.397 21.116,0 -8.365,0 12.759,0 6.846,0 12.397,-5.55 12.397,-12.397 0,-6.846 -5.551,-12.396 -12.397,-12.396 -21.128,0 8.413,0 -12.759,0z"/>
  <path class="fil9" d="M593.374 189.173l-2.259 0 0 -13.073 -0.063 0 -5.208 13.073 -1.359 0 -5.229 -13.073 -0.042 0 0 13.073 -2.259 0 0 -15.478 3.556 0 4.643 11.859 4.664 -11.859 3.556 0 0 15.478zm18.448 -7.697c0,2.203 -0.788,4.085 -2.364,5.647 -1.575,1.562 -3.472,2.343 -5.689,2.343 -2.217,0 -4.113,-0.784 -5.689,-2.353 -1.576,-1.569 -2.364,-3.462 -2.364,-5.679 0,-2.231 0.785,-4.128 2.354,-5.689 1.568,-1.562 3.468,-2.343 5.699,-2.343 2.259,0 4.166,0.781 5.721,2.343 1.555,1.561 2.332,3.472 2.332,5.731zm-2.259 0.021c0,-1.673 -0.551,-3.096 -1.652,-4.267 -1.102,-1.172 -2.482,-1.757 -4.142,-1.757 -1.199,0 -2.255,0.307 -3.169,0.92 -0.913,0.614 -1.607,1.472 -2.081,2.573 -0.362,0.837 -0.544,1.659 -0.544,2.468 0,0.809 0.182,1.646 0.544,2.51 0.488,1.088 1.189,1.935 2.102,2.541 0.914,0.607 1.963,0.91 3.148,0.91 1.269,0 2.374,-0.338 3.315,-1.014 0.942,-0.677 1.635,-1.614 2.082,-2.813 0.264,-0.684 0.397,-1.374 0.397,-2.071zm17.339 -0.021c0,0.962 -0.17,1.959 -0.512,2.991 -0.342,1.032 -0.819,1.855 -1.433,2.468 -1.506,1.492 -3.521,2.238 -6.045,2.238l-4.936 0 0 -15.478 5.02 0c2.858,0 4.964,0.948 6.317,2.845 1.06,1.478 1.589,3.123 1.589,4.936zm-2.259 0c0,-0.781 -0.153,-1.569 -0.46,-2.363 -0.446,-1.102 -1.122,-1.936 -2.028,-2.5 -0.907,-0.565 -1.967,-0.847 -3.18,-0.847l-2.74 0 0 11.337 2.698 0c1.771,0 3.166,-0.496 4.183,-1.486 1.019,-0.99 1.527,-2.37 1.527,-4.141zm12.99 7.697l-8.346 0 0 -15.478 8.346 0 0 2.071 -6.087 0 0 4.559 6.087 0 0 2.071 -6.087 0 0 4.707 6.087 0 0 2.07zm14.892 0l-2.176 0 0 -13.491 -2.28 0 0 -1.987 4.456 0 0 15.478z"/>
  <path class="fil9" d="M593.374 275.454l-2.259 0 0 -13.073 -0.063 0 -5.208 13.073 -1.359 0 -5.229 -13.073 -0.042 0 0 13.073 -2.259 0 0 -15.478 3.556 0 4.643 11.859 4.664 -11.859 3.556 0 0 15.478zm18.448 -7.697c0,2.203 -0.788,4.085 -2.364,5.647 -1.575,1.562 -3.472,2.342 -5.689,2.342 -2.217,0 -4.113,-0.784 -5.689,-2.353 -1.576,-1.568 -2.364,-3.461 -2.364,-5.678 0,-2.231 0.785,-4.128 2.354,-5.689 1.568,-1.562 3.468,-2.343 5.699,-2.343 2.259,0 4.166,0.781 5.721,2.343 1.555,1.561 2.332,3.472 2.332,5.731zm-2.259 0.021c0,-1.674 -0.551,-3.096 -1.652,-4.267 -1.102,-1.172 -2.482,-1.757 -4.142,-1.757 -1.199,0 -2.255,0.306 -3.169,0.92 -0.913,0.614 -1.607,1.471 -2.081,2.573 -0.362,0.836 -0.544,1.659 -0.544,2.468 0,0.808 0.182,1.645 0.544,2.51 0.488,1.087 1.189,1.934 2.102,2.541 0.914,0.607 1.963,0.91 3.148,0.91 1.269,0 2.374,-0.338 3.315,-1.014 0.942,-0.677 1.635,-1.615 2.082,-2.814 0.264,-0.683 0.397,-1.373 0.397,-2.07zm17.339 -0.021c0,0.962 -0.17,1.959 -0.512,2.991 -0.342,1.031 -0.819,1.854 -1.433,2.468 -1.506,1.492 -3.521,2.238 -6.045,2.238l-4.936 0 0 -15.478 5.02 0c2.858,0 4.964,0.948 6.317,2.844 1.06,1.478 1.589,3.124 1.589,4.937zm-2.259 0c0,-0.781 -0.153,-1.569 -0.46,-2.364 -0.446,-1.102 -1.122,-1.935 -2.028,-2.5 -0.907,-0.564 -1.967,-0.847 -3.18,-0.847l-2.74 0 0 11.337 2.698 0c1.771,0 3.166,-0.495 4.183,-1.485 1.019,-0.99 1.527,-2.37 1.527,-4.141zm12.99 7.697l-8.346 0 0 -15.478 8.346 0 0 2.07 -6.087 0 0 4.56 6.087 0 0 2.071 -6.087 0 0 4.706 6.087 0 0 2.071zm17.882 0l-9.684 0 0 -1.82 6.087 -6.191c0.934,-0.934 1.401,-1.876 1.401,-2.824 0,-0.795 -0.243,-1.485 -0.732,-2.071 -0.488,-0.585 -1.122,-0.878 -1.903,-0.878 -0.865,0 -1.541,0.314 -2.029,0.941 -0.488,0.627 -0.732,1.388 -0.732,2.28l0 0.397 -2.175 0 0 -0.083c-0.014,-1.2 0.233,-2.256 0.742,-3.169 0.509,-0.913 1.287,-1.579 2.332,-1.998 0.586,-0.236 1.179,-0.355 1.778,-0.355 1.395,0 2.559,0.484 3.493,1.453 0.934,0.97 1.402,2.152 1.402,3.546 0,0.878 -0.178,1.638 -0.534,2.28 -0.355,0.641 -0.896,1.338 -1.621,2.091l-4.308 4.414 6.483 0 0 1.987z"/>
  <path class="fil9" d="M542.69 370.78c0,1.381 -0.446,2.507 -1.339,3.378 -0.892,0.872 -2.029,1.308 -3.409,1.308 -1.408,0 -2.555,-0.46 -3.441,-1.381 -0.885,-0.92 -1.328,-2.085 -1.328,-3.493l2.259 0c0,0.795 0.224,1.461 0.67,1.997 0.446,0.537 1.059,0.806 1.84,0.806 0.767,0 1.374,-0.244 1.82,-0.732 0.446,-0.488 0.669,-1.116 0.669,-1.883 0,-0.376 -0.059,-0.7 -0.178,-0.972 -0.118,-0.272 -0.293,-0.495 -0.523,-0.669 -0.23,-0.175 -0.474,-0.325 -0.731,-0.45 -0.259,-0.126 -0.548,-0.252 -0.869,-0.377 -0.083,-0.028 -0.146,-0.049 -0.188,-0.063 -0.544,-0.209 -0.938,-0.366 -1.182,-0.47 -0.244,-0.105 -0.575,-0.261 -0.993,-0.471 -0.418,-0.209 -0.725,-0.411 -0.921,-0.606 -0.195,-0.196 -0.404,-0.443 -0.627,-0.743 -0.223,-0.299 -0.38,-0.645 -0.471,-1.035 -0.09,-0.39 -0.135,-0.83 -0.135,-1.318 0,-1.186 0.422,-2.182 1.265,-2.991 0.843,-0.809 1.865,-1.213 3.064,-1.213 1.297,0 2.36,0.394 3.19,1.182 0.829,0.788 1.244,1.83 1.244,3.126l-2.258 0c0,-0.669 -0.196,-1.209 -0.586,-1.621 -0.391,-0.411 -0.92,-0.616 -1.59,-0.616 -0.558,0 -1.042,0.209 -1.453,0.627 -0.412,0.418 -0.618,0.913 -0.618,1.485 0,0.446 0.126,0.819 0.377,1.119 0.251,0.3 0.575,0.54 0.973,0.722 0.397,0.181 0.84,0.352 1.328,0.512 0.488,0.16 0.976,0.356 1.464,0.586 0.488,0.23 0.931,0.505 1.328,0.826 0.397,0.321 0.722,0.774 0.973,1.36 0.251,0.585 0.376,1.276 0.376,2.07zm10.249 4.393l-8.346 0 0 -15.478 8.346 0 0 2.07 -6.087 0 0 4.56 6.087 0 0 2.071 -6.087 0 0 4.706 6.087 0 0 2.071zm10.458 0l-7.634 0 0 -15.478 2.258 0 0 13.407 5.376 0 0 2.071zm9.705 0l-8.346 0 0 -15.478 8.346 0 0 2.07 -6.087 0 0 4.56 6.087 0 0 2.071 -6.087 0 0 4.706 6.087 0 0 2.071zm17.047 -11.525l-2.72 0c-1.241,-1.45 -2.691,-2.175 -4.35,-2.175 -1.617,0 -2.98,0.578 -4.089,1.736 -1.109,1.157 -1.663,2.551 -1.663,4.183 0,1.603 0.554,3.005 1.663,4.204 1.109,1.199 2.458,1.799 4.047,1.799 0.795,0 1.565,-0.185 2.311,-0.554 0.746,-0.37 1.384,-0.869 1.914,-1.496l2.782 0c-0.739,1.297 -1.726,2.308 -2.959,3.033 -1.235,0.725 -2.591,1.088 -4.069,1.088 -2.189,0 -4.061,-0.799 -5.616,-2.396 -1.555,-1.596 -2.332,-3.496 -2.332,-5.699 0,-2.217 0.777,-4.099 2.332,-5.647 1.555,-1.548 3.434,-2.322 5.637,-2.322 1.757,0 3.333,0.502 4.727,1.506 0.935,0.669 1.729,1.583 2.385,2.74zm8.826 -1.883l-2.97 0 0 13.408 -2.259 0 0 -13.408 -2.97 0 0 -2.07 8.199 0 0 2.07z"/>
  <path class="fil9" d="M659.707 364.652c0,2.273 -0.976,3.758 -2.928,4.455 -0.544,0.195 -1.046,0.293 -1.506,0.293l4.33 5.773 -2.824 0 -5.104 -7.175 -0.042 0 0 7.175 -2.259 0 0 -15.478 4.79 0c1.868,0 3.242,0.432 4.121,1.296 0.948,0.907 1.422,2.127 1.422,3.661zm-2.259 0c0,-0.934 -0.331,-1.649 -0.993,-2.144 -0.663,-0.495 -1.475,-0.743 -2.437,-0.743l-2.385 0 0 5.92 1.548 0c0.558,0 1.067,-0.046 1.527,-0.136 0.46,-0.091 0.906,-0.241 1.339,-0.45 0.432,-0.209 0.773,-0.523 1.025,-0.941 0.25,-0.419 0.376,-0.921 0.376,-1.506zm14.892 5.522c0,1.715 -0.523,3.039 -1.569,3.974 -0.975,0.878 -2.182,1.318 -3.618,1.318 -1.436,0 -2.642,-0.44 -3.619,-1.318 -1.045,-0.935 -1.568,-2.259 -1.568,-3.974l0 -10.479 2.259 0 0 10.416c0,0.962 0.254,1.75 0.763,2.363 0.509,0.614 1.231,0.921 2.165,0.921 0.934,0 1.656,-0.307 2.165,-0.921 0.509,-0.613 0.763,-1.401 0.763,-2.363l0 -10.416 2.259 0 0 10.479zm15.415 4.999l-2.342 0 -7.656 -11.964 -0.041 0 0 11.964 -2.259 0 0 -15.478 2.468 0 7.53 11.776 0.042 0 0 -11.776 2.258 0 0 15.478z"/>
  <path class="fil10" d="M577.33 137.962l6.211 0c1.422,0 3.105,1.335 3.859,2.06l10.912 12.102 0 -14.162 3.715 0 0 19.328 -6.501 0c-1.161,-0.029 -2.293,-0.261 -3.628,-1.567l-10.882 -12.131 0 13.698 -3.686 0 0 -19.328zm77.34 19.473c-4.454,0.59 -8.96,0.688 -13.436,0.29 -2.641,-0.232 -5.224,-0.783 -7.604,-2.031 -2.989,-1.538 -3.917,-5.021 -3.888,-8.184 0.028,-3.163 0.899,-6.007 3.482,-7.72 1.712,-1.102 3.541,-1.48 5.485,-1.828 5.253,-0.929 10.535,-0.725 15.7,-0.145l0 2.728c-6.094,-1.161 -12.479,-0.871 -14.684,1.915 -1.335,1.741 -1.538,3.483 -1.538,4.934 0,2.612 0.899,6.588 6.21,7.371 3.483,0.493 6.907,0.087 10.273,-0.493l0 3.163zm-38.046 -3.018c0.551,0.029 8.909,0.058 11.783,0l0 2.902c-5.775,0.232 -11.348,0.319 -17.181,0.058 -4.962,-0.203 -5.833,-2.699 -5.92,-5.079l0 -14.336 22.84 0 0 2.757 -14.772 0 0 4.905 13.437 0 0 2.698 -13.437 0c0,1.452 0.029,3.106 0.058,3.396 0.058,1.886 0.928,2.583 3.192,2.699z"/>
  <path class="fil9" d="M532.598 224.611l-2.406 0 -1.715 -4.56 -5.564 0 -1.715 4.56 -2.384 0 5.877 -15.478 2.029 0 5.878 15.478zm-4.895 -6.63l-1.966 -5.92 -0.042 0 -1.987 5.92 3.995 0zm184.93 2.133c0,0.655 -0.126,1.276 -0.377,1.861 -0.767,1.758 -2.356,2.636 -4.768,2.636l-4.623 0 0 -15.478 4.016 0c2.329,0 3.834,0.864 4.518,2.594 0.209,0.543 0.313,1.108 0.313,1.694 0,1.157 -0.46,2.133 -1.38,2.928 1.534,0.879 2.301,2.133 2.301,3.765zm-3.18 -6.714c0,-1.464 -0.871,-2.196 -2.614,-2.196l-1.715 0 0 4.371 1.841 0c1.659,0 2.488,-0.725 2.488,-2.175zm0.921 6.714c0,-0.572 -0.181,-1.081 -0.544,-1.527 -0.293,-0.39 -0.638,-0.645 -1.035,-0.763 -0.398,-0.119 -0.897,-0.178 -1.496,-0.178l-2.175 0 0 4.894 2.447 0c0.781,0 1.443,-0.216 1.987,-0.648 0.544,-0.432 0.816,-1.025 0.816,-1.778z"/>
  <path class="fil9" d="M532.39 310.894l-2.405 0 -1.716 -4.56 -5.563 0 -1.715 4.56 -2.385 0 5.878 -15.478 2.028 0 5.878 15.478zm-4.894 -6.631l-1.967 -5.919 -0.042 0 -1.986 5.919 3.995 0zm184.929 2.134c0,0.655 -0.125,1.276 -0.376,1.861 -0.767,1.757 -2.357,2.636 -4.769,2.636l-4.623 0 0 -15.478 4.016 0c2.329,0 3.835,0.864 4.518,2.593 0.209,0.544 0.314,1.109 0.314,1.695 0,1.157 -0.46,2.133 -1.381,2.928 1.534,0.878 2.301,2.133 2.301,3.765zm-3.179 -6.714c0,-1.465 -0.872,-2.196 -2.615,-2.196l-1.715 0 0 4.371 1.841 0c1.659,0 2.489,-0.725 2.489,-2.175zm0.92 6.714c0,-0.572 -0.181,-1.081 -0.544,-1.527 -0.292,-0.39 -0.637,-0.645 -1.035,-0.763 -0.397,-0.119 -0.896,-0.178 -1.495,-0.178l-2.176 0 0 4.894 2.448 0c0.781,0 1.443,-0.216 1.987,-0.648 0.543,-0.433 0.815,-1.026 0.815,-1.778z"/>
  <circle class="fil11" cx="233.448" cy="291.67" r="123.646"/>
  <circle class="fil12" cx="233.449" cy="291.669" r="118.102"/>
  <path class="fil13" d="M233.449 173.567c13.025,0 25.557,2.113 37.273,6.01 5.931,1.972 9.469,7.881 8.407,14.04l-7.89 45.763c-0.715,4.146 0.518,8.031 3.493,11.006 2.975,2.975 6.86,4.208 11.006,3.493l45.762 -7.89c6.16,-1.062 12.068,2.476 14.04,8.407 3.897,11.717 6.011,24.247 6.011,37.273 0,13.026 -2.114,25.558 -6.011,37.275 -1.972,5.931 -7.88,9.468 -14.04,8.406l-45.762 -7.89c-4.146,-0.715 -8.031,0.519 -11.006,3.493 -2.976,2.975 -4.208,6.86 -3.494,11.006l7.89 45.763c1.062,6.159 -2.475,12.067 -8.406,14.04 -11.716,3.896 -24.248,6.01 -37.273,6.01 -13.026,0 -25.558,-2.114 -37.274,-6.011 -5.932,-1.972 -9.469,-7.88 -8.407,-14.04l7.89 -45.762c0.715,-4.146 -0.518,-8.031 -3.494,-11.006 -2.974,-2.975 -6.859,-4.208 -11.006,-3.493l-45.761 7.89c-6.159,1.062 -12.068,-2.475 -14.04,-8.407 -3.897,-11.717 -6.011,-24.248 -6.011,-37.274 0,-13.026 2.114,-25.556 6.01,-37.273 1.973,-5.931 7.882,-9.469 14.041,-8.407l45.761 7.891c4.147,0.714 8.032,-0.519 11.006,-3.494 2.975,-2.975 4.209,-6.86 3.493,-11.006l-7.889 -45.763c-1.062,-6.159 2.475,-12.067 8.406,-14.04 11.717,-3.897 24.249,-6.01 37.275,-6.01z"/>
  <path class="fil14" d="M233.449 187.006c10.768,0 21.156,1.628 30.932,4.648 3.031,0.936 4.87,3.935 4.331,7.061l-6.739 39.084c-1.233,7.156 0.969,14.105 6.104,19.242 5.136,5.136 12.085,7.337 19.242,6.103l39.083 -6.738c3.127,-0.539 6.125,1.3 7.062,4.331 3.02,9.776 4.648,20.164 4.648,30.932 0,10.769 -1.628,21.157 -4.648,30.933 -0.937,3.031 -3.936,4.87 -7.062,4.331l-39.083 -6.738c-7.156,-1.233 -14.106,0.968 -19.242,6.103 -5.136,5.136 -7.338,12.087 -6.104,19.242l6.739 39.083c0.538,3.126 -1.301,6.125 -4.332,7.061 -9.775,3.02 -20.163,4.648 -30.931,4.648 -10.769,0 -21.157,-1.627 -30.933,-4.648 -3.031,-0.936 -4.87,-3.935 -4.331,-7.061l6.738 -39.083c1.234,-7.156 -0.968,-14.106 -6.104,-19.242 -5.136,-5.135 -12.086,-7.337 -19.242,-6.103l-39.082 6.738c-3.126,0.539 -6.125,-1.3 -7.061,-4.331 -3.021,-9.776 -4.648,-20.164 -4.648,-30.933 0,-10.768 1.627,-21.156 4.647,-30.932 0.937,-3.031 3.935,-4.87 7.062,-4.331l39.082 6.739c7.156,1.233 14.106,-0.969 19.242,-6.104 5.136,-5.136 7.338,-12.086 6.104,-19.242l-6.739 -39.083c-0.538,-3.127 1.301,-6.125 4.331,-7.062 9.777,-3.02 20.165,-4.648 30.934,-4.648z"/>
  <path class="fil13" d="M233.449 211.73c2.539,0 4.597,-2.058 4.597,-4.597 0,-2.54 -2.058,-4.598 -4.597,-4.598 -2.539,0 -4.598,2.058 -4.598,4.598 0,2.539 2.059,4.597 4.598,4.597zm0 159.878c2.539,0 4.597,2.059 4.597,4.598 0,2.539 -2.058,4.597 -4.597,4.597 -2.539,0 -4.598,-2.058 -4.598,-4.597 0,-2.539 2.059,-4.598 4.598,-4.598zm-79.939 -79.939c0,-2.539 -2.059,-4.598 -4.598,-4.598 -2.539,0 -4.598,2.059 -4.598,4.598 0,2.539 2.059,4.598 4.598,4.598 2.539,0 4.598,-2.059 4.598,-4.598zm159.878 0c0,-2.539 2.058,-4.598 4.597,-4.598 2.539,0 4.598,2.059 4.598,4.598 0,2.539 -2.059,4.598 -4.598,4.598 -2.539,0 -4.597,-2.059 -4.597,-4.598z"/>
  <circle class="fil15" cx="866.362" cy="262.088" r="42"/>
  <circle class="fil16" cx="1073.655" cy="182.499" r="42"/>
  <circle class="fil17" cx="967.636" cy="216.114" r="42"/>
  <circle class="fil18" cx="908.58" cy="371.08" r="42"/>
  <circle class="fil19" cx="1115.874" cy="291.491" r="42"/>
  <circle class="fil20" cx="1009.854" cy="325.105" r="42"/>
  <polygon class="fil9" points="1108.03,271.098 1123.717,271.098 1123.717,275.804 1119.011,275.804 1119.011,307.178 1123.717,307.178 1123.717,311.884 1108.03,311.884 1108.03,307.178 1112.736,307.178 1112.736,275.804 1108.03,275.804 "/>
  <path class="fil9" d="M1023.188 304.712l0 4.706 -4.706 0 0 31.374 4.706 0 0 4.706c-8.889,0 -17.778,0 -26.668,0l0 -4.706 4.706 0 0 -31.374 -4.706 0 0 -4.706c8.89,0 17.779,0 26.668,0zm-15.687 36.08l4.706 0 0 -31.374 -4.706 0 0 31.374z"/>
  <path class="fil9" d="M916.424 355.393l-4.706 0 0 31.373 4.706 0 0 -31.373zm-26.668 36.08l0 -4.707 4.706 0 0 -31.373 -4.706 0 0 -4.706c12.55,0 25.099,0 37.649,0l0 4.706 -4.706 0 0 31.373 4.706 0 0 4.707c-12.55,0 -25.099,0 -37.649,0zm10.981 -4.707l4.706 0 0 -31.373 -4.706 0 0 31.373z"/>
  <path class="fil9" d="M1080.975 166.415l-9.783 36.876 -6.054 0 -9.784 -36.876 -5.229 0 0 -4.707 15.686 0 0 4.707 -3.98 0 6.334 23.873 6.333 -23.873 -3.981 0 0 -4.707c8.89,0 17.779,0 26.669,0l0 4.707 -4.706 0 0 31.373 4.706 0 0 4.707 -15.687 0 0 -4.707 4.705 0 0 -31.373 -5.229 0z"/>
  <polygon class="fil9" points="980.446,200.029 970.663,236.905 964.609,236.905 954.825,200.029 949.596,200.029 949.596,195.322 965.283,195.322 965.283,200.029 961.302,200.029 967.636,223.902 973.969,200.029 969.989,200.029 969.989,195.322 985.676,195.322 985.676,200.029 "/>
  <path class="fil9" d="M859.042 246.003l9.784 36.877 6.054 0 9.783 -36.877 5.23 0 0 -4.706 -15.687 0 0 4.706 3.981 0 -6.334 23.873 -6.334 -23.873 3.981 0 0 -4.706c-8.89,0 -17.779,0 -26.669,0l0 4.706 4.706 0 0 31.374 -4.706 0 0 4.706 15.687 0 0 -4.706 -4.705 0 0 -31.374 5.229 0z"/>
  <path class="fil21" d="M541.255 391.728c-6.225,0 -11.27,5.045 -11.27,11.269 0,6.224 5.045,11.27 11.27,11.27 19.195,0 30.672,0 49.876,0 6.224,0 11.269,-5.046 11.269,-11.27 0,-6.224 -5.045,-11.269 -11.269,-11.269 -19.207,0 -30.629,0 -49.876,0z"/>
  <path class="fil22" d="M640.869 391.728c-6.224,0 -11.27,5.045 -11.27,11.269 0,6.224 5.046,11.27 11.27,11.27 19.196,0 30.672,0 49.876,0 6.224,0 11.27,-5.046 11.27,-11.27 0,-6.224 -5.046,-11.269 -11.27,-11.269 -19.207,0 -30.628,0 -49.876,0z"/>
 </g>
</svg>
