<?xml version="1.0" encoding="UTF-8"?>
<!DOCTYPE svg PUBLIC "-//W3C//DTD SVG 1.1//EN" "http://www.w3.org/Graphics/SVG/1.1/DTD/svg11.dtd">
<svg xml:space="preserve" viewBox="0 0 560 596" width="560px" height="596px" version="1.1" style="shape-rendering:geometricPrecision; fill-rule:evenodd; clip-rule:evenodd" xmlns="http://www.w3.org/2000/svg" xmlns:xlink="http://www.w3.org/1999/xlink">
 <defs>
  <style type="text/css">
    .fil0 {fill:url(#id1);fill-opacity:0.7}
    .fil1 {fill:url(#id0)}
    .fil2 {fill:black;fill-opacity:0.3}
  </style>
  <linearGradient id="id0" gradientUnits="userSpaceOnUse" x1="464.373" y1="188.012" x2="464.373" y2="223.539">
   <stop offset="0" style="stop-opacity:1; stop-color:#82C4AE"/>
   <stop offset="0.4" style="stop-opacity:1; stop-color:#75BDA5"/>
   <stop offset="1" style="stop-opacity:1; stop-color:#4B9B80"/>
  </linearGradient>
  <linearGradient id="id1" gradientUnits="userSpaceOnUse" xlink:href="#id0" x1="464.373" y1="186.5" x2="464.373" y2="225.051">
  </linearGradient>
 </defs>
 <g>
  <path class="fil0" d="M464.373 186.5c10.645,0 19.275,8.63 19.275,19.275 0,10.646 -8.63,19.276 -19.275,19.276 -10.646,0 -19.276,-8.63 -19.276,-19.276 0,-10.645 8.63,-19.275 19.276,-19.275z"/>
  <circle class="fil1" cx="464.373" cy="205.775" r="17.764"/>
  <path class="fil2" d="M465.773 206.242l5.787 -7.662c0.736,-0.974 0.265,-2.155 -0.88,-2.298 -0.561,-0.07 -1.04,0.133 -1.44,0.698l-4.827 6.351 -4.827 -6.329c-0.96,-1.04 -2.138,-0.908 -2.586,0.133 -0.218,0.505 -0.11,0.97 0.266,1.467l5.68 7.503 0 7.751c0,0.772 0.64,1.413 1.414,1.413 0.773,0 1.413,-0.64 1.413,-1.413l0 -7.614z"/>
 </g>
</svg>
