<?xml version="1.0" encoding="UTF-8"?>
<!DOCTYPE svg PUBLIC "-//W3C//DTD SVG 1.1//EN" "http://www.w3.org/Graphics/SVG/1.1/DTD/svg11.dtd">
<svg xml:space="preserve" viewBox="0 0 560 596" width="560px" height="596px" version="1.1" style="shape-rendering:geometricPrecision; fill-rule:evenodd; clip-rule:evenodd" xmlns="http://www.w3.org/2000/svg" xmlns:xlink="http://www.w3.org/1999/xlink">
 <defs>
  <style type="text/css">
    .fil0 {fill:url(#id1);fill-opacity:0.7}
    .fil1 {fill:url(#id0)}
    .fil2 {fill:black;fill-opacity:0.3}
  </style>
  <linearGradient id="id0" gradientUnits="userSpaceOnUse" x1="511.781" y1="235.421" x2="511.781" y2="270.948">
   <stop offset="0" style="stop-opacity:1; stop-color:#339CFF"/>
   <stop offset="0.4" style="stop-opacity:1; stop-color:#1990FF"/>
   <stop offset="1" style="stop-opacity:1; stop-color:#1475CF"/>
  </linearGradient>
  <linearGradient id="id1" gradientUnits="userSpaceOnUse" xlink:href="#id0" x1="511.781" y1="233.909" x2="511.781" y2="272.46">
  </linearGradient>
 </defs>
 <g>
  <path class="fil0" d="M511.781 233.909c10.646,0 19.276,8.63 19.276,19.276 0,10.645 -8.63,19.275 -19.276,19.275 -10.645,0 -19.275,-8.63 -19.275,-19.275 0,-10.646 8.63,-19.276 19.275,-19.276z"/>
  <circle class="fil1" cx="511.781" cy="253.185" r="17.764"/>
  <path class="fil2" d="M516.215 252.465c1.359,-0.853 2.026,-2.134 2.026,-3.84 0,-2.907 -2.16,-4.774 -5.573,-4.774l-5.333 0c-0.774,0 -1.414,0.64 -1.414,1.414l0 6.64 0 9.2c0,0.773 0.64,1.413 1.414,1.413l5.973 0c3.76,0 6.08,-2.026 6.08,-5.307 0,-2.266 -1.12,-3.973 -3.173,-4.746l0 0zm-3.521 -5.92c1.734,0 2.72,0.906 2.747,2.4 -0.027,1.573 -0.96,2.373 -2.747,2.4l-3.973 0 0 -4.8 3.973 0zm-3.973 13.28l0 -5.867 4.614 0c2.053,0 3.253,1.04 3.253,2.934 0,1.893 -1.2,2.933 -3.253,2.933l-4.614 0z"/>
 </g>
</svg>
