<?xml version="1.0" encoding="UTF-8"?>
<!DOCTYPE svg PUBLIC "-//W3C//DTD SVG 1.1//EN" "http://www.w3.org/Graphics/SVG/1.1/DTD/svg11.dtd">
<svg xml:space="preserve" viewBox="0 0 560 596" width="560px" height="596px" version="1.1" style="shape-rendering:geometricPrecision; fill-rule:evenodd; clip-rule:evenodd" xmlns="http://www.w3.org/2000/svg">
 <defs>
  <style type="text/css">
    .fil0 {fill:red}
    .fil1 {fill:white}
  </style>
 </defs>
 <g>
  <path class="fil0" d="M344.25 14.691c0.631,0.232 1.261,0.468 1.889,0.706l0 -1.998c6.482,2.464 12.789,5.279 18.9,8.424l0 18.913c3.006,1.367 5.974,2.803 8.9,4.309l0 8.061c0.631,0.334 1.261,0.67 1.889,1.009l0 -8.076c27.835,14.695 51.893,35.587 70.332,60.845l0.02 0.004c26.759,5.296 52.605,11.056 78.897,18.354 3.509,0.945 6.616,3.696 8.019,7.043 10.979,25.96 17.632,53.315 21.033,81.266 3.407,27.914 4.309,56.194 3.29,84.292 -0.794,21.847 -2.341,43.449 -4.488,65.202 -4.432,44.866 -11.156,90.405 -23.54,133.827 -5.083,17.833 -11.885,36.411 -20.311,52.966 -6.005,11.809 -13.459,24.52 -21.436,35.139 -3.742,4.984 -6.645,8.6 -13.032,8.649 -6.335,0.048 -10.836,-2.864 -12.494,-7.709 -6.105,-17.842 -12.177,-35.698 -18.4,-53.499 -2.229,-6.377 -4.636,-12.691 -6.959,-19.034 -2.254,-6.148 -7.099,-8.907 -13.349,-10.411 -20.762,-4.967 -41.196,-9.025 -62.358,-11.922 -26.869,-3.677 -53.933,-5.518 -81.052,-5.518 -27.119,0 -54.183,1.841 -81.052,5.518 -21.162,2.897 -41.596,6.955 -62.358,11.922 -6.25,1.504 -11.095,4.263 -13.349,10.411 -2.323,6.343 -4.73,12.657 -6.959,19.034 -6.223,17.801 -12.295,35.657 -18.4,53.499 -1.658,4.845 -6.159,7.757 -12.494,7.709 -6.387,-0.049 -9.29,-3.665 -13.032,-8.649 -7.977,-10.619 -15.431,-23.33 -21.436,-35.139 -8.426,-16.555 -15.228,-35.133 -20.311,-52.966 -12.384,-43.422 -19.108,-88.961 -23.54,-133.827 -2.147,-21.753 -3.694,-43.355 -4.488,-65.202 -1.019,-28.098 -0.117,-56.378 3.29,-84.292 3.401,-27.951 10.054,-55.306 21.033,-81.266 1.403,-3.347 4.51,-6.098 8.019,-7.043 26.292,-7.298 52.138,-13.058 78.897,-18.354l0.02 -0.004c18.439,-25.258 42.497,-46.15 70.332,-60.846l0 8.077c0.628,-0.339 1.258,-0.676 1.89,-1.009l0 -8.061c2.926,-1.506 5.893,-2.942 8.899,-4.31l0 -18.912c6.111,-3.145 12.419,-5.96 18.9,-8.425l0 1.999c0.628,-0.239 1.258,-0.474 1.889,-0.706l0 -2c20.026,-7.367 41.668,-11.391 64.25,-11.391 22.582,0 44.224,4.024 64.25,11.391l0 2zm-260.451 93.865l0 -74.058c0,-5.248 -4.263,-9.511 -9.511,-9.511l-9.325 0c-5.248,0 -9.51,4.263 -9.51,9.511l0 74.058 28.346 0zm392.366 0l0 -74.058c0,-5.248 4.263,-9.511 9.512,-9.511l9.324 0c5.248,0 9.511,4.263 9.511,9.511l0 74.058 -28.347 0z"/>
  <path class="fil1" d="M280 193.085c44.185,0 80.001,35.817 80.001,80.001 0,44.185 -35.816,80.002 -80.001,80.002 -44.185,0 -80.001,-35.817 -80.001,-80.002 0,-44.184 35.816,-80.001 80.001,-80.001zm9.98 84.027c1.459,1.46 1.459,3.843 0,5.302l-7.47 7.471 3.152 3.15c1.113,1.117 1.113,2.925 0,4.042l-7.408 7.404c-6.539,6.539 -16.32,7.852 -24.165,3.944l-16.278 16.28c11.492,9.406 26.179,15.05 42.189,15.05 36.82,0 66.669,-29.848 66.669,-66.669 0,-16.01 -5.645,-30.697 -15.05,-42.189l-16.267 16.268c3.91,7.84 2.596,17.627 -3.942,24.166l-7.408 7.408c-1.113,1.115 -2.922,1.115 -4.039,0l-25.589 -25.593c-1.119,-1.113 -1.119,-2.924 0,-4.039l7.404 -7.408c6.531,-6.529 16.298,-7.85 24.134,-3.957l16.277 -16.276c-11.492,-9.406 -26.181,-15.049 -42.189,-15.049 -36.82,0 -66.669,29.849 -66.669,66.669 0,16.009 5.643,30.698 15.048,42.189l16.288 -16.286c-3.893,-7.838 -2.574,-17.608 3.955,-24.136l7.408 -7.407c1.117,-1.117 2.926,-1.117 4.039,0l3.135 3.133 7.47 -7.47c1.459,-1.459 3.846,-1.459 5.305,0 1.458,1.46 1.458,3.843 0,5.302l-7.471 7.47 8.697 8.701 7.47 -7.47c1.459,-1.459 3.846,-1.459 5.305,0z"/>
 </g>
</svg>
