<?xml version="1.0" encoding="UTF-8"?>
<!DOCTYPE svg PUBLIC "-//W3C//DTD SVG 1.1//EN" "http://www.w3.org/Graphics/SVG/1.1/DTD/svg11.dtd">
<svg xml:space="preserve" viewBox="0 0 560 596" width="560px" height="596px" version="1.1" style="shape-rendering:geometricPrecision; fill-rule:evenodd; clip-rule:evenodd" xmlns="http://www.w3.org/2000/svg">
 <defs>
  <style type="text/css">
    .fil0 {fill:#B3B3B3}
    .fil1 {fill:gray}
    .fil2 {fill:#333333}
  </style>
 </defs>
 <g>
  <rect class="fil0" x="224.161" y="135.103" width="111.677" height="101.798" rx="4.567" ry="4.567"/>
  <path class="fil1" d="M233 158.617l12 0 0 2 2 0 0 5.999 -2 0 0 2.001 -8 0 0 3.999 -4 0 0 -13.999zm10 2l-6 0 0 5.999 6 0 0 -5.999zm8 -2l4 0 0 12 8 0 0 1.999 -12 0 0 -13.999zm18 0l6 0 0 2 2 0 0 2 2 0 0 9.999 -4 0 0 -3.999 -6 0 0 3.999 -4 0 0 -9.999 2 0 0 -2 2 0 0 -2zm4 2l-2 0 0 2 -2 0 0 3.999 6 0 0 -3.999 -2 0 0 -2zm10 -2l4 0 0 6 4 0 0 -6 4 0 0 6 -2 0 0 1.999 -2 0 0 6 -4 0 0 -6 -2 0 0 -1.999 -2 0 0 -6zm14 0l14 0 0 2 -5 0 -5 0 0 4 8 0 0 1.999 -8 0 0 4.001 5 0 5 0 0 1.999 -14 0 0 -13.999zm16 0l12 0 0 2 2 0 0 5.999 -4 0 0 2.001 2 0 0 2 2 0 0 1.999 -6 0 0 -1.999 -2 0 0 -2 -2 0 0 3.999 -4 0 0 -13.999zm10 2l-6 0 0 5.999 4 0 0 -1.999 2 0 0 -4zm-54 29.999l24 0 0 4 -4 0 0 4.001 -4 0 0 3.999 4 0 0 4 4 0 0 8 -4 0 0 4.001 -20 0 0 -4.001 -4 0 0 -3.999 8 0 0 3.999 12 0 0 -8 -12 0 0 -4 4 0 0 -3.999 4 0 0 -4.001 -12 0 0 -4z"/>
  <path class="fil2" d="M269 189.616l24 0 0 4 -4 0 0 4 -4 0 0 4 4 0 0 4 4 0 0 8 -4 0 0 4.001 -20 0 0 -4.001 -4 0 0 -4 8 0 0 4 12 0 0 -8 -12 0 0 -4 4 0 0 -4 4 0 0 -4 -12 0 0 -4zm-36 -31.999l12 0 0 2 2 0 0 5.999 -2 0 0 2 -8 0 0 4 -4 0 0 -13.999zm10 2l-6 0 0 5.999 6 0 0 -5.999zm8 -2l4 0 0 12 8 0 0 1.999 -12 0 0 -13.999zm18 0l6 0 0 2 2 0 0 1.999 2 0 0 10 -4 0 0 -4 -6 0 0 4 -4 0 0 -10 2 0 0 -1.999 2 0 0 -2zm4 2l-2 0 0 1.999 -2 0 0 4 6 0 0 -4 -2 0 0 -1.999zm10 -2l4 0 0 6 4 0 0 -6 4 0 0 6 -2 0 0 1.999 -2 0 0 6 -4 0 0 -6 -2 0 0 -1.999 -2 0 0 -6zm14 0l14 0 0 2 -5 0 -5 0 0 4 8 0 0 1.999 -8 0 0 4.001 5 0 5 0 0 1.999 -14 0 0 -13.999zm16 0l12 0 0 2 2 0 0 5.999 -4 0 0 2 2 0 0 2.001 2 0 0 1.999 -6 0 0 -1.999 -2 0 0 -2.001 -2 0 0 4 -4 0 0 -13.999zm10 2l-6 0 0 5.999 4 0 0 -1.999 2 0 0 -4z"/>
 </g>
</svg>
