<?xml version="1.0" encoding="UTF-8"?>
<!DOCTYPE svg PUBLIC "-//W3C//DTD SVG 1.1//EN" "http://www.w3.org/Graphics/SVG/1.1/DTD/svg11.dtd">
<svg xml:space="preserve" viewBox="0 0 560 596" width="560px" height="596px" version="1.1" style="shape-rendering:geometricPrecision; fill-rule:evenodd; clip-rule:evenodd" xmlns="http://www.w3.org/2000/svg" xmlns:xlink="http://www.w3.org/1999/xlink">
 <defs>
  <style type="text/css">
    .fil0 {fill:url(#id1);fill-opacity:0.7}
    .fil1 {fill:url(#id0)}
    .fil2 {fill:black;fill-opacity:0.3}
  </style>
  <linearGradient id="id0" gradientUnits="userSpaceOnUse" x1="464.401" y1="223.532" x2="464.401" y2="188.004">
   <stop offset="0" style="stop-opacity:1; stop-color:#C00000"/>
   <stop offset="0.6" style="stop-opacity:1; stop-color:red"/>
   <stop offset="1" style="stop-opacity:1; stop-color:red"/>
  </linearGradient>
  <linearGradient id="id1" gradientUnits="userSpaceOnUse" xlink:href="#id0" x1="464.4" y1="225.044" x2="464.4" y2="186.493">
  </linearGradient>
 </defs>
 <g>
  <path class="fil0" d="M464.401 186.493c10.645,0 19.275,8.63 19.275,19.276 0,10.645 -8.63,19.275 -19.275,19.275 -10.646,0 -19.276,-8.63 -19.276,-19.275 0,-10.646 8.63,-19.276 19.276,-19.276z"/>
  <path class="fil1" d="M464.401 188.004c9.81,0 17.763,7.954 17.763,17.765 0,9.81 -7.953,17.763 -17.763,17.763 -9.811,0 -17.765,-7.953 -17.765,-17.763 0,-9.811 7.954,-17.765 17.765,-17.765z"/>
  <path class="fil2" d="M465.773 206.242l5.787 -7.662c0.736,-0.974 0.265,-2.155 -0.88,-2.298 -0.561,-0.07 -1.04,0.133 -1.44,0.698l-4.827 6.351 -4.827 -6.329c-0.96,-1.04 -2.138,-0.908 -2.586,0.133 -0.218,0.505 -0.11,0.97 0.266,1.467l5.68 7.503 0 7.751c0,0.772 0.64,1.413 1.414,1.413 0.773,0 1.413,-0.64 1.413,-1.413l0 -7.614z"/>
 </g>
</svg>
