<?xml version="1.0" encoding="UTF-8"?>
<!DOCTYPE svg PUBLIC "-//W3C//DTD SVG 1.1//EN" "http://www.w3.org/Graphics/SVG/1.1/DTD/svg11.dtd">
<svg xml:space="preserve" viewBox="0 0 560 596" width="560px" height="596px" version="1.1" style="shape-rendering:geometricPrecision; fill-rule:evenodd; clip-rule:evenodd" xmlns="http://www.w3.org/2000/svg" xmlns:xlink="http://www.w3.org/1999/xlink">
 <defs>
  <style type="text/css">
    .fil0 {fill:url(#id1);fill-opacity:0.7}
    .fil1 {fill:url(#id0)}
    .fil2 {fill:black;fill-opacity:0.3}
  </style>
  <linearGradient id="id0" gradientUnits="userSpaceOnUse" x1="417.024" y1="270.935" x2="417.024" y2="235.407">
   <stop offset="0" style="stop-opacity:1; stop-color:#C00000"/>
   <stop offset="0.6" style="stop-opacity:1; stop-color:red"/>
   <stop offset="1" style="stop-opacity:1; stop-color:red"/>
  </linearGradient>
  <linearGradient id="id1" gradientUnits="userSpaceOnUse" xlink:href="#id0" x1="417.024" y1="272.446" x2="417.024" y2="233.895">
  </linearGradient>
 </defs>
 <g>
  <path class="fil0" d="M417.024 233.895c10.646,0 19.276,8.631 19.276,19.276 0,10.645 -8.63,19.275 -19.276,19.275 -10.645,0 -19.275,-8.63 -19.275,-19.275 0,-10.645 8.63,-19.276 19.275,-19.276z"/>
  <path class="fil1" d="M417.024 235.407c9.811,0 17.764,7.953 17.764,17.764 0,9.811 -7.953,17.764 -17.764,17.764 -9.81,0 -17.764,-7.953 -17.764,-17.764 0,-9.811 7.954,-17.764 17.764,-17.764z"/>
  <path class="fil2" d="M417.003 255.452l4.934 6.506c0.96,0.987 2.107,0.88 2.56,-0.107 0.24,-0.506 0.16,-1.013 -0.24,-1.493l-5.654 -7.253 5.547 -7.116c0.64,-1.04 0.267,-2.164 -0.88,-2.298 -0.56,-0.08 -1.04,0.134 -1.44,0.698l-4.827 6.351 -4.826 -6.329c-0.96,-1.04 -2.134,-0.906 -2.587,0.134 -0.213,0.506 -0.133,0.986 0.267,1.466l5.547 7.094 -5.681 7.253c-0.64,1.04 -0.24,2.16 0.854,2.294 0.56,0.079 1.066,-0.161 1.493,-0.694l4.933 -6.506z"/>
 </g>
</svg>
