<?xml version="1.0" encoding="UTF-8"?>
<!DOCTYPE svg PUBLIC "-//W3C//DTD SVG 1.1//EN" "http://www.w3.org/Graphics/SVG/1.1/DTD/svg11.dtd">
<svg xml:space="preserve" viewBox="0 0 560 596" width="560px" height="596px" version="1.1" style="shape-rendering:geometricPrecision; fill-rule:evenodd; clip-rule:evenodd" xmlns="http://www.w3.org/2000/svg">
 <defs>
  <style type="text/css">
    .fil0 {fill:url(#id0)}
    .fil1 {fill:url(#id1)}
  </style>
  <linearGradient id="id0" gradientUnits="userSpaceOnUse" x1="280" y1="451.045" x2="280" y2="409.135">
   <stop offset="0" style="stop-opacity:1; stop-color:#1A1A1A"/>
   <stop offset="0.07" style="stop-opacity:1; stop-color:#333333"/>
   <stop offset="0.35" style="stop-opacity:1; stop-color:#333333"/>
   <stop offset="0.45" style="stop-opacity:1; stop-color:#3D3D3D"/>
   <stop offset="0.93" style="stop-opacity:1; stop-color:#3D3D3D"/>
   <stop offset="1" style="stop-opacity:1; stop-color:#4D4D4D"/>
  </linearGradient>
  <linearGradient id="id1" gradientUnits="userSpaceOnUse" x1="280" y1="441.246" x2="280" y2="428.977">
   <stop offset="0" style="stop-opacity:1; stop-color:#2B2B2B"/>
   <stop offset="1" style="stop-opacity:1; stop-color:#373737"/>
  </linearGradient>
 </defs>
 <g>
  <path class="fil0" d="M280 454.305c-7.539,0 -14.785,-0.389 -22.232,-1.591 -2.263,-0.366 -3.511,-2.674 -2.742,-4.804 1.804,-4.646 4.023,-9.367 6.245,-13.83 4.409,-8.873 9.773,-17.363 16.035,-25.043 0.642,-0.788 1.675,-1.299 2.694,-1.299 1.019,0 2.052,0.511 2.694,1.299 6.263,7.68 11.626,16.17 16.035,25.043 2.222,4.463 4.441,9.184 6.245,13.83 0.769,2.13 -0.48,4.438 -2.742,4.804 -7.447,1.202 -14.693,1.591 -22.232,1.591z"/>
  <path class="fil1" d="M296.193 435.342c-4.322,-8.698 -9.55,-16.992 -15.692,-24.523 -0.108,-0.133 -0.327,-0.246 -0.501,-0.246 -0.173,0 -0.393,0.113 -0.501,0.246 -6.151,7.543 -11.353,15.817 -15.692,24.523 -2.216,4.45 -4.375,8.93 -6.142,13.579 -0.088,0.231 -0.066,0.447 0.063,0.673 0.102,0.181 0.279,0.297 0.483,0.329 7.226,1.166 14.477,1.547 21.789,1.547 7.311,0 14.563,-0.381 21.789,-1.547 0.209,-0.032 0.375,-0.138 0.483,-0.329 0.129,-0.226 0.151,-0.443 0.063,-0.674 -1.766,-4.649 -3.926,-9.128 -6.142,-13.578z"/>
 </g>
</svg>
