<?xml version="1.0" encoding="UTF-8"?>
<!DOCTYPE svg PUBLIC "-//W3C//DTD SVG 1.1//EN" "http://www.w3.org/Graphics/SVG/1.1/DTD/svg11.dtd">
<svg xml:space="preserve" viewBox="0 0 71 71" width="71px" height="71px" version="1.1" style="shape-rendering:geometricPrecision; fill-rule:evenodd; clip-rule:evenodd" xmlns="http://www.w3.org/2000/svg" xmlns:xlink="http://www.w3.org/1999/xlink">
 <defs>
  <style type="text/css">
    .fil0 {fill:url(#id0)}
    .fil3 {fill:url(#id1)}
    .fil1 {fill:url(#id2)}
    .fil2 {fill:url(#id3)}
  </style>
  <linearGradient id="id0" gradientUnits="userSpaceOnUse" x1="35.088" y1="71.258" x2="35.088" y2="0.958">
   <stop offset="0" style="stop-opacity:1; stop-color:#101010"/>
   <stop offset="0.63" style="stop-opacity:1; stop-color:#3B3B3B"/>
   <stop offset="1" style="stop-opacity:1; stop-color:#666666"/>
  </linearGradient>
  <linearGradient id="id1" gradientUnits="objectBoundingBox" x1="50%" y1="60%" x2="50%" y2="10%">
   <stop offset="0" style="stop-opacity:1; stop-color:#181818"/>
   <stop offset="1" style="stop-opacity:1; stop-color:#666666"/>
  </linearGradient>
  <linearGradient id="id2" gradientUnits="userSpaceOnUse" x1="35.088" y1="69.368" x2="35.088" y2="2.848">
   <stop offset="0" style="stop-opacity:1; stop-color:#1A1A1A"/>
   <stop offset="1" style="stop-opacity:1; stop-color:#4D4D4D"/>
  </linearGradient>
  <linearGradient id="id3" gradientUnits="objectBoundingBox" xlink:href="#id1" x1="50%" y1="60%" x2="50%" y2="10%">
  </linearGradient>
 </defs>
 <g>
  <circle class="fil0" cx="35.088" cy="36.108" r="35.15"/>
  <circle class="fil1" cx="35.088" cy="36.108" r="33.26"/>
  <g>
   <circle class="fil2" cx="35.088" cy="6.106" r="1.323"/>
   <circle class="fil2" cx="35.088" cy="12.106" r="1.323"/>
   <circle class="fil2" cx="35.088" cy="18.106" r="1.323"/>
   <circle class="fil2" cx="35.088" cy="24.106" r="1.323"/>
   <circle class="fil2" cx="35.088" cy="48.11" r="1.323"/>
   <circle class="fil2" cx="35.088" cy="54.11" r="1.323"/>
   <circle class="fil2" cx="35.088" cy="60.11" r="1.323"/>
   <circle class="fil2" cx="35.088" cy="66.11" r="1.323"/>
   <circle class="fil2" cx="5.086" cy="36.108" r="1.323"/>
   <circle class="fil3" cx="11.086" cy="36.108" r="1.323"/>
   <circle class="fil2" cx="17.086" cy="36.108" r="1.323"/>
   <circle class="fil2" cx="23.086" cy="36.108" r="1.323"/>
   <circle class="fil2" cx="47.09" cy="36.108" r="1.323"/>
   <circle class="fil2" cx="53.09" cy="36.108" r="1.323"/>
   <circle class="fil3" cx="59.09" cy="36.108" r="1.323"/>
   <circle class="fil2" cx="65.09" cy="36.108" r="1.323"/>
   <circle class="fil3" cx="13.874" cy="14.894" r="1.323"/>
   <circle class="fil2" cx="18.116" cy="19.136" r="1.323"/>
   <circle class="fil2" cx="22.359" cy="23.379" r="1.323"/>
   <circle class="fil2" cx="26.601" cy="27.622" r="1.323"/>
   <circle class="fil2" cx="56.303" cy="14.894" r="1.323"/>
   <circle class="fil3" cx="52.06" cy="19.136" r="1.323"/>
   <circle class="fil2" cx="47.817" cy="23.379" r="1.323"/>
   <circle class="fil3" cx="43.575" cy="27.622" r="1.323"/>
   <circle class="fil2" cx="26.601" cy="44.595" r="1.323"/>
   <circle class="fil2" cx="22.359" cy="48.837" r="1.323"/>
   <circle class="fil2" cx="18.116" cy="53.08" r="1.323"/>
   <circle class="fil3" cx="13.874" cy="57.323" r="1.323"/>
   <circle class="fil3" cx="43.575" cy="44.595" r="1.323"/>
   <circle class="fil2" cx="47.817" cy="48.837" r="1.323"/>
   <circle class="fil3" cx="52.06" cy="53.08" r="1.323"/>
   <circle class="fil2" cx="56.303" cy="57.323" r="1.323"/>
   <circle class="fil2" cx="23.607" cy="8.39" r="1.323"/>
   <circle class="fil2" cx="25.903" cy="13.933" r="1.323"/>
   <circle class="fil3" cx="28.199" cy="19.477" r="1.323"/>
   <circle class="fil2" cx="41.977" cy="52.74" r="1.323"/>
   <circle class="fil3" cx="44.273" cy="58.283" r="1.323"/>
   <circle class="fil3" cx="46.569" cy="63.826" r="1.323"/>
   <circle class="fil3" cx="46.569" cy="8.39" r="1.323"/>
   <circle class="fil3" cx="44.273" cy="13.933" r="1.323"/>
   <circle class="fil2" cx="41.977" cy="19.477" r="1.323"/>
   <circle class="fil3" cx="28.199" cy="52.74" r="1.323"/>
   <circle class="fil2" cx="25.903" cy="58.283" r="1.323"/>
   <circle class="fil2" cx="23.607" cy="63.826" r="1.323"/>
   <circle class="fil2" cx="7.37" cy="24.627" r="1.323"/>
   <circle class="fil2" cx="12.913" cy="26.923" r="1.323"/>
   <circle class="fil3" cx="18.457" cy="29.219" r="1.323"/>
   <circle class="fil3" cx="51.719" cy="42.997" r="1.323"/>
   <circle class="fil3" cx="57.263" cy="45.293" r="1.323"/>
   <circle class="fil2" cx="62.806" cy="47.589" r="1.323"/>
   <circle class="fil2" cx="7.37" cy="47.59" r="1.323"/>
   <circle class="fil2" cx="12.913" cy="45.294" r="1.323"/>
   <circle class="fil3" cx="18.457" cy="42.997" r="1.323"/>
   <circle class="fil2" cx="51.72" cy="29.219" r="1.323"/>
   <circle class="fil2" cx="57.263" cy="26.923" r="1.323"/>
   <circle class="fil2" cx="62.806" cy="24.627" r="1.323"/>
  </g>
 </g>
</svg>
