<?xml version="1.0" encoding="UTF-8"?>
<!DOCTYPE svg PUBLIC "-//W3C//DTD SVG 1.1//EN" "http://www.w3.org/Graphics/SVG/1.1/DTD/svg11.dtd">
<svg xml:space="preserve" viewBox="0 0 560 596" width="560px" height="596px" version="1.1" style="shape-rendering:geometricPrecision; fill-rule:evenodd; clip-rule:evenodd" xmlns="http://www.w3.org/2000/svg" xmlns:xlink="http://www.w3.org/1999/xlink">
 <defs>
  <style type="text/css">
    .str0 {stroke:#666666;stroke-width:0.75}
    .str1 {stroke:#999999;stroke-width:0.75}
    .fil19 {fill:black}
    .fil18 {fill:#333333}
    .fil9 {fill:#4D4D4D}
    .fil2 {fill:gray}
    .fil12 {fill:#A0A0A0}
    .fil23 {fill:#B0B0B0}
    .fil0 {fill:#B3B3B3}
    .fil24 {fill:#C4C4C4}
    .fil4 {fill:#CCCCCC}
    .fil13 {fill:#E0E0E0}
    .fil11 {fill:#E6E6E6}
    .fil20 {fill:#ED8432}
    .fil6 {fill:#F8F8F8}
    .fil25 {fill:url(#id0)}
    .fil21 {fill:url(#id1)}
    .fil7 {fill:url(#id2)}
    .fil8 {fill:url(#id3)}
    .fil10 {fill:url(#id4)}
    .fil1 {fill:url(#id5)}
    .fil29 {fill:url(#id6)}
    .fil26 {fill:url(#id7)}
    .fil30 {fill:url(#id8)}
    .fil17 {fill:url(#id9)}
    .fil15 {fill:url(#id10)}
    .fil14 {fill:url(#id11)}
    .fil16 {fill:url(#id12)}
    .fil27 {fill:url(#id13)}
    .fil28 {fill:url(#id14)}
    .fil5 {fill:url(#id15)}
    .fil22 {fill:url(#id16)}
    .fil3 {fill:url(#id17);fill-opacity:0.05}
    .shd0 {filter: drop-shadow(0px 1px .5px rgba(0, 0, 0, 0.2)) drop-shadow(0px 0px .5px rgba(0, 0, 0, 0.2))}
  </style>
  <linearGradient id="id0" gradientUnits="userSpaceOnUse" x1="107.92" y1="356.671" x2="107.92" y2="298.466">
   <stop offset="0" style="stop-opacity:1; stop-color:#A0A0A0"/>
   <stop offset="1" style="stop-opacity:1; stop-color:#D4D4D4"/>
  </linearGradient>
  <linearGradient id="id1" gradientUnits="userSpaceOnUse" x1="72.588" y1="243.293" x2="72.588" y2="163.923">
   <stop offset="0" style="stop-opacity:1; stop-color:#666666"/>
   <stop offset="1" style="stop-opacity:1; stop-color:#E6E6E6"/>
  </linearGradient>
  <linearGradient id="id2" gradientUnits="userSpaceOnUse" x1="72.588" y1="265.026" x2="72.588" y2="142.191">
   <stop offset="0" style="stop-opacity:1; stop-color:#D4D4D4"/>
   <stop offset="1" style="stop-opacity:1; stop-color:#F8F8F8"/>
  </linearGradient>
  <linearGradient id="id3" gradientUnits="userSpaceOnUse" x1="72.588" y1="257.655" x2="72.588" y2="149.561">
   <stop offset="0" style="stop-opacity:1; stop-color:gainsboro"/>
   <stop offset="1" style="stop-opacity:1; stop-color:#F0F0F0"/>
  </linearGradient>
  <linearGradient id="id4" gradientUnits="userSpaceOnUse" x1="186.061" y1="169.377" x2="373.939" y2="169.377">
   <stop offset="0" style="stop-opacity:1; stop-color:#CCCCCC"/>
   <stop offset="0.501961" style="stop-opacity:1; stop-color:#C8D0D0"/>
   <stop offset="1" style="stop-opacity:1; stop-color:#CCCCCC"/>
  </linearGradient>
  <linearGradient id="id5" gradientUnits="objectBoundingBox" x1="0%" y1="50%" x2="100%" y2="50%">
   <stop offset="0" style="stop-opacity:1; stop-color:#E6E6E6"/>
   <stop offset="0.501961" style="stop-opacity:1; stop-color:#EEEEEE"/>
   <stop offset="1" style="stop-opacity:1; stop-color:#E6E6E6"/>
  </linearGradient>
  <linearGradient id="id6" gradientUnits="userSpaceOnUse" x1="91.787" y1="314.032" x2="94.383" y2="311.436">
   <stop offset="0" style="stop-opacity:1; stop-color:#E6E6E6"/>
   <stop offset="1" style="stop-opacity:1; stop-color:#B0B0B0"/>
  </linearGradient>
  <linearGradient id="id7" gradientUnits="userSpaceOnUse" x1="94.383" y1="343.702" x2="91.787" y2="341.105">
   <stop offset="0" style="stop-opacity:1; stop-color:#C4C4C4"/>
   <stop offset="1" style="stop-opacity:1; stop-color:gray"/>
  </linearGradient>
  <linearGradient id="id8" gradientUnits="userSpaceOnUse" x1="107.92" y1="336.073" x2="107.92" y2="320.955">
   <stop offset="0" style="stop-opacity:1; stop-color:#E6E6E6"/>
   <stop offset="0.4" style="stop-opacity:1; stop-color:#B3B3B3"/>
   <stop offset="1" style="stop-opacity:1; stop-color:gray"/>
  </linearGradient>
  <linearGradient id="id9" gradientUnits="userSpaceOnUse" x1="341.345" y1="235.544" x2="335.452" y2="242.153">
   <stop offset="0" style="stop-opacity:1; stop-color:#A0A0A0"/>
   <stop offset="1" style="stop-opacity:1; stop-color:#E0E0E0"/>
  </linearGradient>
  <linearGradient id="id10" gradientUnits="userSpaceOnUse" xlink:href="#id9" x1="218.655" y1="235.544" x2="224.548" y2="242.153">
  </linearGradient>
  <linearGradient id="id11" gradientUnits="userSpaceOnUse" x1="219.031" y1="135.861" x2="224.172" y2="128.337">
   <stop offset="0" style="stop-opacity:1; stop-color:#A0A0A0"/>
   <stop offset="1" style="stop-opacity:1; stop-color:gray"/>
  </linearGradient>
  <linearGradient id="id12" gradientUnits="userSpaceOnUse" xlink:href="#id11" x1="340.969" y1="135.861" x2="335.828" y2="128.337">
  </linearGradient>
  <linearGradient id="id13" gradientUnits="userSpaceOnUse" xlink:href="#id7" x1="121.456" y1="343.702" x2="124.052" y2="341.105">
  </linearGradient>
  <linearGradient id="id14" gradientUnits="userSpaceOnUse" xlink:href="#id6" x1="124.052" y1="314.032" x2="121.456" y2="311.436">
  </linearGradient>
  <linearGradient id="id15" gradientUnits="userSpaceOnUse" x1="280" y1="462.096" x2="280" y2="432.179">
   <stop offset="0" style="stop-opacity:1; stop-color:#E4E4E4"/>
   <stop offset="0.8" style="stop-opacity:1; stop-color:#E4E4E4"/>
   <stop offset="1" style="stop-opacity:1; stop-color:#EDEDED"/>
  </linearGradient>
  <linearGradient id="id16" gradientUnits="userSpaceOnUse" x1="107.92" y1="371.109" x2="107.92" y2="284.029">
   <stop offset="0" style="stop-opacity:1; stop-color:#D8D8D8"/>
   <stop offset="1" style="stop-opacity:1; stop-color:silver"/>
  </linearGradient>
  <linearGradient id="id17" gradientUnits="userSpaceOnUse" x1="280" y1="504.357" x2="280" y2="406.852">
   <stop offset="0" style="stop-opacity:1; stop-color:black"/>
   <stop offset="1" style="stop-opacity:1; stop-color:gray"/>
  </linearGradient>
 </defs>
 <g>
  <g id="shell">
   <path class="fil0" d="M280 3.299c28.654,0 55.795,6.479 80.04,18.046l0 31.737 -160.08 0 0 -31.737c24.246,-11.567 51.386,-18.046 80.04,-18.046z"/>
   <path class="fil1" d="M280 1.3c22.582,0 44.224,4.024 64.25,11.391l0 40.391 -128.5 0 0 -40.391c20.026,-7.367 41.668,-11.391 64.25,-11.391zm66.139 12.099c6.482,2.464 12.789,5.279 18.9,8.424l0 31.259 -18.9 0 0 -39.683zm-132.278 39.683l-18.9 0 0 -31.259c6.111,-3.145 12.419,-5.96 18.9,-8.425l0 39.684z"/>
   <circle class="fil2" cx="280" cy="231.76" r="201.827"/>
   <path class="fil1" d="M280 485.533c-27.119,0 -54.183,1.841 -81.052,5.518 -21.162,2.897 -41.596,6.955 -62.358,11.922 -6.25,1.504 -11.095,4.263 -13.349,10.411 -2.323,6.343 -4.73,12.657 -6.959,19.034 -6.223,17.801 -12.295,35.657 -18.4,53.499 -1.658,4.845 -6.159,7.757 -12.494,7.709 -6.387,-0.049 -9.29,-3.665 -13.032,-8.649 -7.977,-10.619 -15.431,-23.33 -21.436,-35.139 -8.426,-16.555 -15.228,-35.133 -20.311,-52.966 -12.384,-43.422 -19.108,-88.961 -23.54,-133.827 -2.147,-21.753 -3.694,-43.355 -4.488,-65.202 -1.019,-28.098 -0.117,-56.378 3.29,-84.292 3.401,-27.951 10.054,-55.306 21.033,-81.266 1.403,-3.347 4.51,-6.098 8.019,-7.043 26.292,-7.298 52.138,-13.058 78.897,-18.354l0.02 -0.004c18.439,-25.258 42.497,-46.15 70.332,-60.846l0 176.402c0,52.924 42.904,95.828 95.828,95.828 52.924,0 95.828,-42.905 95.828,-95.828l0 -176.401c27.835,14.695 51.893,35.587 70.332,60.845l0.02 0.004c26.759,5.296 52.605,11.056 78.897,18.354 3.509,0.945 6.616,3.696 8.019,7.043 10.979,25.96 17.632,53.315 21.033,81.266 3.407,27.914 4.309,56.194 3.29,84.292 -0.794,21.847 -2.341,43.449 -4.488,65.202 -4.432,44.866 -11.156,90.405 -23.54,133.827 -5.083,17.833 -11.885,36.411 -20.311,52.966 -6.005,11.809 -13.459,24.52 -21.436,35.139 -3.742,4.984 -6.645,8.6 -13.032,8.649 -6.335,0.048 -10.836,-2.864 -12.494,-7.709 -6.105,-17.842 -12.177,-35.698 -18.4,-53.499 -2.229,-6.377 -4.636,-12.691 -6.959,-19.034 -2.254,-6.148 -7.099,-8.907 -13.349,-10.411 -20.762,-4.967 -41.196,-9.025 -62.358,-11.922 -26.869,-3.677 -53.933,-5.518 -81.052,-5.518z"/>
   <path class="fil3" d="M280 485.533c-27.119,0 -54.183,1.841 -81.052,5.518 -21.162,2.897 -41.596,6.955 -62.358,11.922 -1.551,0.373 -3.016,0.824 -4.375,1.384 2.829,-8.362 5.748,-16.692 8.787,-24.982 9.106,-24.838 19.122,-48.552 30.137,-72.523 31.721,19.354 68.988,30.515 108.861,30.515 39.877,0 77.144,-11.155 108.865,-30.506 11.014,23.968 21.028,47.679 30.133,72.514 3.039,8.29 5.958,16.62 8.787,24.982 -1.36,-0.561 -2.824,-1.011 -4.375,-1.384 -20.762,-4.967 -41.196,-9.025 -62.358,-11.922 -26.869,-3.677 -53.933,-5.518 -81.052,-5.518z"/>
   <path class="fil4" d="M316.852 462.091c-2.602,-9.541 -6.284,-20.188 -10.385,-30.195 -8.665,1.114 -17.499,1.691 -26.467,1.691 -8.968,0 -17.802,-0.577 -26.467,-1.691 -4.102,10.007 -7.784,20.654 -10.385,30.195l36.852 -0.185 36.852 0.185z"/>
   <path class="fil0" d="M451.585 107.967c18.041,25.745 30.438,55.733 35.391,88.171 -1.229,-2.88 -2.993,-5.477 -5.166,-7.666 -5.853,-30.05 -18.253,-57.758 -35.65,-81.588l0.02 0.004c1.806,0.358 3.607,0.717 5.405,1.079zm37.022 101.851c0.515,5.985 0.779,12.043 0.779,18.163 0,19.199 -2.596,37.791 -7.436,55.453 -0.977,-1.001 -2.04,-1.919 -3.176,-2.742 4.45,-16.824 6.832,-34.489 6.832,-52.711 0,-3.177 -0.074,-6.336 -0.217,-9.477 1.587,-2.615 2.698,-5.551 3.218,-8.686zm-23.091 115.316c-35.012,66.716 -104.944,112.233 -185.516,112.233 -59.291,0 -112.82,-24.673 -150.915,-64.278l0 -5.499c37.555,40.581 91.262,65.997 150.915,65.997 78.475,0 146.676,-43.97 181.324,-108.614 0.999,0.124 2.016,0.189 3.049,0.189 0.383,0 0.764,-0.011 1.143,-0.028zm-379.7 -18.731c-4.864,-12.029 -8.646,-24.613 -11.217,-37.632 1.278,-0.038 2.546,-0.116 3.804,-0.227 2.044,10.214 4.853,20.152 8.352,29.756l0 8.103 -0.939 0zm3.827 -165.733c5.285,-11.499 11.58,-22.439 18.772,-32.703 1.798,-0.362 3.599,-0.721 5.405,-1.079l0.02 -0.004c-7.936,10.871 -14.83,22.549 -20.54,34.888 -1.203,-0.402 -2.423,-0.769 -3.657,-1.102z"/>
   <path class="fil5" d="M316.853 462.094c-3.403,-9.451 -7.963,-19.989 -12.887,-29.915l-47.932 0c-4.924,9.927 -9.484,20.465 -12.888,29.917l73.707 -0.002z"/>
   <path class="fil6 shd0" d="M266.231 468c1.968,0 3.171,-0.951 3.171,-2.489 0,-1.198 -0.757,-1.901 -2.464,-2.26l-0.768 -0.165c-0.98,-0.214 -1.376,-0.487 -1.376,-0.98 0,-0.583 0.574,-0.99 1.388,-0.99 0.857,0 1.422,0.465 1.48,1.221l1.546 0c-0.048,-1.607 -1.192,-2.581 -3.032,-2.581 -1.816,0 -3.032,0.979 -3.032,2.431 0,1.139 0.766,1.873 2.346,2.215l0.842 0.182c1.013,0.22 1.431,0.52 1.431,1.033 0,0.622 -0.605,1.023 -1.521,1.023 -1.024,0 -1.641,-0.513 -1.662,-1.391l-1.592 0c0,1.735 1.196,2.751 3.243,2.751zm3.607 -6.706l2.427 0 0 6.587 1.649 0 0 -6.587 2.421 0 0 -1.419 -6.497 0 0 1.419zm5.711 6.587l1.783 0 0.579 -1.749 2.99 0 0.559 1.749 1.831 0 -2.808 -8.006 -2.126 0 -2.808 8.006zm2.808 -3.068l0.273 -0.827c0.258,-0.817 0.506,-1.633 0.795,-2.628 0.284,0.995 0.532,1.811 0.779,2.628l0.268 0.827 -2.115 0zm5.586 3.068l1.65 0 0 -2.795 1.453 0c0.006,0 0.012,0 0.017,0l1.422 2.795 1.771 0 -1.604 -3.107c0.896,-0.414 1.428,-1.209 1.428,-2.27 0,-1.613 -1.127,-2.629 -2.937,-2.629l-3.2 0 0 8.006zm1.65 -4.122l0 -2.509 1.448 0c0.877,0 1.422,0.489 1.422,1.254 0,0.766 -0.545,1.255 -1.417,1.255l-1.453 0zm4.913 -2.465l2.428 0 0 6.587 1.649 0 0 -6.587 2.421 0 0 -1.419 -6.498 0 0 1.419z"/>
   <circle class="fil7" cx="72.588" cy="203.608" r="61.417"/>
   <circle class="fil8" cx="72.588" cy="203.608" r="54.047"/>
   <circle class="fil9" cx="72.588" cy="203.608" r="41.575"/>
   <path class="fil0" d="M387.276 403.416c11.642,25.144 22.181,49.935 31.722,75.959 3.039,8.29 5.958,16.62 8.787,24.982 4.12,1.698 7.298,4.404 8.993,9.027 -4.5,-11.989 -9.158,-23.911 -14.065,-35.739 -10.621,-25.602 -22.192,-49.938 -34.876,-74.573 -0.186,0.115 -0.374,0.231 -0.561,0.344zm-214.552 0c-11.642,25.144 -22.181,49.935 -31.722,75.959 -3.039,8.29 -5.958,16.62 -8.787,24.982 -4.12,1.698 -7.298,4.404 -8.993,9.027 4.5,-11.989 9.158,-23.911 14.065,-35.739 10.621,-25.602 22.192,-49.938 34.876,-74.573 0.186,0.115 0.374,0.231 0.561,0.344z"/>
   <path class="fil10" d="M280 22.374c33.846,0 65.781,8.183 93.939,22.671l0 177.395c0,51.88 -42.058,93.939 -93.939,93.939 -51.881,0 -93.939,-42.058 -93.939,-93.939l0.001 -177.395c28.158,-14.489 60.092,-22.671 93.938,-22.671z"/>
   <rect class="fil11 str0" x="220.382" y="130.568" width="119.235" height="109.356" rx="8.346" ry="8.346"/>
   <rect class="fil2" x="222.272" y="132.457" width="115.457" height="105.577" rx="6.457" ry="6.457"/>
  </g>
  <g id="window">
   <path class="fil12" d="M214.475 132.781l0 106.168 5.907 0 0 -106.168 -5.907 0zm131.05 0l0 106.168 -5.907 0 0 -106.168 5.907 0z"/>
   <path class="fil2" d="M340.336 125.005c-18.684,-7.713 -40.357,-9.302 -60.336,-9.302 -19.979,0 -41.652,1.589 -60.336,9.302l0 5.563 120.672 0 0 -5.563z"/>
   <path class="fil13" d="M340.336 246.724c-18.684,7.714 -40.357,9.302 -60.336,9.302 -19.979,0 -41.652,-1.589 -60.336,-9.302l0 -6.8 120.672 0 0 6.8z"/>
   <path class="fil14" d="M214.475 132.781c0.022,-3.415 2.024,-6.47 5.189,-7.776l9.065 5.563c-4.591,0 -8.347,3.756 -8.347,8.346l-5.907 -6.133z"/>
   <path class="fil15" d="M219.664 246.724c-3.165,-1.306 -5.167,-4.361 -5.189,-7.775l5.907 -7.371c0,4.59 3.756,8.346 8.347,8.346l-9.065 6.8z"/>
   <path class="fil16" d="M345.525 132.781c-0.022,-3.415 -2.024,-6.47 -5.189,-7.776l-9.065 5.563c4.591,0 8.347,3.756 8.347,8.346l5.907 -6.133z"/>
   <path class="fil17" d="M340.336 246.724c3.165,-1.306 5.167,-4.361 5.189,-7.775l-5.907 -7.371c0,4.59 -3.756,8.346 -8.347,8.346l9.065 6.8z"/>
  </g>
  <g id="holes">
   <path class="fil18" d="M62.966 310.183l26.056 0c0.833,0 1.512,-0.679 1.512,-1.512l0 -26.056c5.394,-2.088 11.256,-3.235 17.386,-3.235 6.13,0 11.992,1.147 17.386,3.235l0 26.056c0,0.833 0.679,1.512 1.512,1.512l26.056 0c2.087,5.394 3.235,11.255 3.235,17.386 0,6.13 -1.148,11.992 -3.235,17.386l-26.056 0c-0.833,0 -1.512,0.679 -1.512,1.511l0 26.057c-5.394,2.087 -11.256,3.235 -17.386,3.235 -6.13,0 -11.992,-1.148 -17.386,-3.235l0 -26.057c0,-0.832 -0.679,-1.511 -1.512,-1.511l-26.056 0c-2.088,-5.394 -3.235,-11.256 -3.235,-17.386 0,-6.131 1.147,-11.992 3.235,-17.386z"/>
   <circle class="fil18" cx="416.963" cy="253.185" r="20.787"/>
   <circle class="fil18" cx="464.373" cy="205.775" r="20.787"/>
   <circle class="fil18" cx="464.373" cy="300.595" r="20.787"/>
   <circle class="fil18" cx="511.781" cy="253.185" r="20.787"/>
   <path class="fil18" d="M279.997 406.938c1.258,0 2.519,0.623 3.312,1.595 6.311,7.739 11.685,16.254 16.131,25.191 2.259,4.541 4.485,9.204 6.291,13.946 0.462,1.214 0.336,2.576 -0.31,3.713 -0.651,1.147 -1.772,1.91 -3.067,2.118 -7.415,1.196 -14.855,1.604 -22.357,1.604 -7.504,0 -14.942,-0.408 -22.357,-1.604 -1.296,-0.208 -2.416,-0.97 -3.068,-2.118 -0.652,-1.147 -0.76,-2.536 -0.292,-3.76 1.811,-4.741 4.036,-9.401 6.295,-13.943 4.44,-8.923 9.808,-17.419 16.109,-25.147 0.793,-0.971 2.054,-1.595 3.313,-1.595z"/>
  </g>
  <g id="shield">
   <path class="fil11 str1" d="M306.22 63.372l-0.001 10.409c0,2.497 2.038,4.535 4.536,4.535l6.155 0c2.498,0 4.536,2.038 4.536,4.536l0 11.229c0,2.498 -2.038,4.535 -4.536,4.535l-73.82 0c-2.498,0 -4.536,-2.037 -4.536,-4.535l0 -11.229c0,-2.498 2.038,-4.536 4.536,-4.536l6.155 0c2.498,0 4.536,-2.037 4.536,-4.535l-0.001 -10.409c0,-14.481 11.739,-26.22 26.22,-26.22 14.481,0 26.22,11.74 26.22,26.22z"/>
   <path class="fil19" d="M311.525 87.04c0,0.113 0,4.905 0,5.264 0,1.652 1.138,2.094 1.982,2.094 0.358,0.017 0.863,-0.066 1.216,-0.145l0.217 -1.02c-0.412,0.157 -0.89,0.195 -1.176,0.195 -0.529,0 -0.912,-0.351 -0.912,-0.901 0,-0.492 -0.012,-5.323 0,-5.478l-0.006 0c0.071,0 1.168,-0.004 1.279,0 0.36,0.012 0.636,0.035 0.874,0.13l0.001 -0.96c0,0 -2.108,-0.003 -2.148,-0.003l0.008 -2.464 -1.597 0.442c0.221,0.206 0.292,0.809 0.292,1.206 0,0 -0.001,0.736 -0.001,0.825 -0.072,0 -0.882,0.003 -1.016,0.003l0 0.812c0.142,0 0.987,0 0.987,0zm-6.901 5.566c0.687,0.49 1.764,0.926 2.553,0.926 1.097,0 1.881,-0.534 1.881,-1.537 0,-1.852 -4.223,-1.546 -4.223,-3.896 0,-1.588 1.421,-2.186 2.775,-2.186 0.435,0 1.428,0.094 2.06,0.339l-0.005 1.085c-0.561,-0.479 -1.418,-0.596 -1.982,-0.596 -0.896,0 -1.568,0.445 -1.568,1.317 0,1.28 4.219,1.206 4.219,3.833 0,1.699 -1.472,2.491 -3.092,2.491 -0.79,0 -1.613,-0.14 -2.298,-0.336l-0.32 -1.44zm-8.071 -5.148c-0.559,-0.327 -1.441,-0.586 -2.056,-0.586 -2.16,0 -3.15,1.329 -3.15,3.242 0,1.895 0.967,3.346 3.08,3.346 0.724,0 1.71,-0.325 2.475,-0.795l-0.311 1.394c-0.779,0.232 -1.435,0.342 -2.304,0.342 -2.969,0 -4.36,-2.105 -4.36,-4.296 0,-2.422 1.867,-4.124 4.393,-4.124 1.104,0 1.91,0.271 2.235,0.363l-0.002 1.114zm-17.419 -0.401c0,-0.096 0.004,-0.957 0.004,-1.067l-1.754 0.271c0.211,0.221 0.374,0.913 0.374,1.406l0 5.748c0,0.196 -0.084,0.671 -0.266,0.895l1.912 0c-0.181,-0.224 -0.265,-0.699 -0.265,-0.895l0 -4.325c0,-1.582 0.978,-2.136 1.952,-2.136 0.882,0 1.679,0.382 1.679,2.136l0 4.325c0,0.196 -0.084,0.671 -0.266,0.895l1.855 0c-0.182,-0.224 -0.266,-0.699 -0.266,-0.895l0 -4.325c0,-1.754 1.084,-2.136 1.966,-2.136 0.882,0 1.804,0.554 1.804,2.136l0 4.325c0,0.196 -0.084,0.671 -0.266,0.895l1.786 0c-0.182,-0.224 -0.266,-0.699 -0.266,-0.895l0 -5.146c0,-0.877 -0.894,-2.282 -2.984,-2.282 -1.215,0 -1.917,0.541 -2.45,1.006 -0.454,-0.529 -1.192,-1.025 -2.377,-1.025 -1.156,0 -1.838,0.677 -2.172,1.089zm-4.135 2.696c-0.251,0.235 -0.774,0.418 -1.316,0.489 -1.421,0.187 -2.653,0.423 -2.653,1.808 0,0.821 0.895,1.468 1.605,1.468 1.879,0 2.364,-1.356 2.364,-2.424l0 -1.341 0 0zm-4.438 -3.389c0.717,-0.287 1.874,-0.419 2.599,-0.419 1.853,0 3.084,0.926 3.084,3.075l0 3.565c0,0.661 0.01,1.286 0.246,1.725l-1.49 0 -0.053 -0.938c-0.565,0.728 -1.238,1.054 -2.382,1.054 -2.257,0 -2.75,-1.542 -2.75,-2.283 0,-2.645 2.517,-2.676 3.61,-2.832 0.605,-0.085 1.383,-0.256 1.5,-0.823 0.193,-0.938 -0.478,-1.641 -1.848,-1.641 -1.005,0 -1.829,0.305 -2.516,0.717l0 -1.2 0 0zm32.015 3.389c-0.25,0.235 -0.774,0.418 -1.315,0.489 -1.421,0.187 -2.653,0.423 -2.653,1.808 0,0.821 0.895,1.468 1.604,1.468 1.879,0 2.364,-1.356 2.364,-2.424l0 -1.341zm-4.438 -3.389c0.718,-0.287 1.875,-0.419 2.6,-0.419 1.853,0 3.084,0.926 3.084,3.075l0 3.565c0,0.661 -0.144,1.272 0.245,1.725l-1.49 0 -0.053 -0.938c-0.564,0.728 -1.238,1.054 -2.381,1.054 -2.257,0 -2.75,-1.542 -2.75,-2.283 0,-2.645 2.517,-2.676 3.61,-2.832 0.605,-0.085 1.383,-0.256 1.5,-0.823 0.193,-0.938 -0.478,-1.641 -1.848,-1.641 -1.005,0 -1.829,0.305 -2.517,0.717l0 -1.2 0 0zm-34.818 3.851c0.001,-0.2 0.028,-0.391 0.05,-0.576l5.745 0c0,-1.974 -0.988,-3.668 -3.328,-3.668 -2.428,0 -3.869,1.899 -3.869,4.321 0,2.191 1.605,4.147 4.354,4.147 0.869,0 1.596,-0.213 2.38,-0.488l0.276 -1.4c-0.671,0.552 -1.756,0.879 -2.734,0.879 -1.76,0 -2.882,-1.274 -2.874,-3.215zm0.232 -1.452c0.187,-0.961 1.076,-1.939 2.139,-1.939 1.626,0 2.097,1.269 2.097,1.94 0,-0.001 -4.236,0.002 -4.236,-0.001zm-6.797 -2.549l1.732 -0.271c0,0.355 0,1.395 0,1.526 0.445,-1.098 1.827,-1.981 3.792,-1.216l-0.46 1.206c-1.799,-0.854 -3.332,-0.105 -3.332,1.892l0 4.121c0,0.196 0.043,0.592 0.16,0.846l-1.8 0c0.183,-0.224 0.266,-0.65 0.266,-0.846l0 -5.945c0,-0.431 -0.087,-1.098 -0.358,-1.313zm-11.419 -2.483c0,-0.391 -0.074,-0.897 -0.248,-1.11 1.132,0 3.577,0.007 4.625,0.007 2.411,0 6.049,1.338 6.049,5.85 0,3.348 -2.568,5.843 -6.049,5.843 -0.764,0 -3.679,-0.009 -4.713,-0.009 0.212,-0.391 0.336,-0.922 0.336,-1.342l0 -9.239zm1.734 9.444c1.112,0.144 2.14,0.189 3.069,0.056 0.9,-0.129 3.922,-0.779 3.903,-4.792 -0.018,-3.802 -2.366,-4.671 -4.175,-4.778 -0.945,-0.055 -1.856,-0.02 -2.797,0.144l0 9.37z"/>
   <path class="fil20" d="M284.673 42.068c1.596,0.239 3.227,0.797 4.077,1.057 1.712,0.523 4.493,2.15 5.475,2.931 0.464,0.369 1.441,1.336 1.819,1.822 0.369,0.474 1.072,1.5 1.521,2.133 0.715,1.044 1.557,2.599 2.271,4.03 0.797,1.599 0.852,2.062 1.093,3.398l0.527 2.357c0.05,0.407 0.091,1.901 -0.787,2.111 -0.876,0.209 -1.687,-0.196 -2.07,-0.787 -0.528,-0.818 -0.455,-1.98 -1.054,-3.31 -0.466,-1.075 -0.67,-2.637 -1.415,-3.76l-0.584 -0.988c-1.034,-1.592 -2.112,-2.855 -2.754,-3.679 -0.566,-0.692 -1.623,-1.633 -2.625,-2.303 -0.926,-0.562 -2.424,-1.202 -3.504,-1.533 -0.345,-0.111 -1.818,-0.545 -2.734,-0.667 -1.243,-0.139 -2.06,-0.336 -3.241,-0.419 -1.458,-0.103 -2.157,-0.232 -4.048,-0.011 -0.716,0.194 -1.851,0.271 -2.873,0.662 -0.825,0.336 -1.972,0.88 -3.096,1.54 -1.21,0.664 -3.046,2.02 -4.264,3.178 -1.227,1.312 -1.841,2.016 -2.687,3.678 -0.375,0.823 -1.1,2.095 -1.392,2.994 -0.2,0.911 -0.581,2.612 -0.517,3.438 0.029,1.48 -0.1,1.785 0.011,2.995 0.004,1.089 0.361,1.844 0.51,2.735 0.127,0.615 0.718,2.745 1.083,3.239 1.66,3.578 3.889,5.127 6.373,6.245 0.7,0.356 2.891,0.943 3.525,1.111 1.08,0.195 2.502,0.325 3.871,0.351 1.441,0.028 3.426,-0.167 4.63,-0.61 1.304,-0.48 2.811,-1.161 2.794,-1.142 0.605,-0.333 1.528,-0.877 1.815,-1.117 0.556,-0.356 0.891,-0.494 1.22,-0.837 0.475,-0.415 0.763,-0.654 1.122,-1.17 0.201,-0.29 0.519,-0.734 0.829,-1.127 0.333,-0.546 0.525,-1.122 0.85,-1.834 0.39,-1.054 0.33,-1.003 0.403,-2.122 0.07,-0.324 -0.007,-1.414 -0.066,-1.599 -0.175,-1.006 -0.113,-1.893 -0.343,-2.87 -0.311,-1.321 -0.57,-2.309 -0.966,-3.577 -0.374,-1.426 -1.47,-2.748 -2.292,-3.693 -0.51,-0.585 -2.091,-1.967 -4.284,-2.83 -0.618,-0.208 -1.629,-0.444 -2.271,-0.561 -1.37,-0.143 -1.593,-0.051 -2.906,0.045 -0.451,0.079 -1.5,0.293 -1.885,0.428 -1.127,0.396 -1.541,0.648 -2.694,1.353 -0.536,0.312 -0.941,0.55 -1.489,1.064 -0.437,0.405 -0.75,1.094 -1.104,1.497 -0.486,0.661 -1.027,1.542 -1.389,2.493 -0.393,0.945 -0.52,2.276 -0.46,3.133 0,0.653 0.177,1.848 0.248,2.11 0.07,0.261 0.247,1.073 0.285,1.235 0.039,0.163 0.461,1.022 0.519,1.146 0.238,0.506 0.693,1.234 1.461,1.977 0.566,0.619 1.661,1.226 2.481,1.461 0.735,0.404 1.974,0.472 2.66,0.474 0.338,-0.021 1.199,-0.073 1.649,-0.182 0.912,-0.218 1.081,-0.224 2.021,-0.633 0.844,-0.391 1.416,-0.532 2.003,-0.966 0,0 0.807,-0.632 1.174,-1.095 0.194,-0.244 0.525,-1.407 0.466,-2.127 -0.028,-0.987 0.116,-1.546 -0.085,-2.357 -0.201,-0.812 -0.545,-1.752 -0.918,-2.332 -0.377,-0.587 -1.188,-1.159 -2.111,-1.614 -0.517,-0.255 -1.741,-0.492 -2.26,-0.553 -0.987,-0.117 -1.813,0.331 -2.314,0.843 -0.435,0.496 -1.293,1.528 -0.951,2.595 0.309,0.965 0.683,1.993 2.131,1.917 0.993,0.207 2.142,-0.093 2.525,0.083 0.568,0.322 0.786,1.035 0.58,1.531 -0.144,0.958 -1.061,1.073 -2.041,1.146 -0.875,0.146 -3.1,-0.282 -3.589,-0.649 -0.328,-0.195 -0.83,-0.663 -1.184,-0.979 -0.254,-0.227 -0.542,-0.734 -0.739,-1.099 -0.241,-0.447 -0.363,-0.776 -0.425,-1.068 -0.074,-0.346 -0.226,-1.007 -0.168,-1.668 0.039,-0.446 0.158,-0.636 0.277,-1.288 0.237,-0.739 0.531,-1.301 1.003,-1.942 0.617,-0.626 1.399,-1.371 2.163,-1.716 0.674,-0.356 1.854,-0.487 2.922,-0.425 0.866,0.083 1.89,0.189 2.567,0.416 1.16,0.414 1.491,0.497 2.443,1.097 0.804,0.498 1.613,1.413 2.065,2.171 0.96,1.966 1.511,4.152 1.11,7.095 -0.033,0.498 -0.187,0.983 -0.497,1.642 -0.287,0.608 -0.788,1.347 -1.542,1.903 -0.304,0.281 -0.782,0.626 -1.171,0.829 -0.553,0.335 -0.924,0.51 -1.502,0.8 -0.506,0.238 -1.097,0.51 -1.867,0.724 -0.834,0.33 -1.474,0.344 -2.524,0.5 -1.033,0.259 -3.859,0.074 -5.543,-0.669 -1.149,-0.483 -2.438,-1.335 -3.419,-2.373 -0.544,-0.57 -1.077,-1.606 -1.233,-1.818 -0.78,-1.498 -0.932,-2.908 -1.057,-3.204 -0.17,-0.402 -0.255,-1.304 -0.369,-1.921 -0.128,-0.692 -0.048,-3.594 0.65,-5.457 0.394,-0.741 0.625,-1.402 0.891,-1.749 0.479,-0.682 0.711,-1.107 1.118,-1.591 0.614,-0.744 1.062,-1.352 1.66,-1.781 1.524,-1.239 2.798,-1.893 4.52,-2.711 2.14,-0.872 2.783,-0.691 4.808,-0.659 0.911,0.008 2.237,0.294 2.889,0.413 1.211,0.161 1.904,0.453 2.723,0.681 0.876,0.245 1.382,0.635 2.1,1.069 0.592,0.382 1.288,0.906 1.748,1.33 1.175,0.862 1.743,1.769 2.463,2.882 0.131,0.187 0.987,2.011 1.124,2.519 0.063,0.254 0.257,0.984 0.381,1.411 0.16,0.677 0.237,1.277 0.415,2.04 0.16,0.788 0.432,2.273 0.549,3.662 0.198,1.192 -0.119,3.623 -0.306,4.37 -0.416,1.392 -1.145,3.091 -2.584,4.727 -0.611,0.724 -1.261,1.286 -2.011,1.895 -0.575,0.479 -1.067,0.758 -1.954,1.288 -1.204,0.719 -2.121,1.177 -3.809,1.837 -0.688,0.221 -1.554,0.511 -2.487,0.704 -1.809,0.167 -3.667,0.328 -5.696,0.087 -2.029,-0.242 -4.061,-0.813 -5.261,-1.182 -0.663,-0.249 -1.946,-0.787 -2.484,-1.076 -0.35,-0.178 -1.524,-0.981 -1.723,-1.174 -0.804,-0.498 -2.604,-2.19 -3.767,-3.768 -0.254,-0.488 -1.17,-1.951 -1.368,-2.592 -0.528,-1.084 -0.896,-2.395 -1.112,-2.955 -0.229,-1.308 -0.614,-2.149 -0.764,-3.462 0.017,-0.309 -0.062,-1.036 -0.133,-1.438 0.103,-0.898 -0.034,-1.745 0.144,-2.723 0.157,-0.825 0.364,-1.17 0.414,-1.916 0.048,-0.319 0.459,-1.279 0.568,-1.706 0.331,-0.703 0.414,-1.283 0.847,-2.068 0.623,-1.225 1.274,-2.635 2.275,-3.866 0.286,-0.381 1.097,-1.297 1.373,-1.614 0.653,-0.653 1.037,-0.757 1.777,-1.412 0.078,-0.048 0.567,-0.606 1.079,-0.798 0.849,-0.656 1.583,-0.896 2.391,-1.493 1.619,-0.807 2.21,-1.079 3.817,-1.748 0.929,-0.331 2.225,-0.514 2.691,-0.695 0.888,-0.055 1.788,-0.338 2.722,-0.282 1.048,-0.01 2.104,0.065 3.157,0.161 0.713,0.043 1.639,0.078 2.896,0.351z"/>
  </g>
  <circle class="fil21" cx="72.588" cy="203.608" r="39.685"/>
  <g id="dpad">
   <path class="fil22" d="M64.95 313.018l25.395 0c1.665,0 3.023,-1.359 3.023,-3.024l0 -25.395c4.568,-1.546 9.462,-2.385 14.552,-2.385 5.089,0 9.983,0.839 14.551,2.385l0 25.395c0,1.665 1.358,3.024 3.023,3.024l25.395 0c1.546,4.567 2.385,9.461 2.385,14.551 0,5.09 -0.839,9.983 -2.385,14.551l-25.395 0c-1.665,0 -3.023,1.358 -3.023,3.024l0 25.394c-4.568,1.546 -9.462,2.385 -14.551,2.385 -5.09,0 -9.984,-0.839 -14.552,-2.385l0 -25.394c0,-1.666 -1.358,-3.024 -3.023,-3.024l-25.395 0c-1.546,-4.568 -2.385,-9.461 -2.385,-14.551 0,-5.09 0.839,-9.984 2.385,-14.551z"/>
   <path class="fil23" d="M95.825 284.599l0 27.852 -2.457 0 0 -27.852 2.457 0zm24.189 0l0 27.852 2.457 0 0 -27.852 -2.457 0z"/>
   <path class="fil24" d="M120.014 370.538l0 -27.851 2.457 0 0 27.851 -2.457 0zm-24.189 0l0 -27.851 -2.457 0 0 27.851 2.457 0z"/>
   <path class="fil11" d="M150.889 315.474l-27.851 0 0 -2.456 27.851 0 0 2.456zm-85.939 0l27.851 0 0 -2.456 -27.851 0 0 2.456zm55.064 -27.297c-3.824,-1.172 -7.886,-1.805 -12.094,-1.805 -4.209,0 -8.27,0.632 -12.095,1.805l-2.457 -3.578c4.568,-1.546 9.462,-2.385 14.552,-2.385 5.089,0 9.983,0.839 14.551,2.385l-2.457 3.578z"/>
   <path class="fil2" d="M95.825 366.96c3.825,1.173 7.886,1.806 12.095,1.806 4.208,0 8.269,-0.633 12.094,-1.806l2.457 3.578c-4.568,1.546 -9.462,2.385 -14.551,2.385 -5.09,0 -9.984,-0.839 -14.552,-2.385l2.457 -3.578zm55.064 -27.297l-27.851 0 0 2.457 27.851 0 0 -2.457zm-85.939 0l27.851 0 0 2.457 -27.851 0 0 -2.457z"/>
   <path class="fil25" d="M147.311 339.663c1.173,-3.824 1.805,-7.885 1.805,-12.094 0,-4.209 -0.632,-8.27 -1.805,-12.095l3.578 -2.456c1.546,4.567 2.385,9.461 2.385,14.551 0,5.09 -0.839,9.983 -2.385,14.551l-3.578 -2.457zm-78.783 -24.189c-1.173,3.825 -1.805,7.886 -1.805,12.095 0,4.209 0.632,8.269 1.805,12.094l-3.578 2.457c-1.546,-4.568 -2.385,-9.461 -2.385,-14.551 0,-5.09 0.839,-9.984 2.385,-14.551l3.578 2.456z"/>
   <path class="fil26" d="M92.801 339.663c1.666,0 3.024,1.359 3.024,3.024l-2.457 2.457c0,-1.666 -1.358,-3.024 -3.023,-3.024l2.456 -2.457z"/>
   <path class="fil27" d="M120.014 342.687c0,-1.665 1.358,-3.024 3.024,-3.024l2.456 2.457c-1.665,0 -3.023,1.358 -3.023,3.024l-2.457 -2.457z"/>
   <path class="fil28" d="M123.038 315.474c-1.666,0 -3.024,-1.358 -3.024,-3.023l2.457 -2.457c0,1.665 1.358,3.024 3.023,3.024l-2.456 2.456z"/>
   <path class="fil29" d="M95.825 312.451c0,1.665 -1.358,3.023 -3.024,3.023l-2.456 -2.456c1.665,0 3.023,-1.359 3.023,-3.024l2.457 2.457z"/>
   <circle class="fil30" cx="107.92" cy="327.569" r="9.449"/>
  </g>
 </g>
</svg>
