<?xml version="1.0" encoding="UTF-8"?>
<!DOCTYPE svg PUBLIC "-//W3C//DTD SVG 1.1//EN" "http://www.w3.org/Graphics/SVG/1.1/DTD/svg11.dtd">
<svg xml:space="preserve" viewBox="0 0 876 372" width="876px" height="372px" version="1.1" style="shape-rendering:geometricPrecision; fill-rule:evenodd; clip-rule:evenodd" xmlns="http://www.w3.org/2000/svg">
 <defs>
  <style type="text/css">
    .fil1 {fill:#E00000}
    .fil0 {fill:red}
  </style>
 </defs>
 <g>
  <path class="fil0" d="M127.931 251.176c0.826,0.835 1.331,1.965 1.331,3.095l0 42.774c7.596,2.573 15.736,3.969 24.201,3.969 8.466,0 16.606,-1.396 24.202,-3.969l0 -42.774c0,-1.13 0.505,-2.26 1.33,-3.095l-25.532 -25.532 -25.532 25.532z"/>
  <path class="fil1" d="M140.536 238.571c3.377,3.376 8.015,5.491 13.063,5.491 5.013,0 9.555,-2.086 12.859,-5.423l-12.995 -12.995 -12.927 12.927z"/>
  <path class="fil1" d="M142.452 259.549l22.295 0c0.57,0 1.032,0.463 1.032,1.033l0 14.943 4.205 0c0.272,0.003 0.544,0.11 0.746,0.323 0.392,0.411 0.376,1.064 -0.036,1.455l-16.385 15.566c-0.395,0.377 -1.021,0.381 -1.42,0l-16.331 -15.514c-0.23,-0.189 -0.377,-0.476 -0.377,-0.798 0,-0.57 0.463,-1.032 1.033,-1.032l4.205 0 0 -14.943c0,-0.57 0.462,-1.033 1.033,-1.033z"/>
 </g>
</svg>
