<?xml version="1.0" encoding="UTF-8"?>
<!DOCTYPE svg PUBLIC "-//W3C//DTD SVG 1.1//EN" "http://www.w3.org/Graphics/SVG/1.1/DTD/svg11.dtd">
<svg xml:space="preserve" viewBox="0 0 876 372" width="876px" height="372px" version="1.1" style="shape-rendering:geometricPrecision; fill-rule:evenodd; clip-rule:evenodd" xmlns="http://www.w3.org/2000/svg">
 <defs>
  <style type="text/css">
    .fil1 {fill:#E00000}
    .fil0 {fill:red}
  </style>
 </defs>
 <g>
  <path class="fil0" d="M127.983 200.164c-0.795,0.795 -1.902,1.279 -3.147,1.279l-42.773 0c-2.574,7.596 -3.97,15.736 -3.97,24.201 0,8.465 1.396,16.605 3.97,24.202l42.773 0c1.219,0 2.304,0.529 3.095,1.33l25.532 -25.532 -25.48 -25.48z"/>
  <path class="fil1" d="M140.469 212.65c-3.337,3.303 -5.424,7.845 -5.424,12.858 0,5.048 2.115,9.687 5.491,13.063l12.927 -12.927 -12.994 -12.994z"/>
  <path class="fil1" d="M119.694 214.496l0 22.296c0,0.57 -0.463,1.032 -1.033,1.032l-14.943 0 0 4.205c0,0.57 -0.462,1.033 -1.032,1.033 -0.322,0 -0.608,-0.147 -0.798,-0.377l-15.514 -16.331c-0.381,-0.399 -0.376,-1.025 0,-1.42l15.566 -16.385c0.392,-0.412 1.044,-0.428 1.455,-0.036 0.213,0.202 0.32,0.474 0.32,0.746l0.003 4.205 14.943 0c0.57,0 1.033,0.462 1.033,1.032z"/>
 </g>
</svg>
