<?xml version="1.0" encoding="UTF-8"?>
<!DOCTYPE svg PUBLIC "-//W3C//DTD SVG 1.1//EN" "http://www.w3.org/Graphics/SVG/1.1/DTD/svg11.dtd">
<svg xml:space="preserve" viewBox="0 0 876 372" width="876px" height="372px" version="1.1" style="shape-rendering:geometricPrecision; fill-rule:evenodd; clip-rule:evenodd" xmlns="http://www.w3.org/2000/svg">
 <defs>
  <style type="text/css">
    .fil1 {fill:#E00000}
    .fil0 {fill:red}
  </style>
 </defs>
 <g>
  <path class="fil0" d="M178.944 200.164c-0.795,-0.796 -1.279,-1.902 -1.279,-3.147l0 -42.774c-7.596,-2.573 -15.736,-3.969 -24.202,-3.969 -8.465,0 -16.605,1.396 -24.201,3.969l0 42.774c0,1.245 -0.484,2.351 -1.279,3.147l25.48 25.48 25.481 -25.48z"/>
  <path class="fil1" d="M166.526 212.581c-3.308,-3.309 -7.879,-5.355 -12.927,-5.355 -5.082,0 -9.749,2.075 -13.13,5.424l12.994 12.994 13.063 -13.063z"/>
  <path class="fil1" d="M164.747 191.739l-22.295 0c-0.571,0 -1.033,-0.463 -1.033,-1.033l0 -14.943 -4.205 0c-0.57,0 -1.033,-0.462 -1.033,-1.032 0,-0.322 0.147,-0.609 0.377,-0.798l16.331 -15.514c0.399,-0.381 1.025,-0.377 1.42,0l16.385 15.566c0.412,0.391 0.428,1.044 0.036,1.456 -0.202,0.212 -0.474,0.319 -0.746,0.319l-4.205 0.003 0 14.943c0,0.57 -0.462,1.033 -1.032,1.033z"/>
 </g>
</svg>
