<?xml version="1.0" encoding="UTF-8"?>
<!DOCTYPE svg PUBLIC "-//W3C//DTD SVG 1.1//EN" "http://www.w3.org/Graphics/SVG/1.1/DTD/svg11.dtd">
<svg xml:space="preserve" viewBox="0 0 876 372" width="876px" height="372px" version="1.1" style="shape-rendering:geometricPrecision; fill-rule:evenodd; clip-rule:evenodd" xmlns="http://www.w3.org/2000/svg">
 <defs>
  <style type="text/css">
    .fil1 {fill:#E00000}
    .fil0 {fill:red}
  </style>
 </defs>
 <g>
  <path class="fil0" d="M224.864 201.443l-42.774 0c-1.244,0 -2.351,-0.484 -3.146,-1.279l-25.481 25.48 25.532 25.532c0.792,-0.801 1.877,-1.33 3.095,-1.33l42.774 0c2.573,-7.597 3.97,-15.737 3.97,-24.202 0,-8.465 -1.397,-16.605 -3.97,-24.201z"/>
  <path class="fil1" d="M171.881 225.508c0,-5.047 -2.046,-9.618 -5.355,-12.927l-13.063 13.063 12.995 12.995c3.348,-3.382 5.423,-8.049 5.423,-13.131z"/>
  <path class="fil1" d="M187.504 236.792l0 -22.296c0,-0.57 0.463,-1.032 1.033,-1.032l14.943 0 0 -4.205c0.003,-0.272 0.11,-0.544 0.323,-0.746 0.411,-0.392 1.064,-0.376 1.455,0.036l15.567 16.385c0.376,0.395 0.38,1.021 0,1.42l-15.515 16.331c-0.189,0.23 -0.476,0.377 -0.798,0.377 -0.57,0 -1.032,-0.463 -1.032,-1.033l0 -4.205 -14.943 0c-0.57,0 -1.033,-0.462 -1.033,-1.032z"/>
 </g>
</svg>
