<?xml version="1.0" encoding="UTF-8"?>
<!DOCTYPE svg PUBLIC "-//W3C//DTD SVG 1.1//EN" "http://www.w3.org/Graphics/SVG/1.1/DTD/svg11.dtd">
<svg xml:space="preserve" viewBox="0 0 890 384" width="890px" height="384px" version="1.1" style="shape-rendering:geometricPrecision; fill-rule:evenodd; clip-rule:evenodd" xmlns="http://www.w3.org/2000/svg">
 <defs>
  <style type="text/css">
    .str2 {stroke:#1A1A1A;stroke-width:1.5}
    .str1 {stroke:#1A1A1A;stroke-width:5}
    .str0 {stroke:#1A1A1A;stroke-linejoin:round}
    .fil6 {fill:none}
    .fil8 {fill:black}
    .fil10 {fill:#0F0F0F}
    .fil7 {fill:#1A1A1A}
    .fil11 {fill:#202020}
    .fil14 {fill:#262626}
    .fil16 {fill:#CA0C14}
    .fil5 {fill:#D02020}
    .fil4 {fill:#E6E6E6}
    .fil3 {fill:#2C2C2E}
    .fil2 {fill:#38383B}
    .fil0 {fill:#5C5C61}
    .fil1 {fill:#808087}
    .fil17 {fill:black;fill-opacity:0.1}
    .fil15 {fill:black;fill-opacity:0.3}
    .fil12 {fill:black;fill-opacity:0.5}
    .fil9 {fill:url(#id0);fill-opacity:0.3}
  </style>
  <linearGradient id="id0" gradientUnits="userSpaceOnUse" x1="510.972" y1="304.624" x2="510.972" y2="227.361">
   <stop offset="0" style="stop-opacity:1; stop-color:white"/>
   <stop offset="0.2" style="stop-opacity:1; stop-color:white"/>
   <stop offset="0.5" style="stop-opacity:1; stop-color:#5C5C61"/>
   <stop offset="0.8" style="stop-opacity:1; stop-color:black"/>
   <stop offset="1" style="stop-opacity:1; stop-color:black"/>
  </linearGradient>
 </defs>
 <g>
  <path class="fil0" d="M825.982 3.35l-327.693 0c-8.264,0 -15.378,4.925 -18.567,11.999l-83.445 0c-3.188,-7.074 -10.303,-11.999 -18.566,-11.999l-327.693 0c-25.574,0 -46.306,20.733 -46.306,46.308l0 272.684c0,25.575 20.732,46.308 46.306,46.308l775.964 0c25.574,0 46.306,-20.733 46.306,-46.308l0 -272.684c0,-25.575 -20.732,-46.308 -46.306,-46.308z"/>
  <path class="fil1" d="M825.982 3.35l-327.693 0c-8.264,0 -15.378,4.925 -18.567,11.999l3.207 0c3.732,-4.287 9.229,-6.999 15.36,-6.999l327.693 0c25.574,0 46.306,20.733 46.306,46.308l0 -5c0,-25.575 -20.732,-46.308 -46.306,-46.308zm-429.705 11.999c-3.188,-7.074 -10.303,-11.999 -18.566,-11.999l-327.693 0c-25.574,0 -46.306,20.733 -46.306,46.308l0 5c0,-25.575 20.732,-46.308 46.306,-46.308l327.693 0c6.131,0 11.628,2.712 15.359,6.999l3.207 0z"/>
  <path class="fil2" d="M3.712 317.342l0 5c0,25.575 20.732,46.308 46.306,46.308l775.964 0c25.574,0 46.306,-20.733 46.306,-46.308l0 -5c0,25.575 -20.732,46.308 -46.306,46.308l-775.964 0c-25.574,0 -46.306,-20.733 -46.306,-46.308z"/>
  <path class="fil3" d="M854.288 127.594c-1.656,0 -3,-1.344 -3,-3l0 -34.171c0,-1.656 1.344,-2.999 3,-2.999l6.001 0c0,-12.59 0,-25.179 0,-37.768 0,-18.947 -15.36,-34.307 -34.307,-34.307l-346.26 0c0.474,-1.05 1.034,-2.053 1.672,-2.999l344.588 0c20.604,0 37.307,16.702 37.307,37.306 0,12.589 0,25.178 0,37.768 0,1.656 -1.344,2.999 -3,2.999l-6.001 0 0 34.171 6.001 0c1.656,0 3,1.343 3,3 0,64.916 0,129.834 0,194.75 0,20.604 -16.703,37.307 -37.307,37.307l-775.964 0c-20.604,0 -37.306,-16.703 -37.306,-37.307l0 -272.688c0,-20.604 16.702,-37.306 37.306,-37.306l344.588 0c0.637,0.946 1.198,1.949 1.671,2.999l-346.259 0c-18.947,0 -34.306,15.36 -34.306,34.307l0 272.688c0,18.947 15.359,34.307 34.306,34.307l775.964 0c18.947,0 34.307,-15.36 34.307,-34.307 0,-64.916 0,-129.834 0,-194.75l-6.001 0z"/>
  <path class="fil1" d="M825.982 15.349l-775.964 0c-18.947,0 -34.306,15.36 -34.306,34.307l0 5c0,-18.947 15.359,-34.306 34.306,-34.306l775.964 0c18.947,0 34.307,15.359 34.307,34.306l0 -5c0,-18.947 -15.36,-34.307 -34.307,-34.307z"/>
  <path class="fil2" d="M15.712 317.344l0 5c0,18.947 15.359,34.307 34.306,34.307l775.964 0c18.947,0 34.307,-15.36 34.307,-34.307l0 -5c0,18.947 -15.36,34.307 -34.307,34.307l-775.964 0c-18.947,0 -34.306,-15.36 -34.306,-34.307z"/>
  <path class="fil4 str0" d="M50.018 37.349l775.964 0c6.769,0 12.307,5.538 12.307,12.307l0 272.688c0,6.769 -5.538,12.307 -12.307,12.307l-341.774 0 0 -23.345c25.026,0 45.313,-20.287 45.313,-45.313 0,-25.026 -20.289,-45.313 -45.313,-45.313l-155.004 0c-25.023,0 -45.312,20.287 -45.312,45.313 0,25.026 20.287,45.313 45.312,45.313l0 23.345 -279.186 0c-6.769,0 -12.307,-5.538 -12.307,-12.307l0 -272.688c0,-6.769 5.538,-12.307 12.307,-12.307z"/>
  <path class="fil5" d="M111.267 75.741l-0.99 0c-0.595,0 -1.228,0.039 -1.981,0.079 -0.435,0.039 -0.752,0.039 -0.95,0.039 -0.634,0 -1.109,-0.158 -1.504,-0.435 -0.396,-0.277 -0.595,-0.673 -0.595,-1.109 0,-0.317 0.079,-0.594 0.278,-0.752 0.158,-0.198 0.435,-0.317 0.831,-0.436 0.356,-0.079 0.634,-0.237 0.753,-0.435 0.118,-0.198 0.237,-0.634 0.317,-1.228 0.079,-0.713 0.158,-2.059 0.198,-4.079 0.079,-2.019 0.079,-3.999 0.079,-6.019 0,-0.792 -0.079,-1.307 -0.198,-1.544 -0.119,-0.277 -0.396,-0.476 -0.832,-0.634 -0.633,-0.238 -0.95,-0.673 -0.95,-1.227 0,-0.436 0.237,-0.793 0.673,-1.07 0.435,-0.237 1.069,-0.396 1.861,-0.396 0.277,0 0.554,0 0.911,0 0.791,0.04 1.346,0.04 1.703,0.04 1.346,0 2.811,-0.04 4.514,-0.119 0.356,0 0.792,-0.039 1.307,-0.039 2.138,0 3.801,0.237 5.029,0.712 1.822,0.713 3.208,1.941 4.158,3.644 0.832,1.505 1.227,3.286 1.227,5.385 0,1.03 -0.158,2.099 -0.475,3.168 -0.316,1.069 -0.713,1.98 -1.227,2.733 -1.07,1.544 -2.575,2.653 -4.475,3.286 -1.109,0.357 -2.297,0.555 -3.564,0.555l-1.703 -0.04 -1.465 -0.04c-1.069,-0.039 -2.059,-0.039 -2.93,-0.039zm2.93 -15.088l0 10.771c0,0.594 0.119,0.991 0.356,1.228 0.238,0.238 0.673,0.356 1.267,0.356 2.693,0 4.079,-2.059 4.079,-6.177 0,-2.257 -0.317,-4.039 -0.95,-5.307 -0.713,-1.386 -1.861,-2.059 -3.524,-2.059 -0.436,0 -0.753,0.079 -0.951,0.277 -0.198,0.198 -0.277,0.475 -0.277,0.911zm26.968 8.87l-6.534 0c-0.278,0 -0.436,0.119 -0.436,0.357 0,0.594 0.317,1.188 0.99,1.703 0.673,0.514 1.346,0.792 2.099,0.792 0.436,0 0.95,-0.079 1.465,-0.278 0.555,-0.158 0.99,-0.396 1.346,-0.633 0.317,-0.238 0.555,-0.317 0.753,-0.317 0.237,0 0.475,0.159 0.713,0.436 0.238,0.317 0.356,0.594 0.356,0.911 0,0.673 -0.435,1.306 -1.267,1.94 -1.465,1.109 -3.168,1.663 -5.108,1.663 -1.941,0 -3.564,-0.554 -4.911,-1.703 -0.633,-0.554 -1.188,-1.227 -1.583,-2.019 -0.555,-1.03 -0.832,-2.138 -0.832,-3.327 0,-1.544 0.475,-2.969 1.425,-4.197 0.832,-1.07 1.861,-1.861 3.129,-2.416 0.95,-0.396 1.98,-0.594 3.089,-0.594 1.782,0 3.247,0.515 4.514,1.505 0.633,0.514 1.109,1.109 1.505,1.782 0.436,0.792 0.673,1.544 0.673,2.297 0,0.594 -0.119,1.108 -0.356,1.465 -0.317,0.436 -0.634,0.633 -1.03,0.633zm-6.178 -2.613l1.426 0c0.593,0 0.91,-0.277 0.91,-0.831 0,-0.515 -0.158,-0.911 -0.435,-1.228 -0.277,-0.317 -0.673,-0.475 -1.109,-0.475 -0.515,0 -0.911,0.198 -1.227,0.593 -0.278,0.396 -0.436,0.753 -0.436,1.149 0,0.277 0.079,0.475 0.198,0.594 0.079,0.119 0.317,0.198 0.673,0.198zm25.304 0.119l0.198 4.91c0,0.357 0.08,0.634 0.159,0.832 0.079,0.158 0.396,0.514 0.871,1.029 0.158,0.159 0.198,0.357 0.198,0.634 0,0.594 -0.356,1.029 -1.109,1.267 -0.752,0.238 -2.059,0.356 -3.92,0.356 -1.268,0 -2.178,-0.119 -2.733,-0.316 -0.554,-0.238 -0.831,-0.594 -0.831,-1.109 0,-0.198 0.04,-0.317 0.079,-0.396 0.04,-0.079 0.238,-0.317 0.554,-0.634 0.357,-0.396 0.555,-1.702 0.555,-3.881 0,-1.267 -0.159,-2.217 -0.436,-2.851 -0.237,-0.475 -0.673,-0.752 -1.346,-0.752 -0.634,0 -1.03,0.198 -1.268,0.594 -0.237,0.396 -0.356,1.109 -0.356,2.178l0 2.772c0,0.554 0.04,0.911 0.119,1.109 0.079,0.198 0.317,0.593 0.673,1.188 0.119,0.158 0.159,0.356 0.159,0.554 0,0.555 -0.396,0.951 -1.149,1.228 -0.752,0.277 -1.94,0.396 -3.564,0.396 -2.574,0 -3.881,-0.515 -3.881,-1.584 0,-0.238 0.04,-0.396 0.119,-0.515 0.08,-0.119 0.277,-0.277 0.554,-0.475 0.238,-0.158 0.396,-0.396 0.475,-0.594 0.08,-0.238 0.12,-0.792 0.199,-1.664 0.079,-1.069 0.079,-2.178 0.079,-3.326 0,-0.634 -0.04,-1.069 -0.158,-1.267 -0.08,-0.198 -0.396,-0.436 -0.832,-0.713 -0.396,-0.238 -0.594,-0.555 -0.594,-0.911 0,-0.356 0.158,-0.673 0.475,-0.911 0.317,-0.237 0.99,-0.554 2.02,-0.91 0.91,-0.317 1.742,-0.594 2.574,-0.792 0.831,-0.238 1.386,-0.317 1.703,-0.317 0.277,0 0.515,0.118 0.712,0.317 0.198,0.198 0.278,0.435 0.278,0.712 0,0.04 0,0.159 0,0.357 0,0.079 0,0.158 0,0.198 0,0.435 0.198,0.673 0.554,0.673 0.238,0 0.475,-0.158 0.713,-0.515 0.792,-1.148 1.94,-1.742 3.485,-1.742 1.188,0 2.178,0.317 3.009,0.911 0.594,0.435 0.99,0.95 1.228,1.544 0.237,0.396 0.396,1.267 0.435,2.416zm18.533 -9.188l0 12.712c0,0.713 0.04,1.188 0.079,1.386 0.08,0.198 0.238,0.396 0.515,0.594 0.317,0.238 0.555,0.436 0.674,0.594 0.118,0.158 0.158,0.396 0.158,0.634 0,0.752 -0.753,1.307 -2.257,1.702 -1.347,0.357 -2.693,0.515 -4.04,0.515 -0.316,0 -0.475,-0.04 -0.594,-0.119 -0.079,-0.079 -0.158,-0.316 -0.158,-0.633 -0.04,-0.475 -0.198,-0.713 -0.515,-0.713 -0.158,0 -0.396,0.158 -0.752,0.435 -0.951,0.753 -2.02,1.149 -3.169,1.149 -1.425,0 -2.732,-0.515 -3.88,-1.584 -0.673,-0.634 -1.228,-1.386 -1.624,-2.218 -0.554,-1.069 -0.832,-2.178 -0.832,-3.286 0,-1.307 0.357,-2.575 1.07,-3.802 0.673,-1.109 1.584,-1.98 2.732,-2.574 0.95,-0.515 1.901,-0.752 2.851,-0.752 1.07,0 2.06,0.237 2.892,0.712 0.158,0.08 0.237,0.119 0.316,0.119 0.317,0 0.436,-0.395 0.436,-1.188 0,-0.356 -0.079,-0.594 -0.238,-0.792 -0.159,-0.198 -0.435,-0.317 -0.871,-0.475 -0.594,-0.198 -0.871,-0.515 -0.871,-0.99 0,-0.674 0.673,-1.188 2.019,-1.584 2.376,-0.673 3.961,-0.99 4.792,-0.99 0.872,0 1.267,0.396 1.267,1.148zm-7.564 7.01c-0.593,0 -1.068,0.317 -1.425,0.95 -0.475,0.871 -0.713,1.98 -0.713,3.366 0,1.267 0.238,2.218 0.673,2.851 0.317,0.476 0.753,0.713 1.307,0.713 0.594,0 1.03,-0.356 1.307,-1.069 0.277,-0.713 0.396,-1.821 0.396,-3.405 0,-1.426 -0.158,-2.376 -0.475,-2.851 -0.238,-0.357 -0.594,-0.516 -1.07,-0.555zm23.088 3.881l-1.822 5.029c-0.436,1.267 -0.911,2.257 -1.386,3.088 -0.475,0.832 -0.99,1.466 -1.584,2.02 -1.188,1.149 -2.653,1.743 -4.356,1.743 -1.386,0 -2.495,-0.357 -3.326,-1.07 -0.673,-0.554 -0.991,-1.267 -0.991,-2.138 0,-0.713 0.238,-1.307 0.674,-1.821 0.435,-0.515 1.029,-0.714 1.703,-0.714 0.672,0 1.188,0.238 1.623,0.674 0.198,0.198 0.317,0.396 0.396,0.554 0.079,0.158 0.158,0.515 0.277,1.03 0.119,0.396 0.317,0.594 0.713,0.594 0.277,0 0.515,-0.119 0.713,-0.357 0.198,-0.237 0.278,-0.554 0.278,-0.95 0,-0.436 -0.239,-1.149 -0.714,-2.178l-3.365 -7.128c-0.357,-0.753 -0.634,-1.188 -0.793,-1.386 -0.158,-0.198 -0.554,-0.396 -1.188,-0.673 -0.198,-0.08 -0.356,-0.238 -0.475,-0.436 -0.119,-0.237 -0.198,-0.435 -0.198,-0.633 0,-0.832 0.832,-1.386 2.455,-1.703 1.109,-0.198 2.337,-0.277 3.762,-0.277 0.99,0 1.743,0.118 2.336,0.317 0.753,0.277 1.149,0.712 1.149,1.385 0,0.238 -0.119,0.515 -0.317,0.832 -0.198,0.317 -0.316,0.555 -0.316,0.792 0,0.238 0.039,0.436 0.158,0.713 0.079,0.238 0.317,0.634 0.633,1.228 0.356,0.633 0.673,0.99 0.951,0.99 0.277,0 0.593,-0.278 0.91,-0.872 0.317,-0.594 0.476,-1.108 0.476,-1.663 0,-0.436 -0.119,-0.792 -0.357,-1.03 -0.357,-0.435 -0.515,-0.791 -0.515,-1.069 0,-0.475 0.317,-0.831 0.951,-1.148 0.633,-0.278 1.465,-0.436 2.534,-0.436 1.98,0 2.97,0.476 2.97,1.426 0,0.357 -0.119,0.633 -0.317,0.832 -0.198,0.198 -0.554,0.395 -1.109,0.594 -0.435,0.158 -0.791,0.435 -1.069,0.831 -0.475,0.554 -0.91,1.584 -1.464,3.01zm-75.809 39.476l5.011 -23.58 3.76 0 -5.047 23.744c-0.377,1.771 -2.117,3.206 -3.887,3.206l-1.962 0 0.517 -2.435 0.473 0c0.517,0 1.024,-0.418 1.135,-0.935zm61.765 -7.043l0.135 10.413 -3.853 0 -0.132 -10.091 -0.045 0 -2.145 10.091 -3.759 0 5.728 -26.95 6.184 0c1.77,0 2.901,1.435 2.524,3.206l-2.22 10.447c-0.27,1.268 -1.239,2.364 -2.417,2.884zm-17.427 -13.331c0.376,-1.771 2.117,-3.206 3.887,-3.206l2.978 0c1.77,0 2.901,1.435 2.524,3.206l-4.365 20.538c-0.377,1.771 -2.117,3.206 -3.888,3.206l-2.977 0c-1.771,0 -2.901,-1.435 -2.524,-3.206l4.365 -20.538zm-27.939 20.538l5.046 -23.744 -3.759 0 -5.011 23.58c-0.11,0.517 -0.618,0.935 -1.135,0.935 -0.516,0 -0.847,-0.418 -0.737,-0.935l5.012 -23.58 -3.759 0 -5.047 23.744c-0.376,1.771 0.754,3.206 2.525,3.206l2.978 0c1.77,0 3.511,-1.435 3.887,-3.206zm31.663 -20.374l-4.296 20.21c-0.109,0.517 0.22,0.935 0.737,0.935 0.517,0 1.024,-0.418 1.134,-0.935l4.297 -20.21c0.109,-0.517 -0.221,-0.936 -0.737,-0.936 -0.517,0 -1.025,0.419 -1.135,0.936zm-6.328 -3.37l-5.728 26.95 -3.76 0 5.728 -26.95 3.76 0zm19.202 2.434c-0.861,4.05 -1.722,8.1 -2.582,12.151l0.935 0c0.516,0 1.025,-0.419 1.134,-0.936l2.186 -10.279c0.109,-0.517 -0.22,-0.936 -0.737,-0.936l-0.936 0zm-35.024 9.696l-3.15 14.82 -3.759 0 5.728 -26.95 3.759 0 -0.71 14.819 3.15 -14.819 3.759 0 -5.728 26.95 -3.76 0 0.711 -14.82z"/>
  <path class="fil6 str1" d="M37.711 276.738l248.9 0m240.191 0l311.487 0m0 12.508l-316.818 0m-229.529 0l-254.231 0"/>
  <path class="fil6 str2" d="M710.378 62.281l23.338 0 -0.001 23.409m-115.002 0l0.001 -23.41 23.336 0"/>
  <path class="fil7" d="M648.628 58.04l3.709 0 0 10.128 1.744 0 0 -10.128 3.693 0 0 -1.519 -9.146 0 0 1.519zm15.149 10.304c2.805,0 4.618,-1.738 4.618,-4.168l0 -7.655 -1.712 0 0 7.514c0,1.595 -1.103,2.741 -2.906,2.741 -1.797,0 -2.901,-1.146 -2.901,-2.741l0 -7.514 -1.713 0 0 7.655c0,2.43 1.806,4.168 4.614,4.168zm6.709 -0.176l1.728 0 0 -4.416 2.579 0c0.023,0 0.055,0 0.077,0l2.323 4.416 1.952 0 -2.515 -4.704c1.453,-0.522 2.336,-1.69 2.336,-3.317 0,-2.226 -1.563,-3.624 -4.056,-3.624l-4.424 0 0 11.645zm1.728 -5.888l0 -4.258 2.619 0c1.498,0 2.421,0.813 2.421,2.125 0,1.315 -0.915,2.133 -2.413,2.133l-2.627 0zm8.483 5.888l4.477 0c2.752,0 4.13,-1.29 4.13,-3.272 0,-1.661 -1.058,-2.573 -2.408,-2.76l0 -0.016c1.214,-0.373 1.945,-1.194 1.945,-2.536 0,-1.874 -1.4,-3.063 -3.798,-3.063l-4.346 0 0 11.647zm1.712 -1.456l0 -3.744 2.72 0c1.541,0 2.416,0.736 2.416,1.92 0,1.19 -0.899,1.824 -2.478,1.824l-2.658 0zm0 -5.168l0 -3.568 2.61 0c1.32,0 2.11,0.691 2.11,1.787 0,1.099 -0.79,1.781 -2.11,1.781l-2.61 0zm13.439 6.8c3.104,0 5.363,-2.434 5.363,-5.992 0,-3.573 -2.259,-6.008 -5.363,-6.008 -3.106,0 -5.357,2.435 -5.357,6.008 0,3.55 2.251,5.992 5.357,5.992zm0 -1.584c-2.01,0 -3.613,-1.576 -3.613,-4.408 0,-2.847 1.603,-4.424 3.613,-4.424 2.008,0 3.619,1.577 3.619,4.424 0,2.832 -1.611,4.408 -3.619,4.408z"/>
  <path class="fil8" d="M658.713 180.471c17.338,0 17.665,0 35.002,0 9.953,0 18.021,8.068 18.021,18.021 0,9.952 -8.068,18.02 -18.021,18.02 -17.337,0 -17.664,0 -35.002,0 -9.952,0 -18.02,-8.068 -18.02,-18.02 0,-9.953 8.068,-18.021 18.02,-18.021z"/>
  <path class="fil4" d="M657.438 210.14l9.867 0c5.295,0 8.149,-2.667 8.149,-6.56 0,-3.318 -2.182,-5.312 -5.019,-5.574l0 -0.032c2.549,-0.64 4.155,-2.437 4.155,-5.141 0,-3.59 -2.806,-5.99 -7.819,-5.99l-9.333 0 0 23.297zm4.704 -3.776l0 -6.208 4.565 0c2.427,0 3.851,1.216 3.851,3.157 0,1.941 -1.456,3.051 -3.925,3.051l-4.491 0zm0 -9.824l0 -5.92 4.272 0c2.112,0 3.408,1.146 3.408,2.965 0,1.808 -1.296,2.955 -3.408,2.955l-4.272 0zm14.32 13.6l5.189 0 1.686 -5.088 8.698 0 1.627 5.088 5.328 0 -8.171 -23.297 -6.186 0 -8.171 23.297zm8.171 -8.928l0.794 -2.406c0.752,-2.378 1.472,-4.752 2.315,-7.648 0.827,2.896 1.547,5.27 2.267,7.648l0.778 2.406 -6.154 0z"/>
  <path class="fil7" d="M321.634 207.683c2.642,0 4.346,-1.374 4.346,-3.464 0,-1.662 -1.075,-2.667 -3.408,-3.219l-1.259 -0.296c-1.605,-0.384 -2.229,-0.867 -2.229,-1.709 0,-1.051 0.992,-1.793 2.4,-1.793 1.469,0 2.424,0.819 2.512,2.152l1.672 0c-0.069,-2.269 -1.65,-3.666 -4.16,-3.666 -2.501,0 -4.136,1.352 -4.136,3.395 0,1.605 1.022,2.578 3.368,3.133l1.278 0.304c1.618,0.381 2.234,0.896 2.234,1.792 0,1.13 -1.04,1.856 -2.618,1.856 -1.744,0 -2.769,-0.904 -2.777,-2.44l-1.72 0c0,2.456 1.707,3.955 4.497,3.955zm6.01 -0.174l7.821 0 0 -1.52 -6.093 0 0 -3.667 5.64 0 0 -1.498 -5.64 0 0 -3.443 6.093 0 0 -1.52 -7.821 0 0 11.648zm9.421 0l7.235 0 0 -1.52 -5.507 0 0 -10.128 -1.728 0 0 11.648zm8.68 0l7.822 0 0 -1.52 -6.094 0 0 -3.667 5.641 0 0 -1.498 -5.641 0 0 -3.443 6.094 0 0 -1.52 -7.822 0 0 11.648zm14.403 0.176c2.541,0 4.509,-1.568 4.907,-4.04l-1.757 0c-0.369,1.576 -1.555,2.456 -3.134,2.456 -2.296,0 -3.701,-1.778 -3.701,-4.408 0,-2.645 1.405,-4.424 3.701,-4.424 1.587,0 2.781,0.888 3.125,2.472l1.766 0c-0.405,-2.48 -2.366,-4.056 -4.907,-4.056 -3.219,0 -5.429,2.427 -5.429,6.008 0,3.557 2.218,5.992 5.429,5.992zm5.896 -10.304l3.709 0 0 10.128 1.744 0 0 -10.128 3.694 0 0 -1.52 -9.147 0 0 1.52z"/>
  <path class="fil7" d="M447.898 207.683c2.643,0 4.347,-1.374 4.347,-3.464 0,-1.662 -1.075,-2.667 -3.408,-3.219l-1.259 -0.296c-1.605,-0.384 -2.229,-0.867 -2.229,-1.709 0,-1.051 0.992,-1.793 2.4,-1.793 1.469,0 2.424,0.819 2.512,2.152l1.672 0c-0.069,-2.269 -1.651,-3.666 -4.16,-3.666 -2.502,0 -4.136,1.352 -4.136,3.395 0,1.605 1.021,2.578 3.368,3.133l1.277 0.304c1.619,0.381 2.235,0.896 2.235,1.792 0,1.13 -1.04,1.856 -2.619,1.856 -1.744,0 -2.768,-0.904 -2.776,-2.44l-1.72 0c0,2.456 1.707,3.955 4.496,3.955zm5.059 -10.302l3.709 0 0 10.128 1.744 0 0 -10.128 3.694 0 0 -1.52 -9.147 0 0 1.52zm8.093 10.128l1.843 0 1.064 -3.024 4.69 0 1.032 3.024 1.883 0 -4.195 -11.648 -2.093 0 -4.224 11.648zm3.429 -4.496l0.726 -2.064c0.32,-0.963 0.656,-1.989 1.125,-3.498 0.461,1.509 0.789,2.535 1.11,3.498l0.701 2.064 -3.662 0zm8.288 4.496l1.728 0 0 -4.416 2.579 0c0.024,0 0.056,0 0.077,0l2.323 4.416 1.952 0 -2.515 -4.704c1.453,-0.523 2.336,-1.69 2.336,-3.317 0,-2.227 -1.563,-3.624 -4.056,-3.624l-4.424 0 0 11.645zm1.728 -5.888l0 -4.258 2.619 0c1.499,0 2.421,0.813 2.421,2.125 0,1.314 -0.914,2.133 -2.413,2.133l-2.627 0zm7.454 -4.24l3.709 0 0 10.128 1.744 0 0 -10.128 3.693 0 0 -1.52 -9.146 0 0 1.52z"/>
  <path class="fil9" d="M329.204 304.625c-21.335,0 -38.632,-17.296 -38.632,-38.632 0,-21.336 17.296,-38.632 38.632,-38.632 51.668,0 103.336,0 155.004,0 21.336,0 38.632,17.296 38.632,38.632 0,21.336 -17.296,38.632 -38.632,38.632 -51.668,0 -103.336,0 -155.004,0z"/>
  <path class="fil0" d="M484.208 243.7c12.312,0 22.293,9.981 22.293,22.293 0,12.312 -9.981,22.293 -22.293,22.293l-155.004 0c-12.311,0 -22.292,-9.981 -22.292,-22.293 0,-12.312 9.98,-22.293 22.292,-22.293l155.004 0z"/>
  <path class="fil8" d="M373.124 251.687c7.901,0 14.306,6.405 14.306,14.306 0,7.902 -6.405,14.307 -14.306,14.307l-43.92 0c-7.901,0 -14.306,-6.405 -14.306,-14.307 0,-7.901 6.405,-14.306 14.306,-14.306l43.92 0z"/>
  <path class="fil8" d="M484.209 251.687c7.901,0 14.306,6.405 14.306,14.306 0,7.902 -6.405,14.307 -14.306,14.307l-43.92 0c-7.901,0 -14.306,-6.405 -14.306,-14.307 0,-7.901 6.405,-14.306 14.306,-14.306l43.92 0z"/>
  <circle class="fil0 str0" cx="153.497" cy="225.677" r="85.583"/>
  <circle class="fil8" cx="153.519" cy="225.7" r="78.925"/>
  <circle class="fil10" cx="153.463" cy="225.644" r="75.37"/>
  <path class="fil11" d="M224.864 201.443l-42.774 0c-2.489,0 -4.425,-1.937 -4.425,-4.426l0 -42.774c-7.596,-2.573 -15.736,-3.969 -24.202,-3.969 -8.465,0 -16.605,1.396 -24.201,3.969l0 42.774c0,2.489 -1.936,4.426 -4.426,4.426l-42.773 0c-2.574,7.596 -3.97,15.736 -3.97,24.201 0,8.465 1.396,16.605 3.97,24.202l42.773 0c2.49,0 4.426,2.212 4.426,4.425l0 42.774c7.596,2.573 15.736,3.969 24.201,3.969 8.466,0 16.606,-1.396 24.202,-3.969l0 -42.774c0,-2.213 1.936,-4.425 4.425,-4.425l42.774 0c2.573,-7.597 3.97,-15.737 3.97,-24.202 0,-8.465 -1.397,-16.605 -3.97,-24.201z"/>
  <path class="fil12" d="M142.452 259.549l22.295 0c0.57,0 1.032,0.463 1.032,1.033l0 14.943 4.205 0c0.272,0.003 0.544,0.11 0.746,0.323 0.392,0.411 0.376,1.064 -0.036,1.455l-16.385 15.566c-0.395,0.377 -1.021,0.381 -1.42,0l-16.331 -15.514c-0.23,-0.189 -0.377,-0.476 -0.377,-0.798 0,-0.57 0.463,-1.032 1.033,-1.032l4.205 0 0 -14.943c0,-0.57 0.462,-1.033 1.033,-1.033zm45.052 -22.757l0 -22.296c0,-0.57 0.463,-1.032 1.033,-1.032l14.943 0 0 -4.205c0.003,-0.272 0.11,-0.544 0.323,-0.746 0.411,-0.392 1.064,-0.376 1.455,0.036l15.567 16.385c0.376,0.395 0.38,1.021 0,1.42l-15.515 16.331c-0.189,0.23 -0.476,0.377 -0.798,0.377 -0.57,0 -1.032,-0.463 -1.032,-1.033l0 -4.205 -14.943 0c-0.57,0 -1.033,-0.462 -1.033,-1.032zm-67.81 -22.296l0 22.296c0,0.57 -0.463,1.032 -1.033,1.032l-14.943 0 0 4.205c0,0.57 -0.462,1.033 -1.032,1.033 -0.322,0 -0.608,-0.147 -0.798,-0.377l-15.514 -16.331c-0.381,-0.399 -0.376,-1.025 0,-1.42l15.566 -16.385c0.392,-0.412 1.044,-0.428 1.455,-0.036 0.213,0.202 0.32,0.474 0.32,0.746l0.003 4.205 14.943 0c0.57,0 1.033,0.462 1.033,1.032zm52.187 11.012c0,-10.095 -8.186,-18.282 -18.282,-18.282 -10.095,0 -18.554,8.187 -18.554,18.282 0,10.095 8.459,18.554 18.554,18.554 10.096,0 18.282,-8.459 18.282,-18.554zm-7.134 -33.769l-22.295 0c-0.571,0 -1.033,-0.463 -1.033,-1.033l0 -14.943 -4.205 0c-0.57,0 -1.033,-0.462 -1.033,-1.032 0,-0.322 0.147,-0.609 0.377,-0.798l16.331 -15.514c0.399,-0.381 1.025,-0.377 1.42,0l16.385 15.566c0.412,0.391 0.428,1.044 0.036,1.456 -0.202,0.212 -0.474,0.319 -0.746,0.319l-4.205 0.003 0 14.943c0,0.57 -0.462,1.033 -1.032,1.033z"/>
  <circle class="fil0 str0" cx="618.713" cy="265.993" r="45.3"/>
  <circle class="fil8" cx="618.713" cy="265.993" r="38.619"/>
  <circle class="fil0 str0" cx="733.716" cy="265.993" r="45.3"/>
  <circle class="fil8" cx="733.716" cy="265.993" r="38.619"/>
  <circle class="fil0 str0" cx="618.713" cy="130.99" r="45.3"/>
  <circle class="fil0 str0" cx="733.716" cy="130.99" r="45.3"/>
  <circle class="fil8" cx="618.713" cy="130.99" r="38.619"/>
  <circle class="fil8" cx="733.716" cy="130.99" r="38.619"/>
  <circle class="fil14" cx="618.713" cy="265.993" r="36.623"/>
  <path class="fil15" d="M618.713 233.971c16.145,0 29.499,11.947 31.703,27.483 0.094,0.664 -0.241,1.287 -0.848,1.574 -0.607,0.287 -1.115,-0.145 -1.757,-0.344 -6.055,-1.879 -16.823,-6.275 -29.098,-6.275 -12.276,0 -23.044,4.398 -29.099,6.277 -0.641,0.199 -1.149,0.631 -1.756,0.344 -0.607,-0.287 -0.943,-0.91 -0.848,-1.575 2.203,-15.535 15.558,-27.484 31.703,-27.484z"/>
  <path class="fil14" d="M329.204 278.304c-6.798,0 -12.31,-5.512 -12.31,-12.311 0,-6.799 5.511,-12.311 12.31,-12.311l43.92 0c6.799,0 12.31,5.512 12.31,12.311 0,6.799 -5.512,12.311 -12.31,12.311l-43.92 0z"/>
  <path class="fil14" d="M440.29 278.304c-6.799,0 -12.311,-5.512 -12.311,-12.311 0,-6.799 5.512,-12.311 12.311,-12.311l43.919 0c6.799,0 12.311,5.512 12.311,12.311 0,6.799 -5.512,12.311 -12.311,12.311l-43.919 0z"/>
  <circle class="fil14" cx="733.716" cy="265.993" r="36.623"/>
  <path class="fil15" d="M733.716 233.971c16.144,0 29.499,11.947 31.702,27.483 0.095,0.664 -0.241,1.287 -0.848,1.574 -0.607,0.287 -1.115,-0.145 -1.756,-0.344 -6.055,-1.879 -16.823,-6.275 -29.098,-6.275 -12.276,0 -23.044,4.398 -29.099,6.277 -0.641,0.199 -1.149,0.631 -1.757,0.344 -0.606,-0.287 -0.942,-0.91 -0.848,-1.575 2.204,-15.535 15.559,-27.484 31.704,-27.484z"/>
  <circle class="fil16" cx="618.713" cy="130.99" r="36.623"/>
  <path class="fil17" d="M618.713 98.967c16.145,0 29.499,11.948 31.703,27.483 0.094,0.665 -0.241,1.288 -0.848,1.575 -0.607,0.287 -1.115,-0.146 -1.757,-0.345 -6.055,-1.878 -16.823,-6.274 -29.098,-6.274 -12.276,0 -23.044,4.398 -29.099,6.276 -0.641,0.199 -1.149,0.632 -1.756,0.345 -0.607,-0.287 -0.943,-0.91 -0.848,-1.575 2.203,-15.536 15.558,-27.485 31.703,-27.485z"/>
  <circle class="fil16" cx="733.716" cy="130.99" r="36.623"/>
  <path class="fil17" d="M733.716 98.967c16.144,0 29.499,11.948 31.702,27.483 0.095,0.665 -0.241,1.288 -0.848,1.575 -0.607,0.287 -1.115,-0.146 -1.756,-0.345 -6.055,-1.878 -16.823,-6.274 -29.098,-6.274 -12.276,0 -23.044,4.398 -29.099,6.276 -0.641,0.199 -1.149,0.632 -1.757,0.345 -0.606,-0.287 -0.942,-0.91 -0.848,-1.575 2.204,-15.536 15.559,-27.485 31.704,-27.485z"/>
 </g>
</svg>
