<?xml version="1.0" encoding="UTF-8"?>
<!DOCTYPE svg PUBLIC "-//W3C//DTD SVG 1.1//EN" "http://www.w3.org/Graphics/SVG/1.1/DTD/svg11.dtd">
<svg xml:space="preserve" viewBox="0 0 594 420" width="594px" height="420px" version="1.1" style="shape-rendering:geometricPrecision; fill-rule:evenodd; clip-rule:evenodd" xmlns="http://www.w3.org/2000/svg" xmlns:xlink="http://www.w3.org/1999/xlink">
 <defs>
  <style type="text/css">
    .str2 {stroke:#72A7DA;stroke-width:2}
    .fil12 {fill:none}
    .fil11 {fill:white;fill-opacity:0.5}
    .fil10 {fill:url(#id2)}
  </style>
  <linearGradient id="id2" gradientUnits="objectBoundingBox" x1="50%" y1="100%" x2="50%" y2="25%">
   <stop offset="0" style="stop-opacity:1; stop-color:#2C2C2C"/>
   <stop offset="1" style="stop-opacity:1; stop-color:#444444"/>
  </linearGradient>
 </defs>
 <g>
  <g id="button-cross">
   <circle class="fil10" cx="465.93" cy="247.907" r="19.276"/>
   <path class="fil11" d="M465.93 230.014c8.074,0 14.899,5.347 17.126,12.693 0.042,0.142 -0.031,0.291 -0.169,0.343 -0.142,0.054 -0.301,-0.016 -0.358,-0.157 -2.65,-6.567 -9.083,-11.201 -16.599,-11.201 -7.517,0 -13.952,4.636 -16.6,11.205 -0.057,0.14 -0.216,0.211 -0.358,0.157 -0.138,-0.052 -0.211,-0.201 -0.169,-0.342 2.226,-7.349 9.052,-12.698 17.127,-12.698z"/>
   <path class="fil12 str2" d="M456.309 238.286l19.242 19.241m-19.242 0l19.242 -19.241"/>
  </g>
 </g>
</svg>
