<?xml version="1.0" encoding="UTF-8"?>
<!DOCTYPE svg PUBLIC "-//W3C//DTD SVG 1.1//EN" "http://www.w3.org/Graphics/SVG/1.1/DTD/svg11.dtd">
<svg xml:space="preserve" viewBox="0 0 594 420" width="594px" height="420px" version="1.1" style="shape-rendering:geometricPrecision; fill-rule:evenodd; clip-rule:evenodd" xmlns="http://www.w3.org/2000/svg" xmlns:xlink="http://www.w3.org/1999/xlink">
 <defs>
  <style type="text/css">
    .str0 {stroke:#FF69F8;stroke-width:2}
    .fil12 {fill:none}
    .fil11 {fill:white;fill-opacity:0.5}
    .fil10 {fill:url(#id2)}
  </style>
  <linearGradient id="id2" gradientUnits="objectBoundingBox" x1="50%" y1="100%" x2="50%" y2="25%">
   <stop offset="0" style="stop-opacity:1; stop-color:#2C2C2C"/>
   <stop offset="1" style="stop-opacity:1; stop-color:#444444"/>
  </linearGradient>
 </defs>
 <g>
  <g id="button-square">
   <circle class="fil10" cx="421.096" cy="203.072" r="19.276"/>
   <path class="fil11" d="M421.096 185.179c8.073,0 14.898,5.347 17.125,12.694 0.043,0.141 -0.03,0.29 -0.168,0.342 -0.142,0.054 -0.301,-0.016 -0.358,-0.157 -2.65,-6.567 -9.083,-11.2 -16.599,-11.2 -7.518,0 -13.952,4.636 -16.6,11.204 -0.057,0.141 -0.216,0.211 -0.358,0.157 -0.138,-0.052 -0.212,-0.201 -0.169,-0.342 2.226,-7.348 9.052,-12.698 17.127,-12.698z"/>
   <rect class="fil12 str0" x="411.475" y="193.451" width="19.242" height="19.242"/>
  </g>
 </g>
</svg>
