<?xml version="1.0" encoding="UTF-8"?>
<!DOCTYPE svg PUBLIC "-//W3C//DTD SVG 1.1//EN" "http://www.w3.org/Graphics/SVG/1.1/DTD/svg11.dtd">
<svg xml:space="preserve" viewBox="0 0 594 420" width="594px" height="420px" version="1.1" style="shape-rendering:geometricPrecision; fill-rule:evenodd; clip-rule:evenodd" xmlns="http://www.w3.org/2000/svg" xmlns:xlink="http://www.w3.org/1999/xlink">
 <defs>
  <style type="text/css">
    .fil0 {fill:red}
    .fil1 {fill:white}
  </style>
 </defs>
 <g>
  <path class="fil0" d="M177.069 115.387l101.044 0c5.733,2.682 12.128,4.183 18.876,4.183 6.747,0 13.143,-1.501 18.876,-4.183l101.038 0 1.341 -7.908c0.596,-3.149 1.189,-6.225 1.923,-9.338 0.474,-1.921 0.987,-3.761 1.684,-5.604 0.969,-2.456 2.004,-4.165 3.835,-5.971 1.933,-1.847 4.051,-3.384 6.303,-4.707l0.001 -0.002 -0.066 0.039 0 -5.052c0,-3.278 1.984,-6.067 5.081,-7.141 3.705,-1.285 7.312,-2.154 11.265,-2.82 4.283,-0.72 8.191,-1.056 12.477,-1.233 1.545,-0.063 3.248,-0.117 5.184,-0.117 1.936,0 3.64,0.054 5.185,0.117 4.292,0.177 8.218,0.517 12.476,1.233 3.898,0.656 7.584,1.538 11.271,2.811 3.103,1.071 5.092,3.863 5.092,7.145l0 5.068c2.22,1.311 4.328,2.844 6.219,4.659 1.822,1.78 2.877,3.541 3.836,5.971 0.697,1.855 1.204,3.674 1.684,5.604 0.732,3.116 1.325,6.187 1.923,9.338l3.337 19.672 -0.002 0c19.533,13.152 33.714,33.642 38.591,57.52l36.777 162.889c0.983,4.353 1.457,8.702 1.458,12.985 0.002,32.562 -26.398,58.971 -58.961,58.961 -18.737,-0.007 -37.157,-8.939 -48.582,-25.546l-53.42 -77.65c-10.161,17.382 -29.017,29.062 -50.605,29.062 -26.232,0 -48.435,-17.241 -55.9,-41.009l-58.648 0c-7.465,23.768 -29.668,41.009 -55.899,41.009 -21.589,0 -40.445,-11.68 -50.606,-29.062l-53.42 77.65c-11.425,16.607 -29.845,25.539 -48.582,25.546 -32.563,0.01 -58.963,-26.399 -58.961,-58.961 0.001,-4.283 0.475,-8.632 1.458,-12.985l36.777 -162.889c4.877,-23.878 19.058,-44.368 38.591,-57.52l-0.002 0 3.337 -19.672c0.596,-3.149 1.188,-6.225 1.923,-9.338 0.473,-1.921 0.987,-3.761 1.684,-5.604 0.969,-2.456 2.003,-4.165 3.835,-5.971 1.909,-1.824 3.999,-3.346 6.22,-4.658l0 -5.069c0,-3.282 1.989,-6.074 5.092,-7.145 3.687,-1.273 7.373,-2.155 11.271,-2.811 4.258,-0.716 8.184,-1.056 12.476,-1.233 1.545,-0.063 3.249,-0.117 5.185,-0.117 1.936,0 3.639,0.054 5.184,0.117 4.286,0.177 8.194,0.513 12.477,1.233 3.953,0.666 7.56,1.535 11.265,2.82 3.097,1.074 5.081,3.863 5.081,7.141l0 5.052c2.227,1.314 4.341,2.851 6.236,4.67 1.823,1.78 2.878,3.541 3.837,5.971 0.696,1.855 1.204,3.674 1.683,5.604 0.733,3.116 1.326,6.187 1.923,9.338l1.342 7.908zm322.868 -104.226l0 45.806c0,2.082 -1.697,3.78 -3.779,3.78l-60.473 0c-2.081,0 -3.779,-1.698 -3.779,-3.78l0 -45.806c0,-2.397 1.405,-4.439 3.643,-5.296 9.432,-3.609 19.67,-5.591 30.373,-5.591 10.702,0 20.94,1.982 30.372,5.591 2.238,0.857 3.643,2.899 3.643,5.296zm-337.889 0l0 45.806c0,2.082 -1.698,3.78 -3.779,3.78l-60.473 0c-2.082,0 -3.779,-1.698 -3.779,-3.78l0 -45.806c0,-2.397 1.405,-4.439 3.643,-5.296 9.432,-3.609 19.67,-5.591 30.372,-5.591 10.702,0 20.941,1.982 30.373,5.591 2.238,0.857 3.643,2.899 3.643,5.296z"/>
  <path class="fil1" d="M296.989 155.476c34.442,0 62.362,27.919 62.362,62.362 0,34.443 -27.92,62.362 -62.362,62.362 -34.443,0 -62.363,-27.919 -62.363,-62.362 0,-34.443 27.92,-62.362 62.363,-62.362zm7.779 65.5c1.137,1.138 1.137,2.996 0,4.133l-5.823 5.823 2.457 2.456c0.868,0.871 0.868,2.28 0,3.151l-5.774 5.772c-5.097,5.097 -12.722,6.121 -18.837,3.074l-12.689 12.691c8.958,7.331 20.407,11.731 32.887,11.731 28.701,0 51.969,-23.267 51.969,-51.969 0,-12.48 -4.4,-23.929 -11.732,-32.887l-12.68 12.68c3.048,6.112 2.024,13.741 -3.073,18.839l-5.775 5.774c-0.867,0.869 -2.277,0.869 -3.148,0l-19.947 -19.95c-0.872,-0.868 -0.872,-2.279 0,-3.148l5.772 -5.775c5.091,-5.089 12.704,-6.119 18.813,-3.085l12.687 -12.687c-8.957,-7.332 -20.408,-11.731 -32.886,-11.731 -28.702,0 -51.97,23.268 -51.97,51.97 0,12.479 4.399,23.929 11.731,32.887l12.696 -12.695c-3.034,-6.11 -2.006,-13.727 3.083,-18.815l5.775 -5.774c0.871,-0.871 2.28,-0.871 3.148,0l2.444 2.442 5.823 -5.823c1.137,-1.137 2.998,-1.137 4.135,0 1.137,1.139 1.137,2.996 0,4.134l-5.823 5.823 6.779 6.782 5.823 -5.823c1.138,-1.137 2.998,-1.137 4.135,0z"/>
 </g>
</svg>
