<?xml version="1.0" encoding="UTF-8"?>
<!DOCTYPE svg PUBLIC "-//W3C//DTD SVG 1.1//EN" "http://www.w3.org/Graphics/SVG/1.1/DTD/svg11.dtd">
<svg xml:space="preserve" viewBox="0 0 594 394" width="594px" height="394px" version="1.1" style="shape-rendering:geometricPrecision; fill-rule:evenodd; clip-rule:evenodd" xmlns="http://www.w3.org/2000/svg" xmlns:xlink="http://www.w3.org/1999/xlink">
 <defs>
  <style type="text/css">
    .str0 {stroke:white;stroke-width:2;stroke-opacity:0.5}
    .fil3 {fill:none}
    .fil0 {fill:red}
    .fil2 {fill:white;fill-opacity:0.4}
  </style>
 </defs>
 <g>
  <g id="pressed-button-triangle">
   <circle class="fil0" cx="465.93" cy="158.237" r="19.276"/>
   <path class="fil2" d="M465.93 140.344c8.074,0 14.899,5.348 17.126,12.694 0.042,0.141 -0.031,0.29 -0.169,0.343 -0.142,0.054 -0.301,-0.016 -0.358,-0.157 -2.65,-6.567 -9.083,-11.201 -16.599,-11.201 -7.517,0 -13.952,4.636 -16.6,11.204 -0.057,0.141 -0.216,0.211 -0.358,0.158 -0.138,-0.052 -0.211,-0.202 -0.169,-0.343 2.226,-7.348 9.052,-12.698 17.127,-12.698z"/>
   <polygon class="fil3 str0" points="465.93,146.111 471.542,155.832 477.155,165.552 465.93,165.552 454.706,165.552 460.318,155.832 "/>
  </g>
 </g>
</svg>
