<?xml version="1.0" encoding="UTF-8"?>
<!DOCTYPE svg PUBLIC "-//W3C//DTD SVG 1.1//EN" "http://www.w3.org/Graphics/SVG/1.1/DTD/svg11.dtd">
<svg xml:space="preserve" viewBox="0 0 594 420" width="594px" height="420px" version="1.1" style="shape-rendering:geometricPrecision; fill-rule:evenodd; clip-rule:evenodd" xmlns="http://www.w3.org/2000/svg" xmlns:xlink="http://www.w3.org/1999/xlink">
 <defs>
  <style type="text/css">
    .fil0 {fill:red}
  </style>
 </defs>
 <g>
  <path id="pressed-L1" class="fil0" d="M128.041 65.533c1.936,0 3.639,0.054 5.184,0.117 4.286,0.177 8.194,0.513 12.477,1.233 3.953,0.666 7.56,1.535 11.265,2.82 3.097,1.074 5.081,3.863 5.081,7.141l0 5.052c-0.709,-0.418 -1.43,-0.814 -2.159,-1.189 -3.034,-1.519 -6.002,-2.599 -9.24,-3.503 -4.321,-1.154 -8.523,-1.813 -12.955,-2.23 -3.254,-0.256 -6.39,-0.377 -9.653,-0.406 -3.262,0.029 -6.4,0.15 -9.653,0.406 -4.433,0.417 -8.633,1.076 -12.954,2.23 -3.242,0.903 -6.204,1.985 -9.242,3.503 -0.737,0.381 -1.463,0.78 -2.175,1.201l0 -5.069c0,-3.282 1.989,-6.074 5.092,-7.145 3.687,-1.273 7.373,-2.155 11.271,-2.811 4.258,-0.716 8.184,-1.056 12.476,-1.233 1.545,-0.063 3.249,-0.117 5.185,-0.117z"/>
 </g>
</svg>
