<?xml version="1.0" encoding="UTF-8"?>
<!DOCTYPE svg PUBLIC "-//W3C//DTD SVG 1.1//EN" "http://www.w3.org/Graphics/SVG/1.1/DTD/svg11.dtd">
<svg xml:space="preserve" viewBox="0 0 930 426" width="930px" height="426px" version="1.1" style="shape-rendering:geometricPrecision; fill-rule:evenodd; clip-rule:evenodd" xmlns="http://www.w3.org/2000/svg">
 <defs>
  <style type="text/css">
    .str0 {stroke:#101010}
    .fil2 {fill:#1A1A1A}
    .fil7 {fill:#333333}
    .fil8 {fill:#353635}
    .fil10 {fill:#404040}
    .fil9 {fill:#4D4D4D}
    .fil11 {fill:#5C5C5C}
    .fil6 {fill:#CCCCCC}
    .fil5 {fill:#1F1F1F}
    .fil1 {fill:url(#id0)}
    .fil3 {fill:url(#id1)}
    .fil4 {fill:url(#id2)}
    .fil0 {fill:url(#id3)}
  </style>
  <linearGradient id="id0" gradientUnits="userSpaceOnUse" x1="465" y1="63.017" x2="465" y2="20.305">
   <stop offset="0" style="stop-opacity:1; stop-color:#333333"/>
   <stop offset="0.25" style="stop-opacity:1; stop-color:#1A1A1A"/>
   <stop offset="1" style="stop-opacity:1; stop-color:#1A1A1A"/>
  </linearGradient>
  <linearGradient id="id1" gradientUnits="userSpaceOnUse" x1="331.931" y1="131.015" x2="598.069" y2="131.015">
   <stop offset="0" style="stop-opacity:1; stop-color:#282828"/>
   <stop offset="0.5" style="stop-opacity:1; stop-color:#333333"/>
   <stop offset="1" style="stop-opacity:1; stop-color:#282828"/>
  </linearGradient>
  <linearGradient id="id2" gradientUnits="userSpaceOnUse" x1="351.896" y1="130.846" x2="576.611" y2="130.846">
   <stop offset="0" style="stop-opacity:1; stop-color:#3C3C3C"/>
   <stop offset="0.5" style="stop-opacity:1; stop-color:#474747"/>
   <stop offset="1" style="stop-opacity:1; stop-color:#3C3C3C"/>
  </linearGradient>
  <linearGradient id="id3" gradientUnits="userSpaceOnUse" x1="4.5" y1="239.915" x2="925.5" y2="239.915">
   <stop offset="0" style="stop-opacity:1; stop-color:#1A1A1A"/>
   <stop offset="0.05" style="stop-opacity:1; stop-color:#333333"/>
   <stop offset="0.95" style="stop-opacity:1; stop-color:#333333"/>
   <stop offset="1" style="stop-opacity:1; stop-color:#1A1A1A"/>
  </linearGradient>
 </defs>
 <g>
  <g id="shell">
   <path class="fil0" d="M19.504 421.71l890.992 0c8.264,0 15.004,-6.74 15.004,-15.003l0 -333.69c0,-7.634 -5.632,-13.985 -13.211,-14.897l-894.578 0c-7.579,0.912 -13.211,7.263 -13.211,14.897l0 333.69c0,8.263 6.74,15.003 15.004,15.003z"/>
   <polygon class="fil1" points="912.289,58.12 598.069,20.305 331.931,20.305 17.711,58.12 81.312,63.017 848.688,63.017 "/>
   <path class="fil2" d="M465 260.743c73.492,0 133.069,-59.578 133.069,-133.07l0 -3.001c0,73.492 -59.577,133.07 -133.069,133.07 -73.492,0 -133.069,-59.578 -133.069,-133.07l0 3.001c0,73.492 59.577,133.07 133.069,133.07z"/>
   <path class="fil3" d="M465 257.742c73.492,0 133.069,-59.578 133.069,-133.07l0 -115.378c0,-2.756 -2.248,-5.004 -5.004,-5.004 -86.912,0 -169.218,0 -256.13,0 -2.756,0 -5.004,2.248 -5.004,5.004l0 115.378c0,73.492 59.577,133.07 133.069,133.07z"/>
   <path class="fil4" d="M557.596 142.529l11.101 0 0 -4.139 -11.101 0 0 4.139zm1.377 -22.89c-9.724,0 -17.586,7.862 -17.586,17.586 0,9.724 7.862,17.689 17.586,17.689 9.724,0 17.638,-7.863 17.638,-17.638 -0.051,-9.724 -7.914,-17.637 -17.638,-17.637zm-6.001 24.913l-5.576 0 0 -1.964 1.802 0.001 0 -10.302 -1.751 0 0 -2.023 3.774 0 0 12.325 1.751 0 0 1.963 0 0zm17.637 -10.574l-1.802 0 0 -1.802 -11.312 0 0 4.301 12.111 0 1.063 1.063 0 5.686 -1.326 1.326 -12.375 0 -1.327 -1.326 0 -11.79 1.224 -1.224 12.699 0.001 1.114 1.113 -0.069 2.652 0 0 0 0zm-115.548 -6.375l5.788 0 0 26.937 -8.125 0c-1.751,0 -3.876,-1.327 -3.876,-3.4l0 -40.639c0,-1.7 1.802,-3.561 3.824,-3.561l4.412 0c1.964,0 3.774,1.802 3.774,3.502l0 9.664 -3.876 0 0 -9.452 -4.412 0 0 40.69 4.514 0 0 -20.4 -1.964 0 -0.059 -3.341 0 0zm55.997 10.472l0 16.363 -3.663 0 0 -31.339c0,-1.437 1.437,-2.975 3.188,-2.975l6 -0.001 0 3.026 -5.525 0 0 11.577 4.565 0 0 3.35 -4.565 -0.001zm12.963 -17.909l3.825 0 0 12.427 2.176 2.176 2.125 -2.125 0 -12.478 3.774 0 0 11.849c0,1.436 -3.774,5.262 -3.774,5.262 0,0 3.774,3.825 3.774,5.363l0 11.738 -3.561 0 0 -12.274 -2.287 -2.337 -2.286 2.286 0 12.325 -3.774 0 0 -11.79c0,-1.487 4.037,-5.414 4.037,-5.414 0,0 -4.037,-3.774 -4.037,-5.312l0 -11.696 0.008 0zm-46.486 17.909c1.326,0 3.026,-1.538 3.026,-3.613l0 -11.262c0,-1.649 -1.862,-3.136 -3.927,-3.136l-7.812 0 0 34.374 3.613 0 0 -16.15 1.377 0 3.986 16.039 3.502 0 -3.765 -16.252zm-0.8 -3.4l-4.3 0 0 -11.313 4.3 0 0 11.313zm19.448 -14.509l-4.726 0c-2.125,0 -3.399,1.751 -3.399,3.187l0 31.025 3.612 0 0 -16.362 4.513 0 0 16.362 3.613 0 0 -30.863c0,-2.074 -1.385,-3.349 -3.613,-3.349zm-0.11 14.509l-4.301 0 0 -11.109 4.301 0 0 11.109zm-144.177 -27.896l11.051 0 0 3.246 -3.239 0 0 44.353 -3.885 0 0 -44.353 -3.927 0 0 -3.246zm21.14 44.412l4.301 0 0 -31.127 3.774 0 0 31.076c0,2.023 -1.802,3.451 -3.715,3.451l-4.411 0c-1.964,0 -3.775,-1.598 -3.775,-3.502l0 -31.025 3.775 0 0.051 31.127 0 0zm24.548 -13.014c1.326,0 3.026,-1.538 3.026,-3.612l0 -11.263c0,-1.649 -1.862,-3.136 -3.927,-3.136l-7.811 0 0 34.374 3.612 0 0 -16.15 1.377 0 3.987 16.039 3.501 0 -3.765 -16.252zm-0.689 -3.451l-4.301 0 0 -11.211 4.301 0 0 11.211zm22.891 4.25c0,-1.538 -1.649,-2.499 -1.649,-2.499 0,0 1.649,-1.062 1.649,-2.499l0 -10.514c0,-1.964 -1.751,-3.29 -3.502,-3.29l-8.177 0 0 34.315 8.177 0c1.649,0 3.502,-1.063 3.502,-3.29 0,0.051 0,-10.684 0,-12.223zm-3.715 12.164l-4.301 0 0 -12.801 4.301 0 0 12.801zm0 -16.414l-4.301 0 0 -11.211 4.301 0 0 11.211zm19.389 -14.874l-2.176 0 -2.074 0c-2.125,0 -3.714,1.861 -3.714,3.238l0 27.889c0,1.802 2.014,3.451 3.714,3.451l4.624 -0.001c1.802,0 3.613,-1.861 3.613,-3.4l0 -27.999c0,-1.266 -1.76,-3.178 -3.987,-3.178zm0.102 31.075l-4.139 0 0 -27.625 4.139 0 0 27.625z"/>
  </g>
  <g id="onlay">
   <path class="fil5 str0" d="M207.426 367.716c21.987,-17.756 36.051,-44.935 36.051,-75.398 0,-53.496 -43.367,-96.863 -96.863,-96.863 -16.168,0 -31.411,3.962 -44.81,10.967 -4.466,2.335 -9.432,2.179 -13.742,-0.431 -4.311,-2.611 -6.75,-6.939 -6.75,-11.978l0 -74.491c0,-16.525 13.479,-30.003 30.004,-30.003l155.285 0c8.345,0 15.527,3.007 21.382,8.954 5.854,5.947 8.749,13.176 8.618,21.52 -0.013,0.891 -0.021,1.784 -0.021,2.679 0,93.016 75.404,168.42 168.42,168.42 93.016,0 168.42,-75.404 168.42,-168.42 0,-0.895 -0.008,-1.788 -0.021,-2.679 -0.131,-8.344 2.764,-15.573 8.618,-21.52 5.855,-5.947 13.037,-8.954 21.382,-8.954l155.285 0c16.525,0 30.004,13.478 30.004,30.003l0 52.14c9.941,11.748 15.939,26.94 15.939,43.535 0,16.594 -5.998,31.786 -15.939,43.534l0 22.912c9.941,11.748 15.939,26.94 15.939,43.535 0,37.244 -30.192,67.436 -67.436,67.436l-580.967 0c-6.045,0 -11.189,-3.638 -13.203,-9.337 -2.015,-5.7 -0.298,-11.763 4.405,-15.561z"/>
   <g>
    <path class="fil6" d="M105.557 113.582c-0.12,0.12 -0.12,3.563 0,3.682 0.063,0.063 1.003,0.084 3.801,0.084 2.797,0 3.737,0.021 3.801,0.084 0.064,0.064 0.086,2.141 0.093,8.873 0.005,4.833 0.029,9.292 0.053,9.908l0.043 1.12 1.901 0.018c1.57,0.016 1.919,0.002 2.001,-0.081 0.148,-0.148 0.192,-2.74 0.194,-11.453 0.001,-7.261 0.029,-8.286 0.222,-8.409 0.051,-0.032 1.845,-0.059 3.988,-0.059 2.144,-0.001 3.947,-0.021 4.008,-0.044 0.097,-0.037 0.111,-0.252 0.111,-1.687 0,-1.768 -0.041,-1.988 -0.38,-2.079 -0.32,-0.087 -19.749,-0.044 -19.836,0.043l0 0zm106.138 0.003c-0.019,0.049 -0.026,5.412 -0.016,11.918l0.018 11.83 2.935 0.018c2.725,0.017 2.942,0.01 3.047,-0.105 0.332,-0.359 1.061,-1.217 1.293,-1.52 0.374,-0.491 0.702,-0.83 4.625,-4.768 4.179,-4.195 4.323,-4.346 4.464,-4.617 0.181,-0.35 0.217,-0.692 0.097,-0.917 -0.136,-0.255 -1.706,-2.018 -3.016,-3.386 -0.313,-0.327 -0.723,-0.8 -0.91,-1.05 -0.188,-0.251 -0.377,-0.487 -0.421,-0.525 -0.044,-0.039 -0.405,-0.448 -0.804,-0.91 -0.654,-0.76 -1.421,-1.604 -2.36,-2.6 -0.368,-0.39 -1.296,-1.452 -2.82,-3.227l-0.195 -0.228 -2.952 0c-2.297,0 -2.959,0.019 -2.985,0.087l0 0zm4.068 4.957c0.288,0.007 0.889,0.411 1.615,1.087 0.359,0.33 0.809,0.757 1.169,1.094 0.335,0.305 1.012,0.93 1.549,1.429 1.246,1.16 1.79,1.637 2.233,1.959 0.468,0.34 1.281,1.16 1.401,1.414 0.22,0.463 -0.196,0.975 -1.681,2.072 -0.41,0.303 -0.358,0.261 -0.981,0.793 -0.323,0.266 -0.662,0.552 -1.003,0.818 -0.283,0.216 -0.573,0.451 -0.843,0.68 -1.31,1.134 -2.483,2.022 -2.995,2.268 -0.22,0.105 -0.492,0.236 -0.604,0.29 -0.324,0.158 -0.319,0.281 -0.32,-6.989 -0.001,-7.129 0.001,-7.211 0.206,-7.026 0.065,0.059 0.179,0.11 0.253,0.111l0.001 0zm-93.747 0.955c-0.232,0.045 -0.233,0.05 -0.304,3.339 -0.119,5.479 -0.095,8.955 0.062,9.149l0.132 0.163 6.221 0.049c3.421,0.028 7.215,0.052 8.432,0.056l2.211 0.005 0.081 -0.178c0.132,-0.29 0.115,-11.999 -0.018,-12.181 -0.118,-0.161 -3.607,-0.252 -3.889,-0.102 -0.183,0.099 -0.191,0.62 -0.02,1.506 0.182,0.954 0.183,6.006 0.001,6.263 -0.068,0.096 -0.123,0.259 -0.123,0.364 0,0.104 -0.03,0.27 -0.068,0.369l-0.068 0.18 -8.466 -0.001 -0.197 -0.367 -0.196 -0.368 -0.036 -3.605c-0.031,-3.111 -0.053,-3.649 -0.152,-3.92 -0.059,-0.163 -0.112,-0.33 -0.155,-0.498 -0.029,-0.137 -0.096,-0.195 -0.259,-0.228 -0.238,-0.048 -2.941,-0.044 -3.189,0.005l0 0zm20.556 0.31c-0.096,0.038 -0.261,0.152 -0.367,0.253l-0.193 0.184 0 5.858c0,5.291 0.011,5.868 0.113,5.952 0.118,0.098 3.264,0.249 3.578,0.171 0.345,-0.086 0.432,-1.313 0.437,-6.137 0.002,-2.557 0.01,-2.714 0.136,-2.87l0.134 -0.165 2.999 0c2.296,0 3.035,0.021 3.154,0.089 0.085,0.049 0.32,0.12 0.522,0.158 0.336,0.064 0.474,0.151 0.476,0.302 0.001,0.032 -0.229,0.284 -0.51,0.56 -0.557,0.545 -1.397,1.543 -1.472,1.75 -0.076,0.208 0.155,0.593 0.72,1.198 1.235,1.322 1.837,1.995 2.228,2.488 0.229,0.289 0.499,0.613 0.6,0.72 0.101,0.108 0.356,0.412 0.568,0.676 0.619,0.777 0.866,0.906 2.031,1.064 0.54,0.072 1.039,0.15 1.109,0.173 0.111,0.034 1.207,-0.163 1.727,-0.311 0.368,-0.105 0.148,-0.459 -1.256,-2.008 -0.607,-0.67 -1.16,-1.318 -1.458,-1.707 -0.136,-0.181 -0.281,-0.361 -0.426,-0.533 -1.409,-1.554 -1.408,-1.683 0.032,-3.43 0.445,-0.538 1.039,-1.263 1.32,-1.61 0.281,-0.346 0.571,-0.692 0.644,-0.769 0.118,-0.124 0.411,-0.481 1.059,-1.288 0.3,-0.373 0.244,-0.546 -0.245,-0.752 -0.28,-0.119 -17.362,-0.135 -17.659,-0.017l-0.001 0.001zm20.149 -0.032c-0.074,0.026 -0.137,0.079 -0.174,0.149 -0.088,0.183 -0.117,11.775 -0.03,12.004l0.072 0.19 18.824 0 0.045 -0.143c0.122,-0.383 -0.753,-1.63 -2.281,-3.252 -0.253,-0.27 -0.678,-0.774 -0.943,-1.12 -0.265,-0.347 -0.503,-0.646 -0.528,-0.665 -0.594,-0.455 -0.57,-1.204 0.058,-1.899 0.243,-0.279 0.489,-0.575 0.716,-0.867 0.427,-0.543 0.783,-0.978 1.573,-1.925 0.176,-0.212 0.54,-0.669 0.808,-1.015 0.267,-0.346 0.548,-0.707 0.622,-0.801 0.18,-0.226 0.129,-0.327 -0.26,-0.514l-0.325 -0.155 -9.03 -0.01c-4.966,-0.006 -9.082,0.004 -9.146,0.021l-0.001 0.002zm21.754 0.026c-0.112,0.034 -0.293,0.147 -0.403,0.252l-0.2 0.191 0.002 4.87c0.002,6.507 0.027,6.671 1.022,6.905 0.336,0.079 1.765,0.097 7.829,0.098 8.144,0.001 7.758,0.02 8.245,-0.411l0.192 -0.171 0 -11.291 -0.198 -0.189c-0.108,-0.104 -0.305,-0.22 -0.436,-0.258 -0.301,-0.087 -15.765,-0.083 -16.053,0.004l0 0zm47.452 -0.03c-0.231,0.016 -0.491,0.044 -0.577,0.064l-0.158 0.036 0 12.035 0.158 0.035c0.086,0.02 3.544,0.051 7.683,0.069 4.138,0.018 7.77,0.053 8.07,0.077l0.545 0.042 0.233 -0.254 0.233 -0.254 0.034 -5.859c0.022,-3.748 0.009,-5.89 -0.035,-5.946 -0.126,-0.164 -3.424,-0.122 -3.63,0.046 -0.24,0.194 -0.272,0.675 -0.314,4.814 -0.033,3.146 -0.051,3.595 -0.148,3.675 -0.184,0.153 -8.567,0.181 -8.693,0.03 -0.195,-0.236 -0.351,-3.681 -0.282,-6.273 0.049,-1.898 0.043,-2.075 -0.067,-2.19 -0.123,-0.128 -1.973,-0.217 -3.052,-0.147l0 0zm20.93 0.034c-0.483,0.037 -0.988,0.164 -1.365,0.343 -0.11,0.053 -0.112,11.346 -0.001,11.76l0.046 0.175 8.299 0.018c7.414,0.015 8.308,0.006 8.388,-0.091 0.101,-0.121 0.141,-11.688 0.042,-11.984 -0.029,-0.087 -0.122,-0.174 -0.206,-0.193 -0.221,-0.053 -14.536,-0.078 -15.203,-0.028l0 0zm-78.375 3.256c0.377,0.077 0.044,0.753 -0.806,1.637 -1.213,1.262 -1.216,1.414 -0.054,2.73 0.509,0.576 0.752,0.983 0.687,1.151 -0.075,0.197 -7.517,0.162 -7.697,-0.036 -0.21,-0.232 -0.279,-5.228 -0.076,-5.432 0.121,-0.121 7.379,-0.167 7.946,-0.05l0 0zm22.483 0.097c0.037,0.057 0.1,0.215 0.142,0.35 0.102,0.338 0.169,4.761 0.073,4.9 -0.125,0.181 -8.844,0.194 -9.025,0.012 -0.169,-0.168 -0.253,-1.891 -0.18,-3.709 0.06,-1.49 0.077,-1.574 0.348,-1.633 0.479,-0.105 8.571,-0.031 8.642,0.08l0 0zm67.227 0.181c0.177,0.175 0.165,4.988 -0.012,5.2l-0.123 0.146 -4.129 -0.066 -4.248 -0.069c-0.33,-0.006 -0.338,-0.07 -0.336,-2.614 0,-1.385 0.029,-2.437 0.067,-2.498 0.057,-0.09 0.58,-0.11 3.761,-0.141 2.033,-0.02 3.969,-0.044 4.303,-0.053 0.474,-0.012 0.632,0.008 0.717,0.095z"/>
   </g>
   <path class="fil6" d="M268.966 365.608c9.356,-13.043 16.283,-27.947 20.117,-44.05 0.146,-0.616 0.015,-1.208 -0.377,-1.706 -0.393,-0.497 -0.939,-0.761 -1.573,-0.761l-32.748 0c-0.92,0 -1.699,0.598 -1.936,1.487 -4.236,15.901 -11.961,30.38 -22.304,42.566 -0.517,0.609 -0.626,1.413 -0.29,2.138 0.335,0.725 1.019,1.161 1.818,1.161l35.665 0c0.666,0 1.239,-0.294 1.628,-0.835zm22.647 -58.284c1.148,-9.654 1.182,-19.459 0.103,-29.12 -0.114,-1.019 -0.966,-1.782 -1.991,-1.782l-32.446 0c-0.595,0 -1.107,0.231 -1.502,0.677 -0.394,0.447 -0.56,0.983 -0.486,1.574 1.16,9.331 1.124,18.83 -0.111,28.151 -0.079,0.593 0.085,1.134 0.479,1.584 0.394,0.449 0.909,0.683 1.507,0.683l32.457 0c1.021,0 1.869,-0.754 1.99,-1.767zm-2.321 -43.355c-1.355,-5.888 -3.125,-11.62 -5.275,-17.161 -0.305,-0.786 -1.024,-1.279 -1.868,-1.279l-33.374 0c-0.697,0 -1.296,0.324 -1.677,0.908 -0.381,0.584 -0.437,1.263 -0.157,1.901 2.335,5.319 4.261,10.86 5.735,16.581 0.231,0.897 1.014,1.503 1.94,1.503l32.724 0c0.631,0 1.174,-0.262 1.568,-0.755 0.393,-0.494 0.526,-1.082 0.384,-1.698zm-11.851 -31.396c-2.348,-4.346 -4.946,-8.539 -7.771,-12.558 -0.387,-0.551 -0.966,-0.851 -1.639,-0.851l-35.545 0c-0.795,0 -1.475,0.432 -1.813,1.151 -0.338,0.719 -0.237,1.519 0.271,2.131 3.18,3.834 6.104,7.889 8.746,12.138 0.376,0.605 0.989,0.945 1.701,0.945l34.287 0c0.726,0 1.35,-0.354 1.721,-0.977 0.372,-0.624 0.387,-1.34 0.042,-1.979zm-19.412 -26.79c-4.275,-4.516 -8.88,-8.715 -13.778,-12.558 -0.368,-0.288 -0.77,-0.427 -1.237,-0.427l-42.262 0c-0.926,0 -1.707,0.605 -1.94,1.5 -0.232,0.896 0.157,1.804 0.965,2.254 6.25,3.477 12.123,7.549 17.544,12.137 0.377,0.319 0.801,0.475 1.295,0.475l37.958 0c0.818,0 1.517,-0.461 1.84,-1.212 0.323,-0.751 0.177,-1.575 -0.385,-2.169zm-36.549 -26.791c-16.582,-8.046 -35.196,-12.56 -54.866,-12.56 -17.977,0 -35.954,0 -53.931,0 -4.5,0 -8.182,3.682 -8.182,8.183 0,4.501 3.681,8.183 8.182,8.183l33.931 0 73.992 0c0.945,0 1.741,-0.634 1.953,-1.555 0.211,-0.921 -0.229,-1.839 -1.079,-2.251z"/>
   <path class="fil6" d="M703.981 107.915c-25.941,0 -6.469,0 -32.32,0 -12.039,0 -21.8,9.76 -21.8,21.8 0,12.04 9.761,21.8 21.8,21.8 25.941,0 6.469,0 32.32,0 12.039,0 21.8,-9.76 21.8,-21.8 0,-12.04 -9.761,-21.8 -21.8,-21.8zm-29.91 36.8l0 -5.5 5.5 0 0 -19 -5.5 0 0 -5.5 27.5 0 0 5.5 -5.5 0 0 19 5.5 0 0 5.5 -27.5 0zm11 -5.5l5.5 0 0 -19 -5.5 0 0 19z"/>
   <path class="fil6" d="M813.349 107.915c-25.94,0 -6.468,0 -32.318,0 -12.04,0 -21.801,9.76 -21.801,21.8 0,12.04 9.761,21.8 21.801,21.8 25.94,0 6.468,0 32.318,0 12.04,0 21.801,-9.76 21.801,-21.8 0,-12.04 -9.761,-21.8 -21.801,-21.8zm-24.409 36.8l0 -5.5 5.5 0 0 -19 -5.5 0 0 -5.499c5.5,0 11,0 16.5,0l0 5.499 -5.5 0 0 19 5.5 0 0 5.5c-5.5,0 -11,0 -16.5,0z"/>
   <path class="fil6" d="M848.688 240.196l-212.364 0c-2.761,0 -5,-2.238 -5,-5 0,-2.761 2.239,-5 5,-5l212.364 0c2.761,0 5,2.239 5,5 0,2.762 -2.239,5 -5,5zm0 -20l-212.364 0c-2.761,0 -5,-2.238 -5,-4.999 0,-2.762 2.239,-5 5,-5l212.364 0c2.761,0 5,2.238 5,5 0,2.761 -2.239,4.999 -5,4.999zm0 -19.999l-212.364 0c-2.761,0 -5,-2.239 -5,-5 0,-2.762 2.239,-5 5,-5l212.364 0c2.761,0 5,2.238 5,5 0,2.761 -2.239,5 -5,5z"/>
   <path class="fil6" d="M371.106 371.704c4.204,0 7.064,-1.96 7.604,-5.212 0.444,-2.732 -1.02,-4.332 -4.616,-5.128l-1.62 -0.36c-2.06,-0.468 -2.74,-1.052 -2.564,-2.104 0.212,-1.296 1.652,-2.22 3.456,-2.22 1.876,0 2.884,0.98 2.744,2.664l3.36 0c0.484,-3.508 -1.804,-5.632 -5.868,-5.632 -3.88,0 -6.768,2.016 -7.272,5.084 -0.432,2.592 1.04,4.264 4.376,5.012l1.768 0.408c2.148,0.476 2.86,1.132 2.672,2.232 -0.22,1.376 -1.732,2.288 -3.76,2.288 -2.216,0 -3.352,-1.12 -3.084,-3.036l-3.44 0c-0.62,3.74 1.692,6.004 6.244,6.004zm8.948 -0.26l12.528 0 0.504 -3.096 -8.92 0 0.704 -4.224 8.252 0 0.504 -3 -8.252 0 0.656 -4.056 8.932 0 0.516 -3.096 -12.528 0 -2.896 17.472zm14.528 0l11.544 0 0.504 -3.096 -7.932 0 2.388 -14.376 -3.608 0 -2.896 17.472zm13.364 0l12.528 0 0.504 -3.096 -8.921 0 0.705 -4.224 8.251 0 0.505 -3 -8.253 0 0.657 -4.056 8.932 0 0.516 -3.096 -12.528 0 -2.896 17.472zm22.395 0.26c3.996,0 7.361,-2.516 8.569,-6.4l-3.644 0c-0.785,2.044 -2.569,3.216 -4.713,3.216 -2.448,0 -3.735,-1.532 -3.735,-4.072 0,-3.624 2.12,-7.552 6.031,-7.552 1.985,0 3.201,1.184 3.284,3.24l3.633 0c0.079,-3.952 -2.685,-6.424 -6.808,-6.424 -5.897,0 -9.74,5.092 -9.74,10.772 0,4.48 2.835,7.22 7.123,7.22zm11.237 -14.636l5.307 0 -2.379 14.376 3.607 0 2.365 -14.376 5.295 0 0.517 -3.096 -14.184 0 -0.528 3.096z"/>
   <path class="fil6" d="M494.471 371.444l3.611 0 1.008 -6.1 3.164 0c0.068,0 0.129,0 0.188,0l2.084 6.1 3.704 0 -2.38 -6.78c2.109,-0.904 3.564,-2.64 3.948,-4.956 0.576,-3.52 -1.556,-5.736 -5.484,-5.736l-6.948 0 -2.895 17.472zm5.099 -8.996l0.901 -5.476 3.155 0c1.908,0 2.916,1.02 2.648,2.692 -0.283,1.668 -1.64,2.784 -3.54,2.784l-3.164 0zm17.8 9.26c4.264,0 7.404,-2.476 8.04,-6.244l1.908 -11.492 -3.528 0 -1.815 10.964c-0.341,2.06 -2.133,3.652 -4.453,3.652 -2.12,0 -3.244,-1.368 -2.908,-3.42l1.852 -11.196 -3.52 0 -1.867 11.256c-0.621,3.784 1.855,6.48 6.291,6.48zm9.624 -0.264l3.608 0 1.336 -8.104c0.129,-0.76 0.377,-2.284 0.609,-4.148 0.715,1.804 1.372,3.352 1.743,4.16l3.772 8.092 3.724 0 2.897 -17.472 -3.597 0 -1.44 8.644c-0.119,0.748 -0.339,2.204 -0.528,3.564 -0.492,-1.256 -1.031,-2.604 -1.336,-3.272l-4.156 -8.936 -3.736 0 -2.896 17.472z"/>
  </g>
  <g>
   <circle class="fil2" cx="146.614" cy="292.318" r="84"/>
   <path class="fil7 str0" d="M797.191 173.197c-23.196,0 -42,18.803 -42,42 0,23.196 18.804,42 42,42 23.196,0 42,-18.804 42,-42 0,-23.197 -18.804,-42 -42,-42zm-109.37 0c-23.196,0 -42,18.803 -42,42 0,23.196 18.804,42 42,42 23.196,0 42,-18.804 42,-42 0,-23.197 -18.804,-42 -42,-42z"/>
   <path class="fil2" d="M797.191 178.196c20.435,0 37,16.566 37,37.001 0,20.434 -16.565,37 -37,37 -20.435,0 -37,-16.566 -37,-37 0,-20.435 16.565,-37.001 37,-37.001zm-109.37 0c20.435,0 37,16.566 37,37.001 0,20.434 -16.565,37 -37,37 -20.435,0 -37,-16.566 -37,-37 0,-20.435 16.565,-37.001 37,-37.001z"/>
   <path class="fil7 str0" d="M797.191 283.178c-23.196,0 -42,18.804 -42,42 0,23.196 18.804,42 42,42 23.196,0 42,-18.804 42,-42 0,-23.196 -18.804,-42 -42,-42zm-109.37 0c-23.196,0 -42,18.804 -42,42 0,23.196 18.804,42 42,42 23.196,0 42,-18.804 42,-42 0,-23.196 -18.804,-42 -42,-42z"/>
   <path class="fil2" d="M797.191 288.178c20.435,0 37,16.565 37,37 0,20.435 -16.565,37 -37,37 -20.435,0 -37,-16.565 -37,-37 0,-20.435 16.565,-37 37,-37zm-109.37 0c20.435,0 37,16.565 37,37 0,20.435 -16.565,37 -37,37 -20.435,0 -37,-16.565 -37,-37 0,-20.435 16.565,-37 37,-37z"/>
   <path class="fil8 str0" d="M430.184 343.678c10.218,0 18.501,-8.283 18.501,-18.5 0,-10.217 -8.283,-18.5 -18.501,-18.5 -21.381,0 -18.755,0 -40.001,0 -10.217,0 -18.5,8.282 -18.5,18.5 0,10.217 8.283,18.5 18.5,18.5 21.616,0 16.69,0 40.001,0zm69.632 0c23.311,0 18.385,0 40.001,0 10.217,0 18.5,-8.283 18.5,-18.5 0,-10.218 -8.283,-18.5 -18.5,-18.5 -21.246,0 -18.62,0 -40.001,0 -10.218,0 -18.501,8.283 -18.501,18.5 0,10.217 8.283,18.5 18.501,18.5z"/>
   <path class="fil2" d="M499.816 311.678c-7.456,0 -13.501,6.044 -13.501,13.5 0,7.456 6.045,13.5 13.501,13.5 16.308,0 23.27,0 40.001,0 7.455,0 13.5,-6.044 13.5,-13.5 0,-7.456 -6.045,-13.5 -13.5,-13.5 -20.312,0 -24.795,0 -40.001,0zm-109.633 0c-7.455,0 -13.5,6.044 -13.5,13.5 0,7.456 6.045,13.5 13.5,13.5 16.309,0 23.271,0 40.001,0 7.456,0 13.501,-6.044 13.501,-13.5 0,-7.456 -6.045,-13.5 -13.501,-13.5 -20.311,0 -24.794,0 -40.001,0z"/>
  </g>
  <g id="dpad">
   <circle class="fil9" cx="146.614" cy="292.318" r="80"/>
   <path class="fil10" d="M146.614 212.318c9.289,0 18.205,1.589 26.499,4.5l0 45.996c0,1.654 1.35,3.004 3.004,3.004l45.996 0c2.912,8.293 4.5,17.211 4.5,26.5 0,9.289 -1.588,18.205 -4.499,26.5l-45.997 0c-1.654,0 -3.004,1.349 -3.004,3.003l0 45.997c-8.293,2.911 -17.21,4.5 -26.499,4.5 -9.289,0 -18.206,-1.589 -26.501,-4.5l0 -45.997c0,-1.654 -1.349,-3.003 -3.003,-3.003l-45.997 0c-2.911,-8.294 -4.5,-17.211 -4.5,-26.5 0,-9.289 1.589,-18.206 4.5,-26.5l45.997 0c1.654,0 3.003,-1.35 3.003,-3.004l0 -45.996c8.294,-2.912 17.212,-4.5 26.501,-4.5z"/>
   <path class="fil11" d="M146.614 212.318c7.267,0 14.307,0.975 20.999,2.791l0 50.205c0,3.307 2.697,6.004 6.004,6.004l50.205 0c1.816,6.692 2.791,13.732 2.791,21 0,7.268 -0.975,14.307 -2.791,21l-50.205 0c-3.307,0 -6.004,2.696 -6.004,6.003l0 50.206c-6.692,1.816 -13.732,2.791 -20.999,2.791 -7.268,0 -14.308,-0.975 -21.001,-2.791l0 -50.206c0,-3.307 -2.696,-6.003 -6.003,-6.003l-50.205 0c-1.817,-6.693 -2.792,-13.732 -2.792,-21 0,-7.268 0.975,-14.308 2.792,-21l50.205 0c3.307,0 6.003,-2.697 6.003,-6.004l0 -50.205c6.693,-1.816 13.733,-2.791 21.001,-2.791z"/>
   <circle class="fil10" cx="146.614" cy="292.318" r="19"/>
  </g>
 </g>
</svg>
