<?xml version="1.0" encoding="UTF-8"?>
<!DOCTYPE svg PUBLIC "-//W3C//DTD SVG 1.1//EN" "http://www.w3.org/Graphics/SVG/1.1/DTD/svg11.dtd">
<svg xml:space="preserve" viewBox="0 0 930 426" width="930px" height="426px" version="1.1" style="shape-rendering:geometricPrecision; fill-rule:evenodd; clip-rule:evenodd" xmlns="http://www.w3.org/2000/svg">
 <defs>
  <style type="text/css">
    .fil0 {fill:red}
    .fil1 {fill:white}
  </style>
 </defs>
 <g>
  <path class="fil0" d="M19.504 421.71l890.992 0c8.264,0 15.004,-6.74 15.004,-15.003l0 -333.69c0,-7.634 -5.632,-13.985 -13.211,-14.897l-314.22 -37.815 0 -11.011c0,-2.756 -2.248,-5.004 -5.004,-5.004 -86.912,0 -169.218,0 -256.13,0 -2.756,0 -5.004,2.248 -5.004,5.004l0 11.011 -314.22 37.815c-7.579,0.912 -13.211,7.263 -13.211,14.897l0 333.69c0,8.263 6.74,15.003 15.004,15.003z"/>
  <path class="fil1" d="M465 113c55.23,0 100,44.77 100,100 0,55.23 -44.77,100 -100,100 -55.23,0 -100,-44.77 -100,-100 0,-55.23 44.77,-100 100,-100zm12.475 105.031c1.823,1.826 1.823,4.805 0,6.629l-9.338 9.337 3.94 3.938c1.391,1.396 1.391,3.657 0,5.053l-9.26 9.255c-8.173,8.173 -20.399,9.814 -30.205,4.929l-20.347 20.351c14.364,11.756 32.723,18.812 52.735,18.812 46.024,0 83.335,-37.311 83.335,-83.335 0,-20.012 -7.056,-38.371 -18.812,-52.735l-20.334 20.333c4.887,9.801 3.246,22.034 -4.927,30.208l-9.26 9.259c-1.391,1.394 -3.652,1.394 -5.048,0l-31.986 -31.991c-1.399,-1.391 -1.399,-3.654 0,-5.048l9.255 -9.26c8.164,-8.161 20.371,-9.812 30.167,-4.946l20.345 -20.345c-14.364,-11.757 -32.725,-18.81 -52.735,-18.81 -46.024,0 -83.335,37.31 -83.335,83.335 0,20.01 7.054,38.371 18.81,52.735l20.359 -20.357c-4.865,-9.798 -3.217,-22.01 4.945,-30.169l9.259 -9.26c1.396,-1.396 3.657,-1.396 5.048,0l3.919 3.917 9.338 -9.338c1.823,-1.824 4.807,-1.824 6.63,0 1.824,1.826 1.824,4.804 0,6.628l-9.337 9.338 10.87 10.875 9.338 -9.338c1.824,-1.823 4.807,-1.823 6.631,0z"/>
 </g>
</svg>
