<?xml version="1.0" encoding="UTF-8"?>
<!DOCTYPE svg PUBLIC "-//W3C//DTD SVG 1.1//EN" "http://www.w3.org/Graphics/SVG/1.1/DTD/svg11.dtd">
<svg xml:space="preserve" viewBox="0 0 930 426" width="930px" height="426px" version="1.1" style="shape-rendering:geometricPrecision; fill-rule:evenodd; clip-rule:evenodd" xmlns="http://www.w3.org/2000/svg">
 <defs>
  <style type="text/css">
    .fil0 {fill:#C00000}
    .fil1 {fill:red}
  </style>
 </defs>
 <g>
  <path class="fil0" d="M173.995 319.699c-0.544,0.544 -0.882,1.295 -0.882,2.122l0 45.997c-8.293,2.911 -17.21,4.5 -26.499,4.5 -9.289,0 -18.206,-1.589 -26.501,-4.5l0 -45.997c0,-0.827 -0.337,-1.578 -0.881,-2.122l27.382 -27.381 27.381 27.381z"/>
  <path class="fil1" d="M169.375 315.079c-1.087,1.088 -1.762,2.589 -1.762,4.242l0 50.206c-6.692,1.816 -13.732,2.791 -20.999,2.791 -7.268,0 -14.308,-0.975 -21.001,-2.791l0 -50.206c0,-1.653 -0.674,-3.154 -1.761,-4.241l22.762 -22.762 22.761 22.761z"/>
  <path class="fil0" d="M160.049 305.753c-3.439,3.438 -8.189,5.565 -13.435,5.565 -5.247,0 -9.997,-2.127 -13.435,-5.565l13.435 -13.435 13.435 13.435z"/>
 </g>
</svg>
