<?xml version="1.0" encoding="UTF-8"?>
<!DOCTYPE svg PUBLIC "-//W3C//DTD SVG 1.1//EN" "http://www.w3.org/Graphics/SVG/1.1/DTD/svg11.dtd">
<svg xml:space="preserve" viewBox="0 0 930 426" width="930px" height="426px" version="1.1" style="shape-rendering:geometricPrecision; fill-rule:evenodd; clip-rule:evenodd" xmlns="http://www.w3.org/2000/svg">
 <defs>
  <style type="text/css">
    .fil0 {fill:#C00000}
    .fil1 {fill:red}
  </style>
 </defs>
 <g>
  <path class="fil0" d="M173.995 264.936c0.544,0.545 1.295,0.882 2.122,0.882l45.996 0c2.912,8.293 4.5,17.211 4.5,26.5 0,9.289 -1.588,18.205 -4.499,26.5l-45.997 0c-0.827,0 -1.578,0.337 -2.122,0.881l-27.381 -27.381 27.381 -27.382z"/>
  <path class="fil1" d="M169.375 269.556c1.088,1.087 2.589,1.762 4.242,1.762l50.205 0c1.816,6.692 2.791,13.732 2.791,21 0,7.268 -0.975,14.307 -2.791,21l-50.205 0c-1.653,0 -3.154,0.674 -4.242,1.761l-22.761 -22.761 22.761 -22.762z"/>
  <path class="fil0" d="M160.049 278.883c3.438,3.438 5.565,8.188 5.565,13.435 0,5.247 -2.127,9.997 -5.565,13.435l-13.435 -13.435 13.435 -13.435z"/>
 </g>
</svg>
