<?xml version="1.0" encoding="UTF-8"?>
<!DOCTYPE svg PUBLIC "-//W3C//DTD SVG 1.1//EN" "http://www.w3.org/Graphics/SVG/1.1/DTD/svg11.dtd">
<svg xml:space="preserve" viewBox="0 0 930 426" width="930px" height="426px" version="1.1" style="shape-rendering:geometricPrecision; fill-rule:evenodd; clip-rule:evenodd" xmlns="http://www.w3.org/2000/svg">
 <defs>
  <style type="text/css">
    .fil0 {fill:red}
    .fil1 {fill:black;fill-opacity:0.15}
  </style>
 </defs>
 <g>
  <circle class="fil0" cx="797.191" cy="215.197" r="35"/>
  <path class="fil1" d="M797.191 185.025c16.663,0 30.171,13.508 30.171,30.172 0,0.11 0,0.221 -0.002,0.331 -0.008,0.829 -0.525,1.528 -1.316,1.78 -0.79,0.252 -1.616,-0.021 -2.102,-0.693 -5.995,-8.285 -15.743,-13.676 -26.751,-13.676 -11.009,0 -20.756,5.391 -26.751,13.676 -0.486,0.672 -1.312,0.944 -2.102,0.692 -0.791,-0.251 -1.308,-0.95 -1.317,-1.779 -0.001,-0.11 -0.001,-0.221 -0.001,-0.331 0,-16.664 13.508,-30.172 30.171,-30.172z"/>
 </g>
</svg>
