<?xml version="1.0" encoding="UTF-8"?>
<!DOCTYPE svg PUBLIC "-//W3C//DTD SVG 1.1//EN" "http://www.w3.org/Graphics/SVG/1.1/DTD/svg11.dtd">
<svg xml:space="preserve" viewBox="0 0 930 426" width="930px" height="426px" version="1.1" style="shape-rendering:geometricPrecision; fill-rule:evenodd; clip-rule:evenodd" xmlns="http://www.w3.org/2000/svg">
 <defs>
  <style type="text/css">
    .str0 {stroke:#727C80}
    .fil8 {fill:#1A1A1A}
    .fil9 {fill:#333333}
    .fil12 {fill:#404040}
    .fil14 {fill:#4D4D4D}
    .fil11 {fill:#4D4D4D}
    .fil13 {fill:#5C5C5C}
    .fil7 {fill:#6666CC}
    .fil5 {fill:#B8C8CC}
    .fil2 {fill:#BABABA}
    .fil6 {fill:#ECECEC}
    .fil15 {fill:black;fill-opacity:0.15}
    .fil10 {fill:white;fill-opacity:0.5}
    .fil1 {fill:url(#id0)}
    .fil3 {fill:url(#id1)}
    .fil0 {fill:url(#id2)}
    .fil4 {fill:url(#id3)}
  </style>
  <linearGradient id="id0" gradientUnits="userSpaceOnUse" x1="465" y1="63.017" x2="465" y2="20.305">
   <stop offset="0" style="stop-opacity:1; stop-color:#ECECEC"/>
   <stop offset="0.25" style="stop-opacity:1; stop-color:gainsboro"/>
   <stop offset="1" style="stop-opacity:1; stop-color:gainsboro"/>
  </linearGradient>
  <linearGradient id="id1" gradientUnits="userSpaceOnUse" x1="331.931" y1="131.015" x2="598.069" y2="131.015">
   <stop offset="0" style="stop-opacity:1; stop-color:#E4E4E4"/>
   <stop offset="0.5" style="stop-opacity:1; stop-color:#ECECEC"/>
   <stop offset="1" style="stop-opacity:1; stop-color:#E4E4E4"/>
  </linearGradient>
  <linearGradient id="id2" gradientUnits="userSpaceOnUse" x1="4.5" y1="239.915" x2="925.5" y2="239.915">
   <stop offset="0" style="stop-opacity:1; stop-color:gainsboro"/>
   <stop offset="0.05" style="stop-opacity:1; stop-color:#ECECEC"/>
   <stop offset="0.95" style="stop-opacity:1; stop-color:#ECECEC"/>
   <stop offset="1" style="stop-opacity:1; stop-color:gainsboro"/>
  </linearGradient>
  <linearGradient id="id3" gradientUnits="userSpaceOnUse" x1="418.485" y1="232.452" x2="508.491" y2="232.452">
   <stop offset="0" style="stop-opacity:1; stop-color:#F4F4F4"/>
   <stop offset="0.5" style="stop-opacity:1; stop-color:#F8F8F8"/>
   <stop offset="1" style="stop-opacity:1; stop-color:#F4F4F4"/>
  </linearGradient>
 </defs>
 <g>
  <g id="shell">
   <path class="fil0" d="M19.504 421.71l890.992 0c8.264,0 15.004,-6.74 15.004,-15.003l0 -333.69c0,-7.634 -5.632,-13.985 -13.211,-14.897l-894.578 0c-7.579,0.912 -13.211,7.263 -13.211,14.897l0 333.69c0,8.263 6.74,15.003 15.004,15.003z"/>
   <polygon class="fil1" points="912.289,58.12 598.069,20.305 331.931,20.305 17.711,58.12 81.312,63.017 848.688,63.017 "/>
   <path class="fil2" d="M465 260.743c73.492,0 133.069,-59.578 133.069,-133.07l0 -3.001c0,73.492 -59.577,133.07 -133.069,133.07 -73.492,0 -133.069,-59.578 -133.069,-133.07l0 3.001c0,73.492 59.577,133.07 133.069,133.07z"/>
   <path class="fil3" d="M465 257.742c73.492,0 133.069,-59.578 133.069,-133.07l0 -115.378c0,-2.756 -2.248,-5.004 -5.004,-5.004 -86.912,0 -169.218,0 -256.13,0 -2.756,0 -5.004,2.248 -5.004,5.004l0 115.378c0,73.492 59.577,133.07 133.069,133.07z"/>
   <path class="fil4" d="M509.393 224.403c-13.48,0 -26.961,0 -40.441,0 -0.617,0 -1.121,-0.503 -1.121,-1.12l0 -10.747c-3.96,0.545 -8.254,0.958 -13.403,0.958 -5.347,0 -10.642,-0.284 -15.861,-0.918l0 10.707c0,0.617 -0.503,1.12 -1.12,1.12l-12.645 0c-0.616,0 -1.12,-0.503 -1.12,-1.12l0 -13.589c-2.381,-0.649 -4.74,-1.39 -7.074,-2.231 -0.203,-0.073 -0.339,-0.243 -0.365,-0.456 -0.028,-0.215 0.061,-0.412 0.239,-0.535l7.2 -4.919 0 -10.346c0,-0.616 0.504,-1.121 1.12,-1.121l12.645 0c0.617,0 1.12,0.505 1.12,1.121l0 14.405c3.606,0.702 8.171,1.181 14.585,1.181 5.836,0 10.522,-0.408 14.679,-0.95l0 -14.636c0,-0.616 0.504,-1.121 1.121,-1.121 13.48,0 26.961,0 40.441,0 0.617,0 1.121,0.505 1.121,1.121l0 3.633c0,0.616 -0.504,1.12 -1.121,1.12l-25.678 0c-0.618,0 -1.121,0.504 -1.121,1.121l0 6.585c2.647,-0.299 5.422,-0.495 8.534,-0.495 4.596,0 12.698,0.249 18.201,1.487 0.221,0.05 0.382,0.216 0.426,0.439 0.045,0.223 -0.042,0.437 -0.228,0.568l-6.268 4.38c-0.327,0.228 -0.677,0.325 -1.076,0.299 -2.559,-0.173 -5.385,-0.404 -10.577,-0.44 -3.289,-0.023 -6.234,0.162 -9.012,0.459l0 7.477c0,0.618 0.503,1.121 1.121,1.121l25.678 0c0.617,0 1.121,0.503 1.121,1.12l0 3.202c0,0.617 -0.504,1.12 -1.121,1.12zm-74.526 4.089c0.484,0 0.877,0.393 0.877,0.878 0,0.484 -0.393,0.877 -0.877,0.877l-9.233 0c-0.232,0 -0.421,0.189 -0.421,0.421l0 0.117c0,0.231 0.189,0.42 0.421,0.42l8.329 0c1.157,0 2.1,0.944 2.1,2.1 0,0.089 0,0.178 0,0.267 0,1.157 -0.943,2.101 -2.1,2.101l-9.628 0c-0.484,0 -0.877,-0.394 -0.877,-0.878 0,-0.485 0.393,-0.877 0.877,-0.877l9.552 0c0.232,0 0.421,-0.189 0.421,-0.421l0 -0.116c0,-0.232 -0.189,-0.421 -0.421,-0.421l-8.329 0c-1.157,0 -2.1,-0.943 -2.1,-2.101l0 -0.266c0,-1.157 0.943,-2.101 2.1,-2.101l9.309 0zm74.993 7.181c0.485,0 0.878,-0.393 0.878,-0.878l0 -4.202c0,-1.157 -0.944,-2.101 -2.1,-2.101 -1.619,0 -3.236,0 -4.855,0 -0.455,0 -0.877,0.147 -1.222,0.395 -0.345,-0.248 -0.767,-0.395 -1.223,-0.395 -1.618,0 -3.237,0 -4.855,0 -1.157,0 -2.1,0.944 -2.1,2.101l0 4.202c0,0.485 0.393,0.878 0.877,0.878 0.485,0 0.878,-0.393 0.878,-0.878l0 -4.127c0,-0.232 0.189,-0.421 0.421,-0.421l4.703 0c0.232,0 0.421,0.189 0.421,0.421l0 4.127c0,0.485 0.393,0.878 0.878,0.878 0.484,0 0.877,-0.393 0.877,-0.878l0 -4.127c0,-0.232 0.189,-0.421 0.42,-0.421l4.704 0c0.233,0 0.421,0.189 0.421,0.421l0 4.127c0,0.485 0.393,0.878 0.877,0.878zm-47.229 -7.181c0.484,0 0.877,0.393 0.877,0.878 0,0.484 -0.393,0.877 -0.877,0.877l-9.234 0c-0.232,0 -0.421,0.189 -0.421,0.421l0 0.117c0,0.231 0.189,0.42 0.421,0.42l8.33 0c1.156,0 2.1,0.944 2.1,2.1 0,0.089 0,0.178 0,0.267 0,1.157 -0.944,2.101 -2.1,2.101l-9.628 0c-0.485,0 -0.878,-0.394 -0.878,-0.878 0,-0.485 0.393,-0.877 0.878,-0.877l9.552 0c0.232,0 0.42,-0.189 0.42,-0.421l0 -0.116c0,-0.232 -0.188,-0.421 -0.42,-0.421l-8.329 0c-1.157,0 -2.101,-0.943 -2.101,-2.101l0 -0.266c0,-1.157 0.944,-2.101 2.101,-2.101l9.309 0zm-13.981 0.314c0.311,-0.371 0.865,-0.42 1.236,-0.108 0.371,0.311 0.42,0.865 0.108,1.236l-6.82 8.128c-0.313,0.371 -0.866,0.419 -1.237,0.108 -0.371,-0.311 -0.42,-0.864 -0.108,-1.235l0.842 -1.004c0.133,-0.158 0.133,-0.383 0,-0.541l-4.579 -5.456c-0.311,-0.371 -0.262,-0.925 0.109,-1.236 0.371,-0.312 0.924,-0.263 1.236,0.108l4.284 5.106c0.083,0.098 0.194,0.15 0.323,0.15 0.128,0 0.239,-0.052 0.321,-0.15l4.285 -5.106zm43.18 5.112c0.485,0 0.877,0.392 0.877,0.877 0,0.485 -0.392,0.878 -0.877,0.878l-9.308 0c-1.157,0 -2.101,-0.944 -2.101,-2.101 0,-0.993 0,-1.986 0,-2.979 0,-1.157 0.944,-2.101 2.101,-2.101l8.761 0c1.157,0 2.101,0.944 2.101,2.101 0,0.089 0,0.177 0,0.266 0,1.158 -0.944,2.101 -2.101,2.101l-8.686 0c-0.232,0 -0.421,0.189 -0.421,0.421l0 0.116c0,0.232 0.189,0.421 0.421,0.421l9.233 0zm-9.233 -3.671l8.611 0c0.232,0 0.421,0.189 0.421,0.421l0 0.117c0,0.231 -0.189,0.42 -0.421,0.42l-8.611 0c-0.232,0 -0.421,-0.189 -0.421,-0.42l0 -0.117c0,-0.232 0.189,-0.421 0.421,-0.421zm-4.09 3.671c0.484,0 0.877,0.392 0.877,0.877 0,0.484 -0.393,0.878 -0.877,0.878l-10.027 0c-1.157,0 -2.1,-0.944 -2.1,-2.101l0 -2.904c0,-0.232 -0.189,-0.421 -0.42,-0.421l-0.218 0c-0.485,0 -0.878,-0.393 -0.878,-0.877 0,-0.485 0.393,-0.878 0.878,-0.878l0.217 0c0.232,0 0.421,-0.188 0.421,-0.42l0 -0.617c0,-0.485 0.393,-0.878 0.877,-0.878 0.485,0 0.878,0.393 0.878,0.878l0 0.617c0,0.232 0.189,0.42 0.421,0.42l9.951 0c0.484,0 0.877,0.393 0.877,0.878 0,0.484 -0.393,0.877 -0.877,0.877l-9.951 0c-0.232,0 -0.421,0.189 -0.421,0.421l0 2.829c0,0.232 0.189,0.421 0.421,0.421l9.951 0z"/>
  </g>
  <g id="_1637314866784">
   <path class="fil5 str0" d="M207.426 367.716c21.987,-17.756 36.051,-44.935 36.051,-75.398 0,-53.496 -43.367,-96.863 -96.863,-96.863 -16.168,0 -31.411,3.962 -44.81,10.967 -4.466,2.335 -9.432,2.179 -13.742,-0.431 -4.311,-2.611 -6.75,-6.939 -6.75,-11.978l0 -74.491c0,-16.525 13.479,-30.003 30.004,-30.003l155.285 0c8.345,0 15.527,3.007 21.382,8.954 5.854,5.947 8.749,13.176 8.618,21.52 -0.013,0.891 -0.021,1.784 -0.021,2.679 0,93.016 75.404,168.42 168.42,168.42 93.016,0 168.42,-75.404 168.42,-168.42 0,-0.895 -0.008,-1.788 -0.021,-2.679 -0.131,-8.344 2.764,-15.573 8.618,-21.52 5.855,-5.947 13.037,-8.954 21.382,-8.954l155.285 0c16.525,0 30.004,13.478 30.004,30.003 0,56.991 0,107.559 0,162.121 9.941,11.748 15.939,26.94 15.939,43.535 0,37.244 -30.192,67.436 -67.436,67.436l-580.967 0c-6.045,0 -11.189,-3.638 -13.203,-9.337 -2.015,-5.7 -0.298,-11.763 4.405,-15.561z"/>
   <g>
    <path class="fil6" d="M108.594 113.528l6.519 0c1.491,0 3.249,1.393 4.032,2.159l11.438 12.681 0 -14.84 3.885 0 0 20.247 -6.802 0c-1.211,-0.041 -2.401,-0.29 -3.787,-1.652l-11.419 -12.705 0 14.357 -3.866 0 0 -20.247zm81 20.385c-4.653,0.635 -9.361,0.698 -14.078,0.301 -2.761,-0.244 -5.466,-0.812 -7.945,-2.106 -3.13,-1.622 -4.127,-5.268 -4.085,-8.572 0.034,-3.05 0.942,-6.307 3.663,-8.08 1.784,-1.171 3.69,-1.555 5.715,-1.922 5.526,-0.975 11.064,-0.755 16.456,-0.164l0 2.888c-6.359,-1.236 -13.076,-0.928 -15.358,1.994 -1.426,1.817 -1.629,3.625 -1.629,5.148 0,2.743 0.938,6.906 6.514,7.715 3.637,0.534 7.237,0.128 10.747,-0.511l0 3.309 0 0zm-39.82 -3.149l12.322 0 0 3.025c-6.059,0.233 -11.881,0.335 -18.003,0.08 -5.194,-0.214 -6.089,-2.826 -6.189,-5.335l0 -15.006 23.902 0 0 2.883 -15.463 0 0 5.154 14.093 0 0 2.814 -14.093 0c0,1.522 0.05,3.249 0.065,3.56 0.082,1.962 0.993,2.685 3.366,2.825l0 0zm0 0l0 0 0 0z"/>
   </g>
   <path class="fil7" d="M166.39 166.432l-66.181 0c-1.027,0 -1.881,0.768 -1.988,1.79 -0.108,1.023 0.567,1.952 1.573,2.166l64.808 13.771c0.144,0.031 0.269,0.044 0.416,0.044l60.171 0c0.936,0 1.726,-0.623 1.944,-1.533 0.219,-0.911 -0.203,-1.825 -1.037,-2.249 -17.78,-9.042 -38.108,-13.989 -59.706,-13.989zm20.712 24.107c8.727,3.474 16.903,8.038 24.358,13.523 0.358,0.264 0.74,0.389 1.185,0.389l41.11 0c0.833,0 1.544,-0.48 1.855,-1.253 0.311,-0.773 0.131,-1.612 -0.47,-2.189 -5.419,-5.203 -11.317,-9.888 -17.628,-14.003 -0.34,-0.221 -0.687,-0.324 -1.092,-0.324l-48.578 0c-0.968,0 -1.781,0.671 -1.964,1.622 -0.183,0.951 0.324,1.877 1.224,2.235zm32.225 19.886c4.655,4.134 8.955,8.661 12.848,13.526 0.393,0.49 0.933,0.75 1.561,0.75l36.85 0c0.754,0 1.401,-0.386 1.759,-1.05 0.359,-0.664 0.326,-1.417 -0.088,-2.047 -3.255,-4.959 -6.854,-9.635 -10.762,-14.007 -0.393,-0.44 -0.901,-0.667 -1.491,-0.667l-39.349 0c-0.847,0 -1.568,0.497 -1.869,1.289 -0.301,0.792 -0.092,1.643 0.541,2.206zm17.566 19.887c2.957,4.297 5.615,8.815 7.945,13.525 0.345,0.698 1.013,1.113 1.792,1.113l34.602 0c0.686,0 1.277,-0.315 1.66,-0.885 0.383,-0.571 0.451,-1.237 0.191,-1.872 -1.989,-4.859 -4.263,-9.532 -6.801,-14.001 -0.365,-0.643 -0.999,-1.013 -1.739,-1.013l-36.002 0c-0.762,0 -1.416,0.395 -1.77,1.069 -0.355,0.675 -0.31,1.437 0.122,2.064zm10.84 19.885c1.822,4.372 3.37,8.887 4.622,13.523 0.239,0.885 1.014,1.479 1.931,1.479l33.263 0c0.627,0 1.167,-0.259 1.559,-0.748 0.393,-0.489 0.529,-1.072 0.393,-1.685 -1.064,-4.802 -2.378,-9.47 -3.935,-13.989 -0.283,-0.822 -1.022,-1.349 -1.891,-1.349l-34.096 0c-0.69,0 -1.282,0.317 -1.665,0.89 -0.382,0.574 -0.447,1.243 -0.181,1.879zm6.136 19.884c0.911,4.416 1.556,8.931 1.919,13.524 0.082,1.043 0.947,1.843 1.993,1.843l32.637 0c0.573,0 1.067,-0.214 1.459,-0.633 0.392,-0.419 0.574,-0.925 0.536,-1.498 -0.312,-4.765 -0.862,-9.426 -1.631,-13.974 -0.164,-0.97 -0.988,-1.666 -1.972,-1.666l-32.983 0c-0.622,0 -1.157,0.255 -1.55,0.737 -0.393,0.482 -0.534,1.058 -0.408,1.667zm2.238 19.89c0.017,0.78 0.026,1.562 0.026,2.347 0,3.787 -0.193,7.515 -0.566,11.176 -0.059,0.583 0.112,1.108 0.505,1.543 0.393,0.435 0.898,0.659 1.484,0.659l32.756 0c1.048,0 1.915,-0.804 1.994,-1.849 0.276,-3.656 0.418,-7.352 0.418,-11.081 0,-0.966 -0.013,-1.928 -0.034,-2.885 -0.025,-1.085 -0.914,-1.955 -1.999,-1.955l-32.585 0c-0.559,0 -1.039,0.202 -1.43,0.602 -0.391,0.399 -0.582,0.884 -0.569,1.443zm-1.379 19.884c-0.749,4.626 -1.786,9.138 -3.084,13.524 -0.185,0.625 -0.074,1.242 0.315,1.764 0.39,0.522 0.951,0.803 1.602,0.803l33.758 0c0.949,0 1.747,-0.641 1.953,-1.566 1.015,-4.573 1.815,-9.233 2.389,-13.965 0.071,-0.589 -0.096,-1.123 -0.489,-1.567 -0.393,-0.444 -0.903,-0.674 -1.496,-0.674l-32.974 0c-0.989,0 -1.816,0.705 -1.974,1.681zm-5.18 19.886c-1.698,4.674 -3.695,9.19 -5.952,13.531 -0.332,0.638 -0.308,1.346 0.065,1.96 0.373,0.615 0.991,0.962 1.709,0.962l35.828 0c0.843,0 1.561,-0.492 1.865,-1.278 1.755,-4.54 3.288,-9.201 4.586,-13.967 0.169,-0.621 0.05,-1.228 -0.341,-1.739 -0.391,-0.512 -0.945,-0.786 -1.589,-0.786l-34.291 0c-0.857,0 -1.587,0.511 -1.88,1.317zm-9.522 19.899c-2.87,4.762 -6.058,9.284 -9.509,13.545 -0.498,0.614 -0.591,1.407 -0.251,2.12 0.339,0.712 1.015,1.138 1.804,1.138l39.353 0c0.729,0 1.355,-0.358 1.724,-0.986 2.637,-4.489 5.039,-9.154 7.186,-13.971 0.283,-0.637 0.23,-1.317 -0.15,-1.902 -0.38,-0.585 -0.979,-0.911 -1.677,-0.911l-36.768 0c-0.721,0 -1.34,0.35 -1.712,0.967z"/>
   <path class="fil7" d="M722.505 134.195c3.314,0 6,2.687 6,6 0,3.314 -2.686,6 -6,6 -3.313,0 -6,-2.686 -6,-6 0,-3.313 2.687,-6 6,-6zm20.001 0c3.313,0 6,2.687 6,6 0,3.314 -2.687,6 -6,6 -3.314,0 -6,-2.686 -6,-6 0,-3.313 2.686,-6 6,-6zm20 0c3.314,0 6,2.687 6,6 0,3.314 -2.686,6 -6,6 -3.313,0 -6,-2.686 -6,-6 0,-3.313 2.687,-6 6,-6zm-10.483 19.9c3.314,0 6,2.687 6,6 0,3.314 -2.686,6 -6,6 -3.313,0 -6,-2.686 -6,-6 0,-3.313 2.687,-6 6,-6zm-20 0c3.313,0 6,2.687 6,6 0,3.314 -2.687,6 -6,6 -3.314,0 -6,-2.686 -6,-6 0,-3.313 2.686,-6 6,-6zm10.483 20.1c3.313,0 6,2.686 6,6 0,3.313 -2.687,6 -6,6 -3.314,0 -6,-2.687 -6,-6 0,-3.314 2.686,-6 6,-6z"/>
   <path class="fil7" d="M678.196 266.518l0 -2.75 2.75 0 0 -24.5 -2.75 0 0 -2.75 19.25 0 0 2.75 -2.75 0 0 24.5 2.75 0 0 2.75 -19.25 0zm8.25 -2.75l2.75 0 0 -24.5 -2.75 0 0 24.5z"/>
   <path class="fil7" d="M791.69 266.518l0 -2.75 2.75 0 0 -24.5 -2.75 0 0 -2.75c5.5,0 5.5,0 11,0l0 2.75 -2.75 0 0 24.5 2.75 0 0 2.75c-5.5,0 -5.5,0 -11,0z"/>
   <path class="fil6" d="M369.272 356.617c1.778,0 3.065,0.335 3.862,1.007 0.796,0.672 1.194,1.738 1.194,3.196l-3.541 0c0,-0.505 -0.121,-0.868 -0.363,-1.084 -0.241,-0.217 -0.725,-0.324 -1.45,-0.324l-5.952 0c-0.541,0 -0.96,0.121 -1.259,0.366 -0.299,0.242 -0.448,0.636 -0.448,1.181 0,0.629 0.157,1.052 0.469,1.269 0.242,0.171 0.654,0.256 1.238,0.256l6.464 0c1.82,0 3.036,0.228 3.648,0.683 0.796,0.597 1.194,1.855 1.194,3.775 0,1.579 -0.377,2.724 -1.13,3.435 -0.754,0.711 -1.999,1.067 -3.734,1.067l-7.146 0c-1.835,0 -3.112,-0.331 -3.83,-0.992 -0.718,-0.661 -1.077,-1.732 -1.077,-3.211l3.541 0c0,0.384 0.167,0.715 0.502,0.992 0.334,0.278 0.75,0.416 1.248,0.416l5.93 0c0.768,0 1.319,-0.135 1.653,-0.405 0.335,-0.271 0.502,-0.704 0.502,-1.302 0,-0.597 -0.121,-1.009 -0.363,-1.237 -0.313,-0.284 -0.946,-0.426 -1.898,-0.426l-5.248 0c-2.119,0 -3.542,-0.271 -4.267,-0.815 -0.825,-0.611 -1.237,-1.831 -1.237,-3.655 0,-1.497 0.423,-2.57 1.269,-3.218 0.846,-0.65 2.251,-0.974 4.213,-0.974l6.016 0zm7.744 14.827l0 -14.827 15.125 0 0 2.795 -11.584 0 0 3.264 11.221 0 0 2.581 -11.221 0 0 3.392 11.584 0 0 2.795 -15.125 0zm17.621 0l0 -14.827 3.541 0 0 11.883 9.152 0 0 2.944 -12.693 0zm15.168 0l0 -14.827 15.125 0 0 2.795 -11.584 0 0 3.264 11.221 0 0 2.581 -11.221 0 0 3.392 11.584 0 0 2.795 -15.125 0zm31.189 -5.12l3.541 0c0,2.005 -0.352,3.36 -1.056,4.064 -0.7,0.704 -2.133,1.056 -4.291,1.056l-6.585 0c-2.044,0 -3.456,-0.374 -4.228,-1.12 -0.775,-0.747 -1.162,-2.116 -1.162,-4.107l0 -4.202c0,-2.148 0.409,-3.609 1.226,-4.384 0.818,-0.775 2.322,-1.163 4.512,-1.163l5.888 0c1.92,0 3.307,0.334 4.16,1.003 1.024,0.796 1.536,2.183 1.536,4.16l-3.541 0c0,-0.783 -0.217,-1.348 -0.651,-1.697 -0.433,-0.348 -1.162,-0.522 -2.186,-0.522l-4.544 0c-1.181,0 -1.952,0.167 -2.315,0.501 -0.363,0.334 -0.544,1.077 -0.544,2.229l0 3.67c0,1.095 0.22,1.827 0.661,2.197 0.384,0.327 1.117,0.491 2.198,0.491l4.544 0c1.095,0 1.827,-0.135 2.197,-0.406 0.427,-0.313 0.64,-0.903 0.64,-1.77zm5.333 -9.707l15.979 0 0 2.944 -6.251 0 0 11.883 -3.541 0 0 -11.883 -6.187 0 0 -2.944z"/>
   <path class="fil6" d="M494.041 359.562l0 4.543 7.402 0c0.754,0 1.28,-0.17 1.579,-0.515 0.299,-0.341 0.448,-0.928 0.448,-1.756 0,-0.815 -0.135,-1.387 -0.405,-1.714 -0.313,-0.373 -0.854,-0.558 -1.622,-0.558l-7.402 0zm13.226 11.882l-3.541 0 0 -2.304c0,-0.725 -0.221,-1.255 -0.661,-1.589 -0.441,-0.334 -1.159,-0.501 -2.155,-0.501l-6.869 0 0 4.394 -3.542 0 0 -14.827 11.243 0c1.692,0 2.951,0.342 3.776,1.028 0.996,0.825 1.493,2.222 1.493,4.189 0,1.027 -0.22,1.877 -0.661,2.545 -0.327,0.484 -0.825,0.928 -1.493,1.327 0.81,0.27 1.394,0.576 1.749,0.917 0.441,0.427 0.661,1.01 0.661,1.749l0 3.072zm1.942 -14.827l3.541 0 0 9.213c0,0.996 0.21,1.693 0.629,2.084 0.42,0.391 1.12,0.586 2.102,0.586l4.885 0c0.896,0 1.55,-0.199 1.963,-0.597 0.412,-0.398 0.618,-1.099 0.618,-2.094l0 -9.192 3.542 0 0 9.551c0,1.952 -0.399,3.317 -1.195,4.103 -0.797,0.782 -2.162,1.173 -4.096,1.173l-6.507 0c-1.877,0 -3.26,-0.43 -4.149,-1.294 -0.889,-0.861 -1.333,-2.187 -1.333,-3.982l0 -9.551zm19.52 0l5.952 0 9.024 11.883 0.49 0 0 -11.883 3.542 0 0 14.827 -6.081 0 -8.895 -11.882 -0.491 0 0 11.882 -3.541 0 0 -14.827z"/>
  </g>
  <g>
   <circle class="fil8" cx="146.614" cy="292.318" r="84"/>
   <path class="fil6 str0" d="M815.691 139.695c0,-10.217 -8.283,-18.5 -18.5,-18.5 -10.217,0 -18.5,8.283 -18.5,18.5 0,21.381 0,18.756 0,40.001 0,10.218 8.282,18.5 18.5,18.5 10.217,0 18.5,-8.282 18.5,-18.5 0,-21.615 0,-16.689 0,-40.001zm-109.37 0c0,-10.217 -8.283,-18.5 -18.5,-18.5 -10.217,0 -18.5,8.283 -18.5,18.5 0,21.381 0,18.755 0,40.001 0,10.217 8.282,18.5 18.5,18.5 10.218,0 18.5,-8.283 18.5,-18.5 0,-21.615 0,-16.69 0,-40.001z"/>
   <path class="fil8" d="M783.69 179.696c0,7.456 6.044,13.5 13.5,13.5 7.456,0 13.5,-6.044 13.5,-13.5 0,-16.308 0,-23.271 0,-40.001 0,-7.456 -6.044,-13.5 -13.5,-13.5 -7.456,0 -13.5,6.044 -13.5,13.5 0,20.311 0,24.795 0,40.001zm-109.369 0c0,7.456 6.044,13.5 13.5,13.5 7.456,0 13.5,-6.044 13.5,-13.5 0,-16.308 0,-23.271 0,-40.001 0,-7.456 -6.044,-13.5 -13.5,-13.5 -7.456,0 -13.5,6.044 -13.5,13.5 0,20.311 0,24.795 0,40.001z"/>
   <g>
    <circle class="fil9" cx="687.821" cy="139.695" r="11"/>
    <path class="fil10" d="M687.821 130.695c2.209,0 4,1.791 4,3.999 0,2.21 -1.791,4.001 -4,4.001 -2.209,0 -4,-1.791 -4,-4.001 0,-2.208 1.791,-3.999 4,-3.999z"/>
   </g>
   <g>
    <circle class="fil9" cx="797.191" cy="179.696" r="11"/>
    <path class="fil10" d="M797.191 170.696c2.209,0 4,1.791 4,4 0,2.209 -1.791,4 -4,4 -2.209,0 -4,-1.791 -4,-4 0,-2.209 1.791,-4 4,-4z"/>
   </g>
   <path class="fil6 str0" d="M687.821 283.178c23.196,0 42,18.804 42,42 0,23.196 -18.804,42 -42,42 -23.196,0 -42,-18.804 -42,-42 0,-23.196 18.804,-42 42,-42zm109.37 0c23.196,0 42,18.804 42,42 0,23.196 -18.804,42 -42,42 -23.196,0 -42,-18.804 -42,-42 0,-23.196 18.804,-42 42,-42z"/>
   <path class="fil8" d="M687.821 288.178c20.435,0 37,16.565 37,37 0,20.435 -16.565,37 -37,37 -20.435,0 -37,-16.565 -37,-37 0,-20.435 16.565,-37 37,-37zm109.37 0c20.435,0 37,16.565 37,37 0,20.435 -16.565,37 -37,37 -20.435,0 -37,-16.565 -37,-37 0,-20.435 16.565,-37 37,-37z"/>
   <path class="fil6 str0" d="M430.184 343.678c10.218,0 18.501,-8.283 18.501,-18.5 0,-10.217 -8.283,-18.5 -18.501,-18.5 -21.381,0 -18.755,0 -40.001,0 -10.217,0 -18.5,8.282 -18.5,18.5 0,10.217 8.283,18.5 18.5,18.5 21.616,0 16.69,0 40.001,0zm69.632 0c23.311,0 18.385,0 40.001,0 10.217,0 18.5,-8.283 18.5,-18.5 0,-10.218 -8.283,-18.5 -18.5,-18.5 -21.246,0 -18.62,0 -40.001,0 -10.218,0 -18.501,8.283 -18.501,18.5 0,10.217 8.283,18.5 18.501,18.5z"/>
   <path class="fil8" d="M499.816 311.678c-7.456,0 -13.501,6.044 -13.501,13.5 0,7.456 6.045,13.5 13.501,13.5 16.308,0 23.27,0 40.001,0 7.455,0 13.5,-6.044 13.5,-13.5 0,-7.456 -6.045,-13.5 -13.5,-13.5 -20.312,0 -24.795,0 -40.001,0zm-109.633 0c-7.455,0 -13.5,6.044 -13.5,13.5 0,7.456 6.045,13.5 13.5,13.5 16.309,0 23.271,0 40.001,0 7.456,0 13.501,-6.044 13.501,-13.5 0,-7.456 -6.045,-13.5 -13.501,-13.5 -20.311,0 -24.794,0 -40.001,0z"/>
  </g>
  <g id="dpad">
   <circle class="fil11" cx="146.614" cy="292.318" r="80"/>
   <path class="fil12" d="M146.614 212.318c9.289,0 18.205,1.589 26.499,4.5l0 45.996c0,1.654 1.35,3.004 3.004,3.004l45.996 0c2.912,8.293 4.5,17.211 4.5,26.5 0,9.289 -1.588,18.205 -4.499,26.5l-45.997 0c-1.654,0 -3.004,1.349 -3.004,3.003l0 45.997c-8.293,2.911 -17.21,4.5 -26.499,4.5 -9.289,0 -18.206,-1.589 -26.501,-4.5l0 -45.997c0,-1.654 -1.349,-3.003 -3.003,-3.003l-45.997 0c-2.911,-8.294 -4.5,-17.211 -4.5,-26.5 0,-9.289 1.589,-18.206 4.5,-26.5l45.997 0c1.654,0 3.003,-1.35 3.003,-3.004l0 -45.996c8.294,-2.912 17.212,-4.5 26.501,-4.5z"/>
   <path class="fil13" d="M146.614 212.318c7.267,0 14.307,0.975 20.999,2.791l0 50.205c0,3.307 2.697,6.004 6.004,6.004l50.205 0c1.816,6.692 2.791,13.732 2.791,21 0,7.268 -0.975,14.307 -2.791,21l-50.205 0c-3.307,0 -6.004,2.696 -6.004,6.003l0 50.206c-6.692,1.816 -13.732,2.791 -20.999,2.791 -7.268,0 -14.308,-0.975 -21.001,-2.791l0 -50.206c0,-3.307 -2.696,-6.003 -6.003,-6.003l-50.205 0c-1.817,-6.693 -2.792,-13.732 -2.792,-21 0,-7.268 0.975,-14.308 2.792,-21l50.205 0c3.307,0 6.003,-2.697 6.003,-6.004l0 -50.205c6.693,-1.816 13.733,-2.791 21.001,-2.791z"/>
   <circle class="fil12" cx="146.614" cy="292.318" r="19"/>
  </g>
  <circle class="fil14" cx="797.191" cy="325.178" r="35"/>
  <circle class="fil14" cx="687.821" cy="325.178" r="35"/>
  <path class="fil15" d="M687.821 295.007c16.663,0 30.172,13.508 30.172,30.171 0,0.111 -0.001,0.221 -0.002,0.331 -0.009,0.83 -0.526,1.529 -1.317,1.78 -0.79,0.252 -1.616,-0.021 -2.102,-0.693 -5.995,-8.285 -15.743,-13.676 -26.751,-13.676 -11.008,0 -20.756,5.391 -26.75,13.676 -0.486,0.672 -1.313,0.944 -2.103,0.693 -0.791,-0.252 -1.308,-0.951 -1.316,-1.78 -0.001,-0.11 -0.002,-0.221 -0.002,-0.331 0,-16.663 13.508,-30.171 30.171,-30.171z"/>
  <path class="fil15" d="M797.191 295.007c16.663,0 30.171,13.508 30.171,30.171 0,0.111 0,0.221 -0.002,0.331 -0.008,0.83 -0.525,1.529 -1.316,1.78 -0.79,0.252 -1.616,-0.021 -2.102,-0.693 -5.995,-8.285 -15.743,-13.676 -26.751,-13.676 -11.009,0 -20.756,5.391 -26.751,13.676 -0.486,0.672 -1.312,0.944 -2.102,0.693 -0.791,-0.252 -1.308,-0.951 -1.317,-1.78 -0.001,-0.11 -0.001,-0.221 -0.001,-0.331 0,-16.663 13.508,-30.171 30.171,-30.171z"/>
  <path class="fil9" d="M390.183 313.678c-6.351,0 -11.5,5.148 -11.5,11.499 0,6.352 5.149,11.5 11.5,11.5 16.333,0 23.054,0 40.002,0 6.351,0 11.499,-5.148 11.499,-11.5 0,-6.351 -5.148,-11.499 -11.499,-11.499 -16.75,0 -24.387,0 -40.002,0z"/>
  <path class="fil9" d="M499.815 313.678c-6.351,0 -11.499,5.149 -11.499,11.5 0,6.351 5.148,11.499 11.499,11.499 16.333,0 23.055,0 40.002,0 6.351,0 11.5,-5.148 11.5,-11.499 0,-6.351 -5.149,-11.5 -11.5,-11.5 -16.75,0 -24.387,0 -40.002,0z"/>
 </g>
</svg>
