<?xml version="1.0" encoding="UTF-8"?>
<!DOCTYPE svg PUBLIC "-//W3C//DTD SVG 1.1//EN" "http://www.w3.org/Graphics/SVG/1.1/DTD/svg11.dtd">
<svg xml:space="preserve" viewBox="0 0 930 426" width="930px" height="426px" version="1.1" style="shape-rendering:geometricPrecision; fill-rule:evenodd; clip-rule:evenodd" xmlns="http://www.w3.org/2000/svg">
 <defs>
  <style type="text/css">
    .str0 {stroke:black}
    .str1 {stroke:#101010}
    .fil8 {fill:#1A1A1A}
    .fil14 {fill:#333333}
    .fil2 {fill:#404040}
    .fil7 {fill:#4470B0}
    .fil9 {fill:#4D4D4D}
    .fil11 {fill:#4D4D4D}
    .fil12 {fill:#5C5C5C}
    .fil6 {fill:#666666}
    .fil5 {fill:#1F1F1F}
    .fil13 {fill:black;fill-opacity:0.15}
    .fil10 {fill:white;fill-opacity:0.5}
    .fil1 {fill:url(#id0)}
    .fil3 {fill:url(#id1)}
    .fil0 {fill:url(#id2)}
    .fil4 {fill:url(#id3)}
  </style>
  <linearGradient id="id0" gradientUnits="userSpaceOnUse" x1="465" y1="63.017" x2="465" y2="20.305">
   <stop offset="0" style="stop-opacity:1; stop-color:#666666"/>
   <stop offset="0.25" style="stop-opacity:1; stop-color:#4D4D4D"/>
   <stop offset="1" style="stop-opacity:1; stop-color:#4D4D4D"/>
  </linearGradient>
  <linearGradient id="id1" gradientUnits="userSpaceOnUse" x1="331.931" y1="131.015" x2="598.069" y2="131.015">
   <stop offset="0" style="stop-opacity:1; stop-color:#585858"/>
   <stop offset="0.5" style="stop-opacity:1; stop-color:#666666"/>
   <stop offset="1" style="stop-opacity:1; stop-color:#585858"/>
  </linearGradient>
  <linearGradient id="id2" gradientUnits="userSpaceOnUse" x1="4.5" y1="239.915" x2="925.5" y2="239.915">
   <stop offset="0" style="stop-opacity:1; stop-color:#4D4D4D"/>
   <stop offset="0.05" style="stop-opacity:1; stop-color:#666666"/>
   <stop offset="0.95" style="stop-opacity:1; stop-color:#666666"/>
   <stop offset="1" style="stop-opacity:1; stop-color:#4D4D4D"/>
  </linearGradient>
  <linearGradient id="id3" gradientUnits="userSpaceOnUse" x1="418.485" y1="234.505" x2="508.491" y2="234.505">
   <stop offset="0" style="stop-opacity:1; stop-color:#6C6C6C"/>
   <stop offset="0.5" style="stop-opacity:1; stop-color:#747474"/>
   <stop offset="1" style="stop-opacity:1; stop-color:#6C6C6C"/>
  </linearGradient>
 </defs>
 <g>
  <g id="shell">
   <path class="fil0" d="M19.504 421.71l890.992 0c8.264,0 15.004,-6.74 15.004,-15.003l0 -333.69c0,-7.634 -5.632,-13.985 -13.211,-14.897l-894.578 0c-7.579,0.912 -13.211,7.263 -13.211,14.897l0 333.69c0,8.263 6.74,15.003 15.004,15.003z"/>
   <polygon class="fil1" points="912.289,58.12 598.069,20.305 331.931,20.305 17.711,58.12 81.312,63.017 848.688,63.017 "/>
   <path class="fil2" d="M465 260.743c73.492,0 133.069,-59.578 133.069,-133.07l0 -3.001c0,73.492 -59.577,133.07 -133.069,133.07 -73.492,0 -133.069,-59.578 -133.069,-133.07l0 3.001c0,73.492 59.577,133.07 133.069,133.07z"/>
   <path class="fil3" d="M465 257.742c73.492,0 133.069,-59.578 133.069,-133.07l0 -115.378c0,-2.756 -2.248,-5.004 -5.004,-5.004 -86.912,0 -169.218,0 -256.13,0 -2.756,0 -5.004,2.248 -5.004,5.004l0 115.378c0,73.492 59.577,133.07 133.069,133.07z"/>
   <path class="fil4" d="M509.393 224.403c-13.48,0 -26.961,0 -40.441,0 -0.617,0 -1.121,-0.503 -1.121,-1.12l0 -10.747c-3.96,0.545 -8.254,0.958 -13.403,0.958 -5.347,0 -10.642,-0.284 -15.861,-0.918l0 10.707c0,0.617 -0.503,1.12 -1.12,1.12l-12.645 0c-0.616,0 -1.12,-0.503 -1.12,-1.12l0 -13.589c-2.381,-0.649 -4.74,-1.39 -7.074,-2.231 -0.203,-0.073 -0.339,-0.243 -0.365,-0.456 -0.028,-0.215 0.061,-0.412 0.239,-0.535l7.2 -4.919 0 -10.346c0,-0.616 0.504,-1.121 1.12,-1.121l12.645 0c0.617,0 1.12,0.505 1.12,1.121l0 14.405c3.606,0.702 8.171,1.181 14.585,1.181 5.836,0 10.522,-0.408 14.679,-0.95l0 -14.636c0,-0.616 0.504,-1.121 1.121,-1.121 13.48,0 26.961,0 40.441,0 0.617,0 1.121,0.505 1.121,1.121l0 3.633c0,0.616 -0.504,1.12 -1.121,1.12l-25.678 0c-0.618,0 -1.121,0.504 -1.121,1.121l0 6.585c2.647,-0.299 5.422,-0.495 8.534,-0.495 4.596,0 12.698,0.249 18.201,1.487 0.221,0.05 0.382,0.216 0.426,0.439 0.045,0.223 -0.042,0.437 -0.228,0.568l-6.268 4.38c-0.327,0.228 -0.677,0.325 -1.076,0.299 -2.559,-0.173 -5.385,-0.404 -10.577,-0.44 -3.289,-0.023 -6.234,0.162 -9.012,0.459l0 7.477c0,0.618 0.503,1.121 1.121,1.121l25.678 0c0.617,0 1.121,0.503 1.121,1.12l0 3.202c0,0.617 -0.504,1.12 -1.121,1.12zm-74.526 4.089c0.484,0 0.877,0.393 0.877,0.878 0,0.484 -0.393,0.877 -0.877,0.877l-9.233 0c-0.232,0 -0.421,0.189 -0.421,0.421l0 0.117c0,0.231 0.189,0.42 0.421,0.42l8.329 0c1.157,0 2.1,0.944 2.1,2.1 0,0.089 0,0.178 0,0.267 0,1.157 -0.943,2.101 -2.1,2.101l-9.628 0c-0.484,0 -0.877,-0.394 -0.877,-0.878 0,-0.485 0.393,-0.877 0.877,-0.877l9.552 0c0.232,0 0.421,-0.189 0.421,-0.421l0 -0.116c0,-0.232 -0.189,-0.421 -0.421,-0.421l-8.329 0c-1.157,0 -2.1,-0.943 -2.1,-2.101l0 -0.266c0,-1.157 0.943,-2.101 2.1,-2.101l9.309 0zm74.993 7.181c0.485,0 0.878,-0.393 0.878,-0.878l0 -4.202c0,-1.157 -0.944,-2.101 -2.1,-2.101 -1.619,0 -3.236,0 -4.855,0 -0.455,0 -0.877,0.147 -1.222,0.395 -0.345,-0.248 -0.767,-0.395 -1.223,-0.395 -1.618,0 -3.237,0 -4.855,0 -1.157,0 -2.1,0.944 -2.1,2.101l0 4.202c0,0.485 0.393,0.878 0.877,0.878 0.485,0 0.878,-0.393 0.878,-0.878l0 -4.127c0,-0.232 0.189,-0.421 0.421,-0.421l4.703 0c0.232,0 0.421,0.189 0.421,0.421l0 4.127c0,0.485 0.393,0.878 0.878,0.878 0.484,0 0.877,-0.393 0.877,-0.878l0 -4.127c0,-0.232 0.189,-0.421 0.42,-0.421l4.704 0c0.233,0 0.421,0.189 0.421,0.421l0 4.127c0,0.485 0.393,0.878 0.877,0.878zm-47.229 -7.181c0.484,0 0.877,0.393 0.877,0.878 0,0.484 -0.393,0.877 -0.877,0.877l-9.234 0c-0.232,0 -0.421,0.189 -0.421,0.421l0 0.117c0,0.231 0.189,0.42 0.421,0.42l8.33 0c1.156,0 2.1,0.944 2.1,2.1 0,0.089 0,0.178 0,0.267 0,1.157 -0.944,2.101 -2.1,2.101l-9.628 0c-0.485,0 -0.878,-0.394 -0.878,-0.878 0,-0.485 0.393,-0.877 0.878,-0.877l9.552 0c0.232,0 0.42,-0.189 0.42,-0.421l0 -0.116c0,-0.232 -0.188,-0.421 -0.42,-0.421l-8.329 0c-1.157,0 -2.101,-0.943 -2.101,-2.101l0 -0.266c0,-1.157 0.944,-2.101 2.101,-2.101l9.309 0zm-13.981 0.314c0.311,-0.371 0.865,-0.42 1.236,-0.108 0.371,0.311 0.42,0.865 0.108,1.236l-6.82 8.128c-0.313,0.371 -0.866,0.419 -1.237,0.108 -0.371,-0.311 -0.42,-0.864 -0.108,-1.235l0.842 -1.004c0.133,-0.158 0.133,-0.383 0,-0.541l-4.579 -5.456c-0.311,-0.371 -0.262,-0.925 0.109,-1.236 0.371,-0.312 0.924,-0.263 1.236,0.108l4.284 5.106c0.083,0.098 0.194,0.15 0.323,0.15 0.128,0 0.239,-0.052 0.321,-0.15l4.285 -5.106zm43.18 5.112c0.485,0 0.877,0.392 0.877,0.877 0,0.485 -0.392,0.878 -0.877,0.878l-9.308 0c-1.157,0 -2.101,-0.944 -2.101,-2.101 0,-0.993 0,-1.986 0,-2.979 0,-1.157 0.944,-2.101 2.101,-2.101l8.761 0c1.157,0 2.101,0.944 2.101,2.101 0,0.089 0,0.177 0,0.266 0,1.158 -0.944,2.101 -2.101,2.101l-8.686 0c-0.232,0 -0.421,0.189 -0.421,0.421l0 0.116c0,0.232 0.189,0.421 0.421,0.421l9.233 0zm-9.233 -3.671l8.611 0c0.232,0 0.421,0.189 0.421,0.421l0 0.117c0,0.231 -0.189,0.42 -0.421,0.42l-8.611 0c-0.232,0 -0.421,-0.189 -0.421,-0.42l0 -0.117c0,-0.232 0.189,-0.421 0.421,-0.421zm-4.09 3.671c0.484,0 0.877,0.392 0.877,0.877 0,0.484 -0.393,0.878 -0.877,0.878l-10.027 0c-1.157,0 -2.1,-0.944 -2.1,-2.101l0 -2.904c0,-0.232 -0.189,-0.421 -0.42,-0.421l-0.218 0c-0.485,0 -0.878,-0.393 -0.878,-0.877 0,-0.485 0.393,-0.878 0.878,-0.878l0.217 0c0.232,0 0.421,-0.188 0.421,-0.42l0 -0.617c0,-0.485 0.393,-0.878 0.877,-0.878 0.485,0 0.878,0.393 0.878,0.878l0 0.617c0,0.232 0.189,0.42 0.421,0.42l9.951 0c0.484,0 0.877,0.393 0.877,0.878 0,0.484 -0.393,0.877 -0.877,0.877l-9.951 0c-0.232,0 -0.421,0.189 -0.421,0.421l0 2.829c0,0.232 0.189,0.421 0.421,0.421l9.951 0z"/>
  </g>
  <g id="onlay">
   <path class="fil5 str0" d="M207.426 367.716c21.987,-17.756 36.051,-44.935 36.051,-75.398 0,-53.496 -43.367,-96.863 -96.863,-96.863 -16.168,0 -31.411,3.962 -44.81,10.967 -4.466,2.335 -9.432,2.179 -13.742,-0.431 -4.311,-2.611 -6.75,-6.939 -6.75,-11.978l0 -74.491c0,-16.525 13.479,-30.003 30.004,-30.003l155.285 0c8.345,0 15.527,3.007 21.382,8.954 5.854,5.947 8.749,13.176 8.618,21.52 -0.013,0.891 -0.021,1.784 -0.021,2.679 0,93.016 75.404,168.42 168.42,168.42 93.016,0 168.42,-75.404 168.42,-168.42 0,-0.895 -0.008,-1.788 -0.021,-2.679 -0.131,-8.344 2.764,-15.573 8.618,-21.52 5.855,-5.947 13.037,-8.954 21.382,-8.954l155.285 0c16.525,0 30.004,13.478 30.004,30.003 0,56.991 0,107.559 0,162.121 9.941,11.748 15.939,26.94 15.939,43.535 0,37.244 -30.192,67.436 -67.436,67.436l-580.967 0c-6.045,0 -11.189,-3.638 -13.203,-9.337 -2.015,-5.7 -0.298,-11.763 4.405,-15.561z"/>
   <g>
    <path class="fil6" d="M109.647 110.135c0.274,-0.219 1.099,0.327 2.04,1.2 0.806,0.748 9.36,9.84 9.36,9.84 0,0 0.776,0.935 1.143,0.935 0.367,0 0.424,-0.179 0.537,-0.695l2.4 -11.4c0,0 0.156,-0.489 0.641,-0.489 0.179,0 0.403,0.067 0.679,0.249l3.84 2.16c0,0 0.433,0.195 0.433,0.462 0,0.115 -0.081,0.245 -0.313,0.378l-3.12 1.92c0,0 -0.602,0.406 -0.84,1.2l-3.6 17.04c0,0 -0.099,0.996 -0.644,0.996 -0.223,0 -0.52,-0.166 -0.916,-0.636l-10.68 -11.88c-0.216,-0.24 -0.471,-0.592 -0.767,-0.592 -0.295,0 -0.412,0.203 -0.553,0.831l-1.32 5.881c0,0 -0.094,0.322 -0.094,0.725 0,0.397 0.094,0.871 0.454,1.195 0.204,0.183 2.04,1.799 2.04,1.799 0,0 0.361,0.264 0.361,0.427 0,0.163 -0.063,0.198 -0.241,0.293l-5.52 2.281c0,0 -0.263,0.095 -0.263,-0.268 0,-0.058 0.007,-0.128 0.023,-0.212l2.4 -13.561c0,0 0.483,-2.246 -0.24,-3.12 -0.184,-0.223 -1.44,-1.2 -1.44,-1.2 0,0 -0.329,-0.169 -0.329,-0.448 0,-0.113 0.055,-0.246 0.209,-0.392l4.32 -4.919zm0 0l0 0 0 0zm22.2 1.32c1.086,0.629 1.473,0.918 1.2,2.52 -0.264,1.547 -1.44,7.081 -1.44,7.081 0,0 -0.322,0.752 -1.2,0.839 -1.573,0.158 -1.037,0.682 -0.24,0.841 0.314,0.062 1.022,0.469 0.84,1.559 -0.203,1.214 -1.56,7.321 -1.56,7.321 0,0 -0.35,1.421 -1.92,1.559 -0.859,0.076 -1.133,0.342 -1.133,0.534 0,0.162 0.197,0.307 0.413,0.307l18.96 0c0,0 1.242,0.031 1.44,-0.841l1.2 -5.64c0,0 0.082,-2.118 -0.96,-0.36 -0.604,1.02 -3.447,5.28 -6,5.28l-4.2 0c0,0 -0.743,-0.199 -0.6,-0.839l1.68 -7.561c0,0 0.299,-1.333 1.68,-0.72 1.389,0.618 2.396,1.511 3.24,3.481 0.227,0.529 0.591,1.063 1.44,-3.841 0.84,-4.85 1.575,-6.688 -0.24,-4.68 -1.795,1.986 -3.624,2.648 -3.96,2.761 -1.262,0.42 -1.684,0.289 -1.32,-1.44l1.44 -6.841c0,0 0.168,-0.48 1.08,-0.48l4.92 0c0,0 2.02,0.828 3.24,4.681 0.204,0.641 0.482,0.188 0.6,-0.361 0.889,-4.134 1.348,-5.969 0.72,-6l-19.56 0c0,0 -0.469,-0.012 -0.469,0.206 0,0.12 0.169,0.315 0.709,0.634l0 0zm0 0l0 0 0 0zm38.16 -1.199c0,0 -0.126,-0.72 -3.24,-0.72 -3.223,0 -15.919,3.669 -15.84,14.4 0.076,10.249 10.232,10.559 10.8,10.559 0.671,0 3.193,-0.01 4.68,-1.2 0.212,-0.169 3.96,-7.68 3.96,-7.68 0,0 0.608,-1.118 -0.72,-0.36 -8.288,4.737 -12.452,1.146 -12.84,-3.84 -0.107,-1.368 0.269,-4.966 4.079,-7.32 3.015,-1.862 4.123,-2.286 5.16,-0.6 1.251,2.033 2.04,2.88 2.04,2.88 0.207,0.198 0.315,0.466 0.719,0.466 0.137,0 0.291,-0.044 0.482,-0.106 2.125,-0.69 2.782,-0.714 2.4,-1.68l-1.68 -4.799zm0 0l0 0 0 0z"/>
   </g>
   <path class="fil6" d="M182.044 134.495l2.806 0 0.766 -4.666 2.526 0c3.052,0 5.286,-1.674 5.74,-4.434 0.448,-2.753 -1.21,-4.489 -4.265,-4.489l-5.323 0 -2.25 13.589zm3.964 -7l0.703 -4.256 2.371 0c1.484,0 2.277,0.818 2.059,2.128 -0.221,1.31 -1.276,2.128 -2.753,2.128l-2.38 0zm12.873 -6.589l-2.806 0 -2.252 13.589 2.806 0 2.252 -13.589zm7.078 7.168l-6.172 0 -0.355 2.147 6.163 0 0.364 -2.147zm1.014 6.421l2.807 0 0.765 -4.666 2.526 0c3.052,0 5.286,-1.674 5.74,-4.434 0.449,-2.753 -1.21,-4.489 -4.265,-4.489l-5.323 0 -2.25 13.589zm3.964 -7l0.703 -4.256 2.371 0c1.484,0 2.277,0.818 2.059,2.128 -0.22,1.31 -1.275,2.128 -2.753,2.128l-2.38 0zm13.089 7c4.165,0 6.645,-2.607 7.339,-6.804 0.691,-4.178 -1.587,-6.785 -5.681,-6.785l-4.692 0 -2.252 13.589 5.286 0zm-2.088 -2.352l1.468 -8.885 2.032 0c2.697,0 3.575,1.571 3.108,4.433 -0.473,2.872 -2.022,4.452 -4.766,4.452l-1.842 0zm14.946 2.558c2.949,0 5.167,-1.892 5.625,-4.664 0.435,-2.632 -1.26,-4.536 -3.98,-4.536 -1.406,0 -2.476,0.554 -3.316,1.593l-0.016 0c0.411,-2.529 1.715,-4.228 3.668,-4.228 1.189,0 1.746,0.672 1.771,1.733l2.619 0c0.137,-2.234 -1.586,-3.898 -4.296,-3.898 -3.571,0 -5.743,2.79 -6.478,7.261 -0.699,4.219 1.027,6.739 4.403,6.739zm0.093 -2.203c-1.297,0 -2.119,-1.064 -1.891,-2.452 0.239,-1.427 1.424,-2.442 2.877,-2.442 1.313,0 2.119,1.049 1.879,2.433 -0.227,1.397 -1.477,2.461 -2.865,2.461z"/>
   <path class="fil7" d="M268.966 365.608c9.356,-13.043 16.283,-27.947 20.117,-44.05 0.146,-0.616 0.015,-1.208 -0.377,-1.706 -0.393,-0.497 -0.939,-0.761 -1.573,-0.761l-32.748 0c-0.92,0 -1.699,0.598 -1.936,1.487 -4.236,15.901 -11.961,30.38 -22.304,42.566 -0.517,0.609 -0.626,1.413 -0.29,2.138 0.335,0.725 1.019,1.161 1.818,1.161l35.665 0c0.666,0 1.239,-0.294 1.628,-0.835zm22.647 -58.284c1.148,-9.654 1.182,-19.459 0.103,-29.12 -0.114,-1.019 -0.966,-1.782 -1.991,-1.782l-32.446 0c-0.595,0 -1.107,0.231 -1.502,0.677 -0.394,0.447 -0.56,0.983 -0.486,1.574 1.16,9.331 1.124,18.83 -0.111,28.151 -0.079,0.593 0.085,1.134 0.479,1.584 0.394,0.449 0.909,0.683 1.507,0.683l32.457 0c1.021,0 1.869,-0.754 1.99,-1.767zm-2.321 -43.355c-1.355,-5.888 -3.125,-11.62 -5.275,-17.161 -0.305,-0.786 -1.024,-1.279 -1.868,-1.279l-33.374 0c-0.697,0 -1.296,0.324 -1.677,0.908 -0.381,0.584 -0.437,1.263 -0.157,1.901 2.335,5.319 4.261,10.86 5.735,16.581 0.231,0.897 1.014,1.503 1.94,1.503l32.724 0c0.631,0 1.174,-0.262 1.568,-0.755 0.393,-0.494 0.526,-1.082 0.384,-1.698zm-11.851 -31.396c-2.348,-4.346 -4.946,-8.539 -7.771,-12.558 -0.387,-0.551 -0.966,-0.851 -1.639,-0.851l-35.545 0c-0.795,0 -1.475,0.432 -1.813,1.151 -0.338,0.719 -0.237,1.519 0.271,2.131 3.18,3.834 6.104,7.889 8.746,12.138 0.376,0.605 0.989,0.945 1.701,0.945l34.287 0c0.726,0 1.35,-0.354 1.721,-0.977 0.372,-0.624 0.387,-1.34 0.042,-1.979zm-19.412 -26.79c-4.275,-4.516 -8.88,-8.715 -13.778,-12.558 -0.368,-0.288 -0.77,-0.427 -1.237,-0.427l-42.262 0c-0.926,0 -1.707,0.605 -1.94,1.5 -0.232,0.896 0.157,1.804 0.965,2.254 6.25,3.477 12.123,7.549 17.544,12.137 0.377,0.319 0.801,0.475 1.295,0.475l37.958 0c0.818,0 1.517,-0.461 1.84,-1.212 0.323,-0.751 0.177,-1.575 -0.385,-2.169zm-36.549 -26.791c-16.582,-8.046 -35.196,-12.56 -54.866,-12.56 -17.977,0 -35.954,0 -53.931,0 -4.5,0 -8.182,3.682 -8.182,8.183 0,4.501 3.681,8.183 8.182,8.183l33.931 0 73.992 0c0.945,0 1.741,-0.634 1.953,-1.555 0.211,-0.921 -0.229,-1.839 -1.079,-2.251z"/>
   <path class="fil6" d="M834.191 185.195l-37 0 0 -10 37 0c2.761,0 5,2.238 5,5 0,2.761 -2.239,5 -5,5zm-146.37 0l-37 0c-2.761,0 -5,-2.239 -5,-5 0,-2.762 2.239,-5 5,-5l37 0 0 10zm146.37 -20l-37 0 0 -10 37 0c2.761,0 5,2.239 5,5 0,2.761 -2.239,5 -5,5zm-146.37 0l-37 0c-2.761,0 -5,-2.239 -5,-5 0,-2.761 2.239,-5 5,-5l37 0 0 10zm146.37 -20l-37 0 0 -10 37 0c2.761,0 5,2.239 5,5 0,2.762 -2.239,5 -5,5zm-146.37 0l-37 0c-2.761,0 -5,-2.238 -5,-5 0,-2.761 2.239,-5 5,-5l37 0 0 10z"/>
   <path class="fil7" d="M722.505 134.195c3.314,0 6,2.687 6,6 0,3.314 -2.686,6 -6,6 -3.313,0 -6,-2.686 -6,-6 0,-3.313 2.687,-6 6,-6zm20.001 0c3.313,0 6,2.687 6,6 0,3.314 -2.687,6 -6,6 -3.314,0 -6,-2.686 -6,-6 0,-3.313 2.686,-6 6,-6zm20 0c3.314,0 6,2.687 6,6 0,3.314 -2.686,6 -6,6 -3.313,0 -6,-2.686 -6,-6 0,-3.313 2.687,-6 6,-6zm-10.483 19.9c3.314,0 6,2.687 6,6 0,3.314 -2.686,6 -6,6 -3.313,0 -6,-2.686 -6,-6 0,-3.313 2.687,-6 6,-6zm-20 0c3.313,0 6,2.687 6,6 0,3.314 -2.687,6 -6,6 -3.314,0 -6,-2.686 -6,-6 0,-3.313 2.686,-6 6,-6zm10.483 20.1c3.313,0 6,2.686 6,6 0,3.313 -2.687,6 -6,6 -3.314,0 -6,-2.687 -6,-6 0,-3.314 2.686,-6 6,-6z"/>
   <path class="fil7" d="M703.981 222.917c-25.941,0 -6.469,0 -32.32,0 -12.039,0 -21.8,9.761 -21.8,21.801 0,12.039 9.761,21.8 21.8,21.8 25.941,0 6.469,0 32.32,0 12.039,0 21.8,-9.76 21.8,-21.8 0,-12.04 -9.761,-21.801 -21.8,-21.801zm-29.91 36.801l0 -5.5 5.5 0 0 -19 -5.5 0 0 -5.5 27.5 0 0 5.5 -5.5 0 0 19 5.5 0 0 5.5 -27.5 0zm11 -5.5l5.5 0 0 -19 -5.5 0 0 19z"/>
   <path class="fil7" d="M813.349 222.918c-25.94,0 -6.468,0 -32.318,0 -12.04,0 -21.801,9.76 -21.801,21.8 0,12.04 9.761,21.8 21.801,21.8 25.94,0 6.468,0 32.318,0 12.04,0 21.801,-9.76 21.801,-21.8 0,-12.04 -9.761,-21.8 -21.801,-21.8zm-24.409 36.8l0 -5.5 5.5 0 0 -19 -5.5 0 0 -5.5c5.5,0 11,0 16.5,0l0 5.5 -5.5 0 0 19 5.5 0 0 5.5c-5.5,0 -11,0 -16.5,0z"/>
   <path class="fil6" d="M371.106 371.704c4.204,0 7.064,-1.96 7.604,-5.212 0.444,-2.732 -1.02,-4.332 -4.616,-5.128l-1.62 -0.36c-2.06,-0.468 -2.74,-1.052 -2.564,-2.104 0.212,-1.296 1.652,-2.22 3.456,-2.22 1.876,0 2.884,0.98 2.744,2.664l3.36 0c0.484,-3.508 -1.804,-5.632 -5.868,-5.632 -3.88,0 -6.768,2.016 -7.272,5.084 -0.432,2.592 1.04,4.264 4.376,5.012l1.768 0.408c2.148,0.476 2.86,1.132 2.672,2.232 -0.22,1.376 -1.732,2.288 -3.76,2.288 -2.216,0 -3.352,-1.12 -3.084,-3.036l-3.44 0c-0.62,3.74 1.692,6.004 6.244,6.004zm8.948 -0.26l12.528 0 0.504 -3.096 -8.92 0 0.704 -4.224 8.252 0 0.504 -3 -8.252 0 0.656 -4.056 8.932 0 0.516 -3.096 -12.528 0 -2.896 17.472zm14.528 0l11.544 0 0.504 -3.096 -7.932 0 2.388 -14.376 -3.608 0 -2.896 17.472zm13.364 0l12.528 0 0.504 -3.096 -8.921 0 0.705 -4.224 8.251 0 0.505 -3 -8.253 0 0.657 -4.056 8.932 0 0.516 -3.096 -12.528 0 -2.896 17.472zm22.395 0.26c3.996,0 7.361,-2.516 8.569,-6.4l-3.644 0c-0.785,2.044 -2.569,3.216 -4.713,3.216 -2.448,0 -3.735,-1.532 -3.735,-4.072 0,-3.624 2.12,-7.552 6.031,-7.552 1.985,0 3.201,1.184 3.284,3.24l3.633 0c0.079,-3.952 -2.685,-6.424 -6.808,-6.424 -5.897,0 -9.74,5.092 -9.74,10.772 0,4.48 2.835,7.22 7.123,7.22zm11.237 -14.636l5.307 0 -2.379 14.376 3.607 0 2.365 -14.376 5.295 0 0.517 -3.096 -14.184 0 -0.528 3.096z"/>
   <path class="fil6" d="M494.471 371.444l3.611 0 1.008 -6.1 3.164 0c0.068,0 0.129,0 0.188,0l2.084 6.1 3.704 0 -2.38 -6.78c2.109,-0.904 3.564,-2.64 3.948,-4.956 0.576,-3.52 -1.556,-5.736 -5.484,-5.736l-6.948 0 -2.895 17.472zm5.099 -8.996l0.901 -5.476 3.155 0c1.908,0 2.916,1.02 2.648,2.692 -0.283,1.668 -1.64,2.784 -3.54,2.784l-3.164 0zm17.8 9.26c4.264,0 7.404,-2.476 8.04,-6.244l1.908 -11.492 -3.528 0 -1.815 10.964c-0.341,2.06 -2.133,3.652 -4.453,3.652 -2.12,0 -3.244,-1.368 -2.908,-3.42l1.852 -11.196 -3.52 0 -1.867 11.256c-0.621,3.784 1.855,6.48 6.291,6.48zm9.624 -0.264l3.608 0 1.336 -8.104c0.129,-0.76 0.377,-2.284 0.609,-4.148 0.715,1.804 1.372,3.352 1.743,4.16l3.772 8.092 3.724 0 2.897 -17.472 -3.597 0 -1.44 8.644c-0.119,0.748 -0.339,2.204 -0.528,3.564 -0.492,-1.256 -1.031,-2.604 -1.336,-3.272l-4.156 -8.936 -3.736 0 -2.896 17.472z"/>
  </g>
  <g>
   <circle class="fil8" cx="146.614" cy="292.318" r="84"/>
   <path class="fil6 str1" d="M815.691 139.695c0,-10.217 -8.283,-18.5 -18.5,-18.5 -10.217,0 -18.5,8.283 -18.5,18.5 0,21.381 0,18.756 0,40.001 0,10.218 8.282,18.5 18.5,18.5 10.217,0 18.5,-8.282 18.5,-18.5 0,-21.615 0,-16.689 0,-40.001zm-109.37 0c0,-10.217 -8.283,-18.5 -18.5,-18.5 -10.217,0 -18.5,8.283 -18.5,18.5 0,21.381 0,18.755 0,40.001 0,10.217 8.282,18.5 18.5,18.5 10.218,0 18.5,-8.283 18.5,-18.5 0,-21.615 0,-16.69 0,-40.001z"/>
   <path class="fil8" d="M783.69 179.696c0,7.456 6.044,13.5 13.5,13.5 7.456,0 13.5,-6.044 13.5,-13.5 0,-16.308 0,-23.271 0,-40.001 0,-7.456 -6.044,-13.5 -13.5,-13.5 -7.456,0 -13.5,6.044 -13.5,13.5 0,20.311 0,24.795 0,40.001zm-109.369 0c0,7.456 6.044,13.5 13.5,13.5 7.456,0 13.5,-6.044 13.5,-13.5 0,-16.308 0,-23.271 0,-40.001 0,-7.456 -6.044,-13.5 -13.5,-13.5 -7.456,0 -13.5,6.044 -13.5,13.5 0,20.311 0,24.795 0,40.001z"/>
   <g>
    <circle class="fil9" cx="687.821" cy="139.695" r="11"/>
    <path class="fil10" d="M687.821 130.695c2.209,0 4,1.791 4,3.999 0,2.21 -1.791,4.001 -4,4.001 -2.209,0 -4,-1.791 -4,-4.001 0,-2.208 1.791,-3.999 4,-3.999z"/>
   </g>
   <g>
    <circle class="fil9" cx="797.191" cy="179.696" r="11"/>
    <path class="fil10" d="M797.191 170.696c2.209,0 4,1.791 4,4 0,2.209 -1.791,4 -4,4 -2.209,0 -4,-1.791 -4,-4 0,-2.209 1.791,-4 4,-4z"/>
   </g>
   <path class="fil6 str1" d="M797.191 283.178c-23.196,0 -42,18.804 -42,42 0,23.196 18.804,42 42,42 23.196,0 42,-18.804 42,-42 0,-23.196 -18.804,-42 -42,-42zm-109.37 0c-23.196,0 -42,18.804 -42,42 0,23.196 18.804,42 42,42 23.196,0 42,-18.804 42,-42 0,-23.196 -18.804,-42 -42,-42z"/>
   <path class="fil8" d="M797.191 288.178c20.435,0 37,16.565 37,37 0,20.435 -16.565,37 -37,37 -20.435,0 -37,-16.565 -37,-37 0,-20.435 16.565,-37 37,-37zm-109.37 0c20.435,0 37,16.565 37,37 0,20.435 -16.565,37 -37,37 -20.435,0 -37,-16.565 -37,-37 0,-20.435 16.565,-37 37,-37z"/>
   <path class="fil6 str1" d="M430.184 343.678c10.218,0 18.501,-8.283 18.501,-18.5 0,-10.217 -8.283,-18.5 -18.501,-18.5 -21.381,0 -18.755,0 -40.001,0 -10.217,0 -18.5,8.282 -18.5,18.5 0,10.217 8.283,18.5 18.5,18.5 21.616,0 16.69,0 40.001,0zm69.632 0c23.311,0 18.385,0 40.001,0 10.217,0 18.5,-8.283 18.5,-18.5 0,-10.218 -8.283,-18.5 -18.5,-18.5 -21.246,0 -18.62,0 -40.001,0 -10.218,0 -18.501,8.283 -18.501,18.5 0,10.217 8.283,18.5 18.501,18.5z"/>
   <path class="fil8" d="M499.816 311.678c-7.456,0 -13.501,6.044 -13.501,13.5 0,7.456 6.045,13.5 13.501,13.5 16.308,0 23.27,0 40.001,0 7.455,0 13.5,-6.044 13.5,-13.5 0,-7.456 -6.045,-13.5 -13.5,-13.5 -20.312,0 -24.795,0 -40.001,0zm-109.633 0c-7.455,0 -13.5,6.044 -13.5,13.5 0,7.456 6.045,13.5 13.5,13.5 16.309,0 23.271,0 40.001,0 7.456,0 13.501,-6.044 13.501,-13.5 0,-7.456 -6.045,-13.5 -13.501,-13.5 -20.311,0 -24.794,0 -40.001,0z"/>
  </g>
  <g id="dpad">
   <circle class="fil11" cx="146.614" cy="292.318" r="80"/>
   <path class="fil2" d="M146.614 212.318c9.289,0 18.205,1.589 26.499,4.5l0 45.996c0,1.654 1.35,3.004 3.004,3.004l45.996 0c2.912,8.293 4.5,17.211 4.5,26.5 0,9.289 -1.588,18.205 -4.499,26.5l-45.997 0c-1.654,0 -3.004,1.349 -3.004,3.003l0 45.997c-8.293,2.911 -17.21,4.5 -26.499,4.5 -9.289,0 -18.206,-1.589 -26.501,-4.5l0 -45.997c0,-1.654 -1.349,-3.003 -3.003,-3.003l-45.997 0c-2.911,-8.294 -4.5,-17.211 -4.5,-26.5 0,-9.289 1.589,-18.206 4.5,-26.5l45.997 0c1.654,0 3.003,-1.35 3.003,-3.004l0 -45.996c8.294,-2.912 17.212,-4.5 26.501,-4.5z"/>
   <path class="fil12" d="M146.614 212.318c7.267,0 14.307,0.975 20.999,2.791l0 50.205c0,3.307 2.697,6.004 6.004,6.004l50.205 0c1.816,6.692 2.791,13.732 2.791,21 0,7.268 -0.975,14.307 -2.791,21l-50.205 0c-3.307,0 -6.004,2.696 -6.004,6.003l0 50.206c-6.692,1.816 -13.732,2.791 -20.999,2.791 -7.268,0 -14.308,-0.975 -21.001,-2.791l0 -50.206c0,-3.307 -2.696,-6.003 -6.003,-6.003l-50.205 0c-1.817,-6.693 -2.792,-13.732 -2.792,-21 0,-7.268 0.975,-14.308 2.792,-21l50.205 0c3.307,0 6.003,-2.697 6.003,-6.004l0 -50.205c6.693,-1.816 13.733,-2.791 21.001,-2.791z"/>
   <circle class="fil2" cx="146.614" cy="292.318" r="19"/>
  </g>
  <circle class="fil9" cx="797.191" cy="325.178" r="35"/>
  <circle class="fil9" cx="687.821" cy="325.178" r="35"/>
  <path class="fil13" d="M687.821 295.007c16.663,0 30.172,13.508 30.172,30.171 0,0.111 -0.001,0.221 -0.002,0.331 -0.009,0.83 -0.526,1.529 -1.317,1.78 -0.79,0.252 -1.616,-0.021 -2.102,-0.693 -5.995,-8.285 -15.743,-13.676 -26.751,-13.676 -11.008,0 -20.756,5.391 -26.75,13.676 -0.486,0.672 -1.313,0.944 -2.103,0.693 -0.791,-0.252 -1.308,-0.951 -1.316,-1.78 -0.001,-0.11 -0.002,-0.221 -0.002,-0.331 0,-16.663 13.508,-30.171 30.171,-30.171z"/>
  <path class="fil13" d="M797.191 295.007c16.663,0 30.171,13.508 30.171,30.171 0,0.111 0,0.221 -0.002,0.331 -0.008,0.83 -0.525,1.529 -1.316,1.78 -0.79,0.252 -1.616,-0.021 -2.102,-0.693 -5.995,-8.285 -15.743,-13.676 -26.751,-13.676 -11.009,0 -20.756,5.391 -26.751,13.676 -0.486,0.672 -1.312,0.944 -2.102,0.693 -0.791,-0.252 -1.308,-0.951 -1.317,-1.78 -0.001,-0.11 -0.001,-0.221 -0.001,-0.331 0,-16.663 13.508,-30.171 30.171,-30.171z"/>
  <path class="fil14" d="M390.183 313.678c-6.351,0 -11.5,5.148 -11.5,11.499 0,6.352 5.149,11.5 11.5,11.5 16.333,0 23.054,0 40.002,0 6.351,0 11.499,-5.148 11.499,-11.5 0,-6.351 -5.148,-11.499 -11.499,-11.499 -16.75,0 -24.387,0 -40.002,0z"/>
  <path class="fil14" d="M499.815 313.678c-6.351,0 -11.499,5.149 -11.499,11.5 0,6.351 5.148,11.499 11.499,11.499 16.333,0 23.055,0 40.002,0 6.351,0 11.5,-5.148 11.5,-11.499 0,-6.351 -5.149,-11.5 -11.5,-11.5 -16.75,0 -24.387,0 -40.002,0z"/>
 </g>
</svg>
