<?xml version="1.0" encoding="UTF-8"?>
<!DOCTYPE svg PUBLIC "-//W3C//DTD SVG 1.1//EN" "http://www.w3.org/Graphics/SVG/1.1/DTD/svg11.dtd">
<svg xml:space="preserve" viewBox="0 0 930 426" width="930px" height="426px" version="1.1" style="shape-rendering:geometricPrecision; fill-rule:evenodd; clip-rule:evenodd" xmlns="http://www.w3.org/2000/svg">
 <defs>
  <style type="text/css">
    .str0 {stroke:#101010}
    .fil2 {fill:#1A1A1A}
    .fil8 {fill:#333333}
    .fil9 {fill:#353635}
    .fil11 {fill:#404040}
    .fil10 {fill:#4D4D4D}
    .fil12 {fill:#5C5C5C}
    .fil7 {fill:#E0D000}
    .fil6 {fill:#F07024}
    .fil5 {fill:#1F1F1F}
    .fil13 {fill:black;fill-opacity:0.15}
    .fil1 {fill:url(#id0)}
    .fil3 {fill:url(#id1)}
    .fil4 {fill:url(#id2)}
    .fil0 {fill:url(#id3)}
  </style>
  <linearGradient id="id0" gradientUnits="userSpaceOnUse" x1="465" y1="63.017" x2="465" y2="20.305">
   <stop offset="0" style="stop-opacity:1; stop-color:#333333"/>
   <stop offset="0.25" style="stop-opacity:1; stop-color:#1A1A1A"/>
   <stop offset="1" style="stop-opacity:1; stop-color:#1A1A1A"/>
  </linearGradient>
  <linearGradient id="id1" gradientUnits="userSpaceOnUse" x1="331.931" y1="131.015" x2="598.069" y2="131.015">
   <stop offset="0" style="stop-opacity:1; stop-color:#282828"/>
   <stop offset="0.5" style="stop-opacity:1; stop-color:#333333"/>
   <stop offset="1" style="stop-opacity:1; stop-color:#282828"/>
  </linearGradient>
  <linearGradient id="id2" gradientUnits="userSpaceOnUse" x1="351.896" y1="130.846" x2="576.611" y2="130.846">
   <stop offset="0" style="stop-opacity:1; stop-color:#3C3C3C"/>
   <stop offset="0.5" style="stop-opacity:1; stop-color:#474747"/>
   <stop offset="1" style="stop-opacity:1; stop-color:#3C3C3C"/>
  </linearGradient>
  <linearGradient id="id3" gradientUnits="userSpaceOnUse" x1="4.5" y1="239.915" x2="925.5" y2="239.915">
   <stop offset="0" style="stop-opacity:1; stop-color:#1A1A1A"/>
   <stop offset="0.05" style="stop-opacity:1; stop-color:#333333"/>
   <stop offset="0.95" style="stop-opacity:1; stop-color:#333333"/>
   <stop offset="1" style="stop-opacity:1; stop-color:#1A1A1A"/>
  </linearGradient>
 </defs>
 <g>
  <g id="shell">
   <path class="fil0" d="M19.504 421.71l890.992 0c8.264,0 15.004,-6.74 15.004,-15.003l0 -333.69c0,-7.634 -5.632,-13.985 -13.211,-14.897l-894.578 0c-7.579,0.912 -13.211,7.263 -13.211,14.897l0 333.69c0,8.263 6.74,15.003 15.004,15.003z"/>
   <polygon class="fil1" points="912.289,58.12 598.069,20.305 331.931,20.305 17.711,58.12 81.312,63.017 848.688,63.017 "/>
   <path class="fil2" d="M465 260.743c73.492,0 133.069,-59.578 133.069,-133.07l0 -3.001c0,73.492 -59.577,133.07 -133.069,133.07 -73.492,0 -133.069,-59.578 -133.069,-133.07l0 3.001c0,73.492 59.577,133.07 133.069,133.07z"/>
   <path class="fil3" d="M465 257.742c73.492,0 133.069,-59.578 133.069,-133.07l0 -115.378c0,-2.756 -2.248,-5.004 -5.004,-5.004 -86.912,0 -169.218,0 -256.13,0 -2.756,0 -5.004,2.248 -5.004,5.004l0 115.378c0,73.492 59.577,133.07 133.069,133.07z"/>
   <path class="fil4" d="M557.596 142.529l11.101 0 0 -4.139 -11.101 0 0 4.139zm1.377 -22.89c-9.724,0 -17.586,7.862 -17.586,17.586 0,9.724 7.862,17.689 17.586,17.689 9.724,0 17.638,-7.863 17.638,-17.638 -0.051,-9.724 -7.914,-17.637 -17.638,-17.637zm-6.001 24.913l-5.576 0 0 -1.964 1.802 0.001 0 -10.302 -1.751 0 0 -2.023 3.774 0 0 12.325 1.751 0 0 1.963 0 0zm17.637 -10.574l-1.802 0 0 -1.802 -11.312 0 0 4.301 12.111 0 1.063 1.063 0 5.686 -1.326 1.326 -12.375 0 -1.327 -1.326 0 -11.79 1.224 -1.224 12.699 0.001 1.114 1.113 -0.069 2.652 0 0 0 0zm-115.548 -6.375l5.788 0 0 26.937 -8.125 0c-1.751,0 -3.876,-1.327 -3.876,-3.4l0 -40.639c0,-1.7 1.802,-3.561 3.824,-3.561l4.412 0c1.964,0 3.774,1.802 3.774,3.502l0 9.664 -3.876 0 0 -9.452 -4.412 0 0 40.69 4.514 0 0 -20.4 -1.964 0 -0.059 -3.341 0 0zm55.997 10.472l0 16.363 -3.663 0 0 -31.339c0,-1.437 1.437,-2.975 3.188,-2.975l6 -0.001 0 3.026 -5.525 0 0 11.577 4.565 0 0 3.35 -4.565 -0.001zm12.963 -17.909l3.825 0 0 12.427 2.176 2.176 2.125 -2.125 0 -12.478 3.774 0 0 11.849c0,1.436 -3.774,5.262 -3.774,5.262 0,0 3.774,3.825 3.774,5.363l0 11.738 -3.561 0 0 -12.274 -2.287 -2.337 -2.286 2.286 0 12.325 -3.774 0 0 -11.79c0,-1.487 4.037,-5.414 4.037,-5.414 0,0 -4.037,-3.774 -4.037,-5.312l0 -11.696 0.008 0zm-46.486 17.909c1.326,0 3.026,-1.538 3.026,-3.613l0 -11.262c0,-1.649 -1.862,-3.136 -3.927,-3.136l-7.812 0 0 34.374 3.613 0 0 -16.15 1.377 0 3.986 16.039 3.502 0 -3.765 -16.252zm-0.8 -3.4l-4.3 0 0 -11.313 4.3 0 0 11.313zm19.448 -14.509l-4.726 0c-2.125,0 -3.399,1.751 -3.399,3.187l0 31.025 3.612 0 0 -16.362 4.513 0 0 16.362 3.613 0 0 -30.863c0,-2.074 -1.385,-3.349 -3.613,-3.349zm-0.11 14.509l-4.301 0 0 -11.109 4.301 0 0 11.109zm-144.177 -27.896l11.051 0 0 3.246 -3.239 0 0 44.353 -3.885 0 0 -44.353 -3.927 0 0 -3.246zm21.14 44.412l4.301 0 0 -31.127 3.774 0 0 31.076c0,2.023 -1.802,3.451 -3.715,3.451l-4.411 0c-1.964,0 -3.775,-1.598 -3.775,-3.502l0 -31.025 3.775 0 0.051 31.127 0 0zm24.548 -13.014c1.326,0 3.026,-1.538 3.026,-3.612l0 -11.263c0,-1.649 -1.862,-3.136 -3.927,-3.136l-7.811 0 0 34.374 3.612 0 0 -16.15 1.377 0 3.987 16.039 3.501 0 -3.765 -16.252zm-0.689 -3.451l-4.301 0 0 -11.211 4.301 0 0 11.211zm22.891 4.25c0,-1.538 -1.649,-2.499 -1.649,-2.499 0,0 1.649,-1.062 1.649,-2.499l0 -10.514c0,-1.964 -1.751,-3.29 -3.502,-3.29l-8.177 0 0 34.315 8.177 0c1.649,0 3.502,-1.063 3.502,-3.29 0,0.051 0,-10.684 0,-12.223zm-3.715 12.164l-4.301 0 0 -12.801 4.301 0 0 12.801zm0 -16.414l-4.301 0 0 -11.211 4.301 0 0 11.211zm19.389 -14.874l-2.176 0 -2.074 0c-2.125,0 -3.714,1.861 -3.714,3.238l0 27.889c0,1.802 2.014,3.451 3.714,3.451l4.624 -0.001c1.802,0 3.613,-1.861 3.613,-3.4l0 -27.999c0,-1.266 -1.76,-3.178 -3.987,-3.178zm0.102 31.075l-4.139 0 0 -27.625 4.139 0 0 27.625z"/>
  </g>
  <g id="onlay">
   <path class="fil5 str0" d="M207.426 367.716c21.987,-17.756 36.051,-44.935 36.051,-75.398 0,-53.496 -43.367,-96.863 -96.863,-96.863 -16.168,0 -31.411,3.962 -44.81,10.967 -4.466,2.335 -9.432,2.179 -13.742,-0.431 -4.311,-2.611 -6.75,-6.939 -6.75,-11.978l0 -74.491c0,-16.525 13.479,-30.003 30.004,-30.003l155.285 0c8.345,0 15.527,3.007 21.382,8.954 5.854,5.947 8.749,13.176 8.618,21.52 -0.013,0.891 -0.021,1.784 -0.021,2.679 0,93.016 75.404,168.42 168.42,168.42 93.016,0 168.42,-75.404 168.42,-168.42 0,-0.895 -0.008,-1.788 -0.021,-2.679 -0.131,-8.344 2.764,-15.573 8.618,-21.52 5.855,-5.947 13.037,-8.954 21.382,-8.954l155.285 0c16.525,0 30.004,13.478 30.004,30.003l0 52.14c9.941,11.748 15.939,26.94 15.939,43.535 0,16.594 -5.998,31.786 -15.939,43.534l0 22.912c9.941,11.748 15.939,26.94 15.939,43.535 0,37.244 -30.192,67.436 -67.436,67.436l-580.967 0c-6.045,0 -11.189,-3.638 -13.203,-9.337 -2.015,-5.7 -0.298,-11.763 4.405,-15.561z"/>
   <g>
    <path class="fil6" d="M185.869 147.191l-3.896 0 0 -26 3.896 0 0 26zm-0.096 -29.248l-2.048 0 -1.952 0c-2,0 -3.496,1.752 -3.496,3.048l0 26.248c0,1.696 1.896,3.249 3.496,3.249l4.351 -0.001c1.697,0 3.401,-1.752 3.401,-3.2l0 -26.352c0,-1.192 -1.656,-2.992 -3.752,-2.992zm-18.248 14l-4.048 0 0 -10.552 4.048 0 0 10.552zm0 15.448l-4.048 0 0 -12.048 4.048 0 0 12.048zm3.496 -11.448c0,-1.448 -1.552,-2.352 -1.552,-2.352 0,0 1.552,-1 1.552,-2.352l0 -9.896c0,-1.848 -1.648,-3.096 -3.296,-3.096l-7.696 0 0 32.296 7.696 0c1.552,0 3.296,-1 3.296,-3.096 0,0.048 0,-10.056 0,-11.504zm-21.544 -4l-4.048 0 0 -10.552 4.048 0 0 10.552zm0.647 3.248c1.249,0 2.849,-1.448 2.849,-3.4l0 -10.6c0,-1.552 -1.752,-2.952 -3.697,-2.952l-7.351 0 0 32.353 3.399 -0.001 0 -15.2 1.297 0 3.752 15.096 3.295 0 -3.544 -15.296zm-23.103 12.248l4.048 0 0 -29.296 3.552 0 0 29.248c0,1.904 -1.696,3.249 -3.496,3.249l-4.152 0c-1.848,0 -3.552,-1.505 -3.552,-3.297l0 -29.2 3.552 0 0.048 29.296 0 0zm-19.896 -41.8l10.4 0 0 3.056 -3.048 0 0 41.744 -3.656 0 0 -41.744 -3.696 0 0 -3.056z"/>
    <path class="fil7" d="M238.773 121.439l4.047 0c0,8.6 0,17.2 0,25.8l-4.047 0c0,-8.6 0,-17.2 0,-25.8zm7.552 -0.048c0,-1.952 -1.305,-3.152 -3.4,-3.152 -2.55,0 -5.099,0 -7.649,0l0 32.2c2.55,0 5.099,0 7.649,0 2.095,0 3.4,-1.2 3.4,-3.152 0,-8.632 0,-17.264 0,-25.896zm-47.952 1.793l0.008 27.407 3.544 0 0 -15.296 4.104 0c1.648,0 3.648,-1.248 3.648,-3.199l0 -22.953c0,-1.6 -1.696,-3.352 -3.6,-3.352l-7.704 0 0 17.393zm3.648 -13.897l4.152 0 0 23.001 -4.248 0 0.096 -23.001zm22.695 22.664l-4.047 0 0 -10.456 4.047 0 0 10.456zm0.105 -13.656l-4.448 0c-2.001,0 -3.201,1.648 -3.201,3l0 29.2 3.401 0 0 -15.4 4.248 0 0 15.4 3.4 0 0 -29.048c0,-1.952 -1.304,-3.152 -3.4,-3.152z"/>
   </g>
   <polygon class="fil7" points="799.94,107.915 794.44,107.915 794.44,151.515 799.94,151.515 "/>
   <path class="fil7" d="M696.071 107.915l-5.5 0 0 43.6 5.5 0 0 -43.6zm-11 0l-5.5 0 0 43.6 5.5 0 0 -43.6z"/>
   <path class="fil6" d="M742.361 236.021c1.105,0 2.001,0.895 2.001,1.999 0,1.105 -0.896,2.001 -2.001,2.001 -1.104,0 -1.999,-0.896 -1.999,-2.001 0,-1.104 0.895,-1.999 1.999,-1.999zm0.145 -20.824c2.209,0 4,1.79 4,3.999 0,2.21 -1.791,4.001 -4,4.001 -2.209,0 -4,-1.791 -4,-4.001 0,-2.209 1.791,-3.999 4,-3.999zm-0.145 -25.176c3.315,0 6.001,2.686 6.001,6 0,3.315 -2.686,6 -6.001,6 -3.314,0 -6,-2.685 -6,-6 0,-3.314 2.686,-6 6,-6z"/>
   <path class="fil7" d="M388.541 371.711c-1.422,0 -2.498,-0.405 -3.227,-1.214 -0.729,-0.809 -1.093,-1.969 -1.093,-3.48l0 -1.067 2.773 0 0 1.28c0,1.209 0.507,1.814 1.52,1.814 1.031,0 1.547,-0.622 1.547,-1.867 0,-0.765 -0.187,-1.44 -0.56,-2.026 -0.355,-0.587 -1.022,-1.307 -2,-2.16 -1.209,-1.085 -2.062,-2.054 -2.56,-2.907 -0.48,-0.889 -0.72,-1.867 -0.72,-2.934 0,-1.493 0.373,-2.64 1.12,-3.44 0.747,-0.799 1.831,-1.2 3.253,-1.2 1.387,0 2.445,0.405 3.174,1.214 0.729,0.809 1.093,1.969 1.093,3.48l0 0.773 -2.773 0 0 -0.96c0,-1.226 -0.489,-1.84 -1.467,-1.84 -0.996,0 -1.493,0.596 -1.493,1.787 0,0.693 0.186,1.315 0.56,1.866 0.391,0.605 1.066,1.316 2.026,2.134 1.227,1.067 2.072,2.044 2.534,2.933 0.48,0.871 0.72,1.893 0.72,3.067 0,1.529 -0.378,2.702 -1.134,3.52 -0.755,0.818 -1.853,1.227 -3.293,1.227zm14.187 -9.707l0 3.253 -5.547 0 0 2.294c0,1.102 0.471,1.653 1.413,1.653 0.943,0 1.414,-0.551 1.414,-1.653l0 -0.507 2.72 0 0 0.24c0,1.422 -0.36,2.515 -1.08,3.28 -0.72,0.764 -1.756,1.147 -3.107,1.147 -1.351,0 -2.387,-0.383 -3.107,-1.147 -0.72,-0.765 -1.08,-1.858 -1.08,-3.28l0 -5.28c0,-1.423 0.36,-2.516 1.08,-3.28 0.72,-0.765 1.756,-1.147 3.107,-1.147 1.351,0 2.387,0.382 3.107,1.147 0.72,0.764 1.08,1.857 1.08,3.28zm-5.547 -0.267l0 1.28 2.773 0 0 -1.28c0,-1.102 -0.462,-1.653 -1.386,-1.653 -0.925,0 -1.387,0.551 -1.387,1.653zm10.24 9.707l-2.827 0 0 -18.667 2.827 0 0 18.667zm10.294 -9.44l0 3.253 -5.547 0 0 2.294c0,1.102 0.471,1.653 1.413,1.653 0.943,0 1.414,-0.551 1.414,-1.653l0 -0.507 2.72 0 0 0.24c0,1.422 -0.36,2.515 -1.08,3.28 -0.721,0.764 -1.756,1.147 -3.107,1.147 -1.351,0 -2.387,-0.383 -3.107,-1.147 -0.72,-0.765 -1.08,-1.858 -1.08,-3.28l0 -5.28c0,-1.423 0.36,-2.516 1.08,-3.28 0.72,-0.765 1.756,-1.147 3.107,-1.147 1.351,0 2.386,0.382 3.107,1.147 0.72,0.764 1.08,1.857 1.08,3.28zm-5.547 -0.267l0 1.28 2.773 0 0 -1.28c0,-1.102 -0.462,-1.653 -1.386,-1.653 -0.925,0 -1.387,0.551 -1.387,1.653zm7.2 5.6l0 -5.387c0,-1.404 0.356,-2.484 1.066,-3.239 0.712,-0.756 1.734,-1.134 3.067,-1.134 1.316,0 2.316,0.382 3,1.147 0.685,0.764 1.027,1.84 1.027,3.226l0 0.827 -2.72 0 0 -1.093c0,-1.067 -0.436,-1.6 -1.307,-1.6 -0.871,0 -1.306,0.533 -1.306,1.6l0 5.92c0,1.066 0.435,1.6 1.306,1.6 0.871,0 1.307,-0.534 1.307,-1.6l0 -1.36 2.72 0 0 1.093c0,1.387 -0.342,2.462 -1.027,3.227 -0.684,0.764 -1.684,1.147 -3,1.147 -1.333,0 -2.355,-0.378 -3.067,-1.134 -0.71,-0.755 -1.066,-1.836 -1.066,-3.24zm15.573 -9.493l0 2.4 -2.053 0 0 7.787c0,0.426 0.084,0.728 0.253,0.906 0.169,0.178 0.449,0.267 0.84,0.267 0.302,0 0.623,-0.054 0.96,-0.16l0 2.4c-0.426,0.177 -0.942,0.267 -1.547,0.267 -2.222,0 -3.333,-1.103 -3.333,-3.307l0 -8.16 -1.546 0 0 -2.4 1.68 0 0.266 -3.68 2.427 0 0 3.68 2.053 0z"/>
   <path class="fil7" d="M507.414 371.444l-2.933 0 0 -18.667 4.346 0c1.494,0 2.591,0.352 3.294,1.054 0.702,0.702 1.053,1.782 1.053,3.24l0 1.146c0,1.956 -0.64,3.183 -1.92,3.68l0 0.054c1.298,0.391 1.947,1.707 1.947,3.946l0 3.281c0,1.013 0.106,1.768 0.319,2.266l-2.986 0c-0.178,-0.515 -0.267,-1.28 -0.267,-2.293l0 -3.414c0,-0.853 -0.138,-1.449 -0.413,-1.786 -0.276,-0.338 -0.751,-0.507 -1.427,-0.507l-1.013 0 0 8zm0 -16l0 5.334 1.066 0c0.605,0 1.049,-0.156 1.334,-0.467 0.284,-0.311 0.427,-0.814 0.427,-1.507l0 -1.44c0,-1.28 -0.498,-1.92 -1.494,-1.92l-1.333 0zm13.227 11.574l0 -9.174 2.826 0 0 13.6 -2.453 0 -0.054 -1.573c-0.497,1.227 -1.404,1.84 -2.719,1.84 -2.027,0 -3.041,-1.325 -3.041,-3.973l0 -9.894 2.827 0 0 9.573c0,1.192 0.391,1.787 1.174,1.787 0.96,0 1.44,-0.729 1.44,-2.186zm10.24 -9.441c2.026,0 3.039,1.325 3.039,3.974l0 9.893 -2.826 0 0 -9.573c0,-1.191 -0.391,-1.787 -1.173,-1.787 -0.96,0 -1.44,0.729 -1.44,2.187l0 9.173 -2.827 0 0 -13.6 2.453 0 0.053 1.573c0.516,-1.226 1.423,-1.84 2.721,-1.84z"/>
  </g>
  <g>
   <circle class="fil2" cx="146.614" cy="292.318" r="84"/>
   <path class="fil8 str0" d="M797.191 173.197c-23.196,0 -42,18.803 -42,42 0,23.196 18.804,42 42,42 23.196,0 42,-18.804 42,-42 0,-23.197 -18.804,-42 -42,-42zm-109.37 0c-23.196,0 -42,18.803 -42,42 0,23.196 18.804,42 42,42 23.196,0 42,-18.804 42,-42 0,-23.197 -18.804,-42 -42,-42z"/>
   <path class="fil2" d="M797.191 178.196c20.435,0 37,16.566 37,37.001 0,20.434 -16.565,37 -37,37 -20.435,0 -37,-16.566 -37,-37 0,-20.435 16.565,-37.001 37,-37.001zm-109.37 0c20.435,0 37,16.566 37,37.001 0,20.434 -16.565,37 -37,37 -20.435,0 -37,-16.566 -37,-37 0,-20.435 16.565,-37.001 37,-37.001z"/>
   <path class="fil8 str0" d="M797.191 283.178c-23.196,0 -42,18.804 -42,42 0,23.196 18.804,42 42,42 23.196,0 42,-18.804 42,-42 0,-23.196 -18.804,-42 -42,-42zm-109.37 0c-23.196,0 -42,18.804 -42,42 0,23.196 18.804,42 42,42 23.196,0 42,-18.804 42,-42 0,-23.196 -18.804,-42 -42,-42z"/>
   <path class="fil2" d="M797.191 288.178c20.435,0 37,16.565 37,37 0,20.435 -16.565,37 -37,37 -20.435,0 -37,-16.565 -37,-37 0,-20.435 16.565,-37 37,-37zm-109.37 0c20.435,0 37,16.565 37,37 0,20.435 -16.565,37 -37,37 -20.435,0 -37,-16.565 -37,-37 0,-20.435 16.565,-37 37,-37z"/>
   <path class="fil9 str0" d="M430.184 343.678c10.218,0 18.501,-8.283 18.501,-18.5 0,-10.217 -8.283,-18.5 -18.501,-18.5 -21.381,0 -18.755,0 -40.001,0 -10.217,0 -18.5,8.282 -18.5,18.5 0,10.217 8.283,18.5 18.5,18.5 21.616,0 16.69,0 40.001,0zm69.632 0c23.311,0 18.385,0 40.001,0 10.217,0 18.5,-8.283 18.5,-18.5 0,-10.218 -8.283,-18.5 -18.5,-18.5 -21.246,0 -18.62,0 -40.001,0 -10.218,0 -18.501,8.283 -18.501,18.5 0,10.217 8.283,18.5 18.501,18.5z"/>
   <path class="fil2" d="M499.816 311.678c-7.456,0 -13.501,6.044 -13.501,13.5 0,7.456 6.045,13.5 13.501,13.5 16.308,0 23.27,0 40.001,0 7.455,0 13.5,-6.044 13.5,-13.5 0,-7.456 -6.045,-13.5 -13.5,-13.5 -20.312,0 -24.795,0 -40.001,0zm-109.633 0c-7.455,0 -13.5,6.044 -13.5,13.5 0,7.456 6.045,13.5 13.5,13.5 16.309,0 23.271,0 40.001,0 7.456,0 13.501,-6.044 13.501,-13.5 0,-7.456 -6.045,-13.5 -13.501,-13.5 -20.311,0 -24.794,0 -40.001,0z"/>
  </g>
  <g id="dpad">
   <circle class="fil10" cx="146.614" cy="292.318" r="80"/>
   <path class="fil11" d="M146.614 212.318c9.289,0 18.205,1.589 26.499,4.5l0 45.996c0,1.654 1.35,3.004 3.004,3.004l45.996 0c2.912,8.293 4.5,17.211 4.5,26.5 0,9.289 -1.588,18.205 -4.499,26.5l-45.997 0c-1.654,0 -3.004,1.349 -3.004,3.003l0 45.997c-8.293,2.911 -17.21,4.5 -26.499,4.5 -9.289,0 -18.206,-1.589 -26.501,-4.5l0 -45.997c0,-1.654 -1.349,-3.003 -3.003,-3.003l-45.997 0c-2.911,-8.294 -4.5,-17.211 -4.5,-26.5 0,-9.289 1.589,-18.206 4.5,-26.5l45.997 0c1.654,0 3.003,-1.35 3.003,-3.004l0 -45.996c8.294,-2.912 17.212,-4.5 26.501,-4.5z"/>
   <path class="fil12" d="M146.614 212.318c7.267,0 14.307,0.975 20.999,2.791l0 50.205c0,3.307 2.697,6.004 6.004,6.004l50.205 0c1.816,6.692 2.791,13.732 2.791,21 0,7.268 -0.975,14.307 -2.791,21l-50.205 0c-3.307,0 -6.004,2.696 -6.004,6.003l0 50.206c-6.692,1.816 -13.732,2.791 -20.999,2.791 -7.268,0 -14.308,-0.975 -21.001,-2.791l0 -50.206c0,-3.307 -2.696,-6.003 -6.003,-6.003l-50.205 0c-1.817,-6.693 -2.792,-13.732 -2.792,-21 0,-7.268 0.975,-14.308 2.792,-21l50.205 0c3.307,0 6.003,-2.697 6.003,-6.004l0 -50.205c6.693,-1.816 13.733,-2.791 21.001,-2.791z"/>
   <circle class="fil11" cx="146.614" cy="292.318" r="19"/>
  </g>
  <circle class="fil10" cx="797.191" cy="325.178" r="35"/>
  <circle class="fil10" cx="687.821" cy="325.178" r="35"/>
  <path class="fil13" d="M687.821 295.007c16.663,0 30.172,13.508 30.172,30.171 0,0.111 -0.001,0.221 -0.002,0.331 -0.009,0.83 -0.526,1.529 -1.317,1.78 -0.79,0.252 -1.616,-0.021 -2.102,-0.693 -5.995,-8.285 -15.743,-13.676 -26.751,-13.676 -11.008,0 -20.756,5.391 -26.75,13.676 -0.486,0.672 -1.313,0.944 -2.103,0.693 -0.791,-0.252 -1.308,-0.951 -1.316,-1.78 -0.001,-0.11 -0.002,-0.221 -0.002,-0.331 0,-16.663 13.508,-30.171 30.171,-30.171z"/>
  <path class="fil13" d="M797.191 295.007c16.663,0 30.171,13.508 30.171,30.171 0,0.111 0,0.221 -0.002,0.331 -0.008,0.83 -0.525,1.529 -1.316,1.78 -0.79,0.252 -1.616,-0.021 -2.102,-0.693 -5.995,-8.285 -15.743,-13.676 -26.751,-13.676 -11.009,0 -20.756,5.391 -26.751,13.676 -0.486,0.672 -1.312,0.944 -2.102,0.693 -0.791,-0.252 -1.308,-0.951 -1.317,-1.78 -0.001,-0.11 -0.001,-0.221 -0.001,-0.331 0,-16.663 13.508,-30.171 30.171,-30.171z"/>
  <circle class="fil10" cx="797.191" cy="215.197" r="35"/>
  <circle class="fil10" cx="687.821" cy="215.197" r="35"/>
  <path class="fil13" d="M687.821 185.025c16.663,0 30.172,13.508 30.172,30.172 0,0.11 -0.001,0.221 -0.002,0.331 -0.009,0.829 -0.526,1.528 -1.317,1.78 -0.79,0.252 -1.616,-0.021 -2.102,-0.693 -5.995,-8.285 -15.743,-13.676 -26.751,-13.676 -11.008,0 -20.756,5.391 -26.75,13.676 -0.486,0.672 -1.313,0.944 -2.103,0.692 -0.791,-0.251 -1.308,-0.95 -1.316,-1.779 -0.001,-0.11 -0.002,-0.221 -0.002,-0.331 0,-16.664 13.508,-30.172 30.171,-30.172z"/>
  <path class="fil13" d="M797.191 185.025c16.663,0 30.171,13.508 30.171,30.172 0,0.11 0,0.221 -0.002,0.331 -0.008,0.829 -0.525,1.528 -1.316,1.78 -0.79,0.252 -1.616,-0.021 -2.102,-0.693 -5.995,-8.285 -15.743,-13.676 -26.751,-13.676 -11.009,0 -20.756,5.391 -26.751,13.676 -0.486,0.672 -1.312,0.944 -2.102,0.692 -0.791,-0.251 -1.308,-0.95 -1.317,-1.779 -0.001,-0.11 -0.001,-0.221 -0.001,-0.331 0,-16.664 13.508,-30.172 30.171,-30.172z"/>
  <path class="fil10" d="M499.815 313.678c-6.351,0 -11.499,5.149 -11.499,11.5 0,6.351 5.148,11.499 11.499,11.499 16.333,0 23.055,0 40.002,0 6.351,0 11.5,-5.148 11.5,-11.499 0,-6.351 -5.149,-11.5 -11.5,-11.5 -16.75,0 -24.387,0 -40.002,0z"/>
  <path class="fil10" d="M390.183 313.678c-6.351,0 -11.5,5.148 -11.5,11.499 0,6.352 5.149,11.5 11.5,11.5 16.333,0 23.054,0 40.002,0 6.351,0 11.499,-5.148 11.499,-11.5 0,-6.351 -5.148,-11.499 -11.499,-11.499 -16.75,0 -24.387,0 -40.002,0z"/>
 </g>
</svg>
