<?xml version="1.0" encoding="UTF-8"?>
<!DOCTYPE svg PUBLIC "-//W3C//DTD SVG 1.1//EN" "http://www.w3.org/Graphics/SVG/1.1/DTD/svg11.dtd">
<svg xml:space="preserve" viewBox="0 0 930 426" width="930px" height="426px" version="1.1" style="shape-rendering:geometricPrecision; fill-rule:evenodd; clip-rule:evenodd" xmlns="http://www.w3.org/2000/svg">
 <defs>
  <style type="text/css">
    .str0 {stroke:#1A1A1A;stroke-miterlimit:22.9256}
    .str1 {stroke:#1A1A1A;stroke-miterlimit:22.9256}
    .fil9 {fill:#1A1A1A}
    .fil11 {fill:#404040}
    .fil10 {fill:#4D4D4D}
    .fil12 {fill:#5C5C5C}
    .fil5 {fill:#BABABA}
    .fil2 {fill:#BCBCBC}
    .fil4 {fill:#ECECEC}
    .fil1 {fill:#383838}
    .fil3 {fill:#FF3E29}
    .fil6 {fill:url(#id0)}
    .fil7 {fill:url(#id1)}
    .fil0 {fill:url(#id2)}
    .fil8 {fill:url(#id3)}
  </style>
  <linearGradient id="id0" gradientUnits="userSpaceOnUse" x1="465" y1="63.017" x2="465" y2="20.305">
   <stop offset="0" style="stop-opacity:1; stop-color:#ECECEC"/>
   <stop offset="0.25" style="stop-opacity:1; stop-color:gainsboro"/>
   <stop offset="1" style="stop-opacity:1; stop-color:gainsboro"/>
  </linearGradient>
  <linearGradient id="id1" gradientUnits="userSpaceOnUse" x1="331.931" y1="131.015" x2="598.069" y2="131.015">
   <stop offset="0" style="stop-opacity:1; stop-color:#E4E4E4"/>
   <stop offset="0.5" style="stop-opacity:1; stop-color:#ECECEC"/>
   <stop offset="1" style="stop-opacity:1; stop-color:#E4E4E4"/>
  </linearGradient>
  <linearGradient id="id2" gradientUnits="userSpaceOnUse" x1="4.5" y1="239.915" x2="925.5" y2="239.915">
   <stop offset="0" style="stop-opacity:1; stop-color:gainsboro"/>
   <stop offset="0.05" style="stop-opacity:1; stop-color:#ECECEC"/>
   <stop offset="0.95" style="stop-opacity:1; stop-color:#ECECEC"/>
   <stop offset="1" style="stop-opacity:1; stop-color:gainsboro"/>
  </linearGradient>
  <linearGradient id="id3" gradientUnits="userSpaceOnUse" x1="418.485" y1="232.452" x2="508.491" y2="232.452">
   <stop offset="0" style="stop-opacity:1; stop-color:#F4F4F4"/>
   <stop offset="0.5" style="stop-opacity:1; stop-color:#F8F8F8"/>
   <stop offset="1" style="stop-opacity:1; stop-color:#F4F4F4"/>
  </linearGradient>
 </defs>
 <g>
  <path class="fil0" d="M19.504 421.71l890.992 0c8.264,0 15.004,-6.74 15.004,-15.003l0 -333.69c0,-7.634 -5.632,-13.985 -13.211,-14.897l-894.578 0c-7.579,0.912 -13.211,7.263 -13.211,14.897l0 333.69c0,8.263 6.74,15.003 15.004,15.003z"/>
  <path class="fil1 str0" d="M207.426 367.716c21.987,-17.756 36.051,-44.935 36.051,-75.398 0,-53.496 -43.367,-96.863 -96.863,-96.863 -16.168,0 -31.411,3.962 -44.81,10.967 -4.466,2.335 -9.432,2.179 -13.742,-0.431 -4.311,-2.611 -6.75,-6.939 -6.75,-11.978l0 -74.491c0,-16.525 13.479,-30.003 30.004,-30.003l155.285 0c8.345,0 15.527,3.007 21.382,8.954 5.854,5.947 8.749,13.176 8.618,21.52 -0.013,0.891 -0.021,1.784 -0.021,2.679 0,93.016 75.404,168.42 168.42,168.42 93.016,0 168.42,-75.404 168.42,-168.42 0,-0.895 -0.008,-1.788 -0.021,-2.679 -0.131,-8.344 2.764,-15.573 8.618,-21.52 5.855,-5.947 13.037,-8.954 21.382,-8.954l155.285 0c16.525,0 30.004,13.478 30.004,30.003l0 52.14c9.941,11.748 15.939,26.94 15.939,43.535 0,16.594 -5.998,31.786 -15.939,43.534l0 22.912c9.941,11.748 15.939,26.94 15.939,43.535 0,37.244 -30.192,67.436 -67.436,67.436l-580.967 0c-6.045,0 -11.189,-3.638 -13.203,-9.337 -2.015,-5.7 -0.298,-11.763 4.405,-15.561z"/>
  <path class="fil2" d="M100.402 192.463c-2.502,1.154 -5.467,0.061 -6.621,-2.442 -1.154,-2.502 -0.061,-5.467 2.442,-6.621 7.782,-3.607 16.009,-6.407 24.571,-8.288 8.325,-1.829 16.965,-2.794 25.82,-2.794 33.135,0 63.136,13.431 84.852,35.148 21.716,21.715 35.148,51.716 35.148,84.852 0,16.751 -3.445,32.718 -9.666,47.228 -6.46,15.068 -15.913,28.545 -27.608,39.681 -1.996,1.899 -5.153,1.82 -7.051,-0.175 -1.899,-1.996 -1.82,-5.153 0.176,-7.051 10.722,-10.21 19.386,-22.56 25.303,-36.361 5.693,-13.279 8.846,-27.924 8.846,-43.322 0,-30.376 -12.313,-57.877 -32.218,-77.782 -19.905,-19.906 -47.406,-32.218 -77.782,-32.218 -8.151,0 -16.085,0.884 -23.711,2.56 -7.854,1.725 -15.387,4.287 -22.501,7.585zm-2.906 -14.032c-1.521,0.654 -3.284,-0.049 -3.938,-1.57 -0.653,-1.52 0.05,-3.284 1.57,-3.937 7.978,-3.445 16.398,-6.12 25.166,-7.926 8.531,-1.756 17.335,-2.68 26.32,-2.68 35.898,0 68.398,14.551 91.923,38.076 23.526,23.525 38.077,56.026 38.077,91.924 0,16.468 -3.075,32.242 -8.681,46.774 -5.81,15.061 -14.35,28.772 -25.012,40.526 -1.106,1.223 -2.995,1.318 -4.218,0.211 -1.223,-1.107 -1.318,-2.996 -0.211,-4.219 10.168,-11.21 18.315,-24.294 23.863,-38.674 5.334,-13.826 8.259,-28.87 8.259,-44.618 0,-34.242 -13.88,-65.243 -36.319,-87.682 -22.439,-22.439 -53.439,-36.318 -87.681,-36.318 -8.642,0 -17.044,0.875 -25.125,2.539 -8.306,1.711 -16.335,4.267 -23.993,7.574zm-2.801 -10.764c-0.509,0.211 -1.093,-0.03 -1.304,-0.539 -0.212,-0.509 0.03,-1.094 0.539,-1.305 8.221,-3.428 16.843,-6.08 25.774,-7.86 8.701,-1.735 17.7,-2.646 26.91,-2.646 37.831,0 72.082,15.335 96.873,40.127 24.792,24.791 40.127,59.042 40.127,96.874 0,16.422 -2.894,32.175 -8.199,46.775 -5.503,15.146 -13.6,29.047 -23.753,41.162 -0.354,0.422 -0.984,0.479 -1.406,0.125 -0.423,-0.354 -0.479,-0.984 -0.125,-1.407 10.008,-11.942 17.988,-25.639 23.409,-40.56 5.224,-14.377 8.073,-29.901 8.073,-46.095 0,-37.28 -15.11,-71.03 -39.54,-95.46 -24.43,-24.43 -58.18,-39.54 -95.459,-39.54 -9.079,0 -17.947,0.897 -26.519,2.606 -8.81,1.756 -17.307,4.368 -25.4,7.743z"/>
  <path class="fil2" d="M585.62 240.196c3.131,-3.213 6.139,-6.546 9.008,-10l93.193 0 0 10 -102.201 0zm211.571 -10l65.761 0c-0.783,3.441 -1.828,6.782 -3.114,10l-62.647 0 0 -10zm-194.864 -10c2.311,-3.248 4.508,-6.585 6.59,-9.999l78.904 0 0 9.999 -85.494 0zm194.864 -9.999l67.252 0c0.121,1.651 0.184,3.318 0.184,5 0,1.681 -0.063,3.349 -0.184,4.999l-67.252 0 0 -9.999zm-182.646 -10c1.7,-3.272 3.292,-6.608 4.778,-10l68.498 0 0 10 -73.276 0zm182.646 -10l62.647 0c1.286,3.219 2.332,6.559 3.114,10l-65.761 0 0 -10z"/>
  <path class="fil3" d="M797.191 270.678c30.1,0 54.5,24.4 54.5,54.5 0,30.1 -24.4,54.5 -54.5,54.5 -64.628,0 -44.517,0 -109.37,0 -30.099,0 -54.5,-24.401 -54.5,-54.5 0,-30.1 24.401,-54.5 54.5,-54.5 64.628,0 44.517,0 109.37,0z"/>
  <path class="fil4 str0" d="M430.184 343.678c10.218,0 18.501,-8.283 18.501,-18.5 0,-10.217 -8.283,-18.5 -18.501,-18.5 -21.381,0 -18.755,0 -40.001,0 -10.217,0 -18.5,8.282 -18.5,18.5 0,10.217 8.283,18.5 18.5,18.5 21.616,0 16.69,0 40.001,0zm69.632 0c23.311,0 18.385,0 40.001,0 10.217,0 18.5,-8.283 18.5,-18.5 0,-10.218 -8.283,-18.5 -18.5,-18.5 -21.246,0 -18.62,0 -40.001,0 -10.218,0 -18.501,8.283 -18.501,18.5 0,10.217 8.283,18.5 18.501,18.5z"/>
  <path class="fil4 str1" d="M797.191 283.178c-23.196,0 -42,18.804 -42,42 0,23.196 18.804,42 42,42 23.196,0 42,-18.804 42,-42 0,-23.196 -18.804,-42 -42,-42zm-109.37 0c-23.196,0 -42,18.804 -42,42 0,23.196 18.804,42 42,42 23.196,0 42,-18.804 42,-42 0,-23.196 -18.804,-42 -42,-42z"/>
  <path class="fil5" d="M465 260.743c73.492,0 133.069,-59.578 133.069,-133.07l0 -3.001c0,73.492 -59.577,133.07 -133.069,133.07 -73.492,0 -133.069,-59.578 -133.069,-133.07l0 3.001c0,73.492 59.577,133.07 133.069,133.07z"/>
  <polygon class="fil6" points="912.289,58.12 598.069,20.305 331.931,20.305 17.711,58.12 81.312,63.017 848.688,63.017 "/>
  <path class="fil7" d="M465 257.742c73.492,0 133.069,-59.578 133.069,-133.07l0 -115.378c0,-2.756 -2.248,-5.004 -5.004,-5.004 -86.912,0 -169.218,0 -256.13,0 -2.756,0 -5.004,2.248 -5.004,5.004l0 115.378c0,73.492 59.577,133.07 133.069,133.07z"/>
  <path class="fil8" d="M509.393 224.403c-13.48,0 -26.961,0 -40.441,0 -0.617,0 -1.121,-0.503 -1.121,-1.12l0 -10.747c-3.96,0.545 -8.254,0.958 -13.403,0.958 -5.347,0 -10.642,-0.284 -15.861,-0.918l0 10.707c0,0.617 -0.503,1.12 -1.12,1.12l-12.645 0c-0.616,0 -1.12,-0.503 -1.12,-1.12l0 -13.589c-2.381,-0.649 -4.74,-1.39 -7.074,-2.231 -0.203,-0.073 -0.339,-0.243 -0.365,-0.456 -0.028,-0.215 0.061,-0.412 0.239,-0.535l7.2 -4.919 0 -10.346c0,-0.616 0.504,-1.121 1.12,-1.121l12.645 0c0.617,0 1.12,0.505 1.12,1.121l0 14.405c3.606,0.702 8.171,1.181 14.585,1.181 5.836,0 10.522,-0.408 14.679,-0.95l0 -14.636c0,-0.616 0.504,-1.121 1.121,-1.121 13.48,0 26.961,0 40.441,0 0.617,0 1.121,0.505 1.121,1.121l0 3.633c0,0.616 -0.504,1.12 -1.121,1.12l-25.678 0c-0.618,0 -1.121,0.504 -1.121,1.121l0 6.585c2.647,-0.299 5.422,-0.495 8.534,-0.495 4.596,0 12.698,0.249 18.201,1.487 0.221,0.05 0.382,0.216 0.426,0.439 0.045,0.223 -0.042,0.437 -0.228,0.568l-6.268 4.38c-0.327,0.228 -0.677,0.325 -1.076,0.299 -2.559,-0.173 -5.385,-0.404 -10.577,-0.44 -3.289,-0.023 -6.234,0.162 -9.012,0.459l0 7.477c0,0.618 0.503,1.121 1.121,1.121l25.678 0c0.617,0 1.121,0.503 1.121,1.12l0 3.202c0,0.617 -0.504,1.12 -1.121,1.12zm-74.526 4.089c0.484,0 0.877,0.393 0.877,0.878 0,0.484 -0.393,0.877 -0.877,0.877l-9.233 0c-0.232,0 -0.421,0.189 -0.421,0.421l0 0.117c0,0.231 0.189,0.42 0.421,0.42l8.329 0c1.157,0 2.1,0.944 2.1,2.1 0,0.089 0,0.178 0,0.267 0,1.157 -0.943,2.101 -2.1,2.101l-9.628 0c-0.484,0 -0.877,-0.394 -0.877,-0.878 0,-0.485 0.393,-0.877 0.877,-0.877l9.552 0c0.232,0 0.421,-0.189 0.421,-0.421l0 -0.116c0,-0.232 -0.189,-0.421 -0.421,-0.421l-8.329 0c-1.157,0 -2.1,-0.943 -2.1,-2.101l0 -0.266c0,-1.157 0.943,-2.101 2.1,-2.101l9.309 0zm74.993 7.181c0.485,0 0.878,-0.393 0.878,-0.878l0 -4.202c0,-1.157 -0.944,-2.101 -2.1,-2.101 -1.619,0 -3.236,0 -4.855,0 -0.455,0 -0.877,0.147 -1.222,0.395 -0.345,-0.248 -0.767,-0.395 -1.223,-0.395 -1.618,0 -3.237,0 -4.855,0 -1.157,0 -2.1,0.944 -2.1,2.101l0 4.202c0,0.485 0.393,0.878 0.877,0.878 0.485,0 0.878,-0.393 0.878,-0.878l0 -4.127c0,-0.232 0.189,-0.421 0.421,-0.421l4.703 0c0.232,0 0.421,0.189 0.421,0.421l0 4.127c0,0.485 0.393,0.878 0.878,0.878 0.484,0 0.877,-0.393 0.877,-0.878l0 -4.127c0,-0.232 0.189,-0.421 0.42,-0.421l4.704 0c0.233,0 0.421,0.189 0.421,0.421l0 4.127c0,0.485 0.393,0.878 0.877,0.878zm-47.229 -7.181c0.484,0 0.877,0.393 0.877,0.878 0,0.484 -0.393,0.877 -0.877,0.877l-9.234 0c-0.232,0 -0.421,0.189 -0.421,0.421l0 0.117c0,0.231 0.189,0.42 0.421,0.42l8.33 0c1.156,0 2.1,0.944 2.1,2.1 0,0.089 0,0.178 0,0.267 0,1.157 -0.944,2.101 -2.1,2.101l-9.628 0c-0.485,0 -0.878,-0.394 -0.878,-0.878 0,-0.485 0.393,-0.877 0.878,-0.877l9.552 0c0.232,0 0.42,-0.189 0.42,-0.421l0 -0.116c0,-0.232 -0.188,-0.421 -0.42,-0.421l-8.329 0c-1.157,0 -2.101,-0.943 -2.101,-2.101l0 -0.266c0,-1.157 0.944,-2.101 2.101,-2.101l9.309 0zm-13.981 0.314c0.311,-0.371 0.865,-0.42 1.236,-0.108 0.371,0.311 0.42,0.865 0.108,1.236l-6.82 8.128c-0.313,0.371 -0.866,0.419 -1.237,0.108 -0.371,-0.311 -0.42,-0.864 -0.108,-1.235l0.842 -1.004c0.133,-0.158 0.133,-0.383 0,-0.541l-4.579 -5.456c-0.311,-0.371 -0.262,-0.925 0.109,-1.236 0.371,-0.312 0.924,-0.263 1.236,0.108l4.284 5.106c0.083,0.098 0.194,0.15 0.323,0.15 0.128,0 0.239,-0.052 0.321,-0.15l4.285 -5.106zm43.18 5.112c0.485,0 0.877,0.392 0.877,0.877 0,0.485 -0.392,0.878 -0.877,0.878l-9.308 0c-1.157,0 -2.101,-0.944 -2.101,-2.101 0,-0.993 0,-1.986 0,-2.979 0,-1.157 0.944,-2.101 2.101,-2.101l8.761 0c1.157,0 2.101,0.944 2.101,2.101 0,0.089 0,0.177 0,0.266 0,1.158 -0.944,2.101 -2.101,2.101l-8.686 0c-0.232,0 -0.421,0.189 -0.421,0.421l0 0.116c0,0.232 0.189,0.421 0.421,0.421l9.233 0zm-9.233 -3.671l8.611 0c0.232,0 0.421,0.189 0.421,0.421l0 0.117c0,0.231 -0.189,0.42 -0.421,0.42l-8.611 0c-0.232,0 -0.421,-0.189 -0.421,-0.42l0 -0.117c0,-0.232 0.189,-0.421 0.421,-0.421zm-4.09 3.671c0.484,0 0.877,0.392 0.877,0.877 0,0.484 -0.393,0.878 -0.877,0.878l-10.027 0c-1.157,0 -2.1,-0.944 -2.1,-2.101l0 -2.904c0,-0.232 -0.189,-0.421 -0.42,-0.421l-0.218 0c-0.485,0 -0.878,-0.393 -0.878,-0.877 0,-0.485 0.393,-0.878 0.878,-0.878l0.217 0c0.232,0 0.421,-0.188 0.421,-0.42l0 -0.617c0,-0.485 0.393,-0.878 0.877,-0.878 0.485,0 0.878,0.393 0.878,0.878l0 0.617c0,0.232 0.189,0.42 0.421,0.42l9.951 0c0.484,0 0.877,0.393 0.877,0.878 0,0.484 -0.393,0.877 -0.877,0.877l-9.951 0c-0.232,0 -0.421,0.189 -0.421,0.421l0 2.829c0,0.232 0.189,0.421 0.421,0.421l9.951 0z"/>
  <path class="fil9" d="M390.183 312.178c-7.179,0 -13,5.82 -13,13 0,7.18 5.82,13 13,13l40.001 0c7.18,0 13.001,-5.821 13.001,-13 0,-7.18 -5.821,-13 -13.001,-13l-40.001 0z"/>
  <path class="fil3" d="M674.825 105.716l25.993 0c3.857,0 7.003,3.146 7.003,7.003l0 38.997 -20 13 -20 -13 0 -38.997c0,-3.857 3.146,-7.003 7.004,-7.003zm11.984 10.483l0 -0.743 -11.739 0 0 0.743 0.972 0c1.136,0 1.956,0.331 2.473,0.986 0.324,0.434 0.482,1.467 0.482,3.106l0 17.732c0,1.385 -0.09,2.301 -0.262,2.742 -0.138,0.338 -0.413,0.627 -0.833,0.868 -0.593,0.324 -1.213,0.483 -1.86,0.483l-0.972 0 0 0.743 11.739 0 0 -0.743 -0.985 0c-1.116,0 -1.929,-0.331 -2.439,-0.986 -0.337,-0.434 -0.503,-1.467 -0.503,-3.107l0 -17.732c0,-1.384 0.09,-2.301 0.262,-2.741 0.131,-0.338 0.413,-0.627 0.848,-0.868 0.578,-0.324 1.184,-0.483 1.832,-0.483l0.985 0zm13.764 0l0 -0.743 -11.739 0 0 0.743 0.972 0c1.136,0 1.956,0.331 2.473,0.986 0.323,0.434 0.482,1.467 0.482,3.106l0 17.732c0,1.385 -0.09,2.301 -0.262,2.742 -0.138,0.338 -0.413,0.627 -0.833,0.868 -0.593,0.324 -1.213,0.483 -1.86,0.483l-0.972 0 0 0.743 11.739 0 0 -0.743 -0.985 0c-1.116,0 -1.929,-0.331 -2.439,-0.986 -0.337,-0.434 -0.503,-1.467 -0.503,-3.107l0 -17.732c0,-1.384 0.09,-2.301 0.262,-2.741 0.131,-0.338 0.413,-0.627 0.847,-0.868 0.579,-0.324 1.185,-0.483 1.833,-0.483l0.985 0z"/>
  <path class="fil3" d="M784.194 105.716l25.993 0c3.858,0 7.004,3.146 7.004,7.003l0 38.997 -20 13 -20 -13 0 -38.997c0,-3.857 3.146,-7.003 7.003,-7.003zm18.867 10.483l0 -0.743 -11.739 0 0 0.743 0.971 0c1.137,0 1.957,0.331 2.473,0.986 0.324,0.434 0.482,1.467 0.482,3.106l0 17.732c0,1.385 -0.089,2.301 -0.261,2.742 -0.138,0.338 -0.414,0.627 -0.834,0.868 -0.592,0.324 -1.212,0.483 -1.86,0.483l-0.971 0 0 0.743 11.739 0 0 -0.743 -0.986 0c-1.116,0 -1.928,-0.331 -2.438,-0.986 -0.338,-0.434 -0.503,-1.467 -0.503,-3.107l0 -17.732c0,-1.384 0.089,-2.301 0.262,-2.741 0.13,-0.338 0.413,-0.627 0.847,-0.868 0.579,-0.324 1.185,-0.483 1.832,-0.483l0.986 0z"/>
  <path class="fil4 str1" d="M797.191 173.197c-23.196,0 -42,18.803 -42,42 0,23.196 18.804,42 42,42 23.196,0 42,-18.804 42,-42 0,-23.197 -18.804,-42 -42,-42zm-109.37 0c-23.196,0 -42,18.803 -42,42 0,23.196 18.804,42 42,42 23.196,0 42,-18.804 42,-42 0,-23.197 -18.804,-42 -42,-42z"/>
  <circle class="fil9" cx="797.191" cy="215.197" r="37"/>
  <circle class="fil9" cx="687.821" cy="215.197" r="37"/>
  <path class="fil3" d="M109.647 110.135c0.274,-0.219 1.099,0.327 2.04,1.2 0.806,0.748 9.36,9.84 9.36,9.84 0,0 0.776,0.935 1.143,0.935 0.367,0 0.424,-0.179 0.537,-0.695l2.4 -11.4c0,0 0.156,-0.489 0.641,-0.489 0.179,0 0.403,0.067 0.679,0.249l3.84 2.16c0,0 0.433,0.195 0.433,0.462 0,0.115 -0.081,0.245 -0.313,0.378l-3.12 1.92c0,0 -0.602,0.406 -0.84,1.2l-3.6 17.04c0,0 -0.099,0.996 -0.644,0.996 -0.223,0 -0.52,-0.166 -0.916,-0.636l-10.68 -11.88c-0.216,-0.24 -0.471,-0.592 -0.767,-0.592 -0.295,0 -0.412,0.203 -0.553,0.831l-1.32 5.881c0,0 -0.094,0.322 -0.094,0.725 0,0.397 0.094,0.871 0.454,1.195 0.204,0.183 2.04,1.799 2.04,1.799 0,0 0.361,0.264 0.361,0.427 0,0.163 -0.063,0.198 -0.241,0.293l-5.52 2.281c0,0 -0.263,0.095 -0.263,-0.268 0,-0.058 0.007,-0.128 0.023,-0.212l2.4 -13.561c0,0 0.483,-2.246 -0.24,-3.12 -0.184,-0.223 -1.44,-1.2 -1.44,-1.2 0,0 -0.329,-0.169 -0.329,-0.448 0,-0.113 0.055,-0.246 0.209,-0.392l4.32 -4.919zm0 0l0 0 0 0zm22.2 1.32c1.086,0.629 1.473,0.918 1.2,2.52 -0.264,1.547 -1.44,7.081 -1.44,7.081 0,0 -0.322,0.752 -1.2,0.839 -1.573,0.158 -1.037,0.682 -0.24,0.841 0.314,0.062 1.022,0.469 0.84,1.559 -0.203,1.214 -1.56,7.321 -1.56,7.321 0,0 -0.35,1.421 -1.92,1.559 -0.859,0.076 -1.133,0.342 -1.133,0.534 0,0.162 0.197,0.307 0.413,0.307l18.96 0c0,0 1.242,0.031 1.44,-0.841l1.2 -5.64c0,0 0.082,-2.118 -0.96,-0.36 -0.604,1.02 -3.447,5.28 -6,5.28l-4.2 0c0,0 -0.743,-0.199 -0.6,-0.839l1.68 -7.561c0,0 0.299,-1.333 1.68,-0.72 1.389,0.618 2.396,1.511 3.24,3.481 0.227,0.529 0.591,1.063 1.44,-3.841 0.84,-4.85 1.575,-6.688 -0.24,-4.68 -1.795,1.986 -3.624,2.648 -3.96,2.761 -1.262,0.42 -1.684,0.289 -1.32,-1.44l1.44 -6.841c0,0 0.168,-0.48 1.08,-0.48l4.92 0c0,0 2.02,0.828 3.24,4.681 0.204,0.641 0.482,0.188 0.6,-0.361 0.889,-4.134 1.348,-5.969 0.72,-6l-19.56 0c0,0 -0.469,-0.012 -0.469,0.206 0,0.12 0.169,0.315 0.709,0.634l0 0zm0 0l0 0 0 0zm38.16 -1.199c0,0 -0.126,-0.72 -3.24,-0.72 -3.223,0 -15.919,3.669 -15.84,14.4 0.076,10.249 10.232,10.559 10.8,10.559 0.671,0 3.193,-0.01 4.68,-1.2 0.212,-0.169 3.96,-7.68 3.96,-7.68 0,0 0.608,-1.118 -0.72,-0.36 -8.288,4.737 -12.452,1.146 -12.84,-3.84 -0.107,-1.368 0.269,-4.966 4.079,-7.32 3.015,-1.862 4.123,-2.286 5.16,-0.6 1.251,2.033 2.04,2.88 2.04,2.88 0.207,0.198 0.315,0.466 0.719,0.466 0.137,0 0.291,-0.044 0.482,-0.106 2.125,-0.69 2.782,-0.714 2.4,-1.68l-1.68 -4.799zm0 0l0 0 0 0z"/>
  <circle class="fil9" cx="797.191" cy="325.178" r="37"/>
  <circle class="fil9" cx="687.821" cy="325.178" r="37"/>
  <path class="fil9" d="M499.816 312.178c-7.18,0 -13.001,5.82 -13.001,13 0,7.18 5.821,13 13.001,13l40.001 0c7.179,0 13,-5.821 13,-13 0,-7.18 -5.821,-13 -13,-13l-40.001 0z"/>
  <circle class="fil9" cx="146.614" cy="292.318" r="84"/>
  <circle class="fil10" cx="146.614" cy="292.318" r="80"/>
  <path class="fil11" d="M146.614 212.318c9.289,0 18.205,1.589 26.499,4.5l0 45.996c0,1.654 1.35,3.004 3.004,3.004l45.996 0c2.912,8.293 4.5,17.211 4.5,26.5 0,9.289 -1.588,18.205 -4.499,26.5l-45.997 0c-1.654,0 -3.004,1.349 -3.004,3.003l0 45.997c-8.293,2.911 -17.21,4.5 -26.499,4.5 -9.289,0 -18.206,-1.589 -26.501,-4.5l0 -45.997c0,-1.654 -1.349,-3.003 -3.003,-3.003l-45.997 0c-2.911,-8.294 -4.5,-17.211 -4.5,-26.5 0,-9.289 1.589,-18.206 4.5,-26.5l45.997 0c1.654,0 3.003,-1.35 3.003,-3.004l0 -45.996c8.294,-2.912 17.212,-4.5 26.501,-4.5z"/>
  <path class="fil12" d="M146.614 212.318c7.267,0 14.307,0.975 20.999,2.791l0 50.205c0,3.307 2.697,6.004 6.004,6.004l50.205 0c1.816,6.692 2.791,13.732 2.791,21 0,7.268 -0.975,14.307 -2.791,21l-50.205 0c-3.307,0 -6.004,2.696 -6.004,6.003l0 50.206c-6.692,1.816 -13.732,2.791 -20.999,2.791 -7.268,0 -14.308,-0.975 -21.001,-2.791l0 -50.206c0,-3.307 -2.696,-6.003 -6.003,-6.003l-50.205 0c-1.817,-6.693 -2.792,-13.732 -2.792,-21 0,-7.268 0.975,-14.308 2.792,-21l50.205 0c3.307,0 6.003,-2.697 6.003,-6.004l0 -50.205c6.693,-1.816 13.733,-2.791 21.001,-2.791z"/>
  <circle class="fil11" cx="146.614" cy="292.318" r="19"/>
  <path class="fil3" d="M375.375 371.675c3.737,0 6.279,-1.742 6.759,-4.633 0.395,-2.428 -0.907,-3.85 -4.103,-4.558l-1.44 -0.32c-1.831,-0.416 -2.436,-0.935 -2.279,-1.87 0.188,-1.152 1.468,-1.973 3.072,-1.973 1.667,0 2.563,0.87 2.439,2.367l2.987 0c0.43,-3.118 -1.604,-5.006 -5.217,-5.006 -3.448,0 -6.015,1.792 -6.463,4.519 -0.384,2.304 0.924,3.79 3.889,4.455l1.572 0.363c1.909,0.423 2.542,1.006 2.375,1.984 -0.196,1.223 -1.54,2.034 -3.342,2.034 -1.97,0 -2.98,-0.996 -2.741,-2.699l-3.058 0c-0.551,3.325 1.504,5.337 5.55,5.337zm7.954 -0.231l11.136 0 0.448 -2.752 -7.929 0 0.626 -3.755 7.335 0 0.448 -2.666 -7.336 0 0.584 -3.606 7.939 0 0.459 -2.752 -11.136 0 -2.574 15.531zm12.913 0l10.262 0 0.448 -2.752 -7.051 0 2.123 -12.779 -3.207 0 -2.575 15.531zm11.879 0l11.136 0 0.448 -2.752 -7.929 0 0.626 -3.755 7.335 0 0.448 -2.666 -7.335 0 0.583 -3.606 7.94 0 0.458 -2.752 -11.135 0 -2.575 15.531zm19.908 0.231c3.552,0 6.542,-2.237 7.616,-5.689l-3.239 0c-0.697,1.817 -2.283,2.859 -4.189,2.859 -2.176,0 -3.32,-1.362 -3.32,-3.62 0,-3.221 1.884,-6.712 5.361,-6.712 1.764,0 2.845,1.052 2.919,2.879l3.229 0c0.071,-3.513 -2.386,-5.71 -6.052,-5.71 -5.241,0 -8.658,4.526 -8.658,9.575 0,3.982 2.521,6.418 6.333,6.418zm9.987 -13.01l4.718 0 -2.115 12.779 3.207 0 2.101 -12.779 4.708 0 0.459 -2.752 -12.609 0 -0.469 2.752z"/>
  <path class="fil3" d="M497.214 371.444l3.211 0 0.896 -5.422 2.812 0c0.06,0 0.114,0 0.167,0l1.853 5.422 3.292 0 -2.115 -6.026c1.873,-0.804 3.167,-2.347 3.509,-4.406 0.512,-3.129 -1.383,-5.098 -4.875,-5.098l-6.176 0 -2.574 15.53zm4.533 -7.996l0.8 -4.868 2.806 0c1.695,0 2.592,0.907 2.353,2.393 -0.252,1.483 -1.457,2.475 -3.146,2.475l-2.813 0zm15.822 8.231c3.79,0 6.581,-2.201 7.147,-5.55l1.696 -10.215 -3.136 0 -1.614 9.745c-0.303,1.831 -1.895,3.246 -3.958,3.246 -1.884,0 -2.883,-1.215 -2.584,-3.039l1.646 -9.952 -3.129 0 -1.66 10.005c-0.552,3.363 1.649,5.76 5.592,5.76zm8.555 -0.235l3.207 0 1.188 -7.203c0.113,-0.676 0.334,-2.031 0.54,-3.688 0.636,1.604 1.219,2.98 1.55,3.698l3.353 7.193 3.31 0 2.575 -15.53 -3.197 0 -1.28 7.683c-0.107,0.665 -0.302,1.959 -0.469,3.168 -0.438,-1.116 -0.918,-2.314 -1.188,-2.908l-3.694 -7.943 -3.321 0 -2.574 15.53z"/>
 </g>
</svg>
