<?xml version="1.0" encoding="UTF-8"?>
<!DOCTYPE svg PUBLIC "-//W3C//DTD SVG 1.1//EN" "http://www.w3.org/Graphics/SVG/1.1/DTD/svg11.dtd">
<svg xml:space="preserve" viewBox="0 0 1232 544" width="1232px" height="544px" version="1.1" style="shape-rendering:geometricPrecision; fill-rule:evenodd; clip-rule:evenodd" xmlns="http://www.w3.org/2000/svg" xmlns:xlink="http://www.w3.org/1999/xlink">
 <defs>
  <style type="text/css">
    .fil6 {fill:#1A1A1A}
    .fil7 {fill:#333333}
    .fil2 {fill:#5E5E60}
    .fil14 {fill:#B2B2E6}
    .fil5 {fill:black;fill-opacity:0.08}
    .fil1 {fill:black;fill-opacity:0.15}
    .fil3 {fill:black;fill-opacity:0.15}
    .fil9 {fill:black;fill-opacity:0.3}
    .fil8 {fill:black;fill-opacity:0.3}
    .fil4 {fill:#f4f4f4}
    .fil0 {fill:url(#id0)}
    .fil15 {fill:url(#id9)}
    .fil10 {fill:url(#id10)}
    .fil12 {fill:url(#id11)}
    .fil13 {fill:url(#id12);fill-opacity:0.7}
    .fil11 {fill:url(#id13);fill-opacity:0.7}
    .fil17 {fill:url(#id1)}
    .shd0 {filter: drop-shadow(0px 1px .5px rgba(0, 0, 0, 0.15)) drop-shadow(0px 0px .5px rgba(0, 0, 0, 0.15))}
  </style>
  <linearGradient id="id0" gradientUnits="userSpaceOnUse" x1="616" y1="541.622" x2="616" y2="2.377">
   <stop offset="0" style="stop-opacity:1; stop-color:#DEDEE0"/>
   <stop offset="1" style="stop-opacity:1; stop-color:#EEEEF0"/>
  </linearGradient>
  <linearGradient id="id1" gradientUnits="userSpaceOnUse" x1="1073.655" y1="216.099" x2="1073.655" y2="148.899">
   <stop offset="0" style="stop-opacity:1; stop-color:#B2B2E6"/>
   <stop offset="1" style="stop-opacity:1; stop-color:#C8C8F4"/>
  </linearGradient>
  <linearGradient id="id4" gradientUnits="userSpaceOnUse" x1="603.176" y1="411.169" x2="603.176" y2="399.9">
   <stop offset="0" style="stop-opacity:1; stop-color:#C6C6C8"/>
   <stop offset="1" style="stop-opacity:1; stop-color:#DEDEE0"/>
  </linearGradient>
  <linearGradient id="id8" gradientUnits="userSpaceOnUse" xlink:href="#id4" x1="503.561" y1="411.169" x2="503.561" y2="399.9">
  </linearGradient>
  <linearGradient id="id9" gradientUnits="userSpaceOnUse" xlink:href="#id1" x1="287.037" y1="207.938" x2="287.037" y2="375.4">
  </linearGradient>
  <linearGradient id="id10" gradientUnits="objectBoundingBox" xlink:href="#id4" x1="50%" y1="85%" x2="50%" y2="35%">
  </linearGradient>
  <linearGradient id="id11" gradientUnits="userSpaceOnUse" xlink:href="#id4" x1="724.717" y1="411.169" x2="724.717" y2="399.9">
  </linearGradient>
  <linearGradient id="id12" gradientUnits="userSpaceOnUse" xlink:href="#id4" x1="731.097" y1="411.958" x2="731.097" y2="399.562">
  </linearGradient>
  <linearGradient id="id13" gradientUnits="objectBoundingBox" xlink:href="#id4" x1="50%" y1="85%" x2="50%" y2="35%">
  </linearGradient>
 </defs>
 <g>
  <g id="shell">
   <path class="fil0" d="M330.484 540.054c-50.432,-3.221 -100.728,-6.422 -151.108,-10.525 -36.703,-2.989 -67.785,-5.021 -100.787,-23.959 -28.025,-16.081 -51.546,-43.455 -64.199,-73.055 -12.362,-28.918 -12.657,-52.408 -11.352,-82.918 2.112,-49.362 12.44,-101.59 27.002,-148.752 9.311,-30.153 26.491,-75.487 43.683,-103.922 15.138,-25.038 37.375,-40.7 65.914,-46.108 32.311,-6.122 64.648,-12.46 97.108,-17.691 40.23,-6.484 79.941,-12.276 120.381,-17.072 86.201,-10.224 172.205,-13.675 258.874,-13.675 86.669,0 172.673,3.451 258.874,13.675 40.44,4.796 80.151,10.588 120.381,17.072 32.46,5.231 64.797,11.569 97.108,17.691 28.539,5.408 50.776,21.07 65.914,46.108 17.192,28.435 34.372,73.769 43.683,103.922 14.562,47.162 24.89,99.39 27.002,148.752 1.305,30.51 1.01,54 -11.352,82.918 -12.653,29.6 -36.174,56.974 -64.199,73.055 -33.002,18.938 -64.084,20.97 -100.787,23.959 -50.38,4.103 -100.676,7.304 -151.108,10.525 -13.223,0.845 -26.24,1.674 -39.496,1.558 -10.304,-0.09 -11.294,-0.229 -15.028,-2.1 -4.381,-2.196 -7.439,-5.047 -15.572,-14.52 -18.681,-21.759 -44.431,-37.596 -72.172,-44.806 -31.563,-8.203 -73.584,-8.514 -107.11,-10.258 -6.959,-0.362 -21.021,-0.433 -36.138,-0.433 -15.117,0 -29.179,0.071 -36.138,0.433 -33.526,1.744 -75.547,2.055 -107.11,10.258 -27.741,7.21 -53.491,23.047 -72.172,44.806 -8.133,9.473 -11.191,12.324 -15.572,14.52 -3.734,1.871 -4.724,2.01 -15.028,2.1 -13.256,0.116 -26.273,-0.713 -39.496,-1.558z"/>
   <path class="fil1" d="M306.644 492.676c15.956,-9.86 31.273,-21.971 45.054,-34.596 25.079,-22.976 43.546,-49.539 59.296,-79.343 13.19,-24.96 22.683,-56.064 26.742,-87.62 2.23,-17.337 3.235,-34.534 0.504,-51.878 -5.263,-33.42 -25.299,-64.084 -53.44,-82.744 -14.057,-9.322 -27.089,-14.712 -60.974,-25.222 -47.585,-14.758 -99.424,-25.719 -149.535,-29.812 -11.04,-0.902 -28.838,-1.725 -39.825,-1.864 -15.356,-0.194 -27.54,2.525 -38.198,14.653 -7.491,8.525 -13.98,21.973 -23.487,48.179 -13.376,36.872 -20.284,62.505 -28.557,105.96 -4.85,25.47 -10.339,61.141 -8.191,86.523 4.628,54.678 41.984,101.824 92.298,121.128 17.622,6.76 34.324,8.747 52.7,10.379 35.999,3.198 71.776,6.46 107.841,8.943 3.275,0.226 7.38,0.385 9.12,0.353 4.298,-0.077 5.196,-0.904 8.652,-3.039zm-15.302 -3.569c-2.669,-0.066 -6.522,-0.331 -7.329,-0.383 -37.246,-2.388 -76.03,-5.511 -113.029,-9.241 -17.018,-1.715 -28.992,-4.478 -41.365,-9.44 -45.928,-18.418 -77.816,-57.289 -86.506,-104.803 -2.526,-13.808 -2.403,-25.807 -1.183,-39.735 1.96,-22.365 5.385,-44.962 9.799,-66.959 3.54,-17.642 7.633,-34.524 12.371,-51.915 3.885,-14.261 13.412,-42.942 18.788,-56.566 15.691,-39.758 25.722,-44.97 58.725,-42.26 26.895,2.207 53.654,6.201 80.015,11.958 50.319,10.989 116.081,36.433 139.079,53.811 23.306,17.61 41.77,46.377 49.484,77.098 2.906,11.571 4.436,22.655 4.523,34.622 0.181,25.043 -5.657,48.445 -15.156,71.602 -9.452,23.043 -21.809,43.025 -36.192,63.513 -3.964,5.648 -8.359,11.079 -18.511,22.874 -9.758,11.339 -28.555,29.187 -43.757,41.548 -3.341,2.716 -5.257,4.388 -9.756,4.276z"/>
   <path class="fil1" d="M925.356 492.676c-15.956,-9.86 -31.273,-21.971 -45.054,-34.596 -25.079,-22.976 -43.546,-49.539 -59.296,-79.343 -13.19,-24.96 -22.683,-56.064 -26.742,-87.62 -2.23,-17.337 -3.235,-34.534 -0.504,-51.878 5.263,-33.42 25.299,-64.084 53.44,-82.744 14.057,-9.322 27.089,-14.712 60.974,-25.222 47.585,-14.758 99.424,-25.719 149.535,-29.812 11.04,-0.902 28.838,-1.725 39.825,-1.864 15.356,-0.194 27.54,2.525 38.198,14.653 7.491,8.525 13.98,21.973 23.487,48.179 13.376,36.872 20.284,62.505 28.557,105.96 4.85,25.47 10.339,61.141 8.191,86.523 -4.628,54.678 -41.984,101.824 -92.298,121.128 -17.622,6.76 -34.324,8.747 -52.7,10.379 -35.999,3.198 -71.776,6.46 -107.841,8.943 -3.275,0.226 -7.38,0.385 -9.12,0.353 -4.298,-0.077 -5.196,-0.904 -8.652,-3.039zm15.302 -3.569c2.669,-0.066 6.522,-0.331 7.329,-0.383 37.246,-2.388 76.03,-5.511 113.029,-9.241 17.018,-1.715 28.992,-4.478 41.365,-9.44 45.928,-18.418 77.816,-57.289 86.506,-104.803 2.526,-13.808 2.403,-25.807 1.183,-39.735 -1.96,-22.365 -5.385,-44.962 -9.799,-66.959 -3.54,-17.642 -7.633,-34.524 -12.371,-51.915 -3.885,-14.261 -13.412,-42.942 -18.788,-56.566 -15.691,-39.758 -25.722,-44.97 -58.725,-42.26 -26.895,2.207 -53.654,6.201 -80.015,11.958 -50.319,10.989 -116.081,36.433 -139.079,53.811 -23.306,17.61 -41.77,46.377 -49.484,77.098 -2.906,11.571 -4.436,22.655 -4.523,34.622 -0.181,25.043 5.657,48.445 15.156,71.602 9.452,23.043 21.809,43.025 36.192,63.513 3.964,5.648 8.359,11.079 18.511,22.874 9.758,11.339 28.555,29.187 43.757,41.548 3.341,2.716 5.257,4.388 9.756,4.276z"/>
   <circle class="fil2" cx="233.448" cy="291.67" r="123.646"/>
   <path class="fil3" d="M771.123 108.457c-48.242,18.197 -100.513,28.182 -155.123,28.182 -54.61,0 -106.881,-9.985 -155.123,-28.182l0 -66.877 2.998 64.808c47.373,17.61 98.62,27.252 152.125,27.252 53.505,0 104.752,-9.642 152.125,-27.252l2.998 -64.808 0 66.877z"/>
   <path class="fil4 shd0" d="M660.393 98.399c-13.48,0 -26.961,0 -40.441,0 -0.617,0 -1.121,-0.504 -1.121,-1.121l0 -10.747c-3.96,0.545 -8.254,0.958 -13.403,0.958 -5.347,0 -10.642,-0.284 -15.861,-0.918l0 10.707c0,0.617 -0.503,1.121 -1.12,1.121l-12.645 0c-0.616,0 -1.12,-0.504 -1.12,-1.121l0 -13.589c-2.381,-0.649 -4.74,-1.39 -7.074,-2.231 -0.203,-0.073 -0.339,-0.243 -0.365,-0.456 -0.028,-0.215 0.061,-0.412 0.239,-0.535l7.2 -4.919 0 -10.346c0,-0.616 0.504,-1.121 1.12,-1.121l12.645 0c0.617,0 1.12,0.505 1.12,1.121l0 14.405c3.606,0.702 8.171,1.181 14.585,1.181 5.836,0 10.522,-0.408 14.679,-0.95l0 -14.636c0,-0.616 0.504,-1.121 1.121,-1.121 13.48,0 26.961,0 40.441,0 0.617,0 1.121,0.505 1.121,1.121l0 3.633c0,0.616 -0.504,1.12 -1.121,1.12l-25.678 0c-0.618,0 -1.121,0.504 -1.121,1.121l0 6.585c2.647,-0.299 5.422,-0.495 8.534,-0.495 4.596,0 12.698,0.249 18.201,1.487 0.221,0.05 0.382,0.216 0.426,0.439 0.045,0.223 -0.042,0.437 -0.228,0.568l-6.268 4.38c-0.327,0.228 -0.677,0.325 -1.076,0.299 -2.559,-0.173 -5.385,-0.404 -10.577,-0.44 -3.289,-0.023 -6.234,0.162 -9.012,0.459l0 7.477c0,0.618 0.503,1.121 1.121,1.121l25.678 0c0.617,0 1.121,0.503 1.121,1.12l0 3.202c0,0.617 -0.504,1.121 -1.121,1.121zm-74.526 4.088c0.484,0 0.877,0.393 0.877,0.878 0,0.484 -0.393,0.877 -0.877,0.877l-9.233 0c-0.232,0 -0.421,0.189 -0.421,0.421l0 0.117c0,0.231 0.189,0.42 0.421,0.42l8.329 0c1.157,0 2.1,0.944 2.1,2.1 0,0.089 0,0.178 0,0.267 0,1.157 -0.943,2.101 -2.1,2.101l-9.628 0c-0.484,0 -0.877,-0.394 -0.877,-0.878 0,-0.485 0.393,-0.877 0.877,-0.877l9.552 0c0.232,0 0.421,-0.189 0.421,-0.421l0 -0.116c0,-0.232 -0.189,-0.421 -0.421,-0.421l-8.329 0c-1.157,0 -2.1,-0.943 -2.1,-2.101l0 -0.266c0,-1.157 0.943,-2.101 2.1,-2.101l9.309 0zm74.993 7.181c0.485,0 0.878,-0.393 0.878,-0.878l0 -4.202c0,-1.157 -0.944,-2.101 -2.1,-2.101 -1.619,0 -3.236,0 -4.855,0 -0.455,0 -0.877,0.147 -1.222,0.395 -0.345,-0.248 -0.767,-0.395 -1.223,-0.395 -1.618,0 -3.237,0 -4.855,0 -1.157,0 -2.1,0.944 -2.1,2.101l0 4.202c0,0.485 0.393,0.878 0.877,0.878 0.485,0 0.878,-0.393 0.878,-0.878l0 -4.127c0,-0.232 0.189,-0.421 0.421,-0.421l4.703 0c0.232,0 0.421,0.189 0.421,0.421l0 4.127c0,0.485 0.393,0.878 0.878,0.878 0.484,0 0.877,-0.393 0.877,-0.878l0 -4.127c0,-0.232 0.189,-0.421 0.42,-0.421l4.704 0c0.233,0 0.421,0.189 0.421,0.421l0 4.127c0,0.485 0.393,0.878 0.877,0.878zm-47.229 -7.181c0.484,0 0.877,0.393 0.877,0.878 0,0.484 -0.393,0.877 -0.877,0.877l-9.234 0c-0.232,0 -0.421,0.189 -0.421,0.421l0 0.117c0,0.231 0.189,0.42 0.421,0.42l8.33 0c1.156,0 2.1,0.944 2.1,2.1 0,0.089 0,0.178 0,0.267 0,1.157 -0.944,2.101 -2.1,2.101l-9.628 0c-0.485,0 -0.878,-0.394 -0.878,-0.878 0,-0.485 0.393,-0.877 0.878,-0.877l9.552 0c0.232,0 0.42,-0.189 0.42,-0.421l0 -0.116c0,-0.232 -0.188,-0.421 -0.42,-0.421l-8.329 0c-1.157,0 -2.101,-0.943 -2.101,-2.101l0 -0.266c0,-1.157 0.944,-2.101 2.101,-2.101l9.309 0zm-13.981 0.314c0.311,-0.371 0.865,-0.42 1.236,-0.108 0.371,0.311 0.42,0.865 0.108,1.236l-6.82 8.128c-0.313,0.371 -0.866,0.419 -1.237,0.108 -0.371,-0.311 -0.42,-0.864 -0.108,-1.235l0.842 -1.004c0.133,-0.158 0.133,-0.383 0,-0.541l-4.579 -5.456c-0.311,-0.371 -0.262,-0.925 0.109,-1.236 0.371,-0.312 0.924,-0.263 1.236,0.108l4.284 5.106c0.083,0.098 0.194,0.15 0.323,0.15 0.128,0 0.239,-0.052 0.321,-0.15l4.285 -5.106zm43.18 5.112c0.485,0 0.877,0.392 0.877,0.877 0,0.485 -0.392,0.878 -0.877,0.878l-9.308 0c-1.157,0 -2.101,-0.944 -2.101,-2.101 0,-0.993 0,-1.986 0,-2.979 0,-1.157 0.944,-2.101 2.101,-2.101l8.761 0c1.157,0 2.101,0.944 2.101,2.101 0,0.089 0,0.178 0,0.266 0,1.158 -0.944,2.101 -2.101,2.101l-8.686 0c-0.232,0 -0.421,0.189 -0.421,0.421l0 0.116c0,0.232 0.189,0.421 0.421,0.421l9.233 0zm-9.233 -3.671l8.611 0c0.232,0 0.421,0.189 0.421,0.421l0 0.117c0,0.231 -0.189,0.42 -0.421,0.42l-8.611 0c-0.232,0 -0.421,-0.189 -0.421,-0.42l0 -0.117c0,-0.232 0.189,-0.421 0.421,-0.421zm-4.09 3.671c0.484,0 0.877,0.392 0.877,0.877 0,0.484 -0.393,0.878 -0.877,0.878l-10.027 0c-1.157,0 -2.1,-0.944 -2.1,-2.101l0 -2.904c0,-0.232 -0.189,-0.421 -0.42,-0.421l-0.218 0c-0.485,0 -0.878,-0.393 -0.878,-0.877 0,-0.485 0.393,-0.878 0.878,-0.878l0.217 0c0.232,0 0.421,-0.188 0.421,-0.42l0 -0.617c0,-0.485 0.393,-0.878 0.877,-0.878 0.485,0 0.878,0.393 0.878,0.878l0 0.617c0,0.232 0.189,0.42 0.421,0.42l9.951 0c0.484,0 0.877,0.393 0.877,0.878 0,0.484 -0.393,0.877 -0.877,0.877l-9.951 0c-0.232,0 -0.421,0.189 -0.421,0.421l0 2.829c0,0.232 0.189,0.421 0.421,0.421l9.951 0z"/>
   <path class="fil5" d="M478.607 203.254c-7.59,0 -13.744,6.153 -13.744,13.743 0,7.591 6.154,13.744 13.744,13.744 94.002,0 149.618,0 274.786,0 7.59,0 13.743,-6.153 13.743,-13.744 0,-7.59 -6.153,-13.743 -13.743,-13.743 -125.158,0 -180.788,0 -274.786,0zm274.786 -3.552c9.552,0 17.296,7.743 17.296,17.295 0,9.552 -7.744,17.296 -17.296,17.296 -91.74,0 -182.608,0 -274.786,0 -9.552,0 -17.296,-7.744 -17.296,-17.296 0,-9.552 7.744,-17.295 17.296,-17.295 93.078,0 184.44,0 274.786,0z"/>
   <path class="fil5" d="M478.623 289.535c-7.59,0 -13.743,6.153 -13.743,13.743 0,7.59 6.153,13.744 13.743,13.744 94.002,0 149.618,0 274.786,0 7.59,0 13.743,-6.154 13.743,-13.744 0,-7.59 -6.153,-13.743 -13.743,-13.743 -125.157,0 -180.788,0 -274.786,0zm274.786 -3.552c9.552,0 17.296,7.743 17.296,17.295 0,9.552 -7.744,17.296 -17.296,17.296 -91.74,0 -182.608,0 -274.786,0 -9.552,0 -17.296,-7.744 -17.296,-17.296 0,-9.552 7.744,-17.295 17.296,-17.295 93.079,0 184.44,0 274.786,0z"/>
   <path class="fil5" d="M478.623 389.537c-7.59,0 -13.743,6.154 -13.743,13.744 0,7.59 6.153,13.743 13.743,13.743 94.002,0 149.618,0 274.786,0 7.59,0 13.743,-6.153 13.743,-13.743 0,-7.59 -6.153,-13.744 -13.743,-13.744 -125.157,0 -180.788,0 -274.786,0zm274.786 -3.552c9.552,0 17.296,7.744 17.296,17.296 0,9.552 -7.744,17.295 -17.296,17.295 -91.74,0 -182.608,0 -274.786,0 -9.552,0 -17.296,-7.743 -17.296,-17.295 0,-9.552 7.744,-17.296 17.296,-17.296 93.079,0 184.44,0 274.786,0z"/>
   <path class="fil6" d="M478.623 389.537c-7.59,0 -13.743,6.154 -13.743,13.744 0,7.59 6.153,13.743 13.743,13.743 20.482,0 29.569,0 49.876,0 7.591,0 13.744,-6.153 13.744,-13.743 0,-7.59 -6.153,-13.744 -13.744,-13.744 -20.528,0 -29.108,0 -49.876,0z"/>
   <path class="fil6" d="M578.238 389.537c-7.59,0 -13.744,6.154 -13.744,13.744 0,7.59 6.154,13.743 13.744,13.743 20.482,0 29.569,0 49.876,0 7.59,0 13.743,-6.153 13.743,-13.743 0,-7.59 -6.153,-13.744 -13.743,-13.744 -20.529,0 -29.108,0 -49.876,0z"/>
   <circle class="fil7" cx="866.362" cy="262.088" r="44.528"/>
   <circle class="fil7" cx="1073.655" cy="182.499" r="44.528"/>
   <circle class="fil7" cx="967.636" cy="216.114" r="44.528"/>
   <circle class="fil7" cx="908.58" cy="371.08" r="44.528"/>
   <circle class="fil7" cx="1115.874" cy="291.491" r="44.528"/>
   <circle class="fil7" cx="1009.854" cy="325.105" r="44.528"/>
  </g>
  <g>
   <path class="fil8" d="M284.659 72.695l9.516 0c2.18,0 4.759,2.046 5.915,3.157l16.72 18.544 0 -21.701 5.693 0 0 29.617 -9.962 0c-1.778,-0.044 -3.513,-0.4 -5.558,-2.401l-16.676 -18.588 0 20.989 -5.648 0 0 -29.617zm118.51 29.839c-6.826,0.905 -13.73,1.054 -20.589,0.445 -4.047,-0.356 -8.004,-1.201 -11.651,-3.113 -4.58,-2.357 -6.003,-7.693 -5.958,-12.54 0.044,-4.847 1.378,-9.205 5.336,-11.829 2.623,-1.69 5.425,-2.268 8.404,-2.802 8.049,-1.423 16.143,-1.111 24.058,-0.222l0 4.18c-9.338,-1.779 -19.122,-1.334 -22.501,2.935 -2.046,2.668 -2.357,5.336 -2.357,7.56 0,4.002 1.379,10.094 9.516,11.295 5.337,0.756 10.584,0.134 15.742,-0.756l0 4.847zm-58.299 -4.625c0.845,0.045 13.652,0.089 18.055,0l0 4.447c-8.849,0.356 -17.388,0.49 -26.326,0.089 -7.604,-0.311 -8.938,-4.135 -9.071,-7.782l0 -21.968 34.997 0 0 4.225 -22.635 0 0 7.515 20.589 0 0 4.136 -20.589 0c0,2.223 0.044,4.758 0.089,5.203 0.089,2.89 1.423,3.957 4.891,4.135z"/>
   <path class="fil9" d="M465.875 446.139c4.144,0 6.724,-2.064 6.724,-5.32 0,-2.564 -1.624,-4.072 -5.244,-4.88l-1.772 -0.408c-2.28,-0.528 -3.184,-1.184 -3.184,-2.356 0,-1.428 1.372,-2.42 3.312,-2.42 2.044,0 3.384,1.112 3.512,2.948l2.932 0c-0.104,-3.464 -2.52,-5.564 -6.432,-5.564 -3.864,0 -6.42,2.076 -6.42,5.188 0,2.448 1.6,3.98 5.092,4.776l1.88 0.424c2.336,0.536 3.252,1.252 3.252,2.48 0,1.536 -1.444,2.516 -3.628,2.516 -2.432,0 -3.888,-1.252 -3.908,-3.36l-3.028 0c0,3.736 2.584,5.976 6.912,5.976zm9.044 -0.268l12.128 0 0 -2.68 -9.032 0 0 -4.852 8.352 0 0 -2.64 -8.352 0 0 -4.612 9.032 0 0 -2.68 -12.128 0 0 17.464zm14.368 0l11.192 0 0 -2.68 -8.096 0 0 -14.788 -3.096 0 0 17.468zm13.196 0l12.128 0 0 -2.68 -9.032 0 0 -4.852 8.352 0 0 -2.64 -8.352 0 0 -4.612 9.032 0 0 -2.68 -12.128 0 0 17.464zm21.972 0.264c3.936,0 6.936,-2.436 7.524,-6.236l-3.14 0c-0.492,2.208 -2.136,3.46 -4.36,3.46 -3.212,0 -5.132,-2.468 -5.132,-6.208 0,-3.764 1.932,-6.232 5.132,-6.232 2.236,0 3.88,1.264 4.348,3.484l3.152 0c-0.588,-3.812 -3.588,-6.26 -7.524,-6.26 -4.816,0 -8.228,3.536 -8.228,9.008 0,5.436 3.412,8.984 8.228,8.984zm8.864 -15.048l5.436 0 0 14.788 3.096 0 0 -14.788 5.411 0 0 -2.68 -13.943 0 0 2.68z"/>
   <path class="fil9" d="M582.365 445.875l3.096 0 0 -6.36 3.516 0c0.031,0 0.056,0 0.079,0l3.285 6.36 3.384 0 -3.62 -6.92c2.06,-0.84 3.292,-2.584 3.292,-4.972 0,-3.432 -2.384,-5.58 -6.224,-5.58l-6.808 0 0 17.472zm3.096 -8.904l0 -5.952 3.54 0c2.084,0 3.372,1.14 3.372,2.964 0,1.836 -1.288,2.988 -3.352,2.988l-3.56 0zm19.348 9.168c4.272,0 7.052,-2.596 7.052,-6.308l0 -11.428 -3.048 0 0 11.18c0,2.228 -1.548,3.82 -4.004,3.82 -2.452,0 -4.012,-1.604 -4.012,-3.82l0 -11.18 -3.048 0 0 11.428c0,3.724 2.78,6.308 7.06,6.308zm9.9 -0.264l3.096 0 0 -8.784c0,-0.76 -0.012,-2.26 -0.084,-4.208 1.064,1.888 1.988,3.436 2.48,4.22l5.52 8.772 3.34 0 0 -17.472 -3.096 0 0 9.52c0,0.692 0.024,2.148 0.072,3.46 -0.692,-1.244 -1.464,-2.58 -1.872,-3.236l-6.116 -9.744 -3.34 0 0 17.472z"/>
   <path class="fil9" d="M723.898 446.139c3.676,0 6.252,-2.424 6.252,-5.94 0,-3.34 -2.412,-5.816 -5.724,-5.816 -1.832,0 -3.392,0.776 -4.24,2.112l-0.02 0c0,-3.468 1.268,-5.864 3.944,-5.864 1.608,0 2.656,0.936 2.936,2.408l2.928 0c-0.304,-2.844 -2.552,-4.896 -5.888,-4.896 -4.516,0 -6.8,3.764 -6.8,9.544 0,5.36 2.412,8.452 6.612,8.452zm-0.012 -2.52c-1.836,0 -3.292,-1.492 -3.292,-3.408 0,-1.904 1.48,-3.388 3.332,-3.388 1.864,0 3.272,1.46 3.272,3.376 0,1.928 -1.456,3.42 -3.312,3.42zm16.296 -5.948l-7.824 0 0 2.488 7.824 0 0 -2.488zm1.696 8.204l12.16 0 0 -2.544 -7.944 0 0 -0.02 4.024 -3.58c2.48,-2.172 3.84,-3.828 3.84,-6.208 0,-3.248 -2.492,-5.384 -5.968,-5.384 -3.732,0 -6.124,2.46 -6.124,6.156l2.872 0c0,-2.24 1.216,-3.612 3.252,-3.612 1.884,0 3.064,1.148 3.064,2.98 0,1.7 -1.076,2.744 -2.84,4.32l-6.336 5.548 0 2.344z"/>
   <path class="fil8" d="M593.502 255.685c8.197,0 14.842,1.993 14.842,4.453 0,2.459 -6.645,4.453 -14.842,4.453 -8.197,0 -14.843,-1.994 -14.843,-4.453 0,-2.46 6.646,-4.453 14.843,-4.453zm45.013 -6.679c8.197,0 14.842,1.993 14.842,4.453 0,2.459 -6.645,4.453 -14.842,4.453 -8.198,0 -14.843,-1.994 -14.843,-4.453 0,-2.46 6.645,-4.453 14.843,-4.453zm0 13.358c8.197,0 14.842,1.994 14.842,4.453 0,2.46 -6.645,4.453 -14.842,4.453 -8.198,0 -14.843,-1.993 -14.843,-4.453 0,-2.459 6.645,-4.453 14.843,-4.453z"/>
   <path class="fil8" d="M473.499 255.685c8.197,0 14.842,1.993 14.842,4.453 0,2.459 -6.645,4.453 -14.842,4.453 -8.197,0 -14.843,-1.994 -14.843,-4.453 0,-2.46 6.646,-4.453 14.843,-4.453zm45.013 -6.679c8.197,0 14.842,1.993 14.842,4.453 0,2.459 -6.645,4.453 -14.842,4.453 -8.198,0 -14.843,-1.994 -14.843,-4.453 0,-2.46 6.645,-4.453 14.843,-4.453zm0 13.358c8.197,0 14.842,1.994 14.842,4.453 0,2.46 -6.645,4.453 -14.842,4.453 -8.198,0 -14.843,-1.993 -14.843,-4.453 0,-2.459 6.645,-4.453 14.843,-4.453z"/>
   <path class="fil8" d="M713.505 255.685c8.197,0 14.842,1.993 14.842,4.453 0,2.459 -6.645,4.453 -14.842,4.453 -8.197,0 -14.843,-1.994 -14.843,-4.453 0,-2.46 6.646,-4.453 14.843,-4.453zm45.013 -6.679c8.197,0 14.842,1.993 14.842,4.453 0,2.459 -6.645,4.453 -14.842,4.453 -8.198,0 -14.843,-1.994 -14.843,-4.453 0,-2.46 6.645,-4.453 14.843,-4.453zm0 13.358c8.197,0 14.842,1.994 14.842,4.453 0,2.46 -6.645,4.453 -14.842,4.453 -8.198,0 -14.843,-1.993 -14.843,-4.453 0,-2.459 6.645,-4.453 14.843,-4.453z"/>
   <path class="fil9" d="M739.577 192.174l0 -2.347 1.494 0 0 -13.467 -1.494 0 0 -2.347 6.16 0 0 2.347 -1.52 0 0 13.467 1.52 0 0 2.347 -6.16 0zm-8.124 0.186l-4.12 -16 -1.031 0 0 -2.347 5.36 0 0 2.347 -1.227 0 2.187 10.693 2.262 -10.693 -1.302 0 0 -2.347 5.12 0 0 2.347 -1.12 0 -3.92 16 -2.209 0z"/>
   <polygon class="fil9" points="614.959,192.454 610.839,176.453 609.808,176.453 609.808,174.107 615.168,174.107 615.168,176.453 613.941,176.453 616.128,187.147 618.39,176.453 617.088,176.453 617.088,174.107 622.208,174.107 622.208,176.453 621.088,176.453 617.168,192.454 "/>
   <path class="fil9" d="M498.505 192.454l-4.12 -16.001 -1.031 0 0 -2.346 5.36 0 0 2.346 -1.227 0 2.187 10.694 2.262 -10.694 -1.302 0 0 -2.346 5.12 0 0 2.346 -1.12 0 -3.92 16.001 -2.209 0zm-12.266 -0.187l0 -2.347 1.493 0 0 -13.467 -1.493 0 0 -2.346 6.159 0 0 2.346 -1.519 0 0 13.467 1.519 0 0 2.347 -6.159 0z"/>
   <path class="fil9" d="M500.405 346.169l0 -2.346 1.494 0 0 -13.467 -1.494 0 0 -2.347 6.16 0 0 2.347 -1.519 0 0 13.467 1.519 0 0 2.346 -6.16 0zm-7.488 0l0 -2.346 1.493 0 0 -13.467 -1.493 0 0 -2.347 6.16 0 0 2.347 -1.52 0 0 13.467 1.52 0 0 2.346 -6.16 0zm-7.489 0l0 -2.346 1.493 0 0 -13.467 -1.493 0 0 -2.347 6.16 0 0 2.347 -1.52 0 0 13.467 1.52 0 0 2.346 -6.16 0z"/>
   <path class="fil9" d="M616.672 346.169l0 -2.346 1.494 0 0 -13.467 -1.494 0 0 -2.347 6.16 0 0 2.347 -1.519 0 0 13.467 1.519 0 0 2.346 -6.16 0zm-7.488 0l0 -2.346 1.493 0 0 -13.467 -1.493 0 0 -2.347 6.159 0 0 2.347 -1.519 0 0 13.467 1.519 0 0 2.346 -6.159 0z"/>
   <polygon class="fil9" points="732.939,346.169 732.939,343.823 734.433,343.823 734.433,330.356 732.939,330.356 732.939,328.009 739.099,328.009 739.099,330.356 737.579,330.356 737.579,343.823 739.099,343.823 739.099,346.169 "/>
  </g>
  <g>
   <g>
    <path class="fil6" d="M478.607 203.254c-7.59,0 -13.744,6.153 -13.744,13.743 0,7.591 6.154,13.744 13.744,13.744 20.482,0 14.473,0 34.78,0 7.59,0 13.743,-6.153 13.743,-13.744 0,-7.59 -6.153,-13.743 -13.743,-13.743 -20.529,0 -14.012,0 -34.78,0z"/>
    <path class="fil10" d="M484.711 228.267c6.224,0 11.27,-5.045 11.27,-11.27 0,-6.223 -5.046,-11.269 -11.27,-11.269 -6.224,0 -11.269,5.046 -11.269,11.269 0,6.225 5.045,11.27 11.269,11.27z"/>
    <path class="fil11" d="M484.711 204.601c-6.846,0 -12.396,5.55 -12.396,12.396 0,6.847 5.55,12.397 12.396,12.397 21.116,0 -8.365,0 12.759,0 6.846,0 12.397,-5.55 12.397,-12.397 0,-6.846 -5.551,-12.396 -12.397,-12.396 -21.128,0 8.413,0 -12.759,0z"/>
   </g>
   <g>
    <path class="fil6" d="M598.61 203.254c-7.59,0 -13.743,6.153 -13.743,13.743 0,7.591 6.153,13.744 13.743,13.744 20.482,0 14.473,0 34.78,0 7.59,0 13.743,-6.153 13.743,-13.744 0,-7.59 -6.153,-13.743 -13.743,-13.743 -20.529,0 -14.012,0 -34.78,0z"/>
    <path class="fil10" d="M604.714 228.267c6.224,0 11.27,-5.045 11.27,-11.27 0,-6.223 -5.046,-11.269 -11.27,-11.269 -6.224,0 -11.269,5.046 -11.269,11.269 0,6.225 5.045,11.27 11.269,11.27z"/>
    <path class="fil11" d="M604.714 204.601c-6.846,0 -12.396,5.55 -12.396,12.396 0,6.847 5.55,12.397 12.396,12.397 21.116,0 -8.365,0 12.759,0 6.846,0 12.397,-5.55 12.397,-12.397 0,-6.846 -5.551,-12.396 -12.397,-12.396 -21.128,0 8.413,0 -12.759,0z"/>
   </g>
   <g>
    <path class="fil6" d="M718.613 203.254c-7.59,0 -13.743,6.153 -13.743,13.743 0,7.591 6.153,13.744 13.743,13.744 20.482,0 14.473,0 34.78,0 7.59,0 13.743,-6.153 13.743,-13.744 0,-7.59 -6.153,-13.743 -13.743,-13.743 -20.529,0 -14.012,0 -34.78,0z"/>
    <path class="fil10" d="M724.717 228.267c6.224,0 11.27,-5.045 11.27,-11.27 0,-6.223 -5.046,-11.269 -11.27,-11.269 -6.224,0 -11.269,5.046 -11.269,11.269 0,6.225 5.045,11.27 11.269,11.27z"/>
    <path class="fil11" d="M724.717 204.601c-6.846,0 -12.396,5.55 -12.396,12.396 0,6.847 5.55,12.397 12.396,12.397 21.116,0 -8.365,0 12.759,0 6.847,0 12.397,-5.55 12.397,-12.397 0,-6.846 -5.55,-12.396 -12.397,-12.396 -21.128,0 8.414,0 -12.759,0z"/>
   </g>
   <g>
    <path class="fil6" d="M478.623 289.535c-7.59,0 -13.743,6.153 -13.743,13.743 0,7.59 6.153,13.744 13.743,13.744 20.482,0 14.473,0 34.78,0 7.59,0 13.743,-6.154 13.743,-13.744 0,-7.59 -6.153,-13.743 -13.743,-13.743 -20.529,0 -14.012,0 -34.78,0z"/>
    <path class="fil10" d="M484.728 314.547c6.223,0 11.269,-5.045 11.269,-11.269 0,-6.224 -5.046,-11.269 -11.269,-11.269 -6.225,0 -11.27,5.045 -11.27,11.269 0,6.224 5.045,11.269 11.27,11.269z"/>
    <path class="fil11" d="M484.728 290.882c-6.847,0 -12.397,5.55 -12.397,12.396 0,6.846 5.55,12.397 12.397,12.397 21.115,0 -8.366,0 12.758,0 6.847,0 12.397,-5.551 12.397,-12.397 0,-6.846 -5.55,-12.396 -12.397,-12.396 -21.127,0 8.414,0 -12.758,0z"/>
   </g>
   <g>
    <path class="fil6" d="M598.626 289.535c-7.59,0 -13.743,6.153 -13.743,13.743 0,7.59 6.153,13.744 13.743,13.744 20.482,0 14.473,0 34.78,0 7.59,0 13.743,-6.154 13.743,-13.744 0,-7.59 -6.153,-13.743 -13.743,-13.743 -20.529,0 -14.012,0 -34.78,0z"/>
    <path class="fil10" d="M604.731 314.547c6.223,0 11.269,-5.045 11.269,-11.269 0,-6.224 -5.046,-11.269 -11.269,-11.269 -6.225,0 -11.27,5.045 -11.27,11.269 0,6.224 5.045,11.269 11.27,11.269z"/>
    <path class="fil11" d="M604.731 290.882c-6.847,0 -12.397,5.55 -12.397,12.396 0,6.846 5.55,12.397 12.397,12.397 21.115,0 -8.366,0 12.759,0 6.846,0 12.396,-5.551 12.396,-12.397 0,-6.846 -5.55,-12.396 -12.396,-12.396 -21.128,0 8.413,0 -12.759,0z"/>
   </g>
   <g>
    <path class="fil6" d="M718.629 289.535c-7.59,0 -13.743,6.153 -13.743,13.743 0,7.59 6.153,13.744 13.743,13.744 20.482,0 14.473,0 34.78,0 7.59,0 13.743,-6.154 13.743,-13.744 0,-7.59 -6.153,-13.743 -13.743,-13.743 -20.529,0 -14.012,0 -34.78,0z"/>
    <path class="fil10" d="M724.734 314.547c6.223,0 11.269,-5.045 11.269,-11.269 0,-6.224 -5.046,-11.269 -11.269,-11.269 -6.224,0 -11.27,5.045 -11.27,11.269 0,6.224 5.046,11.269 11.27,11.269z"/>
    <path class="fil11" d="M724.734 290.882c-6.847,0 -12.397,5.55 -12.397,12.396 0,6.846 5.55,12.397 12.397,12.397 21.115,0 -8.366,0 12.759,0 6.846,0 12.396,-5.551 12.396,-12.397 0,-6.846 -5.55,-12.396 -12.396,-12.396 -21.128,0 8.413,0 -12.759,0z"/>
   </g>
   <g>
    <path class="fil6" d="M718.613 389.537c-7.59,0 -13.743,6.154 -13.743,13.744 0,7.59 6.153,13.743 13.743,13.743 20.482,0 14.473,0 34.78,0 7.59,0 13.743,-6.153 13.743,-13.743 0,-7.59 -6.153,-13.744 -13.743,-13.744 -20.529,0 -14.012,0 -34.78,0z"/>
    <path class="fil12" d="M724.717 414.55c6.224,0 11.27,-5.045 11.27,-11.269 0,-6.224 -5.046,-11.27 -11.27,-11.27 -6.224,0 -11.269,5.046 -11.269,11.27 0,6.224 5.045,11.269 11.269,11.269z"/>
    <path class="fil13" d="M724.717 390.884c-6.846,0 -12.396,5.55 -12.396,12.397 0,6.846 5.55,12.396 12.396,12.396 21.116,0 -8.365,0 12.759,0 6.847,0 12.397,-5.55 12.397,-12.396 0,-6.847 -5.55,-12.397 -12.397,-12.397 -21.128,0 8.414,0 -12.759,0z"/>
   </g>
  </g>
  <g>
   <circle class="fil14" cx="233.449" cy="291.669" r="118.102"/>
   <path class="fil3" d="M233.449 173.567c13.025,0 25.557,2.113 37.273,6.01 5.931,1.972 9.469,7.881 8.407,14.04l-7.89 45.763c-0.715,4.146 0.518,8.031 3.493,11.006 2.975,2.975 6.86,4.208 11.006,3.493l45.762 -7.89c6.16,-1.062 12.068,2.476 14.04,8.407 3.897,11.717 6.011,24.247 6.011,37.273 0,13.026 -2.114,25.558 -6.011,37.275 -1.972,5.931 -7.88,9.468 -14.04,8.406l-45.762 -7.89c-4.146,-0.715 -8.031,0.519 -11.006,3.493 -2.976,2.975 -4.208,6.86 -3.494,11.006l7.89 45.763c1.062,6.159 -2.475,12.067 -8.406,14.04 -11.716,3.896 -24.248,6.01 -37.273,6.01 -13.026,0 -25.558,-2.114 -37.274,-6.011 -5.932,-1.972 -9.469,-7.88 -8.407,-14.04l7.89 -45.762c0.715,-4.146 -0.518,-8.031 -3.494,-11.006 -2.974,-2.975 -6.859,-4.208 -11.006,-3.493l-45.761 7.89c-6.159,1.062 -12.068,-2.475 -14.04,-8.407 -3.897,-11.717 -6.011,-24.248 -6.011,-37.274 0,-13.026 2.114,-25.556 6.01,-37.273 1.973,-5.931 7.882,-9.469 14.041,-8.407l45.761 7.891c4.147,0.714 8.032,-0.519 11.006,-3.494 2.975,-2.975 4.209,-6.86 3.493,-11.006l-7.889 -45.763c-1.062,-6.159 2.475,-12.067 8.406,-14.04 11.717,-3.897 24.249,-6.01 37.275,-6.01z"/>
   <path class="fil15" d="M233.449 187.006c10.768,0 21.156,1.628 30.932,4.648 3.031,0.936 4.87,3.935 4.331,7.061l-6.739 39.084c-1.233,7.156 0.969,14.105 6.104,19.242 5.136,5.136 12.085,7.337 19.242,6.103l39.083 -6.738c3.127,-0.539 6.125,1.3 7.062,4.331 3.02,9.776 4.648,20.164 4.648,30.932 0,10.769 -1.628,21.157 -4.648,30.933 -0.937,3.031 -3.936,4.87 -7.062,4.331l-39.083 -6.738c-7.156,-1.233 -14.106,0.968 -19.242,6.103 -5.136,5.136 -7.338,12.087 -6.104,19.242l6.739 39.083c0.538,3.126 -1.301,6.125 -4.332,7.061 -9.775,3.02 -20.163,4.648 -30.931,4.648 -10.769,0 -21.157,-1.627 -30.933,-4.648 -3.031,-0.936 -4.87,-3.935 -4.331,-7.061l6.738 -39.083c1.234,-7.156 -0.968,-14.106 -6.104,-19.242 -5.136,-5.135 -12.086,-7.337 -19.242,-6.103l-39.082 6.738c-3.126,0.539 -6.125,-1.3 -7.061,-4.331 -3.021,-9.776 -4.648,-20.164 -4.648,-30.933 0,-10.768 1.627,-21.156 4.647,-30.932 0.937,-3.031 3.935,-4.87 7.062,-4.331l39.082 6.739c7.156,1.233 14.106,-0.969 19.242,-6.104 5.136,-5.136 7.338,-12.086 6.104,-19.242l-6.739 -39.083c-0.538,-3.127 1.301,-6.125 4.331,-7.062 9.777,-3.02 20.165,-4.648 30.934,-4.648z"/>
   <path class="fil3" d="M233.449 211.73c2.539,0 4.597,-2.058 4.597,-4.597 0,-2.54 -2.058,-4.598 -4.597,-4.598 -2.539,0 -4.598,2.058 -4.598,4.598 0,2.539 2.059,4.597 4.598,4.597zm0 159.878c2.539,0 4.597,2.059 4.597,4.598 0,2.539 -2.058,4.597 -4.597,4.597 -2.539,0 -4.598,-2.058 -4.598,-4.597 0,-2.539 2.059,-4.598 4.598,-4.598zm-79.939 -79.939c0,-2.539 -2.059,-4.598 -4.598,-4.598 -2.539,0 -4.598,2.059 -4.598,4.598 0,2.539 2.059,4.598 4.598,4.598 2.539,0 4.598,-2.059 4.598,-4.598zm159.878 0c0,-2.539 2.058,-4.598 4.597,-4.598 2.539,0 4.598,2.059 4.598,4.598 0,2.539 -2.059,4.598 -4.598,4.598 -2.539,0 -4.597,-2.059 -4.597,-4.598z"/>
  </g>
 </g>
</svg>
