<?xml version="1.0" encoding="UTF-8"?>
<!DOCTYPE svg PUBLIC "-//W3C//DTD SVG 1.1//EN" "http://www.w3.org/Graphics/SVG/1.1/DTD/svg11.dtd">
<svg xml:space="preserve" viewBox="0 0 1232 544" width="1232px" height="544px" version="1.1" style="shape-rendering:geometricPrecision; fill-rule:evenodd; clip-rule:evenodd" xmlns="http://www.w3.org/2000/svg">
 <defs>
  <style type="text/css">
    .fil0 {fill:red}
    .fil1 {fill:white}
  </style>
 </defs>
 <g>
  <path class="fil0" d="M330.484 540.054c-50.432,-3.221 -100.728,-6.422 -151.108,-10.525 -36.703,-2.989 -67.785,-5.021 -100.787,-23.959 -28.025,-16.081 -51.546,-43.455 -64.199,-73.055 -12.362,-28.918 -12.657,-52.408 -11.352,-82.918 2.112,-49.362 12.44,-101.59 27.002,-148.752 9.311,-30.153 26.491,-75.487 43.683,-103.922 15.138,-25.038 37.375,-40.7 65.914,-46.108 32.311,-6.122 64.648,-12.46 97.108,-17.691 40.23,-6.484 79.941,-12.276 120.381,-17.072 86.201,-10.224 172.205,-13.675 258.874,-13.675 86.669,0 172.673,3.451 258.874,13.675 40.44,4.796 80.151,10.588 120.381,17.072 32.46,5.231 64.797,11.569 97.108,17.691 28.539,5.408 50.776,21.07 65.914,46.108 17.192,28.435 34.372,73.769 43.683,103.922 14.562,47.162 24.89,99.39 27.002,148.752 1.305,30.51 1.01,54 -11.352,82.918 -12.653,29.6 -36.174,56.974 -64.199,73.055 -33.002,18.938 -64.084,20.97 -100.787,23.959 -50.38,4.103 -100.676,7.304 -151.108,10.525 -13.223,0.845 -26.24,1.674 -39.496,1.558 -10.304,-0.09 -11.294,-0.229 -15.028,-2.1 -4.381,-2.196 -7.439,-5.047 -15.572,-14.52 -18.681,-21.759 -44.431,-37.596 -72.172,-44.806 -31.563,-8.203 -73.584,-8.514 -107.11,-10.258 -6.959,-0.362 -21.021,-0.433 -36.138,-0.433 -15.117,0 -29.179,0.071 -36.138,0.433 -33.526,1.744 -75.547,2.055 -107.11,10.258 -27.741,7.21 -53.491,23.047 -72.172,44.806 -8.133,9.473 -11.191,12.324 -15.572,14.52 -3.734,1.871 -4.724,2.01 -15.028,2.1 -13.256,0.116 -26.273,-0.713 -39.496,-1.558z"/>
  <path class="fil1" d="M616 103.997c70.695,0 128.002,57.306 128.002,128.002 0,70.695 -57.307,128.002 -128.002,128.002 -70.695,0 -128.002,-57.307 -128.002,-128.002 0,-70.696 57.307,-128.002 128.002,-128.002zm15.968 134.442c2.334,2.337 2.334,6.15 0,8.484l-11.953 11.953 5.044 5.04c1.781,1.787 1.781,4.681 0,6.468l-11.853 11.846c-10.462,10.462 -26.112,12.563 -38.663,6.311l-26.045 26.048c18.386,15.049 41.886,24.08 67.502,24.08 58.912,0 106.67,-47.758 106.67,-106.67 0,-25.616 -9.031,-49.116 -24.08,-67.503l-26.027 26.028c6.256,12.545 4.154,28.204 -6.307,38.666l-11.853 11.852c-1.781,1.784 -4.674,1.784 -6.461,0l-40.943 -40.948c-1.79,-1.781 -1.79,-4.678 0,-6.462l11.846 -11.853c10.45,-10.446 26.076,-12.56 38.615,-6.331l26.042 -26.042c-18.386,-15.049 -41.889,-24.078 -67.502,-24.078 -58.912,0 -106.67,47.759 -106.67,106.671 0,25.613 9.028,49.116 24.077,67.502l26.06 -26.057c-6.228,-12.542 -4.118,-28.175 6.329,-38.618l11.852 -11.853c1.787,-1.787 4.681,-1.787 6.462,0l5.016 5.013 11.952 -11.952c2.335,-2.334 6.153,-2.334 8.488,0 2.334,2.337 2.334,6.15 0,8.484l-11.953 11.953 13.915 13.92 11.952 -11.952c2.335,-2.334 6.154,-2.334 8.488,0z"/>
 </g>
</svg>
