<?xml version="1.0" encoding="UTF-8"?>
<!DOCTYPE svg PUBLIC "-//W3C//DTD SVG 1.1//EN" "http://www.w3.org/Graphics/SVG/1.1/DTD/svg11.dtd">
<svg xml:space="preserve" viewBox="0 0 1232 544" width="1232px" height="544px" version="1.1" style="shape-rendering:geometricPrecision; fill-rule:evenodd; clip-rule:evenodd" xmlns="http://www.w3.org/2000/svg">
 <defs>
  <style type="text/css">
    .fil0 {fill:#CC0000}
    .fil1 {fill:red}
    .fil2 {fill:black;fill-opacity:0.2}
  </style>
 </defs>
 <g>
  <path class="fil0" d="M271.922 235.347c-0.44,2.548 -1.207,4.908 -2.337,7.148 -1.118,2.216 -2.565,4.234 -4.373,6.122 -4.072,4.25 -8.999,7.688 -14.508,10.041 -5.332,2.276 -11.167,3.537 -17.255,3.537 -6.09,0 -11.925,-1.261 -17.258,-3.538 -5.511,-2.354 -10.438,-5.793 -14.509,-10.045 -1.809,-1.889 -3.255,-3.906 -4.372,-6.122 -1.13,-2.238 -1.897,-4.597 -2.336,-7.145l-7.206 -41.728c-1.062,-6.159 2.475,-12.067 8.406,-14.04 11.717,-3.897 24.249,-6.01 37.275,-6.01 13.025,0 25.557,2.113 37.273,6.01 5.931,1.972 9.469,7.881 8.407,14.04l-7.207 41.73z"/>
  <path class="fil1" d="M258.455 242.118c-6.302,6.579 -15.175,10.677 -25.006,10.677 -9.833,0 -18.708,-4.099 -25.011,-10.682 -2.301,-2.403 -3.646,-5.069 -4.211,-8.347l-6.043 -35.05c-0.538,-3.127 1.301,-6.126 4.331,-7.062 9.776,-3.02 20.165,-4.648 30.934,-4.648 10.768,0 21.156,1.628 30.932,4.648 3.031,0.936 4.869,3.935 4.331,7.061l-6.043 35.053c-0.566,3.279 -1.911,5.947 -4.214,8.35z"/>
  <path class="fil2" d="M233.449 211.73c2.539,0 4.597,-2.058 4.597,-4.597 0,-2.54 -2.058,-4.598 -4.597,-4.598 -2.539,0 -4.598,2.058 -4.598,4.598 0,2.539 2.059,4.597 4.598,4.597z"/>
 </g>
</svg>
