<?xml version="1.0" encoding="UTF-8"?>
<!DOCTYPE svg PUBLIC "-//W3C//DTD SVG 1.1//EN" "http://www.w3.org/Graphics/SVG/1.1/DTD/svg11.dtd">
<svg xml:space="preserve" viewBox="0 0 1232 544" width="1232px" height="544px" version="1.1" style="shape-rendering:geometricPrecision; fill-rule:evenodd; clip-rule:evenodd" xmlns="http://www.w3.org/2000/svg">
 <defs>
  <style type="text/css">
    .fil0 {fill:#CC0000}
    .fil1 {fill:red}
    .fil2 {fill:black;fill-opacity:0.2}
  </style>
 </defs>
 <g>
  <path class="fil0" d="M279.128 389.722c1.073,6.157 -2.475,12.068 -8.406,14.04 -11.716,3.896 -24.248,6.01 -37.273,6.01 -13.026,0 -25.558,-2.114 -37.274,-6.011 -5.931,-1.972 -9.48,-7.882 -8.407,-14.04l7.207 -41.727c0.439,-2.547 1.206,-4.907 2.335,-7.146 1.118,-2.215 2.564,-4.233 4.373,-6.122 4.071,-4.251 8.999,-7.69 14.509,-10.043 5.333,-2.278 11.169,-3.539 17.257,-3.539 6.089,0 11.924,1.261 17.256,3.539 5.511,2.354 10.438,5.793 14.509,10.044 1.809,1.889 3.254,3.907 4.372,6.122 1.129,2.239 1.896,4.598 2.336,7.146l7.206 41.727z"/>
  <path class="fil1" d="M208.439 341.226c6.303,-6.582 15.178,-10.682 25.01,-10.682 9.832,0 18.706,4.101 25.008,10.682 2.301,2.403 3.646,5.07 4.212,8.348l6.043 35.049c0.538,3.126 -1.301,6.125 -4.332,7.061 -9.775,3.02 -20.163,4.648 -30.931,4.648 -10.769,0 -21.157,-1.627 -30.933,-4.648 -3.031,-0.936 -4.87,-3.935 -4.331,-7.061l6.043 -35.05c0.565,-3.278 1.91,-5.944 4.211,-8.347z"/>
  <path class="fil2" d="M233.449 371.608c2.539,0 4.597,2.059 4.597,4.598 0,2.539 -2.058,4.597 -4.597,4.597 -2.539,0 -4.598,-2.058 -4.598,-4.597 0,-2.539 2.059,-4.598 4.598,-4.598z"/>
 </g>
</svg>
