<?xml version="1.0" encoding="UTF-8"?>
<!DOCTYPE svg PUBLIC "-//W3C//DTD SVG 1.1//EN" "http://www.w3.org/Graphics/SVG/1.1/DTD/svg11.dtd">
<svg xml:space="preserve" viewBox="0 0 1098 612" width="1098px" height="612px" version="1.1" style="shape-rendering:geometricPrecision; fill-rule:evenodd; clip-rule:evenodd" xmlns="http://www.w3.org/2000/svg" xmlns:xlink="http://www.w3.org/1999/xlink">
 <defs>
  <style type="text/css">
    .fil2 {fill:black;fill-opacity:0.1}
    .fil3 {fill:black;fill-opacity:0.4}
    .fil1 {fill:url(#id0)}
    .fil0 {fill:url(#id1);fill-opacity:0.7}
  </style>
  <linearGradient id="id0" gradientUnits="userSpaceOnUse" x1="701.087" y1="296.785" x2="701.087" y2="229.645">
   <stop offset="0" style="stop-opacity:1; stop-color:#303030"/>
   <stop offset="0.6" style="stop-opacity:1; stop-color:#484848"/>
   <stop offset="1" style="stop-opacity:1; stop-color:#525252"/>
  </linearGradient>
  <linearGradient id="id1" gradientUnits="userSpaceOnUse" xlink:href="#id0" x1="701.087" y1="300.385" x2="701.087" y2="226.045">
  </linearGradient>
 </defs>
 <g>
  <path class="fil0" d="M701.087 226.045c20.529,0 37.17,16.642 37.17,37.17 0,20.528 -16.641,37.17 -37.17,37.17 -20.528,0 -37.169,-16.642 -37.169,-37.17 0,-20.528 16.641,-37.17 37.169,-37.17z"/>
  <path class="fil1" d="M701.087 229.645c18.54,0 33.57,15.03 33.57,33.57 0,18.54 -15.03,33.57 -33.57,33.57 -18.539,0 -33.569,-15.03 -33.569,-33.57 0,-18.54 15.03,-33.57 33.569,-33.57z"/>
  <path class="fil2" d="M727.496 271.974c-2.782,12.107 -13.625,21.138 -26.576,21.138 -12.951,0 -23.793,-9.031 -26.575,-21.138 -0.174,-0.76 0.136,-1.511 0.795,-1.926 0.659,-0.415 1.47,-0.37 2.08,0.115 6.502,5.181 14.739,8.279 23.7,8.279 8.961,0 17.198,-3.098 23.701,-8.279 0.609,-0.485 1.421,-0.53 2.08,-0.115 0.66,0.415 0.97,1.166 0.795,1.926z"/>
  <path class="fil3" d="M687.204 283.421l15.186 -10.171 -1.041 -1.553 -2.078 1.392c-0.374,0.248 -0.805,0.507 -1.396,0.873 -0.708,0.414 -1.135,0.422 -1.178,0.081 -0.043,-0.248 0.027,-0.604 0.38,-1.272l4.131 -7.733 8.292 -0.587c0.412,-0.03 0.781,-0.031 1.165,-0.01 0.383,0.02 0.398,0.411 -0.112,0.937 -0.206,0.228 -0.585,0.542 -1.536,1.183l-3.072 2.058 1.04 1.553 17.908 -11.995 -1.04 -1.553c-0.463,0.31 -0.925,0.619 -1.387,0.929 -1.432,0.955 -1.812,1.07 -4.16,1.369 -0.227,0.029 -0.455,0.058 -0.682,0.087l-13.474 0.86 4.908 -9.234 0.792 -1.486c0.102,-0.18 0.202,-0.357 0.325,-0.526 0.568,-0.779 1.116,-1.237 2.594,-2.23l1.858 -1.244 -1.055 -1.574 -14.548 9.744 1.055 1.574 2.975 -1.993c0.139,-0.092 0.681,-0.47 1.03,-0.541 0.235,-0.047 0.326,0.042 0.264,0.26 -0.062,0.222 -0.244,0.59 -0.862,1.748l-3.241 6.074 -6.161 0.224c-1.023,0.037 -1.335,0.031 -1.534,0.01 -0.341,-0.049 -0.375,-0.281 -0.157,-0.511 0.179,-0.189 0.282,-0.313 1.006,-0.797 1.021,-0.684 2.042,-1.368 3.063,-2.052l-1.054 -1.574 -17.483 11.711 1.054 1.573 2.552 -1.709c0.874,-0.586 2.335,-0.851 3.349,-0.981 0.299,-0.014 0.583,-0.05 0.824,-0.058l11.515 -0.749 -6.096 11.231 -0.891 1.614c-0.523,0.919 -1.327,1.655 -2.195,2.241l-1.873 1.254 1.04 1.553z"/>
 </g>
</svg>
