<?xml version="1.0" encoding="UTF-8"?>
<!DOCTYPE svg PUBLIC "-//W3C//DTD SVG 1.1//EN" "http://www.w3.org/Graphics/SVG/1.1/DTD/svg11.dtd">
<svg xml:space="preserve" viewBox="0 0 1098 612" width="1098px" height="612px" version="1.1" style="shape-rendering:geometricPrecision; fill-rule:evenodd; clip-rule:evenodd" xmlns="http://www.w3.org/2000/svg">
 <defs>
  <style type="text/css">
    .fil0 {fill:#272727}
    .fil1 {fill:#333333}
  </style>
 </defs>
 <g>
  <path class="fil0" d="M331.559 7.44c8.011,0.677 10.447,4.495 7.243,4.601l-5.588 0.186c-31.452,0.728 -59.701,3.98 -89.406,14.529 -25.103,9.304 -46.481,21.178 -67.338,37.931 -15.033,12.412 -22.631,20.021 -35.189,34.134l-1.539 1.668c-1.876,2.031 -4.476,1.567 -1.209,-3.085 23.309,-33.197 52.518,-71.32 85.709,-86.624 27.451,-12.658 73.313,-6.211 107.317,-3.34z"/>
  <path class="fil1" d="M225.779 26.6c23.456,-10.479 43.508,-15.536 69.045,-17.98 22.291,-2.132 50.154,-2.975 50.154,4.288l0 1.8c-3.306,-0.057 -6.65,-0.069 -10.043,-0.031 -31.452,0.729 -60.88,5.43 -90.585,15.98 -25.104,9.304 -46.047,21.72 -66.904,38.473 -15.034,12.412 -28.295,25.567 -40.853,39.68l-1.506 -1.473c-4.305,-4.208 17.26,-26.906 28.765,-38.248 16.985,-16.746 40.324,-32.835 61.927,-42.489z"/>
 </g>
</svg>
