<?xml version="1.0" encoding="UTF-8"?>
<!DOCTYPE svg PUBLIC "-//W3C//DTD SVG 1.1//EN" "http://www.w3.org/Graphics/SVG/1.1/DTD/svg11.dtd">
<svg xml:space="preserve" viewBox="0 0 1098 612" width="1098px" height="612px" version="1.1" style="shape-rendering:geometricPrecision; fill-rule:evenodd; clip-rule:evenodd" xmlns="http://www.w3.org/2000/svg" xmlns:xlink="http://www.w3.org/1999/xlink">
 <defs>
  <style type="text/css">
    .fil2 {fill:black;fill-opacity:0.1}
    .fil3 {fill:black;fill-opacity:0.4}
    .fil1 {fill:url(#id0)}
    .fil0 {fill:url(#id1);fill-opacity:0.7}
  </style>
  <linearGradient id="id0" gradientUnits="userSpaceOnUse" x1="879.931" y1="206.098" x2="879.931" y2="138.958">
   <stop offset="0" style="stop-opacity:1; stop-color:#303030"/>
   <stop offset="0.6" style="stop-opacity:1; stop-color:#484848"/>
   <stop offset="1" style="stop-opacity:1; stop-color:#525252"/>
  </linearGradient>
  <linearGradient id="id1" gradientUnits="userSpaceOnUse" xlink:href="#id0" x1="879.931" y1="209.698" x2="879.931" y2="135.358">
  </linearGradient>
 </defs>
 <g>
  <path class="fil0" d="M879.931 135.358c20.528,0 37.17,16.642 37.17,37.17 0,20.528 -16.642,37.17 -37.17,37.17 -20.528,0 -37.17,-16.642 -37.17,-37.17 0,-20.528 16.642,-37.17 37.17,-37.17z"/>
  <path class="fil1" d="M879.931 138.958c18.54,0 33.57,15.03 33.57,33.57 0,18.54 -15.03,33.57 -33.57,33.57 -18.54,0 -33.57,-15.03 -33.57,-33.57 0,-18.54 15.03,-33.57 33.57,-33.57z"/>
  <path class="fil2" d="M906.508 181.359c-2.782,12.107 -13.625,21.138 -26.577,21.138 -12.951,0 -23.793,-9.031 -26.575,-21.138 -0.174,-0.759 0.136,-1.511 0.796,-1.926 0.659,-0.415 1.47,-0.37 2.079,0.116 6.503,5.18 14.74,8.278 23.7,8.278 8.962,0 17.198,-3.098 23.701,-8.278 0.61,-0.486 1.422,-0.531 2.081,-0.116 0.659,0.416 0.969,1.167 0.795,1.926z"/>
  <path class="fil3" d="M899.673 175.211l-2.447 -6.792c-1.573,0.566 -3.146,1.133 -4.719,1.7l0.364 1.012c0.078,0.216 0.117,0.475 0.195,0.691 0.369,2.534 -1.588,4.355 -7.128,6.351l-11.272 4.061 19.12 -22.154 -0.746 -2.072 -1.203 0.434 -30.058 10.83 2.465 6.84c1.493,-0.538 2.986,-1.076 4.478,-1.614l-0.376 -1.198c-0.906,-2.966 0.932,-4.662 8.398,-7.352l7.708 -2.777 -18.778 21.895 0.764 2.119 1.203 -0.433 32.032 -11.541z"/>
 </g>
</svg>
