<?xml version="1.0" encoding="UTF-8"?>
<!DOCTYPE svg PUBLIC "-//W3C//DTD SVG 1.1//EN" "http://www.w3.org/Graphics/SVG/1.1/DTD/svg11.dtd">
<svg xml:space="preserve" viewBox="0 0 1098 612" width="1098px" height="612px" version="1.1" style="shape-rendering:geometricPrecision; fill-rule:evenodd; clip-rule:evenodd" xmlns="http://www.w3.org/2000/svg">
 <defs>
  <style type="text/css">
    .fil0 {fill:#DD0000}
    .fil1 {fill:red}
  </style>
 </defs>
 <g>
  <path class="fil0" d="M766.442 7.44c-8.011,0.677 -10.447,4.495 -7.244,4.601l5.589 0.186c31.451,0.728 59.701,3.98 89.405,14.529 25.104,9.304 46.481,21.178 67.338,37.931 15.034,12.412 22.632,20.021 35.189,34.134l1.54 1.668c1.876,2.031 4.475,1.567 1.209,-3.085 -23.309,-33.197 -52.518,-71.32 -85.709,-86.624 -27.451,-12.658 -73.313,-6.211 -107.317,-3.34z"/>
  <path class="fil1" d="M872.222 26.6c-23.457,-10.479 -43.508,-15.536 -69.045,-17.98 -22.291,-2.132 -50.155,-2.975 -50.155,4.288l0 1.8c3.307,-0.057 6.651,-0.069 10.044,-0.031 31.451,0.729 60.88,5.43 90.585,15.98 25.103,9.304 46.047,21.72 66.904,38.473 15.034,12.412 28.295,25.567 40.852,39.68l1.507 -1.473c4.305,-4.208 -17.26,-26.906 -28.766,-38.248 -16.984,-16.746 -40.323,-32.835 -61.926,-42.489z"/>
 </g>
</svg>
