<?xml version="1.0" encoding="UTF-8"?>
<!DOCTYPE svg PUBLIC "-//W3C//DTD SVG 1.1//EN" "http://www.w3.org/Graphics/SVG/1.1/DTD/svg11.dtd">
<svg xml:space="preserve" viewBox="0 0 1098 612" width="1098px" height="612px" version="1.1" style="shape-rendering:geometricPrecision; fill-rule:evenodd; clip-rule:evenodd" xmlns="http://www.w3.org/2000/svg">
 <defs>
  <style type="text/css">
    .fil1 {fill:red}
    .fil2 {fill:black;fill-opacity:0.2}
    .fil0 {fill:red;fill-opacity:0.7}
  </style>
 </defs>
 <g>
  <path class="fil0" d="M549 352.915c24.316,0 44.028,8.1 44.028,18.091 0,9.989 -19.712,18.089 -44.028,18.089 -24.317,0 -44.028,-8.1 -44.028,-18.089 0,-9.991 19.711,-18.091 44.028,-18.091z"/>
  <path class="fil1" d="M579.449 359.873c-7.755,-3.186 -18.518,-5.157 -30.449,-5.157 -11.932,0 -22.695,1.971 -30.45,5.157 -7.277,2.989 -11.778,6.937 -11.778,11.133 0,4.195 4.501,8.142 11.778,11.132 7.755,3.186 18.518,5.157 30.45,5.157 11.931,0 22.694,-1.971 30.449,-5.157 7.277,-2.99 11.779,-6.937 11.779,-11.132 0,-4.196 -4.502,-8.144 -11.779,-11.133z"/>
  <path class="fil2" d="M549 366.505c2.485,0 4.5,2.015 4.5,4.5 0,2.485 -2.015,4.5 -4.5,4.5 -2.485,0 -4.5,-2.015 -4.5,-4.5 0,-2.485 2.015,-4.5 4.5,-4.5z"/>
 </g>
</svg>
