<?xml version="1.0" encoding="UTF-8"?>
<!DOCTYPE svg PUBLIC "-//W3C//DTD SVG 1.1//EN" "http://www.w3.org/Graphics/SVG/1.1/DTD/svg11.dtd">
<svg xml:space="preserve" viewBox="0 0 1098 612" width="1098px" height="612px" version="1.1" style="shape-rendering:geometricPrecision; fill-rule:evenodd; clip-rule:evenodd" xmlns="http://www.w3.org/2000/svg">
 <defs>
  <style type="text/css">
    .fil0 {fill:#B20000}
    .fil1 {fill:red}
    .fil2 {fill:#FF2727}
  </style>
 </defs>
 <g>
  <path class="fil0" d="M270.638 188.479c9.933,0 19.529,1.439 28.598,4.108l0 46.316 -0.002 0.088c-2.846,13.173 -14.563,23.044 -28.587,23.044 -14.056,0 -25.794,-9.915 -28.607,-23.132l0 -46.316c9.068,-2.669 18.665,-4.108 28.598,-4.108z"/>
  <path class="fil1" d="M293.836 206.551l0 32.355c0,3.284 0.577,6.434 1.633,9.354 -5.167,8.271 -14.351,13.775 -24.822,13.775 -10.479,0 -19.669,-5.512 -24.834,-13.794 1.053,-2.914 1.627,-6.058 1.627,-9.335l0 -32.355c0,-2.575 1.753,-4.744 4.272,-5.281 6.103,-1.303 12.434,-1.991 18.926,-1.991 6.491,0 12.823,0.688 18.926,1.991 2.519,0.537 4.272,2.705 4.272,5.281z"/>
  <path class="fil2" d="M293.836 206.551l0 32.355c0,3.284 0.577,6.434 1.633,9.354 -1.097,1.756 -2.375,3.387 -3.808,4.867 -2.066,-4.305 -3.225,-9.128 -3.225,-14.221l0 -23.901c0,-1.747 -1.214,-3.213 -2.93,-3.537 -4.816,-0.911 -9.786,-1.389 -14.868,-1.389 -5.082,0 -10.053,0.477 -14.87,1.389 -1.716,0.325 -2.93,1.79 -2.93,3.537l0.002 23.901c0,5.088 -1.156,9.907 -3.22,14.208 -1.432,-1.482 -2.71,-3.115 -3.807,-4.873 1.053,-2.914 1.627,-6.058 1.627,-9.335l0 -32.355c0,-2.575 1.753,-4.744 4.272,-5.281 6.103,-1.303 12.434,-1.991 18.926,-1.991 6.491,0 12.823,0.688 18.926,1.991 2.519,0.537 4.272,2.705 4.272,5.281z"/>
 </g>
</svg>
