<?xml version="1.0" encoding="UTF-8"?>
<!DOCTYPE svg PUBLIC "-//W3C//DTD SVG 1.1//EN" "http://www.w3.org/Graphics/SVG/1.1/DTD/svg11.dtd">
<svg xml:space="preserve" viewBox="0 0 1098 612" width="1098px" height="612px" version="1.1" style="shape-rendering:geometricPrecision; fill-rule:evenodd; clip-rule:evenodd" xmlns="http://www.w3.org/2000/svg">
 <defs>
  <style type="text/css">
    .fil0 {fill:#B20000}
    .fil1 {fill:red}
    .fil2 {fill:#FF2727}
  </style>
 </defs>
 <g>
  <path class="fil0" d="M219.938 318.2l-46.316 0c-2.67,-9.068 -4.108,-18.664 -4.108,-28.597 0,-9.933 1.439,-19.529 4.108,-28.598l46.316 0c13.203,2.824 23.104,14.555 23.104,28.601 0,14.035 -9.886,25.759 -23.074,28.594l-0.03 0z"/>
  <path class="fil1" d="M229.271 314.425c-2.913,-1.051 -6.055,-1.624 -9.33,-1.624l-32.355 0c-2.575,0 -4.744,-1.753 -5.281,-4.272 -1.303,-6.103 -1.991,-12.434 -1.991,-18.926 0,-6.492 0.688,-12.824 1.991,-18.926 0.537,-2.519 2.705,-4.272 5.281,-4.272l32.355 0c3.273,0 6.413,-0.573 9.324,-1.623 8.273,5.167 13.777,14.352 13.777,24.824 0,10.469 -5.502,19.652 -13.771,24.819z"/>
  <path class="fil2" d="M229.271 314.425c-2.913,-1.051 -6.055,-1.624 -9.33,-1.624l-32.355 0c-2.575,0 -4.744,-1.753 -5.281,-4.272 -1.303,-6.103 -1.991,-12.434 -1.991,-18.926 0,-6.492 0.688,-12.824 1.991,-18.926 0.537,-2.519 2.705,-4.272 5.281,-4.272l32.355 0c3.273,0 6.413,-0.573 9.324,-1.623 1.757,1.098 3.389,2.376 4.87,3.81 -4.298,2.059 -9.112,3.212 -14.194,3.212l-23.901 0c-1.747,0 -3.213,1.215 -3.537,2.93 -0.911,4.816 -1.389,9.787 -1.389,14.869 0,5.082 0.477,10.053 1.389,14.869 0.325,1.716 1.79,2.931 3.537,2.931l23.901 -0.002c5.084,0 9.899,1.154 14.198,3.214 -1.48,1.434 -3.112,2.713 -4.868,3.81z"/>
 </g>
</svg>
