<?xml version="1.0" encoding="UTF-8"?>
<!DOCTYPE svg PUBLIC "-//W3C//DTD SVG 1.1//EN" "http://www.w3.org/Graphics/SVG/1.1/DTD/svg11.dtd">
<svg xml:space="preserve" viewBox="0 0 1098 612" width="1098px" height="612px" version="1.1" style="shape-rendering:geometricPrecision; fill-rule:evenodd; clip-rule:evenodd" xmlns="http://www.w3.org/2000/svg">
 <defs>
  <style type="text/css">
    .fil0 {fill:#B20000}
    .fil1 {fill:red}
    .fil2 {fill:#FF2727}
  </style>
 </defs>
 <g>
  <path class="fil0" d="M299.236 340.303l0 46.316c-9.069,2.669 -18.665,4.108 -28.598,4.108 -9.933,0 -19.529,-1.439 -28.598,-4.108l0 -46.316 0 -0.029c2.835,-13.188 14.559,-23.074 28.595,-23.074 14.045,0 25.777,9.9 28.601,23.103z"/>
  <path class="fil1" d="M295.458 330.976c-1.05,2.912 -1.622,6.051 -1.622,9.324l0 32.354c0,2.576 -1.753,4.744 -4.272,5.282 -6.103,1.302 -12.434,1.991 -18.926,1.991 -6.492,0 -12.823,-0.689 -18.926,-1.991 -2.519,-0.538 -4.272,-2.705 -4.272,-5.282l0 -32.354c0,-3.276 -0.574,-6.417 -1.625,-9.33 5.168,-8.269 14.35,-13.77 24.82,-13.77 10.472,0 19.656,5.504 24.823,13.776z"/>
  <path class="fil2" d="M295.458 330.976c-1.05,2.912 -1.622,6.051 -1.622,9.324l0 32.354c0,2.576 -1.753,4.744 -4.272,5.282 -6.103,1.302 -12.434,1.991 -18.926,1.991 -6.492,0 -12.823,-0.689 -18.926,-1.991 -2.519,-0.538 -4.272,-2.705 -4.272,-5.282l0 -32.354c0,-3.276 -0.574,-6.417 -1.625,-9.33 1.098,-1.756 2.377,-3.388 3.811,-4.868 2.06,4.299 3.214,9.114 3.214,14.198l0 23.901c0,1.746 1.214,3.212 2.929,3.537 4.816,0.911 9.787,1.389 14.869,1.389 5.082,0 10.053,-0.478 14.869,-1.389 1.716,-0.325 2.931,-1.791 2.931,-3.537l-0.002 -23.901c0,-5.082 1.153,-9.896 3.212,-14.194 1.433,1.482 2.712,3.113 3.81,4.87z"/>
 </g>
</svg>
