<?xml version="1.0" encoding="UTF-8"?>
<!DOCTYPE svg PUBLIC "-//W3C//DTD SVG 1.1//EN" "http://www.w3.org/Graphics/SVG/1.1/DTD/svg11.dtd">
<svg xml:space="preserve" viewBox="0 0 1098 612" width="1098px" height="612px" version="1.1" style="shape-rendering:geometricPrecision; fill-rule:evenodd; clip-rule:evenodd" xmlns="http://www.w3.org/2000/svg">
 <defs>
  <style type="text/css">
    .fil1 {fill:red}
    .fil3 {fill:black;fill-opacity:0.05}
    .fil4 {fill:black;fill-opacity:0.3}
    .fil0 {fill:red;fill-opacity:0.5}
    .fil2 {fill:url(#id0)}
  </style>
  <linearGradient id="id0" gradientUnits="userSpaceOnUse" x1="840.562" y1="352.598" x2="840.562" y2="276.168">
   <stop offset="0" style="stop-opacity:1; stop-color:red"/>
   <stop offset="0.3" style="stop-opacity:1; stop-color:red"/>
   <stop offset="1" style="stop-opacity:1; stop-color:#D00000"/>
  </linearGradient>
 </defs>
 <g>
  <path class="fil0" d="M840.562 268.968c25.081,0 45.415,20.334 45.415,45.415 0,25.081 -20.334,45.415 -45.415,45.415 -25.082,0 -45.415,-20.334 -45.415,-45.415 0,-25.081 20.333,-45.415 45.415,-45.415z"/>
  <circle class="fil1" cx="840.562" cy="314.383" r="41.815"/>
  <circle class="fil2" cx="840.562" cy="314.383" r="38.215"/>
  <path class="fil3" d="M840.562 276.17c19.266,0 35.202,14.257 37.832,32.797 0.112,0.793 -0.288,1.536 -1.012,1.878 -0.725,0.344 -1.555,0.181 -2.096,-0.41 -7.226,-7.886 -20.077,-13.133 -34.724,-13.133 -14.65,0 -27.5,5.249 -34.726,13.135 -0.541,0.591 -1.37,0.754 -2.096,0.411 -0.724,-0.343 -1.124,-1.086 -1.012,-1.879 2.63,-18.54 18.567,-32.799 37.834,-32.799z"/>
  <path class="fil4" d="M839.302 325.239l-3.695 -7.311 8.455 -4.274c6.968,-3.522 11.177,-3.426 11.561,-0.393 0.267,2.087 -2.211,4.846 -7.409,7.473l-8.912 4.505zm-4.807 -9.511l-3.42 -6.768 8.054 -4.071c5.884,-2.974 9.605,-2.991 10.131,-0.388 0.352,1.973 -1.099,3.926 -4.739,6.089 -0.466,0.297 -0.911,0.53 -1.39,0.774l-0.026 0.013 -0.026 0.013 -0.026 0.013 -0.027 0.014 -0.026 0.013 -0.027 0.013 -0.027 0.014 -0.026 0.013 -0.027 0.014 -8.398 4.244zm17.2 5.936c8.624,-4.359 12.374,-7.724 13.534,-10.82 0.198,-0.603 0.324,-1.204 0.279,-1.719 -0.159,-3.577 -4.455,-4.274 -12.086,-1.636 -0.3,0.116 -0.614,0.203 -0.914,0.318l0.57 -0.432 0.756 -0.632c3.137,-2.59 4.531,-4.657 4.48,-6.46 -0.049,-4.493 -6.388,-4.551 -18.612,1.627l-26.616 13.453 1.068 2.113 4.398 -2.223 0.011 -0.006 0.01 -0.005 0.011 -0.005 0.011 -0.005 0.01 -0.006 0.01 -0.005 0.011 -0.005 0.01 -0.005 0.01 -0.005 0.01 -0.005 0.01 -0.005 0.01 -0.005 0.01 -0.005 0.009 -0.005 0.01 -0.005 0.01 -0.005 0.01 -0.005 0.009 -0.005 0.01 -0.005 0.009 -0.005 0.01 -0.004 0.01 -0.005 0.009 -0.005 0.009 -0.005 0.01 -0.005 0.009 -0.004 0.01 -0.005 0.009 -0.005 0.009 -0.005 0.01 -0.004 0.009 -0.005 0.01 -0.005 0.009 -0.005 0.009 -0.004 0.01 -0.005 0.009 -0.005 0.01 -0.004 0.009 -0.005 0.009 -0.005 0.01 -0.005 0.009 -0.005 0.01 -0.004 0.009 -0.005 0.01 -0.005 0.01 -0.005 0.009 -0.004 0.01 -0.005 0.009 -0.005 0.01 -0.005 0.01 -0.005 0.009 -0.005 0.01 -0.005 0.01 -0.005 0.01 -0.005 0.01 -0.005 0.01 -0.005 0.01 -0.006 0.011 -0.005 0.01 -0.005 0.01 -0.005 0.011 -0.005 0.01 -0.006 0.01 -0.005 0.011 -0.005c2.443,-1.127 2.758,-1.071 3.451,0.299l6.12 12.11 0.491 0.971c0.679,1.342 0.38,1.744 -1.919,3.013 -0.13,0.096 -0.309,0.191 -0.496,0.287l-0.011 0.005 -0.01 0.005 -0.011 0.006 -0.011 0.005 -0.01 0.006 -0.011 0.005 -0.011 0.006 -0.01 0.005 -0.011 0.005 -0.01 0.006 -0.011 0.005 -4.284 2.165 1.054 2.085 28.215 -14.261z"/>
 </g>
</svg>
