<?xml version="1.0" encoding="UTF-8"?>
<!DOCTYPE svg PUBLIC "-//W3C//DTD SVG 1.1//EN" "http://www.w3.org/Graphics/SVG/1.1/DTD/svg11.dtd">
<svg xml:space="preserve" viewBox="0 0 1098 612" width="1098px" height="612px" version="1.1" style="shape-rendering:geometricPrecision; fill-rule:evenodd; clip-rule:evenodd" xmlns="http://www.w3.org/2000/svg">
 <defs>
  <style type="text/css">
    .fil0 {fill:red;fill-opacity:0.6}
    .fil1 {fill:red}
    .fil2 {fill:black;fill-opacity:0.2}
    .fil3 {fill:black;fill-opacity:0.5}
  </style>
 </defs>
 <g>
  <path class="fil0" d="M738.862 337.422c25.081,0 45.414,20.333 45.414,45.414 0,25.081 -20.333,45.414 -45.414,45.414 -25.081,0 -45.414,-20.333 -45.414,-45.414 0,-25.081 20.333,-45.414 45.414,-45.414z"/>
  <circle class="fil1" cx="738.862" cy="382.836" r="41.814"/>
  <path class="fil2" d="M738.862 344.622c19.266,0 35.203,14.257 37.833,32.796 0.112,0.793 -0.288,1.536 -1.012,1.879 -0.725,0.343 -1.555,0.181 -2.097,-0.411 -7.226,-7.886 -20.076,-13.132 -34.724,-13.132 -14.649,0 -27.499,5.248 -34.725,13.134 -0.541,0.592 -1.371,0.754 -2.096,0.412 -0.724,-0.343 -1.125,-1.086 -1.012,-1.88 2.63,-18.539 18.567,-32.798 37.833,-32.798z"/>
  <path class="fil3" d="M744.7 380.759l-9.012 -5.004c-0.269,-0.149 -0.567,-0.155 -0.842,-0.017 -0.274,0.139 -0.447,0.382 -0.487,0.687l-1.34 10.236c-0.044,0.339 0.093,0.653 0.372,0.85 0.279,0.198 0.62,0.224 0.926,0.069l10.352 -5.232c0.305,-0.154 0.487,-0.444 0.493,-0.786 0.007,-0.341 -0.164,-0.637 -0.462,-0.803zm16.012 3.201c0.133,0.167 0.253,0.356 0.354,0.555 0.331,0.656 0.382,1.3 0.15,1.926 -0.232,0.625 -0.678,1.101 -1.34,1.435 -0.688,0.348 -1.512,0.249 -2.484,-0.302l-6.021 -3.279c-0.482,-0.263 -1.016,-0.271 -1.506,-0.023l-17.05 8.618c-0.492,0.248 -0.802,0.684 -0.875,1.23l-0.913 6.813c-0.001,0.299 -0.036,0.535 -0.096,0.686 -0.144,0.403 -0.41,0.707 -0.802,0.905 -0.842,0.426 -1.611,0.436 -2.321,0.037 -0.307,-0.176 -0.523,-0.382 -0.644,-0.62 -0.081,-0.16 -0.123,-0.308 -0.124,-0.437l3.155 -28.314c0.143,-1.218 0.815,-2.106 2.036,-2.659 1.44,-0.663 2.506,-0.661 3.194,0.015l25.287 13.414z"/>
 </g>
</svg>
