<?xml version="1.0" encoding="UTF-8"?>
<!DOCTYPE svg PUBLIC "-//W3C//DTD SVG 1.1//EN" "http://www.w3.org/Graphics/SVG/1.1/DTD/svg11.dtd">
<svg xml:space="preserve" viewBox="0 0 1098 612" width="1098px" height="612px" version="1.1" style="shape-rendering:geometricPrecision; fill-rule:evenodd; clip-rule:evenodd" xmlns="http://www.w3.org/2000/svg" xmlns:xlink="http://www.w3.org/1999/xlink">
 <defs>
  <style type="text/css">
    .fil2 {fill:black;fill-opacity:0.05}
    .fil3 {fill:black;fill-opacity:0.3}
    .fil1 {fill:url(#id0)}
    .fil0 {fill:url(#id1);fill-opacity:0.5}
  </style>
  <linearGradient id="id0" gradientUnits="userSpaceOnUse" x1="785.084" y1="239.682" x2="785.084" y2="172.542">
   <stop offset="0" style="stop-opacity:1; stop-color:#C00000"/>
   <stop offset="0.6" style="stop-opacity:1; stop-color:red"/>
   <stop offset="1" style="stop-opacity:1; stop-color:red"/>
  </linearGradient>
  <linearGradient id="id1" gradientUnits="userSpaceOnUse" xlink:href="#id0" x1="785.084" y1="243.282" x2="785.084" y2="168.942">
  </linearGradient>
 </defs>
 <g>
  <path class="fil0" d="M785.084 168.942c20.528,0 37.17,16.642 37.17,37.17 0,20.528 -16.642,37.17 -37.17,37.17 -20.528,0 -37.17,-16.642 -37.17,-37.17 0,-20.528 16.642,-37.17 37.17,-37.17z"/>
  <path class="fil1" d="M785.084 172.542c18.54,0 33.57,15.03 33.57,33.57 0,18.539 -15.03,33.569 -33.57,33.569 -18.54,0 -33.57,-15.03 -33.57,-33.569 0,-18.54 15.03,-33.57 33.57,-33.57z"/>
  <path class="fil2" d="M811.66 214.943c-2.782,12.107 -13.625,21.138 -26.576,21.138 -12.951,0 -23.794,-9.031 -26.575,-21.138 -0.175,-0.759 0.136,-1.51 0.795,-1.925 0.659,-0.415 1.47,-0.371 2.08,0.115 6.502,5.181 14.739,8.279 23.7,8.279 8.961,0 17.198,-3.098 23.701,-8.279 0.609,-0.486 1.421,-0.53 2.08,-0.115 0.66,0.415 0.969,1.166 0.795,1.925z"/>
  <path class="fil3" d="M797.718 210.052l1.142 -0.577 -0.843 -1.667 -1.142 0.576 -2.331 1.179 -0.009 0.004 -0.008 0.004c-0.178,0.088 -0.366,0.157 -0.543,0.246 -1.862,0.855 -2.114,0.811 -2.669,-0.286l-1.974 -3.907 5.458 -10.991c0.08,-0.184 0.205,-0.391 0.296,-0.551 0.663,-1.172 1.148,-1.727 1.892,-2.19 0.742,-0.375 1.484,-0.75 2.227,-1.126l-0.855 -1.69 -12.932 6.536 -1.142 0.577 0.843 1.668 1.142 -0.577 2.012 -1.017 0.006 -0.003 0.006 -0.003c0.137,-0.067 0.324,-0.135 0.456,-0.202 0.8,-0.347 1.133,-0.257 0.963,0.202 -0.056,0.229 -0.192,0.527 -0.533,1.216l-3.182 6.706 -7.329 -1.394c-0.572,-0.112 -0.962,-0.201 -1.249,-0.315 -0.482,-0.158 -0.3,-0.479 0.683,-1.033l0.006 -0.003 0.006 -0.004 0.007 -0.003 0.007 -0.003 0.006 -0.004 0.007 -0.003 0.007 -0.004 0.007 -0.003 0.007 -0.003 0.006 -0.004 0.008 -0.004 0.006 -0.003 0.008 -0.004 0.007 -0.003 0.007 -0.004 0.008 -0.004 0.006 -0.003 0.008 -0.004 0.007 -0.004 0.008 -0.004 0.007 -0.003 0.007 -0.004 0.008 -0.003 0.007 -0.004 0.008 -0.004 0.007 -0.004 0.007 -0.004 0.008 -0.003 0.008 -0.004 0.007 -0.004 0.007 -0.004 0.008 -0.003 0.007 -0.004 0.008 -0.004 0.008 -0.004 0.007 -0.004 0.008 -0.004 0.007 -0.004 0.007 -0.003 0.008 -0.004 0.007 -0.003 0.008 -0.004 0.007 -0.004 0.007 -0.004 0.008 -0.004 0.007 -0.003 0.007 -0.004 0.008 -0.004 0.007 -0.003 0.007 -0.004 0.007 -0.004 0.007 -0.003 0.007 -0.004 0.007 -0.003 0.007 -0.004 0.007 -0.003 0.007 -0.004 0.007 -0.003 0.007 -0.004 0.006 -0.003 0.007 -0.003 0.007 -0.004 0.006 -0.003 0.007 -0.003 1.919 -0.97 1.142 -0.577 -0.855 -1.691 -1.141 0.577 -14.989 7.576 -1.141 0.577 0.854 1.69 1.142 -0.577 0.046 -0.023 0.004 -0.002 0.005 -0.002 0.004 -0.003 0.005 -0.002 0.004 -0.002 0.005 -0.003 0.005 -0.002 0.004 -0.003 0.005 -0.002 0.005 -0.002 0.005 -0.003 0.005 -0.002 0.005 -0.003 0.005 -0.002 0.005 -0.003 0.005 -0.002 0.005 -0.003 0.005 -0.003 0.005 -0.002 0.006 -0.003 0.005 -0.002 0.005 -0.003 0.005 -0.003 0.006 -0.002 0.005 -0.003 0.005 -0.003 0.006 -0.002 0.005 -0.003 0.005 -0.003 0.005 -0.003 0.006 -0.002 0.005 -0.003 0.006 -0.003 0.005 -0.002 0.005 -0.003 0.006 -0.003 0.005 -0.003 0.006 -0.002 0.004 -0.003 0.006 -0.003 0.005 -0.002 0.006 -0.003 0.005 -0.002 0.005 -0.003 0.005 -0.003 0.005 -0.002 0.005 -0.003 0.006 -0.003 0.005 -0.002 0.005 -0.003 0.005 -0.002 0.004 -0.003 0.005 -0.002 0.005 -0.002 0.005 -0.003 0.005 -0.002 0.005 -0.003 0.004 -0.002 0.005 -0.003 0.005 -0.002 0.004 -0.002 0.005 -0.002 0.004 -0.003 0.004 -0.002c1.691,-0.74 2.344,-0.811 4.222,-0.499l11.859 2.124 1.582 3.13 0.439 0.868c0.554,1.097 0.441,1.326 -1.535,2.411 -0.104,0.077 -0.247,0.153 -0.371,0.216l-0.007 0.004 -0.007 0.003 -0.007 0.004 -0.007 0.003 -0.006 0.003 -0.007 0.004 -0.007 0.003 -0.006 0.004 -0.007 0.003 -0.007 0.003 -0.006 0.004 -2.332 1.178 -1.141 0.577 0.843 1.668 1.141 -0.577 17.228 -8.708z"/>
 </g>
</svg>
