<?xml version="1.0" encoding="UTF-8"?>
<!DOCTYPE svg PUBLIC "-//W3C//DTD SVG 1.1//EN" "http://www.w3.org/Graphics/SVG/1.1/DTD/svg11.dtd">
<svg xml:space="preserve" viewBox="0 0 1098 612" width="1098px" height="612px" version="1.1" style="shape-rendering:geometricPrecision; fill-rule:evenodd; clip-rule:evenodd" xmlns="http://www.w3.org/2000/svg">
 <defs>
  <style type="text/css">
    .fil0 {fill:#B3B3B3;fill-opacity:0.6}
    .fil1 {fill:#B3B3B3}
    .fil2 {fill:black;fill-opacity:0.2}
    .fil3 {fill:black;fill-opacity:0.5}
  </style>
 </defs>
 <g>
  <path class="fil0" d="M700.92 225.972c20.529,0 37.171,16.642 37.171,37.17 0,20.528 -16.642,37.17 -37.171,37.17 -20.528,0 -37.17,-16.642 -37.17,-37.17 0,-20.528 16.642,-37.17 37.17,-37.17z"/>
  <circle class="fil1" cx="700.92" cy="263.142" r="33.57"/>
  <path class="fil2" d="M727.496 271.974c-2.782,12.107 -13.624,21.138 -26.576,21.138 -12.951,0 -23.793,-9.031 -26.575,-21.138 -0.174,-0.759 0.136,-1.511 0.796,-1.926 0.659,-0.415 1.47,-0.37 2.079,0.116 6.503,5.18 14.739,8.278 23.7,8.278 8.962,0 17.198,-3.098 23.701,-8.278 0.61,-0.486 1.422,-0.531 2.081,-0.116 0.659,0.416 0.969,1.167 0.794,1.926z"/>
  <path class="fil3" d="M720.018 265.163c0.741,0.174 1.238,0.52 1.492,1.021 0.451,0.893 0.078,1.639 -1.111,2.24 -0.141,0.103 -0.353,0.227 -0.636,0.37 -0.803,0.406 -1.44,0.55 -1.911,0.433l-14.946 -3.541c-0.429,-0.102 -0.86,0.114 -1.034,0.519l-6.099 14.182c-0.178,0.445 -0.692,0.882 -1.534,1.308 -0.25,0.126 -0.456,0.213 -0.617,0.263 -1.189,0.601 -2.014,0.453 -2.471,-0.453 -0.247,-0.488 -0.227,-1.087 0.066,-1.785l6.073 -14.229c0.108,-0.252 0.1,-0.513 -0.024,-0.758 -0.125,-0.246 -0.33,-0.407 -0.598,-0.47l-14.504 -3.395c-0.747,-0.17 -1.248,-0.506 -1.501,-1.007 -0.445,-0.881 -0.075,-1.616 1.12,-2.221l1.337 -0.675c0.392,-0.199 0.778,-0.249 1.168,-0.163l14.536 3.351c0.428,0.099 0.856,-0.118 1.029,-0.521l5.865 -13.646c0.169,-0.384 0.445,-0.668 0.824,-0.86l1.298 -0.656c1.176,-0.594 1.991,-0.45 2.443,0.443 0.253,0.502 0.229,1.095 -0.07,1.778l-5.823 13.647c-0.107,0.252 -0.099,0.512 0.024,0.757 0.123,0.245 0.327,0.406 0.594,0.471l15.01 3.597z"/>
 </g>
</svg>
