<?xml version="1.0" encoding="UTF-8"?>
<!DOCTYPE svg PUBLIC "-//W3C//DTD SVG 1.1//EN" "http://www.w3.org/Graphics/SVG/1.1/DTD/svg11.dtd">
<svg xml:space="preserve" viewBox="0 0 1098 612" width="1098px" height="612px" version="1.1" style="shape-rendering:geometricPrecision; fill-rule:evenodd; clip-rule:evenodd" xmlns="http://www.w3.org/2000/svg">
 <defs>
  <style type="text/css">
    .fil0 {fill:#0389FF;fill-opacity:0.6}
    .fil1 {fill:#1990FF}
    .fil2 {fill:black;fill-opacity:0.2}
    .fil3 {fill:black;fill-opacity:0.5}
  </style>
 </defs>
 <g>
  <path class="fil0" d="M954.78 228.289c25.081,0 45.414,20.333 45.414,45.414 0,25.082 -20.333,45.415 -45.414,45.415 -25.081,0 -45.414,-20.333 -45.414,-45.415 0,-25.081 20.333,-45.414 45.414,-45.414z"/>
  <circle class="fil1" cx="954.779" cy="273.703" r="41.814"/>
  <path class="fil2" d="M954.78 235.49c19.265,0 35.202,14.257 37.832,32.797 0.112,0.793 -0.288,1.536 -1.012,1.879 -0.725,0.343 -1.555,0.18 -2.096,-0.411 -7.227,-7.886 -20.076,-13.133 -34.724,-13.133 -14.65,0 -27.499,5.249 -34.726,13.135 -0.541,0.591 -1.371,0.754 -2.096,0.412 -0.724,-0.344 -1.124,-1.087 -1.012,-1.88 2.63,-18.54 18.567,-32.799 37.834,-32.799z"/>
  <path class="fil3" d="M963.374 256.758c0.523,1.035 0.265,1.818 -0.775,2.344l-15.673 7.922c-3.804,1.923 -5.323,3.642 -4.553,5.166l6.041 11.952c0.578,1.143 1.823,1.515 3.734,1.114 0.839,-0.174 2.157,-0.712 3.957,-1.621l14.952 -7.558c1.028,-0.519 1.805,-0.259 2.335,0.788l0.247 0.489c0.529,1.047 0.278,1.828 -0.75,2.347l-14.947 7.555c-1.805,0.913 -3.11,1.507 -3.897,1.785 -1.383,0.472 -2.77,0.698 -4.174,0.665 -2.808,-0.065 -4.745,-1.152 -5.81,-3.259l-6.07 -12.01c-0.76,-1.504 -0.715,-3.156 0.146,-4.946 0.734,-1.517 1.832,-2.823 3.312,-3.918 0.819,-0.599 2.013,-1.3 3.6,-2.102l15.737 -7.954c1.041,-0.526 1.822,-0.275 2.342,0.753l0.246 0.488z"/>
 </g>
</svg>
