<?xml version="1.0" encoding="UTF-8"?>
<!DOCTYPE svg PUBLIC "-//W3C//DTD SVG 1.1//EN" "http://www.w3.org/Graphics/SVG/1.1/DTD/svg11.dtd">
<svg xml:space="preserve" viewBox="0 0 1098 612" width="1098px" height="612px" version="1.1" style="shape-rendering:geometricPrecision; fill-rule:evenodd; clip-rule:evenodd" xmlns="http://www.w3.org/2000/svg">
 <defs>
  <style type="text/css">
    .fil0 {fill:#FFCF0D;fill-opacity:0.6}
    .fil1 {fill:#FFCF0D}
    .fil2 {fill:black;fill-opacity:0.2}
    .fil3 {fill:black;fill-opacity:0.5}
  </style>
 </defs>
 <g>
  <path class="fil0" d="M840.562 268.969c25.081,0 45.414,20.334 45.414,45.414 0,25.082 -20.333,45.415 -45.414,45.415 -25.081,0 -45.414,-20.333 -45.414,-45.415 0,-25.08 20.333,-45.414 45.414,-45.414z"/>
  <circle class="fil1" cx="840.562" cy="314.383" r="41.814"/>
  <path class="fil2" d="M840.562 276.17c19.266,0 35.202,14.258 37.832,32.797 0.113,0.793 -0.287,1.536 -1.012,1.879 -0.724,0.343 -1.554,0.18 -2.096,-0.411 -7.226,-7.886 -20.076,-13.133 -34.724,-13.133 -14.649,0 -27.499,5.249 -34.725,13.135 -0.542,0.591 -1.371,0.754 -2.096,0.412 -0.724,-0.343 -1.125,-1.087 -1.013,-1.88 2.63,-18.539 18.567,-32.799 37.834,-32.799z"/>
  <path class="fil3" d="M853.241 313.275c-0.747,-1.542 -2.959,-1.384 -6.628,0.47l-14.819 7.49c-0.442,0.223 -0.62,0.766 -0.397,1.208l2.482 4.911c0.224,0.442 0.767,0.62 1.209,0.397l14.549 -7.354c3.411,-1.724 4.937,-3.447 4.588,-5.175l-0.984 -1.947zm-4.048 -8.2l-1.106 -1.998c-0.935,-1.625 -3.259,-1.499 -6.973,0.378l-14.466 7.311c-0.441,0.224 -0.62,0.767 -0.397,1.209l2.619 5.18c0.223,0.442 0.766,0.621 1.208,0.397l14.613 -7.386c2.718,-1.374 4.258,-2.7 4.61,-3.983 0.111,-0.403 0.077,-0.774 -0.108,-1.108zm9.164 7.405c1.403,2.776 0.832,5.429 -1.72,7.961 -0.779,0.772 -1.762,1.543 -2.946,2.312 -0.649,0.425 -1.233,0.769 -1.747,1.028l-18.68 9.442c-1.028,0.519 -1.805,0.259 -2.332,-0.782l-10.63 -21.032c-0.52,-1.028 -0.265,-1.802 0.762,-2.322l18.134 -9.165c2.044,-1.033 3.667,-1.7 4.854,-2.001 1.685,-0.433 3.279,-0.424 4.775,0.014 1.696,0.482 2.914,1.455 3.648,2.908l0.942 1.863c0.737,1.459 0.834,2.927 0.29,4.42 -0.08,0.209 -0.075,0.409 0.012,0.583 0.058,0.115 0.159,0.218 0.307,0.321l0.194 0.111c1.515,0.429 2.64,1.377 3.377,2.836l0.76 1.503z"/>
 </g>
</svg>
