<?xml version="1.0" encoding="UTF-8"?>
<!DOCTYPE svg PUBLIC "-//W3C//DTD SVG 1.1//EN" "http://www.w3.org/Graphics/SVG/1.1/DTD/svg11.dtd">
<svg xml:space="preserve" viewBox="0 0 1098 612" width="1098px" height="612px" version="1.1" style="shape-rendering:geometricPrecision; fill-rule:evenodd; clip-rule:evenodd" xmlns="http://www.w3.org/2000/svg">
 <defs>
  <style type="text/css">
    .fil0 {fill:#B3B3B3;fill-opacity:0.6}
    .fil1 {fill:#B3B3B3}
    .fil2 {fill:black;fill-opacity:0.2}
    .fil3 {fill:black;fill-opacity:0.5}
  </style>
 </defs>
 <g>
  <path class="fil0" d="M879.932 135.357c20.528,0 37.17,16.642 37.17,37.171 0,20.528 -16.642,37.17 -37.17,37.17 -20.528,0 -37.17,-16.642 -37.17,-37.17 0,-20.529 16.642,-37.171 37.17,-37.171z"/>
  <circle class="fil1" cx="879.932" cy="172.527" r="33.57"/>
  <path class="fil2" d="M906.508 181.36c-2.782,12.106 -13.625,21.137 -26.576,21.137 -12.951,0 -23.794,-9.031 -26.575,-21.137 -0.174,-0.76 0.136,-1.511 0.795,-1.926 0.659,-0.415 1.47,-0.371 2.08,0.115 6.502,5.181 14.739,8.279 23.7,8.279 8.961,0 17.198,-3.098 23.701,-8.279 0.609,-0.486 1.421,-0.53 2.08,-0.115 0.66,0.415 0.97,1.166 0.795,1.926z"/>
  <path class="fil3" d="M888.679 155.982c0.305,0.604 0.329,1.219 0.059,1.841l-10.779 24.881c-0.12,0.283 -0.053,0.596 0.172,0.806 0.225,0.21 0.541,0.255 0.816,0.117l17.301 -8.745c1.028,-0.52 1.805,-0.259 2.334,0.788l0.247 0.489c0.53,1.047 0.279,1.827 -0.749,2.347l-22.048 11.144c-0.938,0.474 -1.819,0.709 -2.647,0.7 -1.094,0.001 -1.724,-0.393 -2.201,-1.275 -0.305,-0.604 -0.328,-1.22 -0.059,-1.842l10.779 -24.881c0.12,-0.283 0.053,-0.596 -0.172,-0.806 -0.225,-0.21 -0.541,-0.255 -0.816,-0.116l-17.301 8.744c-1.028,0.52 -1.805,0.26 -2.334,-0.788l-0.248 -0.489c-0.529,-1.047 -0.277,-1.827 0.75,-2.347l22.048 -11.143c0.938,-0.475 1.819,-0.71 2.647,-0.701 1.094,-0.001 1.724,0.393 2.201,1.276z"/>
 </g>
</svg>
