<?xml version="1.0" encoding="UTF-8"?>
<!DOCTYPE svg PUBLIC "-//W3C//DTD SVG 1.1//EN" "http://www.w3.org/Graphics/SVG/1.1/DTD/svg11.dtd">
<svg xml:space="preserve" viewBox="0 0 1098 612" width="1098px" height="612px" version="1.1" style="shape-rendering:geometricPrecision; fill-rule:evenodd; clip-rule:evenodd" xmlns="http://www.w3.org/2000/svg">
 <defs>
  <style type="text/css">
    .fil0 {fill:#B3B3B3;fill-opacity:0.6}
    .fil1 {fill:#B3B3B3}
    .fil2 {fill:black;fill-opacity:0.2}
    .fil3 {fill:black;fill-opacity:0.5}
  </style>
 </defs>
 <g>
  <path class="fil0" d="M785.084 168.942c20.528,0 37.17,16.642 37.17,37.17 0,20.528 -16.642,37.17 -37.17,37.17 -20.528,0 -37.17,-16.642 -37.17,-37.17 0,-20.528 16.642,-37.17 37.17,-37.17z"/>
  <circle class="fil1" cx="785.084" cy="206.112" r="33.57"/>
  <path class="fil2" d="M811.66 214.944c-2.781,12.107 -13.625,21.138 -26.576,21.138 -12.951,0 -23.793,-9.031 -26.575,-21.138 -0.174,-0.759 0.136,-1.511 0.795,-1.926 0.659,-0.415 1.471,-0.37 2.08,0.116 6.503,5.18 14.739,8.278 23.7,8.278 8.961,0 17.198,-3.098 23.701,-8.278 0.61,-0.486 1.421,-0.531 2.08,-0.116 0.66,0.415 0.97,1.167 0.795,1.926z"/>
  <path class="fil3" d="M794.428 189.571l-5.9 16.766c-0.152,0.432 -0.124,0.859 0.083,1.268l3.991 7.898c0.527,1.041 0.276,1.821 -0.759,2.344l-1.279 0.646c-1.047,0.53 -1.827,0.279 -2.347,-0.749l-4.001 -7.917c-0.207,-0.409 -0.535,-0.685 -0.974,-0.819l-17.017 -5.182c-0.687,-0.21 -1.146,-0.543 -1.38,-1.005 -0.438,-0.868 -0.058,-1.6 1.137,-2.204l1.356 -0.686c0.418,-0.211 0.843,-0.248 1.287,-0.118l14.845 4.521c0.46,0.14 0.949,-0.107 1.11,-0.56l5.193 -14.65c0.159,-0.435 0.447,-0.758 0.865,-0.97l1.376 -0.695c1.182,-0.597 1.984,-0.462 2.423,0.406 0.227,0.449 0.223,1.015 -0.009,1.706z"/>
 </g>
</svg>
