<?xml version="1.0" encoding="UTF-8"?>
<!DOCTYPE svg PUBLIC "-//W3C//DTD SVG 1.1//EN" "http://www.w3.org/Graphics/SVG/1.1/DTD/svg11.dtd">
<svg xml:space="preserve" viewBox="0 0 1098 612" width="1098px" height="612px" version="1.1" style="shape-rendering:geometricPrecision; fill-rule:evenodd; clip-rule:evenodd" xmlns="http://www.w3.org/2000/svg" xmlns:xlink="http://www.w3.org/1999/xlink">
 <defs>
  <style type="text/css">
    .str0 {stroke:#666666;stroke-width:2}
    .fil10 {fill:black}
    .fil9 {fill:black}
    .fil5 {fill:#1A1A1A}
    .fil18 {fill:#272727}
    .fil11 {fill:#2A2A2A}
    .fil13 {fill:#333333}
    .fil7 {fill:#333333}
    .fil12 {fill:#414141}
    .fil23 {fill:#484848}
    .fil15 {fill:#4B4B4B}
    .fil0 {fill:#4D4D4D}
    .fil14 {fill:#515151}
    .fil8 {fill:#E6E6E6}
    .fil21 {fill:black;fill-opacity:0.1}
    .fil17 {fill:black;fill-opacity:0.2}
    .fil25 {fill:black;fill-opacity:0.4}
    .fil22 {fill:#484848;fill-opacity:0.6}
    .fil16 {fill:#414141;fill-opacity:0.7}
    .fil1 {fill:url(#id0)}
    .fil20 {fill:url(#id1)}
    .fil24 {fill:url(#id2)}
    .fil2 {fill:url(#id3)}
    .fil3 {fill:url(#id4)}
    .fil4 {fill:url(#id5)}
    .fil6 {fill:url(#id6)}
    .fil19 {fill:url(#id7);fill-opacity:0.7}
  </style>
  <linearGradient id="id0" gradientUnits="userSpaceOnUse" x1="549" y1="608.769" x2="549" y2="14.654">
   <stop offset="0" style="stop-opacity:1; stop-color:#232323"/>
   <stop offset="1" style="stop-opacity:1; stop-color:#4D4D4D"/>
  </linearGradient>
  <linearGradient id="id1" gradientUnits="objectBoundingBox" x1="50%" y1="100%" x2="50%" y2="0%">
   <stop offset="0" style="stop-opacity:1; stop-color:#303030"/>
   <stop offset="0.6" style="stop-opacity:1; stop-color:#484848"/>
   <stop offset="1" style="stop-opacity:1; stop-color:#525252"/>
  </linearGradient>
  <linearGradient id="id2" gradientUnits="objectBoundingBox" xlink:href="#id1" x1="50%" y1="4.12889e-05%" x2="50%" y2="100%">
  </linearGradient>
  <linearGradient id="id3" gradientUnits="userSpaceOnUse" x1="549" y1="353.917" x2="549" y2="63.525">
   <stop offset="0" style="stop-opacity:1; stop-color:#666666"/>
   <stop offset="1" style="stop-opacity:1; stop-color:gray"/>
  </linearGradient>
  <linearGradient id="id4" gradientUnits="userSpaceOnUse" x1="549.002" y1="544.127" x2="549.002" y2="225.394">
   <stop offset="0" style="stop-opacity:1; stop-color:#1A1A1A"/>
   <stop offset="1" style="stop-opacity:1; stop-color:#2A2A2A"/>
  </linearGradient>
  <linearGradient id="id5" gradientUnits="userSpaceOnUse" x1="549.002" y1="544.73" x2="549.002" y2="62.628">
   <stop offset="0" style="stop-opacity:1; stop-color:black"/>
   <stop offset="1" style="stop-opacity:1; stop-color:#1A1A1A"/>
  </linearGradient>
  <linearGradient id="id6" gradientUnits="userSpaceOnUse" x1="827.362" y1="429.275" x2="827.362" y2="149.931">
   <stop offset="0" style="stop-opacity:1; stop-color:#4D4D4D"/>
   <stop offset="1" style="stop-opacity:1; stop-color:#333333"/>
  </linearGradient>
  <linearGradient id="id7" gradientUnits="objectBoundingBox" xlink:href="#id1" x1="50%" y1="100%" x2="50%" y2="0%">
  </linearGradient>
 </defs>
 <g>
  <g id="shell">
   <path class="fil0" d="M924.19 65.098c-25.021,-20.097 -65.45,-40.779 -96.454,-48.268 -10.372,-2.505 -74.852,-12.546 -74.714,-2.122 0.282,1.867 6.513,1.443 9.906,1.481 31.452,0.729 59.918,5.43 89.623,15.979 25.104,9.304 45.359,21.996 66.217,38.749 15.033,12.412 37.641,40.824 42.639,37.892 5.102,-5.606 -30.469,-38.122 -37.217,-43.711zm-750.38 0c25.021,-20.097 65.45,-40.779 96.454,-48.268 10.372,-2.505 74.852,-12.546 74.714,-2.122 -0.282,1.867 -6.513,1.443 -9.906,1.481 -31.452,0.729 -59.918,5.43 -89.623,15.979 -25.104,9.304 -45.359,21.996 -66.217,38.749 -15.033,12.412 -37.641,40.824 -42.639,37.892 -5.102,-5.606 30.469,-38.122 37.217,-43.711z"/>
   <path class="fil1" d="M549 43.601c-10.522,-0.086 -20.571,-0.573 -31.052,-1.482 -12.974,-1.308 -25.427,-3.138 -38.252,-5.472l-18.021 -3.621 -42.71 -9.452c-28.782,-5.883 -54.586,-9.227 -84.031,-8.897 -31.451,0.728 -60.88,5.43 -90.584,15.98 -25.104,9.303 -46.048,21.719 -66.905,38.473 -23.304,19.24 -42.35,40.266 -61.115,63.877 -71.822,92.349 -160.451,321.851 -68.539,429.284 12.18,13.759 25.828,23.56 42.336,31.516 19.425,9.106 40.269,14.465 61.755,14.949 19.943,0.261 37.719,-3.594 56.277,-10.728 13.468,-5.387 25.628,-11.723 38.179,-18.95 10.985,-6.499 21.527,-13.197 32.262,-20.114l37.568 -24.687c21.827,-13.888 42.637,-25.802 66.107,-36.763 27.02,-12.121 53.465,-21.496 81.984,-29.5 27.8,-7.4 55.881,-12.823 84.741,-12.977 28.86,0.154 56.941,5.577 84.741,12.977 28.519,8.004 54.964,17.379 81.984,29.5 23.47,10.961 44.28,22.875 66.107,36.763l37.568 24.687c10.735,6.917 21.277,13.615 32.262,20.114 12.551,7.227 24.711,13.563 38.179,18.95 18.558,7.134 36.334,10.989 56.277,10.728 21.486,-0.484 42.33,-5.843 61.755,-14.949 16.508,-7.956 30.156,-17.757 42.336,-31.516 91.912,-107.433 3.283,-336.935 -68.539,-429.284 -18.765,-23.611 -37.811,-44.637 -61.115,-63.877 -20.857,-16.754 -41.801,-29.17 -66.905,-38.473 -29.704,-10.55 -59.133,-15.252 -90.584,-15.98 -29.445,-0.33 -55.249,3.014 -84.031,8.897l-42.71 9.452 -18.021 3.621c-12.825,2.334 -25.278,4.164 -38.252,5.472 -10.481,0.909 -20.53,1.396 -31.052,1.482z"/>
   <path class="fil2" d="M1005.253 225.394c-7.668,-14.589 -16.85,-27.981 -28.006,-41.249 -27.221,-31.601 -61.183,-56.318 -98.818,-74.112 -36.981,-16.893 -74.252,-26 -114.23,-32.722 -71.91,-11.123 -142.538,-13.479 -215.199,-13.786 -72.659,0.307 -143.293,2.662 -215.2,13.786 -39.975,6.719 -77.252,15.83 -114.229,32.722 -37.697,17.824 -71.538,42.483 -98.82,74.112 -11.165,13.297 -20.338,26.667 -28.003,41.249 -3.165,9.701 7.999,89.559 23.315,94.958 126.943,44.749 738.934,44.754 865.874,0 15.316,-5.399 26.481,-85.257 23.316,-94.958z"/>
   <path class="fil3" d="M796.818 544.126l-14.987 -9.849c-21.828,-13.891 -42.636,-25.799 -66.107,-36.763 -27.018,-12.12 -53.466,-21.497 -81.984,-29.5 -27.799,-7.4 -55.881,-12.823 -84.74,-12.977 -28.86,0.154 -56.941,5.577 -84.741,12.977 -28.519,8.004 -54.964,17.379 -81.984,29.5 -23.47,10.961 -44.28,22.875 -66.107,36.763l-14.989 9.85c-40.676,-12.057 -79.036,-23.711 -117.398,-41.772 -19.139,-9.311 -36.35,-19.393 -52.929,-32.817 -19.578,-16.389 -32.942,-33.373 -44.243,-56.454 -10.837,-23.069 -16.341,-45.78 -18.239,-71.151 -1.948,-31.777 2.213,-61.467 13.099,-91.397 3.363,-8.865 7.096,-17.184 11.279,-25.142 -3.165,9.701 7.998,17.557 23.315,22.957 15.318,5.399 28.502,6.39 33.017,-1.786 21.525,-19.765 261.968,16.158 259.467,35.137 -1.503,11.402 7.99,14.251 14.236,11.88 33.453,-12.7 77.7,-18.135 126.217,-18.135 39.748,0 76.632,3.649 107.061,11.95 3.534,0.964 9.053,-0.832 8.367,-6.056 53.185,17.312 234.04,-81.102 284.492,-34.776 4.515,8.176 17.699,7.186 33.017,1.786 15.317,-5.4 26.481,-13.256 23.316,-22.957 4.185,7.966 7.918,16.287 11.277,25.142 10.875,29.965 15.057,59.585 13.099,91.397 -1.918,25.406 -7.384,48.046 -18.239,71.151 -11.296,23.072 -24.669,40.074 -44.243,56.454 -16.59,13.432 -33.781,23.496 -52.929,32.817 -38.375,18.061 -76.709,29.71 -117.4,41.771z"/>
   <path class="fil4" d="M549 64.421c-36.299,0.153 -72.103,0.82 -107.833,2.837 -35.693,2.015 -71.285,5.38 -107.177,10.931 -19.964,3.355 -39.293,7.316 -58.19,12.533 -18.882,5.212 -37.389,11.693 -55.816,20.109 -19.112,9.036 -37.257,19.847 -54.018,32.416 -16.196,12.147 -31.138,25.958 -44.502,41.444 -8.597,10.24 -16.035,20.553 -22.48,31.397 -6.448,10.847 -11.933,22.262 -16.675,34.765 -5.418,14.9 -9.165,29.743 -11.313,44.815 -2.147,15.062 -2.698,30.358 -1.732,46.172 0.945,12.635 2.79,24.633 5.746,36.314 2.954,11.683 7.021,23.076 12.412,34.55 5.608,11.454 11.729,21.399 18.87,30.512 7.162,9.13 15.397,17.479 25.137,25.632 8.248,6.68 16.661,12.532 25.395,17.874 8.739,5.345 17.802,10.181 27.348,14.824 19.14,9.012 38.288,16.412 57.728,23.064 19.475,6.664 39.216,12.571 59.532,18.593l0.797 0.234 -1.965 1.292c-20.126,-5.967 -39.689,-11.829 -58.94,-18.417 -19.497,-6.671 -38.709,-14.097 -57.926,-23.145 -9.594,-4.666 -18.714,-9.533 -27.509,-14.911 -8.797,-5.38 -17.287,-11.289 -25.613,-18.031 -9.838,-8.233 -18.117,-16.62 -25.356,-25.849 -7.221,-9.213 -13.448,-19.322 -19.115,-30.899 -5.448,-11.591 -9.56,-23.106 -12.54,-34.888 -2.98,-11.782 -4.84,-23.853 -5.791,-36.589 -0.975,-15.932 -0.42,-31.399 1.744,-46.584 2.166,-15.196 5.942,-30.161 11.408,-45.186 4.781,-12.609 10.314,-24.126 16.811,-35.057 6.499,-10.934 13.967,-21.294 22.624,-31.605 13.446,-15.581 28.529,-29.531 44.829,-41.755 16.866,-12.65 35.086,-23.508 54.298,-32.592 18.519,-8.457 37.167,-14.992 56.134,-20.229 18.977,-5.239 38.321,-9.204 58.331,-12.567 35.978,-5.563 71.687,-8.943 107.416,-10.96 35.725,-2.017 71.579,-2.684 107.937,-2.837 36.358,0.153 72.203,0.82 107.928,2.837 35.728,2.017 71.438,5.397 107.416,10.96 20.01,3.363 39.354,7.328 58.33,12.567 18.967,5.237 37.616,11.772 56.135,20.229 19.212,9.084 37.431,19.942 54.297,32.592 16.301,12.224 31.384,26.174 44.829,41.755 8.658,10.311 16.126,20.671 22.625,31.605 6.497,10.931 12.03,22.448 16.811,35.057 5.465,15.025 9.242,29.99 11.408,45.186 2.164,15.185 2.719,30.652 1.744,46.584 -0.952,12.736 -2.811,24.807 -5.791,36.589 -2.98,11.782 -7.093,23.297 -12.54,34.888 -5.667,11.577 -11.895,21.686 -19.115,30.899 -7.239,9.229 -15.518,17.616 -25.357,25.849 -8.325,6.742 -16.816,12.651 -25.612,18.031 -8.794,5.378 -17.916,10.245 -27.51,14.911 -19.216,9.048 -38.428,16.474 -57.925,23.145 -19.251,6.588 -38.814,12.45 -58.941,18.418l-1.966 -1.292 0.798 -0.235c20.317,-6.022 40.057,-11.929 59.532,-18.593 19.44,-6.652 38.589,-14.052 57.729,-23.064 9.546,-4.643 18.609,-9.479 27.348,-14.824 8.734,-5.342 17.147,-11.194 25.395,-17.874 9.739,-8.153 17.974,-16.502 25.137,-25.632 7.141,-9.113 13.262,-19.058 18.87,-30.512 5.391,-11.474 9.458,-22.867 12.412,-34.55 2.956,-11.681 4.801,-23.679 5.746,-36.314 0.966,-15.814 0.415,-31.11 -1.733,-46.172 -2.147,-15.072 -5.894,-29.915 -11.312,-44.815 -4.742,-12.503 -10.227,-23.918 -16.675,-34.765 -6.446,-10.844 -13.883,-21.157 -22.481,-31.397 -13.364,-15.486 -28.305,-29.297 -44.502,-41.444 -16.76,-12.569 -34.905,-23.38 -54.017,-32.416 -18.428,-8.416 -36.935,-14.897 -55.817,-20.109 -18.896,-5.217 -38.225,-9.178 -58.19,-12.533 -35.891,-5.551 -71.483,-8.916 -107.176,-10.931 -35.73,-2.017 -71.537,-2.684 -107.836,-2.837z"/>
   <path class="fil5" d="M662.626 181.856l-16.968 -56.182c-3.889,-12.879 -15.406,-21.444 -28.877,-21.444l-135.563 0c-13.471,0 -24.988,8.567 -28.877,21.444l-16.97 56.182 19.875 -52.266c4.449,-11.699 13.437,-19.954 25.971,-19.954l135.564 0c12.534,0 21.523,8.255 25.971,19.954l19.874 52.266z"/>
   <path class="fil6 str0" d="M720.255 180.99c-49.176,48.494 -41.089,136.435 18.065,196.421 59.154,59.985 146.973,69.299 196.149,20.805 49.176,-48.494 41.089,-136.436 -18.064,-196.421 -59.155,-59.986 -146.974,-69.3 -196.15,-20.805zm-342.51 0c49.176,48.494 41.089,136.435 -18.065,196.421 -59.154,59.985 -146.973,69.299 -196.149,20.805 -49.177,-48.494 -41.089,-136.436 18.064,-196.421 59.155,-59.986 146.974,-69.3 196.15,-20.805z"/>
   <path class="fil0" d="M609.228 371.005c0,14.143 -17.722,26.114 -42.153,30.141 -3.742,6.052 -10.437,10.086 -18.076,10.086 -7.638,0 -14.334,-4.034 -18.076,-10.086 -24.43,-4.027 -42.151,-15.998 -42.151,-30.141l120.456 0z"/>
   <path class="fil7" d="M548.999 339.415c33.263,0 60.228,14.144 60.229,31.59 -18.24,6.931 -38.663,10.815 -60.229,10.815 -21.565,0 -41.988,-3.884 -60.227,-10.815 0,-17.446 26.964,-31.59 60.227,-31.59z"/>
   <path class="fil8" d="M526.403 138.318c-0.036,0.528 -0.056,1.06 -0.056,1.597 0,0.595 0.022,1.185 0.067,1.768l1.071 1.085c-0.242,0.066 -0.478,0.128 -0.709,0.189l-0.262 -0.265c0.013,0.107 0.027,0.215 0.042,0.322 -3.807,0.984 -5.972,1.234 -7.147,1.126 -0.843,-0.078 -1.046,-0.862 -0.795,-1.337 0.088,-0.175 0.204,-0.359 0.34,-0.562 1.232,-1.767 3.898,-3.722 7.638,-5.684 -0.042,0.283 -0.078,0.57 -0.109,0.856l4.368 4.416c-0.264,0.077 -0.526,0.153 -0.785,0.227 -1.233,-1.256 -2.485,-2.534 -3.663,-3.738zm5.803 9.236l15.085 15.29c0.685,0.062 1.379,0.095 2.08,0.095 0.457,0 0.911,-0.016 1.361,-0.041 -4.775,-4.852 -11.174,-11.337 -12.912,-13.022 -0.611,-0.591 -1.712,-1.692 -3.076,-3.07 0.261,-0.079 0.525,-0.16 0.79,-0.241l16.084 16.264c0.974,-0.094 1.93,-0.249 2.865,-0.46 -4.88,-4.894 -12.479,-12.504 -14.386,-14.353 -0.475,-0.459 -1.242,-1.226 -2.194,-2.19 0.307,-0.097 0.617,-0.196 0.927,-0.295l16.511 16.624c0.837,-0.223 1.655,-0.492 2.451,-0.805 -4.842,-4.785 -13.391,-13.23 -15.418,-15.194 -0.323,-0.314 -0.781,-0.771 -1.34,-1.337 0.358,-0.117 0.718,-0.235 1.081,-0.354l16.485 16.547c0.729,-0.319 1.438,-0.675 2.126,-1.065 -4.772,-4.653 -13.965,-13.615 -16.065,-15.652 -0.145,-0.14 -0.315,-0.308 -0.509,-0.501 0.411,-0.136 0.822,-0.273 1.236,-0.411l16.096 16.113c0.641,-0.397 1.26,-0.825 1.856,-1.28 -4.542,-4.369 -13.406,-12.894 -16.061,-15.462l0.522 -0.174 0.839 -0.28 15.403 15.359c0.559,-0.463 1.097,-0.953 1.61,-1.467 -4.211,-3.993 -11.903,-11.291 -15.238,-14.483 0.494,-0.165 0.989,-0.329 1.484,-0.492l14.395 14.307c0.477,-0.518 0.931,-1.058 1.36,-1.617 -3.978,-3.725 -10.535,-9.871 -14.091,-13.238 0.541,-0.178 1.082,-0.354 1.62,-0.529l13.073 12.945c0.396,-0.566 0.768,-1.151 1.112,-1.753 -3.715,-3.429 -9.139,-8.445 -12.62,-11.698 0.582,-0.186 1.161,-0.37 1.736,-0.551l11.416 11.264 -0.016 0.031c5.696,-2.65 10.075,-5.536 12.636,-8.398 2.325,-2.579 3.285,-5.214 2.859,-7.821 -0.272,-1.714 -1.211,-3.1 -2.704,-4.001 -2.859,-1.729 -7.661,-1.48 -14.47,0.111 -1.393,-1.239 -2.475,-2.218 -3.021,-2.748 -1.408,-1.367 -5.011,-5.471 -8.414,-9.415 -0.976,-0.33 -1.982,-0.596 -3.011,-0.795l13.516 13.18c-0.8,0.196 -1.626,0.41 -2.479,0.639 -0.839,-0.761 -1.492,-1.363 -1.879,-1.738 -1.775,-1.723 -7.062,-7.757 -11.057,-12.366 -0.818,-0.088 -1.648,-0.135 -2.489,-0.135 -0.131,0 -0.261,0.003 -0.391,0.006l14.834 14.501c-0.756,0.209 -1.532,0.43 -2.329,0.663 -0.354,-0.33 -0.643,-0.604 -0.855,-0.809 -2.034,-1.968 -8.791,-9.646 -12.859,-14.304 -0.92,0.063 -1.825,0.181 -2.712,0.348l15.366 15.078c-0.704,0.21 -1.424,0.428 -2.159,0.654 -2.366,-2.314 -10.293,-11.262 -14.075,-15.551 -0.866,0.199 -1.713,0.448 -2.539,0.742l15.429 15.177c-0.643,0.201 -1.297,0.407 -1.962,0.619 -3.304,-3.433 -11.06,-12.113 -14.123,-15.552 -0.799,0.312 -1.577,0.669 -2.33,1.065l15.115 14.915c-0.582,0.188 -1.173,0.379 -1.773,0.575 -3.865,-4.073 -11.386,-12.406 -13.893,-15.19 -0.725,0.407 -1.426,0.851 -2.1,1.331l14.492 14.35c-0.528,0.173 -1.062,0.349 -1.601,0.528 -4.164,-4.394 -11.2,-12.107 -13.389,-14.512 -0.647,0.49 -1.268,1.012 -1.86,1.564l13.584 13.5c-0.437,0.144 -0.876,0.291 -1.32,0.439l-0.1 0.033c-4.169,-4.393 -10.421,-11.163 -12.613,-13.541 -0.57,0.563 -1.113,1.155 -1.623,1.774l12.411 12.375c-0.425,0.141 -0.848,0.28 -1.268,0.42 -3.927,-4.123 -9.217,-9.779 -11.553,-12.281 -0.49,0.632 -0.949,1.291 -1.373,1.974l10.947 10.957c-0.383,0.125 -0.764,0.249 -1.143,0.373 -3.492,-3.647 -7.767,-8.166 -10.173,-10.716 -0.106,0.182 -0.209,0.365 -0.31,0.551 -6.182,2.652 -12.173,6.051 -14.917,9.999 -2.23,3.207 -1.841,5.95 -1.115,7.685 1.822,4.408 8.043,3.623 13.905,2.286 0.352,-0.081 0.71,-0.167 1.073,-0.256 0.875,2.13 2.061,4.099 3.5,5.853 -3.588,0.324 -6.967,0.421 -9.989,0.266 -1.619,-0.088 -2.994,1.172 -3.053,2.791 -0.058,1.608 1.212,2.935 2.811,3.013 1.056,0.048 2.141,0.077 3.255,0.077 4.01,0 8.388,-0.338 12.95,-0.991 1.574,0.945 3.269,1.707 5.058,2.256 1.21,0.372 2.462,0.646 3.749,0.815 -4.364,-4.488 -9.305,-9.547 -10.807,-11.004 -0.744,-0.72 -2.219,-2.19 -4.013,-3.992 0.224,-0.063 0.449,-0.126 0.676,-0.191zm40.021 -4.864c0.035,-0.29 0.064,-0.582 0.089,-0.875 -1.914,-1.705 -3.915,-3.492 -5.724,-5.117 0.715,-0.191 1.413,-0.37 2.095,-0.537l3.705 3.622c-0.004,-0.665 -0.036,-1.324 -0.095,-1.975 -0.753,-0.665 -1.502,-1.327 -2.231,-1.972 5.167,-1.17 7.639,-1.142 8.782,-0.95 0.562,0.097 0.891,0.679 0.707,1.211 -0.271,0.785 -0.892,1.56 -1.318,2.035 -1.337,1.491 -3.388,3.034 -6.01,4.558zm-7.012 -5.617l6.851 6.724 -0.312 1.526c-2.753,-2.481 -5.906,-5.327 -8.503,-7.69 0.664,-0.194 1.319,-0.381 1.964,-0.56zm-3.396 0.984l9.373 9.219 -0.445 1.204c-3.334,-3.04 -7.622,-6.955 -10.774,-9.861 0.621,-0.192 1.237,-0.38 1.846,-0.562zm-33.512 -7.45l9.16 9.194c-0.338,0.107 -0.673,0.214 -1.006,0.319 -2.896,-3.001 -6.168,-6.42 -8.451,-8.809l0.297 -0.704zm-1.135 3.185l6.995 7.044c-0.296,0.091 -0.591,0.181 -0.883,0.27 -2.149,-2.209 -4.425,-4.561 -6.316,-6.518l0.204 -0.796zm33.648 -13.855c5.842,-0.969 11.138,-1.435 15.159,-1.282 1.609,0.058 2.859,1.406 2.791,3.014 -0.058,1.618 -1.405,2.868 -3.014,2.8 -2.484,-0.096 -5.52,0.071 -8.902,0.467 0.794,0.925 1.515,1.914 2.156,2.959l-8.195 -7.962 0.005 0.004zm81.92 50.645c-1.015,0 -1.835,0.82 -1.835,1.834l0 10.446 -10.498 -11.673c-0.51,-0.569 -1.311,-0.762 -2.022,-0.485 -0.71,0.272 -1.175,0.957 -1.175,1.712l0 15.239c0,1.015 0.821,1.835 1.835,1.835 1.014,0 1.834,-0.82 1.834,-1.835l0 -10.445 10.498 11.673c0.355,0.394 0.853,0.607 1.363,0.607 0.219,0 0.446,-0.039 0.659,-0.122 0.71,-0.272 1.175,-0.956 1.175,-1.713l0 -15.239c0,-1.014 -0.82,-1.834 -1.834,-1.834zm-22.158 11.667c-0.123,-0.117 -0.051,-0.33 0.123,-0.343 3.404,-0.213 4.418,-2.765 4.593,-4.935 0,-0.007 0,-0.013 0,-0.02 0.11,-1.537 -0.491,-3.171 -1.602,-4.366 -0.866,-0.931 -2.448,-2.035 -5.097,-2.035 -1.964,0 -4.174,0.032 -6.053,0.09 -3.088,0.096 -3.308,0.174 -3.598,0.284 -0.737,0.265 -1.228,0.963 -1.228,1.744l0 14.884c0,1.059 0.885,1.912 1.951,1.861 1.001,-0.045 1.776,-0.911 1.776,-1.912l0.001 -13.089c1.634,-0.065 4.341,-0.135 7.151,-0.135 1.046,0 1.841,0.284 2.364,0.846 0.53,0.569 0.633,1.24 0.613,1.557 -0.045,0.575 -0.199,2.274 -3.249,2.274l-1.595 0c-0.821,0 -1.583,0.465 -1.912,1.214 -0.349,0.795 -0.162,1.712 0.471,2.3l7.016 6.576c0.362,0.336 0.82,0.504 1.272,0.504 0.498,0 0.996,-0.2 1.364,-0.587 0.704,-0.75 0.665,-1.932 -0.084,-2.636l-4.277 -4.076zm-16.647 -12.501c-1.015,0 -1.835,0.821 -1.835,1.835l0 11.331c0,1.75 -2.494,3.288 -5.343,3.288 -2.841,0 -5.342,-1.538 -5.342,-3.288l0 -11.331c0,-1.014 -0.82,-1.835 -1.835,-1.835 -1.014,0 -1.834,0.821 -1.834,1.835l0 11.331c0,1.945 1.047,3.811 2.868,5.11 1.66,1.188 3.844,1.841 6.137,1.841 2.294,0 4.47,-0.653 6.137,-1.841 1.822,-1.299 2.868,-3.165 2.868,-5.11l0 -11.331c0.013,-1.014 -0.807,-1.835 -1.821,-1.835zm-19.303 0.802l-12.397 0c-1.027,0 -1.867,0.833 -1.867,1.866 0,1.028 0.834,1.867 1.867,1.867l4.335 0 0 13.372c0,1.028 0.833,1.868 1.867,1.868 1.033,0 1.867,-0.834 1.867,-1.868l0 -13.372 4.335 0c1.027,0 1.866,-0.833 1.866,-1.867 -0.006,-1.026 -0.839,-1.866 -1.873,-1.866zm-16.227 2.842c-0.963,-1.97 -2.836,-3.682 -4.884,-3.682 -2.048,0 -3.921,1.712 -4.884,3.682 -1.679,3.423 -3.269,7.861 -4.858,13.572 -0.278,1.008 0.311,2.048 1.311,2.326 0.168,0.045 0.343,0.071 0.511,0.071 0.827,0 1.589,-0.549 1.822,-1.382 0.349,-1.26 0.704,-2.449 1.052,-3.579l10.097 0c0.35,1.13 0.698,2.319 1.054,3.579 0.277,1.007 1.324,1.595 2.325,1.311 1.008,-0.278 1.596,-1.324 1.311,-2.326 -1.595,-5.711 -3.184,-10.149 -4.857,-13.572zm-8.695 7.28c0.768,-2.144 1.537,-4.012 2.325,-5.614 0.336,-0.684 0.879,-1.563 1.486,-1.563 0.614,0 1.156,0.879 1.492,1.563 0.788,1.609 1.557,3.47 2.326,5.614l-7.629 0 0 0zm-6.144 2.662c-0.246,-3.03 -2.694,-5.336 -5.633,-5.336 -0.065,0 -0.123,0 -0.188,0l-1.699 0c-0.013,0 -0.025,0 -0.032,0l-4.128 0 -0.077 0c-1.034,0.038 -1.906,-0.788 -1.996,-1.893 -0.058,-0.859 0.361,-1.718 0.904,-1.841l0.103 -0.026c2.429,-0.691 7.61,-0.51 9.425,0.149 0.97,0.349 2.036,-0.155 2.384,-1.125 0.349,-0.968 -0.155,-2.035 -1.124,-2.383 -2.674,-0.963 -8.643,-1.079 -11.667,-0.233 -2.332,0.556 -3.947,3.011 -3.746,5.737l0 0.019c0.245,3.03 2.693,5.337 5.633,5.337 0.065,0 0.123,0 0.187,0l1.699 0c0.013,0 0.026,0 0.032,0l4.129 0 0.077 0c1.033,-0.04 1.905,0.787 1.996,1.892 0.058,0.86 -0.362,1.719 -0.904,1.841l-0.104 0.026c-2.429,0.691 -7.61,0.51 -9.425,-0.148 -0.969,-0.35 -2.034,0.154 -2.383,1.123 -0.35,0.969 0.154,2.035 1.123,2.384 1.466,0.53 3.928,0.801 6.35,0.801 1.99,0 3.954,-0.188 5.317,-0.569 2.332,-0.555 3.947,-3.01 3.747,-5.736l0 -0.019zm-31.906 -9.942c-0.962,-1.97 -2.836,-3.682 -4.884,-3.682 -2.047,0 -3.921,1.712 -4.883,3.682 -1.68,3.423 -3.269,7.861 -4.859,13.572 -0.277,1.008 0.311,2.048 1.312,2.326 0.168,0.045 0.342,0.071 0.51,0.071 0.827,0 1.589,-0.549 1.822,-1.382 0.349,-1.26 0.704,-2.449 1.053,-3.579l10.09 0c0.349,1.13 0.698,2.319 1.053,3.579 0.278,1.007 1.325,1.595 2.326,1.311 1.008,-0.278 1.596,-1.324 1.312,-2.326 -1.59,-5.711 -3.179,-10.149 -4.852,-13.572zm-8.702 7.274c0.769,-2.144 1.538,-4.012 2.326,-5.614 0.336,-0.685 0.879,-1.563 1.486,-1.563 0.613,0 1.157,0.878 1.492,1.563 0.788,1.608 1.557,3.47 2.326,5.614l-7.63 0 0 0zm-6.415 -0.187c0,-0.052 0,-0.104 -0.006,-0.149 0,-0.013 0,-0.026 -0.006,-0.039 -0.007,-0.052 -0.013,-0.097 -0.02,-0.148 0,-0.013 -0.006,-0.026 -0.006,-0.039 -0.013,-0.046 -0.019,-0.097 -0.039,-0.142 -0.006,-0.013 -0.006,-0.027 -0.013,-0.039 -0.013,-0.045 -0.032,-0.09 -0.051,-0.136 -0.007,-0.013 -0.013,-0.025 -0.013,-0.038 -0.019,-0.046 -0.039,-0.085 -0.059,-0.13 -0.006,-0.012 -0.013,-0.026 -0.019,-0.039 -0.026,-0.038 -0.045,-0.077 -0.071,-0.116 -0.007,-0.013 -0.013,-0.026 -0.026,-0.032 -0.026,-0.039 -0.052,-0.071 -0.084,-0.11 -0.006,-0.013 -0.02,-0.019 -0.026,-0.032 -0.032,-0.032 -0.058,-0.072 -0.09,-0.104 -0.013,-0.013 -0.02,-0.019 -0.033,-0.032 -0.032,-0.033 -0.064,-0.065 -0.096,-0.091 -0.014,-0.006 -0.026,-0.019 -0.033,-0.025 -0.032,-0.026 -0.071,-0.052 -0.11,-0.078 -0.013,-0.006 -0.026,-0.019 -0.038,-0.025 -0.039,-0.026 -0.071,-0.045 -0.11,-0.072 -0.013,-0.006 -0.032,-0.013 -0.045,-0.026 -0.039,-0.019 -0.078,-0.038 -0.116,-0.057 -0.02,-0.007 -0.04,-0.013 -0.053,-0.02 -0.038,-0.013 -0.077,-0.033 -0.116,-0.039 -0.019,-0.006 -0.038,-0.013 -0.064,-0.019 -0.039,-0.013 -0.078,-0.019 -0.11,-0.026 -0.026,-0.006 -0.046,-0.006 -0.071,-0.013 -0.039,-0.006 -0.071,-0.013 -0.11,-0.019 -0.026,0 -0.052,-0.007 -0.077,-0.007 -0.026,0 -0.046,-0.006 -0.071,-0.006 -0.013,0 -0.026,0 -0.039,0 -0.006,0 -0.019,0 -0.026,0l-7.055 0c-1.026,0 -1.866,0.833 -1.866,1.867 0,1.027 0.833,1.867 1.866,1.867l4.936 0c-0.852,3.462 -3.611,4.038 -5.529,4.038 -3.805,0 -6.467,-2.882 -6.467,-7.003 0,-3.011 3.081,-5.75 6.467,-5.75 2.073,0 3.611,0.472 5.303,1.621 0.853,0.582 2.009,0.356 2.591,-0.49 0.581,-0.853 0.355,-2.01 -0.491,-2.591 -2.307,-1.57 -4.587,-2.267 -7.397,-2.267 -2.642,0 -5.168,0.995 -7.125,2.81 -1.951,1.802 -3.069,4.238 -3.069,6.667 0,3.126 1.04,5.833 3.01,7.817 1.867,1.879 4.419,2.913 7.184,2.913 2.597,0 4.878,-0.75 6.602,-2.164 1.434,-1.176 2.765,-3.411 2.907,-7.403 0,-0.019 0,-0.033 0,-0.052 0,-0.007 0,-0.013 0,-0.013 -0.02,0 -0.02,-0.007 -0.02,-0.019zm-21.537 5.31l-8.754 0 0 -4.212 6.125 0c1.027,0 1.866,-0.834 1.866,-1.868 0,-1.026 -0.833,-1.866 -1.866,-1.866l-6.125 0 0 -3.573 8.754 0c1.027,0 1.867,-0.833 1.867,-1.867 0,-1.026 -0.834,-1.867 -1.867,-1.867l-10.62 0.001c-1.027,0 -1.867,0.833 -1.867,1.866l0 15.24c0,1.027 0.833,1.867 1.867,1.867l10.62 0c1.027,0 1.867,-0.834 1.867,-1.867 -0.007,-1.021 -0.84,-1.854 -1.867,-1.854zm-14.09 -2.455c-0.245,-3.03 -2.693,-5.336 -5.633,-5.336 -0.064,0 -0.122,0 -0.187,0l-1.699 0c-0.013,0 -0.026,0 -0.032,0l-4.128 0 -0.078 0c-1.033,0.038 -1.905,-0.788 -1.996,-1.893 -0.058,-0.859 0.362,-1.718 0.905,-1.841l0.103 -0.026c2.429,-0.691 7.61,-0.51 9.426,0.149 0.969,0.349 2.034,-0.155 2.383,-1.125 0.349,-0.968 -0.155,-2.035 -1.124,-2.383 -2.674,-0.963 -8.643,-1.079 -11.667,-0.233 -2.332,0.556 -3.947,3.011 -3.746,5.737l0 0.019c0.245,3.03 2.694,5.337 5.633,5.337 0.064,0 0.122,0 0.187,0l1.699 0c0.013,0 0.026,0 0.032,0l4.128 0 0.078 0c1.033,-0.04 1.906,0.787 1.995,1.892 0.059,0.86 -0.361,1.719 -0.904,1.841l-0.103 0.026c-2.429,0.691 -7.61,0.51 -9.425,-0.148 -0.969,-0.35 -2.035,0.154 -2.384,1.123 -0.349,0.969 0.155,2.035 1.124,2.384 1.467,0.53 3.928,0.801 6.351,0.801 1.989,0 3.953,-0.188 5.316,-0.569 2.332,-0.555 3.947,-3.01 3.746,-5.736l0 -0.019z"/>
  </g>
  <g id="holes">
   <circle class="fil9" cx="270.638" cy="289.603" r="106.524"/>
   <circle class="fil9" cx="700.92" cy="263.142" r="40.77"/>
   <circle class="fil9" cx="785.084" cy="206.112" r="40.77"/>
   <circle class="fil9" cx="879.932" cy="172.527" r="40.77"/>
   <circle class="fil9" cx="738.862" cy="382.835" r="49.014"/>
   <circle class="fil9" cx="840.562" cy="314.383" r="49.014"/>
   <circle class="fil9" cx="954.779" cy="273.703" r="49.014"/>
   <path class="fil10" d="M548.999 349.315c12.611,0 24.107,2.132 32.496,5.579 9.349,3.841 15.133,9.516 15.133,16.111 0,6.595 -5.784,12.27 -15.133,16.111 -8.389,3.447 -19.885,5.579 -32.496,5.579 -12.611,0 -24.107,-2.132 -32.496,-5.579 -9.348,-3.841 -15.132,-9.516 -15.132,-16.111 0,-6.595 5.784,-12.27 15.132,-16.111 8.389,-3.447 19.885,-5.579 32.496,-5.579z"/>
  </g>
  <g id="dpad">
   <circle class="fil11" cx="270.638" cy="289.603" r="101.124"/>
   <path class="fil12" d="M293.836 206.551l0 32.355c0,15.187 12.312,27.499 27.499,27.499l32.354 0c2.576,0 4.744,1.753 5.282,4.272 1.302,6.102 1.991,12.434 1.991,18.926 0,6.491 -0.689,12.823 -1.991,18.926 -0.538,2.519 -2.705,4.272 -5.282,4.272l-32.354 0c-15.187,0 -27.499,12.311 -27.499,27.499l0 32.354c0,2.576 -1.753,4.744 -4.272,5.282 -6.103,1.302 -12.434,1.991 -18.926,1.991 -6.492,0 -12.823,-0.689 -18.926,-1.991 -2.519,-0.538 -4.272,-2.705 -4.272,-5.282l0 -32.354c0,-15.188 -12.312,-27.499 -27.499,-27.499l-32.355 0c-2.575,0 -4.744,-1.753 -5.281,-4.272 -1.303,-6.103 -1.991,-12.434 -1.991,-18.926 0,-6.492 0.688,-12.824 1.991,-18.926 0.537,-2.519 2.705,-4.272 5.281,-4.272l32.355 0c15.187,0 27.499,-12.312 27.499,-27.499l0 -32.355c0,-2.575 1.753,-4.744 4.272,-5.281 6.103,-1.303 12.434,-1.991 18.926,-1.991 6.491,0 12.823,0.688 18.926,1.991 2.519,0.537 4.272,2.705 4.272,5.281zm-23.199 64.552c10.216,0 18.499,8.283 18.499,18.5 0,10.217 -8.283,18.499 -18.499,18.499 -10.218,0 -18.501,-8.282 -18.501,-18.499 0,-10.217 8.283,-18.5 18.501,-18.5zm91.371 47.097c-9.338,29.863 -32.908,53.435 -62.772,62.773l0 -40.668c0,-12.208 9.896,-22.105 22.104,-22.105l40.668 0zm-119.968 62.773c-29.863,-9.338 -53.436,-32.908 -62.774,-62.773l40.67 0c12.208,0 22.104,9.897 22.104,22.105l0 40.668zm0 -182.741l0 40.669c0,12.207 -9.896,22.104 -22.104,22.104l-40.67 0c9.339,-29.863 32.91,-53.435 62.774,-62.773zm119.968 62.773l-40.668 0c-12.208,0 -22.104,-9.897 -22.104,-22.104l0 -40.669c29.863,9.338 53.434,32.91 62.772,62.773z"/>
   <path class="fil13" d="M208.639 348.527l5.994 -12.221c0.336,-0.683 0.935,-1.132 1.687,-1.256 0.748,-0.124 1.465,0.106 2.001,0.642l6.228 6.228c0.536,0.536 0.765,1.253 0.641,2 -0.124,0.753 -0.571,1.352 -1.256,1.688l-12.221 5.994c-0.894,0.438 -1.933,0.267 -2.637,-0.437 -0.704,-0.704 -0.875,-1.745 -0.437,-2.638zm118.004 -12.221l5.993 12.221c0.439,0.893 0.268,1.934 -0.436,2.638 -0.705,0.705 -1.744,0.875 -2.638,0.437l-12.221 -5.994c-0.683,-0.336 -1.132,-0.935 -1.256,-1.688 -0.124,-0.747 0.106,-1.464 0.642,-2l6.227 -6.228c0.536,-0.536 1.254,-0.766 2.002,-0.642 0.751,0.124 1.352,0.573 1.687,1.256zm-9.302 -102.708l12.221 -5.994c0.893,-0.439 1.934,-0.267 2.638,0.437 0.704,0.704 0.875,1.743 0.436,2.637l-5.993 12.221c-0.335,0.684 -0.936,1.132 -1.687,1.256 -0.748,0.124 -1.466,-0.106 -2.002,-0.641l-6.227 -6.228c-0.536,-0.536 -0.766,-1.253 -0.642,-2.001 0.124,-0.752 0.573,-1.352 1.256,-1.687zm-105.628 -5.994l12.221 5.994c0.685,0.336 1.132,0.935 1.256,1.687 0.124,0.748 -0.105,1.465 -0.641,2.001l-6.228 6.228c-0.536,0.536 -1.253,0.765 -2.001,0.641 -0.752,-0.124 -1.351,-0.572 -1.687,-1.256l-5.994 -12.221c-0.439,-0.893 -0.268,-1.933 0.437,-2.637 0.703,-0.704 1.744,-0.875 2.637,-0.437z"/>
   <path class="fil14" d="M215.527 336.744l-5.994 12.221c-0.251,0.511 -0.153,1.09 0.249,1.493 0.403,0.403 0.982,0.501 1.494,0.249l12.221 -5.993c0.391,-0.192 0.638,-0.524 0.709,-0.954 0.072,-0.435 -0.052,-0.822 -0.364,-1.134l-6.228 -6.228c-0.312,-0.312 -0.698,-0.435 -1.134,-0.363 -0.43,0.07 -0.761,0.318 -0.953,0.709zm7.97 -102.252l-12.221 -5.994c-0.512,-0.251 -1.091,-0.153 -1.494,0.249 -0.402,0.403 -0.5,0.982 -0.249,1.494l5.994 12.221c0.192,0.39 0.523,0.638 0.953,0.709 0.436,0.072 0.822,-0.052 1.134,-0.364l6.228 -6.228c0.312,-0.312 0.436,-0.698 0.364,-1.134 -0.071,-0.43 -0.318,-0.761 -0.709,-0.953zm106.503 -5.994l-12.221 5.994c-0.391,0.192 -0.639,0.523 -0.709,0.953 -0.072,0.436 0.051,0.822 0.364,1.134l6.227 6.228c0.312,0.312 0.699,0.436 1.134,0.364 0.43,-0.071 0.763,-0.318 0.954,-0.709l5.993 -12.221c0.252,-0.512 0.154,-1.091 -0.249,-1.494 -0.402,-0.402 -0.982,-0.5 -1.493,-0.249zm1.742 120.467l-5.993 -12.221c-0.191,-0.391 -0.524,-0.639 -0.954,-0.709 -0.435,-0.072 -0.822,0.051 -1.134,0.363l-6.227 6.228c-0.313,0.313 -0.436,0.698 -0.364,1.134 0.07,0.43 0.318,0.762 0.709,0.954l12.221 5.993c0.512,0.252 1.09,0.154 1.493,-0.249 0.403,-0.403 0.5,-0.982 0.249,-1.493z"/>
   <path class="fil15" d="M293.836 206.551l0 32.355c0,15.187 12.312,27.499 27.499,27.499l32.354 0c2.576,0 4.744,1.753 5.282,4.272 1.302,6.102 1.991,12.434 1.991,18.926 0,6.491 -0.689,12.823 -1.991,18.926 -0.538,2.519 -2.705,4.272 -5.282,4.272l-32.354 0c-15.187,0 -27.499,12.311 -27.499,27.499l0 32.354c0,2.576 -1.753,4.744 -4.272,5.282 -6.103,1.302 -12.434,1.991 -18.926,1.991 -6.492,0 -12.823,-0.689 -18.926,-1.991 -2.519,-0.538 -4.272,-2.705 -4.272,-5.282l0 -32.354c0,-15.188 -12.312,-27.499 -27.499,-27.499l-32.355 0c-2.575,0 -4.744,-1.753 -5.281,-4.272 -1.303,-6.103 -1.991,-12.434 -1.991,-18.926 0,-6.492 0.688,-12.824 1.991,-18.926 0.537,-2.519 2.705,-4.272 5.281,-4.272l32.355 0c15.187,0 27.499,-12.312 27.499,-27.499l0 -32.355c0,-2.575 1.753,-4.744 4.272,-5.281 6.103,-1.303 12.434,-1.991 18.926,-1.991 6.491,0 12.823,0.688 18.926,1.991 2.519,0.537 4.272,2.705 4.272,5.281zm-5.4 32.355l0 -23.901c0,-1.747 -1.214,-3.213 -2.93,-3.537 -4.816,-0.911 -9.786,-1.389 -14.868,-1.389 -5.082,0 -10.053,0.477 -14.87,1.389 -1.716,0.325 -2.93,1.79 -2.93,3.537l0.002 23.901c0,9.083 -3.683,17.309 -9.637,23.262 -5.953,5.954 -14.179,9.636 -23.262,9.636l-23.901 0c-1.747,0 -3.213,1.215 -3.537,2.93 -0.911,4.816 -1.389,9.787 -1.389,14.869 0,5.082 0.477,10.053 1.389,14.869 0.325,1.716 1.79,2.931 3.537,2.931l23.901 -0.002c9.083,0 17.309,3.683 23.262,9.636 5.954,5.954 9.637,14.179 9.637,23.263l0 23.901c0,1.746 1.214,3.212 2.929,3.537 4.816,0.911 9.787,1.389 14.869,1.389 5.082,0 10.053,-0.478 14.869,-1.389 1.716,-0.325 2.931,-1.791 2.931,-3.537l-0.002 -23.901c0,-9.084 3.683,-17.309 9.636,-23.263 5.954,-5.953 14.179,-9.636 23.263,-9.636l23.901 0c1.746,0 3.212,-1.214 3.537,-2.93 0.911,-4.816 1.389,-9.786 1.389,-14.868 0,-5.082 -0.478,-10.053 -1.389,-14.87 -0.325,-1.716 -1.791,-2.93 -3.537,-2.93l-23.901 0.001c-9.084,0 -17.309,-3.682 -23.263,-9.636 -5.953,-5.953 -9.636,-14.179 -9.636,-23.262z"/>
  </g>
  <path class="fil16" d="M548.999 352.915c24.317,0 44.028,8.1 44.028,18.09 0,9.99 -19.711,18.09 -44.028,18.09 -24.316,0 -44.028,-8.1 -44.028,-18.09 0,-9.99 19.712,-18.09 44.028,-18.09z"/>
  <path class="fil12" d="M579.449 359.873c-7.755,-3.186 -18.518,-5.158 -30.45,-5.158 -11.931,0 -22.694,1.972 -30.449,5.158 -7.277,2.989 -11.779,6.937 -11.779,11.132 0,4.195 4.502,8.143 11.779,11.132 7.755,3.186 18.518,5.158 30.449,5.158 11.932,0 22.695,-1.972 30.45,-5.158 7.277,-2.989 11.778,-6.937 11.778,-11.132 0,-4.195 -4.501,-8.143 -11.778,-11.132z"/>
  <path class="fil17" d="M548.999 366.505c2.485,0 4.5,2.014 4.5,4.5 0,2.485 -2.015,4.5 -4.5,4.5 -2.485,0 -4.5,-2.015 -4.5,-4.5 0,-2.486 2.015,-4.5 4.5,-4.5z"/>
  <path class="fil18" d="M331.559 7.44c8.01,0.676 10.447,4.495 7.243,4.601l-5.589 0.185c-31.451,0.729 -59.7,3.98 -89.405,14.53 -25.104,9.303 -46.481,21.177 -67.338,37.931 -15.034,12.412 -22.631,20.021 -35.189,34.133l-1.54 1.668c-1.876,2.032 -4.475,1.567 -1.208,-3.085 23.309,-33.196 52.517,-71.319 85.709,-86.624 27.451,-12.657 73.313,-6.21 107.317,-3.339z"/>
  <path class="fil7" d="M225.778 26.6c23.457,-10.48 43.509,-15.537 69.046,-17.98 22.29,-2.133 50.154,-2.976 50.154,4.288l0 1.8c-3.306,-0.058 -6.651,-0.07 -10.044,-0.031 -31.451,0.728 -60.88,5.43 -90.584,15.98 -25.104,9.303 -46.048,21.719 -66.905,38.473 -15.033,12.412 -28.295,25.567 -40.852,39.679l-1.506 -1.472c-4.306,-4.209 17.259,-26.906 28.765,-38.248 16.985,-16.746 40.324,-32.835 61.926,-42.489z"/>
  <path class="fil18" d="M766.441 7.44c-8.01,0.676 -10.447,4.495 -7.243,4.601l5.589 0.185c31.451,0.729 59.7,3.98 89.405,14.53 25.104,9.303 46.481,21.177 67.338,37.931 15.034,12.412 22.631,20.021 35.189,34.133l1.54 1.668c1.876,2.032 4.475,1.567 1.208,-3.085 -23.309,-33.196 -52.517,-71.319 -85.709,-86.624 -27.451,-12.657 -73.313,-6.21 -107.317,-3.339z"/>
  <path class="fil7" d="M872.222 26.6c-23.457,-10.48 -43.509,-15.537 -69.046,-17.98 -22.29,-2.133 -50.154,-2.976 -50.154,4.288l0 1.8c3.306,-0.058 6.651,-0.07 10.044,-0.031 31.451,0.728 60.88,5.43 90.584,15.98 25.104,9.303 46.048,21.719 66.905,38.473 15.033,12.412 28.295,25.567 40.852,39.679l1.506 -1.472c4.306,-4.209 -17.259,-26.906 -28.765,-38.248 -16.985,-16.746 -40.324,-32.835 -61.926,-42.489z"/>
  <path class="fil19" d="M701.087 226.045c20.529,0 37.17,16.642 37.17,37.17 0,20.528 -16.641,37.17 -37.17,37.17 -20.528,0 -37.169,-16.642 -37.169,-37.17 0,-20.528 16.641,-37.17 37.169,-37.17z"/>
  <path class="fil20" d="M701.087 229.645c18.54,0 33.57,15.03 33.57,33.57 0,18.54 -15.03,33.57 -33.57,33.57 -18.539,0 -33.569,-15.03 -33.569,-33.57 0,-18.54 15.03,-33.57 33.569,-33.57z"/>
  <path class="fil19" d="M785.084 168.942c20.528,0 37.17,16.642 37.17,37.17 0,20.528 -16.642,37.169 -37.17,37.169 -20.528,0 -37.17,-16.641 -37.17,-37.169 0,-20.528 16.642,-37.17 37.17,-37.17z"/>
  <path class="fil20" d="M785.084 172.542c18.54,0 33.57,15.03 33.57,33.57 0,18.539 -15.03,33.569 -33.57,33.569 -18.54,0 -33.57,-15.03 -33.57,-33.569 0,-18.54 15.03,-33.57 33.57,-33.57z"/>
  <path class="fil19" d="M879.931 135.358c20.528,0 37.17,16.642 37.17,37.17 0,20.528 -16.642,37.17 -37.17,37.17 -20.528,0 -37.17,-16.642 -37.17,-37.17 0,-20.528 16.642,-37.17 37.17,-37.17z"/>
  <path class="fil20" d="M879.931 138.958c18.54,0 33.57,15.03 33.57,33.57 0,18.54 -15.03,33.57 -33.57,33.57 -18.54,0 -33.57,-15.03 -33.57,-33.57 0,-18.54 15.03,-33.57 33.57,-33.57z"/>
  <path class="fil21" d="M727.496 271.974c-2.782,12.107 -13.625,21.138 -26.576,21.138 -12.951,0 -23.793,-9.031 -26.575,-21.138 -0.174,-0.76 0.136,-1.511 0.795,-1.926 0.659,-0.415 1.47,-0.37 2.08,0.115 6.502,5.181 14.739,8.279 23.7,8.279 8.961,0 17.198,-3.098 23.701,-8.279 0.609,-0.485 1.421,-0.53 2.08,-0.115 0.66,0.415 0.97,1.166 0.795,1.926z"/>
  <path class="fil21" d="M811.66 214.943c-2.782,12.107 -13.625,21.138 -26.576,21.138 -12.951,0 -23.794,-9.031 -26.575,-21.138 -0.175,-0.759 0.136,-1.51 0.795,-1.925 0.659,-0.415 1.47,-0.371 2.08,0.115 6.502,5.181 14.739,8.279 23.7,8.279 8.961,0 17.198,-3.098 23.701,-8.279 0.609,-0.486 1.421,-0.53 2.08,-0.115 0.66,0.415 0.969,1.166 0.795,1.925z"/>
  <path class="fil21" d="M906.508 181.359c-2.782,12.107 -13.625,21.138 -26.577,21.138 -12.951,0 -23.793,-9.031 -26.575,-21.138 -0.174,-0.759 0.136,-1.511 0.796,-1.926 0.659,-0.415 1.47,-0.37 2.079,0.116 6.503,5.18 14.74,8.278 23.7,8.278 8.962,0 17.198,-3.098 23.701,-8.278 0.61,-0.486 1.422,-0.531 2.081,-0.116 0.659,0.416 0.969,1.167 0.795,1.926z"/>
  <path class="fil22" d="M738.862 337.421c25.081,0 45.414,20.333 45.414,45.414 0,25.081 -20.333,45.414 -45.414,45.414 -25.081,0 -45.414,-20.333 -45.414,-45.414 0,-25.081 20.333,-45.414 45.414,-45.414z"/>
  <circle class="fil23" cx="738.862" cy="382.834" r="41.814"/>
  <path class="fil24" d="M738.862 344.619c21.105,0 38.215,17.11 38.215,38.216 0,21.105 -17.11,38.215 -38.215,38.215 -21.106,0 -38.216,-17.11 -38.216,-38.215 0,-21.106 17.11,-38.216 38.216,-38.216z"/>
  <path class="fil22" d="M840.562 268.97c25.081,0 45.414,20.333 45.414,45.414 0,25.081 -20.333,45.414 -45.414,45.414 -25.081,0 -45.414,-20.333 -45.414,-45.414 0,-25.081 20.333,-45.414 45.414,-45.414z"/>
  <circle class="fil23" cx="840.561" cy="314.383" r="41.814"/>
  <path class="fil24" d="M840.562 276.168c21.105,0 38.215,17.11 38.215,38.215 0,21.105 -17.11,38.215 -38.215,38.215 -21.106,0 -38.216,-17.11 -38.216,-38.215 0,-21.105 17.11,-38.215 38.216,-38.215z"/>
  <path class="fil22" d="M954.779 228.289c25.081,0 45.414,20.333 45.414,45.414 0,25.081 -20.333,45.414 -45.414,45.414 -25.081,0 -45.414,-20.333 -45.414,-45.414 0,-25.081 20.333,-45.414 45.414,-45.414z"/>
  <circle class="fil23" cx="954.779" cy="273.702" r="41.814"/>
  <path class="fil24" d="M954.779 235.487c21.105,0 38.215,17.11 38.215,38.215 0,21.105 -17.11,38.215 -38.215,38.215 -21.105,0 -38.215,-17.11 -38.215,-38.215 0,-21.105 17.11,-38.215 38.215,-38.215z"/>
  <path class="fil21" d="M738.862 344.621c19.266,0 35.202,14.258 37.832,32.797 0.113,0.793 -0.287,1.536 -1.012,1.879 -0.724,0.343 -1.554,0.18 -2.096,-0.411 -7.226,-7.886 -20.076,-13.133 -34.724,-13.133 -14.649,0 -27.499,5.249 -34.726,13.135 -0.541,0.591 -1.37,0.754 -2.095,0.412 -0.724,-0.343 -1.125,-1.087 -1.013,-1.88 2.63,-18.539 18.567,-32.799 37.834,-32.799z"/>
  <path class="fil21" d="M840.562 276.17c19.266,0 35.202,14.257 37.832,32.797 0.112,0.793 -0.288,1.536 -1.012,1.878 -0.725,0.344 -1.555,0.181 -2.096,-0.41 -7.226,-7.886 -20.077,-13.133 -34.724,-13.133 -14.65,0 -27.5,5.249 -34.726,13.135 -0.541,0.591 -1.37,0.754 -2.096,0.411 -0.724,-0.343 -1.124,-1.086 -1.012,-1.879 2.63,-18.54 18.567,-32.799 37.834,-32.799z"/>
  <path class="fil21" d="M954.779 235.49c19.266,0 35.202,14.257 37.833,32.796 0.112,0.794 -0.288,1.536 -1.013,1.879 -0.724,0.343 -1.554,0.181 -2.096,-0.411 -7.226,-7.886 -20.076,-13.132 -34.724,-13.132 -14.649,0 -27.499,5.248 -34.725,13.135 -0.541,0.591 -1.371,0.753 -2.096,0.411 -0.724,-0.343 -1.125,-1.086 -1.013,-1.88 2.631,-18.539 18.568,-32.798 37.834,-32.798z"/>
  <path class="fil25" d="M687.204 283.421l15.186 -10.171 -1.041 -1.553 -2.078 1.392c-0.374,0.248 -0.805,0.507 -1.396,0.873 -0.708,0.414 -1.135,0.422 -1.178,0.081 -0.043,-0.248 0.027,-0.604 0.38,-1.272l4.131 -7.733 8.292 -0.587c0.412,-0.03 0.781,-0.031 1.165,-0.01 0.383,0.02 0.398,0.411 -0.112,0.937 -0.206,0.228 -0.585,0.542 -1.536,1.183l-3.072 2.058 1.04 1.553 17.908 -11.995 -1.04 -1.553c-0.463,0.31 -0.925,0.619 -1.387,0.929 -1.432,0.955 -1.812,1.07 -4.16,1.369 -0.227,0.029 -0.455,0.058 -0.682,0.087l-13.474 0.86 4.908 -9.234 0.792 -1.486c0.102,-0.18 0.202,-0.357 0.325,-0.526 0.568,-0.779 1.116,-1.237 2.594,-2.23l1.858 -1.244 -1.055 -1.574 -14.548 9.744 1.055 1.574 2.975 -1.993c0.139,-0.092 0.681,-0.47 1.03,-0.541 0.235,-0.047 0.326,0.042 0.264,0.26 -0.062,0.222 -0.244,0.59 -0.862,1.748l-3.241 6.074 -6.161 0.224c-1.023,0.037 -1.335,0.031 -1.534,0.01 -0.341,-0.049 -0.375,-0.281 -0.157,-0.511 0.179,-0.189 0.282,-0.313 1.006,-0.797 1.021,-0.684 2.042,-1.368 3.063,-2.052l-1.054 -1.574 -17.483 11.711 1.054 1.573 2.552 -1.709c0.874,-0.586 2.335,-0.851 3.349,-0.981 0.299,-0.014 0.583,-0.05 0.824,-0.058l11.515 -0.749 -6.096 11.231 -0.891 1.614c-0.523,0.919 -1.327,1.655 -2.195,2.241l-1.873 1.254 1.04 1.553z"/>
  <path class="fil25" d="M797.718 210.052l1.142 -0.577 -0.843 -1.667 -1.142 0.576 -2.331 1.179 -0.009 0.004 -0.008 0.004c-0.178,0.088 -0.366,0.157 -0.543,0.246 -1.862,0.855 -2.114,0.811 -2.669,-0.286l-1.974 -3.907 5.458 -10.991c0.08,-0.184 0.205,-0.391 0.296,-0.551 0.663,-1.172 1.148,-1.727 1.892,-2.19 0.742,-0.375 1.484,-0.75 2.227,-1.126l-0.855 -1.69 -12.932 6.536 -1.142 0.577 0.843 1.668 1.142 -0.577 2.012 -1.017 0.006 -0.003 0.006 -0.003c0.137,-0.067 0.324,-0.135 0.456,-0.202 0.8,-0.347 1.133,-0.257 0.963,0.202 -0.056,0.229 -0.192,0.527 -0.533,1.216l-3.182 6.706 -7.329 -1.394c-0.572,-0.112 -0.962,-0.201 -1.249,-0.315 -0.482,-0.158 -0.3,-0.479 0.683,-1.033l0.006 -0.003 0.006 -0.004 0.007 -0.003 0.007 -0.003 0.006 -0.004 0.007 -0.003 0.007 -0.004 0.007 -0.003 0.007 -0.003 0.006 -0.004 0.008 -0.004 0.006 -0.003 0.008 -0.004 0.007 -0.003 0.007 -0.004 0.008 -0.004 0.006 -0.003 0.008 -0.004 0.007 -0.004 0.008 -0.004 0.007 -0.003 0.007 -0.004 0.008 -0.003 0.007 -0.004 0.008 -0.004 0.007 -0.004 0.007 -0.004 0.008 -0.003 0.008 -0.004 0.007 -0.004 0.007 -0.004 0.008 -0.003 0.007 -0.004 0.008 -0.004 0.008 -0.004 0.007 -0.004 0.008 -0.004 0.007 -0.004 0.007 -0.003 0.008 -0.004 0.007 -0.003 0.008 -0.004 0.007 -0.004 0.007 -0.004 0.008 -0.004 0.007 -0.003 0.007 -0.004 0.008 -0.004 0.007 -0.003 0.007 -0.004 0.007 -0.004 0.007 -0.003 0.007 -0.004 0.007 -0.003 0.007 -0.004 0.007 -0.003 0.007 -0.004 0.007 -0.003 0.007 -0.004 0.006 -0.003 0.007 -0.003 0.007 -0.004 0.006 -0.003 0.007 -0.003 1.919 -0.97 1.142 -0.577 -0.855 -1.691 -1.141 0.577 -14.989 7.576 -1.141 0.577 0.854 1.69 1.142 -0.577 0.046 -0.023 0.004 -0.002 0.005 -0.002 0.004 -0.003 0.005 -0.002 0.004 -0.002 0.005 -0.003 0.005 -0.002 0.004 -0.003 0.005 -0.002 0.005 -0.002 0.005 -0.003 0.005 -0.002 0.005 -0.003 0.005 -0.002 0.005 -0.003 0.005 -0.002 0.005 -0.003 0.005 -0.003 0.005 -0.002 0.006 -0.003 0.005 -0.002 0.005 -0.003 0.005 -0.003 0.006 -0.002 0.005 -0.003 0.005 -0.003 0.006 -0.002 0.005 -0.003 0.005 -0.003 0.005 -0.003 0.006 -0.002 0.005 -0.003 0.006 -0.003 0.005 -0.002 0.005 -0.003 0.006 -0.003 0.005 -0.003 0.006 -0.002 0.004 -0.003 0.006 -0.003 0.005 -0.002 0.006 -0.003 0.005 -0.002 0.005 -0.003 0.005 -0.003 0.005 -0.002 0.005 -0.003 0.006 -0.003 0.005 -0.002 0.005 -0.003 0.005 -0.002 0.004 -0.003 0.005 -0.002 0.005 -0.002 0.005 -0.003 0.005 -0.002 0.005 -0.003 0.004 -0.002 0.005 -0.003 0.005 -0.002 0.004 -0.002 0.005 -0.002 0.004 -0.003 0.004 -0.002c1.691,-0.74 2.344,-0.811 4.222,-0.499l11.859 2.124 1.582 3.13 0.439 0.868c0.554,1.097 0.441,1.326 -1.535,2.411 -0.104,0.077 -0.247,0.153 -0.371,0.216l-0.007 0.004 -0.007 0.003 -0.007 0.004 -0.007 0.003 -0.006 0.003 -0.007 0.004 -0.007 0.003 -0.006 0.004 -0.007 0.003 -0.007 0.003 -0.006 0.004 -2.332 1.178 -1.141 0.577 0.843 1.668 1.141 -0.577 17.228 -8.708z"/>
  <path class="fil25" d="M899.673 175.211l-2.447 -6.792c-1.573,0.566 -3.146,1.133 -4.719,1.7l0.364 1.012c0.078,0.216 0.117,0.475 0.195,0.691 0.369,2.534 -1.588,4.355 -7.128,6.351l-11.272 4.061 19.12 -22.154 -0.746 -2.072 -1.203 0.434 -30.058 10.83 2.465 6.84c1.493,-0.538 2.986,-1.076 4.478,-1.614l-0.376 -1.198c-0.906,-2.966 0.932,-4.662 8.398,-7.352l7.708 -2.777 -18.778 21.895 0.764 2.119 1.203 -0.433 32.032 -11.541z"/>
  <path class="fil25" d="M732.6 388.84l1.22 -10.996 10.586 3.088 -11.806 7.908zm5.839 8.144l-1.3 -1.941 -4.04 2.706c-1.117,0.748 -1.668,0.732 -1.581,-0.174 0,-0.346 0.07,-0.701 0.122,-1.082l0.558 -4.572 15.156 -10.152 4.334 1.295 1.386 0.344c0.49,0.391 0.394,0.69 -0.623,1.379l-0.049 0.033 -3.989 2.672 1.3 1.94 17.972 -12.037 -1.3 -1.941c-0.711,0.476 -1.255,0.854 -2.02,1.238 -1.401,0.669 -2.111,0.759 -3.691,0.354l-23.836 -6.72c-2.801,1.876 -5.601,3.751 -8.401,5.627l-3.177 24.813c-0.279,1.997 -0.491,2.37 -1.803,3.403l-0.567 0.418 -0.001 0.001 -0.159 0.106 -1.169 0.783 1.3 1.941 1.328 -0.89 14.25 -9.544z"/>
  <path class="fil25" d="M839.302 325.239l-3.695 -7.311 8.455 -4.274c6.968,-3.522 11.177,-3.426 11.561,-0.393 0.267,2.087 -2.211,4.846 -7.409,7.473l-8.912 4.505zm-4.807 -9.511l-3.42 -6.768 8.054 -4.071c5.884,-2.974 9.605,-2.991 10.131,-0.388 0.352,1.973 -1.099,3.926 -4.739,6.089 -0.466,0.297 -0.911,0.53 -1.39,0.774l-0.026 0.013 -0.026 0.013 -0.026 0.013 -0.027 0.014 -0.026 0.013 -0.027 0.013 -0.027 0.014 -0.026 0.013 -0.027 0.014 -8.398 4.244zm17.2 5.936c8.624,-4.359 12.374,-7.724 13.534,-10.82 0.198,-0.603 0.324,-1.204 0.279,-1.719 -0.159,-3.577 -4.455,-4.274 -12.086,-1.636 -0.3,0.116 -0.614,0.203 -0.914,0.318l0.57 -0.432 0.756 -0.632c3.137,-2.59 4.531,-4.657 4.48,-6.46 -0.049,-4.493 -6.388,-4.551 -18.612,1.627l-26.616 13.453 1.068 2.113 4.398 -2.223 0.011 -0.006 0.01 -0.005 0.011 -0.005 0.011 -0.005 0.01 -0.006 0.01 -0.005 0.011 -0.005 0.01 -0.005 0.01 -0.005 0.01 -0.005 0.01 -0.005 0.01 -0.005 0.01 -0.005 0.009 -0.005 0.01 -0.005 0.01 -0.005 0.01 -0.005 0.009 -0.005 0.01 -0.005 0.009 -0.005 0.01 -0.004 0.01 -0.005 0.009 -0.005 0.009 -0.005 0.01 -0.005 0.009 -0.004 0.01 -0.005 0.009 -0.005 0.009 -0.005 0.01 -0.004 0.009 -0.005 0.01 -0.005 0.009 -0.005 0.009 -0.004 0.01 -0.005 0.009 -0.005 0.01 -0.004 0.009 -0.005 0.009 -0.005 0.01 -0.005 0.009 -0.005 0.01 -0.004 0.009 -0.005 0.01 -0.005 0.01 -0.005 0.009 -0.004 0.01 -0.005 0.009 -0.005 0.01 -0.005 0.01 -0.005 0.009 -0.005 0.01 -0.005 0.01 -0.005 0.01 -0.005 0.01 -0.005 0.01 -0.005 0.01 -0.006 0.011 -0.005 0.01 -0.005 0.01 -0.005 0.011 -0.005 0.01 -0.006 0.01 -0.005 0.011 -0.005c2.443,-1.127 2.758,-1.071 3.451,0.299l6.12 12.11 0.491 0.971c0.679,1.342 0.38,1.744 -1.919,3.013 -0.13,0.096 -0.309,0.191 -0.496,0.287l-0.011 0.005 -0.01 0.005 -0.011 0.006 -0.011 0.005 -0.01 0.006 -0.011 0.005 -0.011 0.006 -0.01 0.005 -0.011 0.005 -0.01 0.006 -0.011 0.005 -4.284 2.165 1.054 2.085 28.215 -14.261z"/>
  <path class="fil25" d="M966.531 259.16c-4.238,-0.279 -9.52,0.66 -14.768,2.653 -2.757,0.941 -5.533,2.177 -8.171,3.685 -8.226,4.732 -12.324,10.732 -10.311,16.13 1.427,3.771 5.292,5.814 10.776,6.117 3.679,0.205 7.754,-0.379 12.297,-1.744 1.537,-0.456 2.991,-0.945 4.361,-1.458 11.151,-3.854 17.219,-9.384 16.84,-14.275 0.018,-0.517 -0.096,-1.02 -0.318,-1.45 -2.027,0.73 -4.054,1.46 -6.081,2.19 0.13,0.362 0.141,0.766 0.139,1.141 -0.136,3.628 -4.041,7.347 -10.032,9.682 -0.912,0.303 -1.866,0.575 -2.855,0.812 -5.888,1.407 -10.97,0.517 -13.629,-3.083 -4.361,-6.057 0.486,-12.576 9.044,-15.922 0.595,-0.197 1.205,-0.38 1.828,-0.547 6.265,-1.679 11.037,-1.085 13.221,1.767 0.23,0.258 0.398,0.538 0.506,0.839 2.027,-0.73 4.054,-1.461 6.081,-2.191l-2.973 -8.249c-1.846,0.665 -3.692,1.33 -5.538,1.995l-0.417 1.908z"/>
 </g>
</svg>
