<?xml version="1.0" encoding="UTF-8"?>
<!DOCTYPE svg PUBLIC "-//W3C//DTD SVG 1.1//EN" "http://www.w3.org/Graphics/SVG/1.1/DTD/svg11.dtd">
<svg xml:space="preserve" viewBox="0 0 588 370" width="588px" height="370px" version="1.1" style="shape-rendering:geometricPrecision; fill-rule:evenodd; clip-rule:evenodd" xmlns="http://www.w3.org/2000/svg" xmlns:xlink="http://www.w3.org/1999/xlink">
 <defs>
  <style type="text/css">
    .str0 {stroke:#969696;stroke-width:2;stroke-opacity:0.7}
    .fil8 {fill:#4D4D4D}
    .fil14 {fill:gray}
    .fil13 {fill:#8C8C8C}
    .fil15 {fill:#999999}
    .fil7 {fill:#F8F8F8}
    .fil10 {fill:white}
    .fil12 {fill:#727272}
    .fil1 {fill:#CCCCCC}
    .fil5 {fill:black;fill-opacity:0.1}
    .fil4 {fill:black;fill-opacity:0.3}
    .fil11 {fill:black;fill-opacity:0.5}
    .fil18 {fill:white;fill-opacity:0.5}
    .fil16 {fill:url(#id0)}
    .fil0 {fill:url(#id1)}
    .fil2 {fill:url(#id5)}
    .fil6 {fill:url(#id7)}
    .fil19 {fill:url(#id9)}
    .fil17 {fill:url(#id10)}
    .fil3 {fill:url(#id12)}
    .fil9 {fill:url(#id15)}
    .shd0 {filter: drop-shadow(0px 1px .5px rgba(0, 0, 0, 0.2)) drop-shadow(0px 0px .5px rgba(0, 0, 0, 0.3))}
    .shd1 {filter: drop-shadow(0px 4px 2px rgba(0, 0, 0, 0.5)) drop-shadow(0px 0px 4px rgba(0, 0, 0, 0.4))}
  </style>
  <linearGradient id="id0" gradientUnits="userSpaceOnUse" x1="138.901" y1="241.753" x2="138.901" y2="141.828">
   <stop offset="0" style="stop-opacity:1; stop-color:#ABABAB"/>
   <stop offset="0.5" style="stop-opacity:1; stop-color:#969696"/>
   <stop offset="1" style="stop-opacity:1; stop-color:#8C8C8C"/>
  </linearGradient>
  <linearGradient id="id1" gradientUnits="userSpaceOnUse" x1="294" y1="183.762" x2="294" y2="0.951">
   <stop offset="0" style="stop-opacity:1; stop-color:#E6E6E6"/>
   <stop offset="0.45" style="stop-opacity:1; stop-color:#F0F0F0"/>
   <stop offset="1" style="stop-opacity:1; stop-color:#FAFAFA"/>
  </linearGradient>
  <linearGradient id="id5" gradientUnits="userSpaceOnUse" x1="294" y1="368.296" x2="294" y2="45.671">
   <stop offset="0" style="stop-opacity:1; stop-color:#D6D6D6"/>
   <stop offset="0.45" style="stop-opacity:1; stop-color:#E7E7E7"/>
   <stop offset="1" style="stop-opacity:1; stop-color:#F8F8F8"/>
  </linearGradient>
  <linearGradient id="id7" gradientUnits="userSpaceOnUse" x1="294" y1="237.217" x2="294" y2="211.29">
   <stop offset="0" style="stop-opacity:1; stop-color:#F7F7F7"/>
   <stop offset="1" style="stop-opacity:1; stop-color:#B3B3B3"/>
  </linearGradient>
  <linearGradient id="id9" gradientUnits="userSpaceOnUse" x1="138.901" y1="202.073" x2="138.901" y2="183.565">
   <stop offset="0" style="stop-opacity:1; stop-color:#D9D9D9"/>
   <stop offset="0.4" style="stop-opacity:1; stop-color:#969696"/>
   <stop offset="1" style="stop-opacity:1; stop-color:#616161"/>
  </linearGradient>
  <linearGradient id="id10" gradientUnits="userSpaceOnUse" x1="138.901" y1="241.754" x2="138.901" y2="141.827">
   <stop offset="0" style="stop-opacity:1; stop-color:#B3B3B3"/>
   <stop offset="0.5" style="stop-opacity:1; stop-color:#ABABAB"/>
   <stop offset="1" style="stop-opacity:1; stop-color:#A3A3A3"/>
  </linearGradient>
  <linearGradient id="id12" gradientUnits="userSpaceOnUse" xlink:href="#id5" x1="294" y1="368.296" x2="294" y2="45.671">
  </linearGradient>
  <linearGradient id="id15" gradientUnits="userSpaceOnUse" x1="434.984" y1="87.263" x2="434.984" y2="82.727">
   <stop offset="0" style="stop-opacity:1; stop-color:#666666"/>
   <stop offset="1" style="stop-opacity:1; stop-color:#CCCCCC"/>
  </linearGradient>
 </defs>
 <g>
  <g id="shell">
   <path class="fil0" d="M294 55.627c13.962,0 27.925,-1.488 42.612,-4.463 19.044,-3.857 28.352,-7.651 34.899,-14.219 6.461,-6.483 9.001,-11.723 10.79,-22.257 1.091,-6.424 2.064,-9.245 3.741,-10.852 5.587,-5.351 15.18,-3.366 33.064,6.841 22.913,13.078 39.903,24.691 56.897,38.89 6.981,5.833 18.398,16.791 28.357,27.017 74.477,76.462 -67.155,107.607 -210.36,107.607 -143.205,0 -284.838,-31.145 -210.36,-107.607 9.959,-10.226 21.376,-21.184 28.357,-27.017 16.994,-14.199 33.983,-25.812 56.897,-38.89 17.884,-10.207 27.477,-12.192 33.064,-6.841 1.677,1.607 2.65,4.428 3.741,10.852 1.788,10.534 4.329,15.774 10.79,22.257 6.546,6.568 15.854,10.362 34.899,14.219 14.687,2.975 28.65,4.463 42.612,4.463z"/>
   <circle class="fil1" cx="138.901" cy="191.79" r="75.591"/>
   <path id="shadow-big" class="fil3 shd1" d="M138.901 106.751c46.967,0 85.04,38.073 85.04,85.039 0,46.966 -38.073,85.04 -85.04,85.04 -46.966,0 -85.039,-38.074 -85.039,-85.04 0,-46.966 38.073,-85.039 85.039,-85.039zm0 20.409c35.695,0 64.63,28.936 64.63,64.63 0,35.695 -28.935,64.63 -64.63,64.63 -35.694,0 -64.63,-28.935 -64.63,-64.63 0,-35.694 28.936,-64.63 64.63,-64.63z"/>
   <path class="fil2" d="M294 68.494c27.003,0 54.006,-4.894 82.273,-14.682 17.516,-6.065 25.62,-7.657 41.238,-8.096 29.059,-0.818 66.109,9.571 86.849,30.868 5.458,5.604 10.481,10.99 14.098,15.192 17.364,20.178 31.707,42.202 42.722,65.505 14.701,31.1 23.745,67.01 25.414,101.588 0.525,10.88 0.431,22.101 -0.469,26.849 -2.745,14.469 -10.839,26.428 -25.185,37.211 -9.802,7.367 -32.994,21.555 -47.457,29.03 -11.819,6.109 -29.696,14.102 -35.425,15.838 -5.265,1.594 -13.809,1.68 -18.647,0.186 -4.5,-1.39 -7.851,-3.747 -15.35,-10.799 -4.17,-3.921 -10.04,-9.201 -14.79,-13.346 -17.493,-15.262 -41.502,-30.748 -63.132,-39.522 -22.057,-8.947 -48.142,-15.327 -72.139,-15.327 -23.997,0 -50.082,6.38 -72.139,15.327 -21.63,8.774 -45.639,24.26 -63.133,39.522 -4.749,4.145 -10.619,9.425 -14.789,13.346 -7.499,7.052 -10.85,9.409 -15.351,10.799 -4.837,1.494 -13.382,1.408 -18.646,-0.186 -5.729,-1.736 -23.606,-9.729 -35.425,-15.838 -14.463,-7.475 -37.655,-21.663 -47.457,-29.03 -14.346,-10.783 -22.44,-22.742 -25.185,-37.211 -0.9,-4.748 -0.994,-15.969 -0.469,-26.849 1.669,-34.578 10.713,-70.488 25.414,-101.588 11.014,-23.303 25.358,-45.327 42.722,-65.505 3.617,-4.202 8.64,-9.588 14.098,-15.192 20.74,-21.297 57.79,-31.686 86.849,-30.868 15.617,0.439 23.722,2.031 41.237,8.096 28.267,9.788 55.271,14.682 82.274,14.682zm-155.099 47.705c41.748,0 75.591,33.844 75.591,75.591 0,41.748 -33.843,75.591 -75.591,75.591 -41.747,0 -75.59,-33.843 -75.59,-75.591 0,-41.747 33.843,-75.591 75.59,-75.591z"/>
   <path class="fil4" d="M83.518 76.709l0.023 0.094c0.64,2.67 1.277,5.071 1.752,6.554 1.923,5.989 3.134,12.252 2.338,18.552 -1.178,9.318 -4.096,14.515 -9.693,21.925 -8.672,11.48 -17.431,25.106 -24.053,37.876 -6.166,11.888 -13.4,30.089 -16.016,43.174 -1.268,6.344 -2.29,14.383 -1.833,20.836 1.412,19.892 8.69,36.96 22.879,51.086 11.014,10.966 22.503,16.806 37.422,20.827 11.881,3.203 23.172,6.792 34.462,11.725 11.686,5.107 18.322,9.531 27.528,18.357 1.463,1.403 5.652,5.53 7.256,6.356 0.357,0.184 1.34,0.528 2.636,0.933 0.304,0.095 0.622,0.192 0.952,0.291 -0.52,0.4 -1.036,0.802 -1.549,1.204 -1.316,-0.414 -2.342,-0.781 -2.774,-1.003 -1.818,-0.937 -6.007,-5.068 -7.632,-6.626 -9.071,-8.697 -15.543,-13.01 -27.058,-18.042 -11.214,-4.901 -22.433,-8.463 -34.236,-11.644 -15.186,-4.093 -26.926,-10.081 -38.136,-21.242 -14.461,-14.396 -21.912,-31.835 -23.351,-52.109 -0.468,-6.61 0.56,-14.766 1.859,-21.264 2.648,-13.244 9.926,-31.561 16.166,-43.593 6.668,-12.858 15.465,-26.55 24.198,-38.109 5.415,-7.169 8.245,-12.142 9.385,-21.159 0.766,-6.059 -0.427,-12.103 -2.275,-17.862 -0.429,-1.337 -0.989,-3.418 -1.567,-5.779 0.435,-0.451 0.875,-0.904 1.317,-1.358zm420.964 0l-0.023 0.094c-0.641,2.67 -1.277,5.071 -1.753,6.554 -1.922,5.989 -3.133,12.252 -2.337,18.552 1.178,9.318 4.095,14.515 9.693,21.925 8.672,11.48 17.431,25.106 24.053,37.876 6.166,11.888 13.4,30.089 16.016,43.174 1.267,6.344 2.29,14.383 1.833,20.836 -1.412,19.892 -8.69,36.96 -22.88,51.086 -11.014,10.966 -22.502,16.806 -37.421,20.827 -11.882,3.203 -23.172,6.792 -34.462,11.725 -11.686,5.107 -18.322,9.531 -27.528,18.357 -1.463,1.403 -5.652,5.53 -7.256,6.356 -0.357,0.184 -1.341,0.528 -2.636,0.933 -0.304,0.095 -0.623,0.192 -0.952,0.291 0.52,0.4 1.036,0.802 1.549,1.204 1.316,-0.414 2.342,-0.781 2.774,-1.003 1.818,-0.937 6.007,-5.068 7.632,-6.626 9.07,-8.697 15.543,-13.01 27.057,-18.042 11.215,-4.901 22.434,-8.463 34.237,-11.644 15.186,-4.093 26.926,-10.081 38.136,-21.242 14.46,-14.396 21.912,-31.835 23.351,-52.109 0.468,-6.61 -0.561,-14.766 -1.859,-21.264 -2.648,-13.244 -9.926,-31.561 -16.166,-43.593 -6.668,-12.858 -15.465,-26.55 -24.198,-38.109 -5.415,-7.169 -8.245,-12.142 -9.385,-21.159 -0.766,-6.059 0.427,-12.103 2.275,-17.862 0.429,-1.337 0.989,-3.418 1.567,-5.779 -0.435,-0.451 -0.875,-0.904 -1.317,-1.358z"/>
   <path class="fil5" d="M487.659 60.092c5.359,5.076 11.249,10.894 16.701,16.492 -20.74,-21.297 -57.79,-31.686 -86.849,-30.868 -15.618,0.439 -23.722,2.031 -41.238,8.096 -28.267,9.788 -55.27,14.682 -82.273,14.682 -27.003,0 -54.007,-4.894 -82.274,-14.682 -17.515,-6.065 -25.62,-7.657 -41.237,-8.096 -29.059,-0.818 -66.109,9.571 -86.849,30.868 5.452,-5.598 11.342,-11.416 16.701,-16.492 6.269,-3.628 13.048,-6.69 20.067,-9.185 16.542,-5.879 34.48,-8.62 50.163,-8.179 8.005,0.225 14.084,0.745 20.399,1.985 6.271,1.231 12.798,3.182 21.729,6.275 13.984,4.842 27.654,8.474 41.165,10.894 13.442,2.408 26.769,3.612 40.136,3.612 13.367,0 26.694,-1.204 40.136,-3.612 13.51,-2.42 27.18,-6.052 41.165,-10.894 8.931,-3.093 15.457,-5.044 21.729,-6.275 6.315,-1.24 12.394,-1.76 20.399,-1.985 15.683,-0.441 33.621,2.3 50.163,8.179 7.019,2.495 13.799,5.557 20.067,9.185z"/>
   <path class="fil6" d="M294 205.734c17.221,0 31.181,8.291 31.181,18.52 0,10.228 -13.96,18.519 -31.181,18.519 -17.221,0 -31.181,-8.291 -31.181,-18.519 0,-10.229 13.96,-18.52 31.181,-18.52z"/>
   <path id="shadow" class="fil7 shd0" d="M281.16 259.955c1.969,0 3.171,-0.951 3.171,-2.489 0,-1.198 -0.757,-1.9 -2.463,-2.259l-0.768 -0.166c-0.981,-0.214 -1.377,-0.487 -1.377,-0.98 0,-0.583 0.574,-0.99 1.388,-0.99 0.858,0 1.422,0.466 1.48,1.221l1.546 0c-0.048,-1.607 -1.192,-2.581 -3.032,-2.581 -1.816,0 -3.031,0.979 -3.031,2.431 0,1.14 0.766,1.873 2.346,2.215l0.841 0.182c1.013,0.22 1.431,0.521 1.431,1.033 0,0.622 -0.604,1.024 -1.521,1.024 -1.024,0 -1.64,-0.514 -1.662,-1.392l-1.591 0c0,1.736 1.195,2.751 3.242,2.751zm3.607 -6.706l2.427 0 0 6.587 1.65 0 0 -6.587 2.421 0 0 -1.418 -6.498 0 0 1.418zm5.712 6.587l1.782 0 0.58 -1.748 2.989 0 0.559 1.748 1.831 0 -2.808 -8.005 -2.126 0 -2.807 8.005zm2.807 -3.068l0.273 -0.827c0.259,-0.817 0.506,-1.633 0.796,-2.628 0.284,0.995 0.531,1.811 0.779,2.628l0.267 0.827 -2.115 0zm5.587 3.068l1.649 0 0 -2.795 1.454 0c0.005,0 0.011,0 0.016,0l1.422 2.795 1.771 0 -1.604 -3.106c0.897,-0.415 1.428,-1.21 1.428,-2.271 0,-1.613 -1.127,-2.628 -2.936,-2.628l-3.2 0 0 8.005zm1.649 -4.122l0 -2.509 1.448 0c0.878,0 1.423,0.489 1.423,1.254 0,0.766 -0.545,1.255 -1.417,1.255l-1.454 0zm4.914 -2.465l2.427 0 0 6.587 1.649 0 0 -6.587 2.422 0 0 -1.418 -6.498 0 0 1.418z"/>
   <path class="fil8" d="M432.25 78.483c-3.094,1.509 -4.38,5.243 -2.871,8.339 1.51,3.095 5.243,4.38 8.338,2.871l11.253 -5.488c3.095,-1.51 4.38,-5.243 2.871,-8.339 -1.51,-3.095 -5.244,-4.38 -8.339,-2.871l-11.252 5.488z"/>
   <path class="fil9" d="M434.984 88.623c2.505,0 4.535,-2.031 4.535,-4.535 0,-2.505 -2.03,-4.536 -4.535,-4.536 -2.505,0 -4.536,2.031 -4.536,4.536 0,2.504 2.031,4.535 4.536,4.535z"/>
   <ellipse class="fil10" cx="434.984" cy="81.631" rx="1.88" ry="0.98"/>
  </g>
  <g id="print">
   <path id="logo" class="fil11" d="M264.189 143.601c0,-0.311 -0.059,-0.715 -0.197,-0.884 0.902,0 2.85,0.006 3.685,0.006 1.921,0 4.82,1.066 4.82,4.661 0,2.668 -2.046,4.656 -4.82,4.656 -0.609,0 -2.932,-0.007 -3.756,-0.007 0.169,-0.312 0.268,-0.735 0.268,-1.07l0 -7.362 0 0 0 0zm1.381 7.526c0.888,0.115 1.706,0.15 2.446,0.044 0.717,-0.102 3.125,-0.621 3.11,-3.818 -0.014,-3.03 -1.885,-3.722 -3.327,-3.807 -0.752,-0.044 -1.479,-0.016 -2.229,0.114l0 7.467 0 0 0 0zm7.718 -5.547l1.381 -0.216c0,0.283 0,1.111 0,1.215 0.354,-0.875 1.455,-1.578 3.021,-0.968l-0.367 0.96c-1.433,-0.679 -2.654,-0.083 -2.654,1.508l0 3.284c0,0.156 0.033,0.472 0.127,0.674l-1.434 0c0.145,-0.178 0.212,-0.518 0.212,-0.674l0 -4.737c0,-0.343 -0.07,-0.875 -0.286,-1.046l0 0 0 0zm43.644 0.658c0,0.089 0,3.909 0,4.195 0,1.316 0.907,1.668 1.58,1.668 0.285,0.014 0.687,-0.052 0.968,-0.115l0.174 -0.813c-0.328,0.125 -0.71,0.155 -0.938,0.155 -0.422,0 -0.726,-0.28 -0.726,-0.717 0,-0.393 -0.011,-4.243 0,-4.366l-0.005 0c0.057,0 0.93,-0.003 1.018,0 0.288,0.01 0.507,0.028 0.697,0.104l0.001 -0.766c0,0 -1.679,-0.001 -1.712,-0.001l0.007 -1.964 -1.272 0.352c0.175,0.164 0.232,0.644 0.232,0.961 0,0 -0.001,0.587 -0.001,0.657 -0.057,0 -0.702,0.003 -0.81,0.003l0 0.647c0.113,0 0.787,0 0.787,0l0 0 0 0 0 0zm-5.498 4.435c0.546,0.391 1.404,0.738 2.034,0.738 0.873,0 1.498,-0.425 1.498,-1.224 0,-1.476 -3.365,-1.232 -3.365,-3.104 0,-1.267 1.132,-1.743 2.211,-1.743 0.347,0 1.139,0.075 1.642,0.27l-0.004 0.865c-0.447,-0.382 -1.13,-0.475 -1.579,-0.475 -0.715,0 -1.25,0.354 -1.25,1.049 0,1.02 3.362,0.961 3.362,3.055 0,1.354 -1.173,1.984 -2.464,1.984 -0.629,0 -1.285,-0.111 -1.831,-0.267l-0.255 -1.148 0 0 0.001 0zm-20.312 -4.421c0,-0.077 0.002,-0.763 0.002,-0.851l-1.397 0.216c0.168,0.177 0.297,0.728 0.297,1.121l0 4.58c0,0.156 -0.067,0.535 -0.211,0.714l1.524 0c-0.146,-0.179 -0.212,-0.558 -0.212,-0.714l0 -3.446c0,-1.261 0.78,-1.702 1.556,-1.702 0.703,0 1.338,0.304 1.338,1.702l0 3.446c0,0.156 -0.068,0.535 -0.213,0.714l1.478 0c-0.144,-0.179 -0.211,-0.558 -0.211,-0.714l0 -3.446c0,-1.398 0.863,-1.702 1.567,-1.702 0.702,0 1.437,0.441 1.437,1.702l0 3.446c0,0.156 -0.067,0.535 -0.212,0.714l1.423 0c-0.145,-0.179 -0.212,-0.558 -0.212,-0.714l0 -4.1c0,-0.7 -0.712,-1.819 -2.378,-1.819 -0.968,0 -1.527,0.431 -1.952,0.802 -0.362,-0.422 -0.949,-0.817 -1.894,-0.817 -0.921,0 -1.465,0.539 -1.73,0.868l0 0 0 0 0 0zm-3.296 2.148c-0.199,0.187 -0.617,0.333 -1.048,0.39 -1.133,0.148 -2.115,0.336 -2.115,1.44 0,0.654 0.714,1.17 1.279,1.17 1.497,0 1.884,-1.08 1.884,-1.932l0 -1.068 0 0 0 0 0 0zm-3.536 -2.701c0.571,-0.229 1.493,-0.334 2.071,-0.334 1.476,0 2.458,0.738 2.458,2.451l0 2.84c0,0.527 0.008,1.025 0.195,1.375l-1.187 0 -0.042 -0.747c-0.45,0.58 -0.987,0.839 -1.898,0.839 -1.798,0 -2.192,-1.229 -2.192,-1.819 0,-2.107 2.006,-2.132 2.877,-2.256 0.482,-0.069 1.102,-0.204 1.196,-0.656 0.153,-0.748 -0.381,-1.308 -1.473,-1.308 -0.801,0 -1.458,0.243 -2.005,0.571l0 -0.956 0 0 0 0 0 0zm25.511 2.701c-0.199,0.187 -0.617,0.333 -1.048,0.39 -1.133,0.148 -2.114,0.336 -2.114,1.44 0,0.654 0.713,1.17 1.278,1.17 1.497,0 1.884,-1.08 1.884,-1.932l0 -1.068 0 0 0 0 0 0zm-3.536 -2.701c0.571,-0.229 1.493,-0.334 2.072,-0.334 1.476,0 2.457,0.738 2.457,2.451l0 2.84c0,0.527 -0.115,1.014 0.195,1.375l-1.187 0 -0.042 -0.747c-0.45,0.58 -0.987,0.839 -1.898,0.839 -1.798,0 -2.191,-1.229 -2.191,-1.819 0,-2.107 2.006,-2.132 2.877,-2.256 0.482,-0.069 1.102,-0.204 1.195,-0.656 0.153,-0.748 -0.381,-1.308 -1.473,-1.308 -0.801,0 -1.457,0.243 -2.005,0.571l0 -0.956 0 0 0 0 0 0zm-1.264 0.872c-0.445,-0.26 -1.148,-0.467 -1.638,-0.467 -1.721,0 -2.51,1.059 -2.51,2.583 0,1.51 0.771,2.667 2.454,2.667 0.578,0 1.363,-0.258 1.973,-0.634l-0.248 1.111c-0.621,0.185 -1.144,0.273 -1.836,0.273 -2.366,0 -3.475,-1.678 -3.475,-3.423 0,-1.93 1.488,-3.287 3.501,-3.287 0.88,0 1.522,0.216 1.781,0.289l-0.002 0.888 0 0 0 0 0 0zm-26.481 2.197c0.001,-0.159 0.022,-0.311 0.04,-0.458l4.577 0c0,-1.575 -0.787,-2.924 -2.651,-2.924 -1.935,0 -3.083,1.513 -3.083,3.443 0,1.746 1.279,3.305 3.469,3.305 0.692,0 1.272,-0.17 1.897,-0.389l0.219 -1.116c-0.534,0.44 -1.398,0.701 -2.178,0.701 -1.403,-0.001 -2.296,-1.015 -2.289,-2.562l0 0 0 0 -0.001 0zm0.185 -1.156c0.148,-0.766 0.857,-1.546 1.705,-1.546 1.295,0 1.67,1.011 1.67,1.546 -0.001,0 -3.375,0.001 -3.375,0l0 0zm18.184 -37.21c1.272,0.191 2.571,0.635 3.249,0.842 1.364,0.417 3.58,1.714 4.362,2.336 0.37,0.294 1.148,1.065 1.45,1.452 0.293,0.378 0.854,1.195 1.212,1.699 0.569,0.832 1.24,2.071 1.809,3.212 0.635,1.274 0.679,1.643 0.871,2.708l0.42 1.877c0.04,0.325 0.073,1.516 -0.626,1.682 -0.7,0.167 -1.345,-0.155 -1.65,-0.626 -0.421,-0.652 -0.363,-1.578 -0.84,-2.638 -0.372,-0.857 -0.534,-2.101 -1.127,-2.996l-0.466 -0.788c-0.824,-1.268 -1.683,-2.274 -2.195,-2.931 -0.451,-0.552 -1.293,-1.302 -2.091,-1.835 -0.739,-0.448 -1.932,-0.959 -2.793,-1.221 -0.275,-0.09 -1.449,-0.435 -2.178,-0.532 -0.99,-0.111 -1.642,-0.268 -2.582,-0.334 -1.162,-0.082 -1.719,-0.185 -3.226,-0.009 -0.571,0.155 -1.475,0.216 -2.29,0.527 -0.657,0.268 -1.572,0.701 -2.467,1.228 -0.964,0.529 -2.427,1.61 -3.398,2.533 -0.978,1.045 -1.467,1.606 -2.142,2.931 -0.298,0.655 -0.876,1.668 -1.108,2.385 -0.16,0.726 -0.463,2.081 -0.412,2.74 0.023,1.179 -0.08,1.422 0.008,2.386 0.004,0.868 0.289,1.469 0.407,2.179 0.102,0.491 0.572,2.188 0.863,2.581 1.323,2.851 3.099,4.086 5.078,4.977 0.558,0.283 2.304,0.751 2.809,0.885 0.861,0.155 1.995,0.259 3.086,0.28 1.147,0.022 2.729,-0.133 3.689,-0.487 1.038,-0.382 2.24,-0.925 2.226,-0.909 0.482,-0.266 1.217,-0.7 1.447,-0.89 0.443,-0.284 0.71,-0.394 0.971,-0.667 0.379,-0.332 0.608,-0.522 0.895,-0.933 0.16,-0.231 0.413,-0.585 0.66,-0.898 0.266,-0.435 0.418,-0.894 0.678,-1.462 0.31,-0.839 0.262,-0.799 0.321,-1.69 0.056,-0.259 -0.006,-1.127 -0.053,-1.275 -0.14,-0.801 -0.09,-1.508 -0.274,-2.286 -0.248,-1.052 -0.454,-1.84 -0.77,-2.85 -0.297,-1.137 -1.17,-2.19 -1.826,-2.943 -0.406,-0.466 -1.665,-1.568 -3.413,-2.256 -0.493,-0.166 -1.298,-0.353 -1.81,-0.447 -1.092,-0.114 -1.27,-0.041 -2.315,0.036 -0.36,0.063 -1.195,0.233 -1.502,0.341 -0.898,0.316 -1.229,0.516 -2.147,1.079 -0.427,0.248 -0.75,0.438 -1.187,0.847 -0.348,0.323 -0.598,0.872 -0.88,1.193 -0.387,0.527 -0.817,1.229 -1.107,1.987 -0.313,0.753 -0.414,1.814 -0.366,2.496 0,0.521 0.141,1.473 0.198,1.681 0.056,0.209 0.197,0.856 0.227,0.985 0.03,0.13 0.367,0.814 0.413,0.913 0.19,0.404 0.553,0.984 1.164,1.576 0.452,0.493 1.324,0.976 1.977,1.164 0.586,0.321 1.573,0.376 2.12,0.377 0.269,-0.016 0.956,-0.059 1.314,-0.144 0.727,-0.175 0.861,-0.18 1.61,-0.505 0.673,-0.312 1.129,-0.424 1.597,-0.77 0,0 0.642,-0.504 0.935,-0.872 0.155,-0.195 0.418,-1.121 0.372,-1.695 -0.022,-0.786 0.092,-1.232 -0.069,-1.879 -0.16,-0.646 -0.434,-1.396 -0.73,-1.858 -0.301,-0.467 -0.947,-0.923 -1.683,-1.286 -0.412,-0.203 -1.388,-0.392 -1.801,-0.441 -0.787,-0.093 -1.444,0.264 -1.844,0.672 -0.346,0.396 -1.03,1.218 -0.758,2.068 0.247,0.769 0.545,1.588 1.698,1.527 0.792,0.165 1.708,-0.074 2.013,0.067 0.452,0.257 0.626,0.824 0.461,1.22 -0.114,0.763 -0.846,0.855 -1.625,0.913 -0.698,0.117 -2.471,-0.225 -2.861,-0.517 -0.261,-0.155 -0.661,-0.529 -0.943,-0.78 -0.203,-0.181 -0.432,-0.586 -0.588,-0.876 -0.193,-0.356 -0.29,-0.619 -0.339,-0.852 -0.059,-0.275 -0.18,-0.802 -0.134,-1.329 0.03,-0.355 0.125,-0.506 0.22,-1.026 0.189,-0.588 0.423,-1.037 0.8,-1.548 0.491,-0.498 1.115,-1.091 1.723,-1.367 0.537,-0.284 1.477,-0.388 2.328,-0.338 0.69,0.066 1.507,0.15 2.046,0.331 0.924,0.33 1.188,0.396 1.946,0.875 0.642,0.396 1.286,1.126 1.646,1.73 0.765,1.566 1.204,3.308 0.885,5.653 -0.026,0.396 -0.149,0.784 -0.397,1.308 -0.227,0.485 -0.627,1.073 -1.228,1.517 -0.241,0.224 -0.623,0.499 -0.934,0.66 -0.439,0.267 -0.736,0.407 -1.196,0.638 -0.403,0.189 -0.874,0.406 -1.488,0.577 -0.665,0.262 -1.175,0.273 -2.011,0.399 -0.823,0.206 -3.075,0.058 -4.417,-0.534 -0.915,-0.385 -1.943,-1.063 -2.724,-1.891 -0.434,-0.454 -0.859,-1.279 -0.983,-1.448 -0.621,-1.194 -0.743,-2.318 -0.842,-2.553 -0.136,-0.321 -0.203,-1.04 -0.294,-1.532 -0.102,-0.551 -0.039,-2.863 0.518,-4.347 0.314,-0.591 0.498,-1.118 0.71,-1.395 0.381,-0.543 0.566,-0.882 0.891,-1.267 0.489,-0.593 0.845,-1.077 1.322,-1.419 1.215,-0.988 2.229,-1.508 3.602,-2.161 1.705,-0.694 2.217,-0.551 3.831,-0.525 0.726,0.006 1.783,0.235 2.303,0.33 0.964,0.128 1.517,0.36 2.17,0.542 0.697,0.195 1.1,0.506 1.673,0.852 0.471,0.304 1.026,0.721 1.392,1.06 0.938,0.688 1.389,1.409 1.964,2.296 0.104,0.149 0.786,1.603 0.894,2.007 0.051,0.203 0.205,0.785 0.305,1.125 0.127,0.539 0.189,1.017 0.331,1.626 0.127,0.627 0.343,1.811 0.437,2.918 0.158,0.949 -0.095,2.887 -0.245,3.482 -0.331,1.109 -0.912,2.463 -2.058,3.766 -0.487,0.577 -1.004,1.025 -1.603,1.511 -0.457,0.381 -0.85,0.604 -1.557,1.026 -0.959,0.572 -1.689,0.938 -3.035,1.464 -0.548,0.176 -1.238,0.407 -1.982,0.561 -1.441,0.133 -2.922,0.261 -4.538,0.069 -1.617,-0.192 -3.237,-0.649 -4.193,-0.942 -0.528,-0.198 -1.55,-0.627 -1.979,-0.857 -0.279,-0.142 -1.215,-0.782 -1.373,-0.936 -0.641,-0.397 -2.075,-1.745 -3.001,-3.003 -0.203,-0.388 -0.933,-1.554 -1.091,-2.064 -0.421,-0.865 -0.714,-1.909 -0.886,-2.356 -0.182,-1.042 -0.489,-1.712 -0.609,-2.759 0.014,-0.245 -0.049,-0.825 -0.106,-1.145 0.082,-0.716 -0.027,-1.391 0.115,-2.17 0.125,-0.658 0.29,-0.932 0.329,-1.527 0.039,-0.254 0.366,-1.018 0.453,-1.359 0.264,-0.56 0.33,-1.022 0.674,-1.648 0.498,-0.976 1.017,-2.099 1.815,-3.081 0.227,-0.303 0.873,-1.033 1.093,-1.286 0.521,-0.521 0.826,-0.603 1.417,-1.125 0.061,-0.038 0.451,-0.483 0.859,-0.636 0.677,-0.522 1.261,-0.714 1.905,-1.19 1.29,-0.642 1.761,-0.859 3.042,-1.392 0.74,-0.264 1.773,-0.41 2.145,-0.555 0.706,-0.043 1.424,-0.269 2.168,-0.224 0.836,-0.008 1.677,0.052 2.516,0.128 0.568,0.035 1.306,0.062 2.308,0.28l0 0 0 0 0 0zm24.126 41.584l-0.332 0 0 -1.747 -0.448 0 0 -0.291 1.225 0 0 0.291 -0.445 0 0 1.747zm0.983 0l-0.291 0 0 -2.038 0.472 0 0.34 1.517 0.338 -1.517 0.474 0 0 2.038 -0.317 0 0 -1.604 -0.37 1.604 -0.276 0 -0.37 -1.604 0 1.604z"/>
   <path class="fil11" d="M417.746 77.081l3.129 3.227 0.954 -0.466 -0.594 -4.463 -0.874 0.426 0.442 3.123 -2.178 -2.276 -0.879 0.429zm4.923 -2.401l-0.847 0.413 1.872 3.84 0.847 -0.414 -1.872 -3.839zm1.001 -0.488l1.872 3.839 1.92 -0.936c0.378,-0.185 0.64,-0.436 0.787,-0.754 0.147,-0.319 0.132,-0.66 -0.045,-1.023 -0.24,-0.493 -0.626,-0.692 -1.158,-0.597 0.126,-0.15 0.203,-0.318 0.229,-0.502 0.026,-0.184 -0.005,-0.366 -0.093,-0.545 -0.158,-0.324 -0.39,-0.51 -0.696,-0.559 -0.307,-0.048 -0.639,0.015 -0.999,0.191l-1.817 0.886zm1.138 0.252l0.765 -0.373c0.195,-0.095 0.365,-0.139 0.51,-0.132 0.146,0.007 0.262,0.098 0.348,0.274 0.146,0.299 0.006,0.551 -0.418,0.758l-0.766 0.374 -0.439 -0.901zm0.718 1.472l0.803 -0.391c0.234,-0.114 0.435,-0.169 0.605,-0.165 0.168,0.005 0.304,0.111 0.405,0.319 0.1,0.205 0.104,0.375 0.011,0.509 -0.092,0.134 -0.248,0.255 -0.467,0.362l-0.847 0.413 -0.51 -1.047zm2.241 -3.722l1.872 3.839 0.836 -0.408 -0.733 -1.504 0.749 -0.366c0.269,-0.131 0.483,-0.171 0.64,-0.118 0.157,0.052 0.315,0.206 0.476,0.462 0.007,0.014 0.049,0.088 0.127,0.221 0.079,0.133 0.147,0.24 0.204,0.322 0.057,0.08 0.114,0.143 0.171,0.186l0.873 -0.426c-0.04,-0.011 -0.085,-0.038 -0.133,-0.081 -0.048,-0.044 -0.096,-0.103 -0.146,-0.176 -0.049,-0.074 -0.091,-0.137 -0.125,-0.189 -0.034,-0.053 -0.078,-0.124 -0.131,-0.214 -0.053,-0.09 -0.083,-0.144 -0.092,-0.162 -0.305,-0.505 -0.639,-0.712 -1.003,-0.619 0.156,-0.164 0.246,-0.357 0.272,-0.576 0.027,-0.22 -0.014,-0.442 -0.123,-0.665 -0.178,-0.366 -0.432,-0.581 -0.761,-0.643 -0.328,-0.062 -0.683,0 -1.064,0.186l-1.909 0.931zm1.159 0.255l0.836 -0.408c0.215,-0.105 0.405,-0.152 0.567,-0.143 0.163,0.01 0.294,0.115 0.392,0.316 0.105,0.216 0.11,0.393 0.015,0.531 -0.096,0.138 -0.26,0.263 -0.494,0.377l-0.798 0.389 -0.518 -1.062zm4.871 -3.203l-0.868 0.423 0.414 4.558 0.863 -0.421 -0.106 -1.01 1.429 -0.697 0.72 0.71 0.885 -0.431 -3.337 -3.132zm1.227 2.338l-1.019 0.497 -0.185 -1.679 1.204 1.182zm3.277 -4.528l-3.155 1.538 0.35 0.717 1.154 -0.562 1.523 3.122 0.847 -0.413 -1.523 -3.123 1.154 -0.562 -0.35 -0.717zm1.552 -0.757l-0.847 0.413 1.873 3.839 0.846 -0.413 -1.872 -3.839zm2.698 -1.43c-0.574,0.281 -0.946,0.69 -1.113,1.227 -0.167,0.538 -0.103,1.111 0.194,1.718 0.292,0.6 0.703,1 1.232,1.198 0.528,0.198 1.076,0.159 1.644,-0.118 0.564,-0.275 0.93,-0.681 1.098,-1.219 0.167,-0.538 0.104,-1.107 -0.189,-1.707 -0.293,-0.601 -0.703,-1.002 -1.232,-1.205 -0.528,-0.203 -1.073,-0.167 -1.634,0.106zm0.326 0.696c0.32,-0.156 0.631,-0.162 0.933,-0.018 0.302,0.144 0.551,0.418 0.747,0.82 0.2,0.41 0.266,0.778 0.198,1.105 -0.067,0.327 -0.261,0.568 -0.581,0.724 -0.328,0.156 -0.644,0.163 -0.944,0.02 -0.301,-0.142 -0.553,-0.42 -0.754,-0.833 -0.195,-0.399 -0.256,-0.764 -0.183,-1.093 0.073,-0.329 0.268,-0.571 0.584,-0.725zm4.313 1.908l0.815 -0.398 -1.257 -2.577 2.848 1.801 0.841 -0.41 -1.873 -3.839 -0.808 0.395 1.254 2.572 -2.835 -1.802 -0.857 0.418 1.872 3.84z"/>
   <path class="fil11" d="M416.245 92.519c-0.575,0.281 -0.947,0.69 -1.114,1.227 -0.167,0.538 -0.103,1.111 0.194,1.719 0.292,0.6 0.703,0.999 1.232,1.198 0.528,0.198 1.076,0.158 1.644,-0.118 0.564,-0.276 0.931,-0.682 1.098,-1.22 0.167,-0.538 0.104,-1.107 -0.189,-1.707 -0.292,-0.601 -0.703,-1.002 -1.232,-1.205 -0.528,-0.203 -1.072,-0.167 -1.633,0.106zm0.326 0.696c0.319,-0.156 0.63,-0.163 0.932,-0.018 0.302,0.144 0.551,0.418 0.748,0.82 0.2,0.41 0.265,0.779 0.198,1.105 -0.068,0.327 -0.262,0.568 -0.582,0.724 -0.328,0.156 -0.644,0.163 -0.944,0.02 -0.301,-0.142 -0.553,-0.42 -0.754,-0.833 -0.195,-0.4 -0.256,-0.764 -0.183,-1.093 0.073,-0.329 0.268,-0.571 0.585,-0.725zm5.147 -3.252l-2.707 1.32 1.873 3.84 0.841 -0.411 -0.768 -1.574 1.623 -0.792 -0.326 -0.669 -1.623 0.792 -0.434 -0.89 1.866 -0.91 -0.345 -0.706zm3.461 -1.688l-2.707 1.321 1.872 3.839 0.842 -0.411 -0.768 -1.574 1.623 -0.791 -0.326 -0.669 -1.623 0.791 -0.434 -0.89 1.865 -0.909 -0.344 -0.707z"/>
   <path class="fil11" d="M457.606 72.346c-0.575,0.28 -0.946,0.689 -1.113,1.227 -0.168,0.538 -0.103,1.111 0.193,1.718 0.293,0.6 0.704,1 1.232,1.198 0.529,0.198 1.077,0.159 1.645,-0.118 0.564,-0.275 0.93,-0.682 1.097,-1.219 0.167,-0.538 0.105,-1.107 -0.188,-1.707 -0.293,-0.601 -0.704,-1.002 -1.232,-1.205 -0.528,-0.203 -1.073,-0.168 -1.634,0.106zm0.326 0.695c0.32,-0.156 0.631,-0.162 0.932,-0.017 0.303,0.144 0.551,0.418 0.748,0.82 0.2,0.41 0.266,0.778 0.198,1.105 -0.068,0.327 -0.261,0.568 -0.581,0.724 -0.329,0.156 -0.644,0.163 -0.945,0.02 -0.301,-0.142 -0.552,-0.42 -0.754,-0.834 -0.194,-0.399 -0.255,-0.763 -0.182,-1.092 0.073,-0.33 0.268,-0.571 0.584,-0.726zm4.313 1.908l0.815 -0.397 -1.258 -2.577 2.848 1.801 0.841 -0.41 -1.872 -3.839 -0.809 0.394 1.255 2.573 -2.835 -1.802 -0.857 0.418 1.872 3.839z"/>
  </g>
  <g id="holes">
   <ellipse class="fil8" cx="294" cy="224.254" rx="23.811" ry="13.795"/>
   <circle class="fil8" cx="366.143" cy="179.526" r="27.78"/>
   <circle class="fil8" cx="426.02" cy="145.26" r="27.78"/>
   <circle class="fil8" cx="487.7" cy="119.289" r="27.78"/>
   <circle class="fil8" cx="397.524" cy="240.485" r="27.78"/>
   <circle class="fil8" cx="455.958" cy="206.94" r="27.78"/>
   <circle class="fil8" cx="515.835" cy="180.609" r="27.78"/>
  </g>
  <g id="dpad">
   <circle class="fil12 shd1" cx="138.901" cy="191.791" r="55.937"/>
   <path class="fil13" d="M111.851 175.972l-23.492 0c5.166,-16.519 18.204,-29.558 34.723,-34.723l-0.005 23.496c0,6.201 -5.026,11.227 -11.226,11.227zm0 31.637l-23.492 0c5.165,16.52 18.205,29.558 34.723,34.723l-0.005 -23.496c0,-6.2 -5.026,-11.227 -11.226,-11.227zm42.874 11.227l-0.005 23.496c16.52,-5.165 29.558,-18.204 34.723,-34.723l-23.491 0c-6.201,0 -11.227,5.027 -11.227,11.227zm11.227 -42.864l23.491 0c-5.165,-16.519 -18.204,-29.558 -34.723,-34.723l0.005 23.496c0,6.201 5.026,11.227 11.227,11.227z"/>
   <path class="fil14" d="M102.55 226.442l3.315 -6.761c0.186,-0.378 0.518,-0.626 0.934,-0.695 0.413,-0.068 0.81,0.059 1.106,0.355l3.445 3.445c0.297,0.297 0.424,0.693 0.356,1.107 -0.07,0.416 -0.317,0.747 -0.695,0.934l-6.761 3.315c-0.494,0.243 -1.069,0.148 -1.459,-0.241 -0.389,-0.39 -0.484,-0.965 -0.241,-1.459zm69.387 -6.761l3.315 6.761c0.243,0.494 0.148,1.069 -0.241,1.459 -0.39,0.389 -0.965,0.484 -1.459,0.241l-6.76 -3.315c-0.378,-0.186 -0.627,-0.518 -0.695,-0.934 -0.068,-0.413 0.058,-0.81 0.355,-1.107l3.445 -3.445c0.296,-0.296 0.693,-0.423 1.107,-0.355 0.415,0.069 0.748,0.317 0.933,0.695zm-5.145 -60.926l6.76 -3.316c0.494,-0.242 1.07,-0.147 1.459,0.242 0.39,0.389 0.484,0.964 0.241,1.459l-3.315 6.76c-0.185,0.379 -0.518,0.626 -0.933,0.694 -0.414,0.069 -0.811,-0.058 -1.107,-0.354l-3.445 -3.445c-0.297,-0.296 -0.423,-0.693 -0.355,-1.107 0.068,-0.416 0.317,-0.748 0.695,-0.933zm-62.542 -3.316l6.761 3.316c0.378,0.186 0.625,0.517 0.695,0.933 0.068,0.414 -0.059,0.811 -0.356,1.107l-3.445 3.445c-0.296,0.296 -0.693,0.423 -1.106,0.354 -0.417,-0.068 -0.748,-0.315 -0.934,-0.694l-3.315 -6.76c-0.243,-0.494 -0.148,-1.07 0.241,-1.459 0.39,-0.389 0.965,-0.484 1.459,-0.242z"/>
   <path class="fil15" d="M106.36 219.923l-3.316 6.76c-0.138,0.283 -0.085,0.603 0.138,0.826 0.223,0.223 0.543,0.277 0.826,0.138l6.761 -3.315c0.216,-0.107 0.352,-0.29 0.392,-0.528 0.04,-0.241 -0.03,-0.455 -0.202,-0.627l-3.445 -3.445c-0.172,-0.173 -0.385,-0.241 -0.627,-0.202 -0.238,0.04 -0.421,0.176 -0.527,0.393zm68.398 6.76l-3.316 -6.76c-0.105,-0.217 -0.29,-0.353 -0.527,-0.393 -0.241,-0.039 -0.455,0.029 -0.627,0.202l-3.445 3.445c-0.173,0.173 -0.241,0.386 -0.202,0.627 0.039,0.238 0.177,0.421 0.392,0.528l6.761 3.315c0.284,0.139 0.603,0.085 0.826,-0.138 0.223,-0.223 0.277,-0.543 0.138,-0.826zm-0.964 -70.75l-6.761 3.316c-0.215,0.106 -0.353,0.29 -0.392,0.527 -0.039,0.241 0.029,0.455 0.202,0.627l3.445 3.445c0.172,0.173 0.386,0.242 0.627,0.202 0.237,-0.039 0.422,-0.176 0.527,-0.393l3.316 -6.76c0.139,-0.283 0.085,-0.603 -0.138,-0.826 -0.223,-0.222 -0.543,-0.277 -0.826,-0.138zm-63.025 3.316l-6.761 -3.316c-0.283,-0.139 -0.603,-0.084 -0.826,0.138 -0.223,0.223 -0.277,0.543 -0.138,0.826l3.316 6.76c0.106,0.217 0.289,0.354 0.527,0.393 0.241,0.04 0.455,-0.029 0.627,-0.202l3.445 -3.445c0.172,-0.172 0.242,-0.386 0.202,-0.627 -0.04,-0.237 -0.176,-0.421 -0.392,-0.527z"/>
   <path class="fil16" d="M151.733 145.85l0 17.897c0,8.401 6.81,15.212 15.211,15.212l17.897 0c1.425,0 2.625,0.969 2.922,2.363 0.72,3.375 1.101,6.877 1.101,10.468 0,3.591 -0.381,7.094 -1.101,10.469 -0.297,1.394 -1.496,2.364 -2.922,2.364l-17.897 0c-8.401,0 -15.211,6.81 -15.211,15.211l0 17.897c0,1.425 -0.969,2.624 -2.363,2.921 -3.375,0.721 -6.878,1.102 -10.469,1.102 -3.59,0 -7.093,-0.381 -10.469,-1.102 -1.393,-0.297 -2.363,-1.496 -2.363,-2.921l0 -17.897c0,-8.401 -6.81,-15.211 -15.211,-15.211l-17.897 0c-1.425,0 -2.624,-0.97 -2.922,-2.364 -0.72,-3.375 -1.101,-6.877 -1.101,-10.469 0,-3.59 0.381,-7.093 1.101,-10.468 0.298,-1.394 1.497,-2.363 2.922,-2.363l17.897 0c8.401,0 15.211,-6.811 15.211,-15.212l0 -17.897c0,-1.425 0.97,-2.624 2.363,-2.921 3.376,-0.721 6.878,-1.101 10.469,-1.101 3.591,0 7.094,0.38 10.469,1.101 1.394,0.297 2.363,1.496 2.363,2.921z"/>
   <path class="fil17" d="M151.733 145.85l0 17.897c0,8.401 6.81,15.212 15.212,15.212l17.896 0c1.425,0 2.625,0.969 2.922,2.363 0.72,3.375 1.101,6.878 1.101,10.468 0,3.591 -0.381,7.094 -1.101,10.469 -0.297,1.394 -1.497,2.364 -2.922,2.364l-17.896 0c-8.402,0 -15.212,6.81 -15.212,15.211l0 17.897c0,1.425 -0.969,2.624 -2.363,2.921 -3.376,0.721 -6.877,1.102 -10.469,1.102 -3.591,0 -7.093,-0.381 -10.469,-1.102 -1.393,-0.297 -2.363,-1.496 -2.363,-2.921l0 -17.897c0,-8.401 -6.81,-15.211 -15.211,-15.211l-17.897 0c-1.425,0 -2.624,-0.97 -2.922,-2.364 -0.72,-3.375 -1.101,-6.877 -1.101,-10.469 0,-3.59 0.381,-7.093 1.101,-10.468 0.298,-1.394 1.497,-2.363 2.922,-2.363l17.897 0c8.401,0 15.211,-6.811 15.211,-15.212l0 -17.897c0,-1.424 0.97,-2.624 2.363,-2.921 3.376,-0.721 6.878,-1.102 10.469,-1.102 3.591,0 7.093,0.381 10.469,1.102 1.394,0.297 2.363,1.496 2.363,2.921zm-2.986 17.897l0 -13.221c0,-0.965 -0.672,-1.776 -1.622,-1.956 -2.663,-0.504 -5.413,-0.768 -8.224,-0.768 -2.811,0 -5.561,0.264 -8.225,0.768 -0.949,0.18 -1.621,0.991 -1.621,1.956l0.001 13.221c0,5.025 -2.037,9.575 -5.33,12.868 -3.293,3.293 -7.844,5.33 -12.868,5.33l-13.221 0c-0.966,0 -1.777,0.672 -1.956,1.621 -0.504,2.664 -0.769,5.414 -0.769,8.224 0,2.812 0.264,5.561 0.769,8.226 0.179,0.949 0.99,1.621 1.956,1.621l13.221 -0.001c5.024,0 9.575,2.037 12.868,5.33 3.293,3.293 5.33,7.843 5.33,12.868l0 13.221c0,0.966 0.672,1.777 1.621,1.956 2.664,0.504 5.413,0.769 8.224,0.769 2.811,0 5.561,-0.264 8.225,-0.769 0.949,-0.18 1.621,-0.99 1.621,-1.956l0 -13.221c0,-5.025 2.036,-9.575 5.329,-12.868 3.294,-3.293 7.844,-5.33 12.869,-5.33l13.22 0c0.966,0 1.777,-0.672 1.957,-1.621 0.503,-2.664 0.768,-5.413 0.768,-8.225 0,-2.81 -0.264,-5.56 -0.768,-8.225 -0.18,-0.949 -0.991,-1.621 -1.957,-1.621l-13.22 0.001c-5.025,0 -9.575,-2.037 -12.869,-5.33 -3.293,-3.293 -5.329,-7.843 -5.329,-12.868z"/>
   <path class="fil18" d="M150.24 149.073l-0.001 -2.191c0,-1.113 -0.773,-2.047 -1.866,-2.253 -3.068,-0.58 -6.234,-0.885 -9.472,-0.885 -3.238,0 -6.405,0.305 -9.473,0.885 -1.093,0.206 -1.868,1.141 -1.867,2.253l0 2.191c0,-1.113 0.774,-2.047 1.867,-2.253 3.069,-0.581 6.235,-0.885 9.473,-0.885 3.238,0 6.404,0.305 9.472,0.885 1.094,0.206 1.867,1.14 1.867,2.253zm-54.233 31.831c-1.536,0 -2.827,0.633 -3.147,1.542 0.163,-1.489 0.823,-2.527 1.606,-2.527l16.392 0c9.225,0 16.703,-7.24 16.703,-16.172 0,9.475 -7.478,17.157 -16.703,17.157l-14.851 0zm85.789 0c1.535,0 2.826,0.633 3.147,1.542 -0.164,-1.489 -0.823,-2.527 -1.606,-2.527l-16.392 0c-9.225,0 -16.703,-7.24 -16.703,-16.172 0,9.475 7.478,17.157 16.703,17.157l14.851 0z"/>
   <circle class="fil19" cx="138.901" cy="191.791" r="10.282"/>
  </g>
 </g>
</svg>
