<?xml version="1.0" encoding="UTF-8"?>
<!DOCTYPE svg PUBLIC "-//W3C//DTD SVG 1.1//EN" "http://www.w3.org/Graphics/SVG/1.1/DTD/svg11.dtd">
<svg xml:space="preserve" viewBox="0 0 876 372" width="876px" height="372px" version="1.1" style="shape-rendering:geometricPrecision; fill-rule:evenodd; clip-rule:evenodd" xmlns="http://www.w3.org/2000/svg">
 <defs>
  <style type="text/css">
    .str0 {stroke:#851515;stroke-linejoin:round}
    .str1 {stroke:#1A1A1A;stroke-width:5}
    .str2 {stroke:#FFF099;stroke-width:1.5}
    .fil0 {fill:#D02020}
    .fil1 {fill:#FF5B5B}
    .fil2 {fill:#9E1919}
    .fil3 {fill:#851515}
    .fil4 {fill:#FFF099}
    .fil5 {fill:none}
    .fil6 {fill:black}
    .fil7 {fill:#1A1A1A}
    .fil8 {fill:url(#id0)}
    .fil9 {fill:#202020}
    .fil10 {fill:black;fill-opacity:0.5}
  </style>
  <linearGradient id="id0" gradientUnits="userSpaceOnUse" x1="510.972" y1="304.624" x2="510.972" y2="227.361">
   <stop offset="0" style="stop-opacity:1; stop-color:#FF5B5B"/>
   <stop offset="0.2" style="stop-opacity:1; stop-color:#FF5B5B"/>
   <stop offset="0.5" style="stop-opacity:1; stop-color:#D02020"/>
   <stop offset="0.8" style="stop-opacity:1; stop-color:#9E1919"/>
   <stop offset="1" style="stop-opacity:1; stop-color:#9E1919"/>
  </linearGradient>
 </defs>
 <g>
  <path class="fil0" d="M3.712 180.236l0 142.106c0,25.575 20.732,46.308 46.306,46.308l775.964 0c25.574,0 46.306,-20.733 46.306,-46.308l0 -272.684c0,-25.575 -20.732,-46.308 -46.306,-46.308 -268.83,0 -512.26,0 -775.964,0 -25.574,0 -46.306,20.733 -46.306,46.308l0 10c0,8.264 4.925,15.378 12,18.567l0 83.445c-7.075,3.189 -12,10.302 -12,18.566z"/>
  <path class="fil1" d="M825.982 8.35c25.574,0 46.306,20.733 46.306,46.308l0 -5c0,-25.575 -20.732,-46.308 -46.306,-46.308l-775.964 0c-25.574,0 -46.306,20.733 -46.306,46.308l0 5c0,-25.575 20.732,-46.308 46.306,-46.308l775.964 0z"/>
  <path class="fil2" d="M3.712 317.342l0 5c0,25.575 20.732,46.308 46.306,46.308l775.964 0c25.574,0 46.306,-20.733 46.306,-46.308l0 -5c0,25.575 -20.732,46.308 -46.306,46.308l-775.964 0c-25.574,0 -46.306,-20.733 -46.306,-46.308z"/>
  <path class="fil3" d="M50.018 15.349c-18.947,0 -34.306,15.36 -34.306,34.307l0 28.569c-1.051,-0.474 -2.054,-1.034 -3,-1.672l0 -26.897c0,-20.604 16.702,-37.306 37.306,-37.306l775.964 0c20.604,0 37.307,16.702 37.307,37.306 0,12.589 0,25.178 0,37.768 0,1.656 -1.344,2.999 -3,2.999l-6.001 0 0 34.171 6.001 0c1.656,0 3,1.343 3,3 0,64.916 0,129.834 0,194.75 0,20.604 -16.703,37.307 -37.307,37.307l-775.964 0c-20.604,0 -37.306,-16.703 -37.306,-37.307l0 -159.003c0.946,-0.637 1.949,-1.198 3,-1.671l0 160.674c0,18.947 15.359,34.307 34.306,34.307l775.964 0c18.947,0 34.307,-15.36 34.307,-34.307 0,-64.916 0,-129.834 0,-194.75l-6.001 0c-1.656,0 -3,-1.344 -3,-3l0 -34.171c0,-1.656 1.344,-2.999 3,-2.999l6.001 0c0,-12.59 0,-25.179 0,-37.768 0,-18.947 -15.36,-34.307 -34.307,-34.307l-775.964 0z"/>
  <path class="fil1" d="M825.982 15.349l-775.964 0c-18.947,0 -34.306,15.36 -34.306,34.307l0 5c0,-18.947 15.359,-34.306 34.306,-34.306l775.964 0c18.947,0 34.307,15.359 34.307,34.306l0 -5c0,-18.947 -15.36,-34.307 -34.307,-34.307z"/>
  <path class="fil2" d="M15.712 317.344l0 5c0,18.947 15.359,34.307 34.306,34.307l775.964 0c18.947,0 34.307,-15.36 34.307,-34.307l0 -5c0,18.947 -15.36,34.307 -34.307,34.307l-775.964 0c-18.947,0 -34.306,-15.36 -34.306,-34.307z"/>
  <path class="fil4 str0" d="M50.018 37.349l288.84 0c6.768,0 12.306,5.538 12.306,12.307l0 114.327c0,6.769 5.538,12.307 12.307,12.307l462.511 0c6.769,0 12.307,5.538 12.307,12.306l0 133.748c0,6.769 -5.538,12.307 -12.307,12.307l-775.964 0c-6.769,0 -12.307,-5.538 -12.307,-12.307l0 -272.688c0,-6.769 5.538,-12.307 12.307,-12.307z"/>
  <path class="fil5 str1" d="M37.711 276.738l800.578 0m0 12.508l-800.578 0"/>
  <path class="fil6" d="M611.521 181.653c16.376,0 -2.205,0 14.17,0 9.4,0 17.02,7.62 17.02,17.02 0,9.4 -7.62,17.02 -17.02,17.02 -16.375,0 2.206,0 -14.17,0 -9.4,0 -17.02,-7.62 -17.02,-17.02 0,-9.4 7.62,-17.02 17.02,-17.02z"/>
  <path class="fil4" d="M610.098 209.675l9.319 0c5.002,0 7.697,-2.519 7.697,-6.196 0,-3.134 -2.06,-5.017 -4.74,-5.265l0 -0.03c2.408,-0.604 3.924,-2.302 3.924,-4.856 0,-3.39 -2.65,-5.657 -7.385,-5.657l-8.815 0 0 22.004zm4.443 -3.567l0 -5.863 4.312 0c2.292,0 3.636,1.148 3.636,2.982 0,1.833 -1.375,2.881 -3.706,2.881l-4.242 0zm0 -9.278l0 -5.592 4.035 0c1.995,0 3.218,1.083 3.218,2.8 0,1.708 -1.223,2.792 -3.218,2.792l-4.035 0z"/>
  <path class="fil6" d="M726.524 181.653c16.376,0 -2.206,0 14.17,0 9.4,0 17.02,7.62 17.02,17.02 0,9.4 -7.62,17.02 -17.02,17.02 -16.376,0 2.206,0 -14.17,0 -9.4,0 -17.02,-7.62 -17.02,-17.02 0,-9.4 7.62,-17.02 17.02,-17.02z"/>
  <path class="fil4" d="M722.97 209.675l4.901 0 1.592 -4.806 8.216 0 1.536 4.806 5.033 0 -7.717 -22.004 -5.844 0 -7.717 22.004zm7.717 -8.433l0.751 -2.272c0.71,-2.247 1.39,-4.488 2.186,-7.223 0.781,2.735 1.461,4.976 2.141,7.223l0.735 2.272 -5.813 0z"/>
  <path class="fil7" d="M321.634 207.683c2.642,0 4.346,-1.374 4.346,-3.464 0,-1.662 -1.075,-2.667 -3.408,-3.219l-1.259 -0.296c-1.605,-0.384 -2.229,-0.867 -2.229,-1.709 0,-1.051 0.992,-1.793 2.4,-1.793 1.469,0 2.424,0.819 2.512,2.152l1.672 0c-0.069,-2.269 -1.65,-3.666 -4.16,-3.666 -2.501,0 -4.136,1.352 -4.136,3.395 0,1.605 1.022,2.578 3.368,3.133l1.278 0.304c1.618,0.381 2.234,0.896 2.234,1.792 0,1.13 -1.04,1.856 -2.618,1.856 -1.744,0 -2.769,-0.904 -2.777,-2.44l-1.72 0c0,2.456 1.707,3.955 4.497,3.955zm6.01 -0.174l7.821 0 0 -1.52 -6.093 0 0 -3.667 5.64 0 0 -1.498 -5.64 0 0 -3.443 6.093 0 0 -1.52 -7.821 0 0 11.648zm9.421 0l7.235 0 0 -1.52 -5.507 0 0 -10.128 -1.728 0 0 11.648zm8.68 0l7.822 0 0 -1.52 -6.094 0 0 -3.667 5.641 0 0 -1.498 -5.641 0 0 -3.443 6.094 0 0 -1.52 -7.822 0 0 11.648zm14.403 0.176c2.541,0 4.509,-1.568 4.907,-4.04l-1.757 0c-0.369,1.576 -1.555,2.456 -3.134,2.456 -2.296,0 -3.701,-1.778 -3.701,-4.408 0,-2.645 1.405,-4.424 3.701,-4.424 1.587,0 2.781,0.888 3.125,2.472l1.766 0c-0.405,-2.48 -2.366,-4.056 -4.907,-4.056 -3.219,0 -5.429,2.427 -5.429,6.008 0,3.557 2.218,5.992 5.429,5.992zm5.896 -10.304l3.709 0 0 10.128 1.744 0 0 -10.128 3.694 0 0 -1.52 -9.147 0 0 1.52z"/>
  <path class="fil7" d="M447.898 207.683c2.643,0 4.347,-1.374 4.347,-3.464 0,-1.662 -1.075,-2.667 -3.408,-3.219l-1.259 -0.296c-1.605,-0.384 -2.229,-0.867 -2.229,-1.709 0,-1.051 0.992,-1.793 2.4,-1.793 1.469,0 2.424,0.819 2.512,2.152l1.672 0c-0.069,-2.269 -1.651,-3.666 -4.16,-3.666 -2.502,0 -4.136,1.352 -4.136,3.395 0,1.605 1.021,2.578 3.368,3.133l1.277 0.304c1.619,0.381 2.235,0.896 2.235,1.792 0,1.13 -1.04,1.856 -2.619,1.856 -1.744,0 -2.768,-0.904 -2.776,-2.44l-1.72 0c0,2.456 1.707,3.955 4.496,3.955zm5.059 -10.302l3.709 0 0 10.128 1.744 0 0 -10.128 3.694 0 0 -1.52 -9.147 0 0 1.52zm8.093 10.128l1.843 0 1.064 -3.024 4.69 0 1.032 3.024 1.883 0 -4.195 -11.648 -2.093 0 -4.224 11.648zm3.429 -4.496l0.726 -2.064c0.32,-0.963 0.656,-1.989 1.125,-3.498 0.461,1.509 0.789,2.535 1.11,3.498l0.701 2.064 -3.662 0zm8.288 4.496l1.728 0 0 -4.416 2.579 0c0.024,0 0.056,0 0.077,0l2.323 4.416 1.952 0 -2.515 -4.704c1.453,-0.523 2.336,-1.69 2.336,-3.317 0,-2.227 -1.563,-3.624 -4.056,-3.624l-4.424 0 0 11.645zm1.728 -5.888l0 -4.258 2.619 0c1.499,0 2.421,0.813 2.421,2.125 0,1.314 -0.914,2.133 -2.413,2.133l-2.627 0zm7.454 -4.24l3.709 0 0 10.128 1.744 0 0 -10.128 3.693 0 0 -1.52 -9.146 0 0 1.52z"/>
  <path class="fil0 str0" d="M329.204 220.68c-25.023,0 -45.312,20.287 -45.312,45.313 0,25.026 20.287,45.313 45.312,45.313l155.004 0c25.026,0 45.313,-20.287 45.313,-45.313 0,-25.026 -20.289,-45.313 -45.313,-45.313l-155.004 0z"/>
  <path class="fil8" d="M329.204 304.625c-21.335,0 -38.632,-17.296 -38.632,-38.632 0,-21.336 17.296,-38.632 38.632,-38.632 51.668,0 103.336,0 155.004,0 21.336,0 38.632,17.296 38.632,38.632 0,21.336 -17.296,38.632 -38.632,38.632 -51.668,0 -103.336,0 -155.004,0z"/>
  <path class="fil0" d="M484.208 243.7c12.312,0 22.293,9.981 22.293,22.293 0,12.312 -9.981,22.293 -22.293,22.293l-155.004 0c-12.311,0 -22.292,-9.981 -22.292,-22.293 0,-12.312 9.98,-22.293 22.292,-22.293l155.004 0z"/>
  <path class="fil6" d="M373.124 251.687c7.901,0 14.306,6.405 14.306,14.306 0,7.902 -6.405,14.307 -14.306,14.307l-43.92 0c-7.901,0 -14.306,-6.405 -14.306,-14.307 0,-7.901 6.405,-14.306 14.306,-14.306l43.92 0z"/>
  <path class="fil6" d="M484.209 251.687c7.901,0 14.306,6.405 14.306,14.306 0,7.902 -6.405,14.307 -14.306,14.307l-43.92 0c-7.901,0 -14.306,-6.405 -14.306,-14.307 0,-7.901 6.405,-14.306 14.306,-14.306l43.92 0z"/>
  <path class="fil0 str0" d="M226.64 260.175c6.87,0.008 12.439,-5.57 12.439,-12.44l0 -44.071c0,-6.87 -5.571,-12.431 -12.439,-12.439l-35.995 -0.047c-1.458,-0.001 -2.651,-1.189 -2.651,-2.649l0 -36.041c0,-6.87 -5.571,-12.439 -12.439,-12.439l-44.072 0c-6.869,0 -12.439,5.571 -12.439,12.439l0 36.041c0,1.459 -1.193,2.648 -2.652,2.65l-35.905 0.046c-6.869,0.008 -12.439,5.57 -12.439,12.439l0 44.071c0,6.869 5.569,12.448 12.439,12.44l35.905 -0.046c1.46,-0.002 2.65,1.192 2.65,2.65l0.002 36.042c0,6.868 5.569,12.439 12.439,12.439l44.072 0c6.87,0 12.438,-5.569 12.439,-12.439l0.001 -36.043c0,-1.459 1.191,-2.651 2.65,-2.65l35.995 0.047z"/>
  <path class="fil6" d="M80.674 197.906c-3.317,0 -6.081,2.764 -6.081,5.804l0 43.98c0,3.04 2.764,5.804 6.081,5.804 13.552,0 27.105,0 40.657,0 2.474,0.015 4.394,1.944 4.394,4.422l0 40.628c0,3.317 2.764,6.081 6.08,6.081l43.704 0c3.316,0 5.804,-2.764 5.804,-6.08l0 -40.629c0,-2.487 2.211,-4.422 4.422,-4.422l40.905 0c3.317,0 5.804,-2.764 5.804,-6.08l0 -43.429c0,-3.316 -2.487,-6.08 -5.804,-6.08l-40.905 0c-2.211,0 -4.422,-1.934 -4.422,-4.422l0 -40.629c0,-3.316 -2.488,-6.08 -5.804,-6.08l-43.704 0c-3.316,0 -6.08,2.764 -6.08,6.081l0 40.628c0,2.478 -1.92,4.407 -4.394,4.422 -13.552,0 -27.105,0.001 -40.657,0.001z"/>
  <path class="fil9" d="M222.753 201.516l-40.628 0c-2.488,0 -4.422,-1.935 -4.422,-4.422l0 -40.629c0,-3.316 -2.764,-6.08 -5.805,-6.08l-36.482 0c-3.317,0 -6.081,2.764 -6.081,6.08l0 40.629c0,2.487 -1.935,4.422 -4.422,4.422l-40.628 0c-3.317,0 -6.081,2.764 -6.081,6.08l0 36.483c0,3.317 2.764,5.804 6.081,5.804l40.628 0c2.487,0 4.422,2.211 4.422,4.422l0 40.905c0,3.317 2.764,5.804 6.081,5.804l36.482 0c3.041,0 5.805,-2.487 5.805,-5.804l0 -40.905c0,-2.211 1.934,-4.422 4.422,-4.422l40.628 0c3.317,0 6.081,-2.487 6.081,-5.804l0 -36.483c0,-3.316 -2.764,-6.08 -6.081,-6.08z"/>
  <path class="fil10" d="M142.515 259.58l22.279 0c0.57,0 1.032,0.462 1.032,1.032l0 14.932 4.201 0c0.273,0.003 0.544,0.11 0.746,0.322 0.392,0.412 0.375,1.064 -0.036,1.455l-16.373 15.555c-0.395,0.376 -1.02,0.379 -1.419,0l-16.319 -15.503c-0.23,-0.189 -0.376,-0.477 -0.376,-0.798 0,-0.569 0.462,-1.031 1.032,-1.031l4.201 0 0 -14.932c0,-0.57 0.463,-1.032 1.032,-1.032zm-22.741 -45.02l0 22.279c0,0.57 -0.462,1.032 -1.032,1.032l-14.932 0 0 4.202c0,0.569 -0.462,1.031 -1.031,1.031 -0.321,0 -0.608,-0.146 -0.797,-0.376l-15.504 -16.319c-0.379,-0.399 -0.375,-1.024 0,-1.419l15.555 -16.373c0.392,-0.411 1.043,-0.428 1.455,-0.036 0.212,0.202 0.319,0.474 0.319,0.746l0.003 4.201 14.932 0c0.57,0 1.032,0.463 1.032,1.032zm52.149 11.004c0,-10.088 -8.18,-18.269 -18.268,-18.269 -10.088,0 -18.541,8.181 -18.541,18.269 0,10.088 8.453,18.54 18.541,18.54 10.088,0 18.268,-8.452 18.268,-18.54zm15.612 11.275l0 -22.279c0,-0.569 0.462,-1.032 1.032,-1.032l14.932 0 0 -4.201c0.003,-0.272 0.11,-0.544 0.322,-0.746 0.412,-0.392 1.064,-0.375 1.455,0.036l15.555 16.373c0.375,0.395 0.379,1.02 0,1.419l-15.503 16.319c-0.189,0.23 -0.477,0.376 -0.798,0.376 -0.569,0 -1.031,-0.462 -1.031,-1.031l0 -4.202 -14.932 0c-0.57,0 -1.032,-0.462 -1.032,-1.032zm-22.741 -45.02l-22.279 0c-0.569,0 -1.032,-0.462 -1.032,-1.032l0 -14.931 -4.201 0c-0.57,0 -1.032,-0.463 -1.032,-1.032 0,-0.321 0.146,-0.608 0.376,-0.797l16.319 -15.504c0.399,-0.379 1.024,-0.375 1.419,0l16.373 15.555c0.411,0.392 0.428,1.044 0.036,1.455 -0.202,0.213 -0.473,0.319 -0.746,0.319l-4.201 0.004 0 14.931c0,0.57 -0.462,1.032 -1.032,1.032z"/>
  <circle class="fil0 str0" cx="618.713" cy="265.993" r="45.3"/>
  <circle class="fil6" cx="618.713" cy="265.993" r="38.619"/>
  <circle class="fil0 str0" cx="733.716" cy="265.993" r="45.3"/>
  <circle class="fil6" cx="733.716" cy="265.993" r="38.619"/>
 </g>
</svg>
