<?xml version="1.0" encoding="UTF-8"?>
<!DOCTYPE svg PUBLIC "-//W3C//DTD SVG 1.1//EN" "http://www.w3.org/Graphics/SVG/1.1/DTD/svg11.dtd">
<svg viewBox="0 0 860 373.999" width="860px" height="374px" version="1.1" style="shape-rendering:geometricPrecision; fill-rule:evenodd; clip-rule:evenodd"  xmlns="http://www.w3.org/2000/svg">
 <defs>
  <style type="text/css">
    .fil0 {fill:red}
    .fil1 {fill:white}
  </style>
 </defs>
 <g>
  <path class="fil0" d="M672.666 3.016c101.611,0 183.984,82.373 183.984,183.984 0,101.611 -82.373,183.984 -183.984,183.984 -39.07,0 -75.294,-12.179 -105.086,-32.946 -8.755,-6.103 -17.919,-8.983 -28.592,-8.983l-217.977 0c-10.673,0 -19.837,2.88 -28.592,8.983 -29.792,20.767 -66.016,32.946 -105.085,32.946 -101.611,0 -183.984,-82.374 -183.984,-183.984 0,-101.611 82.373,-183.984 183.984,-183.984 39.069,0 75.293,12.178 105.085,32.945 8.755,6.104 17.92,8.983 28.592,8.983l217.977 0c10.673,0 19.837,-2.879 28.592,-8.983 29.792,-20.767 66.016,-32.945 105.086,-32.945z"/>
  <path class="fil1" d="M430 86.999c55.23,0 100,44.771 100,100.001 0,55.23 -44.77,100 -100,100 -55.23,0 -100,-44.77 -100,-100 0,-55.23 44.77,-100.001 100,-100.001zm12.475 105.032c1.823,1.826 1.823,4.805 0,6.629l-9.338 9.337 3.94 3.938c1.391,1.396 1.391,3.656 0,5.053l-9.26 9.255c-8.173,8.173 -20.399,9.814 -30.205,4.929l-20.347 20.35c14.364,11.757 32.723,18.813 52.735,18.813 46.024,0 83.335,-37.311 83.335,-83.335 0,-20.012 -7.056,-38.371 -18.812,-52.736l-20.334 20.334c4.887,9.801 3.246,22.034 -4.927,30.207l-9.26 9.26c-1.391,1.394 -3.652,1.394 -5.048,0l-31.986 -31.991c-1.399,-1.391 -1.399,-3.654 0,-5.048l9.255 -9.26c8.164,-8.161 20.371,-9.812 30.167,-4.946l20.345 -20.345c-14.364,-11.757 -32.725,-18.81 -52.735,-18.81 -46.024,0 -83.335,37.31 -83.335,83.335 0,20.01 7.054,38.371 18.81,52.735l20.359 -20.357c-4.865,-9.798 -3.217,-22.011 4.945,-30.17l9.259 -9.259c1.396,-1.397 3.657,-1.397 5.048,0l3.919 3.916 9.338 -9.337c1.823,-1.824 4.807,-1.824 6.63,0 1.824,1.826 1.824,4.804 0,6.628l-9.337 9.338 10.87 10.875 9.338 -9.338c1.824,-1.823 4.807,-1.823 6.631,0z"/>
 </g>
</svg>
