<?xml version="1.0" encoding="UTF-8"?>
<!DOCTYPE svg PUBLIC "-//W3C//DTD SVG 1.1//EN" "http://www.w3.org/Graphics/SVG/1.1/DTD/svg11.dtd">
<svg viewBox="0 0 860 373.999" width="860px" height="374px" version="1.1" style="shape-rendering:geometricPrecision; fill-rule:evenodd; clip-rule:evenodd"  xmlns="http://www.w3.org/2000/svg">
 <defs>
  <style type="text/css">
    .fil1 {fill:#E00000}
    .fil0 {fill:red}
    .fil2 {fill:black;fill-opacity:0.04}
  </style>
 </defs>
 <g>
  <g>
   <path class="fil0" d="M161.802 213.041c0.825,0.836 1.33,1.966 1.33,3.096l0 40.934c0,3.32 2.767,5.809 6.085,5.809l36.51 0c3.042,0 5.808,-2.489 5.808,-5.809l0 -40.934c0,-1.13 0.506,-2.26 1.331,-3.096l-25.532 -25.531 -25.532 25.531z"/>
   <path class="fil1" d="M174.407 200.437c3.376,3.376 8.015,5.491 13.063,5.491 5.013,0 9.555,-2.087 12.858,-5.424l-12.994 -12.994 -12.927 12.927z"/>
   <path class="fil2" d="M187.47 225.402l-11.366 0c-0.552,0 -1.053,0.224 -1.415,0.585 -0.361,0.362 -0.585,0.863 -0.585,1.415 0,0.186 0.024,0.363 0.067,0.527 0.052,0.183 0.12,0.348 0.204,0.489l0.052 0.094 11.253 22.751c0.17,0.344 0.429,0.619 0.734,0.809 0.319,0.198 0.686,0.306 1.056,0.306 0.369,0 0.736,-0.108 1.056,-0.306 0.305,-0.19 0.563,-0.465 0.733,-0.809l11.253 -22.751 0.052 -0.094c0.084,-0.141 0.152,-0.306 0.202,-0.49 0.045,-0.163 0.069,-0.34 0.069,-0.526 0,-0.552 -0.224,-1.053 -0.585,-1.415 -0.362,-0.361 -0.862,-0.585 -1.415,-0.585l-11.365 0z"/>
   <path class="fil1" d="M188.705 225.402l-11.366 0c-0.552,0 -1.053,0.224 -1.414,0.585 -0.362,0.362 -0.586,0.863 -0.586,1.415 0,0.186 0.024,0.363 0.067,0.527 0.052,0.183 0.121,0.348 0.204,0.489l0.052 0.094 11.253 22.751c0.171,0.344 0.429,0.619 0.734,0.809 0.319,0.198 0.686,0.306 1.056,0.306 0.369,0 0.736,-0.108 1.056,-0.306 0.305,-0.19 0.563,-0.465 0.733,-0.809l11.253 -22.751 0.053 -0.094c0.083,-0.141 0.152,-0.306 0.201,-0.49 0.045,-0.163 0.07,-0.34 0.07,-0.526 0,-0.552 -0.225,-1.053 -0.586,-1.415 -0.362,-0.361 -0.862,-0.585 -1.415,-0.585l-11.365 0zm0 -1.5l-11.366 0c-1.933,0 -3.5,1.567 -3.5,3.5 0,0.646 0.175,1.252 0.482,1.772l11.253 22.751c0.607,1.232 1.845,1.946 3.131,1.947 1.286,-0.001 2.523,-0.715 3.131,-1.947l11.253 -22.751c0.306,-0.52 0.482,-1.126 0.482,-1.772 0,-1.933 -1.568,-3.5 -3.501,-3.5l-11.365 0z"/>
  </g>
 </g>
</svg>
