<?xml version="1.0" encoding="UTF-8"?>
<!DOCTYPE svg PUBLIC "-//W3C//DTD SVG 1.1//EN" "http://www.w3.org/Graphics/SVG/1.1/DTD/svg11.dtd">
<svg viewBox="0 0 860 373.999" width="860px" height="374px" version="1.1" style="shape-rendering:geometricPrecision; fill-rule:evenodd; clip-rule:evenodd"  xmlns="http://www.w3.org/2000/svg">
 <defs>
  <style type="text/css">
    .fil1 {fill:#E00000}
    .fil0 {fill:red}
    .fil2 {fill:black;fill-opacity:0.04}
  </style>
 </defs>
 <g>
  <path class="fil0" d="M212.814 162.029c-0.795,-0.795 -1.279,-1.901 -1.279,-3.146l0 -40.659c0,-3.319 -2.766,-6.085 -5.808,-6.085l-36.51 0c-3.318,0 -6.085,2.766 -6.085,6.085l0 40.659c0,1.245 -0.483,2.351 -1.279,3.146l25.481 25.481 25.48 -25.481z"/>
  <path class="fil1" d="M200.397 174.447c-3.309,-3.309 -7.88,-5.355 -12.927,-5.355 -5.082,0 -9.749,2.075 -13.131,5.423l12.995 12.995 13.063 -13.063z"/>
  <path class="fil1" d="M187.851 151.237l-11.366 0c-1.933,0 -3.5,-1.568 -3.5,-3.501 0,-0.646 0.176,-1.252 0.482,-1.772l11.253 -22.751c0.608,-1.231 1.845,-1.946 3.131,-1.946 1.286,0 2.523,0.715 3.131,1.946l11.253 22.751c0.306,0.52 0.482,1.126 0.482,1.772 0,1.933 -1.567,3.501 -3.5,3.501l-11.366 0zm-11.366 -1.5l22.732 0c0.552,0 1.052,-0.225 1.414,-0.586 0.362,-0.362 0.586,-0.862 0.586,-1.415 0,-0.185 -0.024,-0.362 -0.068,-0.526 -0.051,-0.184 -0.12,-0.349 -0.203,-0.49l-0.053 -0.094 -11.253 -22.75c-0.17,-0.345 -0.428,-0.62 -0.733,-0.81 -0.319,-0.198 -0.687,-0.305 -1.056,-0.305 -0.369,0 -0.737,0.107 -1.056,0.305 -0.305,0.19 -0.563,0.465 -0.733,0.81l-11.254 22.75 -0.052 0.094c-0.083,0.141 -0.152,0.306 -0.202,0.49 -0.045,0.164 -0.069,0.341 -0.069,0.526 0,0.553 0.224,1.053 0.586,1.415 0.361,0.361 0.862,0.586 1.414,0.586z"/>
  <path class="fil2" d="M176.699 149.788l22.732 0c0.552,0 1.052,-0.224 1.414,-0.586 0.362,-0.362 0.586,-0.862 0.586,-1.414 0,-0.186 -0.024,-0.363 -0.068,-0.527 -0.051,-0.183 -0.12,-0.348 -0.203,-0.49l-0.053 -0.094 -11.253 -22.75c-0.17,-0.344 -0.428,-0.619 -0.733,-0.809 -0.32,-0.199 -0.687,-0.306 -1.056,-0.306 -0.369,0 -0.737,0.107 -1.056,0.306 -0.305,0.19 -0.563,0.465 -0.733,0.809l-11.254 22.75 -0.052 0.094c-0.083,0.142 -0.152,0.307 -0.202,0.49 -0.045,0.164 -0.069,0.341 -0.069,0.527 0,0.552 0.224,1.052 0.586,1.414 0.361,0.362 0.862,0.586 1.414,0.586z"/>
 </g>
</svg>
