<?xml version="1.0" encoding="UTF-8"?>
<!DOCTYPE svg PUBLIC "-//W3C//DTD SVG 1.1//EN" "http://www.w3.org/Graphics/SVG/1.1/DTD/svg11.dtd">
<svg viewBox="0 0 860 373.999" width="860px" height="374px" version="1.1" style="shape-rendering:geometricPrecision; fill-rule:evenodd; clip-rule:evenodd"  xmlns="http://www.w3.org/2000/svg">
 <defs>
  <style type="text/css">
    .fil1 {fill:#E00000}
    .fil2 {fill:#F80000}
    .fil0 {fill:red}
  </style>
 </defs>
 <g>
  <path class="fil0" d="M256.619 163.308l-40.658 0c-1.245,0 -2.351,-0.484 -3.147,-1.279l-25.48 25.481 25.532 25.531c0.791,-0.8 1.876,-1.33 3.095,-1.33l40.658 0c3.319,0 6.085,-2.489 6.085,-5.808l0 -36.51c0,-3.319 -2.766,-6.085 -6.085,-6.085z"/>
  <path class="fil1" d="M205.752 187.374c0,-5.048 -2.047,-9.619 -5.355,-12.927l-13.063 13.063 12.994 12.994c3.349,-3.382 5.424,-8.048 5.424,-13.13zm19.61 0.136l0 11.365c0,0.553 0.224,1.053 0.585,1.415 0.362,0.361 0.863,0.586 1.415,0.586 0.186,0 0.363,-0.025 0.527,-0.068 0.183,-0.052 0.348,-0.12 0.489,-0.203l0.094 -0.053 22.751 -11.253c0.344,-0.17 0.619,-0.428 0.809,-0.733 0.198,-0.32 0.306,-0.687 0.306,-1.056 0,-0.37 -0.108,-0.737 -0.306,-1.056 -0.19,-0.305 -0.465,-0.564 -0.809,-0.734l-22.751 -11.253 -0.094 -0.052c-0.141,-0.083 -0.306,-0.152 -0.49,-0.202 -0.163,-0.045 -0.34,-0.069 -0.526,-0.069 -0.552,0 -1.053,0.224 -1.415,0.586 -0.361,0.361 -0.585,0.862 -0.585,1.414l0 11.366zm-1.501 0l0 11.365c0,1.933 1.568,3.501 3.501,3.501 0.646,0 1.252,-0.176 1.772,-0.482l22.751 -11.253c1.232,-0.608 1.946,-1.845 1.947,-3.131 -0.001,-1.287 -0.715,-2.524 -1.947,-3.131l-22.751 -11.254c-0.52,-0.306 -1.126,-0.481 -1.772,-0.481 -1.933,0 -3.501,1.567 -3.501,3.5l0 11.366z"/>
  <path class="fil2" d="M225.362 187.51l0 11.365c0,0.553 0.224,1.053 0.585,1.415 0.362,0.361 0.863,0.586 1.415,0.586 0.186,0 0.363,-0.025 0.527,-0.068 0.183,-0.052 0.348,-0.12 0.489,-0.203l0.094 -0.053 22.751 -11.253c0.344,-0.17 0.619,-0.428 0.809,-0.733 0.198,-0.32 0.306,-0.687 0.306,-1.056 0,-0.37 -0.108,-0.737 -0.306,-1.056 -0.19,-0.305 -0.465,-0.564 -0.809,-0.734l-22.751 -11.253 -0.094 -0.052c-0.141,-0.083 -0.306,-0.152 -0.49,-0.202 -0.163,-0.045 -0.34,-0.069 -0.526,-0.069 -0.552,0 -1.053,0.224 -1.415,0.586 -0.361,0.361 -0.585,0.862 -0.585,1.414l0 11.366z"/>
 </g>
</svg>
