<?xml version="1.0" encoding="UTF-8"?>
<!DOCTYPE svg PUBLIC "-//W3C//DTD SVG 1.1//EN" "http://www.w3.org/Graphics/SVG/1.1/DTD/svg11.dtd">
<svg xml:space="preserve" viewBox="0 0 860 374" width="860px" height="374px" version="1.1" style="shape-rendering:geometricPrecision; fill-rule:evenodd; clip-rule:evenodd" xmlns="http://www.w3.org/2000/svg">
 <defs>
  <style type="text/css">
    .fil1 {fill:#E00000}
    .fil0 {fill:red}
  </style>
 </defs>
 <g>
  <path class="fil0" d="M161.802 213.041c0.825,0.836 1.33,1.966 1.33,3.096l0 40.934c0,3.32 2.767,5.809 6.085,5.809l36.51 0c3.042,0 5.808,-2.489 5.808,-5.809l0 -40.934c0,-1.13 0.506,-2.26 1.331,-3.096l-25.532 -25.531 -25.532 25.531z"/>
  <path class="fil1" d="M174.407 200.437c3.376,3.376 8.015,5.491 13.063,5.491 5.013,0 9.555,-2.087 12.858,-5.424l-12.994 -12.994 -12.927 12.927zm13.063 23.465l-11.366 0c-1.933,0 -3.5,1.567 -3.5,3.5 0,0.646 0.175,1.252 0.481,1.772l11.254 22.751c0.607,1.232 1.844,1.946 3.131,1.947 1.286,-0.001 2.523,-0.715 3.13,-1.947l11.254 -22.751c0.306,-0.52 0.482,-1.126 0.482,-1.772 0,-1.933 -1.568,-3.5 -3.501,-3.5l-11.365 0z"/>
 </g>
</svg>

