<?xml version="1.0" encoding="UTF-8"?>
<!DOCTYPE svg PUBLIC "-//W3C//DTD SVG 1.1//EN" "http://www.w3.org/Graphics/SVG/1.1/DTD/svg11.dtd">
<svg xml:space="preserve" viewBox="0 0 860 374" width="860px" height="374px" version="1.1" style="shape-rendering:geometricPrecision; fill-rule:evenodd; clip-rule:evenodd"  xmlns="http://www.w3.org/2000/svg">
 <defs>
  <style type="text/css">
    .fil1 {fill:#E00000}
    .fil0 {fill:red}
  </style>
 </defs>
 <g>
  <path class="fil0" d="M161.853 162.029c-0.795,0.795 -1.901,1.279 -3.146,1.279l-40.658 0c-3.32,0 -6.085,2.766 -6.085,6.085l0 36.51c0,3.319 2.765,5.808 6.085,5.808l40.658 0c1.218,0 2.304,0.53 3.095,1.33l25.532 -25.531 -25.481 -25.481z"/>
  <path class="fil1" d="M174.339 174.515c-3.337,3.304 -5.423,7.846 -5.423,12.859 0,5.047 2.114,9.686 5.491,13.063l12.927 -12.927 -12.995 -12.995zm-23.261 12.995l0 11.365c0,1.933 -1.568,3.501 -3.501,3.501 -0.646,0 -1.252,-0.176 -1.772,-0.482l-22.751 -11.253c-1.231,-0.608 -1.946,-1.845 -1.947,-3.131 0.001,-1.287 0.716,-2.524 1.947,-3.131l22.751 -11.254c0.52,-0.306 1.126,-0.481 1.772,-0.481 1.933,0 3.501,1.567 3.501,3.5l0 11.366z"/>
 </g>
</svg>
