<?xml version="1.0" encoding="UTF-8"?>
<!DOCTYPE svg PUBLIC "-//W3C//DTD SVG 1.1//EN" "http://www.w3.org/Graphics/SVG/1.1/DTD/svg11.dtd">
<svg viewBox="0 0 860 373.999" width="860px" height="374px" version="1.1" style="shape-rendering:geometricPrecision; fill-rule:evenodd; clip-rule:evenodd"  xmlns="http://www.w3.org/2000/svg">
 <defs>
  <style type="text/css">
    .fil1 {fill:#E00000}
    .fil0 {fill:red}
    .fil2 {fill:black;fill-opacity:0.04}
  </style>
 </defs>
 <g>
  <path class="fil0" d="M161.853 162.029c-0.795,0.795 -1.901,1.279 -3.146,1.279l-40.658 0c-3.32,0 -6.085,2.766 -6.085,6.085l0 36.51c0,3.319 2.765,5.808 6.085,5.808l40.658 0c1.218,0 2.304,0.53 3.095,1.33l25.532 -25.531 -25.481 -25.481z"/>
  <path class="fil1" d="M174.339 174.515c-3.337,3.304 -5.423,7.846 -5.423,12.859 0,5.047 2.114,9.686 5.491,13.063l12.927 -12.927 -12.995 -12.995z"/>
  <path class="fil1" d="M151.459 187.629l0 11.365c0,1.933 -1.567,3.501 -3.5,3.501 -0.647,0 -1.253,-0.176 -1.773,-0.482l-22.75 -11.253c-1.232,-0.608 -1.946,-1.845 -1.947,-3.131 0.001,-1.287 0.715,-2.524 1.947,-3.131l22.75 -11.253c0.52,-0.307 1.126,-0.482 1.773,-0.482 1.933,0 3.5,1.567 3.5,3.5l0 11.366zm-1.5 11.365l0 -22.731c0,-0.552 -0.224,-1.053 -0.586,-1.414 -0.362,-0.362 -0.862,-0.586 -1.414,-0.586 -0.186,0 -0.363,0.024 -0.527,0.067 -0.183,0.052 -0.349,0.121 -0.49,0.204l-0.094 0.052 -22.75 11.253c-0.345,0.171 -0.62,0.429 -0.809,0.734 -0.199,0.319 -0.306,0.686 -0.306,1.056 0,0.369 0.107,0.736 0.306,1.056 0.189,0.305 0.464,0.563 0.809,0.733l22.75 11.253 0.094 0.053c0.141,0.083 0.307,0.152 0.49,0.201 0.164,0.045 0.341,0.07 0.527,0.07 0.552,0 1.052,-0.225 1.414,-0.586 0.362,-0.362 0.586,-0.862 0.586,-1.415z"/>
  <path class="fil2" d="M150.173 199.046l0 -22.732c0,-0.552 -0.224,-1.052 -0.586,-1.414 -0.362,-0.362 -0.862,-0.586 -1.414,-0.586 -0.186,0 -0.363,0.024 -0.527,0.068 -0.184,0.051 -0.349,0.12 -0.49,0.203l-0.094 0.053 -22.75 11.253c-0.345,0.17 -0.62,0.428 -0.809,0.733 -0.199,0.319 -0.306,0.687 -0.306,1.056 0,0.369 0.107,0.737 0.306,1.056 0.189,0.305 0.464,0.563 0.809,0.733l22.75 11.253 0.094 0.053c0.141,0.083 0.306,0.152 0.49,0.202 0.164,0.045 0.341,0.069 0.527,0.069 0.552,0 1.052,-0.224 1.414,-0.586 0.362,-0.362 0.586,-0.862 0.586,-1.414z"/>
 </g>
</svg>
