<?xml version="1.0" encoding="UTF-8"?>
<!DOCTYPE svg PUBLIC "-//W3C//DTD SVG 1.1//EN" "http://www.w3.org/Graphics/SVG/1.1/DTD/svg11.dtd">
<svg xml:space="preserve" viewBox="0 0 860 374" width="860px" height="374px" version="1.1" style="shape-rendering:geometricPrecision; fill-rule:evenodd; clip-rule:evenodd" xmlns="http://www.w3.org/2000/svg" xmlns:xlink="http://www.w3.org/1999/xlink">
 <defs>
  <style type="text/css">
    .fil5 {fill:#101010}
    .fil6 {fill:#333333}
    .fil2 {fill:#B8B8BF}
    .fil9 {fill:#D00012}
    .fil0 {fill:#D4D4D8}
    .fil4 {fill:#E60012}
    .fil7 {fill:black;fill-opacity:0.3}
    .fil10 {fill:white;fill-opacity:0.5}
    .fil8 {fill:url(#id0)}
    .fil3 {fill:url(#id1);fill-opacity:0.7}
    .fil1 {fill:url(#id2);fill-opacity:0.7}
  </style>
  <linearGradient id="id0" gradientUnits="objectBoundingBox" x1="59.6289%" y1="67.803%" x2="40.3711%" y2="42.197%">
   <stop offset="0" style="stop-opacity:1; stop-color:#666666"/>
   <stop offset="1" style="stop-opacity:1; stop-color:gray"/>
  </linearGradient>
  <linearGradient id="id1" gradientUnits="userSpaceOnUse" x1="721.638" y1="225.169" x2="677.556" y2="110.233">
   <stop offset="0" style="stop-opacity:1; stop-color:#B8B8BF"/>
   <stop offset="1" style="stop-opacity:1; stop-color:#EDEDF2"/>
  </linearGradient>
  <linearGradient id="id2" gradientUnits="userSpaceOnUse" xlink:href="#id1" x1="187.47" y1="294.45" x2="187.47" y2="80.57">
  </linearGradient>
 </defs>
 <g>
  <g id="shell">
   <path class="fil0" d="M672.666 3.016c101.611,0 183.984,82.373 183.984,183.984 0,101.611 -82.373,183.984 -183.984,183.984 -39.07,0 -75.294,-12.179 -105.086,-32.946 -8.755,-6.103 -17.919,-8.983 -28.592,-8.983l-217.977 0c-10.673,0 -19.837,2.88 -28.592,8.983 -29.792,20.767 -66.016,32.946 -105.085,32.946 -101.611,0 -183.984,-82.374 -183.984,-183.984 0,-101.611 82.373,-183.984 183.984,-183.984 39.069,0 75.293,12.178 105.085,32.945 8.755,6.104 17.92,8.983 28.592,8.983l217.977 0c10.673,0 19.837,-2.879 28.592,-8.983 29.792,-20.767 66.016,-32.945 105.086,-32.945z"/>
   <path class="fil1" d="M187.47 80.57c59.061,0 106.939,47.878 106.939,106.94 0,59.061 -47.878,106.939 -106.939,106.939 -59.062,0 -106.941,-47.878 -106.941,-106.939 0,-59.062 47.879,-106.94 106.941,-106.94z"/>
   <polygon class="fil2" points="415.872,44.944 444.263,44.944 444.263,50.423 415.872,50.423 "/>
   <path class="fil3" d="M795.716 50.229c32.948,29.662 55.124,71.056 59.943,117.604l-216.147 110.133c-32.478,16.548 -72.221,3.635 -88.77,-28.843 -16.548,-32.478 -3.634,-72.222 28.843,-88.77l216.131 -110.124z"/>
  </g>
  <g id="print">
   <path class="fil4" d="M380.058 126.598c-10.834,-0.003 -18.074,-7.682 -18.074,-16.991l0 0c0,-9.31 7.257,-17.076 18.058,-17.052l102.074 0c10.801,-0.024 18.058,7.742 18.058,17.052l0 0c0,9.309 -7.24,16.988 -18.075,16.991l-102.041 0zm0.034 -29.856c-8.578,0.017 -13.843,5.75 -13.843,12.843l0 0c0,7.091 5.232,12.871 13.843,12.84l101.974 0c8.611,0.029 13.845,-5.749 13.845,-12.84l0 0c0,-7.091 -5.265,-12.824 -13.843,-12.841l-101.976 -0.002zm51.31 13.878c-0.007,-0.934 0.013,-1.558 0.319,-2.09 0.377,-0.657 1.068,-0.97 1.696,-0.973l-0.002 0c0.628,0.003 1.32,0.316 1.696,0.973 0.306,0.534 0.319,1.158 0.312,2.092l-4.021 -0.002zm4.004 3.213c0,0 0.004,0.048 0.004,0.646 0,1.949 -1.283,2.382 -1.995,2.382 -0.712,0 -2.017,-0.433 -2.017,-2.382 0,-0.584 0.004,-2.2 0.004,-2.2 0,0 9.078,0.003 9.078,-0.002 0,-3.305 -3.191,-6.043 -7.111,-6.043 -3.92,0 -7.096,2.679 -7.096,5.984 0,3.305 3.176,5.983 7.096,5.983 3.252,0 5.999,-1.856 6.838,-4.372l-4.801 0.004zm15.164 -7.421c1.802,-0.052 5.458,1.128 5.432,5.348 -0.004,0.748 -0.002,5.798 -0.002,5.798l-4.788 0c0,0 0,-6.333 0,-6.999 0,-0.928 -0.888,-1.961 -2.202,-1.961 -1.312,0 -2.288,1.033 -2.288,1.961 0,0.455 0.005,6.999 0.005,6.999l-4.784 0 0.004 -10.656 4.782 -0.004c0,0 -0.006,0.857 0,1.121 0.921,-0.879 2.25,-1.561 3.841,-1.607zm-39.165 0c1.802,-0.052 5.457,1.128 5.432,5.348 -0.004,0.748 -0.002,5.798 -0.002,5.798l-4.788 0c0,0 0,-6.333 0,-6.999 0,-0.928 -0.888,-1.961 -2.202,-1.961 -1.313,0 -2.289,1.033 -2.289,1.961 0,0.455 0.006,6.999 0.006,6.999l-4.784 0 -0.002 -10.656 4.787 -0.004c0,0 -0.005,0.857 0,1.121 0.922,-0.879 2.248,-1.561 3.841,-1.607l0.001 0zm54.984 -4.876l4.756 0 0 16.026 -4.764 0c0,0 -0.002,-0.518 -0.002,-0.617 -1.844,1.158 -3.925,1.157 -5.545,0.401 -0.435,-0.202 -3.296,-1.575 -3.296,-5.284 0,-2.813 2.653,-5.885 6.127,-5.581 1.144,0.101 1.957,0.518 2.727,0.951 -0.003,-2.466 -0.003,-5.896 -0.003,-5.896l0 0zm0.035 10.644c0,0 0,-1.336 0,-1.905 0,-1.648 -1.138,-2.068 -1.887,-2.068 -0.767,0 -1.89,0.42 -1.89,2.068 0,0.547 0.002,1.899 0.002,1.899 0,0 -0.002,1.329 -0.002,1.896 0,1.646 1.123,2.077 1.888,2.077 0.751,0 1.891,-0.431 1.891,-2.077 0,-0.685 -0.003,-1.89 -0.003,-1.89l0.001 0zm15.27 -0.032c0,0 -0.002,1.612 -0.002,2.258 0,1.699 -1.004,2.4 -1.969,2.4 -0.967,0 -1.975,-0.701 -1.975,-2.4 0,-0.646 0.002,-2.298 0.002,-2.298 0,0 0.004,-1.576 0.004,-2.222 0,-1.692 1.009,-2.388 1.969,-2.388 0.962,0 1.969,0.696 1.969,2.388 0,0.646 -0.002,1.84 0.004,2.268l-0.002 -0.006zm-1.936 -5.971c-3.891,0 -7.043,2.679 -7.043,5.984 0,3.305 3.154,5.985 7.043,5.985 3.89,0 7.043,-2.68 7.043,-5.985 0,-3.305 -3.152,-5.984 -7.043,-5.984zm-84.466 -1.369l0 -3.276 4.83 0 0 3.276 -4.83 0zm0.011 12.754l0 -10.658 4.819 0.001 0 10.657 -4.819 0zm24.178 0l0.002 -10.636 -2.621 0 0 -1.582 2.623 -0.002 -0.004 -2.158 4.823 0 0 2.156 2.609 0 0 1.586 -2.609 0 0.003 10.636 -4.826 0zm-43.79 0l0.002 -16.026 4.993 0 6.908 11.176 -0.004 -11.176 4.955 0 0 16.026 -4.948 0 -6.944 -11.176 0 11.176 -4.962 0z"/>
   <path class="fil4" d="M583.025 126.969c0.215,0 0.401,-0.076 0.557,-0.224 0.156,-0.148 0.237,-0.338 0.237,-0.57l0 -1.583c-0.018,-0.194 -0.102,-0.376 -0.25,-0.541 -0.147,-0.164 -0.329,-0.249 -0.544,-0.249l-8.926 0c-0.232,0 -0.422,0.08 -0.57,0.237 -0.148,0.156 -0.224,0.342 -0.224,0.553l0 1.583c0,0.232 0.076,0.422 0.224,0.57 0.148,0.148 0.338,0.224 0.57,0.224l8.926 0zm-0.405 -6.334c0.215,0 0.396,-0.076 0.544,-0.223 0.165,-0.148 0.249,-0.338 0.249,-0.57l0 -1.584c0,-0.211 -0.08,-0.396 -0.236,-0.553 -0.156,-0.156 -0.342,-0.236 -0.557,-0.236l-8.521 0c-0.232,0 -0.422,0.08 -0.57,0.236 -0.148,0.157 -0.224,0.342 -0.224,0.553l0 1.584c0,0.232 0.076,0.422 0.224,0.57 0.148,0.147 0.338,0.223 0.57,0.223l8.521 0zm-14.255 9.501l0 -15.834 16.243 0c0.925,0 1.752,0.33 2.479,0.988 0.726,0.663 1.089,1.651 1.089,2.968l0 0.596c0,1.186 -0.321,2.043 -0.967,2.571 -0.646,0.528 -1.114,0.794 -1.415,0.794 0.799,0 1.462,0.329 1.989,0.988 0.532,0.663 0.798,1.452 0.798,2.377l0 0.591c0,1.322 -0.266,2.31 -0.794,2.973 -0.527,0.658 -1.384,0.988 -2.575,0.988l-16.847 0z"/>
   <path class="fil4" d="M680.607 71.738c0.215,0 0.401,-0.075 0.557,-0.223 0.156,-0.148 0.237,-0.338 0.237,-0.57l0 -1.583c0,-0.596 -0.233,-1.073 -0.693,-1.436 -0.464,-0.363 -0.958,-0.545 -1.486,-0.545l-5.548 0c-0.528,0 -1.022,0.182 -1.486,0.545 -0.461,0.363 -0.693,0.84 -0.693,1.436l0 1.583c0,0.232 0.076,0.422 0.224,0.57 0.148,0.148 0.338,0.223 0.57,0.223l8.318 0zm-14.052 7.905l0 -9.897c0,-2.639 0.659,-4.286 1.98,-4.949 1.318,-0.658 2.901,-0.988 4.746,-0.988l6.333 0c1.846,0 3.429,0.33 4.746,0.988 1.322,0.663 1.98,2.31 1.98,4.949l0 9.897 -4.939 0 0 -3.163c0,-0.211 -0.081,-0.397 -0.237,-0.553 -0.156,-0.156 -0.342,-0.236 -0.557,-0.236l-8.318 0c-0.232,0 -0.422,0.08 -0.57,0.236 -0.148,0.156 -0.224,0.342 -0.224,0.553l0 3.163 -4.94 0z"/>
   <path class="fil4" d="M324.879 276.432l0 -2.444 9.068 0c0.315,0 0.529,-0.067 0.642,-0.202 0.112,-0.136 0.17,-0.339 0.17,-0.607l0 -0.272c0,-0.268 -0.058,-0.471 -0.17,-0.606 -0.113,-0.136 -0.327,-0.203 -0.642,-0.203l-5.552 0c-1.355,0 -2.326,-0.294 -2.912,-0.884 -0.586,-0.589 -0.881,-1.288 -0.881,-2.1l0 -0.54c0,-0.901 0.295,-1.624 0.881,-2.164 0.586,-0.54 1.557,-0.812 2.912,-0.812l9.207 0 0 2.436 -9.065 0c-0.249,0 -0.422,0.052 -0.523,0.159 -0.101,0.107 -0.153,0.234 -0.153,0.381l0 0.54c0,0.159 0.052,0.286 0.153,0.387 0.101,0.101 0.274,0.153 0.523,0.153l5.419 0c1.352,0 2.369,0.318 3.045,0.951 0.679,0.632 1.017,1.404 1.017,2.308l0 0.407c0,0.991 -0.338,1.76 -1.017,2.3 -0.679,0.54 -1.699,0.812 -3.056,0.812l-9.066 0zm17.186 0c-0.722,0 -1.351,-0.272 -1.892,-0.812 -0.54,-0.543 -0.811,-1.176 -0.811,-1.898l0 -8.124 11.639 0 0 2.444 -7.717 0c-0.158,0 -0.288,0.052 -0.389,0.159 -0.102,0.107 -0.154,0.234 -0.154,0.382l0 0.809c0,0.158 0.052,0.285 0.154,0.387 0.101,0.101 0.231,0.153 0.389,0.153l7.177 0 0 1.924 -7.177 0c-0.158,0 -0.288,0.055 -0.389,0.162 -0.102,0.107 -0.154,0.234 -0.154,0.384l0 0.78c0,0.158 0.052,0.291 0.154,0.393 0.101,0.101 0.231,0.153 0.389,0.153l7.717 0 0 2.704 -8.936 0zm12.324 0c-0.632,0 -1.149,-0.203 -1.557,-0.61 -0.407,-0.407 -0.609,-0.924 -0.609,-1.557l0 -8.667 3.397 0 0 7.849c0,0.18 0.046,0.315 0.136,0.405 0.09,0.089 0.225,0.136 0.404,0.136l6.896 0 0 2.444 -8.667 0zm12.593 0c-0.722,0 -1.352,-0.272 -1.892,-0.812 -0.54,-0.543 -0.812,-1.176 -0.812,-1.898l0 -8.124 11.639 0 0 2.444 -7.716 0c-0.159,0 -0.289,0.052 -0.39,0.159 -0.101,0.107 -0.153,0.234 -0.153,0.382l0 0.809c0,0.158 0.052,0.285 0.153,0.387 0.101,0.101 0.231,0.153 0.39,0.153l7.176 0 0 1.924 -7.176 0c-0.159,0 -0.289,0.055 -0.39,0.162 -0.101,0.107 -0.153,0.234 -0.153,0.384l0 0.78c0,0.158 0.052,0.291 0.153,0.393 0.101,0.101 0.231,0.153 0.39,0.153l7.716 0 0 2.704 -8.935 0zm13.682 0c-0.812,0 -1.58,-0.272 -2.303,-0.812 -0.722,-0.543 -1.083,-1.626 -1.083,-3.25l0 -2.71c0,-1.623 0.361,-2.707 1.083,-3.25 0.723,-0.54 1.491,-0.812 2.303,-0.812l8.799 0 0 2.444 -7.45 0c-0.451,0 -0.792,0.136 -1.017,0.405 -0.225,0.271 -0.338,0.586 -0.338,0.947l0 3.242c0,0.361 0.113,0.676 0.338,0.947 0.225,0.269 0.566,0.405 1.017,0.405l7.45 0 0 2.444 -8.799 0zm15.028 0l0 -7.849c0,-0.145 -0.055,-0.272 -0.162,-0.379 -0.107,-0.107 -0.234,-0.162 -0.378,-0.162l-4.331 0 0 -2.444 12.989 0 0 2.444 -4.333 0c-0.16,0 -0.29,0.055 -0.391,0.162 -0.101,0.107 -0.153,0.234 -0.153,0.379l0 7.849 -3.241 0z"/>
   <path class="fil4" d="M432.019 276.432l0 -2.443 9.068 0c0.315,0 0.529,-0.067 0.642,-0.203 0.112,-0.136 0.17,-0.338 0.17,-0.607l0 -0.271c0,-0.269 -0.058,-0.471 -0.17,-0.607 -0.113,-0.135 -0.327,-0.202 -0.642,-0.202l-5.552 0c-1.355,0 -2.326,-0.295 -2.912,-0.884 -0.587,-0.589 -0.881,-1.288 -0.881,-2.1l0 -0.54c0,-0.902 0.294,-1.624 0.881,-2.164 0.586,-0.54 1.557,-0.812 2.912,-0.812l9.207 0 0 2.435 -9.066 0c-0.248,0 -0.421,0.053 -0.522,0.159 -0.102,0.107 -0.154,0.234 -0.154,0.382l0 0.54c0,0.159 0.052,0.286 0.154,0.387 0.101,0.101 0.274,0.153 0.522,0.153l5.42 0c1.352,0 2.369,0.318 3.045,0.951 0.679,0.632 1.017,1.404 1.017,2.308l0 0.407c0,0.991 -0.338,1.76 -1.017,2.3 -0.679,0.54 -1.699,0.811 -3.056,0.811l-9.066 0zm63.23 0l0 -7.848c0,-0.145 -0.056,-0.272 -0.162,-0.379 -0.107,-0.107 -0.234,-0.162 -0.379,-0.162l-4.33 0 0 -2.444 12.988 0 0 2.444 -4.333 0c-0.159,0 -0.289,0.055 -0.39,0.162 -0.101,0.107 -0.153,0.234 -0.153,0.379l0 7.848 -3.241 0zm-43.877 0l0 -7.848c0,-0.145 -0.055,-0.272 -0.162,-0.379 -0.107,-0.107 -0.234,-0.162 -0.378,-0.162l-4.331 0 0 -2.444 12.989 0 0 2.444 -4.333 0c-0.16,0 -0.29,0.055 -0.391,0.162 -0.101,0.107 -0.153,0.234 -0.153,0.379l0 7.848 -3.241 0zm19.098 -5.408c0.148,0 0.275,-0.051 0.382,-0.153 0.107,-0.101 0.162,-0.231 0.162,-0.39l0 -1.083c0,-0.407 -0.159,-0.734 -0.474,-0.982 -0.318,-0.249 -0.656,-0.373 -1.017,-0.373l-3.796 0c-0.361,0 -0.699,0.124 -1.017,0.373 -0.315,0.248 -0.474,0.575 -0.474,0.982l0 1.083c0,0.159 0.052,0.289 0.154,0.39 0.1,0.102 0.23,0.153 0.389,0.153l5.691 0zm-9.614 5.408l0 -6.771c0,-1.806 0.451,-2.932 1.355,-3.386 0.901,-0.451 1.985,-0.676 3.247,-0.676l4.334 0c1.262,0 2.345,0.225 3.247,0.676 0.904,0.454 1.355,1.58 1.355,3.386l0 6.771 -3.38 0 0 -2.163c0,-0.145 -0.055,-0.272 -0.162,-0.379 -0.107,-0.107 -0.234,-0.161 -0.382,-0.161l-5.691 0c-0.159,0 -0.289,0.054 -0.389,0.161 -0.102,0.107 -0.154,0.234 -0.154,0.379l0 2.163 -3.38 0zm14.896 0l0 -10.833 9.212 0c1.266,0 2.259,0.292 2.981,0.879 0.723,0.586 1.084,1.377 1.084,2.368l0 0.676c0,1.263 -0.59,2.121 -1.765,2.571 1.175,0.451 1.765,1.355 1.765,2.713l0 1.626 -3.389 0 0 -1.355c0,-0.543 -0.113,-0.947 -0.341,-1.218 -0.225,-0.272 -0.517,-0.408 -0.881,-0.408l-4.744 0c-0.158,0 -0.288,0.055 -0.389,0.162 -0.102,0.107 -0.154,0.234 -0.154,0.381l0 2.438 -3.379 0zm8.799 -5.425c0.315,0 0.598,-0.089 0.846,-0.268 0.249,-0.18 0.373,-0.541 0.373,-1.078l0 -0.54c0,-0.358 -0.124,-0.63 -0.373,-0.809 -0.248,-0.179 -0.531,-0.269 -0.846,-0.269l-4.877 0c-0.158,0 -0.288,0.052 -0.389,0.159 -0.102,0.107 -0.154,0.234 -0.154,0.382l0 1.883c0,0.159 0.052,0.289 0.154,0.39 0.101,0.101 0.231,0.15 0.389,0.15l4.877 0z"/>
  </g>
  <g id="holes">
   <circle class="fil5" cx="623.031" cy="212.29" r="36.12"/>
   <circle class="fil5" cx="722.301" cy="161.71" r="36.12"/>
   <path class="fil5" d="M493.386 225.171c6.716,-3.422 9.387,-11.641 5.965,-18.357 -3.422,-6.716 -11.642,-9.387 -18.358,-5.965l-39.271 20.01c-6.716,3.422 -9.386,11.641 -5.964,18.358 3.422,6.716 11.641,9.386 18.357,5.964l39.271 -20.01z"/>
   <path class="fil5" d="M390.038 225.171c6.716,-3.422 9.386,-11.641 5.964,-18.357 -3.422,-6.716 -11.642,-9.387 -18.357,-5.965l-39.271 20.01c-6.716,3.422 -9.387,11.641 -5.965,18.358 3.422,6.716 11.641,9.386 18.358,5.964l39.271 -20.01z"/>
   <path class="fil5" d="M156.54 114.665c0,-4.966 4.115,-9.08 9.08,-9.08l43.704 -0.001c5.001,0 8.804,4.16 8.804,9.08l0 37.629c0,2.478 2.194,4.407 4.396,4.423l37.655 0c4.92,0 9.08,3.802 9.08,8.803l0 43.704c0,4.966 -4.115,9.08 -9.081,9.08l-37.6 0 -0.028 0.001c-2.211,0 -4.422,1.934 -4.422,4.422l0 37.629c0,4.92 -3.803,9.08 -8.804,9.08l-43.704 0c-4.965,0 -9.08,-4.115 -9.08,-9.081l0 -37.629c0,-2.478 -1.92,-4.407 -4.394,-4.422l-37.657 0c-4.966,0 -9.081,-4.114 -9.081,-9.08l0 -43.704c0,-5.001 4.16,-8.803 9.08,-8.803l37.658 0c2.474,-0.016 4.394,-1.945 4.394,-4.423l0 -37.628z"/>
  </g>
  <g id="dpad">
   <path class="fil6" d="M256.568 163.326l-40.628 0c-2.488,0 -4.422,-1.935 -4.422,-4.422l0 -40.629c0,-3.316 -2.764,-6.08 -5.805,-6.08l-36.482 0c-3.317,0 -6.081,2.764 -6.081,6.08l0 40.629c0,2.487 -1.935,4.422 -4.422,4.422l-40.628 0c-3.317,0 -6.081,2.764 -6.081,6.08l0 36.483c0,3.317 2.764,5.804 6.081,5.804l40.628 0c2.487,0 4.422,2.211 4.422,4.422l0 40.905c0,3.317 2.764,5.804 6.081,5.804l36.482 0c3.041,0 5.805,-2.487 5.805,-5.804l0 -40.905c0,-2.211 1.934,-4.422 4.422,-4.422l40.628 0c3.317,0 6.081,-2.487 6.081,-5.804l0 -36.483c0,-3.316 -2.764,-6.08 -6.081,-6.08z"/>
   <path class="fil7" d="M205.738 187.374c0,-10.088 -8.181,-18.269 -18.268,-18.269 -10.088,0 -18.541,8.181 -18.541,18.269 0,10.088 8.453,18.54 18.541,18.54 10.087,0 18.268,-8.452 18.268,-18.54zm-54.66 0.136l0 11.365c0,1.933 -1.568,3.501 -3.501,3.501 -0.646,0 -1.252,-0.176 -1.772,-0.482l-22.751 -11.253c-1.231,-0.608 -1.946,-1.845 -1.947,-3.131 0.001,-1.287 0.716,-2.524 1.947,-3.131l22.751 -11.254c0.52,-0.306 1.126,-0.481 1.772,-0.481 1.933,0 3.501,1.567 3.501,3.5l0 11.366zm36.392 36.392l-11.366 0c-1.933,0 -3.5,1.567 -3.5,3.5 0,0.646 0.175,1.252 0.481,1.772l11.254 22.751c0.607,1.232 1.844,1.946 3.131,1.947 1.286,-0.001 2.523,-0.715 3.13,-1.947l11.254 -22.751c0.306,-0.52 0.482,-1.126 0.482,-1.772 0,-1.933 -1.568,-3.5 -3.501,-3.5l-11.365 0zm36.391 -36.392l0 11.365c0,1.933 1.568,3.501 3.501,3.501 0.646,0 1.252,-0.176 1.772,-0.482l22.751 -11.253c1.232,-0.608 1.946,-1.845 1.947,-3.131 -0.001,-1.287 -0.715,-2.524 -1.947,-3.131l-22.751 -11.254c-0.52,-0.306 -1.126,-0.481 -1.772,-0.481 -1.933,0 -3.501,1.567 -3.501,3.5l0 11.366zm-36.391 -36.392l-11.366 0c-1.933,0 -3.5,-1.568 -3.5,-3.501 0,-0.646 0.175,-1.252 0.481,-1.772l11.254 -22.751c0.607,-1.231 1.844,-1.946 3.131,-1.946 1.286,0 2.523,0.715 3.13,1.946l11.254 22.751c0.306,0.52 0.482,1.126 0.482,1.772 0,1.933 -1.568,3.501 -3.501,3.501l-11.365 0z"/>
  </g>
  <path class="fil8" d="M389.131 223.39c5.733,-2.921 8.012,-9.936 5.091,-15.669 -2.921,-5.732 -9.937,-8.011 -15.669,-5.091l-39.271 20.01c-5.733,2.92 -8.012,9.936 -5.091,15.669 2.921,5.733 9.936,8.012 15.669,5.091l39.271 -20.01z"/>
  <path class="fil8" d="M492.479 223.39c5.732,-2.921 8.012,-9.936 5.091,-15.669 -2.921,-5.732 -9.937,-8.011 -15.669,-5.091l-39.271 20.01c-5.733,2.92 -8.013,9.936 -5.091,15.669 2.92,5.733 9.936,8.012 15.669,5.091l39.271 -20.01z"/>
  <circle class="fil9" cx="623.031" cy="212.29" r="34.125"/>
  <path class="fil10" d="M623.031 180.31c14.43,0 26.628,9.557 30.609,22.687 0.076,0.253 -0.056,0.519 -0.302,0.613 -0.254,0.096 -0.539,-0.029 -0.64,-0.281 -4.736,-11.737 -16.234,-20.019 -29.667,-20.019 -13.436,0 -24.936,8.286 -29.67,20.026 -0.101,0.251 -0.386,0.377 -0.639,0.281 -0.247,-0.093 -0.379,-0.36 -0.302,-0.612 3.978,-13.134 16.178,-22.695 30.611,-22.695z"/>
  <circle class="fil9" cx="722.301" cy="161.71" r="34.125"/>
  <path class="fil10" d="M722.301 129.73c14.43,0 26.628,9.557 30.609,22.687 0.076,0.253 -0.055,0.519 -0.302,0.613 -0.254,0.096 -0.538,-0.029 -0.64,-0.281 -4.735,-11.737 -16.233,-20.019 -29.667,-20.019 -13.436,0 -24.936,8.286 -29.669,20.026 -0.102,0.251 -0.386,0.377 -0.64,0.281 -0.246,-0.093 -0.378,-0.36 -0.302,-0.612 3.978,-13.134 16.178,-22.695 30.611,-22.695z"/>
 </g>
</svg>
