<?xml version="1.0" encoding="UTF-8"?>
<!DOCTYPE svg PUBLIC "-//W3C//DTD SVG 1.1//EN" "http://www.w3.org/Graphics/SVG/1.1/DTD/svg11.dtd">
<svg xml:space="preserve" viewBox="0 0 582 460" width="582px" height="460px" version="1.1" style="shape-rendering:geometricPrecision; fill-rule:evenodd; clip-rule:evenodd" xmlns="http://www.w3.org/2000/svg">
 <defs>
  <style type="text/css">
    .fil1 {fill:white;fill-opacity:0.2}
    .fil2 {fill:white;fill-opacity:0.4}
    .fil0 {fill:url(#id0)}
  </style>
  <linearGradient id="id0" gradientUnits="userSpaceOnUse" x1="264.436" y1="178.408" x2="264.436" y2="171.604">
   <stop offset="0" style="stop-opacity:1; stop-color:#181818"/>
   <stop offset="1" style="stop-opacity:1; stop-color:#383838"/>
  </linearGradient>
 </defs>
 <g>
  <path class="fil0" d="M250.52 180.449c-3.556,0 -6.494,-2.938 -6.494,-6.495l0 -0.463c0,-3.711 2.938,-6.649 6.494,-6.649 9.226,0 18.451,0 27.676,0 3.557,0 6.649,2.937 6.649,6.648l0 0.464c0,3.556 -3.092,6.494 -6.649,6.494 -9.225,0 -18.45,0 -27.676,0.001z"/>
  <path class="fil1" d="M250.52 172.44c-1.1,0 -1.992,-0.892 -1.992,-1.992 0,-1.1 0.892,-1.992 1.992,-1.992l27.676 -0.001c1.101,0 1.993,0.892 1.993,1.992 0,1.101 -0.892,1.993 -1.993,1.993l-27.676 0z"/>
  <path class="fil2" d="M250.52 171.444c-0.55,0 -0.996,-0.446 -0.996,-0.996 0,-0.55 0.446,-0.996 0.996,-0.996l27.676 -0.001c0.55,0 0.997,0.446 0.997,0.996 0,0.55 -0.447,0.997 -0.997,0.997l-27.676 0z"/>
 </g>
</svg>
