<?xml version="1.0" encoding="UTF-8"?>
<!DOCTYPE svg PUBLIC "-//W3C//DTD SVG 1.1//EN" "http://www.w3.org/Graphics/SVG/1.1/DTD/svg11.dtd">
<svg xml:space="preserve" viewBox="0 0 582 460" width="582px" height="460px" version="1.1" style="shape-rendering:geometricPrecision; fill-rule:evenodd; clip-rule:evenodd" xmlns="http://www.w3.org/2000/svg">
 <defs>
  <style type="text/css">
    .fil0 {fill:#2C2C2C}
    .fil1 {fill:black;fill-opacity:0.3}
    .fil2 {fill:black;fill-opacity:0.5}
  </style>
 </defs>
 <g>
  <path class="fil0" d="M173.269 161.709l-24.358 0c-1.492,0 -2.652,-1.159 -2.652,-2.651l0 -24.358c0,-1.989 -1.656,-3.646 -3.479,-3.646l-21.873 0c-1.988,0 -3.645,1.657 -3.645,3.646l0 24.358c0,1.492 -1.16,2.651 -2.652,2.651l-24.357 0c-1.989,0 -3.646,1.657 -3.646,3.646l0 21.872c0,1.989 1.657,3.48 3.646,3.48l24.357 0c1.492,0 2.652,1.326 2.652,2.651l0 24.524c0,1.988 1.657,3.48 3.645,3.48l21.873 0c1.823,0 3.479,-1.492 3.479,-3.48l0 -24.524c0,-1.325 1.16,-2.651 2.652,-2.651l24.358 0c1.989,0 3.646,-1.491 3.646,-3.48l0 -21.872c0,-1.989 -1.657,-3.646 -3.646,-3.646z"/>
  <path class="fil1" d="M156.861 168.27l12.935 7.466c0.081,0.046 0.151,0.114 0.2,0.2 0.149,0.26 0.06,0.595 -0.2,0.745l-12.885 7.438c-0.09,0.064 -0.202,0.104 -0.322,0.104 -0.301,0 -0.548,-0.247 -0.548,-0.548l0 -14.933c0.003,-0.093 0.026,-0.186 0.076,-0.272 0.149,-0.26 0.484,-0.35 0.744,-0.2zm-17.079 32.956l-7.466 12.935c-0.046,0.081 -0.114,0.15 -0.201,0.2 -0.26,0.149 -0.595,0.06 -0.744,-0.2l-7.438 -12.886c-0.065,-0.089 -0.104,-0.202 -0.104,-0.321 0,-0.301 0.247,-0.549 0.548,-0.549l14.933 0c0.093,0.004 0.186,0.027 0.272,0.077 0.26,0.149 0.349,0.484 0.2,0.744zm-45.891 -25.49l12.935 -7.466c0.26,-0.15 0.595,-0.06 0.744,0.2 0.049,0.086 0.073,0.179 0.073,0.272l0.003 14.933c0,0.301 -0.247,0.548 -0.548,0.548 -0.12,0 -0.232,-0.04 -0.322,-0.104l-12.885 -7.438c-0.26,-0.15 -0.35,-0.485 -0.2,-0.745 0.049,-0.086 0.119,-0.154 0.2,-0.2zm38.425 -37.48l7.466 12.935c0.149,0.26 0.06,0.595 -0.2,0.743 -0.086,0.05 -0.179,0.073 -0.272,0.073l-14.933 0.004c-0.301,0 -0.548,-0.247 -0.548,-0.549 0,-0.119 0.039,-0.232 0.104,-0.321l7.438 -12.885c0.149,-0.26 0.484,-0.35 0.744,-0.201 0.087,0.05 0.155,0.12 0.201,0.201z"/>
  <path class="fil2" d="M141.21 176.139c0,-5.18 -4.201,-9.38 -9.38,-9.38 -5.179,0 -9.518,4.2 -9.518,9.38 0,5.179 4.339,9.518 9.518,9.518 5.179,0 9.38,-4.339 9.38,-9.518z"/>
 </g>
</svg>
