<?xml version="1.0" encoding="UTF-8"?>
<!DOCTYPE svg PUBLIC "-//W3C//DTD SVG 1.1//EN" "http://www.w3.org/Graphics/SVG/1.1/DTD/svg11.dtd">
<svg xml:space="preserve" viewBox="0 0 582 460" width="582px" height="460px" version="1.1" style="shape-rendering:geometricPrecision; fill-rule:evenodd; clip-rule:evenodd" xmlns="http://www.w3.org/2000/svg" xmlns:xlink="http://www.w3.org/1999/xlink">
 <defs>
  <style type="text/css">
    .str1 {stroke:#9E9E9E;stroke-linejoin:round}
    .str2 {stroke:#9E9E9E;stroke-width:0.25;stroke-linejoin:round}
    .str3 {stroke:#282A7E;stroke-linecap:round}
    .str0 {stroke:#9E9E9E;stroke-linecap:round;stroke-linejoin:round}
    .fil2 {fill:none}
    .fil12 {fill:#282A7E}
    .fil9 {fill:#290E1D}
    .fil8 {fill:#333333}
    .fil6 {fill:#9E9E9E}
    .fil11 {fill:#B3B3B3}
    .fil3 {fill:#B7B7B7}
    .fil10 {fill:#CCCCCC}
    .fil0 {fill:#E6E6E6}
    .fil14 {fill:#272B2F}
    .fil13 {fill:#979EA5}
    .fil1 {fill:#B7B7B7;fill-opacity:0.1}
    .fil30 {fill:white;fill-opacity:0.1}
    .fil37 {fill:black;fill-opacity:0.3}
    .fil34 {fill:white;fill-opacity:0.3}
    .fil35 {fill:white;fill-opacity:0.5}
    .fil41 {fill:white;fill-opacity:0.5}
    .fil15 {fill:url(#id0)}
    .fil36 {fill:url(#id1)}
    .fil39 {fill:url(#id2)}
    .fil38 {fill:url(#id3)}
    .fil5 {fill:url(#id4)}
    .fil7 {fill:url(#id5)}
    .fil32 {fill:url(#id6)}
    .fil40 {fill:url(#id7)}
    .fil31 {fill:url(#id8)}
    .fil33 {fill:url(#id9)}
    .fil42 {fill:url(#id10)}
    .fil4 {fill:url(#id11)}
    .fil28 {fill:url(#id12)}
    .fil29 {fill:url(#id13)}
    .fil21 {fill:url(#id14)}
    .fil16 {fill:url(#id15)}
    .fil18 {fill:url(#id16)}
    .fil22 {fill:url(#id17)}
    .fil24 {fill:url(#id18)}
    .fil25 {fill:url(#id19)}
    .fil26 {fill:url(#id20)}
    .fil20 {fill:url(#id21)}
    .fil17 {fill:url(#id22)}
    .fil23 {fill:url(#id23)}
    .fil27 {fill:url(#id24)}
    .fil19 {fill:url(#id25)}
  </style>
  <linearGradient id="id0" gradientUnits="userSpaceOnUse" x1="131.761" y1="218.161" x2="131.761" y2="134.255">
   <stop offset="0" style="stop-opacity:1; stop-color:#67737F"/>
   <stop offset="1" style="stop-opacity:1; stop-color:#545E68"/>
  </linearGradient>
  <linearGradient id="id1" gradientUnits="objectBoundingBox" x1="50%" y1="100%" x2="50%" y2="1.83938e-14%">
   <stop offset="0" style="stop-opacity:1; stop-color:#484848"/>
   <stop offset="0.5" style="stop-opacity:1; stop-color:#707070"/>
   <stop offset="1" style="stop-opacity:1; stop-color:#989898"/>
  </linearGradient>
  <linearGradient id="id2" gradientUnits="objectBoundingBox" x1="50%" y1="100%" x2="50%" y2="1.83938e-14%">
   <stop offset="0" style="stop-opacity:1; stop-color:#606060"/>
   <stop offset="0.5" style="stop-opacity:1; stop-color:#707070"/>
   <stop offset="1" style="stop-opacity:1; stop-color:#888888"/>
  </linearGradient>
  <linearGradient id="id3" gradientUnits="objectBoundingBox" x1="50%" y1="100%" x2="50%" y2="1.83938e-14%">
   <stop offset="0" style="stop-opacity:1; stop-color:#909090"/>
   <stop offset="0.5" style="stop-opacity:1; stop-color:#707070"/>
   <stop offset="1" style="stop-opacity:1; stop-color:#505050"/>
  </linearGradient>
  <linearGradient id="id4" gradientUnits="objectBoundingBox" x1="50%" y1="100%" x2="50%" y2="0%">
   <stop offset="0" style="stop-opacity:1; stop-color:#858585"/>
   <stop offset="0.5" style="stop-opacity:1; stop-color:#9E9E9E"/>
   <stop offset="1" style="stop-opacity:1; stop-color:#CCCCCC"/>
  </linearGradient>
  <linearGradient id="id5" gradientUnits="userSpaceOnUse" x1="291" y1="188.613" x2="291" y2="158.667">
   <stop offset="0" style="stop-opacity:1; stop-color:#F8F8F8"/>
   <stop offset="0.5" style="stop-opacity:1; stop-color:gainsboro"/>
   <stop offset="1" style="stop-opacity:1; stop-color:#B7B7B7"/>
  </linearGradient>
  <linearGradient id="id6" gradientUnits="objectBoundingBox" x1="0%" y1="50%" x2="100%" y2="50%">
   <stop offset="0" style="stop-opacity:1; stop-color:#CCCCCC"/>
   <stop offset="0.05" style="stop-opacity:1; stop-color:#D4D4D4"/>
   <stop offset="0.95" style="stop-opacity:1; stop-color:#D4D4D4"/>
   <stop offset="1" style="stop-opacity:1; stop-color:#CCCCCC"/>
  </linearGradient>
  <linearGradient id="id7" gradientUnits="objectBoundingBox" x1="50%" y1="100%" x2="50%" y2="25%">
   <stop offset="0" style="stop-opacity:1; stop-color:#682452"/>
   <stop offset="1" style="stop-opacity:1; stop-color:#8A326C"/>
  </linearGradient>
  <linearGradient id="id8" gradientUnits="objectBoundingBox" x1="0%" y1="50%" x2="100%" y2="50%">
   <stop offset="0" style="stop-opacity:1; stop-color:#D4D4D4"/>
   <stop offset="0.05" style="stop-opacity:1; stop-color:#E6E6E6"/>
   <stop offset="0.95" style="stop-opacity:1; stop-color:#E6E6E6"/>
   <stop offset="1" style="stop-opacity:1; stop-color:#D4D4D4"/>
  </linearGradient>
  <linearGradient id="id9" gradientUnits="objectBoundingBox" x1="50%" y1="85%" x2="50%" y2="35%">
   <stop offset="0" style="stop-opacity:1; stop-color:#505050"/>
   <stop offset="1" style="stop-opacity:1; stop-color:#707070"/>
  </linearGradient>
  <linearGradient id="id10" gradientUnits="objectBoundingBox" xlink:href="#id7" x1="50%" y1="100%" x2="50%" y2="25%">
  </linearGradient>
  <linearGradient id="id11" gradientUnits="objectBoundingBox" x1="50%" y1="80%" x2="50%" y2="0%">
   <stop offset="0" style="stop-opacity:1; stop-color:#B7B7B7"/>
   <stop offset="0.45" style="stop-opacity:1; stop-color:#E6E6E6"/>
   <stop offset="1" style="stop-opacity:1; stop-color:#F8F8F8"/>
  </linearGradient>
  <linearGradient id="id12" gradientUnits="userSpaceOnUse" x1="131.761" y1="219.185" x2="131.761" y2="133.231">
   <stop offset="0" style="stop-opacity:1; stop-color:#505962"/>
   <stop offset="1" style="stop-opacity:1; stop-color:#2E3338"/>
  </linearGradient>
  <linearGradient id="id13" gradientUnits="userSpaceOnUse" x1="131.761" y1="185.279" x2="131.761" y2="168.271">
   <stop offset="0" style="stop-opacity:1; stop-color:#727A82"/>
   <stop offset="0.35" style="stop-opacity:1; stop-color:#424A52"/>
   <stop offset="1" style="stop-opacity:1; stop-color:#181A1C"/>
  </linearGradient>
  <linearGradient id="id14" gradientUnits="userSpaceOnUse" x1="121.018" y1="214.78" x2="123.782" y2="217.545">
   <stop offset="0" style="stop-opacity:1; stop-color:#66727E"/>
   <stop offset="1" style="stop-opacity:1; stop-color:#272B2F"/>
  </linearGradient>
  <linearGradient id="id15" gradientUnits="userSpaceOnUse" x1="121.028" y1="137.626" x2="123.792" y2="134.861">
   <stop offset="0" style="stop-opacity:1; stop-color:#555F69"/>
   <stop offset="1" style="stop-opacity:1; stop-color:#979EA5"/>
  </linearGradient>
  <linearGradient id="id16" gradientUnits="userSpaceOnUse" x1="90.414" y1="168.24" x2="93.178" y2="165.475">
   <stop offset="0" style="stop-opacity:1; stop-color:#5B6671"/>
   <stop offset="1" style="stop-opacity:1; stop-color:#979EA5"/>
  </linearGradient>
  <linearGradient id="id17" gradientUnits="userSpaceOnUse" xlink:href="#id15" x1="142.494" y1="137.626" x2="139.729" y2="134.861">
  </linearGradient>
  <linearGradient id="id18" gradientUnits="userSpaceOnUse" xlink:href="#id16" x1="173.108" y1="168.24" x2="170.343" y2="165.475">
  </linearGradient>
  <linearGradient id="id19" gradientUnits="userSpaceOnUse" x1="173.118" y1="184.166" x2="170.354" y2="186.931">
   <stop offset="0" style="stop-opacity:1; stop-color:#606B76"/>
   <stop offset="1" style="stop-opacity:1; stop-color:#272B2F"/>
  </linearGradient>
  <linearGradient id="id20" gradientUnits="userSpaceOnUse" x1="145.528" y1="187.19" x2="142.763" y2="189.954">
   <stop offset="0" style="stop-opacity:1; stop-color:#272B2F"/>
   <stop offset="1" style="stop-opacity:1; stop-color:#616C78"/>
  </linearGradient>
  <linearGradient id="id21" gradientUnits="userSpaceOnUse" xlink:href="#id20" x1="117.994" y1="187.19" x2="120.758" y2="189.954">
  </linearGradient>
  <linearGradient id="id22" gradientUnits="userSpaceOnUse" x1="118.004" y1="165.216" x2="120.769" y2="162.452">
   <stop offset="0" style="stop-opacity:1; stop-color:#979EA5"/>
   <stop offset="1" style="stop-opacity:1; stop-color:#5A656F"/>
  </linearGradient>
  <linearGradient id="id23" gradientUnits="userSpaceOnUse" xlink:href="#id22" x1="145.517" y1="165.216" x2="142.753" y2="162.452">
  </linearGradient>
  <linearGradient id="id24" gradientUnits="userSpaceOnUse" xlink:href="#id14" x1="142.504" y1="214.78" x2="139.74" y2="217.545">
  </linearGradient>
  <linearGradient id="id25" gradientUnits="userSpaceOnUse" xlink:href="#id19" x1="90.403" y1="184.166" x2="93.168" y2="186.931">
  </linearGradient>
 </defs>
 <g>
  <path class="fil0" d="M507.135 102.604c10.038,5.845 19.185,13.151 26.866,21.822 10.667,12.038 18.622,26.382 23.53,41.426 2.877,8.815 4.6,18.866 6.297,28.003 11.392,61.285 19.278,128.272 17.067,190.723 -0.441,12.459 -3.763,24.99 -8.616,36.62 -11.058,26.493 -43.031,46.564 -70.589,34.632 -36.746,-15.911 -35.761,-62.402 -51.037,-93.953 -10.072,-20.809 -26.838,-38.121 -46.727,-49.71 -1.154,-0.672 -2.37,-1.553 -3.811,-0.829 -1.811,0.911 -3.848,1.808 -5.8,2.651 -23.861,9.777 -53.025,0.994 -67.606,-20.216 -0.191,-0.286 -1.293,-1.325 -2.486,-1.325l-66.446 0c-1.192,0 -2.295,1.039 -2.486,1.325 -14.581,21.21 -43.745,29.993 -67.606,20.216 -1.952,-0.843 -3.989,-1.74 -5.8,-2.651 -1.441,-0.724 -2.657,0.157 -3.811,0.829 -19.889,11.589 -36.655,28.901 -46.727,49.71 -15.276,31.551 -14.291,78.042 -51.037,93.953 -27.558,11.932 -59.531,-8.139 -70.589,-34.632 -4.853,-11.63 -8.175,-24.161 -8.616,-36.62 -2.211,-62.451 5.675,-129.438 17.067,-190.723 1.697,-9.137 3.42,-19.188 6.297,-28.003 4.908,-15.044 12.863,-29.388 23.53,-41.426 7.681,-8.671 16.828,-15.977 26.866,-21.822 0.023,-0.845 0.497,-1.657 1.16,-2.319 14.897,-10.428 41.966,-16.073 60.15,-16.073 27.738,0 21.302,0 48.484,0 1.228,0 2.103,0.542 2.529,1.57 0.878,-0.175 1.796,-0.43 2.485,-0.627l202.654 0c0.689,0.197 1.607,0.452 2.485,0.627 0.426,-1.028 1.301,-1.571 2.529,-1.571 27.182,0 20.746,0 48.484,0 18.184,0 45.253,5.646 60.15,16.073 0.663,0.663 1.137,1.475 1.16,2.32z"/>
  <path class="fil1" d="M178.074 312.167c-19.889,11.589 -36.655,28.901 -46.727,49.71 -15.276,31.551 -14.291,78.042 -51.037,93.953 -27.558,11.932 -59.531,-8.139 -70.589,-34.632 -4.853,-11.63 -8.175,-24.161 -8.616,-36.62 -2.211,-62.451 5.675,-129.438 17.067,-190.723l0.718 -3.884c-0.461,4.262 -0.696,8.592 -0.696,12.978 0,65.585 52.739,118.754 117.792,118.754 10.835,0 21.326,-1.482 31.291,-4.246 3.475,-2.55 7.081,-3.125 10.797,-5.29zm225.852 0c3.716,2.165 7.322,2.74 10.797,5.29 9.965,2.764 20.456,4.246 31.291,4.246 65.053,0 117.792,-53.169 117.792,-118.754 0,-4.386 -0.235,-8.716 -0.696,-12.978l0.718 3.884c11.392,61.285 19.278,128.272 17.067,190.723 -0.441,12.459 -3.763,24.99 -8.616,36.62 -11.058,26.493 -43.031,46.564 -70.589,34.632 -36.746,-15.911 -35.761,-62.402 -51.037,-93.953 -10.072,-20.809 -26.838,-38.121 -46.727,-49.71z"/>
  <path class="fil2 str0" d="M175.058 302.133c-3.893,2.159 -7.798,3.677 -11.98,4.847 -13.38,3.748 -27.672,4.431 -41.591,2.461 -40.1,-5.251 -75.063,-34.953 -87.159,-73.023 -22.535,-68.594 28.501,-140.961 101.741,-140.961l309.862 0c73.24,0 124.276,72.367 101.741,140.961 -12.096,38.07 -47.059,67.772 -87.159,73.023 -13.919,1.97 -28.211,1.287 -41.591,-2.461 -4.182,-1.17 -8.087,-2.688 -11.98,-4.847"/>
  <path class="fil3" d="M182.159 311.475l-0.274 -0.137c-1.441,-0.724 -2.657,0.157 -3.811,0.829 -3.716,2.165 -7.322,4.53 -10.797,7.08 -9.965,2.764 -20.456,4.245 -31.291,4.245 -65.053,0 -117.792,-53.169 -117.792,-118.753 0,-6.618 0.537,-13.107 1.569,-19.431 1.264,-6.601 2.706,-13.327 4.706,-19.456 0.442,-1.354 0.908,-2.701 1.398,-4.043 -4.437,12.477 -6.853,25.922 -6.853,39.942 0,65.258 52.378,118.16 116.972,118.16 17.238,0 31.704,-3.619 45.5,-10.308 -1.059,-2.096 -2.933,-4.08 -3.526,-4.728 -0.949,-1.033 -2.154,-1.988 -3.148,-2.982 -18.559,-16.57 -21.707,-44.905 -7.789,-65.452 15.08,-22.867 45.734,-29.495 68.601,-14.251 19.553,12.76 28.004,38.277 19.719,60.15 -0.759,2.151 -1.324,4.494 -1.255,6.81l0.345 -0.197c0.954,-0.507 2.094,-0.89 3.344,-0.89l66.446 0c1.25,0 2.39,0.383 3.344,0.89l0.345 0.197c0.069,-2.316 -0.496,-4.659 -1.255,-6.81 -8.285,-21.873 0.166,-47.39 19.719,-60.15 22.867,-15.244 53.521,-8.616 68.601,14.251 13.918,20.547 10.77,48.882 -7.789,65.452 -0.994,0.994 -2.199,1.949 -3.148,2.982 -0.593,0.648 -2.467,2.632 -3.526,4.728 13.796,6.689 28.262,10.308 45.5,10.308 64.594,0 116.972,-52.902 116.972,-118.16 0,-14.02 -2.416,-27.465 -6.853,-39.942 0.49,1.342 0.956,2.689 1.398,4.043 2,6.129 3.442,12.855 4.706,19.456 1.032,6.324 1.569,12.813 1.569,19.431 0,65.584 -52.739,118.753 -117.792,118.753 -10.835,0 -21.326,-1.481 -31.291,-4.245 -3.475,-2.55 -7.081,-4.915 -10.797,-7.08 -1.154,-0.672 -2.37,-1.553 -3.811,-0.829l-0.274 0.137c-1.74,0.865 -3.673,1.714 -5.526,2.514 -23.8,9.752 -52.872,1.037 -67.492,-20.053l-0.002 0 -0.112 -0.163c-0.191,-0.286 -1.294,-1.325 -2.486,-1.325l-66.446 0c-1.192,0 -2.295,1.039 -2.486,1.325l-0.112 0.163 -0.002 0c-14.62,21.09 -43.692,29.805 -67.492,20.053 -1.853,-0.8 -3.786,-1.649 -5.526,-2.514z"/>
  <circle class="fil4" cx="208.564" cy="263.869" r="50.646"/>
  <circle class="fil4" cx="373.436" cy="263.869" r="50.646"/>
  <path class="fil5" d="M208.564 217.258c23.863,0 43.209,19.345 43.209,43.209 0,23.864 -19.346,43.21 -43.209,43.21 -23.864,0 -43.21,-19.346 -43.21,-43.21 0,-23.864 19.346,-43.209 43.21,-43.209zm0 1.002c23.31,0 42.207,18.897 42.207,42.207 0,23.311 -18.897,42.208 -42.207,42.208 -23.311,0 -42.208,-18.897 -42.208,-42.208 0,-23.31 18.897,-42.207 42.208,-42.207z"/>
  <path class="fil5" d="M373.436 217.258c23.864,0 43.21,19.345 43.21,43.209 0,23.864 -19.346,43.21 -43.21,43.21 -23.863,0 -43.209,-19.346 -43.209,-43.21 0,-23.864 19.346,-43.209 43.209,-43.209zm0 1.002c23.311,0 42.208,18.897 42.208,42.207 0,23.311 -18.897,42.208 -42.208,42.208 -23.31,0 -42.207,-18.897 -42.207,-42.208 0,-23.31 18.897,-42.207 42.207,-42.207z"/>
  <circle class="fil6" cx="208.564" cy="260.467" r="38.551"/>
  <circle class="fil6" cx="373.436" cy="260.467" r="38.551"/>
  <path class="fil7" d="M331.68 195.03l-81.525 0c-11.5,0 -20.728,-9.441 -20.728,-20.893l0 -1.16c0,-11.489 9.239,-20.727 20.728,-20.727l81.525 0c11.535,0 20.893,9.146 20.893,20.727l0 1.16c0,11.57 -9.321,20.893 -20.893,20.893zm-81.525 -5.001l81.525 0c8.81,0 15.892,-7.082 15.892,-15.892l0 -1.16c0,-8.846 -7.095,-15.727 -15.892,-15.727l-81.525 0c-8.728,0 -15.727,6.999 -15.727,15.727l0 1.16c0,8.716 6.963,15.892 15.727,15.892z"/>
  <path class="fil8" d="M120.422 129.342l22.677 0c2.707,0 4.914,2.207 4.914,4.913l0 24.567c0,0.625 0.509,1.134 1.134,1.134l24.567 0c2.706,0 4.913,2.207 4.913,4.914l0 22.677c0,2.706 -2.207,4.913 -4.913,4.913l-24.567 0c-0.625,0 -1.134,0.51 -1.134,1.134l0 24.567c0,2.706 -2.207,4.913 -4.914,4.913l-22.677 0c-2.706,0 -4.913,-2.207 -4.913,-4.913l0 -24.567c0,-0.624 -0.51,-1.134 -1.134,-1.134l-24.567 0c-2.706,0 -4.913,-2.207 -4.913,-4.913l0 -22.677c0,-2.707 2.207,-4.914 4.913,-4.914l24.567 0c0.624,0 1.134,-0.509 1.134,-1.134l0 -24.567c0,-2.706 2.207,-4.913 4.913,-4.913z"/>
  <path class="fil8" d="M250.52 181.392c-4.073,0.004 -7.439,-3.366 -7.439,-7.438l0 -0.463c0,-4.128 3.269,-7.593 7.439,-7.593l27.676 0.003c4.155,-0.008 7.594,3.435 7.594,7.589l0 0.464c0,4.094 -3.543,7.439 -7.594,7.439l-27.676 -0.001z"/>
  <path class="fil8" d="M303.649 181.392c-4.073,0.004 -7.439,-3.366 -7.439,-7.437l0 -0.464c0,-4.128 3.269,-7.593 7.439,-7.593l27.676 0.003c4.155,-0.008 7.594,3.435 7.594,7.59l0 0.463c0,4.094 -3.544,7.439 -7.594,7.439l-27.676 -0.001z"/>
  <circle class="fil9" cx="405.251" cy="175.711" r="20.409"/>
  <circle class="fil9" cx="450.819" cy="136.108" r="20.409"/>
  <circle class="fil9" cx="450.819" cy="215.397" r="20.409"/>
  <circle class="fil9" cx="496.139" cy="175.711" r="20.409"/>
  <path class="fil2 str1" d="M143.774 271.072c0,-6.628 -5.468,-12.262 -12.096,-12.262 -6.794,0 -12.262,5.634 -12.262,12.262 0,6.629 5.468,12.096 12.262,12.096 6.628,0 12.096,-5.467 12.096,-12.096z"/>
  <path class="fil10" d="M131.935 262.293l2.254 4.539c0.114,0.23 0.317,0.377 0.571,0.414l5.013 0.741c0.146,0.021 0.26,0.118 0.306,0.258 0.046,0.141 0.01,0.286 -0.095,0.389l-3.621 3.547c-0.184,0.18 -0.261,0.417 -0.218,0.67l0.845 4.997c0.025,0.147 -0.032,0.285 -0.151,0.372 -0.12,0.087 -0.269,0.097 -0.4,0.029l-4.491 -2.348c-0.228,-0.119 -0.478,-0.119 -0.706,0l-4.491 2.348c-0.131,0.068 -0.28,0.058 -0.4,-0.029 -0.12,-0.087 -0.176,-0.225 -0.151,-0.372l0.845 -4.997c0.043,-0.253 -0.034,-0.49 -0.218,-0.67l-3.621 -3.547c-0.106,-0.103 -0.141,-0.248 -0.095,-0.389 0.045,-0.14 0.16,-0.237 0.306,-0.258l5.013 -0.741c0.254,-0.037 0.457,-0.184 0.571,-0.414l2.253 -4.539c0.066,-0.133 0.193,-0.212 0.341,-0.212 0.148,0 0.275,0.079 0.34,0.212z"/>
  <path class="fil6" d="M281.058 235.333c1.252,0 2.268,1.015 2.268,2.268 0,1.252 -1.016,2.267 -2.268,2.267 -1.253,0 -2.268,-1.015 -2.268,-2.267 0,-1.253 1.015,-2.268 2.268,-2.268zm10.19 0c1.253,0 2.268,1.015 2.268,2.268 0,1.252 -1.015,2.267 -2.268,2.267 -1.252,0 -2.267,-1.015 -2.267,-2.267 0,-1.253 1.015,-2.268 2.267,-2.268zm10.191 0c1.252,0 2.267,1.015 2.267,2.268 0,1.252 -1.015,2.267 -2.267,2.267 -1.253,0 -2.268,-1.015 -2.268,-2.267 0,-1.253 1.015,-2.268 2.268,-2.268z"/>
  <path class="fil2 str1" d="M285.449 253.177l11.599 0c3.811,0 6.96,3.148 6.96,7.125 0,3.811 -3.149,6.959 -6.96,6.959l-11.599 0c-3.811,0 -6.96,-3.148 -6.96,-6.959 0,-3.977 3.149,-7.125 6.96,-7.125z"/>
  <path class="fil11 str2" d="M466.082 271.094c0,-8.351 -6.681,-15.45 -15.241,-15.45 -8.351,0 -15.449,7.099 -15.449,15.45 0,8.351 7.098,15.239 15.449,15.239 8.56,0 15.241,-6.888 15.241,-15.239zm-3.167 -0.022c0,-6.628 -5.302,-12.262 -12.096,-12.262 -6.628,0 -12.262,5.634 -12.262,12.262 0,6.629 5.634,12.096 12.262,12.096 6.794,0 12.096,-5.467 12.096,-12.096z"/>
  <path class="fil10" d="M448.996 268.09l3.646 0 0 -3.811 3.977 0 0 3.811 3.645 0 0 4.142 -3.645 0 0 3.646 -3.811 0 0 3.811 -3.977 0 0 -3.811 -3.811 0 0 -3.646 -3.646 0 0 -4.142 3.646 0 0 -3.811 3.976 0 0 3.811zm3.812 0.166l0 3.645 3.645 0 0 -3.645 -3.645 0zm-7.622 0l0 3.645 3.645 0 0 -3.645 -3.645 0zm7.456 3.976l-3.646 0 0 3.48 3.646 0 0 -3.48z"/>
  <g>
   <path class="fil12" d="M249.967 128.882c0,1.517 -1.16,2.819 -3.722,2.819 -1.948,0 -3.254,-1.013 -3.254,-2.546 0,-1.055 0.65,-1.916 2.062,-2.221 0.084,-0.026 0.105,-0.121 0.043,-0.173l-0.247 -0.215c-0.798,-0.698 -1.591,-1.496 -1.591,-2.756 0,-1.57 1.092,-2.557 3.339,-2.557 1.947,0 3.228,0.903 3.228,2.294 0,0.961 -0.719,1.643 -1.979,1.89 -0.084,0.026 -0.1,0.11 -0.042,0.168l0.519 0.462c0.987,0.887 1.643,1.601 1.643,2.835l0.001 0zm-2.42 1.134c0,-0.615 -0.226,-1.318 -1.003,-1.995l-0.96 -0.84c-0.042,-0.047 -0.121,-0.036 -0.147,0.042 -0.142,0.509 -0.184,1.129 -0.184,1.948 0,1.328 0.383,2.136 1.097,2.136 0.693,0 1.191,-0.519 1.191,-1.286l0.006 -0.005zm-1.921 -7.218c0,0.666 0.288,1.118 1.133,1.863l0.588 0.52c0.058,0.058 0.111,0.026 0.142,-0.042 0.121,-0.457 0.147,-0.929 0.147,-1.591 0,-1.202 -0.341,-1.89 -1.092,-1.89 -0.562,0 -0.918,0.415 -0.918,1.139l0 0.001zm12.319 6.005c0,1.779 -1.191,2.682 -3.569,2.682l-4.194 0c-0.121,0 -0.215,-0.063 -0.215,-0.131 0,-0.068 0.042,-0.141 0.121,-0.184 0.341,-0.173 0.671,-0.377 0.671,-1.306l0 -6.788c0,-0.929 -0.33,-1.129 -0.672,-1.302 -0.072,-0.025 -0.12,-0.092 -0.121,-0.168 0,-0.079 0.1,-0.147 0.216,-0.147l4.367 0c1.99,0 3.008,0.793 3.008,2.336 0,1.486 -0.877,2.263 -2.504,2.415 -0.063,0 -0.089,0.047 -0.089,0.089 0,0.042 0.026,0.084 0.089,0.084 1.727,0.016 2.892,0.835 2.892,2.42l0 0zm-4.351 -6.677l0 3.8c0,0.126 0.058,0.195 0.205,0.195 0.63,0 0.918,-0.741 0.918,-2.137 0,-1.218 -0.273,-2.079 -0.877,-2.079 -0.162,0 -0.246,0.09 -0.246,0.215l0 0.006zm1.344 6.688c0,-1.518 -0.426,-2.268 -1.16,-2.268 -0.126,0 -0.184,0.063 -0.184,0.189l0 4.068c0,0.131 0.068,0.231 0.247,0.231 0.756,0 1.097,-0.987 1.097,-2.22l0 0zm7.102 2.462c0,0.11 -0.1,0.204 -0.21,0.204l-3.669 0c-0.111,0 -0.216,-0.079 -0.216,-0.162l0 -0.027c0,-0.068 0.043,-0.141 0.111,-0.173 0.404,-0.194 0.614,-0.582 0.614,-1.317l0 -3.092c0,-0.614 -0.184,-0.945 -0.509,-1.071 -0.084,-0.037 -0.147,-0.105 -0.147,-0.189l0 -0.026c0,-0.106 0.089,-0.174 0.215,-0.174 0.877,-0.015 1.932,-0.141 2.851,-0.399 0.173,-0.057 0.315,0.058 0.315,0.231l0 4.725c0,0.792 0.23,1.134 0.546,1.302 0.057,0.047 0.099,0.105 0.099,0.173l0 -0.005zm-3.711 -8.247c0,-0.887 0.687,-1.601 1.59,-1.601 0.903,0 1.596,0.714 1.596,1.601 0,0.876 -0.693,1.575 -1.596,1.575 -0.903,0 -1.59,-0.699 -1.59,-1.575l0 0zm8.036 6.588c-0.068,1.281 -0.866,2.078 -2.073,2.078 -1.365,0 -1.969,-0.876 -1.969,-2.057l0 -4.583 -0.273 0c-0.11,0 -0.209,-0.105 -0.209,-0.205l0 -0.057c0,-0.069 0.042,-0.148 0.125,-0.174 1.118,-0.467 2.221,-1.344 2.641,-2.315 0.026,-0.089 0.1,-0.131 0.168,-0.131l0.068 0c0.121,0 0.204,0.105 0.204,0.215l0 2.105 0.903 0c0.121,0 0.216,0.1 0.216,0.215l0 0.21c0,0.121 -0.1,0.215 -0.216,0.215l-0.903 0 0 4.258c0,0.441 0.174,0.73 0.478,0.73 0.273,0 0.415,-0.184 0.468,-0.525 0.015,-0.121 0.104,-0.205 0.204,-0.205 0.1,0 0.19,0.1 0.168,0.226l0 0zm8.357 -3.192c0,3.407 -2.063,5.06 -4.142,5.06l-4.026 0c-0.11,0 -0.215,-0.078 -0.215,-0.147l0 -0.015c0,-0.069 0.047,-0.126 0.105,-0.168 0.383,-0.247 0.63,-0.861 0.63,-1.58l0 -6.42c0,-0.898 -0.247,-1.181 -0.63,-1.386 -0.058,-0.042 -0.105,-0.1 -0.105,-0.168 0,-0.079 0.105,-0.147 0.215,-0.147l3.984 0c2.562,0 4.184,1.947 4.184,4.971l0 0zm-4.556 -4.53c-0.131,0 -0.231,0.089 -0.231,0.215l0 8.709c0,0.131 0.042,0.247 0.215,0.247 1.176,0 1.517,-0.972 1.517,-4.368 0,-3.407 -0.383,-4.803 -1.507,-4.803l0.006 0zm4.907 6.031c0,-2.231 1.386,-3.753 3.208,-3.753 1.821,0 3.212,1.517 3.212,3.753 0,2.231 -1.391,3.764 -3.212,3.764 -1.822,0 -3.208,-1.533 -3.208,-3.764l0 0zm3.754 0c0,-2.378 -0.189,-3.191 -0.546,-3.191 -0.357,0 -0.546,0.813 -0.546,3.191 0,2.378 0.189,3.192 0.546,3.192 0.357,0 0.546,-0.814 0.546,-3.192l0 0zm1.868 -6.504c0.442,0 0.798,0.357 0.798,0.793 0,0.441 -0.356,0.798 -0.798,0.798 -0.439,0 -0.795,-0.357 -0.795,-0.795 0,-0.44 0.356,-0.796 0.795,-0.796l0 0zm-0.666 0.793c0,0.373 0.299,0.677 0.666,0.677 0.363,0 0.667,-0.309 0.667,-0.677 0,-0.362 -0.299,-0.672 -0.667,-0.672 -0.362,0 -0.666,0.31 -0.666,0.672l0 0zm0.84 0.131c0,0.005 0.005,0.016 0.015,0.037l0.142 0.247c0.016,0.026 0,0.057 -0.037,0.057l-0.047 0c-0.021,0 -0.036,-0.005 -0.047,-0.042l-0.152 -0.267c-0.006,-0.016 -0.021,-0.021 -0.037,-0.021l-0.147 0c-0.005,0 -0.021,0.005 -0.021,0.021l0 0.267c0,0.022 -0.016,0.042 -0.037,0.042l-0.047 0c-0.021,0 -0.037,-0.02 -0.037,-0.042l0 -0.855c0,-0.021 0.016,-0.037 0.037,-0.037l0.299 0c0.168,0 0.299,0.131 0.299,0.299 0,0.105 -0.058,0.194 -0.147,0.252 -0.021,0.021 -0.036,0.026 -0.036,0.042l0 0zm0.063 -0.294c0,-0.105 -0.079,-0.173 -0.184,-0.173l-0.194 0c-0.006,0 -0.021,0.005 -0.021,0.016l0 0.32c0,0.005 0.015,0.015 0.021,0.015l0.194 0.001c0.105,0 0.184,-0.069 0.184,-0.173l0 -0.006zm0 0l0 0 0 0z"/>
  </g>
  <path class="fil12" d="M309.64 131.532l1.575 0 0 -3.308 1.696 0c2.036,0 3.13,-1.353 3.13,-3.24 0,-1.873 -1.075,-3.24 -3.106,-3.24l-3.295 0 0 9.788zm1.575 -4.746l0 -3.577 1.475 0c1.211,0 1.738,0.726 1.738,1.775 0,1.051 -0.527,1.802 -1.725,1.802l-1.488 0zm6.171 4.746l1.54 0 0 -4.321c0,-0.927 0.633,-1.584 1.492,-1.584 0.272,0 0.598,0.047 0.727,0.085l0 -1.575c-0.15,-0.02 -0.392,-0.038 -0.564,-0.038 -0.758,0 -1.396,0.48 -1.633,1.324l-0.07 0 0 -1.232 -1.492 0 0 7.341zm7.42 0.148c1.926,0 3.165,-1.522 3.165,-3.783 0,-2.285 -1.239,-3.8 -3.165,-3.8 -1.926,0 -3.152,1.515 -3.152,3.8 0,2.261 1.226,3.783 3.152,3.783zm0 -1.385c-1.069,0 -1.588,-1.065 -1.588,-2.404 0,-1.352 0.519,-2.409 1.588,-2.409 1.075,0 1.601,1.057 1.601,2.409 0,1.339 -0.526,2.404 -1.601,2.404zm7.539 1.237l6.033 0 0 -1.466 -3.839 0 0 -0.071 1.538 -1.737c1.717,-1.849 2.172,-2.731 2.172,-3.816 0,-1.636 -1.19,-2.833 -2.962,-2.833 -1.75,0 -2.988,1.204 -2.988,3.057l1.511 0c0,-1.006 0.57,-1.631 1.459,-1.631 0.836,0 1.465,0.571 1.465,1.492 0,0.829 -0.463,1.421 -1.322,2.395l-3.067 3.348 0 1.262z"/>
  <line class="fil2 str3" x1="243.526" y1="137.646" x2="338.474" y2= "137.646" />
  <path class="fil12" d="M250.85 208.254l-2.754 0 0 0.982 2.754 0 0 -0.982zm5.01 3.423c1.159,0 1.973,-0.666 1.973,-1.634 0,-0.717 -0.415,-1.173 -1.286,-1.379l-0.781 -0.182c-0.469,-0.114 -0.652,-0.301 -0.652,-0.599 0,-0.347 0.343,-0.594 0.795,-0.594 0.493,0 0.757,0.284 0.864,0.639l0.952 -0.209c-0.183,-0.79 -0.788,-1.315 -1.827,-1.315 -1.102,0 -1.854,0.606 -1.854,1.552 0,0.75 0.424,1.221 1.291,1.43l0.785 0.188c0.418,0.1 0.619,0.287 0.619,0.584 0,0.347 -0.333,0.612 -0.858,0.612 -0.522,0 -0.842,-0.242 -0.965,-0.749l-0.998 0.211c0.159,0.926 0.887,1.445 1.942,1.445zm4.92 -0.002c1.023,0 1.74,-0.544 1.962,-1.371l-0.984 -0.225c-0.143,0.435 -0.497,0.664 -0.966,0.664 -0.686,0 -1.15,-0.485 -1.179,-1.395l3.199 0 0 -0.372c0,-1.787 -0.979,-2.572 -2.102,-2.572 -1.314,0 -2.158,1.078 -2.158,2.643 0,1.599 0.844,2.628 2.228,2.628zm-1.167 -3.131c0.05,-0.68 0.444,-1.208 1.1,-1.208 0.638,0 0.996,0.478 1.058,1.208l-2.158 0zm5.182 -3.779l-1.069 0 0 6.809 1.069 0 0 -6.809zm3.169 6.91c1.023,0 1.74,-0.544 1.962,-1.371l-0.984 -0.225c-0.143,0.435 -0.497,0.664 -0.966,0.664 -0.686,0 -1.151,-0.485 -1.179,-1.395l3.199 0 0 -0.372c0,-1.787 -0.98,-2.572 -2.103,-2.572 -1.313,0 -2.157,1.078 -2.157,2.643 0,1.599 0.844,2.628 2.228,2.628zm-1.167 -3.131c0.05,-0.68 0.444,-1.208 1.099,-1.208 0.639,0 0.997,0.478 1.058,1.208l-2.157 0zm6.112 3.133c1.031,0 1.796,-0.62 1.994,-1.638l-0.999 -0.234c-0.111,0.553 -0.461,0.909 -0.987,0.909 -0.745,0 -1.114,-0.727 -1.114,-1.673 0,-0.954 0.369,-1.676 1.114,-1.676 0.518,0 0.859,0.342 0.974,0.873l1 -0.233c-0.199,-0.996 -0.959,-1.603 -1.982,-1.603 -1.341,0 -2.193,1.054 -2.193,2.644 0,1.572 0.852,2.631 2.193,2.631zm5.032 -5.208l-0.888 0 0 -1.214 -1.069 0 0 1.214 -0.653 0 0 0.932 0.653 0 0 2.829c0,0.904 0.489,1.408 1.368,1.408 0.228,0 0.482,-0.031 0.716,-0.109l-0.168 -0.92c-0.103,0.026 -0.292,0.059 -0.39,0.059 -0.326,0 -0.457,-0.168 -0.457,-0.537l0 -2.73 0.888 0 0 -0.932zm25.992 4.701l0.927 0 0 -1.812 1.603 0 0 -0.973 -1.603 0 0 -1.808 -0.927 0 0 1.808 -1.598 0 0 0.973 1.598 0 0 1.812zm7.727 0.507c1.16,0 1.974,-0.666 1.974,-1.634 0,-0.717 -0.416,-1.173 -1.288,-1.379l-0.78 -0.182c-0.469,-0.114 -0.652,-0.301 -0.652,-0.599 0,-0.347 0.343,-0.594 0.795,-0.594 0.493,0 0.757,0.284 0.863,0.639l0.953 -0.209c-0.183,-0.79 -0.788,-1.315 -1.827,-1.315 -1.102,0 -1.854,0.606 -1.854,1.552 0,0.75 0.424,1.221 1.291,1.43l0.785 0.188c0.418,0.1 0.619,0.287 0.619,0.584 0,0.347 -0.333,0.612 -0.858,0.612 -0.522,0 -0.842,-0.242 -0.965,-0.749l-0.999 0.211c0.161,0.926 0.887,1.445 1.943,1.445zm5.011 -5.208l-0.887 0 0 -1.214 -1.069 0 0 1.214 -0.653 0 0 0.932 0.653 0 0 2.829c0,0.904 0.489,1.408 1.368,1.408 0.227,0 0.481,-0.031 0.716,-0.109l-0.168 -0.92c-0.103,0.026 -0.293,0.059 -0.391,0.059 -0.325,0 -0.456,-0.168 -0.456,-0.537l0 -2.73 0.887 0 0 -0.932zm2.174 5.208c0.715,0 1.151,-0.37 1.353,-0.806l0.041 0 0 0.703 1.026 0 0 -3.412c0,-1.361 -1.011,-1.758 -1.877,-1.758 -0.922,0 -1.678,0.433 -1.949,1.334l0.989 0.223c0.113,-0.338 0.43,-0.644 0.965,-0.644 0.523,0 0.802,0.293 0.802,0.79l0 0.024c0,0.351 -0.336,0.365 -1.137,0.461 -0.888,0.105 -1.751,0.397 -1.751,1.548 0,1.004 0.661,1.537 1.538,1.537zm0.275 -0.879c-0.452,0 -0.777,-0.228 -0.777,-0.67 0,-0.467 0.362,-0.663 0.843,-0.736 0.277,-0.042 0.875,-0.123 1.018,-0.253l0 0.603c0,0.568 -0.424,1.056 -1.084,1.056zm3.275 0.776l1.069 0 0 -3.005c0,-0.645 0.439,-1.102 1.036,-1.102 0.19,0 0.416,0.033 0.505,0.059l0 -1.096c-0.103,-0.014 -0.272,-0.026 -0.391,-0.026 -0.526,0 -0.97,0.333 -1.134,0.921l-0.049 0 0 -0.857 -1.036 0 0 5.106zm5.62 -5.105l-0.887 0 0 -1.214 -1.07 0 0 1.214 -0.653 0 0 0.932 0.653 0 0 2.829c0,0.904 0.49,1.408 1.369,1.408 0.227,0 0.481,-0.031 0.716,-0.109l-0.169 -0.92c-0.102,0.026 -0.292,0.059 -0.39,0.059 -0.325,0 -0.456,-0.168 -0.456,-0.537l0 -2.73 0.887 0 0 -0.932z"/>
  <path class="fil6" d="M135.178 230.198l-2.986 5.173c-0.042,0.074 -0.104,0.139 -0.183,0.184 -0.238,0.137 -0.543,0.054 -0.68,-0.184l-2.962 -5.132c-0.058,-0.081 -0.092,-0.181 -0.092,-0.289 0,-0.276 0.224,-0.5 0.5,-0.5l5.972 0c0.084,0.002 0.169,0.023 0.248,0.068 0.238,0.137 0.32,0.442 0.183,0.68zm-62.58 -54.422l5.173 -2.985c0.238,-0.137 0.542,-0.055 0.679,0.183 0.045,0.079 0.066,0.164 0.066,0.248l0.003 5.972c0,0.276 -0.225,0.5 -0.5,0.5 -0.108,0 -0.208,-0.034 -0.29,-0.092l-5.131 -2.962c-0.239,-0.137 -0.321,-0.442 -0.184,-0.68 0.045,-0.079 0.11,-0.141 0.184,-0.184zm59.594 -58.731l2.986 5.173c0.137,0.238 0.055,0.543 -0.183,0.68 -0.079,0.045 -0.164,0.066 -0.248,0.066l-5.972 0.002c-0.276,0 -0.5,-0.224 -0.5,-0.5 0,-0.107 0.034,-0.207 0.092,-0.289l2.962 -5.132c0.137,-0.238 0.442,-0.321 0.68,-0.184 0.079,0.046 0.141,0.11 0.183,0.184zm53.559 55.746l5.173 2.985c0.074,0.043 0.138,0.105 0.184,0.184 0.137,0.238 0.054,0.543 -0.184,0.68l-5.132 2.962c-0.082,0.058 -0.182,0.092 -0.289,0.092 -0.276,0 -0.5,-0.224 -0.5,-0.5l0 -5.972c0.002,-0.084 0.023,-0.169 0.068,-0.248 0.137,-0.238 0.442,-0.32 0.68,-0.183z"/>
  <path class="fil12" d="M381.166 156.99l0 3.736c0,0.053 -0.014,0.103 -0.045,0.148 -0.031,0.042 -0.08,0.078 -0.149,0.106 -0.068,0.025 -0.162,0.048 -0.281,0.065 -0.118,0.016 -0.264,0.025 -0.439,0.025 -0.179,0 -0.328,-0.009 -0.444,-0.025 -0.113,-0.017 -0.207,-0.04 -0.278,-0.065 -0.073,-0.028 -0.123,-0.064 -0.149,-0.106 -0.028,-0.045 -0.042,-0.095 -0.042,-0.148l0 -3.736 -2.45 -5.785c-0.088,-0.201 -0.145,-0.361 -0.17,-0.473 -0.027,-0.112 -0.012,-0.196 0.042,-0.255 0.052,-0.055 0.151,-0.092 0.292,-0.106 0.142,-0.014 0.34,-0.019 0.593,-0.019 0.213,0 0.38,0.005 0.508,0.016 0.127,0.011 0.226,0.031 0.299,0.062 0.074,0.03 0.128,0.07 0.163,0.117 0.033,0.051 0.066,0.112 0.099,0.191l1.002 2.61c0.096,0.252 0.193,0.517 0.288,0.794 0.096,0.281 0.19,0.572 0.29,0.88l0.014 0c0.087,-0.297 0.177,-0.582 0.269,-0.863 0.092,-0.28 0.182,-0.543 0.269,-0.795l0.984 -2.593c0.024,-0.089 0.052,-0.159 0.088,-0.21 0.033,-0.053 0.085,-0.095 0.156,-0.128 0.068,-0.031 0.162,-0.054 0.283,-0.065 0.118,-0.011 0.279,-0.016 0.477,-0.016 0.262,0 0.468,0.005 0.611,0.019 0.146,0.014 0.246,0.051 0.298,0.106 0.054,0.059 0.066,0.146 0.038,0.261 -0.026,0.114 -0.083,0.269 -0.166,0.467l-2.45 5.785z"/>
  <path class="fil12" d="M429.282 120.605c0.082,0.193 0.136,0.344 0.163,0.459 0.025,0.115 0.009,0.204 -0.046,0.263 -0.056,0.062 -0.155,0.098 -0.3,0.115 -0.146,0.017 -0.346,0.025 -0.604,0.025 -0.215,0 -0.387,-0.005 -0.51,-0.017 -0.125,-0.011 -0.222,-0.028 -0.292,-0.053 -0.071,-0.025 -0.123,-0.059 -0.156,-0.103 -0.033,-0.043 -0.059,-0.098 -0.083,-0.163l-1.685 -3.833 -1.672 3.833c-0.028,0.065 -0.056,0.12 -0.09,0.163 -0.033,0.044 -0.084,0.078 -0.155,0.103 -0.073,0.025 -0.172,0.042 -0.3,0.053 -0.127,0.012 -0.295,0.017 -0.503,0.017 -0.241,0 -0.427,-0.008 -0.559,-0.025 -0.13,-0.017 -0.22,-0.053 -0.267,-0.115 -0.045,-0.059 -0.054,-0.148 -0.026,-0.263 0.026,-0.115 0.085,-0.266 0.172,-0.459l2.142 -4.637 -1.993 -4.357c-0.083,-0.199 -0.139,-0.355 -0.17,-0.473 -0.028,-0.118 -0.019,-0.205 0.036,-0.263 0.051,-0.056 0.15,-0.092 0.292,-0.106 0.144,-0.015 0.348,-0.02 0.609,-0.02 0.217,0 0.39,0.005 0.517,0.017 0.128,0.011 0.227,0.028 0.3,0.053 0.075,0.025 0.128,0.059 0.156,0.103 0.031,0.042 0.059,0.098 0.087,0.163l1.579 3.514 1.523 -3.514c0.028,-0.065 0.057,-0.121 0.088,-0.163 0.028,-0.044 0.078,-0.078 0.143,-0.103 0.067,-0.025 0.159,-0.042 0.277,-0.053 0.118,-0.012 0.28,-0.017 0.488,-0.017 0.229,0 0.412,0.005 0.546,0.02 0.132,0.014 0.224,0.05 0.276,0.111 0.05,0.059 0.064,0.149 0.038,0.264 -0.026,0.114 -0.078,0.268 -0.156,0.467l-1.992 4.332 2.127 4.662z"/>
  <path class="fil12" d="M525.149 200.217c0.055,0.196 0.09,0.353 0.104,0.467 0.015,0.115 -0.005,0.202 -0.054,0.261 -0.052,0.056 -0.141,0.092 -0.271,0.106 -0.128,0.014 -0.307,0.02 -0.531,0.02 -0.237,0 -0.421,-0.003 -0.551,-0.011 -0.132,-0.009 -0.231,-0.026 -0.302,-0.051 -0.068,-0.025 -0.115,-0.059 -0.144,-0.103 -0.028,-0.042 -0.052,-0.101 -0.068,-0.171l-0.588 -2.134 -3.376 0 -0.564 2.075c-0.019,0.078 -0.043,0.143 -0.073,0.193 -0.029,0.053 -0.078,0.093 -0.144,0.123 -0.066,0.031 -0.161,0.051 -0.283,0.062 -0.123,0.011 -0.284,0.017 -0.482,0.017 -0.213,0 -0.378,-0.009 -0.498,-0.025 -0.121,-0.017 -0.203,-0.057 -0.248,-0.118 -0.048,-0.064 -0.064,-0.154 -0.05,-0.269 0.014,-0.114 0.05,-0.266 0.104,-0.459l2.758 -9.422c0.025,-0.092 0.059,-0.168 0.096,-0.224 0.036,-0.059 0.094,-0.101 0.175,-0.131 0.082,-0.031 0.193,-0.051 0.337,-0.059 0.142,-0.009 0.331,-0.012 0.567,-0.012 0.272,0 0.489,0.003 0.65,0.012 0.162,0.008 0.287,0.028 0.377,0.059 0.089,0.03 0.153,0.075 0.194,0.134 0.038,0.061 0.073,0.143 0.099,0.246l2.766 9.414zm-4.107 -7.795l-0.007 0 -1.247 4.516 2.512 0 -1.258 -4.516z"/>
  <path class="fil12" d="M479.057 237.52c0,0.378 -0.045,0.719 -0.133,1.027 -0.087,0.305 -0.207,0.577 -0.361,0.812 -0.156,0.235 -0.339,0.437 -0.552,0.608 -0.215,0.171 -0.451,0.308 -0.708,0.42 -0.258,0.109 -0.534,0.19 -0.826,0.241 -0.293,0.053 -0.619,0.078 -0.978,0.078l-2.377 0c-0.151,0 -0.279,-0.053 -0.383,-0.16 -0.103,-0.106 -0.155,-0.279 -0.155,-0.521l0 -9.256c0,-0.241 0.052,-0.415 0.155,-0.521 0.104,-0.106 0.232,-0.16 0.383,-0.16l2.243 0c0.547,0 1.01,0.056 1.39,0.166 0.38,0.109 0.699,0.274 0.958,0.495 0.262,0.221 0.461,0.501 0.597,0.84 0.14,0.339 0.208,0.736 0.208,1.196 0,0.257 -0.028,0.498 -0.082,0.725 -0.055,0.227 -0.137,0.434 -0.241,0.619 -0.106,0.187 -0.236,0.35 -0.392,0.493 -0.153,0.142 -0.328,0.257 -0.526,0.344 0.253,0.056 0.488,0.151 0.703,0.288 0.215,0.138 0.401,0.314 0.56,0.529 0.16,0.216 0.286,0.471 0.377,0.759 0.092,0.292 0.14,0.616 0.14,0.978zm-2.352 -4.475c0,-0.213 -0.028,-0.403 -0.082,-0.574 -0.055,-0.168 -0.137,-0.311 -0.248,-0.423 -0.111,-0.112 -0.25,-0.196 -0.418,-0.257 -0.168,-0.059 -0.392,-0.09 -0.672,-0.09l-0.917 0 0 2.755 1.013 0c0.262,0 0.472,-0.036 0.628,-0.112 0.156,-0.072 0.286,-0.173 0.389,-0.302 0.104,-0.129 0.18,-0.28 0.232,-0.451 0.049,-0.174 0.075,-0.352 0.075,-0.546zm0.468 4.553c0,-0.247 -0.036,-0.468 -0.104,-0.664 -0.069,-0.193 -0.17,-0.355 -0.305,-0.487 -0.132,-0.132 -0.302,-0.232 -0.51,-0.305 -0.207,-0.07 -0.476,-0.107 -0.81,-0.107l-1.076 0 0 3.024 1.313 0c0.253,0 0.465,-0.03 0.64,-0.095 0.172,-0.061 0.321,-0.156 0.448,-0.279 0.125,-0.124 0.224,-0.275 0.298,-0.46 0.07,-0.182 0.106,-0.392 0.106,-0.627z"/>
  <g id="dpad">
   <path class="fil13" d="M120.422 131.232l22.677 0 0 3.023 -11.338 11.339 -11.339 -11.339 0 -3.023zm53.292 30.615l0 3.024 -11.338 11.338 -30.615 0 14.362 -14.362c9.197,0 18.394,0 27.591,0zm-83.906 0l0 3.024 11.338 11.338 30.615 0 -14.362 -14.362c-9.197,0 -18.394,0 -27.591,0z"/>
   <path class="fil14" d="M120.412 221.186l0.01 0 22.677 0 0 -3.024 -11.338 -11.338 -11.349 11.349 0 3.013zm53.302 -30.615l0 -3.024 -11.338 -11.338 -30.615 0 14.362 14.362c9.197,0 18.394,0 27.591,0zm-83.906 0l0 -3.024 11.338 -11.338 30.615 0 -14.362 14.362c-9.197,0 -18.394,0 -27.591,0z"/>
   <path class="fil15" d="M146.123 218.161l-3.025 0 -11.337 -11.337 -11.337 11.337 -3.025 0c0,-9.197 0,-18.393 0,-27.59l14.362 -14.362 14.362 14.362c0,9.197 0,18.393 0,27.59zm-28.724 -83.906l3.023 0 11.339 11.339 11.338 -11.339 3.024 0c0,9.197 0,18.395 0,27.592l-14.362 14.362 -14.362 -14.362c0,-9.197 0,-18.395 0,-27.592zm59.339 53.292l0 -22.677 -3.024 0 -11.338 11.339 11.338 11.338 3.024 0zm-89.954 0l0 -22.677 3.023 0 11.339 11.339 -11.339 11.338 -3.023 0z"/>
   <path class="fil16" d="M120.422 131.232c-1.665,0 -3.023,1.358 -3.023,3.023l6.999 7c0.147,-1.659 1.359,-3.024 3.024,-3.024l-7 -6.999z"/>
   <path class="fil17" d="M117.399 158.822c0,1.666 -1.359,3.024 -3.024,3.024l7 7c1.665,0 3.023,-1.358 3.023,-3.024l-6.999 -7z"/>
   <path class="fil18" d="M86.784 164.87c0,-1.666 1.359,-3.024 3.024,-3.024l7 7c-1.659,0.147 -3.024,1.358 -3.024,3.023l-7 -6.999z"/>
   <path class="fil19" d="M86.774 187.536c0,1.666 1.358,3.024 3.023,3.024l7 -7c-1.659,-0.147 -3.023,-1.358 -3.023,-3.023l-7 6.999z"/>
   <path class="fil20" d="M117.388 193.584c0,-1.666 -1.358,-3.024 -3.024,-3.024l7 -7c1.665,0 3.024,1.358 3.024,3.024l-7 7z"/>
   <path class="fil21" d="M120.412 221.174c-1.666,0 -3.024,-1.358 -3.024,-3.023l7 -7c0.147,1.659 1.358,3.024 3.023,3.024l-6.999 6.999z"/>
   <path class="fil22" d="M143.099 131.232c1.666,0 3.024,1.358 3.024,3.023l-7 7c-0.147,-1.659 -1.358,-3.024 -3.023,-3.024l6.999 -6.999z"/>
   <path class="fil23" d="M146.123 158.822c0,1.666 1.358,3.024 3.024,3.024l-7 7c-1.665,0 -3.024,-1.358 -3.024,-3.024l7 -7z"/>
   <path class="fil24" d="M176.737 164.87c0,-1.666 -1.358,-3.024 -3.023,-3.024l-7 7c1.659,0.147 3.024,1.358 3.024,3.023l6.999 -6.999z"/>
   <path class="fil25" d="M176.748 187.536c0,1.666 -1.359,3.024 -3.024,3.024l-6.999 -7c1.658,-0.147 3.023,-1.358 3.023,-3.023l7 6.999z"/>
   <path class="fil26" d="M146.134 193.584c0,-1.666 1.358,-3.024 3.023,-3.024l-6.999 -7c-1.666,0 -3.024,1.358 -3.024,3.024l7 7z"/>
   <path class="fil27" d="M143.11 221.174c1.665,0 3.024,-1.358 3.024,-3.023l-7 -7c-0.147,1.659 -1.358,3.024 -3.024,3.024l7 6.999z"/>
   <path class="fil28" d="M91.808 163.846l24.567 0c1.665,0 3.023,-1.359 3.023,-3.024l0 -24.567c0,-1.665 1.359,-3.024 3.024,-3.024l18.677 0c1.666,0 3.024,1.359 3.024,3.024l0 24.567c0,1.665 1.358,3.024 3.024,3.024l24.566 0c1.666,0 3.024,1.358 3.024,3.023l0 18.678c0,1.665 -1.358,3.023 -3.024,3.023l-24.566 0c-1.666,0 -3.024,1.359 -3.024,3.024l0 24.567c0,1.665 -1.358,3.023 -3.024,3.023l-18.677 0c-1.665,0 -3.024,-1.358 -3.024,-3.023l0 -24.567c0,-1.665 -1.358,-3.024 -3.023,-3.024l-24.567 0c-1.665,0 -3.024,-1.358 -3.024,-3.023l0 -18.678c0,-1.665 1.359,-3.023 3.024,-3.023z"/>
   <circle class="fil29" cx="131.761" cy="176.208" r="9.449"/>
   <path class="fil30" d="M137.655 190.876l-11.692 0c-1.601,0 -2.923,1.322 -2.923,2.923l0 0.209c0,1.67 1.322,2.992 2.923,2.992l11.692 0c1.6,0 2.992,-1.322 2.992,-2.992l0 -0.209c0,-1.601 -1.392,-2.923 -2.992,-2.923zm0 18.683l-11.692 0c-1.601,0 -2.923,1.322 -2.923,2.923l0 0.208c0,1.671 1.322,2.993 2.923,2.993l11.692 0c1.6,0 2.992,-1.322 2.992,-2.993l0 -0.208c0,-1.601 -1.392,-2.923 -2.992,-2.923zm0 -9.304l-11.692 0c-1.601,0 -2.923,1.322 -2.923,2.923l0 0.208c0,1.671 1.322,2.993 2.923,2.993l11.692 0c1.6,0 2.992,-1.322 2.992,-2.993l0 -0.208c0,-1.601 -1.392,-2.923 -2.992,-2.923zm0 -38.714l-11.692 0c-1.601,0 -2.923,-1.322 -2.923,-2.923l0 -0.208c0,-1.671 1.322,-2.993 2.923,-2.993l11.692 0c1.6,0 2.992,1.322 2.992,2.993l0 0.208c0,1.601 -1.392,2.923 -2.992,2.923zm0 -18.683l-11.692 0c-1.601,0 -2.923,-1.322 -2.923,-2.923l0 -0.208c0,-1.671 1.322,-2.993 2.923,-2.993l11.692 0c1.6,0 2.992,1.322 2.992,2.993l0 0.208c0,1.601 -1.392,2.923 -2.992,2.923zm0 9.304l-11.692 0c-1.601,0 -2.923,-1.322 -2.923,-2.923l0 -0.208c0,-1.671 1.322,-2.993 2.923,-2.993l11.692 0c1.6,0 2.992,1.322 2.992,2.993l0 0.208c0,1.601 -1.392,2.923 -2.992,2.923zm8.856 18.235l0 11.692c0,1.601 1.322,2.923 2.923,2.923l0.209 0c1.67,0 2.993,-1.322 2.993,-2.923l0 -11.692c0,-1.6 -1.323,-2.992 -2.993,-2.992l-0.209 0c-1.601,0 -2.923,1.392 -2.923,2.992zm18.683 0l0 11.692c0,1.601 1.322,2.923 2.923,2.923l0.209 0c1.67,0 2.992,-1.322 2.992,-2.923l0 -11.692c0,-1.6 -1.322,-2.992 -2.992,-2.992l-0.209 0c-1.601,0 -2.923,1.392 -2.923,2.992zm-9.304 0l0 11.692c0,1.601 1.322,2.923 2.923,2.923l0.208 0c1.671,0 2.993,-1.322 2.993,-2.923l0 -11.692c0,-1.6 -1.322,-2.992 -2.993,-2.992l-0.208 0c-1.601,0 -2.923,1.392 -2.923,2.992zm-38.714 0l0 11.692c0,1.601 -1.322,2.923 -2.923,2.923l-0.208 0c-1.671,0 -2.993,-1.322 -2.993,-2.923l0 -11.692c0,-1.6 1.322,-2.992 2.993,-2.992l0.208 0c1.601,0 2.923,1.392 2.923,2.992zm-18.683 0l0 11.692c0,1.601 -1.322,2.923 -2.923,2.923l-0.208 0c-1.67,0 -2.993,-1.322 -2.993,-2.923l0 -11.692c0,-1.6 1.323,-2.992 2.993,-2.992l0.208 0c1.601,0 2.923,1.392 2.923,2.992zm9.304 0l0 11.692c0,1.601 -1.322,2.923 -2.923,2.923l-0.208 0c-1.67,0 -2.993,-1.322 -2.993,-2.923l0 -11.692c0,-1.6 1.323,-2.992 2.993,-2.992l0.208 0c1.601,0 2.923,1.392 2.923,2.992z"/>
  </g>
  <path class="fil0" d="M169.236 68.086l-81.704 0c-4.131,0 -7.213,-3.698 -6.468,-7.761l3.455 -18.822c4.298,-23.414 19.344,-40.859 43.219,-40.859 21.587,0 35.594,8.822 40.916,30.681l6.969 28.63c1.015,4.162 -2.104,8.131 -6.387,8.131z"/>
  <path class="fil10" d="M138.518 42.517l-3.367 2.735c-1.274,1.255 -2.028,2.948 -2.104,4.736l10.311 0 0 -2.736 -6.522 0c0.584,-0.815 1.339,-1.497 2.209,-2 1.044,-0.601 2.002,-1.347 2.842,-2.208 0.878,-0.932 1.367,-2.164 1.367,-3.444 0,-0.009 0,-0.02 0,-0.028 0.002,-0.056 0.003,-0.111 0.003,-0.167 0,-1.263 -0.537,-2.464 -1.476,-3.306 -0.973,-0.817 -2.204,-1.266 -3.473,-1.266 -0.07,0 -0.14,0 -0.209,0.003 -3.263,0 -4.947,1.788 -4.947,5.261l2.841 0c0,-1.894 0.737,-2.841 2.209,-2.841 0.068,-0.007 0.135,-0.01 0.203,-0.01 1.062,0 1.926,0.863 1.926,1.925 0,0.098 -0.008,0.197 -0.024,0.295 -0.036,1.255 -0.712,2.406 -1.787,3.051l-0.002 0zm-8.943 4.735l-7.471 0 0 -12.311 -3.157 0 0 15.047 10.628 0 0 -2.736z"/>
  <path class="fil0" d="M412.764 68.086l81.704 0c4.131,0 7.213,-3.698 6.468,-7.761l-3.455 -18.822c-4.298,-23.414 -19.344,-40.859 -43.219,-40.859 -21.587,0 -35.594,8.822 -40.916,30.681l-6.969 28.63c-1.015,4.162 2.104,8.131 6.387,8.131z"/>
  <path class="fil10" d="M460.42 42.517l-3.367 2.735c-1.276,1.255 -2.028,2.948 -2.105,4.736l10.312 0 0 -2.736 -6.523 0c0.584,-0.815 1.338,-1.497 2.208,-2 1.046,-0.601 2.002,-1.347 2.842,-2.208 0.878,-0.932 1.369,-2.164 1.369,-3.444 0,-0.009 0,-0.02 0,-0.028 0.001,-0.056 0.003,-0.111 0.003,-0.167 0,-1.263 -0.538,-2.464 -1.478,-3.306 -0.971,-0.817 -2.202,-1.266 -3.473,-1.266 -0.069,0 -0.139,0 -0.209,0.003 -3.261,0 -4.944,1.788 -4.944,5.261l2.84 0c0,-1.894 0.735,-2.841 2.21,-2.841 0.066,-0.007 0.134,-0.01 0.201,-0.01 1.063,0 1.925,0.863 1.925,1.925 0,0.098 -0.008,0.197 -0.021,0.295 -0.085,1.241 -0.748,2.373 -1.79,3.051l0 0zm-18.519 1.579l3.157 0c1.579,0 2.421,0.631 2.525,1.998 0.106,1.369 0.21,2.632 0.317,3.999l3.473 0 0 -0.419c-0.527,-0.213 -0.738,-0.738 -0.738,-1.58 -0.001,-0.018 -0.001,-0.038 -0.001,-0.058 0,-0.265 0.036,-0.53 0.106,-0.784l0 -0.737c0.015,-0.136 0.023,-0.275 0.023,-0.414 0,-1.356 -0.734,-2.607 -1.917,-3.268 1.393,-0.469 2.331,-1.773 2.331,-3.242 0,-0.112 -0.007,-0.224 -0.016,-0.335 0.006,-0.088 0.009,-0.178 0.009,-0.265 0,-1.122 -0.506,-2.186 -1.378,-2.892 -0.872,-0.687 -1.954,-1.06 -3.067,-1.06 -0.1,0 -0.201,0.001 -0.299,0.008l-7.68 0 0 14.941 3.155 0 0 -5.892zm0 -6.524l3.894 0c1.473,0 2.211,0.631 2.211,2 0,1.367 -0.844,1.999 -2.421,1.999l-3.684 0 0 -3.999z"/>
  <path class="fil31" d="M135.986 85.984c-2.209,0.008 -4.777,0.069 -6.628,0.165 -5.14,0.267 -10.774,0.981 -15.907,1.989 -13.483,2.647 -26.664,7.526 -38.586,14.466l0.143 -5.187c0.023,-0.845 0.497,-1.657 1.16,-2.32 14.896,-10.427 41.965,-16.073 60.149,-16.073 15.961,0 31.922,0 47.882,0 1.705,0 2.729,1.046 2.817,2.983l0.172 3.775c-0.6,0.119 -1.181,0.202 -1.657,0.202 -16.515,0 -33.03,0 -49.545,0z"/>
  <path class="fil32" d="M74.897 101.433c0.547,-0.315 1.097,-0.625 1.649,-0.931 11.44,-6.343 23.945,-10.838 36.713,-13.345 2.612,-0.512 5.347,-0.949 8.077,-1.29 2.678,-0.335 5.377,-0.58 7.972,-0.714 0.931,-0.048 2.078,-0.091 3.292,-0.121 1.218,-0.03 2.397,-0.049 3.386,-0.049 16.515,0 33.03,0 49.545,0 0.452,0 1.023,-0.086 1.611,-0.209l0.046 1.008c-0.6,0.119 -1.181,0.202 -1.657,0.202 -16.515,0 -33.03,0 -49.545,0 -2.209,0.008 -4.777,0.069 -6.628,0.165 -5.14,0.267 -10.774,0.981 -15.907,1.989 -13.483,2.647 -26.664,7.526 -38.586,14.466l0.032 -1.171z"/>
  <path class="fil31" d="M446.014 85.984c2.209,0.008 4.777,0.069 6.628,0.165 5.14,0.267 10.774,0.981 15.907,1.989 13.483,2.647 26.664,7.526 38.586,14.466l-0.143 -5.187c-0.023,-0.845 -0.497,-1.657 -1.16,-2.32 -14.896,-10.427 -41.965,-16.073 -60.149,-16.073 -15.961,0 -31.922,0 -47.882,0 -1.705,0 -2.729,1.046 -2.817,2.983l-0.172 3.775c0.6,0.119 1.181,0.202 1.657,0.202 16.515,0 33.03,0 49.545,0z"/>
  <path class="fil32" d="M507.103 101.433c-0.547,-0.315 -1.097,-0.625 -1.649,-0.931 -11.44,-6.343 -23.945,-10.838 -36.713,-13.345 -2.612,-0.512 -5.347,-0.949 -8.077,-1.29 -2.678,-0.335 -5.377,-0.58 -7.972,-0.714 -0.931,-0.048 -2.078,-0.091 -3.292,-0.121 -1.218,-0.03 -2.397,-0.049 -3.386,-0.049 -16.515,0 -33.03,0 -49.545,0 -0.452,0 -1.023,-0.086 -1.611,-0.209l-0.046 1.008c0.6,0.119 1.181,0.202 1.657,0.202 16.515,0 33.03,0 49.545,0 2.209,0.008 4.777,0.069 6.628,0.165 5.14,0.267 10.774,0.981 15.907,1.989 13.483,2.647 26.664,7.526 38.586,14.466l-0.032 -1.171z"/>
  <path class="fil33" d="M250.52 180.449c-3.556,0 -6.494,-2.938 -6.494,-6.495l0 -0.463c0,-3.711 2.938,-6.649 6.494,-6.649 9.226,0 18.451,0 27.676,0 3.557,0 6.649,2.937 6.649,6.648l0 0.464c0,3.556 -3.092,6.494 -6.649,6.494 -9.225,0 -18.45,0 -27.676,0.001z"/>
  <path class="fil34" d="M250.52 172.44c-1.1,0 -1.992,-0.892 -1.992,-1.992 0,-1.1 0.892,-1.992 1.992,-1.992l27.676 -0.001c1.101,0 1.993,0.892 1.993,1.992 0,1.101 -0.892,1.993 -1.993,1.993l-27.676 0z"/>
  <path class="fil35" d="M250.52 171.444c-0.55,0 -0.996,-0.446 -0.996,-0.996 0,-0.55 0.446,-0.996 0.996,-0.996l27.676 -0.001c0.55,0 0.997,0.446 0.997,0.996 0,0.55 -0.447,0.997 -0.997,0.997l-27.676 0z"/>
  <path class="fil33" d="M303.649 180.449c-3.556,0 -6.494,-2.938 -6.494,-6.494l0 -0.464c0,-3.711 2.938,-6.648 6.494,-6.648 9.225,0 18.451,-0.001 27.676,-0.001 3.556,0 6.649,2.938 6.649,6.649l0 0.463c0,3.557 -3.093,6.494 -6.649,6.494 -9.225,0 -18.451,0.001 -27.676,0.001z"/>
  <path class="fil34" d="M303.649 172.441c-1.1,0 -1.992,-0.892 -1.992,-1.993 0,-1.1 0.892,-1.992 1.992,-1.992l27.676 0c1.101,0 1.993,0.892 1.993,1.992 0,1.1 -0.892,1.992 -1.993,1.992l-27.676 0.001z"/>
  <path class="fil35" d="M303.649 171.445c-0.55,0 -0.996,-0.447 -0.996,-0.997 0,-0.549 0.446,-0.996 0.996,-0.996l27.676 -0.001c0.55,0 0.997,0.447 0.997,0.997 0,0.55 -0.447,0.996 -0.997,0.996l-27.676 0.001z"/>
  <circle class="fil36" cx="208.564" cy="260.467" r="36.661"/>
  <path class="fil37" d="M215.732 287.222c-0.249,0.444 -0.51,0.881 -0.785,1.308 0.441,0.281 0.892,0.547 1.351,0.797 0.271,-0.445 0.528,-0.9 0.769,-1.364 -0.452,-0.233 -0.897,-0.48 -1.335,-0.741zm-1.932 2.947c-0.325,0.427 -0.664,0.843 -1.015,1.248 0.451,0.3 0.913,0.584 1.384,0.851 0.352,-0.412 0.689,-0.838 1.01,-1.274 -0.468,-0.26 -0.928,-0.536 -1.379,-0.825zm-2.637 0.063c0.346,-0.392 0.679,-0.796 0.997,-1.212 -0.404,-0.308 -0.8,-0.629 -1.186,-0.962 -0.322,0.395 -0.656,0.78 -1.002,1.154 0.386,0.354 0.783,0.694 1.191,1.02zm0.239 2.653c-0.389,0.381 -0.79,0.75 -1.203,1.105 0.447,0.307 0.906,0.599 1.375,0.875 0.415,-0.353 0.816,-0.721 1.203,-1.101 -0.468,-0.278 -0.927,-0.571 -1.375,-0.879zm-2.84 2.398c-0.43,0.311 -0.87,0.608 -1.32,0.892 0.429,0.301 0.869,0.588 1.32,0.86 0.451,-0.272 0.891,-0.559 1.319,-0.859 -0.449,-0.285 -0.89,-0.582 -1.319,-0.893zm-6.351 1.194c0.492,-0.19 0.976,-0.397 1.451,-0.619 -0.394,-0.358 -0.776,-0.728 -1.145,-1.109 -0.478,0.232 -0.963,0.449 -1.457,0.651 0.37,0.371 0.754,0.73 1.151,1.077zm3.338 -1.612c0.47,-0.276 0.929,-0.568 1.376,-0.876 -0.413,-0.355 -0.814,-0.723 -1.203,-1.104 -0.449,0.308 -0.908,0.6 -1.376,0.878 0.387,0.381 0.789,0.748 1.203,1.102zm3.013 -2.111c0.418,-0.346 0.823,-0.706 1.216,-1.08 -0.417,-0.338 -0.822,-0.689 -1.216,-1.053 -0.394,0.364 -0.799,0.715 -1.215,1.053 0.391,0.374 0.797,0.734 1.215,1.08zm-35.707 -30.969c0.285,-0.449 0.582,-0.89 0.893,-1.319 -0.311,-0.43 -0.608,-0.87 -0.892,-1.32 -0.301,0.429 -0.588,0.869 -0.86,1.32 0.272,0.45 0.559,0.891 0.859,1.319zm2.186 -2.956c0.356,-0.413 0.724,-0.814 1.105,-1.203 -0.308,-0.449 -0.6,-0.908 -0.878,-1.376 -0.381,0.388 -0.748,0.789 -1.102,1.203 0.276,0.47 0.568,0.929 0.875,1.376zm2.316 0.421c-0.374,0.392 -0.734,0.798 -1.08,1.216 0.346,0.418 0.706,0.823 1.08,1.215 0.338,-0.416 0.689,-0.821 1.053,-1.215 -0.364,-0.394 -0.715,-0.799 -1.053,-1.216zm-2.316 2.852c-0.307,0.448 -0.599,0.907 -0.875,1.376 0.353,0.415 0.721,0.816 1.101,1.203 0.278,-0.468 0.571,-0.926 0.879,-1.376 -0.381,-0.388 -0.75,-0.789 -1.105,-1.203zm-1.869 3.263c-0.222,0.475 -0.428,0.96 -0.618,1.452 0.346,0.397 0.705,0.78 1.076,1.15 0.202,-0.493 0.42,-0.979 0.652,-1.457 -0.382,-0.369 -0.752,-0.751 -1.11,-1.145zm4.443 -9.122c0.405,-0.351 0.821,-0.69 1.248,-1.015 -0.29,-0.451 -0.565,-0.911 -0.825,-1.38 -0.437,0.322 -0.862,0.659 -1.275,1.01 0.268,0.472 0.552,0.934 0.852,1.385zm2.887 -2.162c0.427,-0.275 0.863,-0.536 1.308,-0.785 -0.261,-0.438 -0.508,-0.883 -0.741,-1.335 -0.464,0.241 -0.919,0.498 -1.364,0.769 0.25,0.459 0.515,0.91 0.797,1.351zm-0.491 2.787c-0.416,0.318 -0.82,0.651 -1.212,0.997 0.326,0.408 0.666,0.806 1.02,1.191 0.374,-0.345 0.759,-0.679 1.154,-1.002 -0.333,-0.386 -0.654,-0.782 -0.962,-1.186zm40.255 28.702c-0.168,0.481 -0.35,0.956 -0.546,1.425 0.483,0.2 0.972,0.383 1.468,0.551 0.19,-0.487 0.364,-0.979 0.521,-1.477 -0.486,-0.151 -0.967,-0.318 -1.443,-0.499zm-1.392 3.236c-0.245,0.476 -0.506,0.943 -0.781,1.402 0.496,0.218 1.001,0.417 1.512,0.6 0.274,-0.468 0.531,-0.944 0.771,-1.429 -0.506,-0.175 -1.007,-0.366 -1.502,-0.573zm-1.893 3.095c-0.316,0.443 -0.648,0.875 -0.993,1.296 0.495,0.226 0.998,0.434 1.509,0.624 0.347,-0.42 0.678,-0.851 0.993,-1.293 -0.51,-0.193 -1.013,-0.401 -1.509,-0.627zm-2.375 2.848c-0.369,0.382 -0.751,0.752 -1.145,1.11 0.476,0.222 0.96,0.428 1.452,0.618 0.397,-0.346 0.78,-0.705 1.15,-1.076 -0.493,-0.202 -0.979,-0.42 -1.457,-0.652zm-36.992 -30.06c-0.3,0.451 -0.584,0.913 -0.851,1.384 0.412,0.352 0.837,0.689 1.274,1.01 0.26,-0.468 0.536,-0.928 0.825,-1.379 -0.427,-0.325 -0.843,-0.664 -1.248,-1.015zm-1.78 3.203c-0.226,0.495 -0.434,0.998 -0.624,1.509 0.42,0.347 0.851,0.678 1.293,0.993 0.193,-0.51 0.401,-1.013 0.627,-1.509 -0.443,-0.317 -0.875,-0.648 -1.296,-0.993zm-1.276 3.546c-0.136,0.506 -0.255,1.017 -0.356,1.534 0.41,0.331 0.83,0.646 1.259,0.946 0.113,-0.52 0.242,-1.035 0.387,-1.545 -0.439,-0.298 -0.869,-0.609 -1.29,-0.935zm5.261 -9.562c-0.354,0.386 -0.694,0.783 -1.02,1.191 0.392,0.346 0.796,0.678 1.212,0.997 0.308,-0.404 0.629,-0.8 0.962,-1.186 -0.395,-0.322 -0.781,-0.656 -1.154,-1.002zm44.63 21.281c-0.081,0.503 -0.178,1.002 -0.29,1.497 0.51,0.113 1.024,0.209 1.54,0.287 0.103,-0.511 0.189,-1.026 0.257,-1.544 -0.504,-0.064 -1.007,-0.144 -1.507,-0.24zm-0.808 3.43c-0.159,0.511 -0.334,1.017 -0.526,1.516 0.527,0.128 1.057,0.237 1.591,0.328 0.189,-0.508 0.36,-1.022 0.512,-1.541 -0.528,-0.084 -1.054,-0.185 -1.577,-0.303zm-1.325 3.376c-0.235,0.489 -0.486,0.972 -0.752,1.446 0.525,0.136 1.056,0.253 1.591,0.352 0.268,-0.473 0.519,-0.955 0.753,-1.444 -0.535,-0.101 -1.066,-0.219 -1.592,-0.354zm-1.847 3.22c-0.298,0.439 -0.609,0.869 -0.935,1.29 0.506,0.136 1.017,0.255 1.534,0.356 0.331,-0.41 0.646,-0.83 0.946,-1.259 -0.52,-0.113 -1.035,-0.242 -1.545,-0.387zm-41.646 -23.186c-0.218,0.496 -0.417,1.001 -0.6,1.512 0.468,0.274 0.944,0.531 1.429,0.771 0.175,-0.506 0.366,-1.007 0.573,-1.502 -0.476,-0.245 -0.943,-0.506 -1.402,-0.781zm-1.201 3.471c-0.136,0.525 -0.253,1.056 -0.352,1.591 0.473,0.268 0.955,0.519 1.444,0.753 0.101,-0.535 0.219,-1.066 0.354,-1.592 -0.489,-0.235 -0.972,-0.486 -1.446,-0.752zm-0.641 3.708c-0.046,0.522 -0.075,1.046 -0.085,1.573 0.461,0.254 0.929,0.492 1.404,0.712 0.021,-0.531 0.059,-1.061 0.113,-1.588 -0.484,-0.217 -0.961,-0.449 -1.432,-0.697zm3.52 -10.325c-0.281,0.441 -0.547,0.892 -0.797,1.35 0.445,0.272 0.9,0.529 1.364,0.77 0.233,-0.452 0.48,-0.897 0.741,-1.335 -0.444,-0.249 -0.881,-0.51 -1.308,-0.785zm47.646 13.202c0.007,0.509 -0.002,1.018 -0.026,1.525 0.522,0.023 1.045,0.028 1.566,0.016 0.013,-0.522 0.008,-1.044 -0.015,-1.566 -0.507,0.023 -1.016,0.032 -1.525,0.025zm-0.2 3.519c-0.068,0.531 -0.152,1.059 -0.254,1.583 0.54,0.035 1.081,0.05 1.623,0.046 0.097,-0.532 0.176,-1.067 0.236,-1.604 -0.535,0.009 -1.07,0 -1.605,-0.025zm-0.719 3.555c-0.146,0.524 -0.31,1.042 -0.489,1.555 0.54,0.043 1.083,0.066 1.627,0.071 0.182,-0.513 0.345,-1.031 0.49,-1.553 -0.543,-0.007 -1.086,-0.031 -1.628,-0.073zm-1.259 3.491c-0.217,0.484 -0.449,0.961 -0.697,1.432 0.522,0.046 1.046,0.075 1.573,0.085 0.254,-0.461 0.492,-0.929 0.713,-1.404 -0.532,-0.021 -1.062,-0.059 -1.589,-0.113zm-45.041 -15.599c-0.128,0.527 -0.237,1.057 -0.328,1.591 0.508,0.189 1.022,0.36 1.541,0.512 0.084,-0.528 0.185,-1.054 0.303,-1.577 -0.511,-0.159 -1.017,-0.334 -1.516,-0.526zm-0.579 3.623c-0.043,0.541 -0.066,1.084 -0.071,1.628 0.513,0.182 1.031,0.345 1.553,0.49 0.007,-0.543 0.031,-1.086 0.073,-1.628 -0.524,-0.146 -1.042,-0.31 -1.555,-0.49zm0.012 3.766c0.045,0.52 0.109,1.041 0.189,1.561 0.499,0.17 1.001,0.323 1.507,0.458 -0.072,-0.526 -0.126,-1.054 -0.164,-1.583 -0.514,-0.129 -1.025,-0.275 -1.532,-0.436zm1.675 -10.785c-0.2,0.484 -0.383,0.973 -0.551,1.468 0.487,0.191 0.979,0.365 1.477,0.522 0.151,-0.486 0.318,-0.967 0.499,-1.443 -0.481,-0.168 -0.956,-0.35 -1.425,-0.547zm49.216 4.732c0.095,0.5 0.175,1.003 0.24,1.507 0.517,-0.068 1.032,-0.154 1.543,-0.257 -0.078,-0.516 -0.174,-1.029 -0.287,-1.539 -0.495,0.111 -0.994,0.208 -1.496,0.289zm0.414 3.498c0.025,0.535 0.034,1.071 0.024,1.606 0.538,-0.06 1.073,-0.139 1.605,-0.237 0.004,-0.541 -0.011,-1.082 -0.046,-1.623 -0.524,0.102 -1.052,0.186 -1.583,0.254zm-0.091 3.628c-0.053,0.54 -0.124,1.079 -0.211,1.615 0.539,-0.052 1.076,-0.123 1.612,-0.213 0.09,-0.536 0.161,-1.074 0.213,-1.613 -0.535,0.088 -1.074,0.158 -1.614,0.211zm-0.635 3.657c-0.129,0.514 -0.275,1.025 -0.436,1.532 0.521,-0.045 1.041,-0.109 1.561,-0.189 0.17,-0.499 0.323,-1.001 0.458,-1.507 -0.526,0.072 -1.054,0.126 -1.583,0.164zm-47.064 -7.541c-0.035,0.54 -0.05,1.081 -0.046,1.623 0.532,0.097 1.067,0.176 1.604,0.236 -0.009,-0.535 0,-1.07 0.025,-1.605 -0.531,-0.068 -1.059,-0.153 -1.583,-0.254zm0.059 3.67c0.052,0.539 0.123,1.077 0.213,1.613 0.536,0.09 1.074,0.161 1.613,0.213 -0.088,-0.536 -0.158,-1.074 -0.211,-1.614 -0.54,-0.053 -1.079,-0.124 -1.615,-0.212zm0.666 3.705c0.135,0.505 0.288,1.008 0.458,1.506 0.52,0.082 1.041,0.145 1.561,0.189 -0.161,-0.506 -0.307,-1.017 -0.436,-1.531 -0.529,-0.038 -1.057,-0.093 -1.583,-0.164zm-0.224 -10.909c-0.113,0.51 -0.209,1.024 -0.287,1.54 0.511,0.103 1.026,0.189 1.544,0.257 0.064,-0.504 0.144,-1.007 0.24,-1.507 -0.503,-0.081 -1.002,-0.178 -1.497,-0.29zm49.288 -3.891c0.181,0.477 0.347,0.958 0.498,1.444 0.499,-0.158 0.991,-0.331 1.477,-0.522 -0.167,-0.495 -0.35,-0.984 -0.55,-1.468 -0.469,0.197 -0.944,0.378 -1.425,0.546zm1.016 3.376c0.118,0.522 0.219,1.048 0.303,1.577 0.52,-0.153 1.034,-0.324 1.541,-0.512 -0.09,-0.534 -0.199,-1.064 -0.327,-1.591 -0.499,0.192 -1.005,0.367 -1.517,0.526zm0.54 3.586c0.042,0.542 0.066,1.086 0.073,1.629 0.522,-0.145 1.04,-0.308 1.553,-0.49 -0.004,-0.544 -0.028,-1.087 -0.071,-1.628 -0.513,0.18 -1.031,0.343 -1.555,0.489zm0.011 3.713c-0.038,0.529 -0.093,1.057 -0.164,1.583 0.506,-0.135 1.008,-0.288 1.506,-0.458 0.082,-0.52 0.145,-1.041 0.189,-1.561 -0.506,0.161 -1.017,0.307 -1.531,0.436zm-47.66 0.747c0.06,0.538 0.139,1.073 0.237,1.605 0.541,0.004 1.082,-0.012 1.623,-0.046 -0.102,-0.525 -0.186,-1.053 -0.254,-1.583 -0.535,0.025 -1.071,0.033 -1.606,0.024zm0.696 3.603c0.145,0.523 0.308,1.041 0.49,1.554 0.544,-0.004 1.087,-0.028 1.628,-0.071 -0.18,-0.513 -0.343,-1.031 -0.489,-1.555 -0.542,0.042 -1.086,0.066 -1.629,0.072zm1.298 3.532c0.221,0.475 0.459,0.943 0.713,1.404 0.526,-0.01 1.051,-0.038 1.573,-0.085 -0.248,-0.47 -0.48,-0.948 -0.696,-1.432 -0.528,0.054 -1.058,0.092 -1.59,0.113zm-2.113 -10.704c-0.023,0.522 -0.028,1.045 -0.016,1.566 0.522,0.013 1.044,0.008 1.566,-0.015 -0.023,-0.507 -0.032,-1.016 -0.025,-1.525 -0.509,0.007 -1.018,-0.002 -1.525,-0.026zm47.864 -12.386c0.261,0.438 0.508,0.883 0.741,1.335 0.464,-0.241 0.919,-0.498 1.365,-0.769 -0.251,-0.459 -0.516,-0.91 -0.798,-1.351 -0.427,0.274 -0.863,0.536 -1.308,0.785zm1.584 3.142c0.207,0.495 0.399,0.996 0.573,1.502 0.485,-0.24 0.961,-0.497 1.429,-0.771 -0.182,-0.511 -0.382,-1.016 -0.599,-1.512 -0.459,0.275 -0.927,0.536 -1.403,0.781zm1.156 3.442c0.135,0.527 0.253,1.057 0.354,1.592 0.49,-0.234 0.972,-0.484 1.445,-0.752 -0.099,-0.536 -0.216,-1.066 -0.352,-1.592 -0.474,0.267 -0.957,0.517 -1.447,0.752zm0.655 3.652c0.055,0.528 0.092,1.058 0.113,1.589 0.475,-0.22 0.943,-0.458 1.405,-0.712 -0.011,-0.526 -0.039,-1.051 -0.085,-1.573 -0.471,0.248 -0.949,0.48 -1.433,0.696zm-46.806 9.013c0.153,0.52 0.324,1.034 0.512,1.541 0.534,-0.09 1.064,-0.199 1.591,-0.327 -0.192,-0.499 -0.367,-1.005 -0.526,-1.517 -0.522,0.118 -1.048,0.219 -1.577,0.303zm1.31 3.427c0.234,0.49 0.484,0.971 0.752,1.445 0.536,-0.099 1.066,-0.217 1.592,-0.353 -0.267,-0.474 -0.517,-0.956 -0.752,-1.446 -0.527,0.135 -1.057,0.253 -1.592,0.354zm1.892 3.254c0.3,0.43 0.615,0.85 0.946,1.26 0.517,-0.102 1.03,-0.221 1.536,-0.357 -0.326,-0.421 -0.638,-0.851 -0.935,-1.291 -0.511,0.146 -1.027,0.275 -1.547,0.388zm-3.939 -10.173c0.068,0.517 0.154,1.032 0.257,1.543 0.516,-0.078 1.029,-0.174 1.539,-0.287 -0.111,-0.495 -0.208,-0.994 -0.289,-1.496 -0.501,0.095 -1.003,0.175 -1.507,0.24zm44.985 -20.515c0.333,0.386 0.654,0.782 0.962,1.186 0.416,-0.319 0.82,-0.651 1.212,-0.997 -0.326,-0.408 -0.666,-0.806 -1.02,-1.191 -0.374,0.345 -0.759,0.679 -1.154,1.002zm2.11 2.826c0.29,0.451 0.565,0.911 0.825,1.38 0.437,-0.322 0.862,-0.659 1.275,-1.01 -0.267,-0.472 -0.552,-0.934 -0.852,-1.385 -0.405,0.351 -0.821,0.69 -1.248,1.015zm1.733 3.182c0.225,0.495 0.434,0.999 0.626,1.508 0.442,-0.315 0.873,-0.646 1.293,-0.993 -0.19,-0.511 -0.398,-1.014 -0.623,-1.508 -0.422,0.345 -0.854,0.676 -1.296,0.993zm1.28 3.487c0.146,0.511 0.275,1.027 0.388,1.547 0.43,-0.3 0.85,-0.615 1.26,-0.946 -0.102,-0.517 -0.221,-1.03 -0.357,-1.536 -0.421,0.326 -0.851,0.638 -1.291,0.935zm-44.529 17.002c0.24,0.485 0.497,0.961 0.771,1.428 0.511,-0.181 1.016,-0.381 1.512,-0.599 -0.275,-0.458 -0.536,-0.926 -0.781,-1.402 -0.495,0.207 -0.996,0.399 -1.502,0.573zm1.886 3.149c0.315,0.442 0.646,0.873 0.993,1.293 0.511,-0.19 1.014,-0.398 1.508,-0.623 -0.345,-0.422 -0.676,-0.854 -0.993,-1.296 -0.495,0.225 -0.999,0.434 -1.508,0.626zm-3.219 -6.46c0.158,0.499 0.331,0.991 0.522,1.477 0.495,-0.167 0.984,-0.35 1.468,-0.55 -0.197,-0.469 -0.378,-0.944 -0.546,-1.425 -0.477,0.181 -0.958,0.347 -1.444,0.498zm40.739 -28.011c0.395,0.323 0.781,0.657 1.154,1.003 0.354,-0.386 0.694,-0.783 1.02,-1.191 -0.392,-0.346 -0.796,-0.679 -1.212,-0.997 -0.308,0.404 -0.629,0.8 -0.962,1.185zm2.563 2.413c0.364,0.394 0.715,0.799 1.053,1.215 0.374,-0.391 0.734,-0.797 1.08,-1.215 -0.346,-0.418 -0.706,-0.823 -1.08,-1.216 -0.338,0.417 -0.689,0.822 -1.053,1.216zm2.264 2.84c0.308,0.449 0.601,0.908 0.878,1.376 0.381,-0.387 0.748,-0.789 1.102,-1.203 -0.276,-0.47 -0.568,-0.929 -0.876,-1.376 -0.355,0.413 -0.723,0.814 -1.104,1.203zm1.864 3.205c0.232,0.478 0.449,0.963 0.651,1.457 0.371,-0.37 0.73,-0.754 1.077,-1.151 -0.19,-0.492 -0.396,-0.976 -0.619,-1.451 -0.358,0.394 -0.728,0.776 -1.109,1.145zm-40.901 24.479c0.322,0.437 0.659,0.862 1.01,1.275 0.472,-0.268 0.934,-0.552 1.385,-0.852 -0.351,-0.405 -0.69,-0.821 -1.015,-1.248 -0.451,0.29 -0.911,0.565 -1.38,0.825zm-1.887 -3.031c0.241,0.464 0.498,0.919 0.769,1.364 0.459,-0.25 0.91,-0.515 1.351,-0.797 -0.275,-0.427 -0.536,-0.863 -0.785,-1.308 -0.438,0.261 -0.883,0.508 -1.335,0.741zm35.261 -34.663c0.444,0.249 0.881,0.51 1.308,0.785 0.281,-0.441 0.547,-0.892 0.797,-1.351 -0.445,-0.271 -0.9,-0.528 -1.364,-0.769 -0.233,0.452 -0.48,0.897 -0.741,1.335zm2.947 1.932c0.427,0.325 0.843,0.664 1.248,1.015 0.3,-0.451 0.584,-0.913 0.852,-1.384 -0.413,-0.352 -0.838,-0.689 -1.275,-1.01 -0.26,0.468 -0.536,0.928 -0.825,1.379zm2.716 2.398c0.381,0.389 0.75,0.79 1.105,1.203 0.307,-0.447 0.599,-0.906 0.875,-1.375 -0.353,-0.415 -0.721,-0.816 -1.101,-1.203 -0.278,0.468 -0.571,0.927 -0.879,1.375zm2.398 2.84c0.311,0.43 0.609,0.87 0.892,1.32 0.301,-0.429 0.588,-0.869 0.86,-1.32 -0.272,-0.451 -0.559,-0.891 -0.859,-1.319 -0.284,0.449 -0.582,0.89 -0.893,1.319zm-38.415 28.551c0.319,0.416 0.651,0.82 0.997,1.212 0.408,-0.326 0.806,-0.666 1.191,-1.02 -0.345,-0.374 -0.679,-0.759 -1.002,-1.154 -0.386,0.333 -0.782,0.654 -1.186,0.962zm28.702 -40.255c0.481,0.168 0.956,0.35 1.425,0.546 0.2,-0.483 0.384,-0.972 0.551,-1.468 -0.486,-0.19 -0.979,-0.364 -1.477,-0.521 -0.151,0.486 -0.318,0.967 -0.499,1.443zm3.236 1.392c0.476,0.245 0.943,0.506 1.402,0.781 0.218,-0.497 0.418,-1.001 0.6,-1.512 -0.467,-0.274 -0.944,-0.531 -1.429,-0.771 -0.175,0.506 -0.366,1.007 -0.573,1.502zm3.096 1.893c0.442,0.316 0.874,0.647 1.295,0.993 0.226,-0.495 0.434,-0.998 0.624,-1.509 -0.42,-0.347 -0.851,-0.678 -1.293,-0.993 -0.193,0.51 -0.401,1.013 -0.626,1.509zm2.847 2.375c0.382,0.369 0.752,0.751 1.11,1.145 0.222,-0.476 0.428,-0.96 0.618,-1.452 -0.346,-0.397 -0.705,-0.78 -1.076,-1.15 -0.202,0.493 -0.42,0.979 -0.652,1.457zm-11.592 -9.843c0.503,0.081 1.002,0.178 1.497,0.29 0.113,-0.51 0.209,-1.024 0.287,-1.54 -0.511,-0.103 -1.026,-0.189 -1.543,-0.257 -0.065,0.504 -0.145,1.007 -0.241,1.507zm3.43 0.808c0.511,0.159 1.017,0.334 1.516,0.525 0.128,-0.526 0.237,-1.056 0.328,-1.59 -0.508,-0.189 -1.022,-0.36 -1.541,-0.512 -0.084,0.528 -0.185,1.054 -0.303,1.577zm3.376 1.325c0.489,0.235 0.972,0.486 1.446,0.752 0.136,-0.525 0.253,-1.056 0.352,-1.591 -0.473,-0.268 -0.955,-0.519 -1.444,-0.753 -0.101,0.535 -0.219,1.066 -0.354,1.592zm3.22 1.847c0.439,0.298 0.869,0.609 1.29,0.935 0.136,-0.506 0.255,-1.017 0.357,-1.534 -0.411,-0.331 -0.83,-0.646 -1.26,-0.946 -0.112,0.52 -0.242,1.035 -0.387,1.545zm-13.13 -7.678c0.509,-0.007 1.018,0.002 1.525,0.026 0.023,-0.522 0.028,-1.045 0.016,-1.566 -0.522,-0.013 -1.044,-0.008 -1.566,0.015 0.024,0.507 0.032,1.016 0.025,1.525zm3.519 0.2c0.531,0.068 1.059,0.152 1.583,0.254 0.035,-0.54 0.05,-1.081 0.046,-1.623 -0.532,-0.097 -1.067,-0.176 -1.604,-0.236 0.009,0.535 0.001,1.07 -0.025,1.605zm3.555 0.719c0.524,0.146 1.042,0.31 1.555,0.489 0.043,-0.54 0.066,-1.083 0.071,-1.627 -0.513,-0.182 -1.031,-0.345 -1.553,-0.49 -0.007,0.543 -0.031,1.086 -0.073,1.628zm3.491 1.259c0.484,0.217 0.961,0.449 1.432,0.697 0.047,-0.522 0.075,-1.046 0.085,-1.573 -0.461,-0.254 -0.929,-0.492 -1.404,-0.713 -0.021,0.532 -0.059,1.062 -0.113,1.589zm-14.263 -5.283c0.501,-0.095 1.003,-0.175 1.507,-0.24 -0.068,-0.517 -0.154,-1.032 -0.257,-1.543 -0.515,0.078 -1.029,0.174 -1.539,0.287 0.112,0.495 0.208,0.994 0.289,1.496zm3.499 -0.414c0.534,-0.025 1.07,-0.034 1.605,-0.024 -0.06,-0.538 -0.139,-1.073 -0.237,-1.605 -0.541,-0.004 -1.082,0.011 -1.622,0.046 0.101,0.524 0.185,1.052 0.254,1.583zm3.627 0.091c0.541,0.053 1.079,0.124 1.615,0.211 -0.052,-0.539 -0.123,-1.076 -0.213,-1.612 -0.536,-0.09 -1.074,-0.161 -1.613,-0.213 0.088,0.535 0.159,1.074 0.211,1.614zm3.657 0.635c0.515,0.129 1.025,0.275 1.532,0.436 -0.045,-0.521 -0.108,-1.041 -0.189,-1.561 -0.498,-0.17 -1.001,-0.323 -1.506,-0.458 0.071,0.526 0.125,1.054 0.163,1.583zm-14.966 -2.725c0.477,-0.181 0.958,-0.347 1.444,-0.498 -0.157,-0.499 -0.331,-0.991 -0.522,-1.477 -0.495,0.167 -0.984,0.35 -1.468,0.55 0.197,0.469 0.379,0.944 0.546,1.425zm3.376 -1.016c0.523,-0.118 1.048,-0.219 1.577,-0.303 -0.153,-0.52 -0.323,-1.034 -0.512,-1.541 -0.534,0.09 -1.064,0.199 -1.59,0.327 0.191,0.499 0.366,1.005 0.525,1.517zm3.586 -0.54c0.542,-0.042 1.086,-0.066 1.629,-0.073 -0.145,-0.522 -0.308,-1.04 -0.49,-1.553 -0.544,0.004 -1.087,0.028 -1.627,0.07 0.179,0.514 0.342,1.032 0.488,1.556zm3.713 -0.011c0.529,0.038 1.057,0.093 1.583,0.164 -0.135,-0.506 -0.288,-1.008 -0.458,-1.506 -0.52,-0.082 -1.04,-0.145 -1.562,-0.19 0.162,0.507 0.308,1.018 0.437,1.532zm-15.208 -0.085c0.438,-0.261 0.883,-0.508 1.335,-0.742 -0.241,-0.463 -0.498,-0.918 -0.769,-1.364 -0.459,0.251 -0.91,0.516 -1.351,0.798 0.275,0.427 0.536,0.863 0.785,1.308zm3.142 -1.584c0.495,-0.207 0.996,-0.399 1.502,-0.573 -0.24,-0.485 -0.497,-0.961 -0.771,-1.429 -0.511,0.182 -1.015,0.382 -1.512,0.599 0.275,0.459 0.536,0.927 0.781,1.403zm3.442 -1.156c0.527,-0.135 1.057,-0.253 1.592,-0.354 -0.234,-0.49 -0.484,-0.972 -0.752,-1.445 -0.536,0.099 -1.066,0.216 -1.592,0.352 0.267,0.474 0.517,0.957 0.752,1.447zm3.652 -0.655c0.528,-0.055 1.058,-0.092 1.59,-0.113 -0.221,-0.475 -0.458,-0.943 -0.713,-1.405 -0.526,0.011 -1.051,0.039 -1.573,0.085 0.248,0.471 0.48,0.949 0.696,1.433zm-14.994 2.558c0.386,-0.333 0.782,-0.654 1.186,-0.962 -0.318,-0.416 -0.651,-0.82 -0.997,-1.212 -0.408,0.326 -0.806,0.666 -1.191,1.02 0.345,0.374 0.679,0.759 1.002,1.154zm2.826 -2.11c0.451,-0.29 0.911,-0.565 1.38,-0.825 -0.322,-0.437 -0.659,-0.862 -1.01,-1.275 -0.472,0.267 -0.934,0.552 -1.385,0.852 0.351,0.405 0.69,0.821 1.015,1.248zm3.182 -1.733c0.495,-0.225 0.999,-0.434 1.508,-0.626 -0.315,-0.442 -0.646,-0.873 -0.993,-1.293 -0.511,0.19 -1.013,0.398 -1.508,0.623 0.345,0.422 0.676,0.854 0.993,1.296zm3.487 -1.28c0.511,-0.146 1.027,-0.275 1.547,-0.388 -0.3,-0.43 -0.615,-0.85 -0.946,-1.26 -0.517,0.102 -1.03,0.221 -1.536,0.357 0.326,0.421 0.638,0.851 0.935,1.291zm-14.319 5.123c0.322,-0.395 0.656,-0.781 1.002,-1.154 -0.386,-0.354 -0.783,-0.694 -1.191,-1.02 -0.346,0.392 -0.678,0.796 -0.997,1.212 0.404,0.308 0.8,0.629 1.186,0.962zm2.412 -2.563c0.394,-0.364 0.799,-0.715 1.216,-1.053 -0.392,-0.374 -0.798,-0.734 -1.216,-1.08 -0.418,0.346 -0.823,0.706 -1.215,1.08 0.416,0.338 0.821,0.689 1.215,1.053zm2.84 -2.264c0.449,-0.308 0.908,-0.601 1.376,-0.878 -0.388,-0.381 -0.789,-0.748 -1.203,-1.102 -0.47,0.276 -0.929,0.568 -1.376,0.875 0.413,0.356 0.814,0.724 1.203,1.105zm3.205 -1.864c0.478,-0.232 0.963,-0.449 1.456,-0.651 -0.369,-0.371 -0.753,-0.73 -1.15,-1.077 -0.492,0.19 -0.976,0.396 -1.451,0.619 0.394,0.358 0.775,0.728 1.145,1.109zm-13.215 7.527c0.249,-0.444 0.511,-0.881 0.785,-1.308 -0.441,-0.281 -0.892,-0.547 -1.351,-0.797 -0.271,0.445 -0.528,0.9 -0.769,1.364 0.452,0.233 0.897,0.48 1.335,0.741zm1.932 -2.947c0.325,-0.427 0.664,-0.843 1.015,-1.248 -0.451,-0.3 -0.913,-0.584 -1.384,-0.852 -0.352,0.413 -0.689,0.838 -1.01,1.275 0.468,0.26 0.928,0.535 1.379,0.825zm2.398 -2.716c0.389,-0.381 0.79,-0.75 1.204,-1.105 -0.448,-0.307 -0.907,-0.599 -1.376,-0.875 -0.415,0.353 -0.816,0.721 -1.203,1.101 0.468,0.278 0.926,0.571 1.375,0.879zm2.84 -2.398c0.43,-0.311 0.87,-0.609 1.32,-0.892 -0.429,-0.301 -0.869,-0.588 -1.32,-0.86 -0.45,0.272 -0.891,0.559 -1.319,0.859 0.449,0.284 0.89,0.582 1.319,0.893zm-11.704 9.713c0.168,-0.481 0.35,-0.956 0.546,-1.425 -0.483,-0.2 -0.972,-0.384 -1.467,-0.551 -0.191,0.486 -0.365,0.979 -0.522,1.477 0.486,0.151 0.967,0.318 1.443,0.499zm1.392 -3.236c0.245,-0.476 0.506,-0.943 0.781,-1.402 -0.496,-0.218 -1.001,-0.418 -1.512,-0.6 -0.274,0.467 -0.531,0.944 -0.771,1.429 0.506,0.175 1.007,0.366 1.502,0.573zm1.893 -3.096c0.316,-0.442 0.648,-0.874 0.993,-1.295 -0.495,-0.226 -0.998,-0.434 -1.509,-0.624 -0.347,0.42 -0.678,0.851 -0.993,1.293 0.51,0.193 1.013,0.401 1.509,0.626zm2.375 -2.847c0.369,-0.382 0.751,-0.752 1.145,-1.11 -0.475,-0.222 -0.96,-0.428 -1.452,-0.618 -0.397,0.346 -0.78,0.705 -1.15,1.076 0.493,0.202 0.979,0.42 1.457,0.652zm-9.843 11.592c0.081,-0.503 0.178,-1.002 0.29,-1.497 -0.51,-0.113 -1.024,-0.209 -1.54,-0.287 -0.103,0.511 -0.189,1.026 -0.257,1.543 0.504,0.065 1.007,0.145 1.507,0.241zm0.808 -3.43c0.159,-0.511 0.334,-1.017 0.526,-1.516 -0.527,-0.128 -1.057,-0.237 -1.591,-0.328 -0.189,0.508 -0.36,1.022 -0.512,1.541 0.528,0.084 1.054,0.185 1.577,0.303zm1.325 -3.376c0.235,-0.489 0.486,-0.972 0.752,-1.446 -0.525,-0.136 -1.056,-0.253 -1.591,-0.352 -0.268,0.473 -0.519,0.955 -0.753,1.444 0.535,0.101 1.066,0.219 1.592,0.354zm1.847 -3.22c0.298,-0.439 0.609,-0.869 0.935,-1.29 -0.506,-0.136 -1.017,-0.255 -1.534,-0.357 -0.331,0.411 -0.646,0.83 -0.946,1.26 0.52,0.112 1.035,0.242 1.545,0.387zm-7.678 13.13c-0.007,-0.509 0.002,-1.018 0.026,-1.525 -0.522,-0.023 -1.045,-0.028 -1.566,-0.016 -0.013,0.522 -0.008,1.044 0.015,1.566 0.507,-0.024 1.016,-0.032 1.525,-0.025zm0.2 -3.519c0.068,-0.531 0.153,-1.059 0.254,-1.583 -0.54,-0.035 -1.081,-0.05 -1.623,-0.046 -0.097,0.532 -0.176,1.067 -0.236,1.604 0.535,-0.009 1.07,-0.001 1.605,0.025zm0.719 -3.555c0.146,-0.524 0.31,-1.042 0.49,-1.555 -0.541,-0.043 -1.084,-0.067 -1.628,-0.071 -0.182,0.513 -0.345,1.03 -0.49,1.553 0.543,0.007 1.086,0.031 1.628,0.073zm1.259 -3.491c0.217,-0.484 0.449,-0.962 0.697,-1.432 -0.522,-0.047 -1.046,-0.075 -1.573,-0.085 -0.254,0.461 -0.492,0.929 -0.712,1.404 0.531,0.021 1.061,0.059 1.588,0.113zm-5.283 14.263c-0.095,-0.501 -0.175,-1.003 -0.24,-1.507 -0.517,0.068 -1.032,0.154 -1.543,0.257 0.078,0.515 0.174,1.029 0.287,1.539 0.495,-0.112 0.994,-0.208 1.496,-0.289zm-0.414 -3.499c-0.025,-0.534 -0.033,-1.07 -0.024,-1.605 -0.538,0.06 -1.073,0.139 -1.605,0.237 -0.004,0.541 0.012,1.082 0.046,1.622 0.525,-0.101 1.053,-0.185 1.583,-0.254zm0.091 -3.627c0.053,-0.541 0.124,-1.079 0.212,-1.615 -0.539,0.052 -1.077,0.123 -1.613,0.213 -0.09,0.536 -0.161,1.074 -0.213,1.613 0.536,-0.088 1.074,-0.159 1.614,-0.211zm0.635 -3.657c0.129,-0.515 0.275,-1.025 0.436,-1.532 -0.52,0.045 -1.041,0.108 -1.561,0.189 -0.17,0.498 -0.323,1.001 -0.458,1.506 0.526,-0.071 1.054,-0.125 1.583,-0.163zm-2.725 14.966c-0.181,-0.477 -0.347,-0.958 -0.498,-1.444 -0.499,0.157 -0.991,0.331 -1.477,0.522 0.167,0.495 0.35,0.984 0.55,1.468 0.469,-0.197 0.944,-0.379 1.425,-0.546zm-1.016 -3.376c-0.118,-0.523 -0.219,-1.048 -0.303,-1.577 -0.52,0.153 -1.034,0.323 -1.541,0.512 0.09,0.534 0.199,1.064 0.327,1.59 0.499,-0.191 1.005,-0.366 1.517,-0.525zm-0.54 -3.586c-0.042,-0.542 -0.066,-1.086 -0.072,-1.629 -0.523,0.145 -1.041,0.308 -1.554,0.49 0.004,0.544 0.028,1.087 0.071,1.627 0.513,-0.179 1.031,-0.342 1.555,-0.488zm-0.011 -3.713c0.038,-0.529 0.093,-1.057 0.164,-1.583 -0.505,0.135 -1.008,0.288 -1.506,0.458 -0.082,0.52 -0.145,1.04 -0.189,1.561 0.506,-0.162 1.017,-0.307 1.531,-0.436zm-1.669 12.066c-0.207,-0.495 -0.399,-0.996 -0.573,-1.502 -0.485,0.24 -0.961,0.497 -1.429,0.771 0.182,0.511 0.382,1.015 0.6,1.512 0.458,-0.275 0.926,-0.536 1.402,-0.781zm-1.156 -3.442c-0.135,-0.527 -0.253,-1.057 -0.354,-1.592 -0.49,0.233 -0.972,0.484 -1.445,0.752 0.099,0.536 0.216,1.066 0.353,1.592 0.474,-0.267 0.956,-0.517 1.446,-0.752zm-0.655 -3.652c-0.054,-0.528 -0.092,-1.058 -0.113,-1.59 -0.475,0.221 -0.943,0.458 -1.404,0.713 0.01,0.526 0.038,1.051 0.085,1.573 0.47,-0.248 0.948,-0.48 1.432,-0.696zm-1.285 8.986c-0.225,-0.495 -0.434,-0.999 -0.626,-1.508 -0.442,0.315 -0.873,0.646 -1.293,0.993 0.19,0.511 0.398,1.013 0.623,1.508 0.422,-0.345 0.854,-0.676 1.296,-0.993zm-1.28 -3.487c-0.146,-0.511 -0.275,-1.027 -0.388,-1.547 -0.43,0.3 -0.85,0.615 -1.26,0.946 0.102,0.517 0.221,1.03 0.357,1.536 0.421,-0.326 0.851,-0.638 1.291,-0.935zm-1.568 5.862c-0.232,-0.478 -0.449,-0.963 -0.651,-1.456 -0.371,0.369 -0.73,0.753 -1.077,1.15 0.19,0.492 0.397,0.976 0.619,1.451 0.358,-0.394 0.728,-0.775 1.109,-1.145z"/>
  <circle class="fil38" cx="208.564" cy="260.467" r="27.591"/>
  <circle class="fil39" cx="208.564" cy="260.467" r="24.189"/>
  <circle class="fil36" cx="373.436" cy="260.467" r="36.661"/>
  <path class="fil37" d="M380.605 287.222c-0.249,0.444 -0.51,0.881 -0.785,1.308 0.441,0.281 0.892,0.547 1.351,0.797 0.271,-0.445 0.528,-0.9 0.769,-1.364 -0.452,-0.233 -0.897,-0.48 -1.335,-0.741zm-1.932 2.947c-0.325,0.427 -0.664,0.843 -1.015,1.248 0.451,0.3 0.913,0.584 1.384,0.851 0.352,-0.412 0.689,-0.838 1.01,-1.274 -0.468,-0.26 -0.928,-0.536 -1.379,-0.825zm-2.637 0.063c0.346,-0.392 0.678,-0.796 0.997,-1.212 -0.404,-0.308 -0.8,-0.629 -1.186,-0.962 -0.322,0.395 -0.656,0.78 -1.002,1.154 0.386,0.354 0.783,0.694 1.191,1.02zm0.239 2.653c-0.389,0.381 -0.79,0.75 -1.204,1.105 0.448,0.307 0.907,0.599 1.376,0.875 0.415,-0.353 0.816,-0.721 1.203,-1.101 -0.468,-0.278 -0.927,-0.571 -1.375,-0.879zm-2.84 2.398c-0.43,0.311 -0.87,0.608 -1.32,0.892 0.429,0.301 0.869,0.588 1.32,0.86 0.45,-0.272 0.891,-0.559 1.319,-0.859 -0.449,-0.285 -0.89,-0.582 -1.319,-0.893zm-6.351 1.194c0.492,-0.19 0.976,-0.397 1.451,-0.619 -0.394,-0.358 -0.776,-0.728 -1.145,-1.109 -0.478,0.232 -0.963,0.449 -1.457,0.651 0.37,0.371 0.754,0.73 1.151,1.077zm3.338 -1.612c0.47,-0.276 0.929,-0.568 1.376,-0.876 -0.413,-0.355 -0.814,-0.723 -1.203,-1.104 -0.449,0.308 -0.908,0.6 -1.376,0.878 0.387,0.381 0.789,0.748 1.203,1.102zm3.013 -2.111c0.418,-0.346 0.823,-0.706 1.215,-1.08 -0.416,-0.338 -0.821,-0.689 -1.215,-1.053 -0.394,0.364 -0.799,0.715 -1.216,1.053 0.392,0.374 0.798,0.734 1.216,1.08zm-35.707 -30.969c0.284,-0.449 0.582,-0.89 0.893,-1.319 -0.311,-0.43 -0.609,-0.87 -0.892,-1.32 -0.301,0.429 -0.588,0.869 -0.86,1.32 0.272,0.45 0.559,0.891 0.859,1.319zm2.186 -2.956c0.356,-0.413 0.724,-0.814 1.105,-1.203 -0.308,-0.449 -0.601,-0.908 -0.878,-1.376 -0.381,0.388 -0.748,0.789 -1.102,1.203 0.276,0.47 0.568,0.929 0.875,1.376zm2.316 0.421c-0.374,0.392 -0.734,0.798 -1.08,1.216 0.346,0.418 0.706,0.823 1.08,1.215 0.338,-0.416 0.689,-0.821 1.053,-1.215 -0.364,-0.394 -0.715,-0.799 -1.053,-1.216zm-2.316 2.852c-0.307,0.448 -0.599,0.907 -0.875,1.376 0.353,0.415 0.721,0.816 1.101,1.203 0.278,-0.468 0.571,-0.926 0.879,-1.376 -0.381,-0.388 -0.75,-0.789 -1.105,-1.203zm-1.869 3.263c-0.222,0.475 -0.428,0.96 -0.618,1.452 0.346,0.397 0.705,0.78 1.076,1.15 0.202,-0.493 0.42,-0.979 0.652,-1.457 -0.382,-0.369 -0.752,-0.751 -1.11,-1.145zm4.443 -9.122c0.405,-0.351 0.821,-0.69 1.248,-1.015 -0.29,-0.451 -0.565,-0.911 -0.825,-1.38 -0.437,0.322 -0.862,0.659 -1.275,1.01 0.267,0.472 0.552,0.934 0.852,1.385zm2.887 -2.162c0.427,-0.275 0.863,-0.536 1.308,-0.785 -0.261,-0.438 -0.508,-0.883 -0.741,-1.335 -0.464,0.241 -0.919,0.498 -1.365,0.769 0.251,0.459 0.516,0.91 0.798,1.351zm-0.491 2.787c-0.416,0.318 -0.82,0.651 -1.212,0.997 0.326,0.408 0.666,0.806 1.02,1.191 0.374,-0.345 0.759,-0.679 1.154,-1.002 -0.333,-0.386 -0.654,-0.782 -0.962,-1.186zm40.255 28.702c-0.168,0.481 -0.35,0.956 -0.546,1.425 0.483,0.2 0.972,0.383 1.467,0.551 0.191,-0.487 0.365,-0.979 0.522,-1.477 -0.486,-0.151 -0.967,-0.318 -1.443,-0.499zm-1.392 3.236c-0.245,0.476 -0.506,0.943 -0.781,1.402 0.496,0.218 1.001,0.417 1.512,0.6 0.274,-0.468 0.531,-0.944 0.771,-1.429 -0.506,-0.175 -1.007,-0.366 -1.502,-0.573zm-1.893 3.095c-0.316,0.443 -0.648,0.875 -0.993,1.296 0.495,0.226 0.998,0.434 1.509,0.624 0.347,-0.42 0.678,-0.851 0.993,-1.293 -0.51,-0.193 -1.013,-0.401 -1.509,-0.627zm-2.375 2.848c-0.369,0.382 -0.751,0.752 -1.145,1.11 0.475,0.222 0.96,0.428 1.452,0.618 0.397,-0.346 0.78,-0.705 1.15,-1.076 -0.493,-0.202 -0.979,-0.42 -1.457,-0.652zm-36.992 -30.06c-0.3,0.451 -0.584,0.913 -0.852,1.384 0.413,0.352 0.838,0.689 1.275,1.01 0.26,-0.468 0.536,-0.928 0.825,-1.379 -0.427,-0.325 -0.843,-0.664 -1.248,-1.015zm-1.78 3.203c-0.226,0.495 -0.434,0.998 -0.624,1.509 0.42,0.347 0.851,0.678 1.293,0.993 0.193,-0.51 0.401,-1.013 0.626,-1.509 -0.442,-0.317 -0.874,-0.648 -1.295,-0.993zm-1.276 3.546c-0.136,0.506 -0.255,1.017 -0.357,1.534 0.411,0.331 0.83,0.646 1.26,0.946 0.112,-0.52 0.242,-1.035 0.387,-1.545 -0.439,-0.298 -0.869,-0.609 -1.29,-0.935zm5.261 -9.562c-0.354,0.386 -0.694,0.783 -1.02,1.191 0.392,0.346 0.796,0.678 1.212,0.997 0.308,-0.404 0.629,-0.8 0.962,-1.186 -0.395,-0.322 -0.781,-0.656 -1.154,-1.002zm44.63 21.281c-0.081,0.503 -0.178,1.002 -0.29,1.497 0.51,0.113 1.024,0.209 1.54,0.287 0.103,-0.511 0.189,-1.026 0.257,-1.544 -0.504,-0.064 -1.007,-0.144 -1.507,-0.24zm-0.808 3.43c-0.159,0.511 -0.334,1.017 -0.526,1.516 0.527,0.128 1.057,0.237 1.591,0.328 0.189,-0.508 0.36,-1.022 0.512,-1.541 -0.528,-0.084 -1.054,-0.185 -1.577,-0.303zm-1.325 3.376c-0.235,0.489 -0.486,0.972 -0.752,1.446 0.525,0.136 1.056,0.253 1.591,0.352 0.268,-0.473 0.519,-0.955 0.753,-1.444 -0.535,-0.101 -1.066,-0.219 -1.592,-0.354zm-1.847 3.22c-0.298,0.439 -0.609,0.869 -0.935,1.29 0.506,0.136 1.017,0.255 1.534,0.356 0.331,-0.41 0.646,-0.83 0.946,-1.259 -0.52,-0.113 -1.035,-0.242 -1.545,-0.387zm-41.646 -23.186c-0.218,0.496 -0.418,1.001 -0.6,1.512 0.467,0.274 0.944,0.531 1.429,0.771 0.175,-0.506 0.366,-1.007 0.573,-1.502 -0.476,-0.245 -0.943,-0.506 -1.402,-0.781zm-1.201 3.471c-0.136,0.525 -0.253,1.056 -0.352,1.591 0.473,0.268 0.955,0.519 1.444,0.753 0.101,-0.535 0.219,-1.066 0.354,-1.592 -0.489,-0.235 -0.972,-0.486 -1.446,-0.752zm-0.641 3.708c-0.047,0.522 -0.075,1.046 -0.085,1.573 0.461,0.254 0.929,0.492 1.404,0.712 0.021,-0.531 0.059,-1.061 0.113,-1.588 -0.484,-0.217 -0.961,-0.449 -1.432,-0.697zm3.52 -10.325c-0.281,0.441 -0.547,0.892 -0.797,1.35 0.445,0.272 0.9,0.529 1.364,0.77 0.233,-0.452 0.48,-0.897 0.741,-1.335 -0.445,-0.249 -0.881,-0.51 -1.308,-0.785zm47.646 13.202c0.007,0.509 -0.002,1.018 -0.026,1.525 0.522,0.023 1.045,0.028 1.566,0.016 0.013,-0.522 0.008,-1.044 -0.015,-1.566 -0.507,0.023 -1.016,0.032 -1.525,0.025zm-0.2 3.519c-0.068,0.531 -0.153,1.059 -0.254,1.583 0.54,0.035 1.081,0.05 1.623,0.046 0.097,-0.532 0.176,-1.067 0.236,-1.604 -0.535,0.009 -1.07,0 -1.605,-0.025zm-0.719 3.555c-0.146,0.524 -0.31,1.042 -0.49,1.555 0.541,0.043 1.084,0.066 1.628,0.071 0.182,-0.513 0.345,-1.031 0.49,-1.553 -0.543,-0.007 -1.086,-0.031 -1.628,-0.073zm-1.259 3.491c-0.217,0.484 -0.449,0.961 -0.697,1.432 0.522,0.046 1.046,0.075 1.573,0.085 0.254,-0.461 0.492,-0.929 0.712,-1.404 -0.531,-0.021 -1.061,-0.059 -1.588,-0.113zm-45.041 -15.599c-0.128,0.527 -0.237,1.057 -0.328,1.591 0.508,0.189 1.022,0.36 1.541,0.512 0.084,-0.528 0.185,-1.054 0.303,-1.577 -0.511,-0.159 -1.017,-0.334 -1.516,-0.526zm-0.579 3.623c-0.043,0.541 -0.066,1.084 -0.071,1.628 0.513,0.182 1.031,0.345 1.553,0.49 0.007,-0.543 0.031,-1.086 0.073,-1.628 -0.524,-0.146 -1.042,-0.31 -1.555,-0.49zm0.012 3.766c0.045,0.52 0.108,1.041 0.189,1.561 0.498,0.17 1.001,0.323 1.506,0.458 -0.071,-0.526 -0.125,-1.054 -0.163,-1.583 -0.515,-0.129 -1.025,-0.275 -1.532,-0.436zm1.675 -10.785c-0.2,0.484 -0.384,0.973 -0.551,1.468 0.486,0.191 0.979,0.365 1.477,0.522 0.151,-0.486 0.318,-0.967 0.499,-1.443 -0.481,-0.168 -0.956,-0.35 -1.425,-0.547zm49.216 4.732c0.095,0.5 0.175,1.003 0.24,1.507 0.517,-0.068 1.032,-0.154 1.543,-0.257 -0.078,-0.516 -0.174,-1.029 -0.287,-1.539 -0.495,0.111 -0.994,0.208 -1.496,0.289zm0.414 3.498c0.025,0.535 0.033,1.071 0.024,1.606 0.538,-0.06 1.073,-0.139 1.605,-0.237 0.004,-0.541 -0.012,-1.082 -0.046,-1.623 -0.525,0.102 -1.053,0.186 -1.583,0.254zm-0.091 3.628c-0.053,0.54 -0.124,1.079 -0.212,1.615 0.539,-0.052 1.077,-0.123 1.613,-0.213 0.09,-0.536 0.161,-1.074 0.213,-1.613 -0.536,0.088 -1.074,0.158 -1.614,0.211zm-0.635 3.657c-0.129,0.514 -0.275,1.025 -0.436,1.532 0.52,-0.045 1.041,-0.109 1.561,-0.189 0.17,-0.499 0.323,-1.001 0.458,-1.507 -0.526,0.072 -1.054,0.126 -1.583,0.164zm-47.064 -7.541c-0.035,0.54 -0.05,1.081 -0.046,1.623 0.532,0.097 1.067,0.176 1.604,0.236 -0.009,-0.535 -0.001,-1.07 0.025,-1.605 -0.531,-0.068 -1.059,-0.153 -1.583,-0.254zm0.059 3.67c0.052,0.539 0.123,1.077 0.213,1.613 0.536,0.09 1.074,0.161 1.613,0.213 -0.088,-0.536 -0.159,-1.074 -0.211,-1.614 -0.541,-0.053 -1.079,-0.124 -1.615,-0.212zm0.666 3.705c0.135,0.505 0.288,1.008 0.458,1.506 0.52,0.082 1.04,0.145 1.561,0.189 -0.161,-0.506 -0.307,-1.017 -0.436,-1.531 -0.529,-0.038 -1.057,-0.093 -1.583,-0.164zm-0.224 -10.909c-0.113,0.51 -0.209,1.024 -0.287,1.54 0.511,0.103 1.026,0.189 1.543,0.257 0.065,-0.504 0.145,-1.007 0.241,-1.507 -0.503,-0.081 -1.002,-0.178 -1.497,-0.29zm49.288 -3.891c0.181,0.477 0.347,0.958 0.498,1.444 0.499,-0.158 0.991,-0.331 1.477,-0.522 -0.167,-0.495 -0.35,-0.984 -0.55,-1.468 -0.469,0.197 -0.944,0.378 -1.425,0.546zm1.016 3.376c0.118,0.522 0.219,1.048 0.303,1.577 0.52,-0.153 1.034,-0.324 1.541,-0.512 -0.09,-0.534 -0.199,-1.064 -0.327,-1.591 -0.499,0.192 -1.005,0.367 -1.517,0.526zm0.54 3.586c0.042,0.542 0.066,1.086 0.072,1.629 0.523,-0.145 1.041,-0.308 1.554,-0.49 -0.004,-0.544 -0.028,-1.087 -0.071,-1.628 -0.513,0.18 -1.031,0.343 -1.555,0.489zm0.011 3.713c-0.038,0.529 -0.093,1.057 -0.164,1.583 0.505,-0.135 1.008,-0.288 1.506,-0.458 0.082,-0.52 0.145,-1.041 0.189,-1.561 -0.506,0.161 -1.017,0.307 -1.531,0.436zm-47.66 0.747c0.06,0.538 0.139,1.073 0.237,1.605 0.541,0.004 1.082,-0.012 1.622,-0.046 -0.101,-0.525 -0.185,-1.053 -0.254,-1.583 -0.534,0.025 -1.07,0.033 -1.605,0.024zm0.696 3.603c0.145,0.523 0.308,1.041 0.49,1.554 0.544,-0.004 1.087,-0.028 1.627,-0.071 -0.179,-0.513 -0.342,-1.031 -0.488,-1.555 -0.542,0.042 -1.086,0.066 -1.629,0.072zm1.298 3.532c0.221,0.475 0.458,0.943 0.713,1.404 0.526,-0.01 1.051,-0.038 1.573,-0.085 -0.248,-0.47 -0.48,-0.948 -0.696,-1.432 -0.528,0.054 -1.058,0.092 -1.59,0.113zm-2.113 -10.704c-0.023,0.522 -0.028,1.045 -0.016,1.566 0.522,0.013 1.044,0.008 1.566,-0.015 -0.024,-0.507 -0.032,-1.016 -0.025,-1.525 -0.509,0.007 -1.018,-0.002 -1.525,-0.026zm47.864 -12.386c0.261,0.438 0.508,0.883 0.741,1.335 0.464,-0.241 0.919,-0.498 1.364,-0.769 -0.25,-0.459 -0.515,-0.91 -0.797,-1.351 -0.427,0.274 -0.863,0.536 -1.308,0.785zm1.584 3.142c0.207,0.495 0.399,0.996 0.573,1.502 0.485,-0.24 0.961,-0.497 1.429,-0.771 -0.182,-0.511 -0.382,-1.016 -0.6,-1.512 -0.458,0.275 -0.926,0.536 -1.402,0.781zm1.156 3.442c0.135,0.527 0.253,1.057 0.354,1.592 0.49,-0.234 0.972,-0.484 1.445,-0.752 -0.099,-0.536 -0.216,-1.066 -0.353,-1.592 -0.474,0.267 -0.956,0.517 -1.446,0.752zm0.655 3.652c0.054,0.528 0.092,1.058 0.113,1.589 0.475,-0.22 0.943,-0.458 1.404,-0.712 -0.01,-0.526 -0.038,-1.051 -0.085,-1.573 -0.47,0.248 -0.948,0.48 -1.432,0.696zm-46.806 9.013c0.153,0.52 0.323,1.034 0.512,1.541 0.534,-0.09 1.064,-0.199 1.59,-0.327 -0.191,-0.499 -0.366,-1.005 -0.525,-1.517 -0.523,0.118 -1.048,0.219 -1.577,0.303zm1.31 3.427c0.234,0.49 0.484,0.971 0.752,1.445 0.536,-0.099 1.066,-0.217 1.592,-0.353 -0.267,-0.474 -0.517,-0.956 -0.752,-1.446 -0.527,0.135 -1.057,0.253 -1.592,0.354zm1.892 3.254c0.3,0.43 0.615,0.85 0.946,1.26 0.517,-0.102 1.03,-0.221 1.536,-0.357 -0.326,-0.421 -0.638,-0.851 -0.935,-1.291 -0.511,0.146 -1.027,0.275 -1.547,0.388zm-3.939 -10.173c0.068,0.517 0.154,1.032 0.257,1.543 0.515,-0.078 1.029,-0.174 1.539,-0.287 -0.112,-0.495 -0.208,-0.994 -0.289,-1.496 -0.501,0.095 -1.003,0.175 -1.507,0.24zm44.985 -20.515c0.333,0.386 0.654,0.782 0.962,1.186 0.416,-0.319 0.82,-0.651 1.212,-0.997 -0.326,-0.408 -0.666,-0.806 -1.02,-1.191 -0.374,0.345 -0.759,0.679 -1.154,1.002zm2.11 2.826c0.29,0.451 0.565,0.911 0.825,1.38 0.437,-0.322 0.862,-0.659 1.275,-1.01 -0.268,-0.472 -0.552,-0.934 -0.852,-1.385 -0.405,0.351 -0.821,0.69 -1.248,1.015zm1.733 3.182c0.225,0.495 0.434,0.999 0.626,1.508 0.442,-0.315 0.873,-0.646 1.293,-0.993 -0.19,-0.511 -0.398,-1.014 -0.623,-1.508 -0.422,0.345 -0.854,0.676 -1.296,0.993zm1.28 3.487c0.146,0.511 0.275,1.027 0.388,1.547 0.43,-0.3 0.85,-0.615 1.26,-0.946 -0.102,-0.517 -0.221,-1.03 -0.357,-1.536 -0.421,0.326 -0.851,0.638 -1.291,0.935zm-44.529 17.002c0.24,0.485 0.497,0.961 0.771,1.428 0.511,-0.181 1.015,-0.381 1.512,-0.599 -0.275,-0.458 -0.536,-0.926 -0.781,-1.402 -0.495,0.207 -0.996,0.399 -1.502,0.573zm1.886 3.149c0.315,0.442 0.646,0.873 0.993,1.293 0.511,-0.19 1.013,-0.398 1.508,-0.623 -0.345,-0.422 -0.676,-0.854 -0.993,-1.296 -0.495,0.225 -0.999,0.434 -1.508,0.626zm-3.219 -6.46c0.157,0.499 0.331,0.991 0.522,1.477 0.495,-0.167 0.984,-0.35 1.468,-0.55 -0.197,-0.469 -0.379,-0.944 -0.546,-1.425 -0.477,0.181 -0.958,0.347 -1.444,0.498zm40.739 -28.011c0.395,0.323 0.781,0.657 1.154,1.003 0.354,-0.386 0.694,-0.783 1.02,-1.191 -0.392,-0.346 -0.796,-0.679 -1.212,-0.997 -0.308,0.404 -0.629,0.8 -0.962,1.185zm2.563 2.413c0.364,0.394 0.715,0.799 1.053,1.215 0.374,-0.391 0.734,-0.797 1.08,-1.215 -0.346,-0.418 -0.706,-0.823 -1.08,-1.216 -0.338,0.417 -0.689,0.822 -1.053,1.216zm2.264 2.84c0.308,0.449 0.6,0.908 0.878,1.376 0.381,-0.387 0.748,-0.789 1.102,-1.203 -0.276,-0.47 -0.568,-0.929 -0.876,-1.376 -0.355,0.413 -0.723,0.814 -1.104,1.203zm1.864 3.205c0.232,0.478 0.449,0.963 0.651,1.457 0.371,-0.37 0.73,-0.754 1.077,-1.151 -0.19,-0.492 -0.397,-0.976 -0.619,-1.451 -0.358,0.394 -0.728,0.776 -1.109,1.145zm-40.901 24.479c0.322,0.437 0.659,0.862 1.01,1.275 0.472,-0.268 0.934,-0.552 1.385,-0.852 -0.351,-0.405 -0.69,-0.821 -1.015,-1.248 -0.451,0.29 -0.911,0.565 -1.38,0.825zm-1.887 -3.031c0.241,0.464 0.498,0.919 0.769,1.364 0.459,-0.25 0.91,-0.515 1.351,-0.797 -0.275,-0.427 -0.536,-0.863 -0.785,-1.308 -0.438,0.261 -0.883,0.508 -1.335,0.741zm35.261 -34.663c0.444,0.249 0.881,0.51 1.308,0.785 0.281,-0.441 0.547,-0.892 0.797,-1.351 -0.445,-0.271 -0.9,-0.528 -1.364,-0.769 -0.233,0.452 -0.48,0.897 -0.741,1.335zm2.947 1.932c0.427,0.325 0.843,0.664 1.248,1.015 0.3,-0.451 0.584,-0.913 0.851,-1.384 -0.412,-0.352 -0.837,-0.689 -1.274,-1.01 -0.26,0.468 -0.536,0.928 -0.825,1.379zm2.716 2.398c0.381,0.389 0.75,0.79 1.105,1.203 0.307,-0.447 0.599,-0.906 0.875,-1.375 -0.353,-0.415 -0.721,-0.816 -1.101,-1.203 -0.278,0.468 -0.571,0.927 -0.879,1.375zm2.398 2.84c0.311,0.43 0.608,0.87 0.892,1.32 0.301,-0.429 0.588,-0.869 0.86,-1.32 -0.272,-0.451 -0.559,-0.891 -0.859,-1.319 -0.285,0.449 -0.582,0.89 -0.893,1.319zm-38.415 28.551c0.318,0.416 0.651,0.82 0.997,1.212 0.408,-0.326 0.806,-0.666 1.191,-1.02 -0.345,-0.374 -0.679,-0.759 -1.002,-1.154 -0.386,0.333 -0.782,0.654 -1.186,0.962zm28.702 -40.255c0.481,0.168 0.956,0.35 1.425,0.546 0.2,-0.483 0.383,-0.972 0.551,-1.468 -0.487,-0.19 -0.979,-0.364 -1.477,-0.521 -0.151,0.486 -0.318,0.967 -0.499,1.443zm3.236 1.392c0.476,0.245 0.943,0.506 1.402,0.781 0.218,-0.497 0.417,-1.001 0.6,-1.512 -0.468,-0.274 -0.944,-0.531 -1.429,-0.771 -0.175,0.506 -0.366,1.007 -0.573,1.502zm3.095 1.893c0.443,0.316 0.875,0.647 1.296,0.993 0.226,-0.495 0.434,-0.998 0.624,-1.509 -0.42,-0.347 -0.851,-0.678 -1.293,-0.993 -0.193,0.51 -0.401,1.013 -0.627,1.509zm2.848 2.375c0.382,0.369 0.752,0.751 1.11,1.145 0.222,-0.476 0.428,-0.96 0.618,-1.452 -0.346,-0.397 -0.705,-0.78 -1.076,-1.15 -0.202,0.493 -0.42,0.979 -0.652,1.457zm-11.592 -9.843c0.503,0.081 1.002,0.178 1.497,0.29 0.113,-0.51 0.209,-1.024 0.287,-1.54 -0.511,-0.103 -1.026,-0.189 -1.544,-0.257 -0.064,0.504 -0.144,1.007 -0.24,1.507zm3.43 0.808c0.511,0.159 1.017,0.334 1.516,0.525 0.128,-0.526 0.237,-1.056 0.328,-1.59 -0.508,-0.189 -1.022,-0.36 -1.541,-0.512 -0.084,0.528 -0.185,1.054 -0.303,1.577zm3.376 1.325c0.489,0.235 0.972,0.486 1.446,0.752 0.136,-0.525 0.253,-1.056 0.352,-1.591 -0.473,-0.268 -0.955,-0.519 -1.444,-0.753 -0.101,0.535 -0.219,1.066 -0.354,1.592zm3.22 1.847c0.439,0.298 0.869,0.609 1.29,0.935 0.136,-0.506 0.255,-1.017 0.356,-1.534 -0.41,-0.331 -0.83,-0.646 -1.259,-0.946 -0.113,0.52 -0.242,1.035 -0.387,1.545zm-13.13 -7.678c0.509,-0.007 1.018,0.002 1.525,0.026 0.023,-0.522 0.028,-1.045 0.016,-1.566 -0.522,-0.013 -1.044,-0.008 -1.566,0.015 0.023,0.507 0.032,1.016 0.025,1.525zm3.519 0.2c0.531,0.068 1.059,0.152 1.583,0.254 0.035,-0.54 0.05,-1.081 0.046,-1.623 -0.532,-0.097 -1.067,-0.176 -1.604,-0.236 0.009,0.535 0,1.07 -0.025,1.605zm3.555 0.719c0.524,0.146 1.042,0.31 1.555,0.489 0.043,-0.54 0.066,-1.083 0.071,-1.627 -0.513,-0.182 -1.031,-0.345 -1.553,-0.49 -0.007,0.543 -0.031,1.086 -0.073,1.628zm3.491 1.259c0.484,0.217 0.961,0.449 1.432,0.697 0.046,-0.522 0.075,-1.046 0.085,-1.573 -0.461,-0.254 -0.929,-0.492 -1.404,-0.713 -0.021,0.532 -0.059,1.062 -0.113,1.589zm-14.263 -5.283c0.501,-0.095 1.003,-0.175 1.507,-0.24 -0.068,-0.517 -0.154,-1.032 -0.257,-1.543 -0.516,0.078 -1.029,0.174 -1.539,0.287 0.111,0.495 0.208,0.994 0.289,1.496zm3.498 -0.414c0.535,-0.025 1.071,-0.034 1.606,-0.024 -0.06,-0.538 -0.139,-1.073 -0.237,-1.605 -0.541,-0.004 -1.082,0.011 -1.623,0.046 0.102,0.524 0.186,1.052 0.254,1.583zm3.628 0.091c0.54,0.053 1.079,0.124 1.615,0.211 -0.052,-0.539 -0.123,-1.076 -0.213,-1.612 -0.536,-0.09 -1.074,-0.161 -1.613,-0.213 0.088,0.535 0.158,1.074 0.211,1.614zm3.657 0.635c0.514,0.129 1.025,0.275 1.532,0.436 -0.045,-0.521 -0.109,-1.041 -0.189,-1.561 -0.499,-0.17 -1.001,-0.323 -1.507,-0.458 0.072,0.526 0.126,1.054 0.164,1.583zm-14.966 -2.725c0.477,-0.181 0.958,-0.347 1.444,-0.498 -0.158,-0.499 -0.331,-0.991 -0.522,-1.477 -0.495,0.167 -0.984,0.35 -1.468,0.55 0.197,0.469 0.378,0.944 0.546,1.425zm3.376 -1.016c0.522,-0.118 1.048,-0.219 1.577,-0.303 -0.153,-0.52 -0.324,-1.034 -0.512,-1.541 -0.534,0.09 -1.064,0.199 -1.591,0.327 0.192,0.499 0.367,1.005 0.526,1.517zm3.586 -0.54c0.542,-0.042 1.086,-0.066 1.629,-0.073 -0.145,-0.522 -0.308,-1.04 -0.49,-1.553 -0.544,0.004 -1.087,0.028 -1.628,0.07 0.18,0.514 0.343,1.032 0.489,1.556zm3.713 -0.011c0.529,0.038 1.057,0.093 1.583,0.164 -0.135,-0.506 -0.288,-1.008 -0.458,-1.506 -0.52,-0.082 -1.041,-0.145 -1.562,-0.19 0.162,0.507 0.308,1.018 0.437,1.532zm-15.208 -0.085c0.438,-0.261 0.883,-0.508 1.335,-0.742 -0.241,-0.463 -0.498,-0.918 -0.769,-1.364 -0.459,0.251 -0.91,0.516 -1.351,0.798 0.275,0.427 0.536,0.863 0.785,1.308zm3.142 -1.584c0.495,-0.207 0.996,-0.399 1.502,-0.573 -0.24,-0.485 -0.497,-0.961 -0.771,-1.429 -0.511,0.182 -1.016,0.382 -1.512,0.599 0.275,0.459 0.536,0.927 0.781,1.403zm3.442 -1.156c0.527,-0.135 1.057,-0.253 1.592,-0.354 -0.234,-0.49 -0.484,-0.972 -0.752,-1.445 -0.536,0.099 -1.066,0.216 -1.592,0.352 0.267,0.474 0.517,0.957 0.752,1.447zm3.652 -0.655c0.528,-0.055 1.058,-0.092 1.59,-0.113 -0.221,-0.475 -0.459,-0.943 -0.713,-1.405 -0.526,0.011 -1.051,0.039 -1.573,0.085 0.248,0.471 0.48,0.949 0.696,1.433zm-14.994 2.558c0.386,-0.333 0.782,-0.654 1.186,-0.962 -0.319,-0.416 -0.651,-0.82 -0.997,-1.212 -0.408,0.326 -0.806,0.666 -1.191,1.02 0.345,0.374 0.679,0.759 1.002,1.154zm2.826 -2.11c0.451,-0.29 0.911,-0.565 1.38,-0.825 -0.322,-0.437 -0.659,-0.862 -1.01,-1.275 -0.472,0.267 -0.934,0.552 -1.385,0.852 0.351,0.405 0.69,0.821 1.015,1.248zm3.182 -1.733c0.495,-0.225 0.999,-0.434 1.508,-0.626 -0.315,-0.442 -0.646,-0.873 -0.993,-1.293 -0.511,0.19 -1.014,0.398 -1.508,0.623 0.345,0.422 0.676,0.854 0.993,1.296zm3.487 -1.28c0.511,-0.146 1.027,-0.275 1.547,-0.388 -0.3,-0.43 -0.615,-0.85 -0.946,-1.26 -0.517,0.102 -1.03,0.221 -1.536,0.357 0.326,0.421 0.638,0.851 0.935,1.291zm-14.319 5.123c0.322,-0.395 0.656,-0.781 1.002,-1.154 -0.386,-0.354 -0.783,-0.694 -1.191,-1.02 -0.346,0.392 -0.679,0.796 -0.997,1.212 0.404,0.308 0.8,0.629 1.186,0.962zm2.412 -2.563c0.394,-0.364 0.799,-0.715 1.215,-1.053 -0.391,-0.374 -0.797,-0.734 -1.215,-1.08 -0.418,0.346 -0.823,0.706 -1.216,1.08 0.417,0.338 0.822,0.689 1.216,1.053zm2.84 -2.264c0.449,-0.308 0.908,-0.601 1.376,-0.878 -0.388,-0.381 -0.789,-0.748 -1.203,-1.102 -0.47,0.276 -0.929,0.568 -1.376,0.875 0.413,0.356 0.814,0.724 1.203,1.105zm3.205 -1.864c0.478,-0.232 0.963,-0.449 1.456,-0.651 -0.369,-0.371 -0.753,-0.73 -1.15,-1.077 -0.492,0.19 -0.976,0.396 -1.451,0.619 0.394,0.358 0.775,0.728 1.145,1.109zm-13.215 7.527c0.249,-0.444 0.51,-0.881 0.785,-1.308 -0.441,-0.281 -0.892,-0.547 -1.351,-0.797 -0.271,0.445 -0.528,0.9 -0.769,1.364 0.452,0.233 0.897,0.48 1.335,0.741zm1.932 -2.947c0.325,-0.427 0.664,-0.843 1.015,-1.248 -0.451,-0.3 -0.913,-0.584 -1.384,-0.852 -0.352,0.413 -0.689,0.838 -1.01,1.275 0.468,0.26 0.928,0.535 1.379,0.825zm2.398 -2.716c0.389,-0.381 0.79,-0.75 1.203,-1.105 -0.447,-0.307 -0.906,-0.599 -1.375,-0.875 -0.415,0.353 -0.816,0.721 -1.203,1.101 0.468,0.278 0.926,0.571 1.375,0.879zm2.84 -2.398c0.43,-0.311 0.87,-0.609 1.32,-0.892 -0.429,-0.301 -0.869,-0.588 -1.32,-0.86 -0.451,0.272 -0.891,0.559 -1.319,0.859 0.449,0.284 0.89,0.582 1.319,0.893zm-11.704 9.713c0.168,-0.481 0.35,-0.956 0.546,-1.425 -0.483,-0.2 -0.972,-0.384 -1.468,-0.551 -0.19,0.486 -0.364,0.979 -0.521,1.477 0.486,0.151 0.967,0.318 1.443,0.499zm1.392 -3.236c0.245,-0.476 0.506,-0.943 0.781,-1.402 -0.496,-0.218 -1.001,-0.418 -1.512,-0.6 -0.274,0.467 -0.531,0.944 -0.771,1.429 0.506,0.175 1.007,0.366 1.502,0.573zm1.893 -3.096c0.316,-0.442 0.648,-0.874 0.993,-1.295 -0.495,-0.226 -0.998,-0.434 -1.509,-0.624 -0.347,0.42 -0.678,0.851 -0.993,1.293 0.51,0.193 1.013,0.401 1.509,0.626zm2.375 -2.847c0.369,-0.382 0.751,-0.752 1.145,-1.11 -0.476,-0.222 -0.96,-0.428 -1.452,-0.618 -0.397,0.346 -0.78,0.705 -1.15,1.076 0.493,0.202 0.979,0.42 1.457,0.652zm-9.843 11.592c0.081,-0.503 0.178,-1.002 0.29,-1.497 -0.51,-0.113 -1.024,-0.209 -1.54,-0.287 -0.103,0.511 -0.189,1.026 -0.257,1.543 0.504,0.065 1.007,0.145 1.507,0.241zm0.808 -3.43c0.159,-0.511 0.334,-1.017 0.526,-1.516 -0.527,-0.128 -1.057,-0.237 -1.591,-0.328 -0.189,0.508 -0.36,1.022 -0.512,1.541 0.528,0.084 1.054,0.185 1.577,0.303zm1.325 -3.376c0.235,-0.489 0.486,-0.972 0.752,-1.446 -0.525,-0.136 -1.056,-0.253 -1.591,-0.352 -0.268,0.473 -0.519,0.955 -0.753,1.444 0.535,0.101 1.066,0.219 1.592,0.354zm1.847 -3.22c0.298,-0.439 0.609,-0.869 0.935,-1.29 -0.506,-0.136 -1.017,-0.255 -1.534,-0.357 -0.331,0.411 -0.646,0.83 -0.946,1.26 0.52,0.112 1.035,0.242 1.545,0.387zm-7.678 13.13c-0.007,-0.509 0.002,-1.018 0.026,-1.525 -0.522,-0.023 -1.045,-0.028 -1.566,-0.016 -0.013,0.522 -0.008,1.044 0.015,1.566 0.507,-0.024 1.016,-0.032 1.525,-0.025zm0.2 -3.519c0.068,-0.531 0.152,-1.059 0.254,-1.583 -0.54,-0.035 -1.081,-0.05 -1.623,-0.046 -0.097,0.532 -0.176,1.067 -0.236,1.604 0.535,-0.009 1.07,-0.001 1.605,0.025zm0.719 -3.555c0.146,-0.524 0.31,-1.042 0.489,-1.555 -0.54,-0.043 -1.083,-0.067 -1.627,-0.071 -0.182,0.513 -0.345,1.03 -0.49,1.553 0.543,0.007 1.086,0.031 1.628,0.073zm1.259 -3.491c0.217,-0.484 0.449,-0.962 0.697,-1.432 -0.522,-0.047 -1.046,-0.075 -1.573,-0.085 -0.254,0.461 -0.492,0.929 -0.713,1.404 0.532,0.021 1.062,0.059 1.589,0.113zm-5.283 14.263c-0.095,-0.501 -0.175,-1.003 -0.24,-1.507 -0.517,0.068 -1.032,0.154 -1.543,0.257 0.078,0.515 0.174,1.029 0.287,1.539 0.495,-0.112 0.994,-0.208 1.496,-0.289zm-0.414 -3.499c-0.025,-0.534 -0.034,-1.07 -0.024,-1.605 -0.538,0.06 -1.073,0.139 -1.605,0.237 -0.004,0.541 0.011,1.082 0.046,1.622 0.524,-0.101 1.052,-0.185 1.583,-0.254zm0.091 -3.627c0.053,-0.541 0.124,-1.079 0.211,-1.615 -0.539,0.052 -1.076,0.123 -1.612,0.213 -0.09,0.536 -0.161,1.074 -0.213,1.613 0.535,-0.088 1.074,-0.159 1.614,-0.211zm0.635 -3.657c0.129,-0.515 0.275,-1.025 0.436,-1.532 -0.521,0.045 -1.041,0.108 -1.561,0.189 -0.17,0.498 -0.323,1.001 -0.458,1.506 0.526,-0.071 1.054,-0.125 1.583,-0.163zm-2.725 14.966c-0.181,-0.477 -0.347,-0.958 -0.498,-1.444 -0.499,0.157 -0.991,0.331 -1.477,0.522 0.167,0.495 0.35,0.984 0.55,1.468 0.469,-0.197 0.944,-0.379 1.425,-0.546zm-1.016 -3.376c-0.118,-0.523 -0.219,-1.048 -0.303,-1.577 -0.52,0.153 -1.034,0.323 -1.541,0.512 0.09,0.534 0.199,1.064 0.327,1.59 0.499,-0.191 1.005,-0.366 1.517,-0.525zm-0.54 -3.586c-0.042,-0.542 -0.066,-1.086 -0.073,-1.629 -0.522,0.145 -1.04,0.308 -1.553,0.49 0.004,0.544 0.028,1.087 0.071,1.627 0.513,-0.179 1.031,-0.342 1.555,-0.488zm-0.011 -3.713c0.038,-0.529 0.093,-1.057 0.164,-1.583 -0.506,0.135 -1.008,0.288 -1.506,0.458 -0.082,0.52 -0.145,1.04 -0.189,1.561 0.506,-0.162 1.017,-0.307 1.531,-0.436zm-1.669 12.066c-0.207,-0.495 -0.399,-0.996 -0.573,-1.502 -0.485,0.24 -0.961,0.497 -1.429,0.771 0.182,0.511 0.382,1.015 0.599,1.512 0.459,-0.275 0.927,-0.536 1.403,-0.781zm-1.156 -3.442c-0.135,-0.527 -0.253,-1.057 -0.354,-1.592 -0.49,0.233 -0.972,0.484 -1.445,0.752 0.099,0.536 0.216,1.066 0.352,1.592 0.474,-0.267 0.957,-0.517 1.447,-0.752zm-0.655 -3.652c-0.055,-0.528 -0.092,-1.058 -0.113,-1.59 -0.475,0.221 -0.943,0.458 -1.405,0.713 0.011,0.526 0.039,1.051 0.085,1.573 0.471,-0.248 0.949,-0.48 1.433,-0.696zm-1.285 8.986c-0.225,-0.495 -0.434,-0.999 -0.626,-1.508 -0.442,0.315 -0.873,0.646 -1.293,0.993 0.19,0.511 0.398,1.013 0.623,1.508 0.422,-0.345 0.854,-0.676 1.296,-0.993zm-1.28 -3.487c-0.146,-0.511 -0.275,-1.027 -0.388,-1.547 -0.43,0.3 -0.85,0.615 -1.26,0.946 0.102,0.517 0.221,1.03 0.357,1.536 0.421,-0.326 0.851,-0.638 1.291,-0.935zm-1.568 5.862c-0.232,-0.478 -0.449,-0.963 -0.651,-1.456 -0.371,0.369 -0.73,0.753 -1.077,1.15 0.19,0.492 0.396,0.976 0.619,1.451 0.358,-0.394 0.728,-0.775 1.109,-1.145z"/>
  <circle class="fil38" cx="373.436" cy="260.467" r="27.591"/>
  <circle class="fil39" cx="373.436" cy="260.467" r="24.189"/>
  <circle class="fil40" cx="405.251" cy="175.711" r="19.276"/>
  <path class="fil41" d="M405.251 157.818c8.074,0 14.899,5.348 17.126,12.694 0.043,0.141 -0.031,0.29 -0.169,0.342 -0.142,0.054 -0.301,-0.015 -0.358,-0.156 -2.649,-6.567 -9.083,-11.201 -16.599,-11.201 -7.517,0 -13.951,4.636 -16.6,11.204 -0.057,0.141 -0.216,0.211 -0.358,0.158 -0.138,-0.053 -0.211,-0.202 -0.169,-0.343 2.226,-7.348 9.052,-12.698 17.127,-12.698z"/>
  <circle class="fil42" cx="450.819" cy="136.108" r="19.276"/>
  <path class="fil41" d="M450.819 118.215c8.074,0 14.899,5.348 17.126,12.694 0.042,0.142 -0.031,0.291 -0.169,0.343 -0.142,0.054 -0.301,-0.016 -0.358,-0.157 -2.65,-6.567 -9.083,-11.201 -16.599,-11.201 -7.517,0 -13.951,4.636 -16.6,11.205 -0.057,0.14 -0.216,0.211 -0.358,0.157 -0.138,-0.052 -0.211,-0.202 -0.169,-0.343 2.226,-7.348 9.052,-12.698 17.127,-12.698z"/>
  <circle class="fil40" cx="496.139" cy="175.711" r="19.276"/>
  <path class="fil41" d="M496.139 157.818c8.073,0 14.898,5.348 17.125,12.694 0.043,0.141 -0.031,0.29 -0.169,0.342 -0.142,0.054 -0.301,-0.015 -0.358,-0.156 -2.649,-6.567 -9.082,-11.201 -16.598,-11.201 -7.518,0 -13.952,4.636 -16.601,11.204 -0.057,0.141 -0.216,0.211 -0.357,0.158 -0.138,-0.053 -0.212,-0.202 -0.169,-0.343 2.225,-7.348 9.051,-12.698 17.127,-12.698z"/>
  <circle class="fil42" cx="450.819" cy="215.397" r="19.276"/>
  <path class="fil41" d="M450.819 197.503c8.074,0 14.899,5.348 17.126,12.694 0.042,0.142 -0.031,0.291 -0.169,0.343 -0.142,0.054 -0.301,-0.016 -0.358,-0.157 -2.65,-6.567 -9.083,-11.201 -16.599,-11.201 -7.517,0 -13.951,4.636 -16.6,11.205 -0.057,0.14 -0.216,0.211 -0.358,0.157 -0.138,-0.052 -0.211,-0.201 -0.169,-0.342 2.226,-7.349 9.052,-12.699 17.127,-12.699z"/>
 </g>
</svg>
