<?xml version="1.0" encoding="UTF-8"?>
<!DOCTYPE svg PUBLIC "-//W3C//DTD SVG 1.1//EN" "http://www.w3.org/Graphics/SVG/1.1/DTD/svg11.dtd">
<svg xml:space="preserve" viewBox="0 0 582 460" width="582px" height="460px" version="1.1" style="shape-rendering:geometricPrecision; fill-rule:evenodd; clip-rule:evenodd" xmlns="http://www.w3.org/2000/svg">
 <defs>
  <style type="text/css">
    .fil1 {fill:url(#id0)}
    .fil0 {fill:url(#id1)}
  </style>
  <linearGradient id="id0" gradientUnits="userSpaceOnUse" x1="74.865" y1="93.689" x2="187.188" y2="93.689">
   <stop offset="0" style="stop-opacity:1; stop-color:#9A9CA2"/>
   <stop offset="0.05" style="stop-opacity:1; stop-color:#B1B3B8"/>
   <stop offset="0.95" style="stop-opacity:1; stop-color:#B1B3B8"/>
   <stop offset="1" style="stop-opacity:1; stop-color:#9A9CA2"/>
  </linearGradient>
  <linearGradient id="id1" gradientUnits="userSpaceOnUse" x1="74.865" y1="90.814" x2="187.188" y2="90.814">
   <stop offset="0" style="stop-opacity:1; stop-color:#B1B3B8"/>
   <stop offset="0.05" style="stop-opacity:1; stop-color:#C6CACE"/>
   <stop offset="0.95" style="stop-opacity:1; stop-color:#C6CACE"/>
   <stop offset="1" style="stop-opacity:1; stop-color:#B1B3B8"/>
  </linearGradient>
 </defs>
 <g>
  <path class="fil0" d="M135.986 85.984c-2.209,0.008 -4.777,0.069 -6.628,0.165 -5.14,0.267 -10.774,0.981 -15.907,1.989 -13.483,2.647 -26.664,7.526 -38.586,14.466l0.143 -5.187c0.023,-0.845 0.497,-1.657 1.16,-2.32 14.896,-10.427 41.965,-16.073 60.149,-16.073 15.961,0 31.922,0 47.882,0 1.705,0 2.729,1.046 2.817,2.983l0.172 3.775c-0.6,0.119 -1.181,0.202 -1.657,0.202 -16.515,0 -33.03,0 -49.545,0z"/>
  <path class="fil1" d="M74.897 101.433c0.547,-0.315 1.097,-0.625 1.649,-0.931 11.44,-6.343 23.945,-10.838 36.713,-13.345 2.612,-0.512 5.347,-0.949 8.077,-1.29 2.678,-0.335 5.377,-0.58 7.972,-0.714 0.931,-0.048 2.078,-0.091 3.292,-0.121 1.218,-0.03 2.397,-0.049 3.386,-0.049 16.515,0 33.03,0 49.545,0 0.452,0 1.023,-0.086 1.611,-0.209l0.046 1.008c-0.6,0.119 -1.181,0.202 -1.657,0.202 -16.515,0 -33.03,0 -49.545,0 -2.209,0.008 -4.777,0.069 -6.628,0.165 -5.14,0.267 -10.774,0.981 -15.907,1.989 -13.483,2.647 -26.664,7.526 -38.586,14.466l0.032 -1.171z"/>
 </g>
</svg>
