<?xml version="1.0" encoding="UTF-8"?>
<!DOCTYPE svg PUBLIC "-//W3C//DTD SVG 1.1//EN" "http://www.w3.org/Graphics/SVG/1.1/DTD/svg11.dtd">
<svg xml:space="preserve" viewBox="0 0 582 460" width="582px" height="460px" version="1.1" style="shape-rendering:geometricPrecision; fill-rule:evenodd; clip-rule:evenodd" xmlns="http://www.w3.org/2000/svg">
 <defs>
  <style type="text/css">
    .fil0 {fill:red}
    .fil1 {fill:white}
    .fil2 {fill:white;fill-opacity:0.4}
  </style>
 </defs>
 <g>
  <circle class="fil0" cx="496.139" cy="175.711" r="19.276"/>
  <path class="fil1 button-mark" d="M498.873 183.085c0.166,0.166 0.166,0.331 0.497,0.331l2.154 0c0.497,0 0.497,-0.165 0.497,-0.331l-3.811 -14.748c-0.166,-0.165 -0.331,-0.331 -0.497,-0.331l-2.983 0c-0.331,0 -0.497,0.166 -0.497,0.331l-3.811 14.748c-0.166,0.166 0,0.331 0.331,0.331l2.32 0c0.166,0 0.331,-0.165 0.497,-0.331l0.497 -2.154c0,-0.166 0.166,-0.332 0.332,-0.332l3.48 0c0.165,0 0.331,0.166 0.331,0.332l0.663 2.154zm-1.657 -5.634l-2.154 0c-0.166,0 -0.166,0 -0.166,-0.166l1.16 -5.468c0.166,0 0.166,0 0.166,0 0.165,0 0.165,0 0.165,0l0.995 5.468c0.165,0.166 0,0.166 -0.166,0.166z"/>
  <path class="fil2" d="M496.139 157.818c8.073,0 14.898,5.348 17.125,12.694 0.043,0.141 -0.031,0.29 -0.169,0.342 -0.142,0.054 -0.301,-0.015 -0.358,-0.156 -2.649,-6.567 -9.082,-11.201 -16.598,-11.201 -7.518,0 -13.952,4.636 -16.601,11.204 -0.057,0.141 -0.216,0.211 -0.357,0.158 -0.138,-0.053 -0.212,-0.202 -0.169,-0.343 2.225,-7.348 9.051,-12.698 17.127,-12.698z"/>
 </g>
</svg>

