<?xml version="1.0" encoding="UTF-8"?>
<!DOCTYPE svg PUBLIC "-//W3C//DTD SVG 1.1//EN" "http://www.w3.org/Graphics/SVG/1.1/DTD/svg11.dtd">
<svg xml:space="preserve" viewBox="0 0 582 460" width="582px" height="460px" version="1.1" style="shape-rendering:geometricPrecision; fill-rule:evenodd; clip-rule:evenodd" xmlns="http://www.w3.org/2000/svg">
 <defs>
  <style type="text/css">
    .fil0 {fill:red}
    .fil1 {fill:white}
    .fil2 {fill:white;fill-opacity:0.4}
  </style>
 </defs>
 <g>
  <circle class="fil0" cx="450.819" cy="136.108" r="19.276"/>
  <path class="fil1" d="M450.653 138.345c0,-0.165 0.166,-0.165 0.332,0l1.988 5.137c0,0.166 0.166,0.331 0.498,0.331l2.651 0c0.331,0 0.497,-0.331 0.331,-0.662l-3.314 -7.291c-0.166,-0.166 -0.166,-0.166 0,-0.332l2.983 -6.628c0.166,-0.165 -0.166,-0.497 -0.332,-0.497l-2.651 0c-0.166,0 -0.331,0 -0.497,0.332l-1.657 4.639c-0.166,0.166 -0.332,0.166 -0.332,0l-1.822 -4.639c-0.166,-0.332 -0.166,-0.332 -0.332,-0.332l-2.485 0c-0.331,0 -0.497,0.332 -0.331,0.497l2.816 6.463c0,0.331 0,0.331 0,0.497l-3.313 7.291c0,0.331 0.165,0.662 0.331,0.662l2.651 0c0.166,0 0.331,-0.165 0.497,-0.331l1.988 -5.137z"/>
  <path class="fil2" d="M450.819 118.215c8.074,0 14.899,5.348 17.126,12.694 0.042,0.142 -0.031,0.291 -0.169,0.343 -0.142,0.054 -0.301,-0.016 -0.358,-0.157 -2.65,-6.567 -9.083,-11.201 -16.599,-11.201 -7.517,0 -13.951,4.636 -16.6,11.205 -0.057,0.14 -0.216,0.211 -0.358,0.157 -0.138,-0.052 -0.211,-0.202 -0.169,-0.343 2.226,-7.348 9.052,-12.698 17.127,-12.698z"/>
 </g>
</svg>

