<?xml version="1.0" encoding="UTF-8"?>
<!DOCTYPE svg PUBLIC "-//W3C//DTD SVG 1.1//EN" "http://www.w3.org/Graphics/SVG/1.1/DTD/svg11.dtd">
<svg xml:space="preserve" viewBox="0 0 582 460" width="582px" height="460px" version="1.1" style="shape-rendering:geometricPrecision; fill-rule:evenodd; clip-rule:evenodd" xmlns="http://www.w3.org/2000/svg">
 <defs>
  <style type="text/css">
    .fil0 {fill:red}
    .fil1 {fill:white}
    .fil2 {fill:white;fill-opacity:0.4}
  </style>
 </defs>
 <g>
  <circle class="fil0" cx="450.819" cy="215.397" r="19.276"/>
  <path class="fil1" d="M449.494 213.574c-0.166,0 -0.166,-0.166 -0.166,-0.166l0 -2.485c0,-0.166 0,-0.166 0.166,-0.166l2.319 0c0.663,0 1.326,0.663 1.326,1.326 0,0.828 -0.663,1.491 -1.326,1.491l-2.319 0zm2.319 -5.8l-5.136 0c-0.166,0 -0.332,0.166 -0.332,0.332l0 14.582c0,0.165 0.166,0.497 0.332,0.497l5.136 0c2.817,0 4.64,-1.989 4.64,-4.972 0,-1.16 -0.497,-2.319 -1.325,-2.982 -0.166,0 -0.166,-0.166 0,-0.331 0.662,-0.663 1.16,-1.823 1.16,-2.817 0,-2.32 -1.989,-4.309 -4.475,-4.309zm0 8.782c0.829,0 1.492,0.829 1.492,1.657 0,0.829 -0.663,1.823 -1.492,1.823l-2.319 0c-0.166,0 -0.166,0 -0.166,-0.331l0 -2.817c0,-0.166 0,-0.332 0.166,-0.332l2.319 0z"/>
  <path class="fil2" d="M450.819 197.503c8.074,0 14.899,5.348 17.126,12.694 0.042,0.142 -0.031,0.291 -0.169,0.343 -0.142,0.054 -0.301,-0.016 -0.358,-0.157 -2.65,-6.567 -9.083,-11.201 -16.599,-11.201 -7.517,0 -13.951,4.636 -16.6,11.205 -0.057,0.14 -0.216,0.211 -0.358,0.157 -0.138,-0.052 -0.211,-0.201 -0.169,-0.342 2.226,-7.349 9.052,-12.699 17.127,-12.699z"/>
 </g>
</svg>

