<?xml version="1.0" encoding="UTF-8"?>
<!DOCTYPE svg PUBLIC "-//W3C//DTD SVG 1.1//EN" "http://www.w3.org/Graphics/SVG/1.1/DTD/svg11.dtd">
<svg xml:space="preserve" viewBox="0 0 582 460" width="582px" height="460px" version="1.1" style="shape-rendering:geometricPrecision; fill-rule:evenodd; clip-rule:evenodd" xmlns="http://www.w3.org/2000/svg">
 <defs>
  <style type="text/css">
    .fil0 {fill:red}
    .fil1 {fill:#E00000}
    .fil2 {fill:#D00000}
  </style>
 </defs>
 <g>
  <path class="fil0" d="M131.761 176.208l15.249 15.25c-0.547,0.547 -0.887,1.303 -0.887,2.136l0 24.567c0,1.665 -1.358,3.024 -3.024,3.024l-22.677 0c-1.665,0 -3.023,-1.359 -3.023,-3.024l0 -24.567c0,-0.833 -0.34,-1.589 -0.888,-2.136l15.25 -15.25z"/>
  <path class="fil1" d="M139.699 201.226l-7.466 12.934c-0.046,0.081 -0.114,0.151 -0.2,0.201 -0.26,0.149 -0.595,0.059 -0.745,-0.201l-7.438 -12.885c-0.064,-0.089 -0.104,-0.202 -0.104,-0.321 0,-0.302 0.247,-0.549 0.548,-0.549l14.933 0c0.093,0.003 0.186,0.027 0.272,0.076 0.26,0.15 0.35,0.484 0.2,0.745z"/>
  <path class="fil2" d="M138.442 182.889c-1.71,1.71 -4.072,2.768 -6.681,2.768 -2.609,0 -4.971,-1.058 -6.681,-2.768l6.681 -6.681 6.681 6.681z"/>
 </g>
</svg>
