<?xml version="1.0" encoding="UTF-8"?>
<!DOCTYPE svg PUBLIC "-//W3C//DTD SVG 1.1//EN" "http://www.w3.org/Graphics/SVG/1.1/DTD/svg11.dtd">
<svg xml:space="preserve" viewBox="0 0 582 460" width="582px" height="460px" version="1.1" style="shape-rendering:geometricPrecision; fill-rule:evenodd; clip-rule:evenodd" xmlns="http://www.w3.org/2000/svg">
 <defs>
  <style type="text/css">
    .fil0 {fill:red}
    .fil1 {fill:#D00000}
    .fil2 {fill:white;fill-opacity:0.1}
  </style>
 </defs>
 <g>
  <path class="fil0" d="M89.808 161.846l24.567 0c0.833,0 1.589,-0.34 2.136,-0.888l15.25 15.25 -15.25 15.25c-0.547,-0.548 -1.303,-0.888 -2.136,-0.888l-24.567 0c-1.665,0 -3.024,-1.358 -3.024,-3.023l0 -22.677c0,-1.666 1.359,-3.024 3.024,-3.024z"/>
  <path class="fil1" d="M125.08 182.889c-1.71,-1.71 -2.768,-4.072 -2.768,-6.681 0,-2.609 1.058,-4.971 2.768,-6.681l6.681 6.681 -6.681 6.681z"/>
  <path class="fil2" d="M107.797 170.397l0 11.692c0,1.601 -1.322,2.923 -2.923,2.923l-0.208 0c-1.67,0 -2.993,-1.322 -2.993,-2.923l0 -11.692c0,-1.6 1.323,-2.992 2.993,-2.992l0.208 0c1.601,0 2.923,1.392 2.923,2.992zm-9.304 0l0 11.692c0,1.601 -1.322,2.923 -2.923,2.923l-0.208 0c-1.67,0 -2.993,-1.322 -2.993,-2.923l0 -11.692c0,-1.6 1.323,-2.992 2.993,-2.992l0.208 0c1.601,0 2.923,1.392 2.923,2.992zm18.683 0l0 11.692c0,1.601 -1.322,2.923 -2.923,2.923l-0.208 0c-1.671,0 -2.993,-1.322 -2.993,-2.923l0 -11.692c0,-1.6 1.322,-2.992 2.993,-2.992l0.208 0c1.601,0 2.923,1.392 2.923,2.992z"/>
 </g>
</svg>
