<?xml version="1.0" encoding="UTF-8"?>
<!DOCTYPE svg PUBLIC "-//W3C//DTD SVG 1.1//EN" "http://www.w3.org/Graphics/SVG/1.1/DTD/svg11.dtd">
<svg xml:space="preserve" viewBox="0 0 862 376" width="862px" height="376px" version="1.1" style="shape-rendering:geometricPrecision; fill-rule:evenodd; clip-rule:evenodd" xmlns="http://www.w3.org/2000/svg" xmlns:xlink="http://www.w3.org/1999/xlink">
 <defs>
  <style type="text/css">
    .str0 {stroke:#1A1A1A}
    .fil4 {fill:none}
    .fil13 {fill:black}
    .fil14 {fill:#202020}
    .fil2 {fill:#333333}
    .fil3 {fill:gray}
    .fil6 {fill:#999999}
    .fil1 {fill:#B3B3B3}
    .fil7 {fill:#CCCCCC}
    .fil0 {fill:gainsboro}
    .fil5 {fill:#E60012}
    .fil8 {fill:#F0F0F0}
    .fil15 {fill:black;fill-opacity:0.5}
    .fil10 {fill:url(#id0)}
    .fil12 {fill:url(#id1)}
    .fil9 {fill:url(#id2)}
    .fil11 {fill:url(#id3)}
  </style>
  <linearGradient id="id0" gradientUnits="userSpaceOnUse" x1="514.006" y1="239.223" x2="510.985" y2="236.202">
   <stop offset="0" style="stop-opacity:1; stop-color:#CCCCCC"/>
   <stop offset="1" style="stop-opacity:1; stop-color:#999999"/>
  </linearGradient>
  <linearGradient id="id1" gradientUnits="userSpaceOnUse" x1="514.006" y1="290.761" x2="510.985" y2="293.782">
   <stop offset="0" style="stop-opacity:1; stop-color:#CCCCCC"/>
   <stop offset="1" style="stop-opacity:1; stop-color:#F0F0F0"/>
  </linearGradient>
  <linearGradient id="id2" gradientUnits="userSpaceOnUse" xlink:href="#id0" x1="291.407" y1="239.223" x2="294.428" y2="236.202">
  </linearGradient>
  <linearGradient id="id3" gradientUnits="userSpaceOnUse" xlink:href="#id1" x1="291.407" y1="290.761" x2="294.428" y2="293.782">
  </linearGradient>
 </defs>
 <g>
  <g id="shell">
   <path class="fil0" d="M859.289 361.651c0,6.609 -5.393,11.999 -11.999,11.999l-832.58 0c-6.606,0 -11.999,-5.39 -11.999,-11.999 0,-115.767 0,-231.535 0,-347.302 0,-6.609 5.39,-11.999 11.999,-11.999l832.58 0c6.609,0 11.999,5.39 11.999,11.999 0,115.767 0,231.535 0,347.302z"/>
   <polygon class="fil1" points="229.466,9.473 257.811,9.473 257.811,2.35 259.811,2.35 259.811,11.473 227.466,11.473 227.466,2.35 229.466,2.35 "/>
   <path class="fil2" d="M34.712 347.649c-3.302,0 -6,-2.695 -6,-6 0,-90.896 0,-181.792 0,-272.688 0,-3.305 2.695,-6 6,-6 264.192,0 528.384,0 792.576,0 3.305,0 6,2.7 6,6 0,90.896 0,181.792 0,272.688 0,3.3 -2.698,6 -6,6 -264.192,0 -528.384,0 -792.576,0z"/>
   <path class="fil3" d="M524.516 62.961l0 29.326c0,5.506 -4.493,10 -9.999,10l-223.621 0c-5.506,0 -10,-4.492 -10,-10l0 -29.326 243.62 0zm-233.62 52.726l223.621 0c5.508,0 9.999,4.493 9.999,10l0 21.602c0,5.507 -4.492,10 -9.999,10l-223.621 0c-5.507,0 -10,-4.492 -10,-10l0 -21.602c0,-5.508 4.492,-10 10,-10zm0 55.002l223.621 0c5.508,0 9.999,4.493 9.999,10l0 21.602c0,5.507 -4.492,10 -9.999,10l-223.621 0c-5.507,0 -10,-4.492 -10,-10l0 -21.602c0,-5.508 4.492,-10 10,-10zm233.62 176.96l0 -15.957c0,-5.507 -4.493,-10 -9.999,-10l-223.621 0c-5.506,0 -10,4.492 -10,10l0 15.957 243.62 0z"/>
   <path class="fil4 str0" d="M34.712 347.649c-3.302,0 -6,-2.695 -6,-6 0,-90.896 0,-181.792 0,-272.688 0,-3.305 2.695,-6 6,-6 264.192,0 528.384,0 792.576,0 3.305,0 6,2.7 6,6 0,90.896 0,181.792 0,272.688 0,3.3 -2.698,6 -6,6 -264.192,0 -528.384,0 -792.576,0z"/>
   <path id="label-select" class="fil5" d="M295.069 197.049l0 -2.823 10.474 0c0.364,0 0.611,-0.077 0.741,-0.233 0.13,-0.158 0.197,-0.391 0.197,-0.702l0 -0.313c0,-0.31 -0.067,-0.544 -0.197,-0.701 -0.13,-0.156 -0.377,-0.233 -0.741,-0.233l-6.413 0c-1.565,0 -2.686,-0.341 -3.363,-1.021 -0.678,-0.681 -1.018,-1.488 -1.018,-2.426l0 -0.624c0,-1.041 0.34,-1.875 1.018,-2.499 0.677,-0.624 1.798,-0.937 3.363,-0.937l10.634 0 0 2.812 -10.47 0c-0.287,0 -0.488,0.06 -0.604,0.184 -0.117,0.124 -0.177,0.27 -0.177,0.44l0 0.624c0,0.184 0.06,0.331 0.177,0.447 0.116,0.117 0.317,0.177 0.604,0.177l6.259 0c1.562,0 2.736,0.367 3.517,1.098 0.784,0.73 1.174,1.622 1.174,2.666l0 0.47c0,1.145 -0.39,2.032 -1.174,2.656 -0.784,0.624 -1.962,0.938 -3.53,0.938l-10.471 0zm19.85 0c-0.834,0 -1.561,-0.314 -2.185,-0.938 -0.624,-0.627 -0.938,-1.358 -0.938,-2.192l0 -9.382 13.444 0 0 2.822 -8.913 0c-0.183,0 -0.333,0.06 -0.45,0.184 -0.117,0.123 -0.177,0.27 -0.177,0.441l0 0.933c0,0.184 0.06,0.33 0.177,0.448 0.117,0.117 0.267,0.176 0.45,0.176l8.289 0 0 2.223 -8.289 0c-0.183,0 -0.333,0.063 -0.45,0.187 -0.117,0.123 -0.177,0.27 -0.177,0.443l0 0.901c0,0.183 0.06,0.337 0.177,0.454 0.117,0.117 0.267,0.177 0.45,0.177l8.913 0 0 3.123 -10.321 0zm14.234 0c-0.73,0 -1.327,-0.234 -1.798,-0.704 -0.47,-0.471 -0.704,-1.068 -0.704,-1.799l0 -10.009 3.924 0 0 9.065c0,0.207 0.054,0.363 0.157,0.467 0.104,0.104 0.26,0.157 0.467,0.157l7.965 0 0 2.823 -10.011 0zm14.545 0c-0.834,0 -1.562,-0.314 -2.186,-0.938 -0.624,-0.627 -0.937,-1.358 -0.937,-2.192l0 -9.382 13.443 0 0 2.822 -8.912 0c-0.184,0 -0.334,0.06 -0.45,0.184 -0.117,0.123 -0.177,0.27 -0.177,0.441l0 0.933c0,0.184 0.06,0.33 0.177,0.448 0.116,0.117 0.266,0.176 0.45,0.176l8.289 0 0 2.223 -8.289 0c-0.184,0 -0.334,0.063 -0.45,0.187 -0.117,0.123 -0.177,0.27 -0.177,0.443l0 0.901c0,0.183 0.06,0.337 0.177,0.454 0.116,0.117 0.266,0.177 0.45,0.177l8.912 0 0 3.123 -10.32 0zm15.803 0c-0.938,0 -1.825,-0.314 -2.66,-0.938 -0.834,-0.627 -1.251,-1.878 -1.251,-3.753l0 -3.13c0,-1.875 0.417,-3.126 1.251,-3.754 0.835,-0.624 1.722,-0.937 2.66,-0.937l10.163 0 0 2.822 -8.605 0c-0.521,0 -0.915,0.157 -1.175,0.467 -0.26,0.314 -0.39,0.678 -0.39,1.094l0 3.744c0,0.418 0.13,0.781 0.39,1.095 0.26,0.31 0.654,0.467 1.175,0.467l8.605 0 0 2.823 -10.163 0zm17.357 0l0 -9.065c0,-0.168 -0.064,-0.315 -0.187,-0.438 -0.123,-0.123 -0.27,-0.187 -0.437,-0.187l-5.002 0 0 -2.822 15.002 0 0 2.822 -5.005 0c-0.183,0 -0.334,0.064 -0.45,0.187 -0.117,0.123 -0.177,0.27 -0.177,0.438l0 9.065 -3.744 0z"/>
   <path id="label-start" class="fil5" d="M427.751 197.049l0 -2.823 10.474 0c0.364,0 0.611,-0.077 0.741,-0.233 0.13,-0.158 0.197,-0.391 0.197,-0.702l0 -0.313c0,-0.31 -0.067,-0.544 -0.197,-0.701 -0.13,-0.156 -0.377,-0.233 -0.741,-0.233l-6.413 0c-1.565,0 -2.686,-0.341 -3.363,-1.021 -0.677,-0.681 -1.018,-1.488 -1.018,-2.426l0 -0.624c0,-1.041 0.341,-1.875 1.018,-2.499 0.677,-0.624 1.798,-0.937 3.363,-0.937l10.634 0 0 2.812 -10.471 0c-0.286,0 -0.487,0.06 -0.603,0.184 -0.117,0.124 -0.177,0.27 -0.177,0.44l0 0.624c0,0.184 0.06,0.331 0.177,0.447 0.116,0.117 0.317,0.177 0.603,0.177l6.26 0c1.561,0 2.737,0.367 3.517,1.098 0.784,0.73 1.175,1.622 1.175,2.666l0 0.47c0,1.145 -0.391,2.032 -1.175,2.656 -0.784,0.624 -1.962,0.938 -3.53,0.938l-10.471 0zm73.03 0l0 -9.065c0,-0.168 -0.063,-0.315 -0.187,-0.438 -0.123,-0.123 -0.27,-0.187 -0.437,-0.187l-5.001 0 0 -2.822 15.001 0 0 2.822 -5.005 0c-0.183,0 -0.333,0.064 -0.45,0.187 -0.117,0.123 -0.177,0.27 -0.177,0.438l0 9.065 -3.744 0zm-50.677 0l0 -9.065c0,-0.168 -0.063,-0.315 -0.187,-0.438 -0.123,-0.123 -0.27,-0.187 -0.437,-0.187l-5.001 0 0 -2.822 15.001 0 0 2.822 -5.005 0c-0.184,0 -0.334,0.064 -0.45,0.187 -0.117,0.123 -0.177,0.27 -0.177,0.438l0 9.065 -3.744 0zm22.059 -6.247c0.17,0 0.317,-0.059 0.44,-0.176 0.124,-0.117 0.187,-0.267 0.187,-0.451l0 -1.251c0,-0.47 -0.183,-0.847 -0.547,-1.134 -0.367,-0.287 -0.757,-0.431 -1.175,-0.431l-4.384 0c-0.417,0 -0.807,0.144 -1.175,0.431 -0.363,0.287 -0.547,0.664 -0.547,1.134l0 1.251c0,0.184 0.06,0.334 0.177,0.451 0.117,0.117 0.267,0.176 0.45,0.176l6.574 0zm-11.104 6.247l0 -7.821c0,-2.086 0.52,-3.387 1.564,-3.911 1.041,-0.52 2.292,-0.78 3.751,-0.78l5.005 0c1.458,0 2.709,0.26 3.75,0.78 1.045,0.524 1.565,1.825 1.565,3.911l0 7.821 -3.904 0 0 -2.499c0,-0.167 -0.063,-0.314 -0.187,-0.437 -0.123,-0.124 -0.27,-0.187 -0.44,-0.187l-6.574 0c-0.183,0 -0.333,0.063 -0.45,0.187 -0.117,0.123 -0.177,0.27 -0.177,0.437l0 2.499 -3.903 0zm17.203 0l0 -12.512 10.641 0c1.462,0 2.609,0.337 3.443,1.014 0.834,0.677 1.252,1.591 1.252,2.736l0 0.781c0,1.458 -0.681,2.449 -2.039,2.969 1.358,0.521 2.039,1.565 2.039,3.133l0 1.879 -3.914 0 0 -1.565c0,-0.627 -0.13,-1.095 -0.394,-1.408 -0.26,-0.314 -0.597,-0.47 -1.018,-0.47l-5.479 0c-0.183,0 -0.333,0.063 -0.45,0.186 -0.117,0.124 -0.177,0.271 -0.177,0.441l0 2.816 -3.904 0zm10.164 -6.266c0.363,0 0.69,-0.104 0.977,-0.311 0.287,-0.206 0.431,-0.624 0.431,-1.244l0 -0.624c0,-0.414 -0.144,-0.727 -0.431,-0.935 -0.287,-0.206 -0.614,-0.31 -0.977,-0.31l-5.633 0c-0.183,0 -0.333,0.06 -0.45,0.184 -0.117,0.123 -0.177,0.27 -0.177,0.441l0 2.175c0,0.183 0.06,0.333 0.177,0.45 0.117,0.117 0.267,0.174 0.45,0.174l5.633 0z"/>
   <path id="label-b" class="fil5" d="M645.456 333.721c0.216,0 0.401,-0.076 0.558,-0.224 0.156,-0.148 0.236,-0.338 0.236,-0.57l0 -1.583c-0.017,-0.195 -0.101,-0.376 -0.249,-0.541 -0.148,-0.165 -0.329,-0.249 -0.545,-0.249l-8.925 0c-0.233,0 -0.422,0.08 -0.57,0.237 -0.148,0.156 -0.224,0.341 -0.224,0.553l0 1.583c0,0.232 0.076,0.422 0.224,0.57 0.148,0.148 0.337,0.224 0.57,0.224l8.925 0zm-0.405 -6.334c0.215,0 0.397,-0.076 0.545,-0.223 0.164,-0.148 0.249,-0.338 0.249,-0.57l0 -1.584c0,-0.211 -0.08,-0.397 -0.237,-0.553 -0.156,-0.156 -0.342,-0.236 -0.557,-0.236l-8.52 0c-0.233,0 -0.422,0.08 -0.57,0.236 -0.148,0.156 -0.224,0.342 -0.224,0.553l0 1.584c0,0.232 0.076,0.422 0.224,0.57 0.148,0.147 0.337,0.223 0.57,0.223l8.52 0zm-14.254 9.5l0 -15.833 16.243 0c0.925,0 1.752,0.329 2.478,0.988 0.726,0.663 1.09,1.651 1.09,2.968l0 0.596c0,1.186 -0.321,2.043 -0.967,2.571 -0.646,0.528 -1.115,0.794 -1.415,0.794 0.798,0 1.461,0.329 1.989,0.988 0.532,0.663 0.798,1.452 0.798,2.377l0 0.591c0,1.322 -0.266,2.31 -0.794,2.973 -0.528,0.658 -1.385,0.987 -2.575,0.987l-16.847 0z"/>
   <path id="label-a" class="fil5" d="M757.281 328.983c0.215,0 0.401,-0.076 0.557,-0.223 0.157,-0.148 0.237,-0.338 0.237,-0.57l0 -1.584c0,-0.595 -0.232,-1.072 -0.693,-1.435 -0.464,-0.363 -0.958,-0.545 -1.486,-0.545l-5.548 0c-0.527,0 -1.022,0.182 -1.486,0.545 -0.46,0.363 -0.692,0.84 -0.692,1.435l0 1.584c0,0.232 0.076,0.422 0.223,0.57 0.148,0.147 0.338,0.223 0.57,0.223l8.318 0zm-14.052 7.904l0 -9.897c0,-2.638 0.659,-4.285 1.981,-4.948 1.317,-0.659 2.9,-0.988 4.746,-0.988l6.333 0c1.845,0 3.428,0.329 4.746,0.988 1.321,0.663 1.98,2.31 1.98,4.948l0 9.897 -4.94 0 0 -3.162c0,-0.211 -0.08,-0.397 -0.237,-0.553 -0.156,-0.156 -0.342,-0.236 -0.557,-0.236l-8.318 0c-0.232,0 -0.422,0.08 -0.57,0.236 -0.147,0.156 -0.223,0.342 -0.223,0.553l0 3.162 -4.941 0z"/>
   <path id="label-turbo" class="fil5" d="M624.296 91.928l0 -9.064c0,-0.166 -0.063,-0.313 -0.187,-0.437 -0.123,-0.123 -0.27,-0.187 -0.437,-0.187l-5.001 0 0 -2.822 14.999 0 0 2.822 -5.004 0c-0.183,0 -0.333,0.064 -0.45,0.187 -0.117,0.124 -0.177,0.271 -0.177,0.437l0 9.064 -3.743 0zm26.991 -12.51l0 7.82c0,1.875 -0.507,3.125 -1.524,3.753 -1.018,0.623 -2.285,0.937 -3.806,0.937l-5.398 0c-1.511,0 -2.776,-0.314 -3.793,-0.937 -1.018,-0.628 -1.524,-1.878 -1.524,-3.753l0 -7.82 3.909 0 0 8.126c0,0.521 0.13,0.911 0.391,1.171 0.26,0.261 0.6,0.391 1.017,0.391l5.398 0c0.42,0 0.763,-0.13 1.027,-0.391 0.264,-0.26 0.394,-0.65 0.394,-1.171l0 -8.126 3.909 0zm1.551 12.51l0 -12.51 10.639 0c1.461,0 2.609,0.337 3.443,1.014 0.834,0.677 1.251,1.592 1.251,2.736l0 0.78c0,1.458 -0.681,2.449 -2.039,2.969 1.358,0.521 2.039,1.565 2.039,3.133l0 1.878 -3.913 0 0 -1.565c0,-0.627 -0.13,-1.094 -0.394,-1.407 -0.26,-0.314 -0.597,-0.471 -1.018,-0.471l-5.477 0c-0.184,0 -0.334,0.064 -0.451,0.187 -0.117,0.123 -0.177,0.27 -0.177,0.441l0 2.815 -3.903 0zm10.162 -6.265c0.363,0 0.69,-0.103 0.977,-0.31 0.288,-0.207 0.431,-0.624 0.431,-1.245l0 -0.623c0,-0.414 -0.143,-0.728 -0.431,-0.934 -0.287,-0.207 -0.614,-0.311 -0.977,-0.311l-5.631 0c-0.184,0 -0.334,0.06 -0.451,0.184 -0.117,0.123 -0.177,0.27 -0.177,0.44l0 2.175c0,0.184 0.06,0.334 0.177,0.451 0.117,0.116 0.267,0.173 0.451,0.173l5.631 0zm18.311 3.763c0.17,0 0.317,-0.06 0.44,-0.177 0.124,-0.116 0.187,-0.267 0.187,-0.45l0 -1.251c-0.013,-0.154 -0.08,-0.297 -0.197,-0.427 -0.116,-0.13 -0.26,-0.197 -0.43,-0.197l-7.052 0c-0.184,0 -0.334,0.063 -0.45,0.187 -0.117,0.123 -0.177,0.27 -0.177,0.437l0 1.251c0,0.183 0.06,0.334 0.177,0.45 0.116,0.117 0.266,0.177 0.45,0.177l7.052 0zm-0.32 -5.004c0.17,0 0.314,-0.06 0.43,-0.177 0.13,-0.116 0.197,-0.267 0.197,-0.45l0 -1.251c0,-0.167 -0.063,-0.314 -0.187,-0.437 -0.123,-0.123 -0.27,-0.187 -0.44,-0.187l-6.732 0c-0.184,0 -0.334,0.064 -0.45,0.187 -0.117,0.123 -0.177,0.27 -0.177,0.437l0 1.251c0,0.183 0.06,0.334 0.177,0.45 0.116,0.117 0.266,0.177 0.45,0.177l6.732 0zm-11.262 7.506l0 -12.51 12.833 0c0.731,0 1.384,0.26 1.958,0.781 0.574,0.523 0.861,1.304 0.861,2.345l0 0.47c0,0.938 -0.253,1.615 -0.764,2.032 -0.51,0.417 -0.881,0.627 -1.118,0.627 0.631,0 1.155,0.26 1.572,0.781 0.42,0.524 0.63,1.147 0.63,1.878l0 0.467c0,1.044 -0.21,1.825 -0.627,2.348 -0.417,0.521 -1.094,0.781 -2.035,0.781l-13.31 0zm30.027 -2.822c0.42,0 0.707,-0.104 0.864,-0.314 0.157,-0.207 0.233,-0.517 0.233,-0.934l0 -4.37c0,-0.417 -0.076,-0.727 -0.233,-0.934 -0.157,-0.21 -0.444,-0.314 -0.864,-0.314l-7.513 0c-0.42,0 -0.707,0.104 -0.864,0.314 -0.157,0.207 -0.234,0.517 -0.234,0.934l0 4.37c0,0.417 0.077,0.727 0.234,0.934 0.157,0.21 0.444,0.314 0.864,0.314l7.513 0zm-7.51 2.822c-1.457,0 -2.659,-0.314 -3.596,-0.937 -0.937,-0.628 -1.408,-1.668 -1.408,-3.129l0 -4.377c0,-1.461 0.471,-2.502 1.408,-3.13 0.937,-0.623 2.139,-0.937 3.596,-0.937l7.506 0c1.408,0 2.592,0.314 3.557,0.937 0.964,0.628 1.448,1.669 1.448,3.13l0 4.377c0,1.461 -0.484,2.501 -1.448,3.129 -0.965,0.623 -2.149,0.937 -3.557,0.937l-7.506 0z"/>
   <path class="fil0 str0" d="M225.641 257.173c6.87,0.009 12.439,-5.569 12.439,-12.439l0 -44.071c0,-6.87 -5.571,-12.431 -12.439,-12.439l-35.995 -0.047c-1.458,-0.001 -2.651,-1.189 -2.651,-2.649l0 -36.041c0,-6.87 -5.571,-12.439 -12.439,-12.439l-44.072 0c-6.869,0 -12.44,5.571 -12.44,12.439l0 36.041c0,1.459 -1.192,2.648 -2.651,2.65l-35.905 0.046c-6.869,0.008 -12.439,5.57 -12.439,12.439l0 44.071c0,6.869 5.569,12.448 12.439,12.439l35.905 -0.045c1.46,-0.002 2.65,1.191 2.65,2.65l0.001 36.042c0.001,6.868 5.57,12.439 12.44,12.439l44.072 0c6.87,0 12.438,-5.569 12.439,-12.439l0.001 -36.043c0,-1.459 1.19,-2.651 2.65,-2.65l35.995 0.046z"/>
   <path class="fil0 str0" d="M286.896 225.691l231.621 0c3.304,0 5.999,2.696 5.999,6l0 66.601c0,3.305 -2.695,6 -5.999,6l-231.621 0c-3.304,0 -6,-2.695 -6,-6l0 -66.601c0,-3.304 2.696,-6 6,-6z"/>
   <g>
    <path class="fil6" d="M291.577 232.372l222.259 0c1.102,0 2.101,0.449 2.826,1.174l-6.681 6.68c-0.724,-0.724 -1.724,-1.173 -2.826,-1.173l-208.897 0c-1.102,0 -2.102,0.449 -2.826,1.173l-6.681 -6.68c0.725,-0.725 1.724,-1.174 2.826,-1.174z"/>
    <path class="fil7" d="M295.432 240.226c-0.725,0.725 -1.174,1.725 -1.174,2.826l0 43.879c0,1.102 0.449,2.101 1.174,2.826l-6.681 6.68c-0.725,-0.724 -1.174,-1.724 -1.174,-2.825l0 -57.24c0,-1.102 0.449,-2.102 1.174,-2.826l6.681 6.68z"/>
    <path class="fil7" d="M509.981 240.226c0.725,0.725 1.174,1.725 1.174,2.826l0 43.879c0,1.102 -0.449,2.101 -1.174,2.826l6.681 6.68c0.725,-0.724 1.174,-1.724 1.174,-2.825l0 -57.24c0,-1.102 -0.449,-2.102 -1.174,-2.826l-6.681 6.68z"/>
    <path class="fil8" d="M291.577 297.611l222.259 0c1.102,0 2.101,-0.449 2.826,-1.174l-6.681 -6.68c-0.724,0.724 -1.724,1.174 -2.826,1.174l-208.897 0c-1.102,0 -2.102,-0.45 -2.826,-1.174l-6.681 6.68c0.725,0.725 1.724,1.174 2.826,1.174z"/>
    <path class="fil9" d="M291.577 232.372l6.681 6.681c-2.203,0 -4,1.796 -4,3.999l-6.681 -6.68c0,-2.203 1.797,-4 4,-4z"/>
    <path class="fil10" d="M513.836 232.372l-6.681 6.681c2.203,0 4,1.796 4,3.999l6.681 -6.68c0,-2.203 -1.797,-4 -4,-4z"/>
    <path class="fil11" d="M291.577 297.611l6.681 -6.68c-2.203,0 -4,-1.797 -4,-4l-6.681 6.681c0,2.203 1.797,3.999 4,3.999z"/>
    <path class="fil12" d="M513.836 297.611l-6.681 -6.68c2.203,0 4,-1.797 4,-4l6.681 6.681c0,2.203 -1.797,3.999 -4,3.999z"/>
   </g>
   <path class="fil0 str0" d="M566.413 310.292l78.6 0c3.305,0 6,-2.695 6,-6l0 -78.601c0,-3.304 -2.695,-5.999 -6,-5.999l-78.6 0c-3.305,0 -6,2.695 -6,5.999l0 78.601c0,3.305 2.695,6 6,6zm112.002 0l78.6 0c3.305,0 6,-2.695 6,-6l0 -78.601c0,-3.304 -2.696,-5.999 -6,-5.999l-78.6 0c-3.304,0 -6,2.695 -6,5.999l0 78.601c0,3.304 2.695,6 6,6z"/>
   <path class="fil0 str0" d="M566.413 193.289l78.6 0c3.305,0 6,-2.695 6,-5.999l0 -78.601c0,-3.304 -2.696,-6 -6,-6l-78.6 0c-3.305,0 -6,2.696 -6,6l0 78.601c0,3.304 2.695,5.999 6,5.999zm112.002 0l78.6 0c3.305,0 6,-2.695 6,-5.999l0 -78.601c0,-3.304 -2.696,-6 -6,-6l-78.6 0c-3.304,0 -6,2.696 -6,6l0 78.601c0,3.304 2.695,5.999 6,5.999z"/>
  </g>
  <g id="holes">
   <path class="fil13" d="M79.675 194.905c-3.317,0 -6.081,2.764 -6.081,5.803l0 43.981c0,3.039 2.764,5.803 6.081,5.803 13.552,0 27.105,0.001 40.657,0.001 2.474,0.015 4.394,1.944 4.394,4.422l0 40.628c0,3.317 2.764,6.081 6.08,6.081l43.704 0c3.316,0 5.804,-2.764 5.804,-6.08l0 -40.629c0,-2.487 2.211,-4.422 4.422,-4.422l40.905 0c3.317,0 5.804,-2.764 5.804,-6.08l0 -43.429c0,-3.316 -2.487,-6.08 -5.804,-6.08l-40.905 0c-2.211,0 -4.422,-1.935 -4.422,-4.422l0 -40.629c0,-3.316 -2.488,-6.08 -5.804,-6.08l-43.704 0c-3.316,0 -6.08,2.764 -6.08,6.081l0 40.628c0,2.478 -1.92,4.407 -4.394,4.422 -13.552,0 -27.105,0.001 -40.657,0.001z"/>
   <path class="fil13" d="M369.124 250.685c7.901,0 14.306,6.405 14.306,14.307 0,7.901 -6.405,14.306 -14.306,14.306l-43.919 0c-7.902,0 -14.307,-6.405 -14.307,-14.306 0,-7.902 6.405,-14.307 14.307,-14.307l43.919 0z"/>
   <path class="fil13" d="M480.209 250.685c7.901,0 14.306,6.405 14.306,14.307 0,7.901 -6.405,14.306 -14.306,14.306l-43.92 0c-7.901,0 -14.306,-6.405 -14.306,-14.306 0,-7.902 6.405,-14.307 14.306,-14.307l43.92 0z"/>
   <circle class="fil13" cx="605.713" cy="264.992" r="38.619"/>
   <circle class="fil13" cx="717.715" cy="264.992" r="38.619"/>
   <circle class="fil13" cx="605.713" cy="147.989" r="38.619"/>
   <circle class="fil13" cx="717.715" cy="147.989" r="38.619"/>
  </g>
  <g id="dpad">
   <path class="fil14" d="M221.618 198.515l-40.628 0c-2.487,0 -4.422,-1.935 -4.422,-4.422l0 -40.629c0,-3.316 -2.764,-6.08 -5.804,-6.08l-36.483 0c-3.317,0 -6.081,2.764 -6.081,6.08l0 40.629c0,2.487 -1.934,4.422 -4.422,4.422l-40.628 0c-3.317,0 -6.081,2.764 -6.081,6.08l0 36.483c0,3.316 2.764,5.804 6.081,5.804l40.628 0c2.488,0 4.422,2.211 4.422,4.422l0 40.905c0,3.317 2.764,5.804 6.081,5.804l36.483 0c3.04,0 5.804,-2.487 5.804,-5.804l0 -40.905c0,-2.211 1.935,-4.422 4.422,-4.422l40.628 0c3.317,0 6.081,-2.488 6.081,-5.804l0 -36.483c0,-3.316 -2.764,-6.08 -6.081,-6.08z"/>
   <path class="fil15" d="M141.38 256.579l22.279 0c0.57,0 1.032,0.462 1.032,1.032l0 14.932 4.202 0c0.272,0.003 0.544,0.11 0.745,0.322 0.392,0.412 0.376,1.063 -0.036,1.455l-16.373 15.555c-0.394,0.375 -1.019,0.379 -1.419,0l-16.318 -15.504c-0.23,-0.189 -0.377,-0.476 -0.377,-0.797 0,-0.569 0.462,-1.031 1.032,-1.031l4.202 0 0 -14.932c0,-0.57 0.462,-1.032 1.031,-1.032zm22.279 -67.761l-22.279 0c-0.569,0 -1.031,-0.462 -1.031,-1.032l0 -14.932 -4.202 0c-0.57,0 -1.032,-0.462 -1.032,-1.031 0,-0.321 0.147,-0.608 0.377,-0.797l16.318 -15.504c0.4,-0.379 1.025,-0.375 1.419,0l16.373 15.555c0.412,0.391 0.428,1.043 0.036,1.455 -0.201,0.212 -0.473,0.319 -0.745,0.319l-4.202 0.003 0 14.932c0,0.57 -0.462,1.032 -1.032,1.032zm22.741 45.02l0 -22.279c0,-0.569 0.463,-1.032 1.032,-1.032l14.932 0 0 -4.201c0.003,-0.273 0.11,-0.544 0.322,-0.746 0.412,-0.392 1.064,-0.375 1.455,0.036l15.555 16.373c0.376,0.395 0.379,1.02 0,1.419l-15.503 16.319c-0.189,0.23 -0.476,0.376 -0.797,0.376 -0.57,0 -1.032,-0.462 -1.032,-1.032l0 -4.201 -14.932 0c-0.569,0 -1.032,-0.463 -1.032,-1.032zm-15.611 -11.275c0,-10.088 -8.182,-18.269 -18.269,-18.269 -10.088,0 -18.541,8.181 -18.541,18.269 0,10.087 8.453,18.54 18.541,18.54 10.087,0 18.269,-8.453 18.269,-18.54zm-52.15 -11.004l0 22.279c0,0.569 -0.462,1.032 -1.031,1.032l-14.932 0 0 4.201c0,0.57 -0.462,1.032 -1.032,1.032 -0.321,0 -0.608,-0.146 -0.797,-0.376l-15.503 -16.319c-0.38,-0.399 -0.376,-1.024 0,-1.419l15.554 -16.373c0.392,-0.411 1.044,-0.428 1.455,-0.036 0.213,0.202 0.32,0.473 0.32,0.746l0.003 4.201 14.932 0c0.569,0 1.031,0.463 1.031,1.032z"/>
  </g>
 </g>
</svg>
