<?xml version="1.0" encoding="UTF-8"?>
<!DOCTYPE svg PUBLIC "-//W3C//DTD SVG 1.1//EN" "http://www.w3.org/Graphics/SVG/1.1/DTD/svg11.dtd">
<svg xml:space="preserve" viewBox="0 0 472 204" width="472px" height="204px" version="1.1" style="shape-rendering:geometricPrecision; fill-rule:evenodd; clip-rule:evenodd" xmlns="http://www.w3.org/2000/svg">
 <defs>
  <style type="text/css">
    .fil0 {fill:red}
    .fil1 {fill:white}
  </style>
 </defs>
 <g>
  <path class="fil0" d="M9.605 2.84l451.232 0c4.16,0 7.552,3.392 7.552,7.552l0 185.024c0,4.16 -3.392,7.552 -7.552,7.552l-451.232 0c-4.159,0 -7.552,-3.392 -7.552,-7.552l0 -185.024c0,-4.16 3.393,-7.552 7.552,-7.552z"/>
  <path class="fil1" d="M235.221 36.824c36.496,0 66.08,29.584 66.08,66.08 0,36.496 -29.584,66.08 -66.08,66.08 -36.495,0 -66.08,-29.584 -66.08,-66.08 0,-36.496 29.585,-66.08 66.08,-66.08zm8.244 69.405c1.205,1.206 1.205,3.175 0,4.379l-6.171 6.171 2.604 2.602c0.919,0.922 0.919,2.416 0,3.339l-6.119 6.116c-5.401,5.4 -13.48,6.485 -19.959,3.257l-13.446 13.448c9.492,7.768 21.623,12.431 34.847,12.431 30.413,0 55.068,-24.655 55.068,-55.068 0,-13.224 -4.663,-25.356 -12.431,-34.848l-13.436 13.437c3.229,6.476 2.144,14.56 -3.256,19.961l-6.119 6.119c-0.92,0.921 -2.414,0.921 -3.336,0l-21.136 -21.14c-0.924,-0.919 -0.924,-2.415 0,-3.336l6.115 -6.118c5.395,-5.393 13.462,-6.484 19.935,-3.269l13.444 -13.444c-9.492,-7.769 -21.625,-12.43 -34.848,-12.43 -30.413,0 -55.067,24.655 -55.067,55.068 0,13.222 4.661,25.355 12.429,34.848l13.454 -13.452c-3.216,-6.475 -2.126,-14.545 3.267,-19.937l6.119 -6.118c0.922,-0.923 2.416,-0.923 3.335,0l2.59 2.588 6.17 -6.171c1.205,-1.205 3.177,-1.205 4.382,0 1.205,1.207 1.205,3.175 0,4.38l-6.171 6.171 7.184 7.186 6.17 -6.17c1.205,-1.205 3.176,-1.205 4.382,0z"/>
 </g>
</svg>
