<?xml version="1.0" encoding="UTF-8"?>
<!DOCTYPE svg PUBLIC "-//W3C//DTD SVG 1.1//EN" "http://www.w3.org/Graphics/SVG/1.1/DTD/svg11.dtd">
<svg xml:space="preserve" viewBox="0 0 472 204" width="472px" height="204px" version="1.1" style="shape-rendering:geometricPrecision; fill-rule:evenodd; clip-rule:evenodd" xmlns="http://www.w3.org/2000/svg">
 <defs>
  <style type="text/css">
    .fil1 {fill:red}
    .fil0 {fill:url(#id0)}
  </style>
  <linearGradient id="id0" gradientUnits="userSpaceOnUse" x1="248.437" y1="149.16" x2="248.437" y2="137.077">
   <stop offset="0" style="stop-opacity:1; stop-color:#D00000"/>
   <stop offset="0.501961" style="stop-opacity:1; stop-color:red"/>
   <stop offset="1" style="stop-opacity:1; stop-color:red"/>
  </linearGradient>
 </defs>
 <g>
  <path class="fil0" d="M265.618 143.118c0,3.323 -2.719,6.042 -6.041,6.042l-22.279 0c-3.322,0 -6.041,-2.719 -6.041,-6.042 0,-3.323 2.718,-6.041 6.041,-6.041l22.279 0c3.322,0 6.041,2.718 6.041,6.041z"/>
  <path class="fil1" d="M237.298 138.21l22.279 0c2.71,0 4.908,2.198 4.908,4.908 0,2.711 -2.198,4.909 -4.908,4.909l-22.279 0c-2.711,0 -4.909,-2.198 -4.909,-4.909 0,-2.711 2.198,-4.908 4.909,-4.908z"/>
 </g>
</svg>
