<?xml version="1.0" encoding="UTF-8"?>
<!DOCTYPE svg PUBLIC "-//W3C//DTD SVG 1.1//EN" "http://www.w3.org/Graphics/SVG/1.1/DTD/svg11.dtd">
<svg xml:space="preserve" viewBox="0 0 472 204" width="472px" height="204px" version="1.1" style="shape-rendering:geometricPrecision; fill-rule:evenodd; clip-rule:evenodd" xmlns="http://www.w3.org/2000/svg">
 <defs>
  <style type="text/css">
    .fil0 {fill:red}
    .fil1 {fill:black;fill-opacity:0.2}
  </style>
 </defs>
 <g>
  <path class="fil0" d="M83.426 123.106l-14.336 -14.337c-0.342,0.342 -0.814,0.554 -1.334,0.554l-21.712 0c-1.04,0 -1.888,0.848 -1.888,1.888l0 23.789c0,1.04 0.848,1.888 1.888,1.888l21.712 0c0.52,0 0.992,0.212 1.334,0.554l14.336 -14.336z"/>
  <path class="fil1" d="M76.62 116.299l6.806 6.807 -6.77 6.77c-1.78,-1.762 -2.898,-4.194 -2.898,-6.841 0,-2.63 1.102,-5.012 2.862,-6.736zm-10.86 0.998l0 11.617c0,0.297 -0.241,0.538 -0.538,0.538l-7.786 0 0 2.191c0,0.297 -0.241,0.538 -0.538,0.538 -0.167,0 -0.317,-0.077 -0.415,-0.197l-8.084 -8.508c-0.198,-0.209 -0.196,-0.535 0,-0.741l8.111 -8.537c0.204,-0.214 0.544,-0.222 0.758,-0.019 0.111,0.106 0.167,0.247 0.167,0.389l0.001 2.191 7.786 0c0.297,0 0.538,0.241 0.538,0.538z"/>
 </g>
</svg>
