<?xml version="1.0" encoding="UTF-8"?>
<!DOCTYPE svg PUBLIC "-//W3C//DTD SVG 1.1//EN" "http://www.w3.org/Graphics/SVG/1.1/DTD/svg11.dtd">
<!-- Creator: CorelDRAW -->
<svg xmlns="http://www.w3.org/2000/svg" xml:space="preserve" width="862px" height="376px" version="1.1" style="shape-rendering:geometricPrecision; text-rendering:geometricPrecision; image-rendering:optimizeQuality; fill-rule:evenodd; clip-rule:evenodd"
viewBox="0 0 862 376"
 xmlns:xlink="http://www.w3.org/1999/xlink"
 xmlns:xodm="http://www.corel.com/coreldraw/odm/2003">
 <defs>
  <style type="text/css">
   <![CDATA[
    .fil1 {fill:#E00000}
    .fil0 {fill:red}
   ]]>
  </style>
 </defs>
 <g id="Слой_x0020_1">
  <metadata id="CorelCorpID_0Corel-Layer"/>
  <path class="fil0" d="M178 197.218c-0.795,-0.796 -1.279,-1.902 -1.279,-3.147l0 -40.658c0,-3.319 -2.766,-6.085 -5.808,-6.085l-36.51 0c-3.318,0 -6.085,2.766 -6.085,6.085l0 40.658c0,1.245 -0.483,2.351 -1.279,3.147l25.481 25.48 25.48 -25.48z"/>
  <path class="fil1" d="M165.583 209.635c-3.309,-3.309 -7.88,-5.355 -12.927,-5.355 -5.082,0 -9.749,2.075 -13.131,5.424l12.995 12.994 13.063 -13.063z"/>
  <path class="fil1" d="M163.803 188.793l-22.295 0c-0.57,0 -1.032,-0.463 -1.032,-1.033l0 -14.943 -4.205 0c-0.57,0 -1.033,-0.462 -1.033,-1.032 0,-0.321 0.147,-0.609 0.377,-0.798l16.331 -15.514c0.399,-0.38 1.025,-0.377 1.419,0l16.386 15.566c0.411,0.391 0.428,1.044 0.036,1.456 -0.202,0.212 -0.474,0.319 -0.746,0.319l-4.205 0.003 0 14.943c0,0.57 -0.463,1.033 -1.033,1.033z"/>
 </g>
</svg>
