<?xml version="1.0" encoding="UTF-8"?>
<!DOCTYPE svg PUBLIC "-//W3C//DTD SVG 1.1//EN" "http://www.w3.org/Graphics/SVG/1.1/DTD/svg11.dtd">
<svg xml:space="preserve" viewBox="0 0 472 204" width="472px" height="204px" version="1.1" style="shape-rendering:geometricPrecision; fill-rule:evenodd; clip-rule:evenodd" xmlns="http://www.w3.org/2000/svg">
 <defs>
  <style type="text/css">
    .fil0 {fill:red}
    .fil1 {fill:black;fill-opacity:0.2}
  </style>
 </defs>
 <g>
  <path class="fil0" d="M97.763 108.769c-0.343,-0.342 -0.554,-0.814 -0.554,-1.334l0 -21.712c0,-1.04 -0.849,-1.888 -1.888,-1.888l-23.789 0c-1.04,0 -1.888,0.848 -1.888,1.888l0 21.712c0,0.52 -0.212,0.992 -0.554,1.334l14.336 14.337 14.337 -14.337z"/>
  <path class="fil1" d="M89.234 105.44l-11.616 0c-0.297,0 -0.539,-0.241 -0.539,-0.538l0 -7.786 -2.19 0c-0.298,0 -0.538,-0.241 -0.538,-0.538 0,-0.167 0.076,-0.317 0.196,-0.416l8.509 -8.083c0.208,-0.198 0.534,-0.196 0.74,0l8.537 8.11c0.214,0.204 0.223,0.544 0.019,0.759 -0.105,0.111 -0.247,0.167 -0.389,0.167l-2.191 0.001 0 7.786c0,0.297 -0.241,0.538 -0.538,0.538zm-5.808 8.226c2.607,0 4.967,1.056 6.675,2.765l-6.675 6.675 -6.675 -6.675c1.709,-1.709 4.069,-2.765 6.675,-2.765z"/>
 </g>
</svg>
