<?xml version="1.0" encoding="UTF-8"?>
<!DOCTYPE svg PUBLIC "-//W3C//DTD SVG 1.1//EN" "http://www.w3.org/Graphics/SVG/1.1/DTD/svg11.dtd">
<svg xml:space="preserve" viewBox="0 0 472 204" width="472px" height="204px" version="1.1" style="shape-rendering:geometricPrecision; fill-rule:evenodd; clip-rule:evenodd" xmlns="http://www.w3.org/2000/svg">
 <defs>
  <style type="text/css">
    .fil0 {fill:red}
    .fil1 {fill:black;fill-opacity:0.2}
  </style>
 </defs>
 <g>
  <path class="fil0" d="M97.763 137.442c0.342,-0.342 0.814,-0.554 1.334,-0.554l21.712 0c1.039,0 1.888,-0.848 1.888,-1.888l0 -23.789c0,-1.04 -0.849,-1.888 -1.888,-1.888l-21.712 0c-0.52,0 -0.992,-0.212 -1.334,-0.554l-14.337 14.337 14.337 14.336z"/>
  <path class="fil1" d="M101.092 128.914l0 -11.617c0,-0.297 0.241,-0.538 0.538,-0.538l7.786 0 0 -2.191c0.001,-0.142 0.057,-0.283 0.168,-0.389 0.214,-0.203 0.554,-0.195 0.758,0.019l8.111 8.537c0.196,0.206 0.198,0.532 0,0.741l-8.084 8.508c-0.098,0.12 -0.248,0.197 -0.416,0.197 -0.296,0 -0.537,-0.241 -0.537,-0.538l0 -2.191 -7.786 0c-0.297,0 -0.538,-0.241 -0.538,-0.538zm-10.991 -12.483c1.709,1.708 2.765,4.068 2.765,6.675 0,2.606 -1.056,4.966 -2.765,6.674l-6.675 -6.674 6.675 -6.675z"/>
 </g>
</svg>
