<?xml version="1.0" encoding="UTF-8"?>
<!DOCTYPE svg PUBLIC "-//W3C//DTD SVG 1.1//EN" "http://www.w3.org/Graphics/SVG/1.1/DTD/svg11.dtd">
<svg xml:space="preserve" viewBox="0 0 472 204" width="472px" height="204px" version="1.1" style="shape-rendering:geometricPrecision; fill-rule:evenodd; clip-rule:evenodd" xmlns="http://www.w3.org/2000/svg">
 <defs>
  <style type="text/css">
    .fil0 {fill:red}
    .fil1 {fill:black;fill-opacity:0.2}
  </style>
 </defs>
 <g>
  <path class="fil0" d="M97.209 160.488l0 -21.712c0,-0.52 0.212,-0.992 0.554,-1.334l-14.337 -14.336 -14.336 14.336c0.342,0.342 0.554,0.814 0.554,1.334l0 21.712c0,1.04 0.848,1.888 1.888,1.888l23.789 0c1.039,0 1.888,-0.848 1.888,-1.888z"/>
  <path class="fil1" d="M77.618 140.772l11.616 0c0.297,0 0.538,0.24 0.538,0.537l0 7.786 2.191 0c0.142,0.001 0.284,0.057 0.389,0.168 0.204,0.215 0.195,0.555 -0.019,0.759l-8.537 8.11c-0.206,0.196 -0.532,0.198 -0.74,0l-8.509 -8.083c-0.12,-0.099 -0.196,-0.249 -0.196,-0.416 0,-0.297 0.24,-0.538 0.538,-0.538l2.19 0 0 -7.786c0,-0.297 0.242,-0.537 0.539,-0.537zm5.808 -17.666l-6.77 6.77c1.756,1.739 4.158,2.826 6.77,2.826 2.63,0 5.011,-1.102 6.735,-2.861l-6.735 -6.735z"/>
 </g>
</svg>
