<?xml version="1.0" encoding="UTF-8"?>
<!DOCTYPE svg PUBLIC "-//W3C//DTD SVG 1.1//EN" "http://www.w3.org/Graphics/SVG/1.1/DTD/svg11.dtd">
<!-- Creator: CorelDRAW -->
<svg xmlns="http://www.w3.org/2000/svg" xml:space="preserve" width="862px" height="376px" version="1.1" style="shape-rendering:geometricPrecision; text-rendering:geometricPrecision; image-rendering:optimizeQuality; fill-rule:evenodd; clip-rule:evenodd"
viewBox="0 0 862 376"
 xmlns:xlink="http://www.w3.org/1999/xlink"
 xmlns:xodm="http://www.corel.com/coreldraw/odm/2003">
 <defs>
  <style type="text/css">
   <![CDATA[
    .fil1 {fill:#E00000}
    .fil0 {fill:red}
   ]]>
  </style>
 </defs>
 <g id="Слой_x0020_1">
  <metadata id="CorelCorpID_0Corel-Layer"/>
  <path class="fil0" d="M221.805 198.497l-40.658 0c-1.245,0 -2.352,-0.484 -3.147,-1.279l-25.48 25.48 25.532 25.532c0.791,-0.801 1.876,-1.33 3.095,-1.33l40.658 0c3.319,0 6.085,-2.49 6.085,-5.809l0 -36.509c0,-3.319 -2.766,-6.085 -6.085,-6.085z"/>
  <path class="fil1" d="M170.938 222.562c0,-5.047 -2.047,-9.618 -5.355,-12.927l-13.063 13.063 12.994 12.995c3.349,-3.382 5.424,-8.049 5.424,-13.131z"/>
  <path class="fil1" d="M186.561 233.846l0 -22.296c0,-0.57 0.463,-1.032 1.032,-1.032l14.944 0 0 -4.205c0.003,-0.272 0.11,-0.544 0.322,-0.746 0.412,-0.392 1.064,-0.376 1.456,0.036l15.566 16.385c0.376,0.395 0.38,1.021 0,1.42l-15.514 16.331c-0.19,0.23 -0.477,0.377 -0.798,0.377 -0.57,0 -1.032,-0.463 -1.032,-1.033l0 -4.205 -14.944 0c-0.569,0 -1.032,-0.462 -1.032,-1.032z"/>
 </g>
</svg>
