<?xml version="1.0" encoding="UTF-8"?>
<!DOCTYPE svg PUBLIC "-//W3C//DTD SVG 1.1//EN" "http://www.w3.org/Graphics/SVG/1.1/DTD/svg11.dtd">
<svg xml:space="preserve" viewBox="0 0 472 204" width="472px" height="204px" version="1.1" style="shape-rendering:geometricPrecision; fill-rule:evenodd; clip-rule:evenodd" xmlns="http://www.w3.org/2000/svg" xmlns:xlink="http://www.w3.org/1999/xlink">
 <defs>
  <style type="text/css">
    .str0 {stroke:#1A1A1A;stroke-width:0.5}
    .fil11 {fill:none}
    .fil12 {fill:#080808}
    .fil13 {fill:#202020}
    .fil9 {fill:#333333}
    .fil15 {fill:#4D4D4D}
    .fil3 {fill:#999999}
    .fil1 {fill:#B3B3B3}
    .fil2 {fill:#CCCCCC}
    .fil16 {fill:#D41216}
    .fil0 {fill:gainsboro}
    .fil10 {fill:#E01218}
    .fil4 {fill:#F0F0F0}
    .fil17 {fill:black;fill-opacity:0.1}
    .fil14 {fill:black;fill-opacity:0.5}
    .fil6 {fill:url(#id0)}
    .fil7 {fill:url(#id1)}
    .fil5 {fill:url(#id2)}
    .fil8 {fill:url(#id3)}
  </style>
  <linearGradient id="id0" gradientUnits="userSpaceOnUse" x1="277.194" y1="128.075" x2="275.753" y2="126.633">
   <stop offset="0" style="stop-opacity:1; stop-color:#CCCCCC"/>
   <stop offset="1" style="stop-opacity:1; stop-color:#999999"/>
  </linearGradient>
  <linearGradient id="id1" gradientUnits="userSpaceOnUse" x1="161.53" y1="158.162" x2="162.971" y2="159.604">
   <stop offset="0" style="stop-opacity:1; stop-color:#CCCCCC"/>
   <stop offset="1" style="stop-opacity:1; stop-color:#F0F0F0"/>
  </linearGradient>
  <linearGradient id="id2" gradientUnits="userSpaceOnUse" xlink:href="#id0" x1="161.529" y1="128.075" x2="162.971" y2="126.633">
  </linearGradient>
  <linearGradient id="id3" gradientUnits="userSpaceOnUse" xlink:href="#id1" x1="277.194" y1="158.162" x2="275.752" y2="159.604">
  </linearGradient>
 </defs>
 <g>
  <g id="shell">
   <path class="fil0" d="M9.605 2.84l451.232 0c4.16,0 7.552,3.392 7.552,7.552l0 185.024c0,4.16 -3.392,7.552 -7.552,7.552l-451.232 0c-4.159,0 -7.552,-3.392 -7.552,-7.552l0 -185.024c0,-4.16 3.393,-7.552 7.552,-7.552z"/>
   <polygon class="fil1" points="125.503,6.718 140.934,6.718 140.934,2.84 142.023,2.84 142.023,7.807 124.414,7.807 124.414,2.84 125.503,2.84 "/>
   <g id="border">
    <path class="fil2" d="M159.702 159.544l-0.001 -32.85c0,-0.52 0.213,-0.992 0.555,-1.334l3.209 3.208c-0.343,0.342 -0.556,0.817 -0.555,1.334l0.032 26.779c0.001,0.517 0.213,0.992 0.555,1.334l-3.241 2.863c-0.342,-0.342 -0.554,-0.814 -0.554,-1.334z"/>
    <path class="fil2" d="M279.022 159.544l0.001 -32.85c0,-0.52 -0.212,-0.992 -0.554,-1.334l-3.211 3.208c0.342,0.342 0.555,0.817 0.555,1.334l0 26.432c0,0.517 -0.213,0.993 -0.555,1.335l3.21 3.209c0.342,-0.342 0.554,-0.814 0.554,-1.334z"/>
    <path class="fil3" d="M161.59 124.805l115.545 0c0.52,0 0.992,0.212 1.334,0.554l-3.211 3.209c-0.342,-0.342 -0.816,-0.554 -1.334,-0.554l-109.125 0c-0.518,0 -0.992,0.212 -1.334,0.554l-3.209 -3.209c0.342,-0.342 0.814,-0.554 1.334,-0.554z"/>
    <path class="fil4" d="M161.591 161.432l115.543 0c0.52,0 0.992,-0.212 1.334,-0.554l-3.21 -3.209c-0.342,0.342 -0.815,0.554 -1.334,0.554l-109.125 0c-0.518,0 -0.992,-0.212 -1.334,-0.554l-3.209 3.209c0.343,0.342 0.815,0.554 1.335,0.554z"/>
    <path class="fil5" d="M161.59 124.805l3.209 3.209c-1.04,0 -1.889,0.848 -1.889,1.888l-3.209 -3.208c0,-1.04 0.848,-1.889 1.889,-1.889z"/>
    <path class="fil6" d="M277.135 124.805l-3.211 3.209c1.04,0 1.889,0.848 1.889,1.888l3.21 -3.208c0,-1.04 -0.848,-1.889 -1.888,-1.889z"/>
    <path class="fil7" d="M161.591 161.432l3.208 -3.209c-1.04,0 -1.889,-0.848 -1.889,-1.889l-3.208 3.21c0,1.04 0.848,1.888 1.889,1.888z"/>
    <path class="fil8" d="M277.134 161.432l-3.21 -3.209c1.04,0 1.889,-0.848 1.889,-1.889l3.209 3.21c0,1.04 -0.848,1.888 -1.888,1.888z"/>
   </g>
  </g>
  <g id="shield">
   <path class="fil9" d="M19.045 189.752l432.352 0c2.08,0 3.776,-1.696 3.776,-3.776l0 -145.376c0,-2.08 -1.696,-3.776 -3.776,-3.776l-432.352 0c-2.079,0 -3.776,1.696 -3.776,3.776l0 145.376c0,2.08 1.697,3.776 3.776,3.776zm24.922 -47.011l19.824 0 0 19.824c0,3.119 2.544,5.664 5.664,5.664l27.942 0c3.12,0 5.664,-2.545 5.664,-5.664l0 -19.824 19.824 0c3.12,0 5.664,-2.545 5.664,-5.664l0 -27.943c0,-3.119 -2.544,-5.664 -5.664,-5.664l-19.824 0 0 -19.824c0,-3.119 -2.544,-5.664 -5.664,-5.664l-27.942 0c-3.12,0 -5.664,2.545 -5.664,5.664l0 19.824 -19.824 0c-3.12,0 -5.664,2.545 -5.664,5.664l0 27.943c0,3.119 2.544,5.664 5.664,5.664zm115.168 -22.279l120.454 0c2.08,0 3.776,1.697 3.776,3.776l0 37.76c0,2.08 -1.696,3.776 -3.776,3.776l-120.454 0c-2.08,0 -3.776,-1.696 -3.776,-3.776l0 -37.76c0,-2.079 1.696,-3.776 3.776,-3.776zm210.701 47.767l42.291 0c2.08,0 3.776,-1.696 3.776,-3.776l0 -42.669c0,-2.08 -1.696,-3.776 -3.776,-3.776l-42.291 0c-2.08,0 -3.776,1.696 -3.776,3.776l0 42.669c0,2.08 1.696,3.776 3.776,3.776zm-60.416 0l42.291 0c2.08,0 3.776,-1.696 3.776,-3.776l0 -42.669c0,-2.08 -1.696,-3.776 -3.776,-3.776l-42.291 0c-2.08,0 -3.776,1.696 -3.776,3.776l0 42.669c0,2.08 1.696,3.776 3.776,3.776z"/>
   <path class="fil3" d="M283.365 189.752l0 -12.919c0,-2.957 -2.414,-5.371 -5.371,-5.371l-117.263 0c-2.958,0 -5.372,2.414 -5.372,5.371l0 12.919 128.006 0zm-122.634 -97.325l117.263 0c2.958,0 5.371,2.414 5.371,5.372l0 11.604c0,2.958 -2.413,5.372 -5.371,5.372l-117.263 0c-2.958,0 -5.372,-2.413 -5.372,-5.372l0 -11.604c0,-2.959 2.413,-5.372 5.372,-5.372zm0 -28.412l117.263 0c2.958,0 5.371,2.413 5.371,5.371l0 11.604c0,2.958 -2.413,5.372 -5.371,5.372l-117.263 0c-2.958,0 -5.372,-2.413 -5.372,-5.372l0 -11.604c0,-2.959 2.413,-5.371 5.372,-5.371zm122.634 -27.191l0 15.753c0,2.958 -2.414,5.372 -5.371,5.372l-117.263 0c-2.958,0 -5.372,-2.413 -5.372,-5.372l0 -15.753 128.006 0z"/>
   <path id="label-select" class="fil10" d="M162.972 106.587l0 -1.516 5.627 0c0.195,0 0.328,-0.041 0.397,-0.125 0.071,-0.085 0.106,-0.21 0.106,-0.377l0 -0.169c0,-0.166 -0.035,-0.292 -0.106,-0.376 -0.069,-0.084 -0.202,-0.125 -0.397,-0.125l-3.445 0c-0.841,0 -1.443,-0.183 -1.807,-0.549 -0.364,-0.365 -0.547,-0.799 -0.547,-1.303l0 -0.335c0,-0.559 0.183,-1.007 0.547,-1.343 0.364,-0.335 0.966,-0.503 1.807,-0.503l5.712 0 0 1.511 -5.624 0c-0.155,0 -0.262,0.032 -0.325,0.098 -0.063,0.067 -0.095,0.145 -0.095,0.237l0 0.335c0,0.099 0.032,0.178 0.095,0.24 0.063,0.063 0.17,0.095 0.325,0.095l3.362 0c0.839,0 1.47,0.198 1.889,0.59 0.422,0.393 0.631,0.871 0.631,1.432l0 0.253c0,0.615 -0.209,1.091 -0.631,1.426 -0.421,0.336 -1.054,0.504 -1.896,0.504l-5.625 0zm10.664 0c-0.449,0 -0.839,-0.168 -1.175,-0.504 -0.335,-0.336 -0.503,-0.729 -0.503,-1.177l0 -5.04 7.221 0 0 1.516 -4.787 0c-0.099,0 -0.179,0.033 -0.242,0.099 -0.063,0.066 -0.095,0.145 -0.095,0.237l0 0.501c0,0.099 0.032,0.177 0.095,0.24 0.063,0.063 0.143,0.095 0.242,0.095l4.452 0 0 1.194 -4.452 0c-0.099,0 -0.179,0.034 -0.242,0.101 -0.063,0.066 -0.095,0.145 -0.095,0.238l0 0.484c0,0.098 0.032,0.181 0.095,0.244 0.063,0.062 0.143,0.095 0.242,0.095l4.787 0 0 1.677 -5.543 0zm7.646 0c-0.393,0 -0.714,-0.125 -0.966,-0.378 -0.253,-0.253 -0.379,-0.574 -0.379,-0.966l0 -5.377 2.108 0 0 4.87c0,0.111 0.029,0.195 0.085,0.25 0.055,0.056 0.139,0.085 0.25,0.085l4.279 0 0 1.516 -5.377 0zm7.813 0c-0.448,0 -0.839,-0.168 -1.174,-0.504 -0.336,-0.336 -0.504,-0.729 -0.504,-1.177l0 -5.04 7.221 0 0 1.516 -4.787 0c-0.099,0 -0.179,0.033 -0.242,0.099 -0.063,0.066 -0.095,0.145 -0.095,0.237l0 0.501c0,0.099 0.032,0.177 0.095,0.24 0.063,0.063 0.143,0.095 0.242,0.095l4.452 0 0 1.194 -4.452 0c-0.099,0 -0.179,0.034 -0.242,0.101 -0.063,0.066 -0.095,0.145 -0.095,0.238l0 0.484c0,0.098 0.032,0.181 0.095,0.244 0.063,0.062 0.143,0.095 0.242,0.095l4.787 0 0 1.677 -5.543 0zm8.488 0c-0.503,0 -0.98,-0.168 -1.428,-0.504 -0.448,-0.336 -0.672,-1.009 -0.672,-2.016l0 -1.681c0,-1.007 0.224,-1.679 0.672,-2.017 0.448,-0.335 0.925,-0.503 1.428,-0.503l5.46 0 0 1.516 -4.623 0c-0.279,0 -0.491,0.084 -0.63,0.251 -0.14,0.169 -0.21,0.364 -0.21,0.588l0 2.011c0,0.224 0.07,0.419 0.21,0.588 0.139,0.166 0.351,0.251 0.63,0.251l4.623 0 0 1.516 -5.46 0zm9.324 0l0 -4.869c0,-0.09 -0.034,-0.169 -0.1,-0.235 -0.066,-0.066 -0.145,-0.101 -0.235,-0.101l-2.687 0 0 -1.516 8.059 0 0 1.516 -2.688 0c-0.099,0 -0.18,0.035 -0.242,0.101 -0.063,0.066 -0.095,0.145 -0.095,0.235l0 4.869 -2.012 0z"/>
   <path id="label-start" class="fil10" d="M231.385 106.587l0 -1.516 5.627 0c0.195,0 0.327,-0.041 0.397,-0.125 0.07,-0.085 0.106,-0.21 0.106,-0.377l0 -0.169c0,-0.166 -0.036,-0.292 -0.106,-0.376 -0.07,-0.084 -0.202,-0.125 -0.397,-0.125l-3.446 0c-0.84,0 -1.442,-0.183 -1.806,-0.549 -0.364,-0.365 -0.547,-0.799 -0.547,-1.303l0 -0.335c0,-0.559 0.183,-1.007 0.547,-1.343 0.364,-0.335 0.966,-0.503 1.806,-0.503l5.713 0 0 1.511 -5.625 0c-0.154,0 -0.261,0.032 -0.324,0.098 -0.063,0.067 -0.095,0.145 -0.095,0.237l0 0.335c0,0.099 0.032,0.178 0.095,0.24 0.063,0.063 0.17,0.095 0.324,0.095l3.363 0c0.839,0 1.469,0.198 1.889,0.59 0.421,0.393 0.631,0.871 0.631,1.432l0 0.253c0,0.615 -0.21,1.091 -0.631,1.426 -0.421,0.336 -1.054,0.504 -1.896,0.504l-5.625 0zm39.23 0l0 -4.869c0,-0.09 -0.034,-0.169 -0.1,-0.235 -0.067,-0.066 -0.145,-0.101 -0.235,-0.101l-2.687 0 0 -1.516 8.059 0 0 1.516 -2.689 0c-0.098,0 -0.179,0.035 -0.242,0.101 -0.062,0.066 -0.095,0.145 -0.095,0.235l0 4.869 -2.011 0zm-27.222 0l0 -4.869c0,-0.09 -0.035,-0.169 -0.101,-0.235 -0.066,-0.066 -0.145,-0.101 -0.235,-0.101l-2.686 0 0 -1.516 8.058 0 0 1.516 -2.688 0c-0.099,0 -0.18,0.035 -0.242,0.101 -0.063,0.066 -0.095,0.145 -0.095,0.235l0 4.869 -2.011 0zm11.849 -3.355c0.091,0 0.17,-0.032 0.236,-0.095 0.067,-0.063 0.101,-0.144 0.101,-0.242l0 -0.672c0,-0.253 -0.099,-0.455 -0.294,-0.61 -0.197,-0.154 -0.407,-0.231 -0.631,-0.231l-2.355 0c-0.224,0 -0.434,0.077 -0.631,0.231 -0.195,0.155 -0.294,0.357 -0.294,0.61l0 0.672c0,0.098 0.032,0.179 0.095,0.242 0.063,0.063 0.143,0.095 0.242,0.095l3.531 0zm-5.965 3.355l0 -4.201c0,-1.12 0.28,-1.819 0.84,-2.101 0.56,-0.279 1.232,-0.419 2.015,-0.419l2.689 0c0.783,0 1.455,0.14 2.014,0.419 0.561,0.282 0.841,0.981 0.841,2.101l0 4.201 -2.097 0 0 -1.342c0,-0.09 -0.034,-0.169 -0.101,-0.235 -0.066,-0.066 -0.145,-0.1 -0.236,-0.1l-3.531 0c-0.099,0 -0.179,0.034 -0.242,0.1 -0.063,0.066 -0.095,0.145 -0.095,0.235l0 1.342 -2.097 0zm9.242 0l0 -6.721 5.715 0c0.786,0 1.402,0.181 1.85,0.545 0.448,0.364 0.672,0.855 0.672,1.47l0 0.419c0,0.783 -0.365,1.315 -1.095,1.595 0.73,0.28 1.095,0.841 1.095,1.683l0 1.009 -2.102 0 0 -0.84c0,-0.337 -0.07,-0.588 -0.212,-0.757 -0.139,-0.168 -0.321,-0.252 -0.546,-0.252l-2.943 0c-0.099,0 -0.18,0.034 -0.242,0.1 -0.063,0.066 -0.096,0.145 -0.096,0.236l0 1.513 -2.096 0zm5.459 -3.366c0.195,0 0.371,-0.055 0.525,-0.166 0.155,-0.111 0.231,-0.336 0.231,-0.669l0 -0.335c0,-0.222 -0.076,-0.391 -0.231,-0.502 -0.154,-0.111 -0.33,-0.167 -0.525,-0.167l-3.025 0c-0.099,0 -0.18,0.033 -0.242,0.099 -0.063,0.066 -0.096,0.145 -0.096,0.237l0 1.168c0,0.099 0.033,0.179 0.096,0.242 0.062,0.063 0.143,0.093 0.242,0.093l3.025 0z"/>
   <path id="label-nintendo" class="fil10" d="M360.891 75.23c-0.006,-0.726 0.01,-1.211 0.248,-1.624 0.292,-0.51 0.829,-0.752 1.317,-0.755l-0.002 0c0.488,0.003 1.025,0.245 1.317,0.755 0.238,0.415 0.248,0.9 0.243,1.625l-3.123 -0.001zm3.11 2.495c0,0 0.002,0.038 0.002,0.502 0,1.514 -0.996,1.85 -1.549,1.85 -0.553,0 -1.566,-0.336 -1.566,-1.85 0,-0.453 0.003,-1.709 0.003,-1.709 0,0 7.051,0.003 7.051,-0.002 0,-2.566 -2.479,-4.693 -5.523,-4.693 -3.045,0 -5.512,2.081 -5.512,4.648 0,2.567 2.467,4.647 5.512,4.647 2.525,0 4.659,-1.442 5.31,-3.395l-3.728 0.002zm11.777 -5.764c1.399,-0.04 4.239,0.877 4.219,4.154 -0.003,0.581 -0.002,4.504 -0.002,4.504l-3.718 0c0,0 0,-4.919 0,-5.437 0,-0.721 -0.69,-1.523 -1.711,-1.523 -1.019,0 -1.777,0.802 -1.777,1.523 0,0.354 0.005,5.437 0.005,5.437l-3.716 0 0.003 -8.277 3.714 -0.003c0,0 -0.004,0.666 0,0.871 0.715,-0.683 1.747,-1.213 2.983,-1.249zm-30.419 0c1.4,-0.04 4.239,0.877 4.219,4.154 -0.003,0.581 -0.002,4.504 -0.002,4.504l-3.718 0c0,0 0,-4.919 0,-5.437 0,-0.721 -0.69,-1.523 -1.71,-1.523 -1.019,0 -1.778,0.802 -1.778,1.523 0,0.354 0.004,5.437 0.004,5.437l-3.715 0 -0.002 -8.277 3.719 -0.003c0,0 -0.005,0.666 0,0.871 0.715,-0.683 1.746,-1.213 2.983,-1.249l0 0zm42.705 -3.787l3.694 0 0 12.447 -3.7 0c0,0 -0.001,-0.401 -0.001,-0.478 -1.432,0.899 -3.049,0.898 -4.307,0.31 -0.338,-0.157 -2.56,-1.223 -2.56,-4.103 0,-2.185 2.061,-4.571 4.759,-4.335 0.888,0.079 1.519,0.402 2.118,0.739 -0.003,-1.916 -0.003,-4.58 -0.003,-4.58l0 0zm0.027 8.267c0,0 0,-1.038 0,-1.479 0,-1.28 -0.883,-1.607 -1.465,-1.607 -0.596,0 -1.468,0.327 -1.468,1.607 0,0.424 0.002,1.475 0.002,1.475 0,0 -0.002,1.032 -0.002,1.472 0,1.279 0.872,1.614 1.467,1.614 0.583,0 1.468,-0.335 1.468,-1.614 0,-0.532 -0.002,-1.468 -0.002,-1.468l0 0zm11.86 -0.024c0,0 -0.001,1.251 -0.001,1.753 0,1.32 -0.78,1.864 -1.53,1.864 -0.751,0 -1.533,-0.544 -1.533,-1.864 0,-0.502 0.002,-1.785 0.002,-1.785 0,0 0.002,-1.224 0.002,-1.726 0,-1.314 0.784,-1.854 1.529,-1.854 0.747,0 1.53,0.54 1.53,1.854 0,0.502 -0.002,1.43 0.003,1.762l-0.002 -0.004zm-1.503 -4.638c-3.022,0 -5.471,2.081 -5.471,4.648 0,2.567 2.45,4.648 5.471,4.648 3.021,0 5.47,-2.081 5.47,-4.648 0,-2.567 -2.449,-4.648 -5.47,-4.648zm-65.603 -1.064l0 -2.543 3.751 0 0 2.543 -3.751 0zm0.008 9.906l0 -8.278 3.743 0.002 0 8.277 -3.743 -0.001zm18.779 0l0.002 -8.26 -2.036 0 0 -1.229 2.037 -0.002 -0.003 -1.676 3.746 0 0 1.675 2.026 0 0 1.231 -2.026 0.001 0.003 8.26 -3.749 0zm-34.011 0l0.002 -12.447 3.878 0 5.365 8.68 -0.003 -8.68 3.848 0 0 12.447 -3.842 0 -5.394 -8.68 0 8.68 -3.854 0zm89.604 -12.383c1.086,0 1.626,0.369 1.626,1.097 0,0.501 -0.312,0.88 -0.832,1.01l0.852 1.7 -1.031 0 -0.728 -1.559 -0.453 0 0 1.559 -0.928 0 0 -3.807 1.494 0zm-0.085 -1.488c-1.897,0 -3.437,1.54 -3.437,3.437 0,1.896 1.54,3.436 3.437,3.436 1.897,0 3.436,-1.54 3.436,-3.436 0,-1.897 -1.539,-3.437 -3.436,-3.437zm2.779 3.439c0,1.534 -1.245,2.78 -2.779,2.78 -1.534,0 -2.779,-1.246 -2.779,-2.78 0,-1.534 1.245,-2.779 2.779,-2.779 1.534,0 2.779,1.243 2.779,2.779zm-3.26 -0.261l0.453 0c0.529,0 0.785,-0.161 0.785,-0.539 0,-0.396 -0.274,-0.568 -0.831,-0.568l-0.407 0 0 1.107z"/>
   <path id="label-b" class="fil10" d="M352.502 181.542c0.116,0 0.216,-0.041 0.299,-0.12 0.084,-0.08 0.127,-0.182 0.127,-0.307l0 -0.85c-0.009,-0.104 -0.054,-0.202 -0.133,-0.29 -0.08,-0.089 -0.177,-0.134 -0.293,-0.134l-4.795 0c-0.124,0 -0.226,0.043 -0.306,0.127 -0.079,0.084 -0.12,0.183 -0.12,0.297l0 0.85c0,0.125 0.041,0.227 0.12,0.307 0.08,0.079 0.182,0.12 0.306,0.12l4.795 0zm-0.217 -3.402c0.115,0 0.213,-0.041 0.292,-0.12 0.088,-0.08 0.134,-0.182 0.134,-0.307l0 -0.85c0,-0.114 -0.044,-0.213 -0.127,-0.297 -0.084,-0.084 -0.184,-0.127 -0.299,-0.127l-4.578 0c-0.124,0 -0.226,0.043 -0.306,0.127 -0.079,0.084 -0.12,0.183 -0.12,0.297l0 0.85c0,0.125 0.041,0.227 0.12,0.307 0.08,0.079 0.182,0.12 0.306,0.12l4.578 0zm-7.658 5.103l0 -8.505 8.726 0c0.496,0 0.941,0.177 1.331,0.531 0.39,0.355 0.585,0.886 0.585,1.594l0 0.32c0,0.637 -0.172,1.097 -0.519,1.381 -0.347,0.284 -0.599,0.426 -0.76,0.426 0.429,0 0.785,0.177 1.068,0.531 0.286,0.356 0.429,0.78 0.429,1.277l0 0.317c0,0.711 -0.143,1.241 -0.427,1.597 -0.283,0.354 -0.744,0.531 -1.383,0.531l-9.05 0z"/>
   <path id="label-a" class="fil10" d="M412.823 178.997c0.115,0 0.216,-0.041 0.299,-0.12 0.084,-0.079 0.128,-0.182 0.128,-0.306l0 -0.851c0,-0.319 -0.125,-0.576 -0.373,-0.771 -0.249,-0.195 -0.514,-0.293 -0.798,-0.293l-2.98 0c-0.284,0 -0.549,0.098 -0.799,0.293 -0.247,0.195 -0.372,0.452 -0.372,0.771l0 0.851c0,0.124 0.041,0.227 0.121,0.306 0.079,0.079 0.181,0.12 0.306,0.12l4.468 0zm-7.548 4.246l0 -5.316c0,-1.418 0.353,-2.303 1.063,-2.658 0.708,-0.354 1.559,-0.531 2.55,-0.531l3.402 0c0.991,0 1.842,0.177 2.549,0.531 0.71,0.355 1.064,1.24 1.064,2.658l0 5.316 -2.653 0 0 -1.699c0,-0.113 -0.044,-0.213 -0.128,-0.297 -0.083,-0.084 -0.184,-0.127 -0.299,-0.127l-4.468 0c-0.125,0 -0.227,0.043 -0.306,0.127 -0.08,0.084 -0.121,0.184 -0.121,0.297l0 1.699 -2.653 0z"/>
   <path class="fil11 str0" d="M19.045 189.752l432.352 0c2.08,0 3.776,-1.696 3.776,-3.776l0 -145.376c0,-2.08 -1.696,-3.776 -3.776,-3.776l-432.352 0c-2.079,0 -3.776,1.696 -3.776,3.776l0 145.376c0,2.08 1.697,3.776 3.776,3.776zm24.922 -47.011l19.824 0 0 19.824c0,3.119 2.544,5.664 5.664,5.664l27.942 0c3.12,0 5.664,-2.545 5.664,-5.664l0 -19.824 19.824 0c3.12,0 5.664,-2.545 5.664,-5.664l0 -27.943c0,-3.119 -2.544,-5.664 -5.664,-5.664l-19.824 0 0 -19.824c0,-3.119 -2.544,-5.664 -5.664,-5.664l-27.942 0c-3.12,0 -5.664,2.545 -5.664,5.664l0 19.824 -19.824 0c-3.12,0 -5.664,2.545 -5.664,5.664l0 27.943c0,3.119 2.544,5.664 5.664,5.664zm115.168 -22.279l120.454 0c2.08,0 3.776,1.697 3.776,3.776l0 37.76c0,2.08 -1.696,3.776 -3.776,3.776l-120.454 0c-2.08,0 -3.776,-1.696 -3.776,-3.776l0 -37.76c0,-2.079 1.696,-3.776 3.776,-3.776zm210.701 47.767l42.291 0c2.08,0 3.776,-1.696 3.776,-3.776l0 -42.669c0,-2.08 -1.696,-3.776 -3.776,-3.776l-42.291 0c-2.08,0 -3.776,1.696 -3.776,3.776l0 42.669c0,2.08 1.696,3.776 3.776,3.776zm-60.416 0l42.291 0c2.08,0 3.776,-1.696 3.776,-3.776l0 -42.669c0,-2.08 -1.696,-3.776 -3.776,-3.776l-42.291 0c-2.08,0 -3.776,1.696 -3.776,3.776l0 42.669c0,2.08 1.696,3.776 3.776,3.776z"/>
  </g>
  <g id="holes">
   <path class="fil12" d="M44.534 138.398l21.712 0c1.04,0 1.888,0.848 1.888,1.888l0 21.712c0,1.04 0.848,1.888 1.888,1.888l26.809 0c1.04,0 1.888,-0.848 1.888,-1.888l0 -21.712c0,-1.04 0.848,-1.888 1.888,-1.888l21.712 0c1.04,0 1.888,-0.848 1.888,-1.888l0 -26.809c0,-1.04 -0.848,-1.888 -1.888,-1.888l-21.712 0c-1.04,0 -1.888,-0.848 -1.888,-1.888l0 -21.712c0,-1.04 -0.848,-1.888 -1.888,-1.888l-26.809 0c-1.04,0 -1.888,0.848 -1.888,1.888l0 21.712c0,1.04 -0.848,1.888 -1.888,1.888l-21.712 0c-1.04,0 -1.888,0.848 -1.888,1.888l0 26.809c0,1.04 0.848,1.888 1.888,1.888z"/>
   <path class="fil12" d="M208.977 143.118c0,3.946 -3.228,7.174 -7.174,7.174l-23.032 0c-3.946,0 -7.174,-3.228 -7.174,-7.174 0,-3.946 3.228,-7.174 7.174,-7.174l23.032 0c3.946,0 7.174,3.228 7.174,7.174z"/>
   <path class="fil12" d="M267.128 143.118c0,3.946 -3.228,7.174 -7.174,7.174l-23.033 0c-3.946,0 -7.174,-3.228 -7.174,-7.174 0,-3.946 3.228,-7.174 7.174,-7.174l23.033 0c3.946,0 7.174,3.228 7.174,7.174z"/>
   <circle class="fil12" cx="330.565" cy="143.118" r="20.957"/>
   <circle class="fil12" cx="390.981" cy="143.118" r="20.957"/>
  </g>
  <g id="dpad">
   <path class="fil13" d="M97.209 160.488l0 -21.712c0,-1.04 0.848,-1.888 1.888,-1.888l21.712 0c1.039,0 1.888,-0.848 1.888,-1.888l0 -23.789c0,-1.04 -0.849,-1.888 -1.888,-1.888l-21.712 0c-1.04,0 -1.888,-0.848 -1.888,-1.888l0 -21.712c0,-1.04 -0.849,-1.888 -1.888,-1.888l-23.789 0c-1.04,0 -1.888,0.848 -1.888,1.888l0 21.712c0,1.04 -0.848,1.888 -1.888,1.888l-21.712 0c-1.04,0 -1.888,0.848 -1.888,1.888l0 23.789c0,1.04 0.848,1.888 1.888,1.888l21.712 0c1.04,0 1.888,0.848 1.888,1.888l0 21.712c0,1.04 0.848,1.888 1.888,1.888l23.789 0c1.039,0 1.888,-0.848 1.888,-1.888z"/>
   <path class="fil14" d="M77.618 140.772l11.616 0c0.297,0 0.538,0.24 0.538,0.537l0 7.786 2.191 0c0.142,0.001 0.284,0.057 0.389,0.168 0.204,0.215 0.195,0.555 -0.019,0.759l-8.537 8.11c-0.206,0.196 -0.532,0.198 -0.74,0l-8.509 -8.083c-0.12,-0.099 -0.196,-0.249 -0.196,-0.416 0,-0.297 0.24,-0.538 0.538,-0.538l2.19 0 0 -7.786c0,-0.297 0.242,-0.537 0.539,-0.537zm11.616 -35.332l-11.616 0c-0.297,0 -0.539,-0.241 -0.539,-0.538l0 -7.786 -2.19 0c-0.298,0 -0.538,-0.241 -0.538,-0.538 0,-0.167 0.076,-0.317 0.196,-0.416l8.509 -8.083c0.208,-0.198 0.534,-0.196 0.74,0l8.537 8.11c0.214,0.204 0.223,0.544 0.019,0.759 -0.105,0.111 -0.247,0.167 -0.389,0.167l-2.191 0.001 0 7.786c0,0.297 -0.241,0.538 -0.538,0.538zm11.858 23.474l0 -11.617c0,-0.297 0.241,-0.538 0.538,-0.538l7.786 0 0 -2.191c0.001,-0.142 0.057,-0.283 0.168,-0.389 0.214,-0.203 0.554,-0.195 0.758,0.019l8.111 8.537c0.196,0.206 0.198,0.532 0,0.741l-8.084 8.508c-0.098,0.12 -0.248,0.197 -0.416,0.197 -0.296,0 -0.537,-0.241 -0.537,-0.538l0 -2.191 -7.786 0c-0.297,0 -0.538,-0.241 -0.538,-0.538zm-8.14 -5.879c0,-5.26 -4.266,-9.526 -9.526,-9.526 -5.26,0 -9.668,4.266 -9.668,9.526 0,5.26 4.408,9.667 9.668,9.667 5.26,0 9.526,-4.407 9.526,-9.667zm-27.192 -5.738l0 11.617c0,0.297 -0.241,0.538 -0.538,0.538l-7.786 0 0 2.191c0,0.297 -0.241,0.538 -0.538,0.538 -0.167,0 -0.317,-0.077 -0.415,-0.197l-8.084 -8.508c-0.198,-0.209 -0.196,-0.535 0,-0.741l8.111 -8.537c0.204,-0.214 0.544,-0.222 0.758,-0.019 0.111,0.106 0.167,0.247 0.167,0.389l0.001 2.191 7.786 0c0.297,0 0.538,0.241 0.538,0.538z"/>
  </g>
  <g id="buttons">
   <path class="fil15" d="M201.804 148.782c3.128,0 5.664,-2.536 5.664,-5.664 0,-3.128 -2.536,-5.664 -5.664,-5.664 -6.937,0 -16.097,0 -23.034,0 -3.128,0 -5.664,2.536 -5.664,5.664 0,3.128 2.536,5.664 5.664,5.664 6.937,0 16.097,0 23.034,0z"/>
   <path class="fil15" d="M259.954 148.782c3.128,0 5.664,-2.536 5.664,-5.664 0,-3.128 -2.536,-5.664 -5.664,-5.664 -6.937,0 -16.097,0 -23.033,0 -3.128,0 -5.664,2.536 -5.664,5.664 0,3.128 2.536,5.664 5.664,5.664 6.936,0 16.096,0 23.033,0z"/>
   <circle class="fil16" cx="330.565" cy="143.118" r="19.446"/>
   <path class="fil17" d="M330.565 125.56c9.698,0 17.559,7.861 17.559,17.558l0 0.001c-4.315,-4.818 -10.583,-7.85 -17.559,-7.85 -6.976,0 -13.243,3.033 -17.558,7.85l0 -0.001c0,-9.697 7.861,-17.558 17.558,-17.558z"/>
   <circle class="fil16" cx="390.981" cy="143.118" r="19.446"/>
   <path class="fil17" d="M390.981 125.56c9.698,0 17.559,7.861 17.559,17.558l0 0.001c-4.315,-4.818 -10.583,-7.85 -17.559,-7.85 -6.976,0 -13.243,3.033 -17.558,7.85l0 -0.001c0,-9.697 7.861,-17.558 17.558,-17.558z"/>
  </g>
 </g>
</svg>
