<?xml version="1.0" encoding="UTF-8"?>
<!DOCTYPE svg PUBLIC "-//W3C//DTD SVG 1.1//EN" "http://www.w3.org/Graphics/SVG/1.1/DTD/svg11.dtd">
<svg xml:space="preserve" viewBox="0 0 862 376" width="862px" height="376px" version="1.1" style="shape-rendering:geometricPrecision; fill-rule:evenodd; clip-rule:evenodd" xmlns="http://www.w3.org/2000/svg" xmlns:xlink="http://www.w3.org/1999/xlink">
 <defs>
  <style type="text/css">
    .str0 {stroke:#1A1A1A}
    .fil4 {fill:none}
    .fil13 {fill:black}
    .fil14 {fill:#202020}
    .fil18 {fill:#262626}
    .fil2 {fill:#333333}
    .fil3 {fill:gray}
    .fil6 {fill:#999999}
    .fil1 {fill:#B3B3B3}
    .fil7 {fill:#CCCCCC}
    .fil16 {fill:#D00012}
    .fil0 {fill:gainsboro}
    .fil5 {fill:#E60012}
    .fil8 {fill:#F0F0F0}
    .fil17 {fill:black;fill-opacity:0.1}
    .fil15 {fill:black;fill-opacity:0.5}
    .fil10 {fill:url(#id0)}
    .fil12 {fill:url(#id1)}
    .fil9 {fill:url(#id2)}
    .fil11 {fill:url(#id3)}
  </style>
  <linearGradient id="id0" gradientUnits="userSpaceOnUse" x1="514.006" y1="239.223" x2="510.985" y2="236.202">
   <stop offset="0" style="stop-opacity:1; stop-color:#CCCCCC"/>
   <stop offset="1" style="stop-opacity:1; stop-color:#999999"/>
  </linearGradient>
  <linearGradient id="id1" gradientUnits="userSpaceOnUse" x1="514.006" y1="290.761" x2="510.985" y2="293.782">
   <stop offset="0" style="stop-opacity:1; stop-color:#CCCCCC"/>
   <stop offset="1" style="stop-opacity:1; stop-color:#F0F0F0"/>
  </linearGradient>
  <linearGradient id="id2" gradientUnits="userSpaceOnUse" xlink:href="#id0" x1="291.407" y1="239.223" x2="294.428" y2="236.202">
  </linearGradient>
  <linearGradient id="id3" gradientUnits="userSpaceOnUse" xlink:href="#id1" x1="291.407" y1="290.761" x2="294.428" y2="293.782">
  </linearGradient>
 </defs>
 <g>
  <g id="shell">
   <path class="fil0" d="M859.289 361.651c0,6.609 -5.393,11.999 -11.999,11.999l-832.58 0c-6.606,0 -11.999,-5.39 -11.999,-11.999 0,-115.767 0,-231.535 0,-347.302 0,-6.609 5.39,-11.999 11.999,-11.999l832.58 0c6.609,0 11.999,5.39 11.999,11.999 0,115.767 0,231.535 0,347.302z"/>
   <polygon class="fil1" points="229.466,9.473 257.811,9.473 257.811,2.35 259.811,2.35 259.811,11.473 227.466,11.473 227.466,2.35 229.466,2.35 "/>
   <path class="fil2" d="M34.712 347.649c-3.302,0 -6,-2.695 -6,-6 0,-90.896 0,-181.792 0,-272.688 0,-3.305 2.695,-6 6,-6 264.192,0 528.384,0 792.576,0 3.305,0 6,2.7 6,6 0,90.896 0,181.792 0,272.688 0,3.3 -2.698,6 -6,6 -264.192,0 -528.384,0 -792.576,0z"/>
   <path class="fil3" d="M524.516 62.961l0 29.326c0,5.506 -4.493,10 -9.999,10l-223.621 0c-5.506,0 -10,-4.492 -10,-10l0 -29.326 243.62 0zm-233.62 52.726l223.621 0c5.508,0 9.999,4.493 9.999,10l0 21.602c0,5.507 -4.492,10 -9.999,10l-223.621 0c-5.507,0 -10,-4.492 -10,-10l0 -21.602c0,-5.508 4.492,-10 10,-10zm0 55.002l223.621 0c5.508,0 9.999,4.493 9.999,10l0 21.602c0,5.507 -4.492,10 -9.999,10l-223.621 0c-5.507,0 -10,-4.492 -10,-10l0 -21.602c0,-5.508 4.492,-10 10,-10zm233.62 176.96l0 -15.957c0,-5.507 -4.493,-10 -9.999,-10l-223.621 0c-5.506,0 -10,4.492 -10,10l0 15.957 243.62 0z"/>
   <path class="fil4 str0" d="M34.712 347.649c-3.302,0 -6,-2.695 -6,-6 0,-90.896 0,-181.792 0,-272.688 0,-3.305 2.695,-6 6,-6 264.192,0 528.384,0 792.576,0 3.305,0 6,2.7 6,6 0,90.896 0,181.792 0,272.688 0,3.3 -2.698,6 -6,6 -264.192,0 -528.384,0 -792.576,0z"/>
   <path id="label-select" class="fil5" d="M295.069 197.049l0 -2.823 10.474 0c0.364,0 0.611,-0.077 0.741,-0.233 0.13,-0.158 0.197,-0.391 0.197,-0.702l0 -0.313c0,-0.31 -0.067,-0.544 -0.197,-0.701 -0.13,-0.156 -0.377,-0.233 -0.741,-0.233l-6.413 0c-1.565,0 -2.686,-0.341 -3.363,-1.021 -0.678,-0.681 -1.018,-1.488 -1.018,-2.426l0 -0.624c0,-1.041 0.34,-1.875 1.018,-2.499 0.677,-0.624 1.798,-0.937 3.363,-0.937l10.634 0 0 2.812 -10.47 0c-0.287,0 -0.488,0.06 -0.604,0.184 -0.117,0.124 -0.177,0.27 -0.177,0.44l0 0.624c0,0.184 0.06,0.331 0.177,0.447 0.116,0.117 0.317,0.177 0.604,0.177l6.259 0c1.562,0 2.736,0.367 3.517,1.098 0.784,0.73 1.174,1.622 1.174,2.666l0 0.47c0,1.145 -0.39,2.032 -1.174,2.656 -0.784,0.624 -1.962,0.938 -3.53,0.938l-10.471 0zm19.85 0c-0.834,0 -1.561,-0.314 -2.185,-0.938 -0.624,-0.627 -0.938,-1.358 -0.938,-2.192l0 -9.382 13.444 0 0 2.822 -8.913 0c-0.183,0 -0.333,0.06 -0.45,0.184 -0.117,0.123 -0.177,0.27 -0.177,0.441l0 0.933c0,0.184 0.06,0.33 0.177,0.448 0.117,0.117 0.267,0.176 0.45,0.176l8.289 0 0 2.223 -8.289 0c-0.183,0 -0.333,0.063 -0.45,0.187 -0.117,0.123 -0.177,0.27 -0.177,0.443l0 0.901c0,0.183 0.06,0.337 0.177,0.454 0.117,0.117 0.267,0.177 0.45,0.177l8.913 0 0 3.123 -10.321 0zm14.234 0c-0.73,0 -1.327,-0.234 -1.798,-0.704 -0.47,-0.471 -0.704,-1.068 -0.704,-1.799l0 -10.009 3.924 0 0 9.065c0,0.207 0.054,0.363 0.157,0.467 0.104,0.104 0.26,0.157 0.467,0.157l7.965 0 0 2.823 -10.011 0zm14.545 0c-0.834,0 -1.562,-0.314 -2.186,-0.938 -0.624,-0.627 -0.937,-1.358 -0.937,-2.192l0 -9.382 13.443 0 0 2.822 -8.912 0c-0.184,0 -0.334,0.06 -0.45,0.184 -0.117,0.123 -0.177,0.27 -0.177,0.441l0 0.933c0,0.184 0.06,0.33 0.177,0.448 0.116,0.117 0.266,0.176 0.45,0.176l8.289 0 0 2.223 -8.289 0c-0.184,0 -0.334,0.063 -0.45,0.187 -0.117,0.123 -0.177,0.27 -0.177,0.443l0 0.901c0,0.183 0.06,0.337 0.177,0.454 0.116,0.117 0.266,0.177 0.45,0.177l8.912 0 0 3.123 -10.32 0zm15.803 0c-0.938,0 -1.825,-0.314 -2.66,-0.938 -0.834,-0.627 -1.251,-1.878 -1.251,-3.753l0 -3.13c0,-1.875 0.417,-3.126 1.251,-3.754 0.835,-0.624 1.722,-0.937 2.66,-0.937l10.163 0 0 2.822 -8.605 0c-0.521,0 -0.915,0.157 -1.175,0.467 -0.26,0.314 -0.39,0.678 -0.39,1.094l0 3.744c0,0.418 0.13,0.781 0.39,1.095 0.26,0.31 0.654,0.467 1.175,0.467l8.605 0 0 2.823 -10.163 0zm17.357 0l0 -9.065c0,-0.168 -0.064,-0.315 -0.187,-0.438 -0.123,-0.123 -0.27,-0.187 -0.437,-0.187l-5.002 0 0 -2.822 15.002 0 0 2.822 -5.005 0c-0.183,0 -0.334,0.064 -0.45,0.187 -0.117,0.123 -0.177,0.27 -0.177,0.438l0 9.065 -3.744 0z"/>
   <path id="label-start" class="fil5" d="M427.751 197.049l0 -2.823 10.474 0c0.364,0 0.611,-0.077 0.741,-0.233 0.13,-0.158 0.197,-0.391 0.197,-0.702l0 -0.313c0,-0.31 -0.067,-0.544 -0.197,-0.701 -0.13,-0.156 -0.377,-0.233 -0.741,-0.233l-6.413 0c-1.565,0 -2.686,-0.341 -3.363,-1.021 -0.677,-0.681 -1.018,-1.488 -1.018,-2.426l0 -0.624c0,-1.041 0.341,-1.875 1.018,-2.499 0.677,-0.624 1.798,-0.937 3.363,-0.937l10.634 0 0 2.812 -10.471 0c-0.286,0 -0.487,0.06 -0.603,0.184 -0.117,0.124 -0.177,0.27 -0.177,0.44l0 0.624c0,0.184 0.06,0.331 0.177,0.447 0.116,0.117 0.317,0.177 0.603,0.177l6.26 0c1.561,0 2.737,0.367 3.517,1.098 0.784,0.73 1.175,1.622 1.175,2.666l0 0.47c0,1.145 -0.391,2.032 -1.175,2.656 -0.784,0.624 -1.962,0.938 -3.53,0.938l-10.471 0zm73.03 0l0 -9.065c0,-0.168 -0.063,-0.315 -0.187,-0.438 -0.123,-0.123 -0.27,-0.187 -0.437,-0.187l-5.001 0 0 -2.822 15.001 0 0 2.822 -5.005 0c-0.183,0 -0.333,0.064 -0.45,0.187 -0.117,0.123 -0.177,0.27 -0.177,0.438l0 9.065 -3.744 0zm-50.677 0l0 -9.065c0,-0.168 -0.063,-0.315 -0.187,-0.438 -0.123,-0.123 -0.27,-0.187 -0.437,-0.187l-5.001 0 0 -2.822 15.001 0 0 2.822 -5.005 0c-0.184,0 -0.334,0.064 -0.45,0.187 -0.117,0.123 -0.177,0.27 -0.177,0.438l0 9.065 -3.744 0zm22.059 -6.247c0.17,0 0.317,-0.059 0.44,-0.176 0.124,-0.117 0.187,-0.267 0.187,-0.451l0 -1.251c0,-0.47 -0.183,-0.847 -0.547,-1.134 -0.367,-0.287 -0.757,-0.431 -1.175,-0.431l-4.384 0c-0.417,0 -0.807,0.144 -1.175,0.431 -0.363,0.287 -0.547,0.664 -0.547,1.134l0 1.251c0,0.184 0.06,0.334 0.177,0.451 0.117,0.117 0.267,0.176 0.45,0.176l6.574 0zm-11.104 6.247l0 -7.821c0,-2.086 0.52,-3.387 1.564,-3.911 1.041,-0.52 2.292,-0.78 3.751,-0.78l5.005 0c1.458,0 2.709,0.26 3.75,0.78 1.045,0.524 1.565,1.825 1.565,3.911l0 7.821 -3.904 0 0 -2.499c0,-0.167 -0.063,-0.314 -0.187,-0.437 -0.123,-0.124 -0.27,-0.187 -0.44,-0.187l-6.574 0c-0.183,0 -0.333,0.063 -0.45,0.187 -0.117,0.123 -0.177,0.27 -0.177,0.437l0 2.499 -3.903 0zm17.203 0l0 -12.512 10.641 0c1.462,0 2.609,0.337 3.443,1.014 0.834,0.677 1.252,1.591 1.252,2.736l0 0.781c0,1.458 -0.681,2.449 -2.039,2.969 1.358,0.521 2.039,1.565 2.039,3.133l0 1.879 -3.914 0 0 -1.565c0,-0.627 -0.13,-1.095 -0.394,-1.408 -0.26,-0.314 -0.597,-0.47 -1.018,-0.47l-5.479 0c-0.183,0 -0.333,0.063 -0.45,0.186 -0.117,0.124 -0.177,0.271 -0.177,0.441l0 2.816 -3.904 0zm10.164 -6.266c0.363,0 0.69,-0.104 0.977,-0.311 0.287,-0.206 0.431,-0.624 0.431,-1.244l0 -0.624c0,-0.414 -0.144,-0.727 -0.431,-0.935 -0.287,-0.206 -0.614,-0.31 -0.977,-0.31l-5.633 0c-0.183,0 -0.333,0.06 -0.45,0.184 -0.117,0.123 -0.177,0.27 -0.177,0.441l0 2.175c0,0.183 0.06,0.333 0.177,0.45 0.117,0.117 0.267,0.174 0.45,0.174l5.633 0z"/>
   <path id="label-b" class="fil5" d="M645.456 333.721c0.216,0 0.401,-0.076 0.558,-0.224 0.156,-0.148 0.236,-0.338 0.236,-0.57l0 -1.583c-0.017,-0.195 -0.101,-0.376 -0.249,-0.541 -0.148,-0.165 -0.329,-0.249 -0.545,-0.249l-8.925 0c-0.233,0 -0.422,0.08 -0.57,0.237 -0.148,0.156 -0.224,0.341 -0.224,0.553l0 1.583c0,0.232 0.076,0.422 0.224,0.57 0.148,0.148 0.337,0.224 0.57,0.224l8.925 0zm-0.405 -6.334c0.215,0 0.397,-0.076 0.545,-0.223 0.164,-0.148 0.249,-0.338 0.249,-0.57l0 -1.584c0,-0.211 -0.08,-0.397 -0.237,-0.553 -0.156,-0.156 -0.342,-0.236 -0.557,-0.236l-8.52 0c-0.233,0 -0.422,0.08 -0.57,0.236 -0.148,0.156 -0.224,0.342 -0.224,0.553l0 1.584c0,0.232 0.076,0.422 0.224,0.57 0.148,0.147 0.337,0.223 0.57,0.223l8.52 0zm-14.254 9.5l0 -15.833 16.243 0c0.925,0 1.752,0.329 2.478,0.988 0.726,0.663 1.09,1.651 1.09,2.968l0 0.596c0,1.186 -0.321,2.043 -0.967,2.571 -0.646,0.528 -1.115,0.794 -1.415,0.794 0.798,0 1.461,0.329 1.989,0.988 0.532,0.663 0.798,1.452 0.798,2.377l0 0.591c0,1.322 -0.266,2.31 -0.794,2.973 -0.528,0.658 -1.385,0.987 -2.575,0.987l-16.847 0z"/>
   <path id="label-a" class="fil5" d="M757.281 328.983c0.215,0 0.401,-0.076 0.557,-0.223 0.157,-0.148 0.237,-0.338 0.237,-0.57l0 -1.584c0,-0.595 -0.232,-1.072 -0.693,-1.435 -0.464,-0.363 -0.958,-0.545 -1.486,-0.545l-5.548 0c-0.527,0 -1.022,0.182 -1.486,0.545 -0.46,0.363 -0.692,0.84 -0.692,1.435l0 1.584c0,0.232 0.076,0.422 0.223,0.57 0.148,0.147 0.338,0.223 0.57,0.223l8.318 0zm-14.052 7.904l0 -9.897c0,-2.638 0.659,-4.285 1.981,-4.948 1.317,-0.659 2.9,-0.988 4.746,-0.988l6.333 0c1.845,0 3.428,0.329 4.746,0.988 1.321,0.663 1.98,2.31 1.98,4.948l0 9.897 -4.94 0 0 -3.162c0,-0.211 -0.08,-0.397 -0.237,-0.553 -0.156,-0.156 -0.342,-0.236 -0.557,-0.236l-8.318 0c-0.232,0 -0.422,0.08 -0.57,0.236 -0.147,0.156 -0.223,0.342 -0.223,0.553l0 3.162 -4.941 0z"/>
   <path id="label-nintendo" class="fil5" d="M656.616 134.47c-0.011,-1.351 0.018,-2.253 0.461,-3.022 0.545,-0.95 1.545,-1.401 2.452,-1.407l-0.002 0c0.907,0.006 1.907,0.457 2.451,1.407 0.443,0.772 0.462,1.674 0.451,3.025l-5.813 -0.003zm5.789 4.646c0,0 0.006,0.069 0.006,0.934 0,2.818 -1.855,3.444 -2.884,3.444 -1.03,0 -2.916,-0.626 -2.916,-3.444 0,-0.844 0.005,-3.182 0.005,-3.182 0,0 13.126,0.006 13.126,-0.003 0,-4.778 -4.614,-8.737 -10.282,-8.737 -5.667,0 -10.26,3.874 -10.26,8.653 0,4.779 4.593,8.65 10.26,8.65 4.702,0 8.674,-2.683 9.886,-6.321l-6.941 0.006zm21.925 -10.73c2.605,-0.075 7.891,1.631 7.854,7.731 -0.006,1.083 -0.003,8.385 -0.003,8.385l-6.923 0c0,0 0,-9.157 0,-10.12 0,-1.343 -1.284,-2.836 -3.184,-2.836 -1.897,0 -3.308,1.493 -3.308,2.836 0,0.658 0.008,10.12 0.008,10.12l-6.918 0 0.006 -15.408 6.914 -0.005c0,0 -0.008,1.239 0,1.621 1.332,-1.271 3.253,-2.258 5.554,-2.324zm-56.627 0c2.605,-0.075 7.891,1.631 7.854,7.731 -0.006,1.083 -0.003,8.385 -0.003,8.385l-6.923 0c0,0 0,-9.157 0,-10.12 0,-1.343 -1.284,-2.836 -3.184,-2.836 -1.897,0 -3.309,1.493 -3.309,2.836 0,0.658 0.009,10.12 0.009,10.12l-6.918 0 -0.003 -15.408 6.923 -0.005c0,0 -0.008,1.239 0,1.621 1.332,-1.271 3.25,-2.258 5.554,-2.324l0 0zm79.498 -7.05l6.878 0 0 23.171 -6.888 0c0,0 -0.003,-0.748 -0.003,-0.891 -2.667,1.674 -5.675,1.671 -8.018,0.578 -0.629,-0.292 -4.766,-2.276 -4.766,-7.639 0,-4.067 3.837,-8.509 8.86,-8.069 1.653,0.146 2.828,0.749 3.943,1.375 -0.006,-3.566 -0.006,-8.525 -0.006,-8.525l0 0zm0.051 15.389c0,0 0,-1.932 0,-2.754 0,-2.383 -1.645,-2.99 -2.728,-2.99 -1.109,0 -2.733,0.607 -2.733,2.99 0,0.791 0.003,2.746 0.003,2.746 0,0 -0.003,1.921 -0.003,2.741 0,2.38 1.624,3.003 2.73,3.003 1.086,0 2.733,-0.623 2.733,-3.003 0,-0.99 -0.002,-2.733 -0.002,-2.733l0 0zm22.078 -0.045c0,0 -0.002,2.33 -0.002,3.263 0,2.458 -1.452,3.471 -2.848,3.471 -1.398,0 -2.855,-1.013 -2.855,-3.471 0,-0.933 0.003,-3.321 0.003,-3.321 0,0 0.006,-2.28 0.006,-3.214 0,-2.446 1.459,-3.452 2.846,-3.452 1.391,0 2.848,1.006 2.848,3.452 0,0.934 -0.003,2.662 0.005,3.28l-0.003 -0.008zm-2.799 -8.634c-5.625,0 -10.183,3.874 -10.183,8.652 0,4.779 4.561,8.653 10.183,8.653 5.625,0 10.184,-3.874 10.184,-8.653 0,-4.778 -4.559,-8.652 -10.184,-8.652zm-122.125 -1.979l0 -4.737 6.984 0 0 4.737 -6.984 0zm0.016 18.44l0 -15.41 6.968 0.003 0 15.408 -6.968 -0.001zm34.958 0l0.003 -15.378 -3.789 0 0 -2.288 3.791 -0.002 -0.005 -3.121 6.973 0 0 3.118 3.773 0 0 2.292 -3.773 0.001 0.005 15.378 -6.978 0zm-63.314 0l0.003 -23.171 7.22 0 9.987 16.159 -0.005 -16.159 7.163 0 0 23.171 -7.153 0 -10.04 -16.158 0 16.158 -7.175 0zm166.804 -23.052c2.022,0 3.027,0.686 3.027,2.042 0,0.933 -0.581,1.637 -1.547,1.88l1.585 3.165 -1.919 0 -1.356 -2.903 -0.842 0 0 2.903 -1.728 0 0 -7.087 2.78 0zm-0.158 -2.77c-3.531,0 -6.396,2.865 -6.396,6.397 0,3.531 2.865,6.397 6.396,6.397 3.532,0 6.397,-2.866 6.397,-6.397 0,-3.532 -2.865,-6.397 -6.397,-6.397zm5.174 6.402c0,2.856 -2.318,5.174 -5.174,5.174 -2.855,0 -5.173,-2.318 -5.173,-5.174 0,-2.856 2.318,-5.174 5.173,-5.174 2.856,0 5.174,2.313 5.174,5.174zm-6.068 -0.485l0.842 0c0.985,0 1.461,-0.301 1.461,-1.005 0,-0.737 -0.509,-1.056 -1.547,-1.056l-0.756 0 0 2.061z"/>
   <path class="fil0 str0" d="M225.641 257.173c6.87,0.009 12.439,-5.569 12.439,-12.439l0 -44.071c0,-6.87 -5.571,-12.431 -12.439,-12.439l-35.995 -0.047c-1.458,-0.001 -2.651,-1.189 -2.651,-2.649l0 -36.041c0,-6.87 -5.571,-12.439 -12.439,-12.439l-44.072 0c-6.869,0 -12.44,5.571 -12.44,12.439l0 36.041c0,1.459 -1.192,2.648 -2.651,2.65l-35.905 0.046c-6.869,0.008 -12.439,5.57 -12.439,12.439l0 44.071c0,6.869 5.569,12.448 12.439,12.439l35.905 -0.045c1.46,-0.002 2.65,1.191 2.65,2.65l0.001 36.042c0.001,6.868 5.57,12.439 12.44,12.439l44.072 0c6.87,0 12.438,-5.569 12.439,-12.439l0.001 -36.043c0,-1.459 1.19,-2.651 2.65,-2.65l35.995 0.046z"/>
   <path class="fil0 str0" d="M286.896 225.691l231.621 0c3.304,0 5.999,2.696 5.999,6l0 66.601c0,3.305 -2.695,6 -5.999,6l-231.621 0c-3.304,0 -6,-2.695 -6,-6l0 -66.601c0,-3.304 2.696,-6 6,-6z"/>
   <g>
    <path class="fil6" d="M291.577 232.372l222.259 0c1.102,0 2.101,0.449 2.826,1.174l-6.681 6.68c-0.724,-0.724 -1.724,-1.173 -2.826,-1.173l-208.897 0c-1.102,0 -2.102,0.449 -2.826,1.173l-6.681 -6.68c0.725,-0.725 1.724,-1.174 2.826,-1.174z"/>
    <path class="fil7" d="M295.432 240.226c-0.725,0.725 -1.174,1.725 -1.174,2.826l0 43.879c0,1.102 0.449,2.101 1.174,2.826l-6.681 6.68c-0.725,-0.724 -1.174,-1.724 -1.174,-2.825l0 -57.24c0,-1.102 0.449,-2.102 1.174,-2.826l6.681 6.68z"/>
    <path class="fil7" d="M509.981 240.226c0.725,0.725 1.174,1.725 1.174,2.826l0 43.879c0,1.102 -0.449,2.101 -1.174,2.826l6.681 6.68c0.725,-0.724 1.174,-1.724 1.174,-2.825l0 -57.24c0,-1.102 -0.449,-2.102 -1.174,-2.826l-6.681 6.68z"/>
    <path class="fil8" d="M291.577 297.611l222.259 0c1.102,0 2.101,-0.449 2.826,-1.174l-6.681 -6.68c-0.724,0.724 -1.724,1.174 -2.826,1.174l-208.897 0c-1.102,0 -2.102,-0.45 -2.826,-1.174l-6.681 6.68c0.725,0.725 1.724,1.174 2.826,1.174z"/>
    <path class="fil9" d="M291.577 232.372l6.681 6.681c-2.203,0 -4,1.796 -4,3.999l-6.681 -6.68c0,-2.203 1.797,-4 4,-4z"/>
    <path class="fil10" d="M513.836 232.372l-6.681 6.681c2.203,0 4,1.796 4,3.999l6.681 -6.68c0,-2.203 -1.797,-4 -4,-4z"/>
    <path class="fil11" d="M291.577 297.611l6.681 -6.68c-2.203,0 -4,-1.797 -4,-4l-6.681 6.681c0,2.203 1.797,3.999 4,3.999z"/>
    <path class="fil12" d="M513.836 297.611l-6.681 -6.68c2.203,0 4,-1.797 4,-4l6.681 6.681c0,2.203 -1.797,3.999 -4,3.999z"/>
   </g>
   <path class="fil0 str0" d="M566.413 310.292l78.6 0c3.305,0 6,-2.695 6,-6l0 -78.601c0,-3.304 -2.695,-5.999 -6,-5.999l-78.6 0c-3.305,0 -6,2.695 -6,5.999l0 78.601c0,3.305 2.695,6 6,6zm112.002 0l78.6 0c3.305,0 6,-2.695 6,-6l0 -78.601c0,-3.304 -2.696,-5.999 -6,-5.999l-78.6 0c-3.304,0 -6,2.695 -6,5.999l0 78.601c0,3.304 2.695,6 6,6z"/>
  </g>
  <g id="holes">
   <path class="fil13" d="M79.675 194.905c-3.317,0 -6.081,2.764 -6.081,5.803l0 43.981c0,3.039 2.764,5.803 6.081,5.803 13.552,0 27.105,0.001 40.657,0.001 2.474,0.015 4.394,1.944 4.394,4.422l0 40.628c0,3.317 2.764,6.081 6.08,6.081l43.704 0c3.316,0 5.804,-2.764 5.804,-6.08l0 -40.629c0,-2.487 2.211,-4.422 4.422,-4.422l40.905 0c3.317,0 5.804,-2.764 5.804,-6.08l0 -43.429c0,-3.316 -2.487,-6.08 -5.804,-6.08l-40.905 0c-2.211,0 -4.422,-1.935 -4.422,-4.422l0 -40.629c0,-3.316 -2.488,-6.08 -5.804,-6.08l-43.704 0c-3.316,0 -6.08,2.764 -6.08,6.081l0 40.628c0,2.478 -1.92,4.407 -4.394,4.422 -13.552,0 -27.105,0.001 -40.657,0.001z"/>
   <path class="fil13" d="M369.124 250.685c7.901,0 14.306,6.405 14.306,14.307 0,7.901 -6.405,14.306 -14.306,14.306l-43.919 0c-7.902,0 -14.307,-6.405 -14.307,-14.306 0,-7.902 6.405,-14.307 14.307,-14.307l43.919 0z"/>
   <path class="fil13" d="M480.209 250.685c7.901,0 14.306,6.405 14.306,14.307 0,7.901 -6.405,14.306 -14.306,14.306l-43.92 0c-7.901,0 -14.306,-6.405 -14.306,-14.306 0,-7.902 6.405,-14.307 14.306,-14.307l43.92 0z"/>
   <circle class="fil13" cx="605.713" cy="264.992" r="38.619"/>
   <circle class="fil13" cx="717.715" cy="264.992" r="38.619"/>
  </g>
  <g id="dpad">
   <path class="fil14" d="M221.618 198.515l-40.628 0c-2.487,0 -4.422,-1.935 -4.422,-4.422l0 -40.629c0,-3.316 -2.764,-6.08 -5.804,-6.08l-36.483 0c-3.317,0 -6.081,2.764 -6.081,6.08l0 40.629c0,2.487 -1.934,4.422 -4.422,4.422l-40.628 0c-3.317,0 -6.081,2.764 -6.081,6.08l0 36.483c0,3.316 2.764,5.804 6.081,5.804l40.628 0c2.488,0 4.422,2.211 4.422,4.422l0 40.905c0,3.317 2.764,5.804 6.081,5.804l36.483 0c3.04,0 5.804,-2.487 5.804,-5.804l0 -40.905c0,-2.211 1.935,-4.422 4.422,-4.422l40.628 0c3.317,0 6.081,-2.488 6.081,-5.804l0 -36.483c0,-3.316 -2.764,-6.08 -6.081,-6.08z"/>
   <path class="fil15" d="M141.38 256.579l22.279 0c0.57,0 1.032,0.462 1.032,1.032l0 14.932 4.202 0c0.272,0.003 0.544,0.11 0.745,0.322 0.392,0.412 0.376,1.063 -0.036,1.455l-16.373 15.555c-0.394,0.375 -1.019,0.379 -1.419,0l-16.318 -15.504c-0.23,-0.189 -0.377,-0.476 -0.377,-0.797 0,-0.569 0.462,-1.031 1.032,-1.031l4.202 0 0 -14.932c0,-0.57 0.462,-1.032 1.031,-1.032zm22.279 -67.761l-22.279 0c-0.569,0 -1.031,-0.462 -1.031,-1.032l0 -14.932 -4.202 0c-0.57,0 -1.032,-0.462 -1.032,-1.031 0,-0.321 0.147,-0.608 0.377,-0.797l16.318 -15.504c0.4,-0.379 1.025,-0.375 1.419,0l16.373 15.555c0.412,0.391 0.428,1.043 0.036,1.455 -0.201,0.212 -0.473,0.319 -0.745,0.319l-4.202 0.003 0 14.932c0,0.57 -0.462,1.032 -1.032,1.032zm22.741 45.02l0 -22.279c0,-0.569 0.463,-1.032 1.032,-1.032l14.932 0 0 -4.201c0.003,-0.273 0.11,-0.544 0.322,-0.746 0.412,-0.392 1.064,-0.375 1.455,0.036l15.555 16.373c0.376,0.395 0.379,1.02 0,1.419l-15.503 16.319c-0.189,0.23 -0.476,0.376 -0.797,0.376 -0.57,0 -1.032,-0.462 -1.032,-1.032l0 -4.201 -14.932 0c-0.569,0 -1.032,-0.463 -1.032,-1.032zm-15.611 -11.275c0,-10.088 -8.182,-18.269 -18.269,-18.269 -10.088,0 -18.541,8.181 -18.541,18.269 0,10.087 8.453,18.54 18.541,18.54 10.087,0 18.269,-8.453 18.269,-18.54zm-52.15 -11.004l0 22.279c0,0.569 -0.462,1.032 -1.031,1.032l-14.932 0 0 4.201c0,0.57 -0.462,1.032 -1.032,1.032 -0.321,0 -0.608,-0.146 -0.797,-0.376l-15.503 -16.319c-0.38,-0.399 -0.376,-1.024 0,-1.419l15.554 -16.373c0.392,-0.411 1.044,-0.428 1.455,-0.036 0.213,0.202 0.32,0.473 0.32,0.746l0.003 4.201 14.932 0c0.569,0 1.031,0.463 1.031,1.032z"/>
  </g>
  <circle class="fil16" cx="605.713" cy="264.992" r="36.623"/>
  <path class="fil17" d="M605.713 232.969c16.144,0 29.499,11.948 31.703,27.483 0.094,0.665 -0.242,1.288 -0.849,1.575 -0.607,0.287 -1.115,-0.146 -1.756,-0.345 -6.055,-1.878 -16.823,-6.274 -29.098,-6.274 -12.276,0 -23.044,4.398 -29.099,6.276 -0.641,0.199 -1.149,0.632 -1.756,0.345 -0.607,-0.287 -0.943,-0.91 -0.849,-1.575 2.204,-15.536 15.559,-27.485 31.704,-27.485z"/>
  <circle class="fil16" cx="717.715" cy="264.992" r="36.623"/>
  <path class="fil17" d="M717.715 232.969c16.144,0 29.498,11.948 31.702,27.483 0.094,0.665 -0.241,1.288 -0.848,1.575 -0.607,0.287 -1.115,-0.146 -1.756,-0.345 -6.055,-1.878 -16.824,-6.274 -29.098,-6.274 -12.276,0 -23.044,4.398 -29.099,6.276 -0.641,0.199 -1.149,0.632 -1.757,0.345 -0.606,-0.287 -0.942,-0.91 -0.848,-1.575 2.204,-15.536 15.559,-27.485 31.704,-27.485z"/>
  <path class="fil18" d="M325.205 277.302c-6.799,0 -12.311,-5.511 -12.311,-12.31 0,-6.799 5.512,-12.311 12.311,-12.311l43.919 0c6.799,0 12.311,5.512 12.311,12.311 0,6.799 -5.513,12.31 -12.311,12.31l-43.919 0z"/>
  <path class="fil18" d="M436.289 277.302c-6.798,0 -12.311,-5.511 -12.311,-12.31 0,-6.799 5.512,-12.311 12.311,-12.311l43.919 0c6.799,0 12.311,5.512 12.311,12.311 0,6.799 -5.512,12.31 -12.311,12.31l-43.919 0z"/>
 </g>
</svg>
