<?xml version="1.0" encoding="UTF-8"?>
<!DOCTYPE svg PUBLIC "-//W3C//DTD SVG 1.1//EN" "http://www.w3.org/Graphics/SVG/1.1/DTD/svg11.dtd">
<svg xml:space="preserve" viewBox="0 0 572 286" width="572px" height="286px" version="1.1" style="shape-rendering:geometricPrecision; fill-rule:evenodd; clip-rule:evenodd" xmlns="http://www.w3.org/2000/svg" xmlns:xlink="http://www.w3.org/1999/xlink">
 <defs>
  <style type="text/css">
    .str0 {stroke:#333333;stroke-width:3}
    .str1 {stroke:#1A1A1A}
    .fil2 {fill:none}
    .fil5 {fill:#080808}
    .fil1 {fill:#666666}
    .fil7 {fill:url(#id0)}
    .fil3 {fill:url(#id1)}
    .fil4 {fill:url(#id2)}
    .fil9 {fill:url(#id3)}
    .fil6 {fill:url(#id4)}
    .fil0 {fill:url(#id5)}
    .fil8 {fill:url(#id6);fill-opacity:0.6}
  </style>
  <linearGradient id="id0" gradientUnits="userSpaceOnUse" x1="388.18" y1="217.543" x2="388.18" y2="44.45">
   <stop offset="0" style="stop-opacity:1; stop-color:#B3B3B3"/>
   <stop offset="1" style="stop-opacity:1; stop-color:#CCCCCC"/>
  </linearGradient>
  <linearGradient id="id1" gradientUnits="userSpaceOnUse" x1="146.306" y1="198.399" x2="146.306" y2="133.391">
   <stop offset="0" style="stop-opacity:1; stop-color:#4D4D4D"/>
   <stop offset="1" style="stop-opacity:1; stop-color:#333333"/>
  </linearGradient>
  <linearGradient id="id2" gradientUnits="userSpaceOnUse" x1="146.306" y1="196.32" x2="146.306" y2="133.391">
   <stop offset="0" style="stop-opacity:1; stop-color:#333333"/>
   <stop offset="1" style="stop-opacity:1; stop-color:#1A1A1A"/>
  </linearGradient>
  <linearGradient id="id3" gradientUnits="userSpaceOnUse" x1="146.305" y1="78.588" x2="146.305" y2="133.391">
   <stop offset="0" style="stop-opacity:1; stop-color:#282828"/>
   <stop offset="1" style="stop-opacity:1; stop-color:#101010"/>
  </linearGradient>
  <linearGradient id="id4" gradientUnits="userSpaceOnUse" xlink:href="#id0" x1="146.306" y1="223.817" x2="146.306" y2="42.965">
  </linearGradient>
  <linearGradient id="id5" gradientUnits="userSpaceOnUse" x1="72.796" y1="283.787" x2="72.796" y2="3.233">
   <stop offset="0" style="stop-opacity:1; stop-color:#1A1A1A"/>
   <stop offset="1" style="stop-opacity:1; stop-color:#4D4D4D"/>
  </linearGradient>
  <linearGradient id="id6" gradientUnits="userSpaceOnUse" xlink:href="#id3" x1="146.305" y1="76.698" x2="146.305" y2="133.391">
  </linearGradient>
 </defs>
 <g>
  <g id="shell">
   <path class="fil0" d="M286 21.797c-17.594,0 -35.202,-1.111 -55.807,-3.314 -23.607,-2.524 -37.957,-5.174 -62.269,-11.499 -8.685,-2.259 -12.787,-3.116 -18.963,-3.962 -11.096,-1.518 -25.615,-0.818 -36.582,1.404 -14.451,2.928 -29.39,9.146 -41.288,17.183 -17.26,11.66 -31.897,29.027 -40.458,48.002 -9.807,21.735 -17.154,42.794 -22.876,65.562 -4.369,17.391 -5.464,25.429 -5.179,38.025 0.267,11.803 2.067,22.229 5.719,33.128 13.918,41.539 50.221,71.122 93.996,76.598 14.799,1.851 26.291,0.535 40.481,-2.142 29.319,-5.53 57.004,-9.224 85.267,-11.374 19.604,-1.492 38.738,-2.218 57.959,-2.218 19.221,0 38.355,0.726 57.959,2.218 28.263,2.15 55.948,5.844 85.267,11.374 14.19,2.677 25.682,3.993 40.481,2.142 43.775,-5.476 80.078,-35.059 93.996,-76.598 3.652,-10.899 5.452,-21.325 5.719,-33.128 0.285,-12.596 -0.81,-20.634 -5.179,-38.025 -5.722,-22.768 -13.069,-43.827 -22.876,-65.562 -8.561,-18.975 -23.198,-36.342 -40.458,-48.002 -11.898,-8.037 -26.837,-14.255 -41.288,-17.183 -10.967,-2.222 -25.486,-2.922 -36.582,-1.404 -6.176,0.846 -10.278,1.703 -18.963,3.962 -24.312,6.325 -38.662,8.975 -62.269,11.499 -20.605,2.203 -38.213,3.314 -55.807,3.314z"/>
   <path class="fil1" d="M286 21.797c-5.138,0 -10.276,-0.095 -15.49,-0.284l1.702 9.722 27.576 0 1.702 -9.722c-5.214,0.189 -10.352,0.284 -15.49,0.284z"/>
   <circle class="fil2 str0" cx="146.305" cy="133.391" r="96"/>
   <circle class="fil2 str1" cx="146.305" cy="133.391" r="94"/>
   <circle class="fil3" cx="146.305" cy="133.391" r="65.008"/>
   <circle class="fil4" cx="146.305" cy="133.391" r="62.929"/>
  </g>
  <g id="holes">
   <path class="fil5" d="M326.808 128.01c-5.274,5.278 -10.696,9.864 -17.183,13.609 -6.485,3.745 -13.173,6.146 -20.381,8.078 -2.863,0.768 -5.903,-0.493 -7.384,-3.062 -1.482,-2.569 -1.056,-5.831 1.04,-7.927 5.283,-5.282 10.695,-9.859 17.189,-13.607 6.491,-3.747 13.164,-6.146 20.376,-8.078 2.864,-0.768 5.902,0.49 7.385,3.061 1.483,2.572 1.055,5.826 -1.042,7.926z"/>
   <path class="fil5" d="M326.808 192.725c-5.274,5.279 -10.696,9.865 -17.183,13.61 -6.485,3.744 -13.173,6.146 -20.381,8.078 -2.863,0.767 -5.903,-0.493 -7.384,-3.062 -1.482,-2.569 -1.056,-5.831 1.04,-7.927 5.283,-5.283 10.695,-9.859 17.189,-13.608 6.491,-3.747 13.164,-6.145 20.376,-8.078 2.864,-0.767 5.902,0.49 7.385,3.062 1.483,2.572 1.055,5.826 -1.042,7.925z"/>
   <circle class="fil5" cx="387.983" cy="108.824" r="27.213"/>
   <circle class="fil5" cx="450.363" cy="72.788" r="27.213"/>
   <circle class="fil5" cx="424.014" cy="171.189" r="27.213"/>
   <circle class="fil5" cx="486.393" cy="135.152" r="27.213"/>
  </g>
  <g id="print">
   <path class="fil6" d="M147.304 43.632l7.662 18.465c0.142,0.343 0.107,0.705 -0.1,1.014 -0.207,0.31 -0.527,0.481 -0.899,0.481l-15.323 0c-0.372,0 -0.692,-0.171 -0.899,-0.481 -0.207,-0.309 -0.242,-0.671 -0.099,-1.014l7.661 -18.465c0.171,-0.412 0.552,-0.667 0.999,-0.667 0.446,0 0.827,0.255 0.998,0.667zm-59.241 30.104l12.058 4.986c0.344,0.142 0.574,0.423 0.647,0.788 0.073,0.365 -0.033,0.713 -0.296,0.976l-7.072 7.072c-0.263,0.263 -0.61,0.368 -0.975,0.296 -0.365,-0.073 -0.646,-0.303 -0.788,-0.648l-4.987 -12.058c-0.17,-0.412 -0.081,-0.862 0.235,-1.177 0.316,-0.316 0.765,-0.406 1.178,-0.235zm-31.516 58.656l18.464 -7.661c0.344,-0.143 0.705,-0.107 1.015,0.1 0.309,0.206 0.481,0.527 0.481,0.899l0 15.323c0,0.372 -0.172,0.692 -0.481,0.899 -0.31,0.206 -0.671,0.242 -1.015,0.099l-18.464 -7.661c-0.413,-0.171 -0.667,-0.552 -0.667,-0.999 0,-0.446 0.254,-0.827 0.667,-0.999zm30.103 59.242l4.986 -12.058c0.142,-0.344 0.423,-0.574 0.788,-0.647 0.365,-0.073 0.713,0.032 0.976,0.296l7.072 7.071c0.263,0.263 0.368,0.611 0.296,0.976 -0.073,0.365 -0.303,0.646 -0.648,0.788l-12.057 4.986c-0.413,0.171 -0.862,0.082 -1.178,-0.234 -0.316,-0.316 -0.406,-0.766 -0.235,-1.178zm58.657 31.516l-7.661 -18.464c-0.143,-0.344 -0.108,-0.705 0.099,-1.015 0.207,-0.309 0.527,-0.481 0.899,-0.481l15.323 0c0.372,0 0.692,0.172 0.899,0.481 0.207,0.31 0.242,0.671 0.1,1.015l-7.662 18.464c-0.171,0.413 -0.552,0.667 -0.998,0.667 -0.447,0 -0.828,-0.254 -0.999,-0.667zm59.241 -30.103l-12.058 -4.986c-0.344,-0.143 -0.574,-0.423 -0.647,-0.788 -0.073,-0.366 0.033,-0.713 0.296,-0.976l7.072 -7.072c0.263,-0.263 0.61,-0.369 0.976,-0.296 0.365,0.073 0.645,0.303 0.788,0.647l4.986 12.058c0.17,0.413 0.081,0.862 -0.235,1.178 -0.316,0.316 -0.766,0.405 -1.178,0.235zm31.516 -58.657l-18.464 7.661c-0.344,0.143 -0.705,0.107 -1.014,-0.099 -0.31,-0.207 -0.482,-0.527 -0.482,-0.899l0 -15.323c0,-0.372 0.172,-0.693 0.482,-0.899 0.309,-0.207 0.67,-0.243 1.014,-0.1l18.464 7.661c0.413,0.172 0.667,0.553 0.667,0.999 0,0.447 -0.254,0.828 -0.667,0.999zm-30.103 -59.241l-4.986 12.058c-0.143,0.344 -0.423,0.574 -0.788,0.647 -0.366,0.073 -0.713,-0.033 -0.976,-0.296l-7.072 -7.072c-0.263,-0.263 -0.369,-0.611 -0.296,-0.976 0.073,-0.365 0.303,-0.646 0.647,-0.788l12.058 -4.986c0.413,-0.17 0.863,-0.081 1.178,0.235 0.316,0.316 0.405,0.765 0.235,1.178z"/>
   <path class="fil7" d="M485.164 80.332l-3.028 14.374 5.289 0c1.642,0 2.995,-0.165 4.058,-0.495 1.063,-0.329 2.046,-1.026 2.947,-2.089 0.647,-0.754 1.151,-1.656 1.515,-2.706 0.363,-1.049 0.545,-2.126 0.545,-3.23 0,-1.305 -0.283,-2.439 -0.848,-3.401 -0.565,-0.963 -1.339,-1.625 -2.322,-1.989 -0.525,-0.188 -1.06,-0.313 -1.605,-0.373 -0.545,-0.061 -1.49,-0.091 -2.836,-0.091l-3.715 0zm2.564 2.624l1.938 0c1.225,0 2.143,0.27 2.756,0.808 0.612,0.538 0.918,1.406 0.918,2.604 0,0.969 -0.195,1.901 -0.585,2.796 -0.39,0.895 -0.902,1.585 -1.534,2.07 -0.471,0.363 -0.983,0.598 -1.535,0.706 -0.551,0.108 -1.218,0.161 -1.998,0.161l-1.898 0 1.938 -9.145zm32.868 62.469l-3.048 14.374 6.662 0c1.454,0 2.53,-0.094 3.23,-0.283 0.969,-0.255 1.753,-0.804 2.352,-1.645 0.599,-0.841 0.899,-1.767 0.899,-2.776 0,-1.494 -0.687,-2.47 -2.06,-2.927 0.821,-0.162 1.474,-0.552 1.959,-1.171 0.484,-0.619 0.726,-1.366 0.726,-2.241 0,-0.619 -0.114,-1.144 -0.343,-1.575 -0.229,-0.431 -0.501,-0.76 -0.818,-0.989 -0.316,-0.229 -0.74,-0.404 -1.271,-0.525 -0.532,-0.121 -0.99,-0.192 -1.373,-0.212 -0.384,-0.02 -0.872,-0.03 -1.464,-0.03l-5.451 0zm2.544 2.443l2.544 0c0.309,0 0.532,0.003 0.666,0.009 0.135,0.007 0.343,0.031 0.626,0.071 0.282,0.041 0.491,0.108 0.625,0.202 0.135,0.094 0.263,0.236 0.384,0.424 0.121,0.189 0.182,0.424 0.182,0.707 0,0.417 -0.078,0.767 -0.232,1.049 -0.155,0.283 -0.384,0.488 -0.687,0.616 -0.303,0.128 -0.602,0.216 -0.898,0.263 -0.296,0.047 -0.646,0.07 -1.05,0.07l-2.887 0 0.727 -3.411zm-1.171 5.531l2.665 0 0.687 0c0.094,0 0.302,0.014 0.625,0.04 0.323,0.027 0.545,0.075 0.666,0.142 0.122,0.067 0.28,0.162 0.475,0.283 0.195,0.12 0.33,0.289 0.404,0.504 0.073,0.216 0.11,0.465 0.11,0.747 0,0.498 -0.1,0.909 -0.302,1.232 -0.202,0.323 -0.498,0.548 -0.888,0.676 -0.391,0.128 -0.747,0.212 -1.07,0.252 -0.324,0.041 -0.734,0.061 -1.232,0.061l-2.988 0 0.848 -3.937zm-107.517 49.77l-3.251 0 -8.519 14.374 3.351 0 1.838 -3.21 5.349 0 0.485 3.21 3.149 0 -2.402 -14.374zm-5.35 8.843l3.069 -5.451 0.787 5.451 -3.856 0zm-24.539 -61.777l-3.149 0c-0.229,0.942 -0.649,1.669 -1.262,2.18 -0.612,0.512 -1.363,0.767 -2.251,0.767 -0.996,0 -1.773,-0.336 -2.331,-1.009 -0.559,-0.673 -0.838,-1.608 -0.838,-2.806 0,-0.7 0.09,-1.397 0.272,-2.09 0.182,-0.693 0.448,-1.346 0.798,-1.958 0.35,-0.613 0.824,-1.11 1.423,-1.494 0.599,-0.384 1.268,-0.575 2.009,-0.575 0.955,0 1.662,0.222 2.119,0.666 0.458,0.444 0.707,1.137 0.747,2.079l3.049 0 0 -0.302c0,-1.508 -0.522,-2.719 -1.565,-3.634 -1.043,-0.916 -2.426,-1.373 -4.148,-1.373 -2.396,0 -4.304,0.841 -5.724,2.523 -1.42,1.683 -2.13,3.742 -2.13,6.178 0,1.992 0.539,3.546 1.615,4.664 1.077,1.116 2.578,1.675 4.502,1.675 1.79,0 3.304,-0.488 4.543,-1.464 1.238,-0.975 2.012,-2.318 2.321,-4.027zm-77.059 -98.822l0 -6.963 -5.669 0 0 15.846 5.669 0 0 -7.008 9.016 7.008 7.276 0 -10.266 -7.901 10.266 -7.945 -7.276 0 -9.016 6.963zm-28.879 -6.963l0 15.846 5.58 0 0 -9.954 10.623 9.954 5.802 0 0 -15.846 -5.579 0 0 9.909 -10.623 -9.909 -5.803 0zm-23.166 5.089c0,2.812 1.875,5.088 4.196,5.088l11.649 0c0.268,0 0.536,0.268 0.536,0.625 0,0.357 -0.223,0.625 -0.536,0.625l-15.889 0 0 4.508 17.764 0c2.321,0 4.196,-2.321 4.196,-5.133 0,-2.812 -1.875,-5.133 -4.196,-5.133l-11.605 0c-0.268,0 -0.536,-0.268 -0.536,-0.625 0,-0.357 0.224,-0.625 0.536,-0.625l15.756 0 0 -4.419 -17.674 0c-2.321,0 -4.196,2.276 -4.196,5.089l-0.001 0zm45.205 26.049l0.353 0c0.329,0 0.893,0.068 1.125,0.204 0.232,0.135 0.385,0.287 0.459,0.454 0.074,0.168 0.111,0.538 0.111,1.109l0 2.242c0,0.677 -0.715,1.022 -1.059,1.097 -0.346,0.075 -0.682,0.112 -1.01,0.112 -0.944,0 -1.759,-0.246 -2.446,-0.737 -0.686,-0.492 -1.184,-1.261 -1.493,-2.309 -0.308,-1.047 -0.461,-2.265 -0.461,-3.655 0,-1.147 0.141,-2.266 0.422,-3.355 0.282,-1.091 0.762,-1.94 1.439,-2.55 0.678,-0.608 1.526,-0.913 2.546,-0.913 1.067,0 1.691,0.27 2.477,1.086 0.803,0.834 1.573,1.782 2.023,3.173l0.657 0 0 -5.109 -0.374 0c-0.135,0.41 -0.282,0.687 -0.443,0.834 -0.161,0.147 -0.336,0.22 -0.523,0.22 -0.121,0 -0.513,-0.132 -1.173,-0.398 -0.661,-0.267 -1.139,-0.428 -1.434,-0.485 -0.543,-0.114 -0.966,-0.171 -1.643,-0.171 -2.186,0 -4.002,0.752 -5.445,2.255 -1.442,1.504 -2.164,3.345 -2.164,5.525 0,1.218 0.235,2.319 0.705,3.302 0.369,0.762 0.88,1.447 1.534,2.057 0.654,0.609 1.41,1.101 2.264,1.475 0.856,0.374 1.932,0.561 3.226,0.561 1.014,0 1.991,-0.105 2.934,-0.314 0.943,-0.21 1.85,-0.521 2.724,-0.933l0 -3.013c0,-0.528 0.029,-0.86 0.09,-0.996 0.107,-0.257 0.259,-0.44 0.457,-0.551 0.197,-0.112 0.736,-0.184 1.239,-0.22l0 -0.493 -7.119 0 0 0.493 0.002 0.003zm16.365 3.903c-0.811,0.621 -1.891,0.932 -3.238,0.932l-0.768 0c-0.411,0 -0.708,-0.056 -0.892,-0.169 -0.185,-0.114 -0.311,-0.258 -0.378,-0.435 -0.067,-0.176 -0.101,-0.66 -0.101,-1.451l0 -4.047c0.692,0 1.502,0.09 1.866,0.271 0.362,0.18 0.681,0.532 0.955,1.055 0.276,0.524 0.456,1.102 0.541,1.923l0.584 0 0 -7.449 -0.584 0c-0.114,1.119 -0.378,1.87 -0.791,2.444 -0.414,0.573 -1.08,0.86 -1.999,0.86l-0.572 0 0 -4.997c-0.005,-0.868 0.769,-0.767 0.769,-0.767l0.905 0c1.094,0 1.839,0.064 2.236,0.191 0.682,0.212 1.209,0.545 1.582,0.997 0.373,0.452 0.662,1.198 0.868,2.237l0.49 0 0 -4.254 -12.171 0 0 0.582 0.384 0c0.467,0 0.837,0.099 1.105,0.297 0.192,0.134 0.323,0.325 0.394,0.572 0.035,0.148 0.053,0.548 0.053,1.198l0 9.001c0,0.721 -0.039,1.166 -0.117,1.336 -0.099,0.24 -0.241,0.41 -0.425,0.508 -0.255,0.149 -0.592,0.223 -1.01,0.223l-0.384 0 0 0.677 12.377 0 0.743 -4.577 -0.679 0c-0.354,1.274 -0.937,2.222 -1.749,2.842m0.006 0l0 0 0 0zm9.577 -12.885c-2.074,-0.086 -3.822,0.59 -5.242,2.029 -1.422,1.437 -2.131,3.235 -2.131,5.39 0,1.92 0.546,3.58 1.639,4.979 1.382,1.769 3.338,2.656 5.869,2.656 2.523,0 4.477,-0.928 5.86,-2.785 1.044,-1.397 1.566,-3.018 1.566,-4.86 0,-2.156 -0.7,-3.951 -2.099,-5.386 -1.4,-1.436 -3.22,-2.11 -5.46,-2.023m3.308 11.52c-0.338,1.003 -0.812,1.732 -1.42,2.188 -0.477,0.357 -1.072,0.535 -1.785,0.535 -1.058,0 -1.88,-0.414 -2.469,-1.241 -0.844,-1.184 -1.266,-3.014 -1.266,-5.49 0,-2.084 0.273,-3.681 0.819,-4.794 0.671,-1.355 1.649,-2.033 2.935,-2.033 0.699,0 1.315,0.197 1.851,0.589 0.536,0.392 0.977,1.065 1.323,2.017 0.345,0.953 0.518,2.388 0.518,4.308 0,1.612 -0.169,2.92 -0.508,3.923m0.002 -0.002l0 0 0 0zm-49.266 3.45c2.523,0 4.477,-0.928 5.86,-2.785 1.044,-1.398 1.566,-3.018 1.566,-4.86 0,-2.155 -0.7,-3.951 -2.099,-5.386 -1.4,-1.435 -3.22,-2.109 -5.46,-2.023 -2.074,-0.086 -3.822,0.59 -5.241,2.029 -1.422,1.438 -2.132,3.235 -2.132,5.391 0,1.92 0.546,3.579 1.639,4.978 1.382,1.77 3.339,2.656 5.87,2.656m-2.97 -12.328c0.671,-1.355 1.649,-2.033 2.935,-2.033 0.698,0 1.315,0.196 1.851,0.589 0.536,0.392 0.976,1.065 1.322,2.017 0.346,0.953 0.519,2.388 0.519,4.307 0,1.612 -0.169,2.92 -0.509,3.922 -0.338,1.003 -0.812,1.733 -1.42,2.19 -0.477,0.357 -1.072,0.535 -1.785,0.535 -1.057,0 -1.88,-0.414 -2.469,-1.242 -0.843,-1.184 -1.266,-3.013 -1.266,-5.489 0,-2.084 0.273,-3.682 0.82,-4.795m0.002 -0.001l0 0 0 0zm-4.342 7.285l-0.68 0c-0.354,1.274 -0.937,2.222 -1.749,2.843 -0.811,0.621 -1.891,0.932 -3.236,0.932l-0.768 0c-0.412,0 -0.708,-0.057 -0.893,-0.17 -0.184,-0.113 -0.31,-0.258 -0.378,-0.434 -0.067,-0.177 -0.101,-0.66 -0.101,-1.451l0 -4.048c0.692,0 1.502,0.09 1.866,0.271 0.363,0.18 0.682,0.533 0.956,1.056 0.275,0.524 0.455,1.102 0.54,1.923l0.584 0 0 -7.449 -0.584 0c-0.114,1.119 -0.378,1.87 -0.791,2.443 -0.413,0.574 -1.08,0.861 -1.999,0.861l-0.572 0 0 -4.997c-0.005,-0.868 0.77,-0.768 0.77,-0.768l0.904 0c1.094,0 1.84,0.064 2.237,0.191 0.682,0.212 1.21,0.545 1.582,0.997 0.373,0.453 0.662,1.199 0.868,2.238l0.49 0 0 -4.259 -12.171 0 0 0.587 0.384 0c0.468,0 0.836,0.099 1.106,0.296 0.191,0.135 0.322,0.326 0.392,0.573 0.036,0.148 0.054,0.547 0.054,1.197l0 9.002c0,0.72 -0.039,1.165 -0.117,1.334 -0.099,0.24 -0.241,0.41 -0.425,0.509 -0.255,0.148 -0.592,0.222 -1.01,0.222l-0.384 0 0 0.677 12.377 0 0.744 -4.577 0.004 0.001zm-23.36 3.891l-0.328 0c-0.471,0 -0.89,-0.144 -1.256,-0.434 -0.365,-0.289 -0.548,-0.846 -0.548,-1.672l0 -8.694 9.418 11.74 0.61 0.001 0 -11.974c0,-0.681 0.057,-0.879 0.169,-1.159 0.112,-0.28 0.269,-0.482 0.47,-0.606 0.201,-0.124 0.595,-0.225 1.18,-0.304l0 -0.609 -4.672 0 0 0.609c0.771,-0.013 1.321,0.185 1.647,0.597 0.239,0.304 0.358,0.607 0.358,1.472l0 6.271 -7.331 -8.948 -4.461 0 0 0.483c0.424,0.014 0.438,0.156 0.664,0.276l1.196 1.203 -0.002 9.641c0,0.762 -0.151,1.302 -0.452,1.62 -0.3,0.318 -0.834,0.48 -1.6,0.487l0 0.583 4.937 0 0 -0.583 0.001 0zm42.114 -6.376c0,0.957 -0.775,1.732 -1.732,1.732 -0.957,0 -1.732,-0.776 -1.732,-1.732 0,-0.956 0.776,-1.732 1.732,-1.732 0.957,0 1.732,0.776 1.732,1.732zm-18.311 33.522l0 -0.148c0,-0.924 -0.312,-1.635 -0.936,-2.133 -0.623,-0.498 -1.523,-0.747 -2.698,-0.747 -1.122,0 -2.023,0.269 -2.706,0.807 -0.681,0.539 -1.022,1.252 -1.022,2.14 0,0.934 0.435,1.634 1.305,2.1 0.359,0.198 1.046,0.44 2.06,0.727 0.188,0.054 0.327,0.094 0.416,0.121 0.09,0.027 0.214,0.076 0.371,0.148 0.157,0.072 0.273,0.146 0.35,0.222 0.076,0.076 0.148,0.177 0.215,0.303 0.067,0.126 0.101,0.269 0.101,0.431 0,0.412 -0.166,0.74 -0.498,0.982 -0.332,0.242 -0.776,0.364 -1.333,0.364 -1.327,0 -1.991,-0.548 -1.991,-1.642l0 -0.135 -2.06 0 0 0.229c0,0.565 0.101,1.059 0.303,1.48 0.202,0.422 0.487,0.749 0.855,0.983 0.368,0.233 0.774,0.406 1.218,0.518 0.444,0.112 0.935,0.168 1.474,0.168 0.709,0 1.357,-0.099 1.944,-0.296 0.588,-0.197 1.088,-0.54 1.501,-1.029 0.413,-0.49 0.619,-1.093 0.619,-1.811 0,-0.951 -0.377,-1.655 -1.13,-2.113 -0.368,-0.224 -1.059,-0.475 -2.073,-0.754 -0.027,-0.008 -0.099,-0.029 -0.215,-0.06 -0.117,-0.032 -0.2,-0.054 -0.249,-0.067 -0.05,-0.014 -0.13,-0.039 -0.242,-0.074 -0.113,-0.036 -0.196,-0.068 -0.25,-0.095 -0.053,-0.026 -0.123,-0.065 -0.208,-0.114 -0.085,-0.049 -0.151,-0.099 -0.195,-0.148 -0.045,-0.049 -0.092,-0.105 -0.142,-0.168 -0.049,-0.063 -0.085,-0.135 -0.107,-0.216 -0.023,-0.08 -0.034,-0.165 -0.034,-0.255 0,-0.359 0.151,-0.646 0.451,-0.862 0.3,-0.215 0.702,-0.323 1.205,-0.323 0.583,0 1.004,0.11 1.265,0.33 0.26,0.22 0.408,0.599 0.444,1.137l1.992 0zm9.582 -2.853l-7.281 0 -2.032 9.583 7.389 0 0.377 -1.75 -5.317 0 0.512 -2.369 4.832 0 0.35 -1.642 -4.832 0 0.444 -2.113 5.208 0 0.35 -1.709zm3.769 0l-2.1 0 -2.032 9.583 6.783 0 0.377 -1.777 -4.683 0 1.655 -7.806zm12.934 0l-7.281 0 -2.033 9.583 7.389 0 0.377 -1.75 -5.316 0 0.511 -2.369 4.832 0 0.35 -1.642 -4.832 0 0.444 -2.113 5.209 0 0.35 -1.709zm8.896 6.151l-2.099 0c-0.153,0.628 -0.433,1.112 -0.842,1.453 -0.408,0.341 -0.908,0.512 -1.5,0.512 -0.664,0 -1.182,-0.225 -1.555,-0.673 -0.372,-0.449 -0.558,-1.072 -0.558,-1.871 0,-0.466 0.06,-0.931 0.182,-1.393 0.12,-0.462 0.298,-0.897 0.531,-1.306 0.233,-0.408 0.549,-0.74 0.949,-0.996 0.399,-0.255 0.845,-0.383 1.339,-0.383 0.637,0 1.108,0.148 1.413,0.444 0.305,0.296 0.471,0.758 0.498,1.386l2.033 0 0 -0.202c0,-1.005 -0.348,-1.812 -1.044,-2.422 -0.695,-0.61 -1.617,-0.915 -2.765,-0.915 -1.598,0 -2.869,0.561 -3.816,1.682 -0.947,1.122 -1.42,2.494 -1.42,4.119 0,1.327 0.359,2.364 1.077,3.109 0.718,0.744 1.718,1.116 3.001,1.116 1.193,0 2.203,-0.325 3.028,-0.975 0.826,-0.651 1.342,-1.546 1.548,-2.685zm9.852 -6.151l-8.021 0 -0.364 1.736 3.002 0 -1.669 7.847 2.099 0 1.669 -7.847 2.921 0 0.363 -1.736zm-40.296 67.746l0 -0.148c0,-0.924 -0.311,-1.635 -0.935,-2.133 -0.624,-0.498 -1.523,-0.747 -2.699,-0.747 -1.121,0 -2.023,0.269 -2.705,0.807 -0.682,0.539 -1.023,1.252 -1.023,2.14 0,0.934 0.435,1.634 1.306,2.1 0.359,0.198 1.045,0.44 2.059,0.727 0.188,0.054 0.328,0.094 0.417,0.121 0.09,0.027 0.213,0.076 0.37,0.148 0.157,0.072 0.274,0.146 0.35,0.222 0.076,0.076 0.148,0.177 0.216,0.303 0.067,0.126 0.1,0.269 0.1,0.431 0,0.412 -0.165,0.74 -0.497,0.982 -0.333,0.242 -0.777,0.364 -1.333,0.364 -1.328,0 -1.992,-0.548 -1.992,-1.642l0 -0.135 -2.059 0 0 0.229c0,0.565 0.101,1.059 0.303,1.48 0.202,0.422 0.487,0.749 0.854,0.983 0.369,0.233 0.774,0.406 1.219,0.518 0.444,0.112 0.935,0.168 1.473,0.168 0.709,0 1.357,-0.099 1.945,-0.296 0.588,-0.197 1.088,-0.54 1.501,-1.029 0.412,-0.49 0.619,-1.093 0.619,-1.811 0,-0.951 -0.377,-1.655 -1.131,-2.113 -0.368,-0.224 -1.058,-0.475 -2.072,-0.754 -0.027,-0.008 -0.099,-0.029 -0.216,-0.06 -0.116,-0.031 -0.199,-0.054 -0.249,-0.067 -0.049,-0.014 -0.13,-0.039 -0.242,-0.074 -0.112,-0.036 -0.195,-0.068 -0.249,-0.095 -0.054,-0.026 -0.123,-0.065 -0.209,-0.114 -0.085,-0.049 -0.15,-0.099 -0.195,-0.148 -0.045,-0.049 -0.092,-0.105 -0.141,-0.168 -0.049,-0.063 -0.085,-0.135 -0.108,-0.216 -0.022,-0.08 -0.033,-0.165 -0.033,-0.255 0,-0.359 0.15,-0.646 0.451,-0.862 0.3,-0.215 0.702,-0.323 1.204,-0.323 0.583,0 1.005,0.11 1.265,0.33 0.261,0.22 0.408,0.599 0.444,1.137l1.992 0zm9.381 -2.853l-8.021 0 -0.364 1.736 3.002 0 -1.669 7.847 2.099 0 1.669 -7.847 2.921 0 0.363 -1.736zm5.168 0l-2.167 0 -5.679 9.583 2.234 0 1.225 -2.14 3.566 0 0.323 2.14 2.1 0 -1.602 -9.583zm-3.566 5.895l2.045 -3.634 0.525 3.634 -2.57 0zm7.887 -5.895l-2.019 9.583 2.072 0 0.794 -3.755 1.817 0c0.548,0 0.943,0.076 1.185,0.228 0.242,0.153 0.363,0.472 0.363,0.956 0,0.207 -0.015,0.52 -0.047,0.942 -0.031,0.422 -0.047,0.741 -0.047,0.956 0,0.269 0.031,0.493 0.094,0.673l2.086 0c-0.089,-0.198 -0.134,-0.485 -0.134,-0.862 0,-0.224 0.011,-0.558 0.033,-1.002 0.023,-0.444 0.034,-0.778 0.034,-1.003 0,-0.799 -0.327,-1.337 -0.982,-1.615 0.663,-0.108 1.193,-0.401 1.588,-0.882 0.394,-0.48 0.592,-1.07 0.592,-1.769 0,-0.611 -0.153,-1.118 -0.458,-1.521 -0.305,-0.404 -0.735,-0.669 -1.292,-0.794 -0.422,-0.09 -0.978,-0.135 -1.669,-0.135l-4.01 0zm1.736 1.656l1.911 0c0.53,0 0.94,0.074 1.231,0.221 0.292,0.149 0.438,0.451 0.438,0.909 0,0.323 -0.059,0.592 -0.175,0.808 -0.117,0.215 -0.287,0.372 -0.512,0.471 -0.224,0.098 -0.448,0.166 -0.672,0.201 -0.225,0.036 -0.494,0.054 -0.808,0.054l-1.978 0 0.565 -2.664zm14.953 -1.656l-8.022 0 -0.363 1.736 3.001 0 -1.669 7.847 2.1 0 1.669 -7.847 2.92 0 0.364 -1.736z"/>
  </g>
  <g id="dpad-under">
   <circle class="fil5" cx="146.305" cy="133.391" r="61.039"/>
   <path class="fil8" d="M146.306 76.698c31.31,0 56.693,25.383 56.693,56.693 0,31.311 -25.383,56.693 -56.693,56.693 -31.311,0 -56.693,-25.382 -56.693,-56.693 0,-31.31 25.382,-56.693 56.693,-56.693z"/>
   <circle class="fil9" cx="146.305" cy="133.391" r="54.803"/>
  </g>
 </g>
</svg>
