<?xml version="1.0" encoding="UTF-8"?>
<!DOCTYPE svg PUBLIC "-//W3C//DTD SVG 1.1//EN" "http://www.w3.org/Graphics/SVG/1.1/DTD/svg11.dtd">
<svg xml:space="preserve" viewBox="0 0 572 286" width="572px" height="286px" version="1.1" style="shape-rendering:geometricPrecision; fill-rule:evenodd; clip-rule:evenodd" xmlns="http://www.w3.org/2000/svg">
 <defs>
  <style type="text/css">
    .fil0 {fill:red}
    .fil1 {fill:white}
  </style>
 </defs>
 <g>
  <path class="fil0" d="M286 21.797c-17.594,0 -35.202,-1.111 -55.807,-3.314 -23.607,-2.524 -37.957,-5.174 -62.269,-11.499 -8.685,-2.259 -12.787,-3.116 -18.963,-3.962 -11.096,-1.518 -25.615,-0.818 -36.582,1.404 -14.451,2.928 -29.39,9.146 -41.288,17.183 -17.26,11.66 -31.897,29.027 -40.458,48.002 -9.807,21.735 -17.154,42.794 -22.876,65.562 -4.369,17.391 -5.464,25.429 -5.179,38.025 0.267,11.803 2.067,22.229 5.719,33.128 13.918,41.539 50.221,71.122 93.996,76.598 14.799,1.851 26.291,0.535 40.481,-2.142 29.319,-5.53 57.004,-9.224 85.267,-11.374 19.604,-1.492 38.738,-2.218 57.959,-2.218 19.221,0 38.355,0.726 57.959,2.218 28.263,2.15 55.948,5.844 85.267,11.374 14.19,2.677 25.682,3.993 40.481,2.142 43.775,-5.476 80.078,-35.059 93.996,-76.598 3.652,-10.899 5.452,-21.325 5.719,-33.128 0.285,-12.596 -0.81,-20.634 -5.179,-38.025 -5.722,-22.768 -13.069,-43.827 -22.876,-65.562 -8.561,-18.975 -23.198,-36.342 -40.458,-48.002 -11.898,-8.037 -26.837,-14.255 -41.288,-17.183 -10.967,-2.222 -25.486,-2.922 -36.582,-1.404 -6.176,0.846 -10.278,1.703 -18.963,3.962 -24.312,6.325 -38.662,8.975 -62.269,11.499 -20.605,2.203 -38.213,3.314 -55.807,3.314z"/>
  <path class="fil1" d="M286 79.37c35.142,0 63.629,28.488 63.629,63.63 0,35.142 -28.487,63.63 -63.629,63.63 -35.142,0 -63.629,-28.488 -63.629,-63.63 0,-35.142 28.487,-63.63 63.629,-63.63zm7.937 66.832c1.161,1.161 1.161,3.057 0,4.217l-5.941 5.942 2.507 2.505c0.885,0.888 0.885,2.327 0,3.215l-5.892 5.889c-5.2,5.2 -12.98,6.245 -19.219,3.137l-12.947 12.948c9.14,7.481 20.821,11.97 33.555,11.97 29.285,0 53.025,-23.74 53.025,-53.025 0,-12.734 -4.489,-24.415 -11.97,-33.555l-12.938 12.938c3.11,6.236 2.065,14.02 -3.135,19.221l-5.892 5.892c-0.885,0.886 -2.324,0.886 -3.212,0l-20.353 -20.356c-0.889,-0.885 -0.889,-2.325 0,-3.212l5.889 -5.892c5.195,-5.193 12.963,-6.244 19.195,-3.147l12.946 -12.946c-9.14,-7.48 -20.823,-11.968 -33.555,-11.968 -29.285,0 -53.025,23.74 -53.025,53.025 0,12.732 4.488,24.415 11.968,33.555l12.955 -12.953c-3.097,-6.234 -2.047,-14.005 3.146,-19.197l5.892 -5.892c0.888,-0.888 2.326,-0.888 3.212,0l2.493 2.493 5.942 -5.942c1.16,-1.16 3.058,-1.16 4.218,0 1.161,1.162 1.161,3.057 0,4.217l-5.941 5.942 6.917 6.92 5.942 -5.941c1.16,-1.161 3.058,-1.161 4.218,0z"/>
 </g>
</svg>
