<?xml version="1.0" encoding="UTF-8"?>
<!DOCTYPE svg PUBLIC "-//W3C//DTD SVG 1.1//EN" "http://www.w3.org/Graphics/SVG/1.1/DTD/svg11.dtd">
<svg xml:space="preserve" viewBox="0 0 876 372" width="876px" height="372px" version="1.1" style="shape-rendering:geometricPrecision; fill-rule:evenodd; clip-rule:evenodd" xmlns="http://www.w3.org/2000/svg">
 <defs>
  <style type="text/css">
    .fil0 {fill:#1A1A1A}
    .fil1 {fill:#FFF099}
  </style>
 </defs>
 <g>
  <rect class="fil0" x="57.324" y="56.962" width="59.039" height="59.039"/>
  <path class="fil1" d="M77.955 106.546l0 1.152 -18.176 0 0 -1.152 1.505 0c1.759,0 3.029,-0.512 3.829,-1.526 0.501,-0.672 0.746,-2.272 0.746,-4.81l0 -27.456c0,-2.144 -0.138,-3.563 -0.405,-4.245 -0.213,-0.523 -0.64,-0.971 -1.29,-1.344 -0.918,-0.502 -1.878,-0.747 -2.88,-0.747l-1.505 0 0 -1.152c10.693,0 21.385,0 32.077,0l0 1.152 -1.131 0c-1.162,0 -2.016,0.256 -2.56,0.757 -0.543,0.501 -0.81,1.184 -0.81,2.048 0,1.067 0.469,2.944 1.408,5.611l8.139 23.029 8.053 -23.36c0.917,-2.603 1.376,-4.405 1.376,-5.408 0,-0.48 -0.15,-0.939 -0.448,-1.354 -0.309,-0.417 -0.683,-0.715 -1.142,-0.886 -0.799,-0.288 -1.824,-0.437 -3.093,-0.437l0 -1.152 12.63 0 0 1.152c-1.099,0 -1.995,0.202 -2.688,0.597 -0.683,0.395 -1.344,1.131 -1.963,2.219 -0.416,0.725 -1.077,2.474 -1.973,5.227l-11.776 34.197 -1.259 0c-4.595,-12.902 -8.835,-24.625 -13.333,-37.451 -0.438,-1.056 -0.928,-1.973 -1.462,-2.773 -0.277,-0.395 -0.608,-0.736 -1.002,-1.014 -0.523,-0.373 -1.046,-0.65 -1.568,-0.81 -0.295,-0.096 -0.722,-0.156 -1.274,-0.18 -1.498,0.083 -2.607,0.59 -3.326,1.513 -0.522,0.672 -0.779,2.272 -0.779,4.811l0 27.456c0,2.144 0.139,3.562 0.406,4.245 0.202,0.523 0.64,0.971 1.312,1.344 0.896,0.501 1.834,0.747 2.837,0.747l1.525 0z"/>
 </g>
</svg>
