<?xml version="1.0" encoding="UTF-8"?>
<!DOCTYPE svg PUBLIC "-//W3C//DTD SVG 1.1//EN" "http://www.w3.org/Graphics/SVG/1.1/DTD/svg11.dtd">
<svg xml:space="preserve" viewBox="0 0 876 372" width="876px" height="372px" version="1.1" style="shape-rendering:geometricPrecision; fill-rule:evenodd; clip-rule:evenodd" xmlns="http://www.w3.org/2000/svg">
 <defs>
  <style type="text/css">
    .fil0 {fill:#1A1A1A}
    .fil1 {fill:#FFF099}
  </style>
 </defs>
 <g>
  <rect class="fil0" x="57.324" y="56.962" width="59.039" height="59.039"/>
  <path class="fil1" d="M63.473 107.698l0 -1.152 1.504 0c1.76,0 3.03,-0.512 3.829,-1.526 0.502,-0.672 0.747,-2.272 0.747,-4.81l0 -27.456c0,-2.144 -0.139,-3.563 -0.405,-4.245 -0.214,-0.523 -0.64,-0.971 -1.291,-1.344 -0.917,-0.502 -1.877,-0.747 -2.88,-0.747l-1.504 0 0 -1.152c15.58,0 31.161,0 46.741,0l0 1.152 -1.525 0c-1.728,0 -2.987,0.512 -3.776,1.525 -0.523,0.672 -0.779,2.272 -0.779,4.811l0 27.456c0,2.144 0.139,3.562 0.406,4.245 0.202,0.523 0.639,0.971 1.311,1.344 0.897,0.501 1.835,0.747 2.838,0.747l1.525 0 0 1.152c-15.58,0 -31.161,0 -46.741,0zm30.468 -41.267c-1.49,0.086 -2.594,0.592 -3.311,1.512 -0.522,0.672 -0.778,2.272 -0.778,4.811l0 27.456c0,2.144 0.138,3.562 0.405,4.245 0.203,0.523 0.64,0.971 1.312,1.344 0.777,0.435 1.587,0.677 2.443,0.734 1.518,-0.085 2.632,-0.592 3.359,-1.513 0.502,-0.672 0.747,-2.272 0.747,-4.81l0 -27.456c0,-2.144 -0.139,-3.563 -0.405,-4.245 -0.214,-0.523 -0.64,-0.971 -1.291,-1.344 -0.795,-0.435 -1.622,-0.677 -2.481,-0.734zm-14.282 0c-1.491,0.086 -2.594,0.592 -3.311,1.512 -0.523,0.672 -0.779,2.272 -0.779,4.811l0 27.456c0,2.144 0.139,3.562 0.406,4.245 0.202,0.523 0.639,0.971 1.311,1.344 0.778,0.435 1.588,0.677 2.443,0.734 1.518,-0.085 2.633,-0.592 3.36,-1.513 0.501,-0.672 0.747,-2.272 0.747,-4.81l0 -27.456c0,-2.144 -0.139,-3.563 -0.406,-4.245 -0.213,-0.523 -0.64,-0.971 -1.29,-1.344 -0.795,-0.435 -1.622,-0.677 -2.481,-0.734z"/>
 </g>
</svg>
