<?xml version="1.0" encoding="UTF-8"?>
<!DOCTYPE svg PUBLIC "-//W3C//DTD SVG 1.1//EN" "http://www.w3.org/Graphics/SVG/1.1/DTD/svg11.dtd">
<svg xml:space="preserve" viewBox="0 0 890 384" width="890px" height="384px" version="1.1" style="shape-rendering:geometricPrecision; fill-rule:evenodd; clip-rule:evenodd" xmlns="http://www.w3.org/2000/svg">
 <defs>
  <style type="text/css">
    .str2 {stroke:#1A1A1A}
    .str1 {stroke:#1A1A1A;stroke-width:4}
    .str3 {stroke:#1A1A1A;stroke-width:1.5}
    .str0 {stroke:#1A1A1A;stroke-width:2}
    .fil5 {fill:none}
    .fil7 {fill:black}
    .fil11 {fill:#202020}
    .fil14 {fill:#262626}
    .fil15 {fill:#CA0C14}
    .fil10 {fill:#D02020}
    .fil4 {fill:#E6E6E6}
    .fil3 {fill:#2C2C2E}
    .fil1 {fill:#38383B}
    .fil0 {fill:#5C5C61}
    .fil2 {fill:#808087}
    .fil8 {fill:#1A1A1A}
    .fil9 {fill:#D02020}
    .fil12 {fill:white}
    .fil17 {fill:black;fill-opacity:0.1}
    .fil16 {fill:black;fill-opacity:0.3}
    .fil13 {fill:black;fill-opacity:0.5}
    .fil6 {fill:url(#id0);fill-opacity:0.3}
  </style>
  <linearGradient id="id0" gradientUnits="userSpaceOnUse" x1="517.972" y1="305.396" x2="517.972" y2="228.133">
   <stop offset="0" style="stop-opacity:1; stop-color:white"/>
   <stop offset="0.2" style="stop-opacity:1; stop-color:white"/>
   <stop offset="0.5" style="stop-opacity:1; stop-color:#5C5C61"/>
   <stop offset="0.8" style="stop-opacity:1; stop-color:black"/>
   <stop offset="1" style="stop-opacity:1; stop-color:black"/>
  </linearGradient>
 </defs>
 <g>
  <path class="fil0" d="M57.018 5.35l240.428 0c8.264,0 15.378,4.925 18.567,11.999l83.445 0c3.189,-7.074 10.302,-11.999 18.566,-11.999l414.958 0c27.67,0 50.308,22.639 50.308,50.308l0 272.684c0,27.669 -22.638,50.308 -50.308,50.308l-775.964 0c-27.67,0 -50.308,-22.639 -50.308,-50.308l0 -272.684c0,-27.669 22.638,-50.308 50.308,-50.308z"/>
  <path class="fil1" d="M883.29 323.342l0 5c0,27.669 -22.638,50.308 -50.308,50.308l-775.964 0c-27.67,0 -50.308,-22.639 -50.308,-50.308l0 -5c0,27.669 22.638,50.308 50.308,50.308l775.964 0c27.67,0 50.308,-22.639 50.308,-50.308z"/>
  <path class="fil2" d="M57.018 5.35l240.428 0c8.264,0 15.378,4.925 18.567,11.999l-3.207 0c-3.732,-4.288 -9.229,-6.999 -15.36,-6.999l-240.428 0c-27.67,0 -50.308,22.639 -50.308,50.308l0 -5c0,-27.669 22.638,-50.308 50.308,-50.308zm342.44 11.999c3.189,-7.074 10.302,-11.999 18.566,-11.999l414.958 0c27.67,0 50.308,22.639 50.308,50.308l0 5c0,-27.669 -22.638,-50.308 -50.308,-50.308l-414.958 0c-6.13,0 -11.627,2.711 -15.359,6.999l-3.207 0z"/>
  <path class="fil3" d="M865.288 133.594c-1.656,0 -3,-1.344 -3,-3l0 -34.171c0,-1.656 1.344,-2.999 3,-2.999l6.001 0 0 -37.768c0,-21.069 -17.238,-38.307 -38.307,-38.307l-433.524 0c0.473,-1.051 1.034,-2.053 1.671,-3l431.853 0c11.363,0 21.691,4.647 29.176,12.132 7.484,7.484 12.131,17.812 12.131,29.175l0 37.768c0,1.656 -1.343,2.999 -3,2.999l-6.001 0 0 34.171 6.001 0c1.657,0 3,1.343 3,3l0 194.75c0,11.363 -4.647,21.691 -12.131,29.176 -7.485,7.484 -17.813,12.131 -29.176,12.131l-775.964 0c-11.362,0 -21.691,-4.647 -29.175,-12.131 -7.485,-7.485 -12.131,-17.813 -12.131,-29.176l0 -272.688c0,-11.363 4.646,-21.691 12.131,-29.175 7.484,-7.485 17.813,-12.132 29.175,-12.132l257.323 0c0.638,0.947 1.198,1.949 1.672,3l-258.995 0c-21.069,0 -38.307,17.238 -38.307,38.307l0 272.688c0,21.069 17.238,38.307 38.307,38.307l775.964 0c21.069,0 38.307,-17.238 38.307,-38.307l0 -194.75 -6.001 0z"/>
  <path class="fil2" d="M57.018 17.349l775.964 0c21.069,0 38.307,17.238 38.307,38.307l0 5c0,-21.069 -17.238,-38.307 -38.307,-38.307l-775.964 0c-21.069,0 -38.307,17.238 -38.307,38.307l0 -5c0,-21.069 17.238,-38.307 38.307,-38.307z"/>
  <path class="fil1" d="M871.289 323.344l0 5c0,21.069 -17.238,38.307 -38.307,38.307l-775.964 0c-21.069,0 -38.307,-17.238 -38.307,-38.307l0 -5c0,21.069 17.238,38.307 38.307,38.307l775.964 0c21.069,0 38.307,-17.238 38.307,-38.307z"/>
  <rect class="fil4 str0" x="44.711" y="43.349" width="800.577" height="297.302" rx="12.307" ry="12.307"/>
  <path class="fil5 str1" d="M44.711 282.738l800.578 0m0 12.508l-800.578 0"/>
  <path class="fil0 str2" d="M336.204 222.845c-24.255,0 -43.919,19.664 -43.919,43.92 0,24.256 19.663,43.92 43.919,43.92l155.004 0c24.256,0 43.92,-19.664 43.92,-43.92 0,-24.256 -19.664,-43.92 -43.92,-43.92l-155.004 0z"/>
  <path class="fil6" d="M336.204 305.397c-21.335,0 -38.632,-17.296 -38.632,-38.632 0,-21.336 17.297,-38.632 38.632,-38.632 51.668,0 103.336,0 155.004,0 21.336,0 38.632,17.296 38.632,38.632 0,21.336 -17.296,38.632 -38.632,38.632 -51.668,0 -103.336,0 -155.004,0z"/>
  <path class="fil0" d="M491.208 244.472c12.312,0 22.293,9.981 22.293,22.293 0,12.312 -9.981,22.293 -22.293,22.293l-155.004 0c-12.311,0 -22.292,-9.981 -22.292,-22.293 0,-12.312 9.981,-22.293 22.292,-22.293l155.004 0z"/>
  <path class="fil7" d="M380.124 252.458c7.901,0 14.306,6.405 14.306,14.307 0,7.901 -6.405,14.307 -14.306,14.307l-43.92 0c-7.901,0 -14.306,-6.406 -14.306,-14.307 0,-7.902 6.405,-14.307 14.306,-14.307l43.92 0z"/>
  <path class="fil7" d="M491.209 252.458c7.901,0 14.306,6.405 14.306,14.307 0,7.901 -6.405,14.307 -14.306,14.307l-43.92 0c-7.901,0 -14.306,-6.406 -14.306,-14.307 0,-7.902 6.405,-14.307 14.306,-14.307l43.92 0z"/>
  <path class="fil8" d="M328.634 208.454c2.642,0 4.346,-1.373 4.346,-3.464 0,-1.661 -1.075,-2.666 -3.408,-3.218l-1.259 -0.297c-1.605,-0.384 -2.229,-0.866 -2.229,-1.709 0,-1.05 0.992,-1.792 2.4,-1.792 1.469,0 2.424,0.819 2.512,2.152l1.672 0c-0.069,-2.269 -1.65,-3.666 -4.16,-3.666 -2.501,0 -4.136,1.352 -4.136,3.394 0,1.606 1.022,2.579 3.368,3.134l1.278 0.303c1.618,0.382 2.234,0.897 2.234,1.792 0,1.131 -1.04,1.856 -2.618,1.856 -1.744,0 -2.769,-0.904 -2.777,-2.44l-1.72 0c0,2.456 1.707,3.955 4.497,3.955zm6.01 -0.173l7.822 0 0 -1.52 -6.094 0 0 -3.667 5.64 0 0 -1.498 -5.64 0 0 -3.443 6.094 0 0 -1.52 -7.822 0 0 11.648zm9.421 0l7.235 0 0 -1.52 -5.507 0 0 -10.128 -1.728 0 0 11.648zm8.68 0l7.822 0 0 -1.52 -6.094 0 0 -3.667 5.641 0 0 -1.498 -5.641 0 0 -3.443 6.094 0 0 -1.52 -7.822 0 0 11.648zm14.403 0.176c2.541,0 4.509,-1.568 4.907,-4.04l-1.757 0c-0.369,1.576 -1.555,2.456 -3.134,2.456 -2.296,0 -3.701,-1.779 -3.701,-4.408 0,-2.645 1.405,-4.424 3.701,-4.424 1.587,0 2.781,0.888 3.125,2.472l1.766 0c-0.405,-2.48 -2.366,-4.056 -4.907,-4.056 -3.219,0 -5.429,2.426 -5.429,6.008 0,3.557 2.218,5.992 5.429,5.992zm5.896 -10.304l3.709 0 0 10.128 1.744 0 0 -10.128 3.694 0 0 -1.52 -9.147 0 0 1.52z"/>
  <path class="fil8" d="M454.898 208.454c2.643,0 4.347,-1.373 4.347,-3.464 0,-1.661 -1.075,-2.666 -3.408,-3.218l-1.259 -0.297c-1.605,-0.384 -2.229,-0.866 -2.229,-1.709 0,-1.05 0.992,-1.792 2.4,-1.792 1.469,0 2.424,0.819 2.512,2.152l1.672 0c-0.069,-2.269 -1.651,-3.666 -4.16,-3.666 -2.502,0 -4.136,1.352 -4.136,3.394 0,1.606 1.021,2.579 3.368,3.134l1.277 0.303c1.619,0.382 2.235,0.897 2.235,1.792 0,1.131 -1.04,1.856 -2.619,1.856 -1.744,0 -2.768,-0.904 -2.776,-2.44l-1.72 0c0,2.456 1.707,3.955 4.496,3.955zm5.059 -10.301l3.709 0 0 10.128 1.744 0 0 -10.128 3.694 0 0 -1.52 -9.147 0 0 1.52zm8.093 10.128l1.843 0 1.064 -3.024 4.69 0 1.032 3.024 1.883 0 -4.195 -11.648 -2.093 0 -4.224 11.648zm3.429 -4.496l0.726 -2.064c0.32,-0.963 0.656,-1.989 1.125,-3.499 0.461,1.51 0.789,2.536 1.11,3.499l0.701 2.064 -3.662 0zm8.288 4.496l1.728 0 0 -4.416 2.579 0c0.024,0 0.056,0 0.077,0l2.323 4.416 1.952 0 -2.515 -4.704c1.453,-0.523 2.336,-1.691 2.336,-3.317 0,-2.227 -1.563,-3.624 -4.056,-3.624l-4.424 0 0 11.645zm1.728 -5.888l0 -4.259 2.619 0c1.499,0 2.421,0.814 2.421,2.126 0,1.314 -0.914,2.133 -2.413,2.133l-2.627 0zm7.454 -4.24l3.709 0 0 10.128 1.744 0 0 -10.128 3.693 0 0 -1.52 -9.146 0 0 1.52z"/>
  <circle class="fil0 str2" cx="625.713" cy="271.993" r="45.3"/>
  <circle class="fil7" cx="625.713" cy="271.993" r="40"/>
  <circle class="fil0 str2" cx="740.716" cy="271.993" r="45.3"/>
  <circle class="fil7" cx="740.716" cy="271.993" r="40"/>
  <polyline class="fil5 str3" points="717.378,68.281 740.716,68.281 740.715,139.911 625.713,139.911 625.714,68.28 649.05,68.28 "/>
  <path class="fil0 str2" d="M625.713 182.29c-25.019,0 -45.3,-20.282 -45.3,-45.3 0,-25.019 20.281,-45.3 45.3,-45.3 49.997,0 63.64,0 115.003,0 25.018,0 45.3,20.281 45.3,45.3 0,25.018 -20.282,45.3 -45.3,45.3 -51.514,0 -51.922,0 -115.003,0z"/>
  <circle class="fil7" cx="625.713" cy="136.99" r="40"/>
  <circle class="fil7" cx="740.716" cy="136.99" r="40"/>
  <path class="fil8" d="M655.628 64.04l3.709 0 0 10.128 1.744 0 0 -10.128 3.693 0 0 -1.519 -9.146 0 0 1.519zm15.149 10.304c2.805,0 4.618,-1.738 4.618,-4.168l0 -7.655 -1.712 0 0 7.514c0,1.595 -1.104,2.741 -2.906,2.741 -1.798,0 -2.902,-1.146 -2.902,-2.741l0 -7.514 -1.712 0 0 7.655c0,2.43 1.806,4.168 4.614,4.168zm6.709 -0.176l1.728 0 0 -4.416 2.578 0c0.024,0 0.056,0 0.078,0l2.322 4.416 1.953 0 -2.515 -4.704c1.453,-0.522 2.336,-1.69 2.336,-3.317 0,-2.226 -1.563,-3.624 -4.056,-3.624l-4.424 0 0 11.645zm1.728 -5.888l0 -4.258 2.619 0c1.498,0 2.421,0.813 2.421,2.125 0,1.315 -0.915,2.133 -2.414,2.133l-2.626 0zm8.482 5.888l4.478 0c2.752,0 4.13,-1.29 4.13,-3.272 0,-1.661 -1.058,-2.573 -2.408,-2.76l0 -0.016c1.214,-0.373 1.945,-1.194 1.945,-2.536 0,-1.874 -1.4,-3.063 -3.798,-3.063l-4.347 0 0 11.647zm1.713 -1.456l0 -3.744 2.72 0c1.541,0 2.416,0.736 2.416,1.92 0,1.19 -0.899,1.824 -2.478,1.824l-2.658 0zm0 -5.168l0 -3.568 2.61 0c1.32,0 2.109,0.691 2.109,1.787 0,1.099 -0.789,1.781 -2.109,1.781l-2.61 0zm13.439 6.8c3.104,0 5.363,-2.434 5.363,-5.992 0,-3.573 -2.259,-6.008 -5.363,-6.008 -3.106,0 -5.357,2.435 -5.357,6.008 0,3.55 2.251,5.992 5.357,5.992zm0 -1.584c-2.01,0 -3.613,-1.576 -3.613,-4.408 0,-2.847 1.603,-4.424 3.613,-4.424 2.008,0 3.619,1.577 3.619,4.424 0,2.832 -1.611,4.408 -3.619,4.408z"/>
  <path class="fil9" d="M121.95 82.489l-0.9 0c-0.541,0 -1.116,0.037 -1.801,0.073 -0.396,0.035 -0.684,0.035 -0.864,0.035 -0.576,0 -1.008,-0.144 -1.367,-0.396 -0.361,-0.251 -0.54,-0.612 -0.54,-1.007 0,-0.289 0.071,-0.54 0.252,-0.684 0.143,-0.18 0.395,-0.288 0.755,-0.396 0.324,-0.072 0.577,-0.216 0.684,-0.396 0.108,-0.18 0.216,-0.576 0.289,-1.116 0.071,-0.648 0.143,-1.872 0.18,-3.708 0.071,-1.836 0.071,-3.636 0.071,-5.472 0,-0.72 -0.071,-1.188 -0.18,-1.404 -0.108,-0.252 -0.36,-0.432 -0.755,-0.576 -0.576,-0.216 -0.864,-0.612 -0.864,-1.116 0,-0.396 0.215,-0.72 0.611,-0.972 0.396,-0.216 0.973,-0.36 1.692,-0.36 0.252,0 0.504,0 0.828,0 0.72,0.036 1.224,0.036 1.548,0.036 1.225,0 2.556,-0.036 4.104,-0.108 0.324,0 0.721,-0.036 1.188,-0.036 1.945,0 3.456,0.216 4.573,0.648 1.655,0.648 2.915,1.764 3.779,3.312 0.756,1.368 1.116,2.988 1.116,4.896 0,0.936 -0.143,1.908 -0.432,2.88 -0.287,0.972 -0.648,1.8 -1.116,2.484 -0.972,1.404 -2.34,2.412 -4.068,2.988 -1.007,0.324 -2.088,0.504 -3.24,0.504l-1.548 -0.036 -1.332 -0.036c-0.971,-0.037 -1.872,-0.037 -2.663,-0.037zm2.663 -13.716l0 9.792c0,0.541 0.108,0.901 0.324,1.117 0.216,0.216 0.612,0.323 1.152,0.323 2.448,0 3.708,-1.872 3.708,-5.616 0,-2.051 -0.288,-3.671 -0.864,-4.823 -0.648,-1.26 -1.692,-1.872 -3.204,-1.872 -0.396,0 -0.684,0.071 -0.864,0.251 -0.179,0.181 -0.252,0.432 -0.252,0.828zm24.517 8.064l-5.941 0c-0.252,0 -0.396,0.109 -0.396,0.325 0,0.539 0.289,1.08 0.901,1.547 0.611,0.468 1.223,0.72 1.907,0.72 0.397,0 0.864,-0.071 1.332,-0.252 0.505,-0.143 0.901,-0.359 1.225,-0.575 0.288,-0.216 0.503,-0.289 0.684,-0.289 0.215,0 0.432,0.145 0.647,0.396 0.217,0.288 0.325,0.541 0.325,0.829 0,0.611 -0.396,1.187 -1.153,1.763 -1.332,1.008 -2.88,1.513 -4.643,1.513 -1.764,0 -3.24,-0.504 -4.465,-1.548 -0.575,-0.504 -1.079,-1.116 -1.439,-1.837 -0.504,-0.935 -0.756,-1.943 -0.756,-3.024 0,-1.403 0.432,-2.699 1.296,-3.815 0.756,-0.972 1.692,-1.692 2.844,-2.197 0.864,-0.359 1.8,-0.539 2.808,-0.539 1.62,0 2.952,0.468 4.104,1.367 0.576,0.468 1.008,1.008 1.368,1.62 0.396,0.72 0.612,1.404 0.612,2.089 0,0.54 -0.108,1.008 -0.324,1.331 -0.289,0.397 -0.577,0.576 -0.936,0.576zm-5.616 -2.375l1.296 0c0.539,0 0.827,-0.252 0.827,-0.756 0,-0.469 -0.144,-0.828 -0.395,-1.116 -0.252,-0.288 -0.613,-0.432 -1.008,-0.432 -0.469,0 -0.828,0.18 -1.116,0.539 -0.253,0.361 -0.396,0.684 -0.396,1.045 0,0.251 0.072,0.432 0.18,0.54 0.072,0.107 0.287,0.18 0.612,0.18zm23.003 0.108l0.18 4.463c0,0.325 0.073,0.576 0.144,0.757 0.073,0.143 0.361,0.468 0.793,0.935 0.144,0.144 0.179,0.324 0.179,0.576 0,0.541 -0.323,0.936 -1.008,1.152 -0.684,0.217 -1.872,0.324 -3.564,0.324 -1.152,0 -1.979,-0.108 -2.484,-0.288 -0.503,-0.216 -0.756,-0.54 -0.756,-1.008 0,-0.18 0.037,-0.288 0.072,-0.359 0.037,-0.073 0.216,-0.288 0.504,-0.576 0.324,-0.361 0.504,-1.549 0.504,-3.529 0,-1.152 -0.144,-2.016 -0.395,-2.592 -0.217,-0.432 -0.613,-0.683 -1.225,-0.683 -0.576,0 -0.935,0.18 -1.152,0.539 -0.216,0.361 -0.324,1.008 -0.324,1.98l0 2.521c0,0.503 0.036,0.827 0.109,1.008 0.071,0.18 0.288,0.539 0.611,1.079 0.109,0.144 0.144,0.324 0.144,0.505 0,0.503 -0.36,0.864 -1.043,1.115 -0.685,0.252 -1.765,0.361 -3.241,0.361 -2.34,0 -3.528,-0.468 -3.528,-1.44 0,-0.217 0.036,-0.36 0.108,-0.468 0.072,-0.108 0.252,-0.252 0.504,-0.432 0.216,-0.144 0.36,-0.361 0.432,-0.54 0.072,-0.217 0.109,-0.72 0.18,-1.513 0.072,-0.972 0.072,-1.98 0.072,-3.024 0,-0.576 -0.036,-0.972 -0.143,-1.152 -0.073,-0.18 -0.361,-0.396 -0.757,-0.648 -0.36,-0.216 -0.539,-0.504 -0.539,-0.828 0,-0.323 0.143,-0.611 0.432,-0.828 0.288,-0.215 0.899,-0.503 1.835,-0.827 0.828,-0.289 1.584,-0.54 2.341,-0.721 0.755,-0.216 1.259,-0.288 1.547,-0.288 0.252,0 0.469,0.108 0.648,0.288 0.18,0.181 0.253,0.396 0.253,0.648 0,0.037 0,0.144 0,0.324 0,0.073 0,0.144 0,0.181 0,0.395 0.179,0.612 0.503,0.612 0.217,0 0.432,-0.144 0.649,-0.469 0.72,-1.044 1.763,-1.584 3.168,-1.584 1.079,0 1.979,0.288 2.736,0.828 0.539,0.396 0.9,0.864 1.115,1.404 0.217,0.361 0.361,1.152 0.396,2.197zm16.848 -8.353l0 11.556c0,0.648 0.036,1.08 0.072,1.26 0.072,0.18 0.216,0.361 0.469,0.54 0.288,0.217 0.503,0.397 0.611,0.541 0.109,0.144 0.144,0.359 0.144,0.576 0,0.683 -0.684,1.187 -2.051,1.547 -1.225,0.325 -2.448,0.469 -3.673,0.469 -0.288,0 -0.432,-0.037 -0.54,-0.109 -0.072,-0.072 -0.144,-0.288 -0.144,-0.576 -0.036,-0.432 -0.18,-0.648 -0.468,-0.648 -0.144,0 -0.36,0.144 -0.684,0.396 -0.864,0.684 -1.836,1.044 -2.88,1.044 -1.296,0 -2.484,-0.468 -3.528,-1.44 -0.612,-0.576 -1.116,-1.259 -1.476,-2.016 -0.504,-0.972 -0.756,-1.979 -0.756,-2.987 0,-1.189 0.324,-2.341 0.972,-3.456 0.612,-1.008 1.44,-1.801 2.484,-2.341 0.864,-0.468 1.728,-0.683 2.592,-0.683 0.972,0 1.872,0.215 2.629,0.647 0.144,0.073 0.215,0.108 0.288,0.108 0.288,0 0.395,-0.359 0.395,-1.08 0,-0.324 -0.072,-0.539 -0.216,-0.72 -0.144,-0.18 -0.396,-0.288 -0.792,-0.432 -0.539,-0.18 -0.792,-0.468 -0.792,-0.9 0,-0.612 0.612,-1.08 1.836,-1.44 2.16,-0.612 3.601,-0.9 4.356,-0.9 0.793,0 1.152,0.361 1.152,1.044zm-6.876 6.373c-0.539,0 -0.971,0.288 -1.296,0.864 -0.432,0.791 -0.647,1.799 -0.647,3.06 0,1.152 0.215,2.016 0.611,2.592 0.288,0.432 0.685,0.648 1.188,0.648 0.54,0 0.937,-0.324 1.188,-0.972 0.252,-0.649 0.36,-1.656 0.36,-3.096 0,-1.296 -0.144,-2.16 -0.432,-2.592 -0.215,-0.324 -0.54,-0.468 -0.972,-0.504zm20.988 3.527l-1.656 4.573c-0.395,1.152 -0.827,2.051 -1.259,2.807 -0.432,0.757 -0.901,1.333 -1.44,1.837 -1.08,1.044 -2.413,1.584 -3.96,1.584 -1.26,0 -2.268,-0.324 -3.024,-0.972 -0.612,-0.504 -0.901,-1.153 -0.901,-1.944 0,-0.649 0.217,-1.188 0.612,-1.656 0.396,-0.469 0.937,-0.648 1.548,-0.648 0.612,0 1.081,0.216 1.476,0.611 0.181,0.18 0.289,0.361 0.361,0.505 0.071,0.143 0.144,0.468 0.252,0.935 0.108,0.361 0.288,0.541 0.647,0.541 0.253,0 0.469,-0.109 0.649,-0.324 0.18,-0.217 0.252,-0.505 0.252,-0.864 0,-0.396 -0.216,-1.045 -0.648,-1.98l-3.06 -6.48c-0.324,-0.685 -0.576,-1.081 -0.72,-1.261 -0.144,-0.179 -0.505,-0.359 -1.081,-0.611 -0.179,-0.073 -0.323,-0.217 -0.432,-0.396 -0.108,-0.216 -0.179,-0.396 -0.179,-0.576 0,-0.756 0.755,-1.26 2.231,-1.548 1.008,-0.18 2.124,-0.252 3.42,-0.252 0.9,0 1.584,0.108 2.124,0.288 0.684,0.252 1.044,0.648 1.044,1.26 0,0.216 -0.108,0.468 -0.288,0.756 -0.18,0.288 -0.288,0.504 -0.288,0.72 0,0.216 0.036,0.396 0.144,0.648 0.072,0.216 0.288,0.576 0.576,1.116 0.324,0.576 0.612,0.9 0.864,0.9 0.252,0 0.54,-0.252 0.828,-0.792 0.288,-0.54 0.432,-1.008 0.432,-1.512 0,-0.396 -0.108,-0.72 -0.324,-0.936 -0.324,-0.396 -0.468,-0.72 -0.468,-0.972 0,-0.432 0.288,-0.756 0.864,-1.044 0.576,-0.252 1.332,-0.396 2.304,-0.396 1.8,0 2.7,0.432 2.7,1.296 0,0.324 -0.108,0.576 -0.288,0.756 -0.18,0.18 -0.504,0.36 -1.008,0.54 -0.396,0.144 -0.72,0.396 -0.972,0.756 -0.432,0.504 -0.828,1.439 -1.332,2.735z"/>
  <path class="fil10" d="M128.56 112.005l4.557 -21.436 3.417 0 -4.588 21.585c-0.342,1.61 -1.924,2.915 -3.534,2.915l-1.783 0 0.47 -2.213 0.43 0c0.47,0 0.931,-0.381 1.031,-0.851zm56.15 -6.403l0.124 9.467 -3.503 0 -0.12 -9.174 -0.041 0 -1.95 9.174 -3.417 0 5.207 -24.5 5.621 0c1.61,0 2.637,1.305 2.295,2.914l-2.018 9.498c-0.245,1.152 -1.126,2.149 -2.198,2.621zm-15.842 -12.119c0.342,-1.609 1.924,-2.914 3.534,-2.914l2.707 0c1.609,0 2.637,1.305 2.295,2.914l-3.969 18.671c-0.342,1.61 -1.924,2.915 -3.534,2.915l-2.707 0c-1.609,0 -2.637,-1.305 -2.295,-2.915l3.969 -18.671zm-25.399 18.671l4.588 -21.585 -3.418 0 -4.556 21.436c-0.1,0.47 -0.562,0.851 -1.031,0.851 -0.47,0 -0.77,-0.381 -0.67,-0.851l4.556 -21.436 -3.417 0 -4.588 21.585c-0.342,1.61 0.685,2.915 2.295,2.915l2.707 0c1.609,0 3.192,-1.305 3.534,-2.915zm28.785 -18.522l-3.906 18.373c-0.1,0.47 0.2,0.851 0.67,0.851 0.47,0 0.931,-0.381 1.031,-0.851l3.906 -18.373c0.1,-0.47 -0.201,-0.85 -0.67,-0.85 -0.47,0 -0.932,0.38 -1.031,0.85zm-5.754 -3.063l-5.207 24.5 -3.417 0 5.207 -24.5 3.417 0zm17.457 2.213c-0.782,3.681 -1.565,7.363 -2.348,11.045l0.851 0c0.469,0 0.931,-0.381 1.031,-0.85l1.986 -9.345c0.1,-0.47 -0.2,-0.85 -0.669,-0.85l-0.851 0zm-31.84 8.814l-2.863 13.473 -3.418 0 5.208 -24.5 3.417 0 -0.646 13.472 2.864 -13.472 3.417 0 -5.207 24.5 -3.418 0 0.646 -13.473z"/>
  <path class="fil0 str2" d="M195.454 194.544l35.745 0c6.123,0 11.184,5.061 11.184,11.183l0 47.362c0,6.154 -5.11,10.915 -11.183,10.915l-35.727 0c-1.46,0 -2.65,1.19 -2.65,2.65l0 35.994c0,6.154 -5.11,10.916 -11.183,10.916l-47.094 0c-6.073,0 -11.183,-4.762 -11.183,-10.916l0 -35.994c0,-1.46 -1.19,-2.65 -2.65,-2.65l-35.726 0c-6.073,0 -11.184,-4.761 -11.184,-10.915l0.001 -47.362c0,-6.121 5.061,-11.183 11.183,-11.183l35.746 0c1.46,0 2.65,-1.191 2.649,-2.651l-0.019 -35.725c0,-5.93 4.906,-11.184 10.916,-11.184l47.629 0c6.009,0 10.915,5.254 10.915,11.184l-0.019 35.725c-0.001,1.46 1.19,2.651 2.65,2.651z"/>
  <path class="fil7" d="M231.199 199.834l-39.38 0c-2.401,0 -4.271,-1.861 -4.286,-4.258 0,-13.136 0,-26.272 0,-39.408 0,-3.215 -2.679,-5.894 -5.625,-5.894 -15.877,0 -31.753,0 -47.629,0 -2.947,0 -5.626,2.679 -5.626,5.894 0,13.136 0,26.272 0,39.408 -0.015,2.397 -1.885,4.258 -4.286,4.258l-39.38 0c-3.215,0 -5.894,2.679 -5.894,5.893 0,15.787 0,31.575 0,47.362 0,3.214 2.679,5.625 5.894,5.625l39.38 0c2.411,0 4.286,2.144 4.286,4.287l0 39.647c0,3.215 2.679,5.626 5.893,5.626 15.698,0 31.396,0 47.094,0 3.215,0 5.893,-2.411 5.893,-5.626l0 -39.647c0,-2.143 1.876,-4.287 4.287,-4.287l39.38 0c3.214,0 5.893,-2.411 5.893,-5.625 0,-15.787 0,-31.575 0,-47.362 0,-3.214 -2.679,-5.893 -5.894,-5.893z"/>
  <path class="fil11" d="M225.2 205.834l-39.38 0c-2.411,0 -4.287,-1.876 -4.287,-4.287l0 -39.379c0,-3.215 -2.678,-5.894 -5.625,-5.894l-35.362 0c-3.214,0 -5.893,2.679 -5.893,5.894l0 39.379c0,2.411 -1.875,4.287 -4.286,4.287l-39.38 0c-3.215,0 -5.894,2.679 -5.894,5.893l0 35.362c0,3.214 2.679,5.625 5.894,5.625l39.38 0c2.411,0 4.286,2.144 4.286,4.286l0 39.648c0,3.215 2.679,5.626 5.893,5.626l35.362 0c2.947,0 5.625,-2.411 5.625,-5.626l0 -39.648c0,-2.142 1.876,-4.286 4.287,-4.286l39.38 0c3.214,0 5.893,-2.411 5.893,-5.625l0 -35.362c0,-3.214 -2.679,-5.893 -5.893,-5.893z"/>
  <path class="fil7" d="M665.713 191.699c17.338,0 17.665,0 35.002,0 9.953,0 18.021,8.068 18.021,18.02 0,9.952 -8.068,18.02 -18.021,18.02 -17.337,0 -17.664,0 -35.002,0 -9.952,0 -18.02,-8.068 -18.02,-18.02 0,-9.952 8.068,-18.02 18.02,-18.02z"/>
  <path class="fil12" d="M664.438 221.367l9.866 0c5.296,0 8.15,-2.667 8.15,-6.56 0,-3.317 -2.182,-5.312 -5.019,-5.573l0 -0.032c2.549,-0.64 4.155,-2.438 4.155,-5.142 0,-3.589 -2.806,-5.989 -7.819,-5.989l-9.333 0 0 23.296zm4.704 -3.776l0 -6.208 4.565 0c2.427,0 3.851,1.216 3.851,3.157 0,1.942 -1.456,3.051 -3.926,3.051l-4.49 0zm0 -9.824l0 -5.92 4.272 0c2.112,0 3.408,1.147 3.408,2.965 0,1.808 -1.296,2.955 -3.408,2.955l-4.272 0zm14.32 13.6l5.189 0 1.685 -5.088 8.699 0 1.627 5.088 5.328 0 -8.171 -23.296 -6.187 0 -8.17 23.296zm8.17 -8.928l0.795 -2.405c0.752,-2.379 1.472,-4.752 2.315,-7.648 0.826,2.896 1.546,5.269 2.266,7.648l0.779 2.405 -6.155 0z"/>
  <path class="fil13" d="M175.932 229.142c0,-9.777 -7.93,-17.707 -17.707,-17.707 -9.778,0 -17.971,7.93 -17.971,17.707 0,9.778 8.193,17.971 17.971,17.971 9.777,0 17.707,-8.193 17.707,-17.971z"/>
  <path class="fil13" d="M169.022 196.435l-21.594 0c-0.552,0 -1,-0.448 -1,-1l0 -14.473 -4.073 0c-0.552,0 -1,-0.448 -1,-1 0,-0.311 0.142,-0.59 0.365,-0.773l15.817 -15.027c0.387,-0.368 0.993,-0.364 1.375,0l15.87 15.077c0.399,0.379 0.415,1.011 0.035,1.41 -0.196,0.206 -0.459,0.31 -0.722,0.31l-4.073 0.003 0 14.473c0,0.552 -0.448,1 -1,1z"/>
  <path class="fil13" d="M147.428 262.113l21.594 0c0.552,0 1,0.448 1,1l0 14.473 4.073 0c0.263,0.003 0.526,0.107 0.722,0.313 0.38,0.398 0.364,1.03 -0.035,1.41l-15.87 15.076c-0.382,0.365 -0.988,0.368 -1.375,0l-15.817 -15.026c-0.223,-0.184 -0.365,-0.462 -0.365,-0.773 0,-0.552 0.448,-1 1,-1l4.073 0 0 -14.473c0,-0.552 0.448,-1 1,-1z"/>
  <path class="fil13" d="M125.386 218.477l0 21.594c0,0.552 -0.448,1 -1.001,1l-14.472 0 0 4.073c0,0.552 -0.448,1 -1.001,1 -0.311,0 -0.589,-0.142 -0.772,-0.365l-15.027 -15.818c-0.368,-0.386 -0.364,-0.992 0,-1.375l15.077 -15.87c0.379,-0.398 1.011,-0.414 1.41,-0.035 0.206,0.196 0.309,0.46 0.309,0.723l0.004 4.073 14.472 0c0.553,0 1.001,0.448 1.001,1z"/>
  <path class="fil13" d="M191.064 240.071l0 -21.594c0,-0.552 0.448,-1 1,-1l14.473 0 0 -4.073c0.003,-0.263 0.107,-0.527 0.313,-0.723 0.398,-0.379 1.03,-0.363 1.41,0.035l15.076 15.87c0.365,0.383 0.368,0.989 0,1.375l-15.026 15.818c-0.184,0.223 -0.462,0.365 -0.773,0.365 -0.552,0 -1,-0.448 -1,-1l0 -4.073 -14.473 0c-0.552,0 -1,-0.448 -1,-1z"/>
  <path class="fil14" d="M336.204 279.076c-6.798,0 -12.311,-5.512 -12.311,-12.311 0,-6.799 5.512,-12.311 12.311,-12.311l43.919 0c6.799,0 12.311,5.512 12.311,12.311 0,6.799 -5.512,12.311 -12.311,12.311l-43.919 0z"/>
  <path class="fil14" d="M447.289 279.076c-6.798,0 -12.31,-5.512 -12.31,-12.311 0,-6.799 5.511,-12.311 12.31,-12.311l43.92 0c6.799,0 12.31,5.512 12.31,12.311 0,6.799 -5.512,12.311 -12.31,12.311l-43.92 0z"/>
  <circle class="fil14" cx="625.713" cy="271.993" r="37.041"/>
  <circle class="fil15" cx="625.713" cy="136.99" r="37.041"/>
  <circle class="fil14" cx="740.716" cy="271.993" r="37.041"/>
  <circle class="fil15" cx="740.716" cy="136.99" r="37.041"/>
  <path class="fil16" d="M625.713 238.142c17.066,0 31.183,12.63 33.513,29.052 0.099,0.703 -0.255,1.361 -0.896,1.665 -0.643,0.304 -1.179,-0.154 -1.857,-0.364 -6.401,-1.986 -17.784,-6.633 -30.76,-6.633 -12.976,0 -24.36,4.649 -30.761,6.635 -0.677,0.21 -1.214,0.668 -1.856,0.364 -0.641,-0.303 -0.996,-0.962 -0.897,-1.665 2.33,-16.422 16.447,-29.054 33.514,-29.054z"/>
  <path class="fil16" d="M740.716 238.142c17.066,0 31.183,12.63 33.513,29.052 0.099,0.703 -0.255,1.361 -0.897,1.665 -0.642,0.304 -1.179,-0.154 -1.857,-0.364 -6.4,-1.986 -17.783,-6.633 -30.759,-6.633 -12.977,0 -24.36,4.649 -30.761,6.635 -0.677,0.21 -1.214,0.668 -1.856,0.364 -0.642,-0.303 -0.997,-0.962 -0.897,-1.665 2.33,-16.422 16.447,-29.054 33.514,-29.054z"/>
  <path class="fil17" d="M625.713 103.139c17.066,0 31.183,12.63 33.513,29.052 0.099,0.703 -0.255,1.361 -0.896,1.664 -0.643,0.304 -1.179,-0.153 -1.857,-0.364 -6.401,-1.985 -17.784,-6.633 -30.76,-6.633 -12.976,0 -24.36,4.65 -30.761,6.635 -0.677,0.211 -1.214,0.668 -1.856,0.365 -0.641,-0.304 -0.996,-0.963 -0.897,-1.665 2.33,-16.423 16.447,-29.054 33.514,-29.054z"/>
  <path class="fil17" d="M740.716 103.139c17.066,0 31.183,12.63 33.513,29.052 0.099,0.703 -0.255,1.361 -0.897,1.664 -0.642,0.304 -1.179,-0.153 -1.857,-0.364 -6.4,-1.985 -17.783,-6.633 -30.759,-6.633 -12.977,0 -24.36,4.65 -30.761,6.635 -0.677,0.211 -1.214,0.668 -1.856,0.365 -0.642,-0.304 -0.997,-0.963 -0.897,-1.665 2.33,-16.423 16.447,-29.054 33.514,-29.054z"/>
 </g>
</svg>
